<?xml version="1.0" encoding="utf-8"?>
<!-- Generator: Adobe Illustrator 17.0.0, SVG Export Plug-In . SVG Version: 6.00 Build 0)  -->
<!DOCTYPE svg PUBLIC "-//W3C//DTD SVG 1.1//EN" "http://www.w3.org/Graphics/SVG/1.1/DTD/svg11.dtd">
<svg version="1.1" id="레이어_1" xmlns="http://www.w3.org/2000/svg" xmlns:xlink="http://www.w3.org/1999/xlink" x="0px"
	 y="0px" width="400px" height="200px" viewBox="0 0 400 200" enable-background="new 0 0 400 200" xml:space="preserve">
<g>
	<circle fill="#FFFFFF" cx="46.231" cy="100.177" r="46.231"/>
	<path fill="#0188CC" d="M33.266,55.413c9.526-2.738,19.951-2.4,29.239,1.097c10.782,4.022,19.901,12.263,25.057,22.548
		c3.958,7.798,5.526,16.734,4.676,25.427c-1.847-7.181-6.184-13.525-11.496-18.608c-4.909-5.055-11.221-8.511-17.721-11.084
		c-2.957-1.01-6.052-1.545-9.091-2.24c-3.821-0.713-7.738-0.53-11.601-0.439c-3.583,0.073-7.007,1.17-10.426,2.107
		c-9.128,2.587-17.332,8.163-23.37,15.445c-1.833,2.18-3.277,4.644-4.886,6.989c-1.613,2.24-2.445,4.904-3.442,7.45
		c-0.923-9.667,1.28-19.609,6.294-27.937C12.396,66.222,22.141,58.612,33.266,55.413L33.266,55.413z"/>
	<path fill="#016EAF" d="M235.765,63.731c3.026,0.073,6.056-0.059,9.078,0.064c1.316,0.027,2.788,0.987,2.596,2.459
		c0,24.86,0.032,49.726-0.014,74.591c-3.579,0.009-7.153-0.018-10.728-0.009c-0.046-7.473-0.023-14.946-0.014-22.42
		c-2.971,1.604-6.408,1.833-9.717,1.933c-10.814-0.009-21.634-0.009-32.448,0c-2.13-0.041-4.452-0.338-6.139-1.76
		c-1.124-0.919-1.476-2.436-1.444-3.826c0.005-7.167,0.009-14.329,0-21.492c0.023-1.517-0.37-2.994-0.955-4.383
		c8.995,0.005,17.995-0.005,26.995,0.005c-0.014-5.448-0.018-10.901,0-16.35c-9.1-0.009-18.205,0.005-27.306-0.005
		c0.009-2.139,0.014-4.278-0.005-6.417c11.788-0.014,23.572,0.005,35.355-0.009c1.006,0.014,2.263,0.014,2.912,0.928
		c0.361,0.754,0.375,1.613,0.407,2.436c-0.005,7.469-0.018,14.942,0.005,22.411c-0.018,0.928-0.018,1.943-0.558,2.742
		c-0.731,0.695-1.787,0.75-2.733,0.768c-7.597,0-15.189-0.014-22.785,0.005c0.037,5.389-0.023,10.782,0.027,16.176
		c-0.151,1.225,0.814,2.464,2.112,2.317c8.538,0.032,17.081-0.018,25.619,0.018c2.765,0.046,5.681-0.21,8.127-1.613
		c1.568-0.859,2.601-2.596,2.528-4.393c-0.005-11.742-0.005-23.48-0.005-35.222C236.698,69.687,236.798,66.602,235.765,63.731
		L235.765,63.731z"/>
	<path fill="#016EAF" d="M376.701,63.741c2.633,0.055,5.275-0.059,7.907,0.041c1.083-0.027,2.135,0.864,2.057,1.997
		c0.073,4.466-0.023,8.931,0.046,13.392c1.371-0.005,2.747,0,4.123,0c0.037-3.533,0.055-7.071-0.005-10.609
		c-0.009-1.645-0.311-3.273-0.827-4.831c2.619,0.069,5.247-0.055,7.866,0.046c1.106-0.032,2.217,0.873,2.112,2.039
		c0.032,12.41,0.018,24.819,0.009,37.229c-3.049-0.032-6.088,0-9.132-0.014c0.005-5.777,0-11.555,0.005-17.332
		c-1.403,0-2.802,0.005-4.196,0.014c0.174,5.773,0.059,11.55,0.082,17.328c-3.058-0.014-6.111-0.018-9.164,0.005
		c-0.009-11.029,0-22.059-0.005-33.092C377.592,67.85,377.419,65.729,376.701,63.741L376.701,63.741z"/>
	<path fill="#016EAF" d="M320.362,78.198c-0.932-4.722-4.146-8.748-8.186-11.249c-6.591-4.132-14.782-5.165-22.379-4.031
		c-6.792,1.047-13.781,4.274-17.415,10.371c-2.624,4.393-2.953,10.06-0.772,14.704c2.199,4.877,6.769,8.287,11.665,10.17
		c7.779,2.898,16.606,2.889,24.381-0.032c4.717-1.847,9.155-5.055,11.39-9.722C320.668,85.287,320.928,81.626,320.362,78.198z
		 M306.069,89.575c-5.439,5.65-15.614,5.709-21.135,0.142c-3.999-3.986-4.415-10.91-1.028-15.404
		c1.851-2.546,4.74-4.214,7.784-4.909c4.484-1.01,9.484-0.197,13.136,2.678C310.137,76.127,310.662,84.798,306.069,89.575z"/>
	<path fill="#016EAF" d="M168.762,75.483c-2.071-4.79-6.39-8.259-11.084-10.312c-6.408-2.761-13.653-3.414-20.505-2.221
		c-6.372,1.083-12.762,3.986-16.697,9.288c-3.117,4.164-4.187,9.845-2.596,14.823c1.623,5.668,6.395,9.896,11.656,12.199
		c6.733,2.962,14.412,3.524,21.597,2.112c5.965-1.17,11.843-4.022,15.609-8.922C170.422,87.714,171.258,80.945,168.762,75.483z
		 M154.968,90.731c-5.535,5.841-15.797,6.129-21.757,0.782c-4.868-4.255-5.343-12.442-1.147-17.314
		c1.86-2.253,4.521-3.716,7.318-4.447c5.014-1.248,10.755-0.32,14.691,3.168C159.164,77.293,159.511,85.84,154.968,90.731z"/>
	<path fill="#009EDB" d="M42.33,72.114c3.862-0.091,7.779-0.274,11.601,0.439c3.04,0.695,6.134,1.23,9.091,2.24
		c6.5,2.573,12.812,6.029,17.721,11.084c5.311,5.083,9.649,11.427,11.496,18.608c-0.073,1.353-0.357,2.683-0.594,4.013
		c-1.773-3.922-3.401-7.971-6.075-11.395c-1.732-2.084-3.094-4.498-5.252-6.203c-6.81-6.765-15.783-11.221-25.24-12.789
		c-5.051-0.859-10.298-1.417-15.362-0.357c-2.199,0.357-4.429,0.608-6.545,1.33c-3.652,1.28-7.45,2.285-10.769,4.351
		c-2.212,1.399-4.443,2.788-6.564,4.329c-5.357,4.329-9.804,9.781-12.949,15.911c-0.804,1.865-1.344,3.835-1.883,5.791
		c-0.343-1.769-0.745-3.551-0.8-5.362c0.996-2.546,1.828-5.211,3.442-7.45c1.609-2.345,3.053-4.808,4.886-6.989
		c6.038-7.281,14.243-12.858,23.37-15.445C35.323,73.284,38.746,72.187,42.33,72.114L42.33,72.114z"/>
	<path fill="#016EAF" d="M374.045,75.026c0.014-2.116,0.009-4.233,0.018-6.349c-4.973,0.018-9.946-0.027-14.919,0.027
		c-0.105-1.563-0.128-3.131-0.251-4.694c-0.082-1.051-1.225-1.563-2.157-1.595c-2.825-0.119-5.659,0.018-8.488-0.064
		c0.91,1.984,0.864,4.196,0.846,6.331c-5.293-0.009-10.591,0.009-15.883-0.009c0,2.121,0,4.237,0.009,6.358
		c2.468,0,4.936-0.018,7.409,0.023c-4.968,3.451-7.455,10.042-5.997,15.915c0.887,4.141,3.693,7.711,7.29,9.877
		c4.726,2.985,10.586,3.666,16.039,2.889c4.882-0.759,9.672-3.154,12.652-7.181c3.094-4.091,3.698-9.786,1.943-14.549
		c-1.001-2.825-3.058-5.083-5.288-7.007C369.525,75.039,371.783,75.03,374.045,75.026z M362.042,92.989
		c-2.235,4.402-8.227,6.093-12.51,3.734c-6.609-3.392-6.838-14.329-0.535-18.146c1.188-0.74,2.555-1.17,3.945-1.33
		c3.168-0.352,6.5,1.051,8.369,3.657C363.825,84.341,363.999,89.25,362.042,92.989z"/>
	<path fill="#00B1E6" d="M39.715,77.755c5.064-1.06,10.312-0.503,15.362,0.357c9.457,1.568,18.429,6.024,25.24,12.789
		c2.157,1.705,3.519,4.118,5.252,6.203c2.674,3.424,4.301,7.473,6.075,11.395c-0.146,0.841-0.325,1.673-0.521,2.505
		c-2.098-6.203-5.174-12.25-9.932-16.834c-8.959-9.544-22.196-14.777-35.232-14.425c-10.737-0.169-21.46,3.529-29.966,10.056
		c-6.874,5.512-12.245,13.059-14.517,21.633c-0.169-0.654-0.375-1.298-0.471-1.965c0.539-1.956,1.079-3.926,1.883-5.791
		c3.145-6.129,7.592-11.582,12.949-15.911c2.121-1.54,4.351-2.93,6.564-4.329c3.318-2.066,7.117-3.072,10.769-4.351
		C35.286,78.362,37.517,78.111,39.715,77.755L39.715,77.755z"/>
	<path fill="#2DBFF0" d="M15.993,89.799c8.506-6.527,19.229-10.225,29.966-10.056c13.036-0.352,26.273,4.882,35.232,14.425
		c4.758,4.584,7.834,10.632,9.932,16.834c-0.087,0.686-0.361,1.33-0.535,1.997c-0.37-0.969-0.8-1.911-1.184-2.87
		c-2.628-7.176-7.693-13.333-13.891-17.735c-5.096-4.205-11.381-6.673-17.716-8.31c-5.517-1.435-11.249-1.225-16.894-1.074
		c-4.21,0.425-8.319,1.591-12.346,2.848c-12.506,4.26-23.384,14.558-26.492,27.63c-0.201-0.686-0.453-1.358-0.59-2.057
		C3.748,102.857,9.119,95.311,15.993,89.799L15.993,89.799z"/>
	<path fill="#67CEF6" d="M28.558,85.859c4.027-1.257,8.136-2.423,12.346-2.848c5.645-0.151,11.377-0.361,16.894,1.074
		c6.335,1.636,12.62,4.105,17.716,8.31c6.198,4.402,11.262,10.559,13.891,17.735c0.384,0.96,0.814,1.901,1.184,2.87
		c-0.101,0.453-0.233,0.905-0.384,1.348c-2.093-5.636-4.813-11.208-9.274-15.362c-5.43-5.019-11.907-9.014-19.001-11.18
		c-4.717-1.549-9.667-2.263-14.604-2.55c-10.065-0.032-20.198,2.637-28.673,8.145c-5.435,3.049-9.699,7.834-12.88,13.136
		c-1.426,2.313-2.221,4.927-3.309,7.4l-0.562,0.293c0.041-0.187,0.123-0.553,0.165-0.74C5.174,100.416,16.052,90.118,28.558,85.859
		L28.558,85.859z"/>
	<path fill="#96DAF8" d="M18.653,93.4c8.474-5.508,18.608-8.177,28.673-8.145c4.936,0.288,9.887,1.001,14.604,2.55
		c7.094,2.167,13.571,6.161,19.001,11.18c4.461,4.155,7.181,9.727,9.274,15.362c-0.169,0.708-0.53,1.358-0.836,2.016
		c-0.969-5.128-4.095-9.521-7.35-13.47C72.666,93.14,58.972,87.929,45.52,88.423c-6.065-0.215-12.058,1.193-17.762,3.145
		c-6.628,2.692-13.022,6.427-17.748,11.889c-3.117,3.748-5.896,7.994-6.952,12.816c-0.27-0.608-0.539-1.216-0.818-1.819l0.224-0.517
		c1.088-2.473,1.883-5.087,3.309-7.4C8.954,101.235,13.219,96.449,18.653,93.4L18.653,93.4z"/>
	<path fill="#C5EAFC" d="M27.758,91.567c5.704-1.952,11.697-3.36,17.762-3.145c13.452-0.494,27.146,4.717,36.498,14.471
		c3.254,3.949,6.381,8.342,7.35,13.47c-0.059,0.306-0.178,0.923-0.233,1.234c-1.111-1.687-1.563-3.698-2.646-5.403
		c-3.094-5.11-7.327-9.544-12.359-12.775c-7.464-4.744-16.235-7.002-24.975-7.738c-3.625,0.114-7.313-0.366-10.869,0.558
		c-7.898,1.216-15.673,3.949-22.159,8.698c-3.89,3.003-7.606,6.422-10.056,10.741c-1.088,1.773-1.728,3.771-2.564,5.668
		c-0.114-0.27-0.334-0.804-0.448-1.074c1.056-4.822,3.835-9.068,6.952-12.816C14.736,97.994,21.131,94.26,27.758,91.567
		L27.758,91.567z"/>
	<path fill="#016EAF" d="M258.391,106.784c23.562,0.009,47.129,0.014,70.692-0.005c0,2.13-0.009,4.26,0,6.395
		c-16.048-0.037-32.091,0.032-48.139-0.037c0.553,0.772,1.193,1.572,1.166,2.582c0.183,5.636-0.064,11.29,0.119,16.926
		c0.023,1.207,1.193,1.869,2.295,1.783c8.387,0.059,16.775-0.151,25.162-0.005c4.79-0.201,9.585,0.11,14.375-0.114
		c0.009,2.185,0.005,4.374,0.014,6.559c-14.083-0.014-28.165-0.005-42.248-0.005c-2.742-0.009-5.645,0.206-8.2-0.978
		c-1.582-0.695-2.646-2.363-2.578-4.095c-0.027-6.107-0.005-12.213-0.005-18.315c-0.059-1.28,0.005-2.829-1.102-3.711
		c-0.759-0.654-1.81-0.585-2.738-0.612c-2.939,0.018-5.878,0.014-8.812,0.009C258.391,111.034,258.391,108.909,258.391,106.784
		L258.391,106.784z"/>
	<path fill="#016EAF" d="M107.852,115.783c-0.023-2.226-0.014-4.452,0-6.682c23.919-0.005,47.842-0.005,71.761,0
		c-0.005,2.226-0.005,4.452,0,6.682c-10.042-0.023-20.084-0.014-30.126-0.005c0.027,9.032-0.014,18.064,0.023,27.096
		c-3.867,0.014-7.734-0.005-11.601,0.009c0.041-9.032,0.005-18.064,0.018-27.096C127.9,115.761,117.876,115.765,107.852,115.783
		L107.852,115.783z"/>
	<path fill="#0188CC" d="M3.94,118.672c16.002-5.915,33.284-7.857,50.26-6.938c11.687,0.722,23.357,2.825,34.34,6.961
		c-4.909,10.91-14.101,19.874-25.267,24.234c-8.776,3.515-18.635,4.118-27.827,1.979C21.61,141.7,9.676,131.639,3.94,118.672
		L3.94,118.672z"/>
	<path fill="#016EAF" d="M399.139,119.806c-1.632-5.138-6.065-8.876-10.901-10.929c-5.791-2.386-12.263-3.085-18.434-2.007
		c-5.398,0.932-10.81,3.122-14.558,7.245c-3.465,3.766-5.023,9.324-3.552,14.279c1.234,4.84,5.042,8.607,9.366,10.874
		c5.969,3.09,12.912,3.757,19.513,2.939c5.919-0.873,11.902-3.309,15.797-8.022C399.651,130.273,400.789,124.66,399.139,119.806z
		 M385.833,131.9c-4.808,5.394-14.046,5.718-19.494,1.12c-4.265-3.524-5.051-10.321-1.961-14.841
		c1.618-2.372,4.123-4.068,6.884-4.818c4.466-1.248,9.608-0.549,13.246,2.436C389.312,119.559,389.888,127.393,385.833,131.9z"/>
</g>
</svg>
