<?xml version="1.0" encoding="utf-8"?>
<!-- Generator: Adobe Illustrator 17.0.0, SVG Export Plug-In . SVG Version: 6.00 Build 0)  -->
<!DOCTYPE svg PUBLIC "-//W3C//DTD SVG 1.1//EN" "http://www.w3.org/Graphics/SVG/1.1/DTD/svg11.dtd">
<svg version="1.1" id="레이어_1" xmlns="http://www.w3.org/2000/svg" xmlns:xlink="http://www.w3.org/1999/xlink" x="0px"
	 y="0px" width="400px" height="200px" viewBox="0 0 400 200" enable-background="new 0 0 400 200" xml:space="preserve">
<g>
	<g>
		<path fill="#0055A6" d="M105.511,74.18c0.303,0.178,0.53,0.351,0.651,0.522c0.39,0.516,0.585,1.234,0.585,2.143v4.406
			c0,7.992-4.605,13.636-15.57,14.544v5.528c10.564,0,16.151-3.665,19.934-9.771c5.899,10.252,17.65,9.777,24.799,9.777v20.628
			h-24.797c-0.865,0-1.437-0.16-1.727-0.483c-0.281-0.33-0.415-0.814-0.415-1.464v-11.896c0-0.603-0.107-1.06-0.331-1.366
			c-0.213-0.303-0.642-0.445-1.29-0.445h-7.802c0.384,0.343,0.621,0.784,0.71,1.33c0.092,0.535,0.134,1.068,0.134,1.583v13.907
			c0,0.914,0.304,1.672,0.91,2.275c0.911,0.959,2.404,1.433,4.486,1.433l34.923-0.007c2.161,0,3.814-1.148,3.814-4.435V74.987
			c0-1.343-0.967-2.018-2.828-2.018h-6.569c0.18,0.262,0.304,0.545,0.395,0.847c0.257,0.911,0.387,2.251,0.387,5.007v16.985
			c-10.762-0.3-20.52-1.687-19.349-14.382v-5.505c0-1.166-0.838-1.745-2.449-1.745L105.511,74.18z"/>
		<g>
			<path fill="#0055A6" d="M209.515,74.947c0-1.345-0.975-2.021-2.838-2.021h-6.574c0.171,0.258,0.308,0.545,0.395,0.846
				c0.256,0.911,0.39,2.258,0.39,5.019v3.427h-8.126v4.883h8.126v5.054h-8.126v4.886h8.126v13.577h-26.986v-2.632h-0.016
				c-0.041-0.742-0.345-1.267-0.96-1.552l-0.976-0.196h-7.884c0.304,0.173,0.524,0.344,0.651,0.519
				c0.276,0.373,0.454,0.848,0.531,1.412v14.253c0,3.943,1.973,4.441,4.394,4.441h35.517c2.989,0,4.356-1.436,4.356-4.441V74.947
				H209.515z M200.897,121.994h-26.994v-6.489h26.994V121.994z"/>
			<path fill="#0055A6" d="M191.698,90.636c0-4.176-2.681-7.728-6.806-9.907h7.871v-4.888h-13.323v-2.037
				c0-0.825-0.325-1.39-0.975-1.692l-0.98-0.194h-8.003c0.305,0.172,0.518,0.346,0.654,0.521c0.387,0.52,0.585,1.234,0.585,2.148
				l0.069-0.007v1.261h-13.503v4.887h7.87c-4.126,2.18-6.801,5.731-6.801,9.907c0,6.967,7.459,11.579,16.672,11.579
				C184.231,102.215,191.698,97.603,191.698,90.636z M166.351,90.819c0-4.106,3.88-7.998,8.675-7.998
				c4.784,0,8.674,3.893,8.674,7.998c0,4.112-3.888,6.994-8.674,6.994C170.231,97.814,166.351,94.931,166.351,90.819z"/>
		</g>
		<path fill="#0055A6" d="M362.595,76.207l-14.461-0.04l0.076,4.999h9.178c-4.789,2.127-8.016,5.92-8.016,10.775
			c0,6.473,5.728,11.057,13.258,12.323v6.756h-15.881v4.879h44.62v11.191H400V74.799c0-1.346-0.976-2.021-2.838-2.021h-6.575
			c0.174,0.258,0.305,0.545,0.395,0.844c0.258,0.912,0.389,2.26,0.389,5.021v32.377h-19.92v-6.794
			c7.427-1.316,13.047-5.874,13.047-12.286c0-4.856-3.225-8.648-8.015-10.775h9.172v-4.999l-14.274,0.04v-2.053
			c0-0.832-0.327-1.4-0.979-1.705l-0.99-0.197h-8.059c0.306,0.175,0.527,0.348,0.66,0.527c0.385,0.523,0.589,1.244,0.589,2.162
			L362.595,76.207z M357.732,91.941c0-5.094,4.271-8.218,9.204-8.218s9.202,3.124,9.202,8.218c0,5.094-4.268,8.216-9.202,8.216
			S357.732,97.034,357.732,91.941z"/>
		<g>
			<path fill="#0055A6" d="M332.788,84.202v-9.254c0-1.345-0.973-2.021-2.836-2.021h-6.575c0.173,0.258,0.308,0.545,0.395,0.846
				c0.259,0.911,0.39,2.258,0.39,5.019v23.967h8.627V89.086h8.692v-4.884H332.788z"/>
			<path fill="#0055A6" d="M311.896,102.256c-10.591,0-21.27,4.852-21.27,12.997c0,8.144,10.679,12.994,21.27,12.994
				s21.271-4.851,21.271-12.994C333.166,107.108,322.487,102.256,311.896,102.256z M311.896,123.685
				c-5.582,0-12.188-3.019-12.188-8.432c0-5.417,6.606-8.434,12.188-8.434c5.582,0,12.19,3.017,12.19,8.434
				C324.086,120.666,317.478,123.685,311.896,123.685z"/>
			<path fill="#0055A6" d="M317.903,85.553c0-8.34-8.607-13.8-17.673-13.8c-9.068,0-17.673,5.46-17.673,13.8
				c0,8.338,8.605,13.798,17.673,13.798C309.296,99.352,317.903,93.891,317.903,85.553z M291.254,85.553
				c0-5.758,4.495-9.286,8.975-9.286c4.48,0,8.975,3.528,8.975,9.286c0,5.759-4.496,9.287-8.975,9.287
				C295.749,94.84,291.254,91.312,291.254,85.553z"/>
		</g>
		<g>
			<path fill="#0055A6" d="M278.336,101.643v-4.902h-57.072v4.902h23.93v3.494c-9.452,0.989-17.61,5.02-17.61,11.549
				c0,7.57,10.975,11.561,22.215,11.561c11.239,0,22.212-3.992,22.212-11.561c0-6.528-8.153-10.559-17.601-11.548v-3.495H278.336z
				 M262.716,116.686c0,4.67-6.806,6.852-12.916,6.852c-6.108,0-12.919-2.18-12.919-6.852c0-4.674,6.811-7.078,12.919-7.078
				C255.91,109.607,262.716,112.012,262.716,116.686z"/>
			<path fill="#0055A6" d="M249.761,83.576c0.014,0.021,0.028,0.044,0.039,0.064c0.015-0.02,0.028-0.043,0.042-0.064
				c4.182,6.747,11.964,10.259,24.925,10.259v-5.334c-11.13-0.778-17.324-3.688-18.947-10.555h16.506v-4.902h-45.05v4.902h16.508
				c-1.623,6.866-7.816,9.777-18.949,10.555v5.334C237.799,93.835,245.581,90.322,249.761,83.576z"/>
		</g>
	</g>
	<path fill="#0055A6" d="M64.837,105.57c-3.168,7.875-8.476,10.101-8.476,10.101c15.619-15.828,6.08-34.067,6.08-34.067
		c-2.306-4.089,0.629-5.871,0.629-5.871c-6.709,1.677-4.612,7.233-4.612,7.233c3.371,8.029,2.693,14.551,1.547,18.586l-2.21-1.239
		l0.035-0.052c0,0,5.237-20.638-16.125-27.877L41.685,68.5h-4.507v25.578l20.965,11.95c-0.382,0.776-0.787,1.506-1.209,2.197
		L35.877,96.026l-21.146,12.198c-0.422-0.691-0.827-1.421-1.209-2.197l20.965-11.95V68.5H29.98l-0.018,3.885
		c-21.363,7.239-16.125,27.877-16.125,27.877l0.035,0.052l-2.211,1.239c-1.145-4.035-1.824-10.557,1.547-18.586
		c0,0,2.096-5.556-4.612-7.233c0,0,2.935,1.782,0.629,5.871c0,0-9.539,18.24,6.08,34.067c0,0-5.309-2.226-8.476-10.101
		c0,0-1.797-3.84-6.829-3.002c0,0,1.899,0.86,3.014,4.341c0,0,4.533,14.423,22.039,16.624v7.967h8.596v-11.741
		c0,0-9.119-0.072-16.08-7.733l2.161-1.261c0.403,0.381,7.021,6.506,16.051,6.666v0.004c0.018-0.001,0.035-0.002,0.052-0.002
		c0.018,0,0.035,0.001,0.053,0.002v-0.004c9.03-0.16,15.649-6.285,16.051-6.666l2.161,1.261c-6.961,7.661-16.081,7.733-16.081,7.733
		V131.5h8.596v-7.967c17.506-2.201,22.04-16.624,22.04-16.624c1.115-3.48,3.014-4.341,3.014-4.341
		C66.634,101.73,64.837,105.57,64.837,105.57z M53.636,97.956l-0.017,0.02L41.79,91.351L41.725,77.2h0.064
		C41.79,77.2,56.047,81.079,53.636,97.956z M29.875,77.2h0.065l-0.065,14.151l-11.829,6.624l-0.017-0.02
		C15.619,81.079,29.875,77.2,29.875,77.2z M35.868,101.373l11.793,6.896v0.02l-0.105-0.061c-4.217,3.332-8.242,4.434-11.723,4.435
		c-3.481-0.001-7.506-1.103-11.723-4.435l-0.105,0.061v-0.02L35.868,101.373L35.868,101.373z"/>
</g>
</svg>
