<?xml version="1.0" encoding="utf-8"?>
<!-- Generator: Adobe Illustrator 17.0.0, SVG Export Plug-In . SVG Version: 6.00 Build 0)  -->
<!DOCTYPE svg PUBLIC "-//W3C//DTD SVG 1.1//EN" "http://www.w3.org/Graphics/SVG/1.1/DTD/svg11.dtd">
<svg version="1.1" id="레이어_1" xmlns="http://www.w3.org/2000/svg" xmlns:xlink="http://www.w3.org/1999/xlink" x="0px"
	 y="0px" width="400px" height="200px" viewBox="0 0 400 200" enable-background="new 0 0 400 200" xml:space="preserve">
<g>
	<path fill="#3F3F41" d="M42.377,126.891c-0.209-18.028-0.209-36.074,0-54.102c2.325-0.018,4.65,0.027,6.975,0.045
		c0.055,5.803,0.027,11.607,0.027,17.41c4.723-2.525,10.208-1.453,15.33-1.653c3.56-0.263,6.012,2.806,8.673,4.677
		c1.771,1.081,1.553,3.27,1.589,5.068c-0.064,9.491,0.036,18.991-0.064,28.481c-2.37,0.082-4.732,0.073-7.102,0.018
		c-0.118-10.09,0.009-20.18-0.064-30.27c-1.544-0.808-2.988-2.162-4.85-1.98c-4.132,0.209-8.474-0.645-12.451,0.799
		c-1.453,0.291-0.917,1.916-1.072,2.97c0.009,9.482,0.027,18.954,0,28.436C47.036,126.882,44.702,126.909,42.377,126.891
		L42.377,126.891z"/>
	<path fill="#404042" d="M140.49,72.816c2.37-0.127,4.75-0.009,7.111,0.282c-0.054,5.685,0,11.371-0.045,17.056
		c5.486-2.534,11.761-1.48,17.601-1.362c2.834,1.526,5.522,3.515,7.683,5.921c0.418,10.68,0.082,21.406,0.154,32.114
		c-2.361,0.073-4.714,0.064-7.066,0.027c-0.227-10.108-0.036-20.226-0.1-30.334c-1.553-0.799-3.015-2.107-4.868-1.925
		c-4.45,0.118-9.082-0.599-13.332,1.081c-0.154,10.372,0.054,20.743-0.118,31.115c-2.343,0.1-4.695,0.109-7.039,0.045
		C140.427,108.826,140.372,90.817,140.49,72.816L140.49,72.816z"/>
	<path fill="#3F3F41" d="M392.898,90.335c-0.036-5.849-0.163-11.698,0.073-17.547c2.325,0,4.65,0.009,6.984,0.018
		c-0.054,16.03,0.2,32.069-0.118,48.089c-2.016,2.588-4.968,4.368-7.765,6.021c-4.695,0.536-9.454,0.1-14.177,0.236
		c-2.879,0.345-5.031-1.762-7.193-3.279c-1.517-1.181-3.606-2.352-3.279-4.605c0.127-8.256-0.382-16.575,0.245-24.803
		c2.28-2.216,4.886-4.187,7.683-5.694c4.205-0.391,8.446-0.145,12.66-0.154C389.819,88.528,391.345,89.573,392.898,90.335
		L392.898,90.335z"/>
	<path fill="#3E3E40" d="M83.809,74.315c2.298-0.018,4.586,0.009,6.884,0.018c0.009,2.743,0.009,5.495-0.009,8.237
		c-2.289,0.027-4.586,0.036-6.875,0C83.836,79.818,83.836,77.067,83.809,74.315L83.809,74.315z"/>
	<path fill="#3F3F41" d="M2.743,81.962c2.18-2.171,4.06-4.704,6.603-6.475c5.077-0.59,10.217-0.163,15.321-0.272
		c4.768-0.381,8.019,3.66,11.77,5.885c-1.026,1.58-2.034,3.17-3.052,4.759c-2.761-1.163-5.186-2.943-7.865-4.259
		c-4.477-0.363-8.982-0.054-13.469-0.118c-1.208,1.353-2.416,2.697-3.633,4.042c0.454,3.052-1.371,7.829,2.289,9.373
		c6.666,2.071,13.605,3.233,20.271,5.331c3.07,0.954,4.859,4.069,4.877,7.175c0.091,3.869,0.354,7.792-0.218,11.634
		c-2.062,2.843-4.414,5.531-7.066,7.838c-5.513,0.663-11.135,0.064-16.693,0.3c-4.714,0.599-8.074-3.27-11.879-5.322
		c1.063-1.853,2.252-3.642,3.524-5.367c2.525,1.426,4.895,3.17,7.565,4.314c4.704,0.354,9.436,0.082,14.15,0.091
		c1.135-1.226,2.289-2.461,3.46-3.66c-0.381-3.696,1.48-8.564-1.626-11.353c-6.603-2.216-13.614-3.142-20.262-5.222
		c-3.969-1.299-6.04-5.585-5.549-9.582C1.617,88.074,0.236,84.269,2.743,81.962L2.743,81.962z"/>
	<path fill="#3F3F41" d="M265.268,80.173c1.735-1.58,3.115-3.751,5.34-4.677c5.168-0.59,10.408-0.191,15.603-0.272
		c4.704-0.254,7.91,3.796,11.716,5.903c-1.09,1.626-2.198,3.242-3.324,4.841c-3.315-1.626-6.221-4.804-10.163-4.532
		c-3.705-0.009-7.402,0.054-11.107,0.009c-1.598,1.726-3.179,3.469-4.768,5.213c-0.027,9.681,0.009,19.372-0.018,29.063
		c1.626,1.78,3.306,3.506,5.013,5.204c4.786-0.091,9.6,0.291,14.377-0.163c2.634-1.054,5.013-2.652,7.538-3.96
		c0.717,1.898,2.67,3.742,2.289,5.822c-2.588,1.707-5.268,3.424-8.219,4.387c-5.022,0.354-10.081,0.009-15.113,0.163
		c-1.916-0.1-4.241,0.327-5.676-1.271c-2.47-2.47-5.013-4.904-7.111-7.692c-0.618-10.526-0.1-21.134-0.263-31.687
		C260.991,83.687,263.643,82.044,265.268,80.173L265.268,80.173z"/>
	<path fill="#1C89C8" d="M119.22,88.537c1.816-1.453,3.742-3.097,6.194-3.197c2.389-0.291,4.541,0.935,6.675,1.798
		c1.226,2.071,2.779,4.178,2.779,6.693c0.091,2.361-1.226,4.423-2.543,6.248c-0.218-1.916,0.327-4.15-0.708-5.867
		C128.384,90.862,124.206,87.629,119.22,88.537L119.22,88.537z"/>
	<path fill="#1888C8" d="M219.24,88.619c2.134-3.015,6.003-3.533,9.427-3.288c1.444,1.026,2.834,2.125,4.241,3.197
		c-4.977-0.799-9.146,2.543-12.297,5.94c-0.654,1.889-0.409,3.942-0.499,5.912C217.142,97.247,216.371,92.061,219.24,88.619
		L219.24,88.619z"/>
	<path fill="#3F3F41" d="M83.9,88.792c2.216-0.018,4.441-0.045,6.657-0.018c0.336,12.679,0.064,25.366,0.136,38.054
		c-2.289,0.073-4.586,0.064-6.875,0.009C83.891,114.158,83.736,101.47,83.9,88.792L83.9,88.792z"/>
	<path fill="#3F3F41" d="M99.803,94.604c3.006-2.888,6.53-6.639,11.126-6.03c2.761,0.009,5.531,0.027,8.292-0.036
		c4.986-0.908,9.164,2.325,12.397,5.676c1.035,1.717,0.49,3.951,0.708,5.867c-0.145,8.919,0,17.828-0.1,26.747
		c-2.352,0.073-4.714,0.073-7.066,0c-0.064-8.074-0.027-16.148-0.036-24.222c-0.009-1.844,0-3.687,0.018-5.531
		c-2.152-1.871-4.777-2.934-7.665-2.525c-3.742,0.027-7.883-0.654-10.735,2.361c-0.018,9.963,0.054,19.926-0.045,29.898
		c-2.361,0.091-4.723,0.091-7.084,0.027C99.666,116.101,99.267,105.321,99.803,94.604L99.803,94.604z"/>
	<path fill="#3F3F41" d="M220.612,94.468c3.151-3.397,7.32-6.739,12.297-5.94c4.178,0.336,8.537-0.472,12.597,0.472
		c2.861,2.271,7.956,3.96,7.384,8.419c-0.036,9.8,0,19.599-0.036,29.389c-2.334,0.073-4.668,0.1-6.993,0.073
		c-0.245-9.872-0.064-19.753-0.1-29.626c-1.19-0.917-2.379-1.816-3.578-2.706c-2.461,0.054-4.904,0.027-7.356,0
		c-2.752-0.345-5.313,0.563-7.465,2.234c0.018,1.916,0.018,3.842,0.018,5.767c0,8.083,0.027,16.157-0.018,24.24
		c-2.389,0.118-4.777,0.109-7.166,0.018c-0.082-8.81,0.064-17.619-0.082-26.429C220.203,98.409,219.958,96.357,220.612,94.468
		L220.612,94.468z"/>
	<path fill="#3F3F41" d="M305.956,88.61c6.648,0.064,13.314-0.191,19.962,0.1c3.061,1.253,5.304,3.96,7.965,5.885
		c0.372,7.02,0.055,14.05,0.191,21.07c-0.064,1.871,0.182,3.805-0.391,5.622c-1.698,2.189-3.824,4.078-6.121,5.622
		c-5.331,0.536-10.744,0.127-16.093,0.218c-2.325,0.182-3.996-1.644-5.758-2.834c-1.608-1.326-4.005-2.534-3.842-4.977
		c0.064-3.442-0.527-7.066,0.409-10.399c2.134-2.434,4.795-4.378,7.375-6.312c1.798-0.618,3.778-0.236,5.649-0.345
		c3.923,0.182,8.346-0.845,11.616,1.944c-0.109-2.398,0.173-4.832-0.263-7.211c-1.299-1.335-2.979-2.634-4.959-2.407
		c-5.249-0.027-10.49,0.054-15.73-0.018C305.947,92.579,305.947,90.59,305.956,88.61L305.956,88.61z"/>
	<path fill="#3F3F41" d="M350.358,89.037c4.85-0.618,9.781-0.109,14.668-0.272c0.109,2.062,0.1,4.123,0.045,6.185
		c-3.842,0.091-7.692-0.2-11.516,0.127c-1.626,1.063-2.834,2.616-4.187,3.978c0,9.255,0.082,18.518-0.045,27.782
		c-2.37,0.054-4.732,0.064-7.093,0c0.027-9.818-0.209-19.663,0.109-29.471C344.6,94.277,347.288,91.325,350.358,89.037
		L350.358,89.037z"/>
	<path fill="#1B89C9" d="M117.476,94.55c2.888-0.409,5.513,0.654,7.665,2.525c-0.018,1.844-0.027,3.687-0.018,5.531
		C121.145,101.761,118.03,98.627,117.476,94.55L117.476,94.55z"/>
	<path fill="#1C89C8" d="M227.36,96.784c2.152-1.671,4.714-2.579,7.465-2.234c-0.736,3.887-3.569,7.057-7.447,8.001
		C227.378,100.625,227.378,98.7,227.36,96.784L227.36,96.784z"/>
	<path fill="#1A8AC9" d="M374.562,99.209c-0.554-2.852,2.679-4.75,5.177-4.623c4.387,0.073,8.837-0.4,13.151,0.599
		c-0.045,7.801-0.064,15.594,0.009,23.395c-1.744,1.271-3.515,3.024-5.876,2.57c-4.078-0.581-9.191,1.19-12.243-2.416
		C374.271,112.26,374.698,105.711,374.562,99.209L374.562,99.209z"/>
	<path fill="#3F3F41" d="M211.975,94.74c-2.543-2.034-4.859-4.459-7.765-5.976c-6.739-0.427-13.505-0.036-20.262-0.173
		c-0.018,1.998,0,3.996,0.009,5.994c5.413,0.045,10.817-0.045,16.23,0.018c1.944-0.163,3.26,1.526,4.732,2.498
		c-0.045,2.352-0.054,4.714,0,7.066c-1.535-0.845-3.061-1.989-4.913-1.871c-3.914-0.009-7.838-0.164-11.752,0.082
		c-2.924,1.598-5.458,3.969-7.783,6.348c-1.471,2.616-0.636,5.849-0.836,8.737c-0.572,4.923,4.632,7.184,8.029,9.454
		c5.831,0.436,11.743,0.291,17.592,0.082c2.607-1.435,4.823-3.742,6.612-6.121C212.447,112.205,212.175,103.441,211.975,94.74z
		 M204.736,120.106c-1.807,1.553-4.45,0.572-6.621,0.863c-3.778-0.327-8.201,1.181-11.18-1.916c0.009-2.988,0.009-5.976-0.009-8.964
		c0.926-0.681,1.835-1.38,2.752-2.08c4.577,0.2,9.209-0.309,13.768,0.245c0.309,0.282,0.945,0.845,1.262,1.126
		C205.036,112.941,204.991,116.546,204.736,120.106z"/>
	<path fill="#1B89C9" d="M310.996,108.49c3.106-0.981,6.521-0.254,9.754-0.49c1.998,0.2,4.922-0.681,5.976,1.626
		c0.327,3.406,0.309,6.866,0,10.272c-0.191,0.227-0.572,0.663-0.772,0.881c-3.796,0.845-7.756-0.064-11.616,0.354
		c-2.688,0.49-6.021-1.608-5.567-4.596C308.935,113.813,307.818,109.871,310.996,108.49L310.996,108.49z"/>
</g>
</svg>
