<?xml version="1.0" encoding="utf-8"?>
<!-- Generator: Adobe Illustrator 17.0.0, SVG Export Plug-In . SVG Version: 6.00 Build 0)  -->
<!DOCTYPE svg PUBLIC "-//W3C//DTD SVG 1.1//EN" "http://www.w3.org/Graphics/SVG/1.1/DTD/svg11.dtd">
<svg version="1.1" id="레이어_1" xmlns="http://www.w3.org/2000/svg" xmlns:xlink="http://www.w3.org/1999/xlink" x="0px"
	 y="0px" width="400px" height="200px" viewBox="0 0 400 200" enable-background="new 0 0 400 200" xml:space="preserve">
<g>
	<path fill="#067FC5" d="M0.05,62.391c25.031,0.111,50.054-0.127,75.085,0C67.43,70.566,59.39,78.447,51.343,86.288
		c-12.468,12.135-24.468,24.753-36.896,36.943c4.532,4.54,8.984,9.166,13.658,13.555c1.436-1.532,2.921-3.016,4.444-4.468
		c1.786,1.69,3.476,3.484,5.032,5.397c-12.523,0.103-25.047,0.008-37.57,0.04C-0.045,112.636,0.138,87.518,0.05,62.391L0.05,62.391z
		"/>
	<path fill="#023070" d="M75.136,62.391l0.206-0.23c-0.056,15.714,0.016,31.428-0.016,47.134
		c-7.912-7.746-16.071-15.254-23.983-23.007C59.39,78.447,67.43,70.566,75.136,62.391L75.136,62.391z"/>
	<path fill="#023070" d="M345.636,71.09c-0.016-2.452-0.032-4.905,0.032-7.349c3.682,0.008,7.373,0.008,11.055,0.008
		c0.04,2.444,0.032,4.889,0.032,7.341c4.42-0.008,8.857,0.008,13.285,0c0,2.246,0,4.492,0,6.738
		c-12.706-0.024-25.404,0.103-38.102-0.056c-0.714-2.254-1.556-4.468-2.373-6.682C334.922,71.09,340.279,71.09,345.636,71.09
		L345.636,71.09z"/>
	<path fill="#023070" d="M373.025,65.725c3.698,0,7.397,0,11.103,0c0.008,5.492-0.008,10.984,0,16.476
		c1.651,0,3.301-0.008,4.952-0.008c0-5.484-0.008-10.976,0.008-16.46c3.635-0.008,7.27-0.008,10.904,0
		c0.016,13.952,0,27.912,0.008,41.864c-3.643,0-7.286,0.008-10.92,0c0-6.143,0.008-12.293,0-18.436
		c-1.659-0.008-3.301-0.008-4.944-0.008c-0.024,5.024,0.008,10.055-0.016,15.079c-3.698-0.008-7.397-0.008-11.095,0
		C373.017,91.399,373.009,78.566,373.025,65.725L373.025,65.725z"/>
	<path fill="#023070" d="M147.007,66.963c3.643-0.087,7.293-0.032,10.936-0.04c0,5.587,0,11.182,0,16.769
		c1.881-1.595,3.262-3.968,5.54-4.976c2.159,0.563,3.294,2.801,4.96,4.143c1.135,1.079,3.294,2.706,1.667,4.325
		c-2.206,1.921-3.897,4.746-6.643,5.857c-2.23-1.135-3.667-3.341-5.516-4.968c-0.016,5.984-0.008,11.96,0,17.936
		c-3.651,0-7.293,0.008-10.936-0.008C147.023,92.994,147.039,79.978,147.007,66.963L147.007,66.963z"/>
	<path fill="#023070" d="M99.111,68.518c12.865-0.016,25.729-0.008,38.594-0.008c-0.008,8.476,0.048,16.944-0.024,25.42
		c-3.627-0.032-7.254-0.016-10.881-0.016c-0.032-6.214,0-12.436-0.008-18.65c-8.405-0.008-16.809-0.008-25.214-0.008
		C100.73,73.018,99.913,70.772,99.111,68.518L99.111,68.518z"/>
	<path fill="#023070" d="M184.077,68.717c17.746-0.024,35.483,0,53.229-0.008c0,2.317,0,4.635-0.008,6.96
		c-6.992-0.008-13.992-0.016-20.991,0c3.936,10.111,14.492,15.468,24.333,18.349c-0.96,1.865-1.897,3.738-2.746,5.651
		c-10.531-0.714-20.261-6.405-27.087-14.277c-6.857,7.833-16.579,13.69-27.15,14.222c-0.897-1.897-1.833-3.778-2.73-5.682
		c9.897-2.69,20.412-8.174,24.388-18.238c-6.246-0.071-12.492-0.024-18.73-0.024C185.72,73.359,184.871,71.05,184.077,68.717
		L184.077,68.717z"/>
	<path fill="#023070" d="M304.622,70.479c-5.19-4.5-12.635-5.849-19.245-4.397c-5.103,1.127-10.127,4.063-12.5,8.881
		c-2.238,4.333-1.429,9.897,1.802,13.523c6.198,7.238,17.507,8.428,25.841,4.484c4.492-2.119,8.413-6.286,8.809-11.428
		C309.82,77.343,307.804,73.153,304.622,70.479z M284.876,86.081c-2.746-1.786-4.143-5.667-2.46-8.619
		c1.103-2.365,3.555-3.738,6-4.357c4.833-1.198,10.96,2.111,11,7.484C298.82,87.288,289.828,89.859,284.876,86.081z"/>
	<path fill="#023070" d="M107.952,84.764c3.635,0.016,7.27,0,10.904,0.016c0.016,4.103-0.024,8.198,0.032,12.301
		c8.254,0,16.507,0,24.769,0c0,2.309,0,4.627,0,6.944c-15.809,0.016-31.618-0.008-47.427,0.008
		c-0.865-2.254-1.675-4.532-2.524-6.801c4.73-0.341,9.484-0.063,14.23-0.151C107.96,92.978,107.928,88.867,107.952,84.764
		L107.952,84.764z"/>
	<path fill="#023070" d="M365.961,87.78c-3.897-6.476-12.428-8.77-19.515-7.365c-4.897,0.929-9.746,3.794-11.889,8.444
		c-2.04,4.373-0.635,9.801,2.913,12.968c7.278,6.627,19.888,6.436,26.801-0.643C367.715,97.716,368.548,91.978,365.961,87.78z
		 M349.287,99.875c-3.341-0.357-6.524-3.127-6.667-6.603c0.191-2.643,2.063-4.936,4.484-5.913c4.246-1.849,10.428,0.23,11.222,5.167
		C358.993,97.343,353.589,100.66,349.287,99.875z"/>
	<path fill="#023070" d="M255.631,107.009c-0.809-2.254-1.786-4.468-2.317-6.817c24.229,0.143,48.459,0.016,72.689,0.063
		c-0.008,2.246-0.008,4.492,0,6.746C302.55,107.017,279.091,106.993,255.631,107.009L255.631,107.009z"/>
	<path fill="#023070" d="M174.522,106.009c24.103,0,48.205,0,72.308,0c0,2.444,0,4.889,0,7.341
		c-10.206,0.079-20.42-0.151-30.626,0.119c0.159,7.365,0.056,14.738,0.056,22.103c-3.698,0.008-7.389,0-11.079,0.008
		c-0.032-7.397-0.04-14.793,0-22.19c-9.412-0.103-18.825,0-28.237-0.048C176.125,110.898,175.3,108.462,174.522,106.009
		L174.522,106.009z"/>
	<path fill="#023070" d="M265.226,111.239c3.659-0.159,7.317-0.048,10.976-0.071c0.032,5.452-0.103,10.904,0.056,16.349
		c0.651,0.936,2.087,0.317,3.055,0.532c12.785-0.032,25.563-0.016,38.348-0.008c0.008,2.238,0.008,4.484,0,6.738
		c-15.412,0.008-30.833,0.008-46.245,0c-3.397,0.079-6.389-3.135-6.151-6.5C265.258,122.596,265.329,116.914,265.226,111.239
		L265.226,111.239z"/>
	<path fill="#023070" d="M32.55,132.318c6.174-6.19,12.539-12.19,18.69-18.412c7.984,7.976,15.825,16.095,24.063,23.809
		c-12.579-0.024-25.15-0.032-37.721,0C36.026,135.802,34.335,134.009,32.55,132.318L32.55,132.318z"/>
	<path fill="#023070" d="M151.935,112.755c-4.952-4.817-12.357-6.508-19.063-5.508c-5.825,0.81-11.666,3.944-14.468,9.285
		c-2.651,4.913-1.413,11.42,2.635,15.206c6.547,6.5,17.214,7.563,25.46,3.897c4.278-1.936,8.055-5.508,9.27-10.151
		C157.014,120.945,155.284,115.953,151.935,112.755z M137.301,130.04c-4.262,0.436-9.032-2.238-9.849-6.659
		c-0.611-3.627,2.206-7.008,5.492-8.159c5.047-2.111,12.214,0.841,12.817,6.674C146.007,126.382,141.555,129.977,137.301,130.04z"/>
	<path fill="#023070" d="M391.905,112.461c-5.286-4.913-13.111-6.524-20.079-5.135c-5.325,0.968-10.468,3.992-13.262,8.73
		c-2.698,4.611-2.016,10.801,1.516,14.785c6.008,7.032,16.642,8.524,25.063,5.547c4.817-1.754,9.27-5.405,10.77-10.46
		C397.452,121.152,395.54,115.771,391.905,112.461z M379.374,129.85c-4.73,1.413-10.801-1.23-11.873-6.301
		c-0.762-4.095,2.627-7.77,6.436-8.658c4.738-1.421,10.666,1.167,11.881,6.19C386.643,125.175,383.199,128.961,379.374,129.85z"/>
</g>
</svg>
