<?xml version="1.0" encoding="utf-8"?>
<!-- Generator: Adobe Illustrator 17.0.0, SVG Export Plug-In . SVG Version: 6.00 Build 0)  -->
<!DOCTYPE svg PUBLIC "-//W3C//DTD SVG 1.1//EN" "http://www.w3.org/Graphics/SVG/1.1/DTD/svg11.dtd">
<svg version="1.1" id="레이어_1" xmlns="http://www.w3.org/2000/svg" xmlns:xlink="http://www.w3.org/1999/xlink" x="0px"
	 y="0px" width="400px" height="200px" viewBox="0 0 400 200" enable-background="new 0 0 400 200" xml:space="preserve">
<g>
	<path fill="#E60617" d="M55.837,87.366c12.069-17.873,33.311-29.157,54.918-28.765c21.12,0.095,41.605,11.352,53.457,28.751
		c-5.304,0.054-10.594,0.027-15.898,0.068c-8.524-8.632-19.754-14.802-31.89-16.236c-12.164-1.624-24.76,1.542-34.975,8.253
		l0.068-0.649c-3.207,2.895-6.589,5.601-9.715,8.605C66.472,87.406,61.155,87.406,55.837,87.366L55.837,87.366z"/>
	<path fill="#01397D" d="M101.609,84.538c4.533-2.327,8.97-4.83,13.516-7.117c0.054,6.819,0.027,13.625,0.027,20.444
		c4.505,0,9.024,0.014,13.53,0c0.014,4.181,0,8.348,0,12.515c-4.519,0.014-9.025,0.014-13.53,0.027
		c0.027,11.501-0.027,23.015,0,34.529c-0.135,2.801,0.893,6.061,3.856,6.968c4.708,0.879,9.146-1.367,13.111-3.64
		c-1.028,4.451-2.192,8.876-3.396,13.286c-5.886,3.058-13.3,4.289-19.389,1.042c-5.223-2.923-7.644-9.146-7.699-14.91
		c-0.068-12.421,0-24.841-0.014-37.275c-3.721-0.014-7.455-0.014-11.176-0.014c0-4.181,0.014-8.348,0.014-12.515
		c3.721,0,7.442-0.014,11.149-0.014C101.623,93.427,101.623,88.989,101.609,84.538L101.609,84.538z"/>
	<path fill="#01397D" d="M1.785,118.742c3.734-12.61,16.277-21.201,29.171-21.851c10.296-1.258,20.741,3.139,27.101,11.298
		c-1.218,1.461-2.449,2.909-3.694,4.343c-1.299,1.745-2.774,3.355-4.127,5.06c-5.71-5.737-14.152-9.62-22.243-6.86
		c-10.851,2.882-16.48,15.614-13.368,26.005c2.138,9.106,11.352,15.641,20.647,14.761c5.845-0.338,10.783-3.87,15.005-7.617
		c2.598,3.098,5.168,6.21,7.712,9.363c-11.852,15.952-38.087,14.572-50.386-0.095C-0.394,143.826-1.625,130.175,1.785,118.742
		L1.785,118.742z"/>
	<path fill="#01397D" d="M65.092,97.878c4.627-0.014,9.255-0.014,13.882,0c-0.041,21.892,0.041,43.77-0.041,65.661
		c-4.614-0.041-9.241-0.041-13.855-0.041C65.092,141.621,65.078,119.756,65.092,97.878L65.092,97.878z"/>
	<path fill="#01397D" d="M141.875,97.865c4.627,0.014,9.241,0.014,13.868,0.014c0,21.878,0,43.756,0,65.634
		c-4.627-0.013-9.241,0-13.868,0C141.875,141.621,141.875,119.743,141.875,97.865L141.875,97.865z"/>
	<path fill="#01397D" d="M228.128,110.434c2.341-0.041,4.668-0.081,7.022-0.135c0.203,17.738,0.027,35.476,0.081,53.213
		c-2.476,0-4.952-0.013-7.428,0C227.587,145.815,228.399,128.132,228.128,110.434L228.128,110.434z"/>
	<path fill="#01397D" d="M279.881,110.732c2.476,0,4.952-0.014,7.441-0.014c0.244,17.711-0.555,35.408-0.338,53.132
		c-2.368-0.014-4.735-0.014-7.103-0.014C279.867,146.127,279.881,128.429,279.881,110.732L279.881,110.732z"/>
	<path fill="#01397D" d="M332.296,111.07c2.489,0,4.966,0,7.455,0c-0.014,6.968,0.027,13.949-0.041,20.917
		c2.489,0.041,4.993,0.054,7.482,0.068c0,2.26,0,4.506,0,6.765c-2.517-0.014-5.02-0.014-7.536,0
		c-0.474,8.321-0.135,16.683-0.243,25.017c-2.368,0-4.736,0-7.103,0.014C332.296,146.248,332.323,128.659,332.296,111.07
		L332.296,111.07z"/>
	<path fill="#01397D" d="M209.863,113.424c2.476,0.014,4.952,0.014,7.442,0.014c0.054,11.582-1.57,25.328,8.05,33.893
		c-1.407,2.084-2.922,4.086-4.478,6.048c-2.774-3.031-5.29-6.305-7.306-9.89c-2.084,3.829-4.749,7.306-7.983,10.256
		c-3.125-3.071-5.831-6.549-7.766-10.486c-2.124,3.802-4.803,7.266-7.874,10.337c-1.745-1.745-3.477-3.518-5.209-5.263
		c3.207-3.315,6.562-6.819,7.834-11.392c2.192-7.644,1.164-15.668,1.394-23.502c2.476,0,4.965,0,7.441,0
		c0.352,10.026-1.475,21.201,4.451,30.023C211.229,134.342,209.633,123.504,209.863,113.424L209.863,113.424z"/>
	<path fill="#01397D" d="M353.944,115.806c13.192-0.014,26.384,0,39.589-0.014c-0.014,2.151-0.014,4.289,0,6.44
		c-10.702,0-21.418,0-32.12,0c0.027,4.397-0.189,8.795,0.081,13.178c10.635,0.785,21.553,0.203,32.296,0.257
		c0.041,2.178,0.081,4.343,0.122,6.521c-13.462-0.014-26.925,0.027-40.387-0.014C354.133,133.395,353.93,124.6,353.944,115.806
		L353.944,115.806z"/>
	<path fill="#01397D" d="M244.026,115.806c8.795-0.014,17.589,0,26.397-0.014c-0.014,2.273-0.027,4.533-0.027,6.806
		c-6.427,0.108-12.84-0.271-19.253-0.419c-0.014,2.828-0.014,5.669,0,8.497c6.197,0.014,12.394,0.014,18.604,0.014
		c-0.014,2.138-0.014,4.275-0.014,6.413c-6.21,0.027-12.407,0-18.617,0.041c0.014,3.031,0.014,6.062,0.014,9.092
		c8.023,0.257,16.033-0.271,24.002-1.109c0,2.111,0.014,4.221,0.027,6.346c-1.055,0.149-3.166,0.474-4.221,0.622
		c-9.079,0.649-18.171,0.879-27.263,0.906C243.498,140.606,243.891,128.213,244.026,115.806L244.026,115.806z"/>
	<path fill="#01397D" d="M297.794,116.482c8.849,0.014,17.711-0.041,26.559,0.027c-0.487,8.01-1.827,16.385-6.643,23.042
		c-4.708,6.359-10.729,11.879-17.833,15.451c-2.314-0.785-4.045-2.72-6.034-4.073c6.995-3.856,13.706-8.605,18.035-15.478
		c-5.25,0.501-10.499,0.893-15.762,1.055c0-2.043,0-4.086,0-6.116c6.237-0.027,12.448-0.582,18.644-1.15
		c0.379-2.097,0.758-4.208,1.137-6.305c-6.034-0.041-12.055-0.027-18.09-0.027C297.794,120.771,297.794,118.633,297.794,116.482
		L297.794,116.482z"/>
	<path fill="#01397D" d="M346.841,150.984c17.711-0.135,35.408,0.081,53.105,0.325c0.013,2.124,0.027,4.235,0.054,6.359
		c-17.711-0.568-35.435-0.095-53.146-0.257C346.854,155.259,346.841,153.122,346.841,150.984L346.841,150.984z"/>
</g>
</svg>
