<?xml version="1.0" encoding="utf-8"?>
<!-- Generator: Adobe Illustrator 17.0.0, SVG Export Plug-In . SVG Version: 6.00 Build 0)  -->
<!DOCTYPE svg PUBLIC "-//W3C//DTD SVG 1.1//EN" "http://www.w3.org/Graphics/SVG/1.1/DTD/svg11.dtd">
<svg version="1.1" id="레이어_1" xmlns="http://www.w3.org/2000/svg" xmlns:xlink="http://www.w3.org/1999/xlink" x="0px"
	 y="0px" width="400px" height="200px" viewBox="0 0 400 200" enable-background="new 0 0 400 200" xml:space="preserve">
<g>
	<path fill="#FCB206" d="M10.963,73.709c0.514-0.088,1.547-0.263,2.061-0.35l-0.088,0.695c0.403,0.023,1.214,0.058,1.623,0.076
		c1.967,1.296,4.016,2.516,6.235,3.339c1.617,0.549,3.24-0.216,4.676-0.899c1.086-0.636,2.212-1.191,3.304-1.798
		c0.771-0.344,1.553-0.66,2.347-0.94l-0.058-0.391c0.315-0.012,0.946-0.035,1.255-0.047c-0.012,0.315-0.035,0.934-0.053,1.249
		l-0.619-0.047c0.006,0.444,0.012,1.343,0.018,1.786c-0.298,0-0.887,0-1.185,0c0.041,0.286,0.128,0.864,0.169,1.156l-0.724,0.018
		c0,0.438,0.012,1.308,0.018,1.745L29.2,79.337c0.082,0.286,0.251,0.858,0.339,1.144l-0.846-0.093c0,0.21,0.006,0.636,0.006,0.846
		c-0.537,0.876-0.969,1.804-1.348,2.755l-0.572-0.041c0.123,0.315,0.374,0.946,0.496,1.261l-0.741-0.187
		c-0.251,0.63-0.508,1.267-0.759,1.897l-0.234,0.035c-0.56,1.243-1.191,2.452-1.897,3.619c-0.058,0.292-0.181,0.876-0.239,1.168
		c-0.397,0.403-1.191,1.214-1.588,1.617c-0.029-0.473-0.088-1.413-0.117-1.886c-0.274,0.053-0.823,0.158-1.097,0.216
		c0.006-0.467,0.023-1.395,0.029-1.856l-0.66,0.07l0.099-0.736l-0.736,0.006c0.064-0.28,0.198-0.835,0.263-1.115l-0.893-0.006
		c0.088-0.292,0.274-0.87,0.368-1.156l-0.829,0.053c0-0.455,0-1.366,0.006-1.821c-0.304,0.023-0.899,0.076-1.197,0.099
		c0.029-0.479,0.093-1.424,0.123-1.903l-0.712,0.158c0.018-0.49,0.053-1.465,0.07-1.956c-0.315,0.047-0.94,0.134-1.255,0.175
		c0.076-0.315,0.216-0.957,0.286-1.278l-0.794,0.111c0.006-0.473,0.012-1.413,0.018-1.886l-0.905,0.117
		c0.14-0.286,0.426-0.864,0.566-1.15l-0.671-0.018c-0.49-1.197-1.004-2.376-1.494-3.573C11.956,73.949,11.296,73.785,10.963,73.709
		L10.963,73.709z"/>
	<path fill="#FCB206" d="M42.761,75.28l0.35-1.43c1.366,3.327,0.718,7.005,0.771,10.502c0.222,1.022-1.097,1.138-1.635,1.675
		l-0.053,0.117c-0.911,0.274-1.798,0.59-2.685,0.928c-0.665,0.21-1.325,0.414-1.996,0.601c0.006,0.467,0.006,0.934,0.012,1.395
		c0.695,0.893,1.378,1.798,2.055,2.703c1.203,1.623,2.183,3.398,3.041,5.219c0.356,1.594,0.771,3.176,1.226,4.746
		c0.245,3.66,0.134,7.379-1.144,10.864l-0.286-0.018c-0.543,1.716-1.15,3.468-2.329,4.869c-2.323,2.808-4.98,5.47-8.319,7.046
		l-0.14,0.455c-0.263-0.064-0.782-0.204-1.045-0.269l-0.053,0.543c-1.267,0.391-2.528,0.806-3.771,1.255
		c-3.041,0.222-6.095,0.169-9.142,0.093l0.111-0.584c-0.817,0.023-1.629,0.047-2.44,0.07l0.14-0.695
		c-0.467,0.029-1.395,0.088-1.862,0.117l0.041-0.485c-1.162-0.514-2.312-1.051-3.468-1.582c-0.023-0.134-0.07-0.403-0.099-0.537
		c-1.996-1.045-3.573-2.685-4.921-4.46c-0.228-0.006-0.689-0.023-0.917-0.029c0.064-0.292,0.181-0.876,0.239-1.168l-0.759,0.029
		c-0.012-0.444-0.041-1.337-0.053-1.781c-0.216,0-0.648-0.012-0.864-0.018c-0.344-1.605-0.981-3.135-1.856-4.524
		c-0.111-1.22-0.175-2.44-0.234-3.66l-0.461,0.076c0.041-1.477,0.053-2.948,0.07-4.425c0.566-2.884,1.319-5.727,2.393-8.471
		l0.595,0.064c-0.058-0.292-0.169-0.87-0.222-1.156c0.204-0.029,0.625-0.093,0.829-0.123c1.051-1.81,2.68-3.392,2.948-5.557
		c-0.747-0.181-1.483-0.379-2.212-0.601c-0.882-0.362-1.78-0.683-2.697-0.934l-0.041-0.59c-0.222,0.047-0.671,0.146-0.893,0.193
		c-0.216-0.374-0.642-1.115-0.858-1.489c0.14-1.465,0.397-2.919,0.642-4.367l-0.525-0.017c-0.018-1.004-0.035-2.002-0.053-3.006
		l0.817,0.064c-0.251-0.52-0.759-1.553-1.01-2.067c0.776,0.117,2.341,0.362,3.123,0.485c0.012,0.058,0.029,0.175,0.041,0.234
		c0.846,0.356,1.681,0.747,2.487,1.203c0.595,0.187,1.191,0.374,1.792,0.555c1.664,0.73,3.298,1.547,5.009,2.177l-0.07,0.385
		c0.479-0.012,1.43-0.029,1.909-0.041c-0.07,0.292-0.216,0.876-0.286,1.168l0.537,0.064c0.485,1.197,1.004,2.376,1.518,3.555
		l0.73-0.134c-0.123,0.298-0.374,0.899-0.502,1.197l0.998-0.041c-0.088,0.309-0.251,0.922-0.333,1.232l0.922-0.029
		c-0.099,0.304-0.304,0.917-0.403,1.22l0.823-0.099c0.006,0.467,0.018,1.395,0.023,1.856c0.304-0.023,0.917-0.064,1.22-0.088
		c-0.064,0.309-0.198,0.934-0.269,1.243l0.957-0.035c-0.123,0.298-0.362,0.899-0.485,1.203l0.829-0.163
		c0.017,0.461,0.047,1.384,0.064,1.839c-0.718,0.257-1.436,0.52-2.16,0.776c-0.636,0.222-1.278,0.444-1.921,0.66
		c-0.012,0.134-0.035,0.397-0.053,0.531c-0.981,0.601-1.932,1.249-2.831,1.973c-0.654,1.424-1.477,2.773-2.107,4.209l-0.28,0.064
		c-0.012,1.792-0.018,3.584-0.023,5.382l0.625-0.228c-0.023,0.473-0.07,1.419-0.093,1.891l0.776-0.006
		c-0.076,0.28-0.228,0.841-0.304,1.121l0.379,0.128c0.607,1.045,1.366,1.997,2.44,2.598c0.356,0.49,0.712,0.987,1.062,1.489
		c0.245-0.076,0.741-0.228,0.987-0.298l-0.134,0.712c1.208,0.269,2.417,0.56,3.631,0.788l-0.023,0.374
		c1.366-0.018,2.732-0.018,4.104-0.012l-0.018-0.712c0.274,0.076,0.823,0.234,1.097,0.315l0.134-0.811
		c0.28,0.07,0.835,0.21,1.115,0.274l-0.041-0.917c0.304,0.07,0.911,0.222,1.214,0.292l-0.088-0.841
		c0.239,0.029,0.724,0.093,0.963,0.128c1.384-1.57,2.65-3.257,3.45-5.201l0.309-0.041c0.076-2.329,0.058-4.659-0.029-6.988
		l-0.263-0.111c-1.173-2.51-2.948-4.676-5.161-6.34c-0.146-0.035-0.438-0.099-0.578-0.134c-0.981-0.216-1.956-0.467-2.919-0.73
		c0.152-1.611,0.823-3.088,1.465-4.548l0.718,0.181c-0.111-0.292-0.333-0.876-0.444-1.162l0.555-0.053
		c0.928-2.411,2.347-4.583,3.462-6.9l0.006-0.198c0.549-1.395,1.833-2.067,3.205-2.458L32.849,78.8
		c1.36-0.35,2.726-0.695,4.11-0.952c-0.018-0.175-0.053-0.531-0.076-0.706c0.695-0.193,1.389-0.397,2.078-0.601
		c0.864-0.356,1.74-0.677,2.644-0.905l0.018-0.543C41.909,75.139,42.481,75.233,42.761,75.28L42.761,75.28z"/>
	<path fill="#0C4198" d="M61.068,79.862c4.851,0.123,10.286-0.911,14.483,2.183c4.425,3.368,7.963,7.712,11.95,11.559
		c5.353,5.499,10.94,10.782,16.118,16.451c0.146-10.07,0.07-20.14,0.047-30.21c2.755,0.012,5.511-0.088,8.266,0.018
		c1.179-0.029,1.845,1.127,2.662,1.798c0.07,13.187,0.018,26.369,0.029,39.556c-3.917-0.169-8.015,0.49-11.728-1.092
		c-4.156-1.745-7.064-5.353-10.234-8.406c-6.848-7.011-13.888-13.835-20.578-20.998c-0.163,10.163-0.012,20.327-0.076,30.49
		c-3.176-0.117-6.392,0.239-9.527-0.397c-0.502-0.841-1.162-1.635-1.284-2.633c-0.403-4.495,0.21-8.996,0.076-13.497
		c-0.344-6.801-0.128-13.614-0.181-20.426C61.086,82.793,61.08,81.327,61.068,79.862L61.068,79.862z"/>
	<path fill="#0C4198" d="M125.067,79.862c2.989-0.041,5.978-0.023,8.967-0.029c0,5.289,0.006,10.578-0.023,15.873
		c10.263,0.082,20.525,0.023,30.782,0.029c-0.076-5.306-0.012-10.613-0.035-15.919c3.339,0.175,6.783-0.426,10.029,0.601
		c0.502,1.232,0.975,2.516,0.911,3.876c-0.018,10.893-0.029,21.781-0.012,32.674c0.076,1.681-0.607,3.713-2.475,4.069
		c-2.79,0.356-5.628,0.053-8.435,0.169c-0.023-5.768-0.047-11.535,0.017-17.303c-10.269,0.006-20.537,0.018-30.806,0
		c0.082,5.773,0.058,11.547,0.012,17.315c-2.866-0.152-5.785,0.222-8.616-0.28c-1.559-0.286-2.248-1.973-2.142-3.403
		c0.006-10.123,0.006-20.245,0-30.368C123.31,84.62,122.58,81.532,125.067,79.862L125.067,79.862z"/>
	<path fill="#0C4198" d="M190.018,79.851c2.218-0.035,4.442-0.058,6.661,0.082c0.169,0.35,0.502,1.045,0.671,1.389
		c0.018,3.246-0.07,6.486,0.076,9.726c0.876,0.21,1.757,0.455,2.668,0.45c11.226,0.041,22.458-0.088,33.684,0.058
		c-0.006,1.016-0.018,2.032-0.041,3.047c-6.217,0.012-12.434,0.029-18.652-0.018c0,1.926-0.012,3.853-0.029,5.779
		c6.462,0.023,12.925,0.006,19.387,0.023c0.169,1.004,0.274,2.008,0.362,3.018c-8.646,0.549-17.338-0.123-25.989,0.356
		c-3.433,0.333-7.245,1.261-9.463,4.116c-2.201,2.726-1.378,7.064,1.36,9.107c2.674,1.973,6.077,2.726,9.352,2.785
		c3.975,0.14,8.225-0.093,11.67-2.294c2.294-1.448,3.865-4.227,3.222-6.97c-0.222-1.973-1.78-3.327-3.164-4.571
		c3.088-0.07,6.211-0.391,9.264,0.222c1.092,2.831,1.886,6.054,0.455,8.926c-2.107,4.729-7.507,6.474-12.189,7.408
		c-6.924,1.027-14.25,1.01-20.87-1.518c-3.689-1.389-7.303-4.46-7.501-8.663c-0.479-3.438,1.331-6.818,4.18-8.692
		c-2.043,0.047-4.081,0.006-6.118-0.006c-0.683-1.086-1.389-2.154-2.125-3.199c7.034-0.076,14.069-0.012,21.098-0.047
		c-0.023-1.926-0.029-3.853-0.064-5.773c-4.921,0-9.842,0.064-14.758,0.006c-1.74,0.058-3.281-1.529-3.141-3.269
		C190.012,87.504,190.076,83.674,190.018,79.851L190.018,79.851z"/>
	<path fill="#0C4198" d="M344.419,88.128c-0.514-3.053-3.322-5.067-6.025-6.124c-4.804-1.792-9.988-2.259-15.079-2.154
		c-5.447,0.006-11.144,0.461-16.024,3.071c-2.452,1.232-4.489,3.771-4.192,6.637c0.082,2.469,1.909,4.507,3.993,5.633
		c4.221,2.329,9.113,2.843,13.835,3.205c5.657,0.187,11.454-0.128,16.848-1.979c2.148-0.689,3.999-2.043,5.616-3.584
		C343.964,91.339,344.758,89.78,344.419,88.128z M336.953,89.932c-0.753,3.222-4.408,4.238-7.233,4.816
		c-4.839,0.724-9.93,0.794-14.641-0.695c-2.218-0.771-4.874-2.469-4.518-5.178c-0.064-1.81,1.384-3.152,2.825-3.981
		c2.434-1.284,5.213-1.629,7.916-1.868c4.005-0.239,8.19-0.035,11.967,1.459C335.435,85.285,337.583,87.428,336.953,89.932z"/>
	<path fill="#0C4198" d="M376.953,85.729c1.319-0.012,2.633-0.023,3.958-0.053c-0.041-1.092-0.076-2.183-0.128-3.275
		c-3.234-0.018-6.468-0.029-9.696-0.006c-0.064-1.214-0.146-2.434-0.263-3.649c-2.44-0.385-4.915-0.21-7.367-0.21
		c0.082,1.278,0.175,2.563,0.239,3.847c-3.532,0.088-7.081-0.21-10.59,0.239c0.636,1.004,1.278,2.008,1.886,3.036
		c1.238,0.058,2.481,0.099,3.725,0.187c-0.292,0.128-0.876,0.374-1.168,0.496c-1.389,1.944-2.364,4.273-2.067,6.702
		c0.029,3.398,2.528,6.287,5.447,7.741c4.629,2.125,10.432,1.944,14.723-0.917c3.123-2.049,4.793-6.147,3.777-9.778
		C379.043,88.42,377.968,87.06,376.953,85.729z M366.532,98.934c-5.406-1.699-5.68-10.689-0.572-12.919
		c3.608-1.5,6.783,2.516,6.778,5.855C373.112,95.315,370.479,99.821,366.532,98.934z"/>
	<path fill="#0C4198" d="M301.103,105.42c-0.595-1.068-1.208-2.131-1.757-3.222c15.879,0.029,31.757,0.018,47.636,0
		c0.058,1.062,0.093,2.137,0.117,3.205C331.769,105.466,316.439,105.426,301.103,105.42L301.103,105.42z"/>
	<path fill="#0C4198" d="M400,81.146c-0.198-0.315-0.601-0.946-0.8-1.267c-2.061-0.064-4.121-0.058-6.182-0.047
		c0.012,2.896,0.012,5.791,0.006,8.687c-1.214,0.012-2.423,0.029-3.625,0.047c-0.017-2.545-0.064-5.09,0.082-7.636
		c-1.757-1.961-4.693-0.771-6.988-1.109c0.029,7.63,0.029,15.26-0.006,22.884c2.294-0.017,4.588,0.029,6.888-0.006
		c0.012-3.584,0.012-7.163,0.006-10.747c1.214,0.006,2.434,0.006,3.654,0c-0.012,4.606,0.006,9.212-0.023,13.818
		c-5.359-1.67-11.027-1.95-16.602-1.751c-4.407,0.333-8.996,0.794-12.936,2.977c-2.037,1.115-3.876,2.936-4.273,5.312
		c-0.578,2.738,0.917,5.54,3.17,7.052c3.917,2.715,8.832,3.287,13.468,3.631c6.311,0.239,12.931,0.169,18.797-2.458
		c2.825-1.22,5.487-3.812,5.336-7.11C400.023,102.664,399.971,91.905,400,81.146z M390.444,117.556
		c-3.835,2.405-8.634,2.586-13.03,2.405c-3.555-0.397-7.77-0.8-10.093-3.905c-1.243-1.833-0.817-4.664,0.905-6.071
		c1.716-1.506,3.987-2.125,6.182-2.522c5.412-0.438,11.541-1.027,16.258,2.224C393.438,111.444,393.234,115.904,390.444,117.556z"/>
	<path fill="#0C4198" d="M303.176,118.508c-0.245-3.479-0.064-6.97-0.064-10.455c2.329-0.018,4.688-0.14,6.988,0.327
		c0.385,3.158-0.222,6.392,0.572,9.498c11.559,0.181,23.123,0.047,34.682,0.07c0.023,1.086,0.035,2.172,0.047,3.263
		c-12.825-0.064-25.651-0.006-38.471-0.023C305.277,121.339,303.333,120.288,303.176,118.508L303.176,118.508z"/>
	<path fill="#0C4198" d="M289.066,81.082c-0.187-0.298-0.56-0.899-0.747-1.197c-2.207-0.082-4.413-0.058-6.62-0.047
		c0.018,2.598-0.006,5.201,0.023,7.799c-5.534-0.035-11.074,0.093-16.608-0.058c2.067,2.866,2.604,7.017,0.134,9.825
		c-2.989,3.94-10.093,3.065-11.897-1.588c-2.107-4.063,0.648-9.749,5.295-10.234c5.703-0.123,11.407-0.053,17.11-0.035
		c0.035-1.08,0.058-2.166,0.076-3.246c-4.104-0.117-8.214-0.064-12.318-0.076c-0.163-0.975-0.058-2.061-0.66-2.907
		c-2.201-0.625-4.53-0.385-6.778-0.216c0.012,1.045,0.018,2.096,0.029,3.146c-4.478-0.018-8.961-0.058-13.438,0.012
		c0.683,1.086,1.372,2.177,2.055,3.269c1.553,0.006,3.111,0.023,4.67,0.064c-1.214,1.191-2.557,2.364-3.17,3.999
		c-1.477,3.176-0.344,7.087,2.09,9.463c2.288,2.102,5.283,3.368,8.36,3.719c5.552,1.027,11.734-0.549,15.557-4.851
		c3.164-0.017,6.328,0.006,9.492-0.006c-0.041,3.672,0.006,7.344-0.023,11.016c-8.581,0.041-17.163-0.023-25.738,0.035
		c-0.029-1.43-0.058-2.86-0.134-4.291c-0.356-0.175-1.062-0.531-1.419-0.706c-1.886,0.006-3.765,0.018-5.645-0.012
		c-0.018,4.863-0.152,9.737,0.041,14.594c-0.023,1.629,1.67,2.656,3.158,2.615c12.37,0.058,24.746-0.041,37.116,0.047
		C289.089,107.842,289.095,94.462,289.066,81.082z M273.882,94.626c0.053-1.255,0.07-2.51,0.047-3.759
		c2.598,0.018,5.196-0.006,7.799-0.012c-0.006,1.249-0.006,2.504,0,3.759C279.113,94.608,276.497,94.597,273.882,94.626z
		 M255.937,117.895c-0.006-1.967,0.023-3.94,0.018-5.908c8.587-0.018,17.175-0.006,25.762-0.006c-0.006,1.991,0,3.981,0.023,5.972
		C273.141,117.918,264.536,118.041,255.937,117.895z"/>
</g>
</svg>
