<?xml version="1.0" encoding="utf-8"?>
<!-- Generator: Adobe Illustrator 17.0.0, SVG Export Plug-In . SVG Version: 6.00 Build 0)  -->
<!DOCTYPE svg PUBLIC "-//W3C//DTD SVG 1.1//EN" "http://www.w3.org/Graphics/SVG/1.1/DTD/svg11.dtd">
<svg version="1.1" id="레이어_1" xmlns="http://www.w3.org/2000/svg" xmlns:xlink="http://www.w3.org/1999/xlink" x="0px"
	 y="0px" width="400px" height="200px" viewBox="0 0 400 200" enable-background="new 0 0 400 200" xml:space="preserve">
<g>
	<path fill="#020202" d="M310.243,63.741c4.036,0.004,8.068-0.004,12.105,0.004c-0.004,7.146,0,14.292,0,21.435
		c3.461,0,6.921,0,10.382,0c0,2.698,0,5.401,0,8.099c-3.461,0-6.921,0-10.378,0c-0.008,14.323-0.008,28.646,0,42.968
		c-4.036,0.008-8.072,0-12.108,0.004C310.243,112.079,310.243,87.912,310.243,63.741L310.243,63.741z"/>
	<path fill="#0A8E90" d="M47.452,64.599c3.975,0.004,7.95-0.008,11.925,0.004c0.03,7.089-0.069,14.182,0.05,21.271
		c3.415-0.05,6.826-0.031,10.241-0.011c-0.004,2.691-0.008,5.382,0,8.076c-3.43,0.019-6.86,0-10.29,0.008
		c0,14.098-0.008,28.2,0.004,42.297c-3.975,0.019-7.95,0-11.929,0.008C47.452,112.365,47.452,88.484,47.452,64.599L47.452,64.599z"
		/>
	<path fill="#0A8E90" d="M117.179,64.625c3.983-0.057,7.966-0.019,11.948-0.019c-0.011,7.081-0.019,14.163,0.004,21.244
		c3.426,0,6.853-0.015,10.279,0.004c0.008,2.695-0.008,5.385,0.008,8.08c-3.43,0.027-6.864,0.004-10.298,0.011
		c0,14.102-0.004,28.2,0.004,42.301c-3.987-0.027-7.977,0.072-11.96-0.053c0.095-7.211-0.023-14.429,0.057-21.644
		c-3.849,1.403-7.973,1.673-12.032,1.799c-8.263-0.019-16.526,0.027-24.788-0.023c-4.764-0.194-8.046-4.943-8.259-9.399
		c-0.057-13.012,0.034-26.031-0.042-39.043c3.975-0.111,7.958-0.015,11.937-0.053c0.034,12.638-0.004,25.276,0.019,37.915
		c-0.118,1.357,1.223,2.287,2.474,2.203c7.489,0.011,14.978,0,22.467,0.004c2.824-0.015,5.683-0.541,8.194-1.879
		C117.198,92.257,117.213,78.441,117.179,64.625L117.179,64.625z"/>
	<path fill="#E1042D" d="M155.757,72.862c3.83-3.88,9.227-5.858,14.586-6.292c6.856-0.515,13.778,0.762,20.154,3.285
		c-0.858,2.969-1.852,6.182-4.341,8.213c-2.058,1.688-4.947,1.837-7.451,1.284c-3.064-0.534-6.38-0.896-9.315,0.37
		c-2.058,0.892-3.407,3.182-2.969,5.42c0.408,2.534,2.672,4.147,4.737,5.347c4.204,2.321,8.739,4.017,12.798,6.609
		c3.663,2.249,7.013,5.34,8.674,9.38c2.481,6.17,1.586,13.698-2.615,18.915c-3.895,4.924-10.058,7.569-16.175,8.32
		c-9.094,0.945-18.614-0.751-26.534-5.42c2.066-3.88,4.112-7.771,6.201-11.64c5.019,3.08,10.877,5.309,16.853,4.734
		c2.55-0.293,5.37-1.151,6.837-3.43c1.235-1.887,0.88-4.52-0.652-6.132c-2.085-2.294-5.004-3.541-7.714-4.924
		c-5.054-2.424-10.34-4.844-14.163-9.082C148.359,90.961,149.163,79.261,155.757,72.862L155.757,72.862z"/>
	<path fill="#E1042D" d="M202.669,67.838c4.936-0.027,9.875,0.046,14.811-0.038c0.152,8.93-0.023,17.867,0.091,26.801
		c6.887-8.815,13.477-17.879,20.287-26.763c6.048-0.004,12.093,0,18.142,0c-8.396,10.329-16.815,20.638-25.227,30.955
		c8.808,11.312,17.81,22.479,26.553,33.84c-6.327,0-12.657-0.008-18.984,0c-6.898-9.364-13.721-18.786-20.699-28.093
		c-0.038,5.362-0.004,10.721-0.015,16.084c-0.057,3.899-1.616,8.007-4.936,10.264c-2.878,2.092-6.529,2.595-9.997,2.634
		C202.635,111.626,202.689,89.73,202.669,67.838L202.669,67.838z"/>
	<path fill="#020202" d="M265.361,75.743c0.011-2.641-0.027-5.279,0.023-7.916c11.777,0.027,23.554,0,35.33,0.011
		c-0.046,4.745,0.213,9.524-0.53,14.235c-1.822,12.131-8.69,23.679-19.163,30.258c-4.92,3.16-10.607,5.099-16.427,5.645
		c0.008-2.668,0.004-5.336,0.004-8.004c6.201-1.509,11.339-5.656,15.42-10.409c1.483-1.787,2.71-3.773,3.846-5.797
		c-6.174-0.046-12.352,0.038-18.527-0.042c0.053-2.721,0.011-5.439,0.019-8.16c7.211-0.008,14.426-0.004,21.637-0.004
		c0.941-3.182,1.414-6.513,1.204-9.833C280.587,75.766,272.972,75.739,265.361,75.743L265.361,75.743z"/>
	<path fill="#020202" d="M341.971,95.123c0.008-9.101-0.03-18.199,0.019-27.296c16.701,0.034,33.406-0.015,50.111,0.023
		c-0.015,2.599-0.011,5.199-0.004,7.798c-12.676,0.008-25.349,0-38.025,0.004c0.008,6.62-0.015,13.244,0.011,19.868
		c-0.053,1.422,1.475,2.073,2.695,2.035c11.773,0.034,23.546-0.015,35.323,0.027c-0.023,2.695-0.004,5.389-0.011,8.084
		c-13.568,0.011-27.14-0.004-40.708,0.008c-2.188,0.053-4.448-0.667-6.003-2.252C343.1,101.316,341.956,98.191,341.971,95.123
		L341.971,95.123z"/>
	<path fill="#0A8E90" d="M41.499,71.996c-4.89,0.088-9.78-0.027-14.67,0.057c-0.111-2.481-0.015-4.97-0.053-7.455
		c-4.097,0-8.19,0-12.288,0c0,2.477,0,4.951,0,7.428c-4.817-0.011-9.631,0.027-14.449-0.023c-0.076,2.645-0.015,5.29-0.034,7.935
		c2.184,0,4.364-0.004,6.548,0.004c-2.938,4.215-4.676,9.246-4.936,14.384c-0.373,6.426,0.861,13.183,4.635,18.519
		c3.121,4.482,8.4,7.623,13.957,7.409c4.547,0.244,9.094-1.631,12.265-4.871c4.055-3.929,6.155-9.471,6.818-14.994
		c0.964-7.089-0.663-14.567-4.787-20.451c2.348,0,4.695,0,7.043,0C41.518,77.29,41.609,74.641,41.499,71.996z M27.553,99.255
		c-0.29,3.769-1.04,7.741-3.442,10.778c-1.22,1.616-3.567,2.489-5.427,1.448c-2.424-1.41-3.541-4.23-4.299-6.795
		c-1.258-5.37-1.246-11.049-0.114-16.442c0.781-2.977,1.97-6.403,4.932-7.847c1.582-0.663,3.442-0.053,4.562,1.182
		c1.631,1.787,2.542,4.112,3.072,6.445C27.652,91.701,27.759,95.504,27.553,99.255z"/>
	<path fill="#020202" d="M333.872,118.242c22.037-0.004,44.074,0.008,66.11-0.004c0.031,2.733,0.011,5.465,0.011,8.202
		c-22.041-0.008-44.081-0.004-66.122-0.004C333.872,123.704,333.872,120.975,333.872,118.242L333.872,118.242z"/>
</g>
</svg>
