<?xml version="1.0" encoding="utf-8"?>
<!-- Generator: Adobe Illustrator 17.0.0, SVG Export Plug-In . SVG Version: 6.00 Build 0)  -->
<!DOCTYPE svg PUBLIC "-//W3C//DTD SVG 1.1//EN" "http://www.w3.org/Graphics/SVG/1.1/DTD/svg11.dtd">
<svg version="1.1" id="레이어_1" xmlns="http://www.w3.org/2000/svg" xmlns:xlink="http://www.w3.org/1999/xlink" x="0px"
	 y="0px" width="400px" height="200px" viewBox="0 0 400 200" enable-background="new 0 0 400 200" xml:space="preserve">
<g>
	<path fill="#E73835" d="M107.398,65.442c30.379-12.353,63.517-16.615,96.139-16.093c29.007,0.545,58.233,5.12,85.213,16.062
		c12.088,4.98,23.872,11.09,33.995,19.437c-19.647-9.259-41.126-13.834-62.488-17.076c-33.745-4.739-68.037-5.261-101.977-2.549
		c-19.25,1.645-38.437,4.543-57.087,9.633c-9.399,2.587-18.704,5.666-27.464,9.984C83.714,76.469,95.419,70.421,107.398,65.442
		L107.398,65.442z"/>
	<path fill="#202020" d="M156.551,93.201c3.764,0,7.529,0,11.293,0c0.015,18.836,0.008,37.674,0.008,56.502
		c-3.772,0-7.537,0.008-11.301,0C156.551,130.867,156.551,112.039,156.551,93.201L156.551,93.201z"/>
	<path fill="#202020" d="M336.82,93.201c3.787,0,7.568,0,11.355,0c0.008,12.025-0.015,24.043,0.008,36.068
		c4.076-5.907,8.121-11.83,12.189-17.746c4.528-0.008,9.056-0.015,13.584,0c-4.793,6.009-9.578,12.017-14.387,18.018
		c5.136,6.725,10.311,13.428,15.431,20.17c-4.606-0.008-9.22,0-13.826-0.008c-4.333-6.328-8.643-12.664-12.992-18.985
		c-0.023,6.328-0.008,12.656-0.008,18.985c-3.787,0.008-7.575,0-11.355,0C336.82,130.875,336.812,112.039,336.82,93.201
		L336.82,93.201z"/>
	<path fill="#202020" d="M27.25,103.06c2.845-4.216,7.848-6.399,12.719-7.248c6.492-0.935,13.264-0.561,19.515,1.512
		c-0.008,3.577-0.015,7.163,0,10.739c-5.081-3.14-11.378-4.442-17.239-3.078c-2.174,0.553-4.512,1.956-4.925,4.349
		c-0.374,2.346,1.2,4.489,3.14,5.627c5.65,3.554,12.594,5.011,17.442,9.827c4.481,4.458,5.042,11.854,2.307,17.364
		c-2.564,4.91-8.121,7.271-13.35,8.043c-7.24,0.95-14.87,0.561-21.611-2.432c-0.039-3.85-0.008-7.7-0.023-11.55
		c4.512,3.639,10.311,5.689,16.132,5.307c2.844-0.148,6.219-0.818,7.739-3.515c1.364-2.463-0.102-5.479-2.244-6.944
		c-5.658-3.881-13.015-4.98-17.839-10.139C24.35,116.34,23.735,108.484,27.25,103.06L27.25,103.06z"/>
	<path fill="#202020" d="M107.156,103.123c3.764-1.075,7.537-2.128,11.308-3.195c0,3.865,0,7.723,0,11.589
		c4.949,0.008,9.898-0.023,14.854,0.008c0-2.798,0-5.604-0.008-8.401c3.764-1.075,7.529-2.136,11.301-3.188
		c0.008,3.858,0.008,7.716,0.008,11.581c2.938,0,5.877,0,8.814,0c0.008,2.79,0.008,5.587,0,8.386c-2.938-0.008-5.877-0.008-8.814,0
		c0.031,5.533-0.054,11.074,0.023,16.615c-0.023,2.252,1.036,4.973,3.546,5.354c1.956,0.585,3.718-0.561,5.541-1.021
		c-0.468,2.837-0.265,5.72-0.304,8.581c-4.7,1.481-10.108,1.933-14.667-0.219c-3.787-1.854-5.385-6.274-5.416-10.264
		c-0.07-6.351,0-12.704-0.023-19.055c-4.949,0.031-9.898,0-14.854,0.008c0.008,5.315-0.031,10.638,0.008,15.953
		c0.015,2.003,0.359,4.45,2.291,5.541c2.057,1.184,4.474,0.382,6.531-0.374c-0.023,2.79-0.023,5.58-0.008,8.37
		c-4.567,1.528-9.812,1.91-14.316,0c-3.858-1.676-5.643-6.001-5.76-9.976c-0.132-6.5-0.008-13.015-0.054-19.515
		c-2.128-0.008-4.255-0.008-6.375-0.008c-0.008-2.79-0.008-5.587,0-8.378c2.12,0,4.247,0,6.375,0
		C107.156,108.718,107.156,105.92,107.156,103.123L107.156,103.123z"/>
	<path fill="#202020" d="M305.234,117.634c3.787-6.835,13.272-9.063,19.912-5.23c4.185,2.603,5.447,7.863,5.596,12.477
		c0.109,8.276,0.008,16.554,0.039,24.822c-3.764,0.008-7.537,0-11.301,0.008c-0.054-7.622,0.117-15.252-0.086-22.874
		c-0.071-3.18-1.605-7.014-5.159-7.52c-4.434-1.083-8.674,2.837-8.869,7.186c-0.249,7.731-0.031,15.47-0.102,23.201
		c-3.804,0.008-7.598,0-11.402,0.008c-0.008-12.734-0.008-25.461,0-38.196c3.804,0,7.598,0,11.402,0
		C305.265,113.551,305.265,115.592,305.234,117.634L305.234,117.634z"/>
	<path fill="#202020" d="M100.679,133.774c0.109-5.612,0.226-11.737-3.211-16.506c-6.289-8.9-20.933-8.76-28.079-0.99
		c-5.557,5.689-6.547,14.504-4.575,21.922c1.551,6.009,6.773,10.723,12.844,11.861c6.562,1.215,13.568,0.624,19.655-2.205
		c0.086-2.775,0.054-5.549,0.078-8.324c-5.113,2.915-11.542,4.115-17.161,2.057c-3.257-1.161-4.793-4.567-5.19-7.786
		C83.581,133.736,92.13,133.805,100.679,133.774z M75.047,126.744c0.593-2.299,1.301-4.715,3.109-6.375
		c2.439-2.611,6.975-2.852,9.664-0.507c1.925,1.738,2.057,4.489,2.346,6.89C85.124,126.768,80.089,126.775,75.047,126.744z"/>
	<path fill="#202020" d="M208.868,133.782c0.132-5.946,0.132-12.556-3.881-17.379c-6.765-8.144-20.863-7.614-27.721,0.179
		c-5.362,5.744-6.234,14.449-4.24,21.782c1.605,5.986,6.858,10.631,12.929,11.729c6.523,1.153,13.522,0.616,19.554-2.284
		c-0.008-2.758-0.015-5.518,0.008-8.269c-5.105,2.938-11.55,4.099-17.177,2.034c-3.234-1.184-4.731-4.575-5.113-7.77
		C191.777,133.751,200.318,133.79,208.868,133.782z M186.423,120.284c2.47-2.556,6.983-2.743,9.625-0.359
		c1.871,1.746,2.003,4.45,2.276,6.827c-5.034,0.015-10.061,0.015-15.088,0C183.797,124.399,184.56,121.944,186.423,120.284z"/>
	<path fill="#202020" d="M246.502,113.831c-6.679-5.51-17.956-3.92-22.578,3.538c0.086-8.051,0.023-16.109,0.031-24.168
		c-3.796,0-7.599-0.008-11.394,0c0,18.836,0,37.674,0,56.502c3.804,0,7.614,0.008,11.418,0c-0.015-1.535-0.031-3.063-0.07-4.591
		c4.769,7.092,15.704,7.107,21.775,1.769c4.691-4.061,6.656-10.412,6.725-16.452C252.596,124.477,251.256,117.86,246.502,113.831z
		 M240.587,132.738c-0.405,3.538-2.088,7.443-5.658,8.767c-4.458,1.925-9.913-1.036-10.84-5.76
		c-0.779-5.447-1.029-12.851,4.731-15.75c3.148-1.481,7.466-1.006,9.695,1.862C240.915,124.905,240.969,129.051,240.587,132.738z"/>
	<path fill="#202020" d="M287.799,126.518c-0.039-4.006-0.81-8.3-3.57-11.378c-2.829-3.234-7.272-4.372-11.41-4.528
		c-5.424-0.109-10.926,0.919-15.891,3.14c0.008,2.891,0.015,5.783-0.008,8.674c4.832-3.032,10.84-5.113,16.53-3.562
		c2.618,0.779,3.491,3.608,3.702,6.048c-6.118,1.138-12.719,0.787-18.346,3.772c-7.349,3.796-7.794,16.047-0.6,20.224
		c6.258,3.601,15.197,1.629,18.821-4.808c-0.023,1.863-0.031,3.733-0.023,5.604c3.601,0.008,7.209,0,10.817,0.008
		C287.807,141.981,287.854,134.25,287.799,126.518z M275.556,139.253c-2.042,3.188-6.741,4.388-9.976,2.369
		c-3.008-1.917-2.361-7.076,0.958-8.3c3.351-1.309,7.038-1.232,10.552-1.8C277.053,134.141,277.216,137.032,275.556,139.253z"/>
</g>
</svg>
