<?xml version="1.0" encoding="utf-8"?>
<!-- Generator: Adobe Illustrator 17.0.0, SVG Export Plug-In . SVG Version: 6.00 Build 0)  -->
<!DOCTYPE svg PUBLIC "-//W3C//DTD SVG 1.1//EN" "http://www.w3.org/Graphics/SVG/1.1/DTD/svg11.dtd">
<svg version="1.1" id="레이어_1" xmlns="http://www.w3.org/2000/svg" xmlns:xlink="http://www.w3.org/1999/xlink" x="0px"
	 y="0px" width="200px" height="200px" viewBox="0 0 200 200" enable-background="new 0 0 200 200" xml:space="preserve">
<g>
	<path d="M119.627,82.381c4.072-3.239,9.314-4.882,14.498-4.788c4.432-0.052,8.965,0.898,12.76,3.26
		c1.07,0.681,2.236,1.358,2.876,2.5c0.898,1.529,0.868,3.572-0.156,5.034c-1.081,1.626-3.228,2.396-5.106,1.901
		c-1.345-0.312-2.322-1.351-3.51-1.979c-2.933-1.728-6.519-2.344-9.846-1.595c-2.784,0.624-5.305,2.291-7.007,4.574
		c-3.096,4.1-3.585,9.856-1.634,14.553c1.149,2.765,3.247,5.17,5.95,6.499c2.174,1.118,4.688,1.444,7.104,1.199
		c2.357-0.19,4.632-1.06,6.563-2.416c0.831-0.535,1.529-1.283,2.463-1.65c1.182-0.484,2.571-0.409,3.703,0.177
		c1.517,0.758,2.534,2.432,2.432,4.134c-0.054,1.234-0.674,2.408-1.61,3.204c-2.086,1.833-4.502,3.314-7.139,4.201
		c-2.226,0.77-4.577,1.112-6.922,1.236h-2.65c-3.147-0.182-6.281-0.935-9.093-2.375c-4.154-2.057-7.573-5.527-9.628-9.677
		c-2.422-4.856-2.955-10.568-1.727-15.835C113.058,89.782,115.779,85.403,119.627,82.381L119.627,82.381z"/>
	<path d="M103.991,78.519c1.338-0.796,3.05-0.823,4.472-0.236c2.073,0.848,3.033,3.395,2.432,5.479
		c-0.255,0.914-0.748,1.739-1.325,2.484c-3.53,4.75-7.058,9.5-10.588,14.248c-1.056,1.449-2.164,2.863-3.189,4.331
		c-0.03,3.785-0.004,7.572-0.013,11.356c-0.018,0.76,0.071,1.535-0.128,2.278c-0.289,1.21-1.08,2.287-2.149,2.923
		c-1.566,0.96-3.686,0.914-5.208-0.115c-1.304-0.853-2.124-2.395-2.094-3.954c0.006-4.104-0.001-8.209,0.004-12.315
		c-4.686-6.356-9.376-12.706-14.065-19.059c-0.716-0.973-1.178-2.162-1.156-3.382c-0.024-1.429,0.699-2.842,1.861-3.67
		c1.322-0.982,3.147-1.203,4.689-0.647c1.209,0.431,2.13,1.402,2.853,2.43c3.555,5.112,7.116,10.219,10.665,15.337
		c3.421-4.873,6.843-9.745,10.265-14.619C102.049,80.304,102.832,79.189,103.991,78.519L103.991,78.519z"/>
	<path d="M193.52,84.726c-3.232-3.482-7.629-5.814-12.286-6.694c-5.444-1.023-11.266-0.352-16.192,2.244
		c-3.66,1.917-6.779,4.866-8.853,8.44c-2.266,3.853-3.267,8.403-2.972,12.852c0.257,4.516,1.918,8.949,4.758,12.476
		c2.901,3.653,7.021,6.279,11.512,7.507c1.783,0.498,3.623,0.763,5.471,0.873h2.508c1.168-0.078,2.335-0.193,3.486-0.414
		c4.512-0.833,8.788-3.012,12.021-6.279c3.469-3.457,5.7-8.109,6.268-12.972V97.11C198.7,92.518,196.69,88.101,193.52,84.726z
		 M186.149,109.189c-1.758,2.09-4.234,3.548-6.901,4.119c-2.776,0.594-5.749,0.329-8.341-0.846c-2.332-1.05-4.317-2.833-5.644-5.018
		c-2.128-3.452-2.596-7.817-1.473-11.693c0.865-3.02,2.822-5.742,5.5-7.407c1.566-0.995,3.365-1.603,5.202-1.834
		c2.662-0.335,5.435,0.106,7.814,1.362c2.706,1.4,4.836,3.825,5.986,6.637C190.26,99.302,189.546,105.211,186.149,109.189z"/>
	<path d="M33.498,85.716c-1.379-2.683-3.731-4.808-6.464-6.057c-2.748-1.277-5.813-1.748-8.826-1.714
		c-4.259,0.003-8.518,0-12.779,0.001c-1.002,0.014-1.995,0.346-2.796,0.951c-1.064,0.777-1.745,2.03-1.874,3.338v35.559
		c0.149,1.441,0.97,2.805,2.216,3.558c1.748,1.104,4.212,0.926,5.753-0.465c1.023-0.881,1.616-2.22,1.609-3.568
		c-0.003-3.003-0.001-6.007-0.001-9.01c2.767-0.006,5.533,0.006,8.3-0.004c4.216-0.16,8.556-1.362,11.8-4.164
		c2.476-2.105,4.069-5.153,4.536-8.356C35.457,92.39,35.114,88.784,33.498,85.716z M24.211,97.092
		c-1.349,1.813-3.663,2.636-5.859,2.703c-2.671,0.003-5.343,0-8.014,0c-0.001-4.397-0.001-8.795-0.001-13.191
		c2.531-0.003,5.061,0.001,7.592-0.003c1.86,0.01,3.811,0.41,5.312,1.568c1.223,0.918,1.952,2.385,2.142,3.883
		C25.617,93.795,25.312,95.679,24.211,97.092z"/>
	<path d="M76.062,116.87c-0.183-0.951-0.672-1.802-1.04-2.686c-4.878-10.975-9.747-21.955-14.626-32.93
		c-0.782-1.749-2.361-3.216-4.297-3.518c-1.653-0.244-3.465-0.156-4.912,0.765c-1.237,0.765-2.087,2.017-2.618,3.35
		c-4.932,11.1-9.856,22.203-14.789,33.302c-0.328,0.735-0.695,1.487-0.712,2.308c-0.098,1.63,0.804,3.26,2.23,4.053
		c1.359,0.762,3.099,0.733,4.463-0.001c0.989-0.521,1.731-1.432,2.162-2.452c1.007-2.368,2.022-4.733,3.03-7.099
		c6.356-0.003,12.712,0.003,19.066-0.003c1.003,2.31,1.985,4.629,2.982,6.942c0.541,1.219,1.466,2.331,2.728,2.833
		c1.602,0.641,3.581,0.38,4.862-0.809C75.72,119.935,76.303,118.353,76.062,116.87z M48.506,103.521
		c1.986-4.744,3.991-9.479,5.981-14.22c2.013,4.736,3.998,9.484,5.993,14.227C56.489,103.51,52.498,103.526,48.506,103.521z"/>
</g>
</svg>
