<?xml version="1.0" encoding="utf-8"?>
<!-- Generator: Adobe Illustrator 17.0.0, SVG Export Plug-In . SVG Version: 6.00 Build 0)  -->
<!DOCTYPE svg PUBLIC "-//W3C//DTD SVG 1.1//EN" "http://www.w3.org/Graphics/SVG/1.1/DTD/svg11.dtd">
<svg version="1.1" id="레이어_1" xmlns="http://www.w3.org/2000/svg" xmlns:xlink="http://www.w3.org/1999/xlink" x="0px"
	 y="0px" width="400px" height="200px" viewBox="0 0 400 200" enable-background="new 0 0 400 200" xml:space="preserve">
<g>
	<path fill="#F59221" d="M171.631,13.165c1.445-0.809,2.829-1.912,4.568-1.933c0.359,1.135,0.695,2.297,0.646,3.503
		c-0.027,9.967-0.017,19.932-0.006,29.894c0,1.108-0.196,2.2-0.391,3.286c-0.169-0.359-0.516-1.081-0.689-1.439
		c-2.591-0.412-5.219-0.44-7.837-0.37c-15.023,0.017-30.045,0-45.068,0.011c-2.46,0.017-4.921-0.006-7.381-0.141
		c1.754-1.624,3.938-2.634,5.98-3.835C138.17,32.473,154.903,22.827,171.631,13.165z"/>
	<path fill="#EB5B2B" d="M115.452,47.039c0.006-0.266,0.017-0.799,0.021-1.065c2.46,0.136,4.921,0.158,7.381,0.141
		c15.023-0.011,30.045,0.006,45.068-0.011c2.618-0.07,5.246-0.044,7.837,0.37c0.174,0.359,0.522,1.081,0.689,1.439
		c-0.722,1.157-1.591,2.248-2.829,2.884c-8.489,4.845-16.918,9.809-25.434,14.609l-0.212,0.12
		c-7.028-4.405-14.349-8.331-21.486-12.557C122.784,51.042,119.405,48.446,115.452,47.039z"/>
	<path fill="#4C2177" d="M114.913,46.85l0.537,0.19c3.954,1.407,7.332,4.002,11.036,5.931c7.137,4.226,14.457,8.152,21.486,12.557
		c-9.614,5.557-19.188,11.188-28.85,16.652c-1.233,0.722-2.548,1.293-3.911,1.722c-0.82-0.526-0.608-1.515-0.651-2.33
		c0.032-9.418,0.006-18.835,0.017-28.248C114.599,51.161,114.392,48.973,114.913,46.85z"/>
	<path fill="#84378B" d="M119.123,82.179c9.662-5.464,19.237-11.096,28.85-16.652l0.212-0.12c8.543,5.105,17.238,9.966,25.831,14.99
		c1.754,0.989,2.867,2.939,2.759,4.959c0.006,10.314-0.021,20.633,0.011,30.947c0.021,1.032-0.174,2.053-0.397,3.058
		c-0.587,0.049-1.168,0.097-1.749,0.146c0.777-0.744,1.961-1.369,1.716-2.639c0.038-9.776-0.032-19.552,0.038-29.328
		c0.049-1.195-0.288-2.346-0.684-3.459c-1.477,0.283-2.977,0.522-4.481,0.516c-17.206-0.059-34.412,0.011-51.613-0.044
		c-1.309-0.021-2.586,0.298-3.818,0.701c-0.239-0.31-0.712-0.929-0.951-1.233l0.364-0.12
		C116.576,83.472,117.89,82.901,119.123,82.179z"/>
	<path fill="#E60480" d="M171.23,84.596c1.504,0.006,3.003-0.234,4.481-0.516c0.397,1.113,0.733,2.265,0.684,3.459
		c-0.07,9.776,0,19.552-0.038,29.328c0.245,1.271-0.94,1.895-1.716,2.639c-18.83-10.949-37.719-21.79-56.571-32.696
		c-0.793-0.473-1.542-1.005-2.27-1.559c1.233-0.402,2.51-0.722,3.818-0.701C136.818,84.607,154.024,84.536,171.23,84.596z"/>
	<path fill="#4C2177" d="M108.809,119.382c8.049-2.379,16.701-2.227,24.859-0.478c5.388,1.244,10.677,3.611,14.67,7.522
		c-3.601,3.797-7.039,7.74-10.651,11.52c-3.281-3.497-7.799-5.795-12.595-6.191c-6.377-0.875-13.35,0.537-18.129,5.062
		c-6.762,6.349-8.169,16.978-4.932,25.418c2.358,6.316,8.185,11.063,14.811,12.236c6.176,0.929,12.747,0.097,18.275-2.901
		c0.255-3.596,0.044-7.213,0.103-10.814c-4.025,0.011-8.044-0.011-12.063,0.006c0-4.633-0.011-9.271,0.006-13.909
		c8.853,0.049,17.711-0.032,26.569,0.044c-0.049,11.775-0.038,23.549-0.011,35.324c-7.582,4.046-16.147,6.045-24.701,6.436
		c-8.331,0.543-16.994-0.837-24.223-5.198c-8.174-4.769-13.774-13.36-15.354-22.643c-1.423-8.484-0.657-17.575,3.411-25.271
		C92.873,127.676,100.385,121.87,108.809,119.382z"/>
	<path fill="#4C2177" d="M25.001,119.361c5.018-0.032,10.032-0.006,15.044-0.017c0.021,9.303-0.055,18.602,0.038,27.906
		c8.712-9.303,17.407-18.618,26.118-27.921c6.593,0.055,13.187-0.027,19.78,0.038c-9.868,10.134-19.59,20.416-29.377,30.627
		c-0.853,0.554-0.37,1.434,0.228,1.955c10.558,11.666,21.056,23.386,31.642,35.026c-7.028,0.027-14.051-0.011-21.079,0.017
		c-9.147-10.531-18.075-21.263-27.314-31.707c-0.093,10.569-0.021,21.132-0.038,31.696c-5.013,0-10.026,0.006-15.044,0
		C25.006,164.439,25.006,141.9,25.001,119.361z"/>
	<path fill="#4C2177" d="M265.536,130.859c1.771-2.004,4.796-2.276,7.218-1.499c2.297,0.841,3.628,3.096,3.987,5.42
		c-0.288,2.379-1.613,4.747-3.987,5.551c-2.324,0.679-5.203,0.57-7.006-1.249C263.44,137.001,263.309,133.048,265.536,130.859z"/>
	<path fill="#4C2177" d="M328.402,129.18c2.753-0.706,6.039,0.152,7.516,2.732c1.971,3.117,0.093,7.68-3.487,8.543
		c-3.058,1.108-6.909-0.44-8.022-3.569C323.118,133.786,325.182,129.974,328.402,129.18z"/>
	<path fill="#4C2177" d="M196.837,129.495c3.465,0.017,6.935-0.044,10.406,0.044c-0.049,19.15-0.006,38.295-0.021,57.445
		c-3.465-0.006-6.924-0.011-10.39,0C196.843,167.817,196.837,148.657,196.837,129.495z"/>
	<path fill="#4C2177" d="M235.181,147.717c4.122-1.271,8.809-0.945,12.627,1.108c4.177,2.396,6.311,7.321,6.366,11.997
		c0.032,8.722,0,17.445,0.017,26.162c-3.286-0.011-6.577,0-9.863-0.006c-0.011-7.256,0.017-14.512-0.006-21.763
		c-0.059-2.906-0.636-6.202-3.03-8.125c-3.628-2.417-9.227-1.081-11.34,2.753c-1.266,2.091-1.434,4.611-1.461,6.996
		c0.006,6.713,0,13.426,0.006,20.139c-3.307,0.011-6.61-0.006-9.912,0.006c0.027-12.986,0.006-25.977,0.011-38.963
		c3.15,0.006,6.305-0.011,9.456,0.011c0.011,2.004,0.011,4.014-0.027,6.024C229.55,151.171,232.01,148.695,235.181,147.717z"/>
	<path fill="#4C2177" d="M288.206,155.12c6.924-9.314,22.241-11.091,30.724-2.96c0.684,0.391,0.625,1.19,0,1.613
		c-2.02,2.02-3.998,4.101-6.115,6.028c-2.124-2.102-4.85-4.122-7.995-3.905c-3.721,0.245-7.365,2.297-9.119,5.654
		c-2.787,4.79-1.76,11.498,2.569,15.038c4.192,3.584,11.286,3.416,14.751-1.119c2.124,2.39,4.752,4.469,6.441,7.163
		c-7.908,7.343-21.665,7.066-29.317-0.554C282.981,175.231,282.346,162.973,288.206,155.12z"/>
	<path fill="#4C2177" d="M355.569,147.364c5.551-0.951,11.813-0.207,16.255,3.52c0.613,0.651,1.602,1.211,1.787,2.14
		c-2.069,2.042-4.15,4.133-6.555,5.784c-2.227-3.14-6.441-4.725-10.123-3.416c-1.847,0.587-3.509,2.428-2.905,4.469
		c0.923,1.933,3.188,2.487,5.084,2.992c4.41,1.07,9.293,1.635,12.817,4.779c4.595,4.465,3.916,13.008-1.238,16.788
		c-4.052,3.085-9.363,3.731-14.311,3.492c-5.035-0.044-10.178-2.02-13.508-5.882c1.988-2.276,4.367-4.177,6.495-6.316
		c1.776,1.781,3.655,3.649,6.138,4.372c2.781,0.907,6.17,0.619,8.413-1.39c1.532-1.293,1.488-3.964-0.125-5.176
		c-1.993-1.619-4.655-1.879-7.066-2.472c-3.427-0.771-7.104-1.553-9.804-3.964c-3.134-2.895-3.465-7.756-2.183-11.606
		C346.293,150.861,351.001,148.184,355.569,147.364z"/>
	<path fill="#4C2177" d="M265.281,148.021c3.286,0.006,6.572-0.021,9.857,0.017c-0.021,12.98,0,25.961-0.011,38.942
		c-3.286,0-6.567,0.006-9.847,0C265.297,173.993,265.292,161.007,265.281,148.021z"/>
	<path fill="#4C2177" d="M325.459,148.016c3.296,0.021,6.605-0.038,9.906,0.049c-0.032,12.975-0.011,25.945-0.011,38.92
		c-3.302,0.006-6.599-0.011-9.901,0.006C325.426,173.998,325.426,161.007,325.459,148.016z"/>
</g>
</svg>
