<?xml version="1.0" encoding="utf-8"?>
<!-- Generator: Adobe Illustrator 17.0.0, SVG Export Plug-In . SVG Version: 6.00 Build 0)  -->
<!DOCTYPE svg PUBLIC "-//W3C//DTD SVG 1.1//EN" "http://www.w3.org/Graphics/SVG/1.1/DTD/svg11.dtd">
<svg version="1.1" id="레이어_1" xmlns="http://www.w3.org/2000/svg" xmlns:xlink="http://www.w3.org/1999/xlink" x="0px"
	 y="0px" width="200px" height="200px" viewBox="0 0 200 200" enable-background="new 0 0 200 200" xml:space="preserve">
<g>
	<path fill="#FFFFFF" d="M176.565,5.969c1.564-0.876,3.064-2.07,4.946-2.094c0.388,1.229,0.753,2.488,0.7,3.793
		c-0.029,10.792-0.018,21.584-0.006,32.37c0,1.2-0.212,2.382-0.423,3.558c-0.182-0.388-0.559-1.17-0.747-1.559
		c-2.805-0.447-5.652-0.476-8.487-0.4c-16.267,0.018-32.535,0-48.802,0.012c-2.664,0.018-5.328-0.006-7.993-0.153
		c1.9-1.759,4.264-2.852,6.475-4.152C140.331,26.877,158.451,16.432,176.565,5.969L176.565,5.969z"/>
	<path fill="#FFFFFF" d="M115.73,42.65c0.006-0.288,0.018-0.865,0.024-1.153c2.664,0.147,5.328,0.171,7.993,0.153
		c16.267-0.012,32.535,0.006,48.802-0.012c2.835-0.076,5.681-0.047,8.487,0.4c0.188,0.388,0.565,1.17,0.747,1.559
		c-0.782,1.253-1.723,2.435-3.064,3.123c-9.192,5.246-18.32,10.621-27.542,15.82l-0.229,0.129
		c-7.61-4.77-15.538-9.022-23.266-13.597C123.669,46.985,120.011,44.173,115.73,42.65L115.73,42.65z"/>
	<path fill="#FFFFFF" d="M115.147,42.444l0.582,0.206c4.282,1.523,7.94,4.334,11.951,6.422c7.728,4.576,15.656,8.828,23.266,13.597
		c-10.41,6.016-20.778,12.115-31.241,18.032c-1.335,0.782-2.758,1.4-4.234,1.864c-0.888-0.57-0.659-1.641-0.706-2.523
		c0.035-10.198,0.006-20.396,0.018-30.588C114.806,47.114,114.583,44.744,115.147,42.444L115.147,42.444z"/>
	<path fill="#FFFFFF" d="M119.705,80.702c10.463-5.917,20.831-12.015,31.241-18.032l0.229-0.129
		c9.251,5.528,18.667,10.792,27.971,16.232c1.9,1.07,3.105,3.182,2.988,5.37c0.006,11.168-0.024,22.343,0.012,33.511
		c0.024,1.117-0.188,2.223-0.429,3.311c-0.635,0.053-1.264,0.106-1.894,0.159c0.841-0.806,2.123-1.482,1.858-2.858
		c0.041-10.586-0.035-21.172,0.041-31.759c0.053-1.294-0.312-2.541-0.741-3.746c-1.6,0.306-3.223,0.565-4.852,0.559
		c-18.632-0.065-37.263,0.012-55.889-0.047c-1.417-0.024-2.799,0.323-4.134,0.759c-0.259-0.335-0.77-1.006-1.029-1.335l0.394-0.129
		C116.947,82.101,118.37,81.484,119.705,80.702L119.705,80.702z"/>
	<path fill="#FFFFFF" d="M176.13,83.319c1.629,0.006,3.252-0.253,4.852-0.559c0.429,1.206,0.794,2.452,0.741,3.746
		c-0.076,10.586,0,21.172-0.041,31.759c0.265,1.376-1.017,2.053-1.858,2.858c-20.39-11.857-40.845-23.595-61.259-35.405
		c-0.859-0.512-1.67-1.088-2.458-1.688c1.335-0.435,2.717-0.782,4.134-0.759C138.866,83.331,157.498,83.254,176.13,83.319
		L176.13,83.319z"/>
	<path fill="#FFFFFF" d="M108.537,120.988c8.716-2.576,18.085-2.411,26.918-0.518c5.834,1.347,11.562,3.911,15.885,8.146
		c-3.899,4.111-7.622,8.381-11.533,12.474c-3.552-3.788-8.445-6.275-13.639-6.705c-6.905-0.947-14.456,0.582-19.632,5.481
		c-7.322,6.875-8.845,18.385-5.34,27.524c2.552,6.84,8.863,11.98,16.038,13.25c6.687,1.006,13.803,0.106,19.79-3.141
		c0.276-3.893,0.047-7.81,0.112-11.709c-4.358,0.012-8.71-0.012-13.062,0.006c0-5.017-0.012-10.039,0.006-15.062
		c9.586,0.053,19.179-0.035,28.771,0.047c-0.053,12.75-0.041,25.501-0.012,38.251c-8.21,4.382-17.485,6.546-26.748,6.969
		c-9.022,0.588-18.402-0.906-26.23-5.628c-8.851-5.164-14.915-14.468-16.626-24.519c-1.541-9.186-0.712-19.032,3.693-27.365
		C91.281,129.969,99.415,123.682,108.537,120.988L108.537,120.988z"/>
	<path fill="#FFFFFF" d="M17.784,120.965c5.434-0.035,10.863-0.006,16.291-0.018c0.024,10.075-0.059,20.143,0.041,30.218
		c9.433-10.075,18.849-20.161,28.283-30.235c7.14,0.059,14.28-0.029,21.419,0.041c-10.686,10.974-21.214,22.107-31.812,33.164
		c-0.923,0.6-0.4,1.553,0.247,2.117c11.433,12.633,22.802,25.325,34.264,37.928c-7.61,0.029-15.215-0.012-22.825,0.018
		c-9.904-11.404-19.573-23.025-29.577-34.335c-0.1,11.445-0.024,22.884-0.041,34.323c-5.428,0-10.857,0.006-16.291,0
		C17.79,169.779,17.79,145.372,17.784,120.965L17.784,120.965z"/>
</g>
</svg>
