<?xml version="1.0" encoding="utf-8"?>
<!-- Generator: Adobe Illustrator 17.0.0, SVG Export Plug-In . SVG Version: 6.00 Build 0)  -->
<!DOCTYPE svg PUBLIC "-//W3C//DTD SVG 1.1//EN" "http://www.w3.org/Graphics/SVG/1.1/DTD/svg11.dtd">
<svg version="1.1" id="레이어_1" xmlns="http://www.w3.org/2000/svg" xmlns:xlink="http://www.w3.org/1999/xlink" x="0px"
	 y="0px" width="400px" height="200px" viewBox="0 0 400 200" enable-background="new 0 0 400 200" xml:space="preserve">
<g>
	<path fill="#80B3D0" d="M357.91,73.831c7.094-3.665,13.605-8.38,20.642-12.139c5.074,2.099,6.303,9.509,2.695,13.469
		c-3.105,3.342-7.597,4.83-11.126,7.618c-0.812,0.647-0.791,1.818-1.179,2.71c-3.45-1.459-7.238-2.487-10.091-5.01
		c-1.955-1.667-1.128-4.384-0.956-6.576L357.91,73.831L357.91,73.831z"/>
	<path fill="#106CA4" d="M352.283,88.364c-1.854-5.477,0.999-11.377,5.613-14.461c-0.172,2.192-0.999,4.909,0.956,6.576
		c2.853,2.523,6.641,3.55,10.091,5.01c6.159,2.674,12.269,5.469,18.442,8.114c3.687,1.588,7.676,3.09,10.263,6.332
		c2.587,3.076,2.904,7.561,1.61,11.255c-0.978,2.702-3.328,4.499-5.491,6.224c0.482-2.113,0.985-4.715-0.834-6.361
		c-2.868-2.623-6.785-3.586-10.278-5.103c-6.224-2.695-12.405-5.505-18.644-8.172C359.413,95.803,353.886,93.618,352.283,88.364
		L352.283,88.364z"/>
	<path fill="#ADCF9C" d="M390.131,78.338c1.488-0.783,2.904-2.056,4.643-2.135c5.067,2.817,5.735,10.766,1.207,14.403
		c-1.538,1.136-3.407,3.098-5.47,2.07c-4.643-1.919-9.2-4.039-13.799-6.044C380.974,83.541,385.703,81.184,390.131,78.338
		L390.131,78.338z"/>
	<path fill="#289C3B" d="M352.93,102.904c1.272-2.02,3.306-3.356,5.168-4.779c-0.438,2.271-1.423,5.175,0.704,6.921
		c2.81,2.293,6.382,3.313,9.66,4.765c6.346,2.724,12.621,5.628,18.989,8.33c4.233,1.761,9.02,3.773,11.025,8.237
		c1.818,3.895,0.668,8.344-1.322,11.931c-7.13-5.074-15.402-8.071-23.294-11.679c-4.657-2.091-9.358-4.068-14.001-6.181
		c-3.522-1.632-6.979-4.233-8.143-8.107C350.953,109.214,351.14,105.664,352.93,102.904L352.93,102.904z"/>
	<path fill="#ADCF9C" d="M358.097,98.124l0.122-0.597c5.275,2.408,10.623,4.657,15.913,7.029c-2.156,1.394-5.333,2.257-5.671,5.254
		c-3.277-1.452-6.849-2.472-9.66-4.765C356.674,103.299,357.659,100.395,358.097,98.124L358.097,98.124z"/>
	<path fill="#106CA4" d="M6.726,83.369c6.273-4.062,15.197-4.195,21.496-0.133c3.796,2.384,4.821,7.019,5.7,11.081
		c-2.118,0.067-4.235,0.107-6.34,0.133c-1.185-2.557-1.825-5.94-4.701-7.179c-3.716-1.638-8.324-1.612-11.907,0.4
		c-3.143,1.838-3.729,7.126-0.2,8.884c6.593,3.396,14.877,2.477,20.897,7.205c5.794,4.795,4.675,15.023-1.905,18.593
		c-6.966,3.889-16.249,3.942-23.121-0.173C2.277,119.649,0.892,114.508,0,109.9c2.091-0.333,4.169-0.653,6.26-0.972
		c1.079,2.81,1.239,6.433,4.009,8.218c4.408,2.77,10.375,3.117,15.063,0.879c4.195-1.758,4.382-8.75,0.08-10.482
		c-6.406-3.05-14.198-2.437-20.098-6.686C-0.373,96.514,0.946,87.045,6.726,83.369L6.726,83.369z"/>
	<path fill="#106CA4" d="M50.917,83.715c6.566-4.302,15.729-4.382,22.429-0.346c4.182,2.451,6.1,7.125,7.165,11.627
		c-2.131,0.053-4.275,0.093-6.406,0.12c-1.452-2.584-2.451-5.767-5.208-7.285c-5.234-2.903-12.626-2.091-16.462,2.73
		c-3.716,4.475-4.009,10.708-3.41,16.249c0.559,4.768,3.117,9.723,7.738,11.654c4.155,1.691,9.39,1.465,13.026-1.332
		c2.957-2.317,3.556-6.26,4.475-9.656c2.317-0.027,4.648-0.04,6.979-0.04c-1.478,5.367-2.97,11.374-7.938,14.637
		c-8.963,5.913-23.254,3.729-28.449-6.246C39.65,105.545,41.021,90.721,50.917,83.715L50.917,83.715z"/>
	<path fill="#106CA4" d="M98.758,81.811c7.139,0.453,14.89-1.638,21.51,1.851c-0.986,7.139-5.088,13.239-7.965,19.712
		c2.144,0.666,5.434-0.266,6.593,2.211c2.957,6.193,5.101,12.746,7.858,19.032c-2.477-0.027-4.955-0.04-7.418-0.08
		c-2.504-6.659-5.088-13.292-7.871-19.845c-2.77,6.699-6.007,13.199-9.137,19.738c-2.451,0-4.888,0.013-7.325,0.04
		c5.86-12.453,11.96-24.773,17.834-37.212c-4.688-0.027-9.363-0.013-14.038,0.013C98.784,85.899,98.771,83.169,98.758,81.811
		L98.758,81.811z"/>
	<path fill="#106CA4" d="M125.461,81.811c3.343,0,6.699,0.027,10.056,0.053c-0.013,14.304,0.093,28.622,0.146,42.926
		c-2.224,0.013-4.448,0.027-6.659,0.027c-0.013-12.533-0.04-25.052,0-37.585c-2.184,0.013-4.355,0.027-6.539,0.027
		C123.464,85.447,124.463,83.635,125.461,81.811L125.461,81.811z"/>
	<path fill="#106CA4" d="M140.884,81.744c2.224,0.053,4.448,0.12,6.686,0.2c-0.093,14.331-0.027,28.675-0.04,43.006
		c-2.224,0.053-4.448,0.093-6.673,0.147C140.871,110.645,140.831,96.195,140.884,81.744L140.884,81.744z"/>
	<path fill="#106CA4" d="M202.563,81.744c2.211-0.013,4.435-0.04,6.659-0.053c0.027,5.993,0.04,12,0.053,17.993
		c-2.264-0.013-4.515-0.027-6.766-0.04C202.563,93.678,202.563,87.711,202.563,81.744L202.563,81.744z"/>
	<path fill="#106CA4" d="M256.81,79.706c-5.128-2.983-11.561-3.01-17.168-1.438c-8.031,2.078-10.455,13.558-4.608,19.139
		c4.968,4.688,12.799,4.169,18.966,2.664C262.603,97.553,264.108,84.541,256.81,79.706z M250.59,95.382
		c-3.383,0.586-7.658,1.092-10.335-1.545c-3.183-2.877-2.397-9.11,1.865-10.508c3.822-1.358,8.937-1.345,11.747,2.024
		C256.117,88.736,254.839,94.317,250.59,95.382z"/>
	<path fill="#106CA4" d="M317.236,87.112c0.959-1.785,1.931-3.556,2.917-5.327c3.343,0.027,6.686,0.04,10.042,0.08
		c-0.053,6.753-0.067,13.492,0.013,20.231c-2.264,0.04-4.515,0.067-6.766,0.08c0.053-5.008,0.04-10.002,0.08-15.01
		C321.418,87.151,319.327,87.125,317.236,87.112L317.236,87.112z"/>
	<path fill="#106CA4" d="M184.809,83.848c-3.742-5.394-11.694-5.367-17.328-3.463c-5.647,2.104-7.858,9.749-4.435,14.664
		c3.13,5.367,10.255,5.088,15.609,4.329C185.595,98.406,188.712,89.322,184.809,83.848z M168.094,92.399
		c-1.332-2.65-0.599-6.486,2.291-7.751c3.796-1.971,10.349-0.346,10.029,4.795C180.973,95.888,170.905,97.354,168.094,92.399z"/>
	<path fill="#80B3D0" d="M382.656,105.951c3.493,1.516,7.41,2.48,10.278,5.103c1.818,1.646,1.315,4.248,0.834,6.361
		c-0.898,1.15-2.235,0.014-3.299-0.28c-4.248-2.005-8.646-3.658-12.851-5.75c1.481-1.279,3.155-2.3,4.83-3.299
		C382.505,107.554,382.606,106.483,382.656,105.951L382.656,105.951z"/>
	<path fill="#106CA4" d="M162.527,102.987c15.503-0.013,31.006,0.093,46.509-0.067c0.067,4.475,0.133,8.963,0.24,13.438
		c-13.092-0.04-26.184-0.013-39.277-0.013c0.027,0.986,0.08,2.93,0.107,3.902c13.319-0.027,26.637-0.08,39.943,0.027
		c0.013,1.172,0.04,3.503,0.053,4.675c-12.493,0.2-24.986-0.013-37.492,0.12c-2.757-0.053-5.594,0.16-8.244-0.733
		c-2.251-3.956-1.332-8.657-1.532-12.986c13.252-0.067,26.504-0.067,39.756,0c-0.027-0.946-0.067-2.837-0.08-3.783
		c-13.345,0.093-26.677,0.053-40.022,0.027C162.501,106.437,162.514,104.133,162.527,102.987L162.527,102.987z"/>
	<path fill="#106CA4" d="M223.273,104.612c15.902-0.093,31.818-0.053,47.721-0.013c0.013,1.745,0.013,3.503,0.04,5.248
		c-13.572,0-27.143,0.013-40.728,0c0.053,3.25,0.106,6.486,0.186,9.723c13.425,0.067,26.864,0.053,40.302,0.027
		c0.04,1.359,0.107,4.062,0.147,5.421c-13.692-0.013-27.383,0.107-41.061-0.027c-2.69,0.226-5.594-1.292-6.087-4.102
		C223.1,115.494,223.526,110.033,223.273,104.612L223.273,104.612z"/>
	<path fill="#106CA4" d="M324.828,107.516c-1.798-3.423-5.554-4.848-8.897-6.246c-0.146-6.499-0.24-12.999-0.32-19.498
		c-6.713-0.04-13.425-0.027-20.138-0.013c-0.04-1.572-0.053-3.157-0.08-4.728c-2.198,0.013-4.395,0.027-6.579,0.04
		c-0.013,1.145-0.04,3.45-0.053,4.595c-3.889,0.067-7.765,0.08-11.64,0.08c0.013,1.798,0.04,3.609,0.067,5.407
		c0.892-0.027,2.677-0.08,3.569-0.12c-1.438,4.422-2.051,10.029,1.851,13.412c4.901,3.916,12.32,3.849,17.7,0.932
		c4.768-3.223,4.702-9.443,3.037-14.344c1.998,0.027,3.996,0.067,6.007,0.093c-0.04,4.715,0,9.43-0.107,14.144
		c-3.143,0.866-6.699,1.465-8.923,4.115c-5.514,5.567-4.076,16.129,2.997,19.725c4.968,2.278,10.908,2.317,16.022,0.413
		C326.107,122.766,328.637,113.602,324.828,107.516z M297.392,95.569c-2.064,3.929-8.777,3.769-10.841-0.107
		c-0.852-2.517-0.826-6.007,1.691-7.565c2.65-1.398,5.74-0.413,8.551-0.24C297.258,90.215,299.19,93.118,297.392,95.569z
		 M320.033,115.906c-1.452,7.405-13.851,7.791-16.275,0.852c-1.345-3.623,0.4-8.444,4.262-9.656c3.17-1.532,6.619-0.013,9.842,0.573
		C319.114,110.233,320.819,112.923,320.033,115.906z"/>
	<path fill="#80B3D0" d="M349.76,128.576c3.32-1.897,6.612-3.86,9.918-5.793c5.017,2.264,10.055,4.492,15.086,6.734
		c-4.478,2.638-8.56,6.124-13.548,7.769C355.639,138.775,350.357,133.988,349.76,128.576L349.76,128.576z"/>
</g>
</svg>
