<?xml version="1.0" encoding="utf-8"?>
<!-- Generator: Adobe Illustrator 17.0.0, SVG Export Plug-In . SVG Version: 6.00 Build 0)  -->
<!DOCTYPE svg PUBLIC "-//W3C//DTD SVG 1.1//EN" "http://www.w3.org/Graphics/SVG/1.1/DTD/svg11.dtd">
<svg version="1.1" id="레이어_1" xmlns="http://www.w3.org/2000/svg" xmlns:xlink="http://www.w3.org/1999/xlink" x="0px"
	 y="0px" width="400px" height="200px" viewBox="0 0 400 200" enable-background="new 0 0 400 200" xml:space="preserve">
<g>
	<path fill="#6B6257" d="M280.762,73.888c2.611,0.025,5.222,0.02,7.837-0.01c0.01,3.405,0.025,6.816-0.02,10.221
		c2.374,0.015,4.743,0.02,7.117,0c-0.03,2.226-0.015,4.452,0.01,6.682c-2.369-0.069-4.743-0.069-7.112,0.005
		c0,5.049,0.025,10.093,0.005,15.142c0.039,1.352-0.454,3.09-1.984,3.381c-1.925,0.38-3.909,0.178-5.858,0.183
		C280.762,97.627,280.728,85.757,280.762,73.888L280.762,73.888z"/>
	<path fill="#6B6257" d="M382.302,73.883c2.364,0.025,4.738,0.03,7.107,0.005c0.049,3.321-0.035,6.643,0.069,9.964
		c1.105-0.015,2.211-0.025,3.321-0.035c0.054-3.302,0.005-6.608,0.035-9.91c2.384-0.015,4.768,0,7.151,0
		c-0.005,7.541-0.02,15.087,0.01,22.633c0.049,1.101-0.257,2.167-0.582,3.208c-2.033,1.115-4.388,0.76-6.603,0.77
		c0.02-3.445,0.03-6.89-0.005-10.335c-1.125-0.005-2.25-0.005-3.366,0.005c-0.074,2.448,0.069,4.896-0.054,7.339
		c-0.04,1.106-0.454,2.443-1.658,2.754c-1.787,0.439-3.652,0.197-5.468,0.281C382.316,91.67,382.252,82.776,382.302,73.883
		L382.302,73.883z"/>
	<path fill="#D22026" d="M98.713,75.635c3.682,0.074,7.363-0.044,11.045,0.064c-0.01,16.716,0.133,33.432-0.064,50.143
		c-4.18,0.193-8.37,0.049-12.551,0.084c-2.858,0.039-5.789-0.419-8.306-1.836c-2.107-1.328-3.514-3.489-4.481-5.735
		c-4.397-9.984-8.676-20.018-13.029-30.022c-0.651-1.708-2.043-3.188-3.919-3.46c-3.396-0.365-6.83,0.118-10.221-0.276
		c-0.217-2.966-0.059-5.947-0.079-8.918c4.462,0.035,8.933-0.163,13.385,0.114c4.096,0.276,8.109,2.556,9.895,6.342
		c3.943,9.056,7.867,18.122,11.79,27.194c1.12,2.478,1.89,5.227,3.889,7.191c0.819,0.069,1.639,0.133,2.458,0.202
		c0.079-12.817,0.015-25.634,0.03-38.446C98.57,77.392,98.644,76.513,98.713,75.635L98.713,75.635z"/>
	<path fill="#6B6257" d="M254.862,85.106c1.101-3.252,0.795-6.717,0.874-10.088c2.828,0.03,5.651,0.005,8.479,0.03
		c0.039,3.484-0.355,7.107,0.923,10.438c1.91,5.468,6.243,9.673,10.956,12.842c-1.199,1.49-2.334,3.03-3.474,4.565
		c-5.197-2.581-9.456-6.806-12.674-11.593c-3.154,4.965-7.442,9.338-12.61,12.205c-1.165-1.569-2.31-3.149-3.529-4.664
		C248.777,95.569,253.026,90.841,254.862,85.106L254.862,85.106z"/>
	<path fill="#6B6257" d="M0.091,84.731c0.025-3.025-0.212-6.056-0.005-9.081c8.829-0.01,17.659,0.01,26.488,0.02
		c2.581,0.025,5.187-0.168,7.744,0.276C23.07,75.961,11.812,75.803,0.564,76.02c-0.158,1.925-0.513,3.84-0.449,5.774
		c-0.039,1.446,1.199,2.922,2.724,2.739c5.932,0.079,11.865-0.094,17.797,0c3.272,0.084,6.589-0.316,9.821,0.341
		C20.345,84.553,10.213,84.839,0.091,84.731L0.091,84.731z"/>
	<path fill="#D22026" d="M119.279,78.261c0.025-0.883,0.133-1.752,0.232-2.626c3.652,0.044,7.309,0.01,10.961,0.01
		c0.123,13.686,0.039,27.371,0.049,41.062c1.787,0.217,3.573-0.607,4.22-2.359c4.565-10.418,9.071-20.862,13.607-31.295
		c0.997-2.354,2.66-4.555,4.985-5.72c4.807-2.374,10.325-1.545,15.497-1.648c0.069,2.951,0.054,5.898,0.02,8.849
		c-2.482,0.424-5.024-0.025-7.497,0.429c-1.969,0.39-3.06,2.255-3.8,3.943c-4.383,10.187-8.785,20.368-13.241,30.525
		c-1.634,4.012-5.982,6.243-10.152,6.416c-4.851,0.178-9.718,0.059-14.574,0.059c-0.439-2.537-0.262-5.113-0.291-7.67
		C119.279,104.911,119.313,91.586,119.279,78.261L119.279,78.261z"/>
	<path fill="#6B6257" d="M340.47,83.655c-0.424-3.825-3.257-6.944-6.564-8.681c-3.618-2.043-7.931-2.231-11.973-1.836
		c-4.59,0.582-9.199,3.099-11.376,7.314c-1.806,3.499-1.15,8.02,1.495,10.927c2.359,2.966,6.026,4.536,9.678,5.182
		c4.861,0.785,10.142-0.114,14.13-3.114C338.945,91.28,340.983,87.465,340.47,83.655z M324.104,90.979
		c-3.085-0.321-6.603-2.374-6.835-5.764c-0.301-3.243,2.665-5.74,5.616-6.297c4.047-1.12,9.649,1.096,9.974,5.76
		C332.825,89.02,327.964,91.438,324.104,90.979z"/>
	<path fill="#6B6257" d="M232.337,73.893c-2.507,0.01-5.014,0.015-7.521,0.01c-0.005,1.703-0.005,3.405-0.005,5.113
		c-6.979,0.079-13.957,0.02-20.941,0.035c-0.015-1.722-0.015-3.44-0.03-5.157c-2.502,0.02-4.999,0.02-7.502-0.015
		c0.02,5.913,0.01,11.825-0.005,17.738c-0.079,1.569,0.395,3.228,1.619,4.289c1.599,1.337,3.815,1.412,5.809,1.446
		c6.909,0,13.824-0.01,20.733,0c1.703,0,3.47-0.03,5.064-0.721c1.732-0.765,2.872-2.631,2.759-4.521
		C232.372,86.039,232.322,79.963,232.337,73.893z M224.672,91.359c-3.183,0.405-6.391,0.128-9.584,0.202
		c-3.692-0.064-7.388,0.163-11.07-0.158c-0.143-2.186-0.114-4.378-0.084-6.569c6.939-0.039,13.883-0.01,20.822-0.01
		C224.771,87.001,224.791,89.182,224.672,91.359z"/>
	<path fill="#6B6257" d="M374.904,83.689c1.525,0.035,3.055,0.035,4.585,0.064c-0.025-1.767-0.025-3.529-0.049-5.291
		c-2.848-0.005-5.695-0.015-8.543,0.005c-0.005-1.525-0.005-3.05-0.01-4.57c-2.67,0-5.335,0.02-8-0.015
		c-0.005,1.525-0.01,3.045-0.01,4.57c-2.892,0.035-5.784-0.02-8.671,0.035c0.049,1.722,0.035,3.445-0.01,5.167
		c1.569,0.069,3.149,0.109,4.728,0.109c-3.934,2.897-5.197,8.676-2.843,12.955c2.734,5.009,9.264,7.127,14.599,5.454
		c4.649-1.214,8.518-5.656,8.232-10.596C378.891,88.482,377.233,85.634,374.904,83.689z M372.49,92.119
		c0.01,3.978-4.723,6.732-8.183,4.768c-4.338-2.014-3.716-9.392,1.036-10.453C368.878,85.279,372.86,88.388,372.49,92.119z"/>
	<path fill="#D22026" d="M57.094,89.76c3.721-0.064,7.442-0.089,11.164-0.005c0.084,12.047,0.015,24.099,0.035,36.151
		c-3.711,0.039-7.423,0.03-11.129,0.01C56.985,113.869,57.113,101.812,57.094,89.76L57.094,89.76z"/>
	<path fill="#6B6257" d="M299.837,100.539c16.81-0.039,33.624-0.035,50.434-0.005c-0.015,1.979-0.015,3.958-0.01,5.942
		c-16.81-0.074-33.619-0.035-50.429-0.025C299.842,104.482,299.842,102.508,299.837,100.539L299.837,100.539z"/>
	<path fill="#6B6257" d="M186.774,102.611c17.733-0.123,35.47-0.049,53.203-0.044c-0.064,1.984-0.054,3.973-0.015,5.957
		c-7.176,0.094-14.352-0.079-21.523,0.094c0.02,4.2,0.015,8.405,0.01,12.61c0.015,1.481-0.306,3.396-1.979,3.845
		c-2.132,0.518-4.358,0.197-6.529,0.247c0-5.592,0.01-11.183,0-16.775c-7.714,0.01-15.428-0.025-23.142,0.03
		C186.814,106.584,186.828,104.595,186.774,102.611L186.774,102.611z"/>
	<path fill="#D22026" d="M152.089,115.359c1.525-3.677,3.134-7.314,4.753-10.951c5.286,6.11,10.315,12.442,15.546,18.601
		c0.78,0.898,1.486,1.861,2.167,2.838c-4.693,0.138-9.392,0.123-14.08,0C157.522,122.481,154.852,118.873,152.089,115.359
		L152.089,115.359z"/>
	<path fill="#D22026" d="M48.511,108.558c-0.913-3.869-4.304-6.845-8.084-7.813c3.104-0.76,5.695-3.341,6.835-6.302
		c1.693-4.496,0.814-10.034-2.64-13.469c-2.69-2.853-6.495-4.412-10.305-5.029C23.07,75.961,11.812,75.803,0.564,76.02
		c-0.158,1.925-0.513,3.84-0.449,5.774c-0.039,1.446,1.199,2.922,2.724,2.739c5.932,0.079,11.865-0.094,17.797,0
		c3.272,0.084,6.589-0.316,9.821,0.341c2.542,0.548,5.177,2.418,5.301,5.227c0.222,2.196-1.352,4.081-3.164,5.083
		c-3.948,1.624-8.311,0.75-12.447,0.869c-2.744,0.178-5.483-0.158-8.227-0.094c0.015-2.078,0-4.151-0.044-6.223
		c-3.929-0.035-7.852-0.039-11.776,0c-0.005,12.052-0.114,24.109,0.054,36.161c9.629,0.074,19.258,0.015,28.886,0.035
		c3.42,0.049,6.895-0.222,10.132-1.407c3.771-1.209,7.215-3.894,8.676-7.66C48.773,114.224,49.321,111.302,48.511,108.558z
		 M29.525,117.092c-5.868,0.054-11.731-0.01-17.594,0.025c-0.015-3.884-0.005-7.763-0.02-11.642
		c6.061,0.039,12.126-0.074,18.187,0.044c3.099,0.143,6.485,2.458,6.49,5.814C36.469,114.881,32.762,117.047,29.525,117.092z"/>
	<path fill="#6B6257" d="M254.886,107.902c2.793-0.104,5.587-0.005,8.38-0.035c0.039,4.017-0.089,8.04,0.104,12.057
		c8.805,0.37,17.634,0.049,26.448,0.178c-0.025,1.969-0.025,3.938-0.025,5.908c-9.273-0.039-18.547-0.025-27.82-0.01
		c-1.964-0.01-4.126-0.262-5.641-1.643c-1.125-1.051-1.446-2.655-1.426-4.136C254.896,116.114,254.946,112.008,254.886,107.902
		L254.886,107.902z"/>
	<path fill="#6B6257" d="M394.763,106.283c-4.19-3.302-9.95-4.22-15.087-3.065c-4.412,1.046-8.8,3.845-10.315,8.306
		c-1.387,3.697-0.262,8.074,2.566,10.784c5.74,5.651,15.556,6.243,22.125,1.703c2.828-1.979,5.064-5.133,5.157-8.676
		C399.407,111.801,397.517,108.396,394.763,106.283z M383.906,121.139c-3.257,0.02-6.756-2.127-7.324-5.503
		c-0.424-2.946,1.836-5.646,4.536-6.529c4.017-1.564,9.698,0.568,10.295,5.202C391.851,118.385,387.627,121.272,383.906,121.139z"/>
	<path fill="#6B6257" d="M307.838,110.483c2.744-0.049,5.483-0.039,8.227-0.03c0.079,2.961-0.089,5.937,0.074,8.898
		c0.286,0.948,1.337,0.671,2.097,0.745c8.864-0.03,17.733,0.015,26.601-0.03c0,1.979,0,3.958-0.039,5.942
		c-10.004-0.049-20.008-0.015-30.012-0.02c-1.629-0.03-3.326-0.178-4.772-0.982c-1.411-0.898-2.186-2.606-2.162-4.259
		C307.828,117.329,307.842,113.908,307.838,110.483L307.838,110.483z"/>
</g>
</svg>
