<?xml version="1.0" encoding="utf-8"?>
<!-- Generator: Adobe Illustrator 17.0.0, SVG Export Plug-In . SVG Version: 6.00 Build 0)  -->
<!DOCTYPE svg PUBLIC "-//W3C//DTD SVG 1.1//EN" "http://www.w3.org/Graphics/SVG/1.1/DTD/svg11.dtd">
<svg version="1.1" id="레이어_1" xmlns="http://www.w3.org/2000/svg" xmlns:xlink="http://www.w3.org/1999/xlink" x="0px"
	 y="0px" width="400px" height="200px" viewBox="0 0 400 200" enable-background="new 0 0 400 200" xml:space="preserve">
<g>
	<path fill="#194783" d="M9.06,103.376c6.273-5.778,10.946-11.787,13.971-18.976c0.675-1.605,1.302-2.326,3.039-1.452
		c0.911,0.458,1.957,0.645,2.936,0.972c4.241,1.419,4.264,1.433,2.169,5.545c-2.553,5.011-5.976,9.378-10.44,12.776
		c-1.846,1.405-1.632,2.269-0.457,3.929c4.342,6.134,8.529,12.378,12.752,18.596c0.452,0.665,1.203,1.205,1.12,2.376
		c-3.279,0-6.543-0.045-9.804,0.021c-1.361,0.028-1.691-0.994-2.223-1.833c-4.167-6.579-8.321-13.166-12.533-19.837
		c-0.839,0.6-0.501,1.401-0.505,2.049c-0.032,5.829-0.06,11.66,0.004,17.489c0.016,1.493-0.281,2.115-1.985,2.159
		c-7.066,0.182-7.062,0.249-7.061-6.912C0.045,108.902,0.089,97.524,0,86.148c-0.015-1.944,0.479-2.545,2.482-2.529
		c6.578,0.053,6.579-0.031,6.577,6.578C9.059,94.329,9.06,98.46,9.06,103.376z"/>
	<path fill="#194783" d="M38.23,105.485c0.001-6.484,0.05-12.97-0.032-19.453c-0.022-1.755,0.348-2.446,2.315-2.41
		c7.14,0.131,14.285,0.135,21.425-0.001c2.077-0.039,2.267,0.711,2.007,2.438c-0.745,4.965-0.695,4.973-5.649,4.976
		c-3.101,0.002-6.204,0.063-9.303-0.022c-1.414-0.039-1.919,0.322-1.981,1.857c-0.312,7.838-0.363,7.836,7.53,7.836
		c0.282,0,0.564,0,0.846,0c5.556,0,5.497-0.002,5.326,5.563c-0.045,1.475-0.472,1.951-1.935,1.91
		c-3.193-0.089-6.392,0.044-9.584-0.054c-1.627-0.05-2.124,0.553-2.048,2.127c0.113,2.344,0.15,4.705-0.006,7.044
		c-0.123,1.849,0.662,2.202,2.296,2.17c4.415-0.088,8.835,0.029,13.25-0.07c1.623-0.036,2.034,0.513,2.059,2.093
		c0.088,5.65,0.152,5.65-5.475,5.652c-6.203,0.002-12.407-0.086-18.607,0.05c-2.028,0.044-2.51-0.611-2.477-2.535
		C38.298,118.268,38.229,111.876,38.23,105.485z"/>
	<path fill="#0D438B" d="M363.877,89.949c-0.884,4.109-0.863,8.22-0.02,12.331c0.976,0.514,2.028,0.255,3.042,0.258
		c9.666,0.022,19.332,0.006,28.998,0.025c0.92,0.002,1.879-0.239,2.759,0.257c-0.031,1.68,0.669,3.423-0.427,5.012
		c-2.875-0.471-5.772-0.209-8.655-0.197c-9.339,0.038-18.681-0.208-28.018,0.125c-3.164-0.433-4.174-2.81-4.277-5.425
		c-0.217-5.529-0.075-11.07-0.131-16.606c-0.019-1.899,1.326-1.448,2.354-1.452c6.851-0.024,13.702-0.013,20.553-0.013
		c5.256,0,10.52,0.176,15.763-0.073c2.641-0.125,3.374,0.797,2.946,3.146c-0.155,0.851,0.527,1.875-0.512,2.546
		c-0.461-0.451-1.048-0.332-1.597-0.332c-10.408-0.006-20.816-0.006-31.224,0.001C364.89,89.554,364.29,89.407,363.877,89.949z"/>
	<path fill="#0D438A" d="M324.222,84.756c0.392,6.797,0.065,13.516-2.224,20.012c-3.248,9.222-11.327,15.145-21.114,15.621
		c-1.395,0.068-1.697-0.327-1.803-1.661c-0.217-2.744,0.21-4.244,3.571-4.724c5.558-0.794,10.31-3.426,13.063-8.737
		c1.372-2.648,1.342-2.74-1.524-2.75c-4.322-0.015-8.649-0.135-12.962,0.05c-2.373,0.102-2.205-1.183-2.256-2.795
		c-0.056-1.762,0.14-2.723,2.356-2.635c4.784,0.189,9.584-0.051,14.37,0.112c1.979,0.068,2.488-0.694,2.715-2.465
		c0.722-5.629,0.785-5.619-4.683-5.616c-3.852,0.002-7.704-0.001-11.555-0.005c-4.21-0.004-4.546-0.503-3.294-4.877
		c6.217,0.458,12.443,0.037,18.662,0.213C319.77,84.562,322.017,84.154,324.222,84.756z"/>
	<path fill="#0D438A" d="M340.093,126.451c-5.639,0.337-5.64,0.337-5.64-5.332c0-10.997-0.006-21.993,0.002-32.99
		c0.003-4.167,0.414-4.577,4.452-4.583c1.41-0.002,2.837,0.143,4.226-0.028c2.382-0.294,3.255,0.38,3.194,2.996
		c-0.056,2.392-0.745,3.192-3.031,2.855c-0.827-0.122-1.688-0.004-2.534,0.005c-0.766,0.91-0.37,1.99-0.373,2.98
		c-0.034,10.35-0.012,20.7-0.035,31.049C340.351,124.419,340.618,125.475,340.093,126.451z"/>
	<path fill="#0E448B" d="M355.98,125.412c-0.298-4.995-0.298-4.995,4.592-4.995c11.95,0,23.9-0.017,35.849,0.01
		c4.066,0.009,3.535-0.642,3.574,3.566c0.004,0.467-0.067,0.935-0.103,1.402c-0.588,0.427-1.268,0.28-1.914,0.281
		c-13.36,0.008-26.719,0.008-40.079,0C357.253,125.677,356.576,125.816,355.98,125.412z"/>
	<path fill="#9D1F46" d="M116.479,102.334c-0.159-0.469-0.576-1.062-0.422-1.382c0.277-0.578,0.622,0.278,1.01,0.202
		c0.596,0.293,1.268,0.41,1.83,0.785c0.584,0.322,1.166,0.649,1.701,1.051c0.373,0.256,0.665,0.59,0.905,0.971
		c0.375,0.202,0.749,0.404,1.124,0.607c0.773,0.393,1.864,0.138,2.333,1.147c0.682,0.514,1.308,1.148,2.273,1.047
		c0.313,0.348,0.89,0.119,1.172,0.535c5.373,2.711,11.07,4.633,16.644,6.853c0.772,0.307,1.512,0.693,2.267,1.043
		c-1.789,1.726,0.625,2.59,0.795,3.914c0.007,0.057-0.096,0.139-0.162,0.192c-0.139,0.111-0.3,0.087-0.47-0.054
		c-6.407-2.354-12.371-5.676-18.556-8.513C124.025,109.044,119.638,106.599,116.479,102.334z"/>
	<path fill="#C01647" d="M147.479,119.245c0.633-0.95-0.433-0.78-0.731-0.994c-1.845-1.325-1.754-1.896,0.567-3.058
		c5.625,1.909,11.25,3.815,16.873,5.728c0.614,0.209,1.213,0.461,2.003,0.763c-3.652,2.224-7.068,3.577-11.089,1.109
		C152.73,121.337,150.031,120.41,147.479,119.245z"/>
	<path fill="#962046" d="M128.356,115.804c5.934,4.514,12.498,8.055,18.893,12.024c-3.263,1.909-6.012,0.624-8.583-1.018
		c-1.986-1.268-3.764-2.864-5.634-4.314c-2.955-0.984-4.891-3.384-7.249-5.2c-2.344-2.205-4.843-4.275-6.369-7.203
		c0.022-0.393-1.165-0.673-0.108-1.163C122.917,110.438,125.665,113.083,128.356,115.804z"/>
	<path fill="#942046" d="M141.901,122.603c-4.507-2.086-8.532-5.005-12.837-7.44c-2.234-0.728-4.137-1.909-5.419-3.948
		c0.053-0.825,0.544-1.262,1.297-1.469c1.306-0.123,2.141,0.596,2.825,1.584c4.886,3.301,10.419,5.4,15.498,8.343
		C142.154,120.344,143.37,122.099,141.901,122.603z"/>
	<path fill="#A91D47" d="M141.901,122.603c0.687-0.868-1.68-3.16,1.365-2.93c4.28,1.867,8.559,3.735,12.973,5.661
		c-3.892,2.317-5.34,2.401-8.763,0.507C145.596,124.801,143.758,123.685,141.901,122.603z"/>
	<path fill="#2E9ED0" d="M147.021,78.161c-4.889,2.587-9.777,5.175-14.666,7.762c-1.669-0.903-0.393-1.805,0-2.708
		c3.623-2.549,7.4-4.823,11.552-6.418C145.102,76.896,147.15,75.043,147.021,78.161z"/>
	<path fill="#309ACB" d="M145.917,83.677c-4.327,2.258-8.653,4.516-12.98,6.775c-1.582-0.385-1.076-1.326-0.602-2.259
		c3.922-2.657,8.016-4.998,12.419-6.775C146.241,81.605,146.338,82.508,145.917,83.677z"/>
	<path fill="#9C2348" d="M132.26,123.253c1.991,1.746,3.982,3.492,6.147,5.392c-2.762,0.428-4.912-0.283-6.68-2.284
		c-0.671-0.759-1.476-1.399-2.219-2.094c-2.325-1.08-3.698-3.225-5.494-4.902c-0.616-0.903-0.757-1.764,0.228-2.522
		c0.58-0.224,1.057-0.005,1.5,0.352C128.02,119.101,130.497,120.794,132.26,123.253z"/>
	<path fill="#32A2D3" d="M130.497,94.26c2.855-1.907,5.689-3.848,8.945-5.045c1.376-0.262,2.861-1.102,3.842,0.725
		c-3.844,2.036-7.689,4.072-11.533,6.108C130.381,96.12,130.445,95.186,130.497,94.26z"/>
	<path fill="#2E83B3" d="M147.021,78.161c-0.325-2.08-2.03-1.009-3.112-1.364c3.723-2.284,7.754-3.894,11.889-5.578
		c-0.999,3.491-1.452,3.999-4.887,5.431C149.628,77.186,148.319,77.659,147.021,78.161z"/>
	<path fill="#163C6C" d="M355.98,125.412c14.638-0.005,29.275-0.01,43.913-0.016c-0.241,1.177-1.194,0.676-1.817,0.678
		c-13.421,0.03-26.842,0.029-40.263-0.006C357.192,126.067,356.245,126.571,355.98,125.412z"/>
	<path fill="#B12C54" d="M124.453,116.824c-0.325,0.695-0.843,1.386-0.052,2.109c1.077,2.305,3.556,3.551,4.496,5.959
		c0.312,0.453,0.624,0.907,0.969,1.408c-4.259-1.208-8.318-7.094-8.788-12.657C122.673,114.204,123.94,115.114,124.453,116.824z"/>
	<path fill="#24406A" d="M340.093,126.451c0-11.422-0.013-22.844,0.025-34.265c0.003-0.947-0.503-2.095,0.645-2.812
		c-0.023,11.451-0.024,22.901-0.106,34.351C340.65,124.612,341.345,125.775,340.093,126.451z"/>
	<path fill="#163862" d="M361.556,107.761c0.637-0.557,1.415-0.412,2.154-0.413c10.803-0.007,21.607-0.008,32.41,0
		c0.731,0.001,1.523-0.179,2.11,0.484C386.005,108.004,373.78,108.143,361.556,107.761z"/>
	<path fill="#22436E" d="M398.657,102.821c-10.626,0.001-21.251,0.014-31.877-0.016c-0.981-0.003-2.089,0.41-2.923-0.525
		c11.162-0.028,22.324-0.06,33.486-0.074C397.84,102.205,398.516,101.987,398.657,102.821z"/>
	<path fill="#0B3069" d="M363.877,89.949c0.437-0.876,1.261-0.665,1.977-0.666c10.12-0.011,20.241-0.01,30.361-0.003
		c0.729,0.001,1.528-0.165,2.038,0.605C386.795,90.229,375.336,90.102,363.877,89.949z"/>
	<path fill="#378FBD" d="M136.307,95.694c2.437-1.282,4.874-2.564,7.715-4.059c-1.06,4.253-4.296,4.985-7.119,6.222
		C136.373,97.228,136.273,96.479,136.307,95.694z"/>
	<path fill="#3081AD" d="M145.917,83.677c-0.421-0.736-0.21-1.797-1.163-2.259c2.208-1.351,4.59-2.306,7.312-3.385
		c-0.947,2.821-2.301,4.7-5.061,5.212C146.643,83.389,146.28,83.533,145.917,83.677z"/>
	<path fill="#8BC4E3" d="M121.062,91.573c1.898-1.464,3.313-3.544,5.658-4.439c0.735,0.38,1.712,0.235,2.253,1.037
		c-2.279,1.677-4.557,3.354-6.836,5.031C120.904,93.236,120.442,92.761,121.062,91.573z"/>
	<path fill="#F7D9E6" d="M127.768,111.331c-0.889-0.406-1.778-0.813-2.666-1.219c-2.812-0.538-4.689-2.527-6.675-4.332
		c-0.47-0.427-0.709-1.113-1.435-1.246c-0.771-0.593-0.439-1.444-0.512-2.2c3.641,3.551,8.245,5.674,12.444,8.398
		C128.464,110.789,128.009,110.853,127.768,111.331z"/>
	<path fill="#3584B1" d="M143.283,89.941c-1.187-0.736-2.527-0.66-3.841-0.725c2.746-1.459,5.492-2.918,8.239-4.377
		C147.691,87.811,145.789,89.136,143.283,89.941z"/>
	<path fill="#BEDDEE" d="M121.062,91.573c-0.023,0.795,0.345,1.331,1.075,1.629c-1.743,1.659-3.482,3.323-5.234,4.973
		c-0.352,0.332-0.77,0.609-1.171,0.066c-0.334-0.452-0.18-0.885,0.182-1.243C117.688,95.245,118.723,92.79,121.062,91.573z"/>
	<path fill="#143462" d="M324.222,84.756c-7.322,0-14.644-0.009-21.966,0.01c-0.823,0.002-1.734-0.283-2.457,0.282
		c-1.609,1.257-0.595-0.536-0.917-0.763c8.202-0.053,16.404-0.106,24.606-0.156C323.898,84.127,324.186,84.303,324.222,84.756z"/>
	<path fill="#5AB2DB" d="M128.972,88.172c-0.816-0.205-2.026,0.447-2.253-1.037c1.759-1.478,3.488-3,5.636-3.919
		c0.231,0.903-0.592,1.805,0,2.708C131.463,87.027,130.065,87.37,128.972,88.172z"/>
	<path fill="#7ABCE0" d="M130.497,94.26c0.418,0.596,0.836,1.192,1.254,1.788c-1.694,1.13-3.387,2.261-5.081,3.391
		c-1.827,0.402-1.601-0.538-1.087-1.665C127.221,96.603,128.859,95.432,130.497,94.26z"/>
	<path fill="#B22851" d="M116.991,104.533c2.99,1.443,5.309,3.86,8.11,5.578c-0.418,0.36-0.837,0.719-1.256,1.079
		c-2.046-0.037-3.005-1.801-4.447-2.798C118.596,107.106,117.794,105.82,116.991,104.533z"/>
	<path fill="#30A6D6" d="M136.307,95.694c1.046,0.488,0.977,1.283,0.595,2.163c-0.958,0.531-1.917,1.063-2.876,1.594
		c-1.129,0.435-2.241,0.792-2.977-0.631C132.5,97.27,134.446,96.553,136.307,95.694z"/>
	<path fill="#BDD8EA" d="M125.583,97.774c-0.078,0.842-0.032,1.604,1.087,1.665c-1.458,1.809-3.823,2.582-5.167,4.522
		c-0.455,0.016-0.817-0.137-1.03-0.562C121.475,100.887,123.535,99.336,125.583,97.774z"/>
	<path fill="#32A0CF" d="M137.627,102.342c-1.419,0.711-2.839,1.423-4.258,2.134c-1.94,0.437-1.428-0.7-1.103-1.718
		c1.297-1.009,2.715-1.787,4.303-2.237c0.519-0.141,1.056-0.42,1.493,0.159C138.616,101.412,137.548,101.728,137.627,102.342z"/>
	<path fill="#F5CFDE" d="M119.399,108.392c1.994,0.119,2.736,2.229,4.447,2.798c1.739,1.324,3.479,2.648,5.218,3.973
		c-0.236,0.214-0.472,0.427-0.708,0.64c-3.397-1.791-6.03-4.588-9.051-6.873C119.311,108.747,119.342,108.567,119.399,108.392z"/>
	<path fill="#7BBCE1" d="M129.474,92.644c-0.92,1.049-2.16,1.633-3.345,2.295c-1.054,0.36-2.132,0.756-1.701-1.126
		c1.397-1.27,2.802-2.528,4.509-3.385C129.635,91.041,129.579,91.836,129.474,92.644z"/>
	<path fill="#F0AEC6" d="M124.453,116.824c-1.125-1.06-2.25-2.121-3.375-3.181c-0.475-1.221-2.306-1.806-1.664-3.55
		c2.244,2.269,4.487,4.537,6.731,6.806c-0.054,0.325-0.254,0.504-0.569,0.565C125.201,117.251,124.827,117.037,124.453,116.824z"/>
	<path fill="#A5D0E7" d="M124.428,93.813c0.041,1.169,0.906,1.094,1.701,1.126c-1.335,1.113-2.671,2.226-4.006,3.339
		c-1.205,0.616-1.685,0.135-1.666-1.101C121.78,96.056,123.104,94.934,124.428,93.813z"/>
	<path fill="#F9E8EF" d="M125.575,117.464c0.19-0.188,0.38-0.377,0.569-0.565c2.296,1.866,4.591,3.732,6.887,5.598
		c-0.257,0.252-0.514,0.505-0.771,0.757C129.802,121.59,127.674,119.543,125.575,117.464z"/>
	<path fill="#CCE2ED" d="M120.456,97.177c0.321,0.723,0.846,1.136,1.667,1.101c-0.848,1.593-3.228,1.882-3.428,4.027
		c-0.692-0.173-1.25-0.535-1.628-1.152C118.379,99.984,118.774,98.032,120.456,97.177z"/>
	<path fill="#53B0DB" d="M129.474,92.644c-0.798-0.588-0.477-1.448-0.537-2.216c1.133-0.745,2.266-1.49,3.399-2.235
		c0.043,0.795-0.271,1.685,0.602,2.259C132.061,91.622,130.521,91.743,129.474,92.644z"/>
	<path fill="#C4D8EA" d="M124.96,105.715c-0.871-0.192-1.678-0.515-2.333-1.147c1.917-0.155,2.465-2.236,4.04-2.873
		c0.682,0.334,0.861,1,1.081,1.638C126.818,104.127,125.889,104.921,124.96,105.715z"/>
	<path fill="#8EC4E2" d="M127.747,103.334c-0.75-0.289-1.072-0.86-1.081-1.638c0.757-0.563,1.514-1.125,2.272-1.688
		c0.873,0.029,1.61,0.322,2.111,1.079C130.253,102.283,128.716,102.391,127.747,103.334z"/>
	<path fill="#62B6DB" d="M131.049,101.086c-0.853-0.067-1.573-0.394-2.111-1.079c0.512-0.738,1.328-0.934,2.113-1.186
		c0.921,0.546,1.927,0.69,2.977,0.63C133.321,100.519,131.929,100.335,131.049,101.086z"/>
	<path fill="#B3CFE2" d="M128.405,107.298c-0.492,0.043-0.904-0.088-1.172-0.535c0.39-1.489,1.43-2.325,2.822-2.805
		c0.561,0.398,0.766,1.018,1.005,1.617C130.587,106.783,129.105,106.437,128.405,107.298z"/>
	<path fill="#F7C4D7" d="M128.896,124.892c-1.734-1.808-3.802-3.365-4.496-5.959c1.909,1.58,3.522,3.445,5.108,5.335
		C129.304,124.476,129.1,124.684,128.896,124.892z"/>
	<path fill="#6EBCE2" d="M131.06,105.574c-1.126-0.047-1.008-0.867-1.005-1.617c0.753-0.37,1.269-1.178,2.211-1.199
		c0.059,0.771-0.044,1.646,1.103,1.718C132.891,105.454,131.64,104.808,131.06,105.574z"/>
	<path fill="#4E8BAD" d="M137.627,102.342c-0.561-0.486,0.84-2.109-1.057-1.821c0.906-0.808,1.994-1.258,3.574-1.818
		C139.41,100.304,138.962,101.593,137.627,102.342z"/>
	<path fill="#0D438A" d="M282.793,84.271c-1.035,0.001-2.07-0.002-3.105,0.002c-3.773,0.011-4.366,0.606-4.368,4.438
		c-0.006,9.974-0.033,19.949,0.021,29.923c0.008,1.579-0.207,2.332-2.101,2.309c-8.656-0.106-17.314-0.069-25.97-0.019
		c-1.411,0.008-2.137-0.334-1.949-1.879c0.09-0.742,0.119-1.521-0.003-2.253c-0.384-2.305,0.649-2.788,2.792-2.75
		c7.149,0.126,14.303-0.018,21.453,0.083c2.577,0.036,1.678-1.737,1.684-2.9c0.006-1.164,0.885-2.989-1.688-2.879
		c-3.1,0.132-6.211,0.08-9.313-0.005c-0.867-0.024-2.239,0.682-2.427-1.028c-0.139-1.259-0.061-2.279,1.489-2.874
		c2.559-0.983,4.292-2.967,5.426-5.467c1.352-2.982,0.944-5.995-0.029-9.218c1.72,0,3.223-0.095,4.71,0.021
		c2.726,0.212,1.781-1.784,1.851-3.06c0.07-1.28,0.602-2.896-1.851-2.757c-3.095,0.176-6.21-0.021-9.313,0.069
		c-1.582,0.046-2.578-0.21-2.313-2.115c0.293-2.103-1.351-1.782-2.4-1.553c-1.251,0.273-3.619-1.424-3.552,1.543
		c0.043,1.874-0.773,2.179-2.364,2.125c-2.82-0.095-5.658,0.139-8.464-0.084c-2.293-0.182-2.684,0.778-2.536,2.743
		c0.127,1.683-0.38,3.521,2.453,3.116c1.254-0.179,2.61-0.284,3.88,0.197c-1.679,7.717-0.543,10.605,5.969,14.604
		c1.202,0.738,1.023,1.66,0.98,2.653c-0.065,1.51-1.255,1.094-2.11,1.104c-2.823,0.035-5.649,0.101-8.467-0.019
		c-1.635-0.069-2.108,0.495-2.054,2.089c0.112,3.29-0.08,6.591,0.07,9.878c0.203,4.456,2.148,6.232,6.589,6.24
		c9.41,0.019,18.82,0.009,28.229,0.006c5.846-0.002,7.465-1.626,7.479-7.585c0.021-8.751,0.085-17.503-0.047-26.253
		c-0.032-2.15,0.576-2.843,2.673-2.664c0.815,0.07,2.091,0.715,2.456-0.968C287.383,85.341,286.584,84.268,282.793,84.271z
		 M249.127,94.748c-0.051-3.149,2.453-5.755,5.59-5.818c3.138-0.063,5.717,2.436,5.784,5.605c0.065,3.117-2.472,5.786-5.573,5.86
		C251.866,100.469,249.177,97.852,249.127,94.748z"/>
	<path fill="#0D438A" d="M220.754,83.499c-1.899,0.063-3.271-0.161-3.223,2.649c0.183,10.81,0.029,21.625,0.11,32.438
		c0.014,1.829-0.462,2.442-2.333,2.349c-3.095-0.152-6.204-0.037-9.307-0.037c-6.032,0-5.935-0.003-6.076-5.914
		c-0.057-2.395,0.407-3.689,2.963-4.708c6.117-2.437,9.339-9.07,8.1-15.439c-1.278-6.57-6.625-11.441-12.955-11.802
		c-6.839-0.39-12.786,3.557-14.812,9.83c-2.052,6.354,0.171,13.85,6.172,16.506c4.391,1.943,4.796,4.62,4.405,8.391
		c-0.048,0.465-0.053,0.945,0.003,1.409c0.17,1.392-0.482,1.777-1.789,1.743c-2.725-0.071-5.47,0.172-8.175-0.07
		c-2.57-0.23-2.321,1.258-2.36,2.918c-0.041,1.759-0.049,2.89,2.417,2.855c10.999-0.155,22.001-0.059,33.003-0.068
		c5.058-0.004,6.861-1.835,6.885-7.017c0.025-5.453,0.006-10.907,0.006-16.361c0.001-5.642-0.165-11.29,0.074-16.922
		C223.975,83.59,222.828,83.431,220.754,83.499z M188.111,97.308c0.028-4.826,3.963-8.715,8.819-8.716
		c4.786-0.001,8.779,4.026,8.74,8.813c-0.04,4.806-4.025,8.748-8.834,8.739C192.066,106.135,188.083,102.101,188.111,97.308z"/>
	<path fill="#184683" d="M102.892,112.754c-0.312-4.128-2.375-7.24-5.873-9.728c2.062-1.951,3.388-3.937,3.782-6.472
		c1.1-7.076-3.767-12.481-11.858-12.809c-5.349-0.216-10.713-0.03-16.069-0.093c-1.266-0.015-1.87,0.265-1.866,1.687
		c0.037,13.346,0.035,26.692,0.004,40.037c-0.003,1.315,0.4,1.815,1.775,1.793c5.825-0.094,11.665,0.142,17.475-0.185
		C98.435,126.524,103.487,120.631,102.892,112.754z M79.751,98.166c0.112-0.731,0.017-1.494,0.017-2.242
		c0-5.391,0-5.391,6.462-5.158c4.989,0.18,7.278,4.373,4.695,8.607c-0.72,1.18-1.614,1.964-3.168,1.852
		c-1.675-0.121-3.392-0.214-5.043,0.022C80.117,101.617,79.39,100.53,79.751,98.166z M87.8,119.738
		c-1.867,0.139-3.759-0.055-5.625,0.085c-1.766,0.133-2.622-0.337-2.378-2.281c0.151-1.201,0.028-2.436,0.028-3.656
		c0-5.949,0-5.949,6.305-5.912c4.607,0.026,6.989,1.779,7.229,5.319C93.6,116.861,91.41,119.468,87.8,119.738z"/>
</g>
</svg>
