<?xml version="1.0" encoding="utf-8"?>
<!-- Generator: Adobe Illustrator 17.0.0, SVG Export Plug-In . SVG Version: 6.00 Build 0)  -->
<!DOCTYPE svg PUBLIC "-//W3C//DTD SVG 1.1//EN" "http://www.w3.org/Graphics/SVG/1.1/DTD/svg11.dtd">
<svg version="1.1" id="레이어_1" xmlns="http://www.w3.org/2000/svg" xmlns:xlink="http://www.w3.org/1999/xlink" x="0px"
	 y="0px" width="400px" height="200px" viewBox="0 0 400 200" enable-background="new 0 0 400 200" xml:space="preserve">
<path fill="#595B61" d="M15.085,111.226c0.002-2.733,0.003-5.465,0.005-8.198c3.297-10.812,7.454-21.048,16.07-29.027
	c5.941-5.502,12.863-8.229,20.65-8.926c4.908-0.44,9.88-0.109,14.823-0.082c2.23,0.012,4.535,0.036,5.001,2.954
	c0.43,2.696-0.886,4.596-3.155,5.829c-2.742,1.49-5.794,0.881-8.726,1.125c-6.211,0.518-12.718-0.596-18.363,3.173
	c-2.173,2.454-4.99,4.466-5.573,8.029c1.974,2.568,4.758,1.271,7.158,1.374c4.924,0.211,9.868-0.067,14.794,0.119
	c2.484,0.094,6.077-1.164,6.293,3.236c0.258,5.255-2.204,8.406-6.673,8.521c-6.705,0.172-13.42-0.08-20.124,0.114
	c-2.556,0.074-5.917-1.398-7.397,1.962c-1.515,3.438-0.468,6.56,2.497,8.955c5.44,2.443,11.236,1.302,16.879,1.718
	c2.094,0.154,5.244-0.024,5.094,2.69c-0.16,2.899-1.203,6.763-5.017,6.967c-7.063,0.377-14.17,0.64-21.243-0.208
	C21.622,120.774,17.099,117.582,15.085,111.226z"/>
<path fill="#F9FAFA" d="M96.828,91.096c-7.302,0.002-14.604-0.042-21.905,0.024c-3.827,0.035-4.416-1.125-3.47-5.048
	c1.79-7.426,6.481-8.283,12.958-8.187c7.098,0.105,14.132,0.623,21.156,1.38c6.358,0.686,7.09,6.175,8.458,10.944
	c2.339-0.485,1.312-4.073,4.028-3.882c0.505,0.443,0.798,0.998,0.886,1.662c0.003,2.023-0.784,3.837-1.453,5.701
	c-2.153,6.003-0.705,8.65,5.522,10.514c3.688,1.104,7.47,0.425,11.192,0.792c2.192,0.216,4.515,0.368,5.063,3.137
	c0.558,2.82-1.237,4.406-3.351,5.697c-2.491,1.521-5.3,1.399-8.069,1.42c-4.746,0.035-9.492,0.015-14.238,0.031
	c-2.797,0.01-4.803,1.105-4.833,3.989c-0.035,3.283,2.862,2.129,4.483,2.142c6.311,0.049,12.663,0.7,18.932-0.453
	c12.176-2.24,17.25-8.989,16.03-21.139c0.057-0.626,0.271-1.2,0.628-1.716c3.507-1.085,4.014,1.434,4.266,3.813
	c0.187,1.771,0.629,3.741-0.446,4.888c0.812-8.33,4.842-16.074,8.292-24.025c1.194-1.182,2.389-2.365,3.583-3.547
	c0.418,0.512,0.74,1.079,0.971,1.697c0.552,3.781-1.601,6.835-2.858,10.089c-2.342,6.066-4.737,12.112-6.327,18.424
	c-1.866,7.408,0.382,10.728,7.936,11.915c2.144,0.337,4.342,0.093,6.495,0.376c2.058,0.27,4.044,0.886,4.031,3.44
	c-0.011,2.329-1.676,3.429-3.737,3.97c-1.345,0.353-2.736,0.34-4.118,0.352c-3.551,0.03-7.109,0.151-10.651-0.02
	c-4.833-0.233-9.169,0.063-10.273,6.084c-0.133,0.725-1.001,1.187-1.517,1.782c-1.002-0.068-2.172-0.146-2.261-1.385
	c-0.349-4.843,3.885-9.232,8.808-9.241c4.939-0.009,9.88,0.053,14.818-0.034c1.639-0.029,3.608,0.664,4.921-1.725
	c-4.396-1.562-9.129,0.643-13.151-1.335c-4.082-2.006-6.515-5.462-6.424-10.957c-2.325,2.616-4.163,4.58-5.883,6.641
	c-2.795,3.349-6.253,5.105-10.681,5.07c-8.495-0.068-16.992,0.029-25.487-0.056c-1.815-0.018-4.08,0.875-5.152-1.691
	c-0.204-0.489-0.554-1.227-1.274-0.76c-8.343,5.407-17.586,1.156-26.31,2.457c-1.546,0.231-3.179-0.142-4.733,0.062
	c-7.036,0.923-11.211-2.167-12.884-8.927c-0.387-1.566-1.379-0.871-2.256-0.599c-1.56-1.249-2.067-2.805-1.375-4.711
	c3.068,0.887,4.733-0.017,6.232-3.154c1.896-3.967,3.474-9.02,9.563-8.654c0.284,2.109-1.23,3.329-2.329,4.758
	c-0.482,0.626,0.138-0.149-0.369,0.459c-3.226,3.879-6.472,8.114-4.038,13.291c2.262,4.811,7.533,4.421,11.977,4.658
	c5.498,0.293,11.025-0.06,16.531,0.12c3.93,0.128,6.32-1.55,7.634-5.133c2.033-5.543,4.127-11.064,6.402-16.518
	c1.328-1.797,1.736-3.954,2.209-6.042c1.901-8.397-0.796-11.833-9.318-11.9c-6.285-0.05-12.571-0.037-18.857,0.007
	c-2.503,0.018-4.954,0.227-4.919,3.574c0.037,3.526,2.893,2.526,4.811,2.625c3.724,0.193,7.472-0.123,11.19,0.153
	C93.808,88.537,96.459,87.891,96.828,91.096z"/>
<path fill="#585A60" d="M168.082,137.224c-7.118-0.001-14.236-0.002-21.353-0.002c-0.925-5.896,0.423-7.849,5.844-8.072
	c4.147-0.17,8.306-0.097,12.457-0.024c2.398,0.042,4.765-0.269,7.045-0.811c2.056-0.488,3.512-2.094,3.129-4.374
	c-0.338-2.011-2.224-2.014-3.807-1.94c-3.599,0.168-7.053-0.753-10.575-1.177c-4.569-0.55-5.789-3.273-5.83-7.373
	c-0.039-3.915,1.706-7.273,2.907-10.786c1.962-5.739,3.54-11.647,6.69-16.923c3.086-2.469,6.09-3.83,8.64,0.671
	c-0.005,5.317-3.033,9.704-4.549,14.559c-0.465,1.489-1.296,2.857-1.516,4.457c-0.409,2.962-2.491,6.372,2.061,7.981
	c5.083,1.797,10.015-0.102,11.865-4.318c3.487-7.944,5.756-16.348,9.258-24.291c1.151-2.61,2.616-4.214,5.627-4.386
	c5.018-0.287,5.717,0.652,4.084,5.399c-4.03,11.712-8.737,23.176-12.702,34.91C184.2,130.064,177.296,134.983,168.082,137.224z"/>
<path fill="#12BFCE" d="M329.597,63.993c3.901-0.028,7.802-0.057,11.703-0.085c4.352,5.376,7.191,11.704,10.972,17.438
	c1.087,1.649,1.61,4.432,4.674,2.653c3.015-4.555,6.519-8.87,8.914-13.731c2.606-5.288,6.146-7.521,11.884-6.513
	c1.336,0.235,2.724,0.169,4.088,0.242c1.501,2.573-0.79,4.049-1.857,5.698c-4.923,7.602-10.529,14.73-15.629,22.217
	c-2.316,3.399-3.636,6.783-3.379,10.988c0.312,5.114-0.187,10.279,0.156,15.389c0.277,4.128-1.787,4.479-5.001,4.31
	c-3.15-0.166-6.563,0.654-6.37-4.439c0.186-4.927-0.168-9.88,0.097-14.801c0.223-4.159-0.903-7.603-3.288-11.01
	c-5.204-7.435-10.179-15.034-15.108-22.656C330.386,68.042,328.095,66.566,329.597,63.993z"/>
<path fill="#12BECD" d="M296.364,64.033c3.127-0.085,6.288,0.091,9.374-0.311c5.481-0.715,7.896,1.962,8.569,6.968
	c0.367,0.497,0.372,0.999,0.018,1.504c-3.234,0.121-2.763-3.188-4.198-4.553c-0.802,4.428-3.27,8.275-4.875,12.438
	c-3.691,1.61-3.857,5.636-5.747,8.485c-0.515,0.933-1.299,1.614-2.126,2.248c-1.457,0.885-1.607,2.317-1.575,3.828
	c-1.174,6.296-4.466,11.664-7.458,17.166c-1.379,0.934-2.147,2.218-2.208,3.912c-0.354,1.146-1.038,2.059-1.931,2.836
	c-3.415,2.978-7.227,3.255-11.314,1.676c-2.345-4.094,0.948-6.506,2.783-9.354c1.591-0.948,1.582-2.431,1.308-4.006
	c2.524-5.907,4.835-11.912,8.23-17.399c0.833-0.786,1.772-1.53,1.222-2.919c-0.114-0.491-0.112-0.973-0.016-1.466
	c0.182-0.49,0.422-0.941,0.706-1.374C290.452,77.264,292.552,70.246,296.364,64.033z"/>
<path fill="#6A6C71" d="M168.082,137.224c0.868-0.77,1.647-2.066,2.616-2.228c12.124-2.028,14.794-12.348,18.435-21.42
	c4.108-10.235,7.38-20.807,11.146-31.605c-3.989-0.452-7.324-1.542-8.958,4.592c-2.176,8.169-5.979,15.9-8.998,23.852
	c-1.583,4.17-7.639,6.244-14.263,4.329c-4.546-1.314-3.404-4.704-2.647-8.173c1.549-7.1,4.957-13.474,7.328-20.244
	c-3.225-4.723-3.703-4.722-7.044,0.017c-4.143,4.888-4.724,11.283-6.944,16.962c-1.364,3.487-3.247,6.981-2.677,11.211
	c0.443,3.284,1.255,5.202,4.876,5.099c4.122-0.117,8.062,1.764,12.254,1.176c1.776-0.249,2.948,0.653,3.704,2.274
	c0.894,1.918-0.424,2.935-1.515,4.03c-2.72,2.732-6.382,2.845-9.829,3.123c-3.91,0.315-7.871,0.21-11.8,0.042
	c-4.971-0.212-7.447,1.853-7.036,6.96c-0.745,0.04-1.491,0.08-2.236,0.119c1.88-9.31,1.88-9.293,10.82-9.315
	c4.925-0.012,9.851-0.042,14.774-0.165c1.89-0.047,3.819-0.786,3.821-2.907c0.003-2.773-2.481-1.89-4.045-1.97
	c-16.933-0.868-19.043-4.088-13.153-20.074c2.714-7.367,5.336-14.768,8-22.154c3.835-1.564,7.678-1.433,11.528-0.06l-0.148-0.122
	c0.92,6.137-3.185,10.882-4.716,16.337c-0.767,2.732-2.024,5.504-3.087,8.235c-1.032,2.651-2.361,5.942,1.406,7.688
	c4.277,1.983,9.341-0.086,10.675-4.156c2.321-7.081,5.185-13.962,7.599-21.009c2.911-8.498,4.713-9.325,14.462-7.014
	c-0.928,7.304-4.496,13.728-6.935,20.52c-2.987,8.318-5.793,16.77-9.669,24.678C182.408,132.826,176.674,137.621,168.082,137.224z"
	/>
<path fill="#18C1CF" d="M329.597,63.993c4.449,8.81,10.386,16.678,16.023,24.703c3.902,5.554,6.264,11.171,5.418,18.073
	c-0.406,3.311,0.122,6.727-0.119,10.07c-0.271,3.762,0.945,5.287,4.961,5.24c3.771-0.044,4.969-1.526,4.589-4.973
	c-0.086-0.781,0.111-1.603-0.03-2.368c-2.878-15.646,4.258-27.598,13.896-38.834c3.022-3.523,5.853-7.403,7.498-11.907
	c2.163-0.07,4.236-0.592,1.72,2.776c-5.886,7.879-11.204,16.184-17.093,24.061c-3.589,4.8-5.533,9.766-4.828,15.811
	c0.34,2.918,0.059,5.909,0.059,8.866c-0.001,7.428-3.451,9.902-10.523,7.616c-1.242-0.402-2.112-1.056-2.384-2.314
	c-0.164-0.761-0.285-1.601-0.141-2.35c3.258-16.906-4.596-29.997-14.397-42.492c-2.42-3.085-4.388-6.525-6.571-9.798
	C325.57,63.019,328.355,64.189,329.597,63.993z"/>
<path fill="#FAFAFA" d="M160.956,82.779c0.423,6.556-3.476,11.845-5.665,17.529c-1.097,2.848-0.502,6.354-3.427,9.081
	c-0.13-4.162,2.557-8.843-2.754-11.174c-5.475-0.203-10.917-0.929-16.414-0.887c-2.241,0.017-4.572-0.647-4.455-3.59
	c0.105-2.629,2.129-3.733,4.423-3.993c5.514-0.625,11.064-0.217,16.597-0.281c2.951-0.034,5.521-0.521,6.878-3.54
	c1.335-2.971,1.148-5.019-2.831-5.041c-4.746-0.027-9.494,0.049-14.239-0.051c-2.319-0.049-4.82,0.398-6.632-1.707
	c8.521-2.39,17.196-0.745,25.795-0.863C160.681,78.227,161.004,80.676,160.956,82.779z"/>
<path fill="#28C3D1" d="M220.357,63.991c0.01,18.547,0.02,37.093,0.029,55.64c7.21,2.462,8.128,1.764,8.308-5.627
	c0.09-3.666-0.921-7.481,1.077-10.972c0.411-2.873,2.632-2.421,4.548-2.433c4.926-0.029,9.927-0.557,14.762,0.106
	c9.261,1.27,15.97-2.194,21.04-9.646c0.686,0.783,0.806,1.564-0.004,2.344l-0.002-0.01c-2.127,5.393-6.023,8.288-11.831,9.065
	c-6.878,0.92-13.759,0.504-20.626,0.421c-4.688-0.057-6.163,1.77-6.174,6.297c-0.011,4.611,1.158,9.342-0.717,13.87
	c-12.745,0.978-12.745,0.978-12.745-11.494c0-14.201-0.054-28.403,0.068-42.603C218.108,67.168,216.643,64.262,220.357,63.991z"/>
<path fill="#7D7F83" d="M39.866,78.109c4.132-5.975,10.866-3.193,16.317-4.666c3.137-0.848,6.693-0.013,10.035-0.272
	c2.675-0.208,4.457-1.945,4.317-4.703c-0.156-3.063-2.8-2.179-4.582-2.206c-7.293-0.108-14.601-0.282-21.821,1.085
	c-4.198,0.795-7.648,3.124-10.7,5.894c-7.566,6.867-13.733,14.62-15.358,25.202c-0.26,1.695-0.318,4.165-2.983,4.585
	c1.804-18.209,18.263-39.748,38.881-39.132c4.933,0.148,9.885,0.22,14.807-0.053c3.571-0.198,4.562,1.356,4.154,4.511
	c-1.559,6.579-3.064,7.835-9.46,7.878C55.558,76.286,47.586,75.62,39.866,78.109z"/>
<path fill="#CFEDF1" d="M305.918,87.491c-2.878-1.574-3.951-0.329-5.087,2.476c-3.764,9.287-7.902,18.424-11.919,27.608
	c-1.88,4.297-3.957,7.321-9.891,7.038c-12.761-0.61-12.642-0.093-7.315-11.661c6.827-14.827,13.389-29.776,20.095-44.66
	c0.787-1.748,1.184-3.885,3.558-4.371c1.524,2.95-1.253,4.68-2.065,6.931c-1.775,4.92-4.01,9.659-6.575,14.231l0.029-0.015
	c-3.487,9.95-8.68,19.166-12.45,28.988c-0.869,2.265-4.53,4.432-1.252,7.122c2.646,2.171,10.242,0.093,11.934-3.058
	c3.788-7.054,7.149-14.316,10.137-21.754c0.934-2.325,0.983-5.128,3.317-6.786c1.287-1.264,0.823-3.346,2.224-4.595
	c1.173-1.045,1.568-3.637,3.859-2.371C306.322,83.613,307.217,85.359,305.918,87.491z"/>
<path fill="#49C6D3" d="M305.918,87.491c-0.134-1.808-1.031-3.195-2.18-4.604c-2.988,1.745-3.084,5.064-4.944,7.172
	c-0.389-0.258-0.546-0.546-0.471-0.866c0.079-0.336,0.174-0.503,0.287-0.503c1.214-3.369,1.104-7.689,6.03-8.389
	c2.55,0.907,3.294,3.279,4.201,5.41c4.241,9.964,8.883,19.747,13.246,29.655c0.317,0.721,0.619,1.448,0.971,2.153
	c1.837,3.683,5.419,3.669,8.182,2.549c3.42-1.386,0.62-4.088-0.188-5.92c-5.32-12.067-10.925-24.009-16.197-36.099
	c-0.835-1.914-2.315-3.795-1.013-6.095c0.154-0.421,0.308-0.842,0.463-1.263c5.034,6.922,7.269,15.208,11.005,22.766
	c4.099,8.292,7.379,16.986,11.378,25.332c1.656,3.457,1.123,4.757-2.643,4.734c-0.396-0.002-0.801-0.049-1.186,0.016
	c-7.615,1.283-12.258-1.121-14.945-9.096C314.789,105.164,309.99,96.45,305.918,87.491z"/>
<path fill="#D5D5D7" d="M55.169,110.15c1.024,1.405,1.486,2.974,1.374,4.711c-0.193,0.95-0.334,1.938-1.545,2.159
	c-0.131-3.274-1.605-4.658-5.098-4.628c-6.116,0.051-12.327,0.799-18.308-1.29c-2.069-1.983-3.567-4.213-3.282-7.271
	c0.312-3.349,1.468-5.477,5.479-5.352c7.313,0.228,14.647-0.165,21.954,0.147c4.519,0.193,6.214-1.866,7.251-5.895
	c0.845-3.283-0.4-3.853-3.107-3.841c-7.32,0.03-14.64,0.028-21.959-0.004c-2.58-0.011-5.29-0.048-2.905-3.856
	c1.34,2.364,3.624,1.865,5.751,1.938c7.647,0.265,15.316-0.61,22.946,0.462c2.851,8.136-0.461,13.115-8.752,13.134
	c-6.33,0.015-12.661-0.038-18.991,0.023c-2.612,0.025-5.869-0.906-5.712,3.704c0.135,3.955,2.125,5.785,5.912,5.818
	C42.508,110.165,48.839,110.141,55.169,110.15z"/>
<path fill="#D6D6D8" d="M132.439,79.124c6.515,0.025,13.037-0.114,19.541,0.157c2.607,0.109,6.535-1.737,7.331,2.656
	c0.756,4.172-3.759,8.987-8.091,9.086c-5.131,0.117-10.266,0.025-15.4,0.033c-1.184,0.002-2.372-0.007-3.55,0.082
	c-1.792,0.135-3.134,1.028-3.021,2.924c0.113,1.898,1.815,1.711,3.171,1.792c5.628,0.335,11.517-1.19,16.691,2.36
	c-0.033,0.44-0.066,0.881-0.099,1.321c-6.426-0.029-12.778-1.135-19.202-1.319c-2.16-0.062-3.542-1.84-3.623-4.057
	c-0.088-2.393,1.215-4.178,3.37-5.135c3.296-1.463,6.795-1.95,10.403-1.935c3.95,0.016,7.909,0.215,11.849-0.185
	c1.752-0.178,3.067-1.18,3.044-3.029c-0.025-2.019-1.804-1.785-3.109-1.798c-6.916-0.071-13.834-0.155-20.749,0.043
	c-2.894,0.083-5.24,1.633-7.536,3.182c-1.602,1.081-2.868,2.826-5.164,2.386c-0.08-0.454-0.159-0.907-0.24-1.361
	C120.712,79.66,126.525,79.291,132.439,79.124z"/>
<path fill="#8F9094" d="M96.828,91.096c-5.86-2.455-12-0.494-17.971-1.151c-2.124-0.234-5.51,0.939-5.251-2.786
	c0.218-3.135,0.509-7.076,5.348-7.06c8.065,0.026,16.134-0.058,24.194,0.183c4.836,0.144,7.737,3.036,7.913,7.833
	c0.164,4.455,0.086,9.06-3.454,12.598c-2.265-2.557-0.512-5.199-0.066-7.752c1.174-6.715-0.137-8.589-7.133-9.703
	c-6.913,0.157-13.832-0.251-20.702,0.517c-3.079,1.988-1.868,3.028,0.866,3.24c4.134,0.32,8.294,0.042,12.441,0.138
	c3.084,0.071,6.106,0.582,7.338,3.889c1.249,3.354,0.291,6.198-2.854,8.159c-5.75,1.351-11.591,0.583-17.385,0.795
	c-2.337-0.292-4.47,0.39-6.606,1.266c-1.681,0.689-3.385,1.984-5.285,0.449c0.913-1.123,1.826-2.246,2.741-3.369
	c7.239-2.78,14.796-1.361,22.217-1.626C97.35,96.567,99.289,95.361,96.828,91.096z"/>
<path fill="#7F8085" d="M31.592,111.102c6.106,0.16,12.216,0.526,18.317,0.41c4.126-0.079,5.997,1.261,5.09,5.509
	c-1.602,5.986-5.97,6.534-11.252,6.195c-7.045-0.452-14.209,0.522-21.043-2.061c-4.588-1.734-7.565-4.712-7.619-9.929
	c8.214,13.99,21.944,8.528,33.806,9.488c3.426,0.277,4.38-3.095,4.44-5.306c0.083-3.061-2.985-1.524-4.647-1.664
	C42.918,113.258,36.853,114.863,31.592,111.102z"/>
<path fill="#E1E1E2" d="M202.43,80.655c-10.664-0.562-10.65-0.557-14.387,9.638c-2.301,6.277-4.677,12.526-6.969,18.806
	c-1.569,4.298-6.262,6.274-11.78,4.375c-4.827-1.661-2.696-5.731-1.826-8.519c2.566-8.224,5.708-16.267,8.624-24.381
	c2.588,1.397,1.28,3.297,0.617,5.07c-2.463,6.588-4.917,13.179-7.461,19.736c-1.027,2.647-2.555,5.68,1.398,6.737
	c3.334,0.892,7.179,1.241,8.786-3.42c2.539-7.369,5.224-14.688,7.778-22.052C189.84,79.061,194.902,77.039,202.43,80.655z"/>
<path fill="#C0ECF0" d="M230.769,123.047c0.057-5.312,0.242-10.627,0.128-15.935c-0.082-3.781,1.439-5.342,5.25-5.224
	c5.505,0.171,11.041-0.275,16.525,0.104c7.625,0.526,13.327-2.29,17.445-8.598c-0.238,6.202-5.026,8.029-9.687,9.492
	c-7.295,2.291-14.911,1.295-22.388,1.221c-4.398-0.043-5.81,1.554-5.916,5.903C232.019,114.343,233.84,118.997,230.769,123.047z"/>
<path fill="#DBDBDD" d="M63.721,87.429c-7.87,0.032-15.74,0.102-23.61,0.07c-2.016-0.008-4.58,0.785-5.088-2.47
	c0.75-2.911,3.097-4.706,4.842-6.92c6.821-3.466,14.223-3.002,21.419-2.531c6.031,0.395,9.865-1.418,11.649-7.224
	c-0.159,6.934-1.538,8.384-8.231,8.463c-4.933,0.058-9.87-0.069-14.801,0.05c-6.152,0.149-10.123,2.926-12.882,9.033
	C45.94,87.552,55.023,84.864,63.721,87.429z"/>
<path fill="#C4EDF1" d="M270.118,93.404c0.001-0.781,0.003-1.563,0.004-2.344c0,0,0.035-0.048,0.035-0.048
	c1.764-8.063,1.507-15.564-4.685-22.091c-1.82-1.918-4.978-1.42-6.009-4.139c1.642-1.886,3.213-0.614,4.706,0.186
	c8.454,4.536,12.601,19.775,7.578,27.919C271.521,93.255,270.675,93.24,270.118,93.404z"/>
<path fill="#28C3D1" d="M259.463,64.782c11.478,5.556,15.347,15.044,10.695,26.23c0.01-3.721,0.259-7.459-0.02-11.158
	c-0.498-6.599-4.844-11.03-11.511-12.72c-1.868-0.473-4.529-0.283-5.062-3.151C255.644,63.413,257.56,64.045,259.463,64.782z"/>
<path fill="#B3E8ED" d="M356.947,83.998c-1.729,4.689-3.481,0.774-4.164-0.335c-3.996-6.481-7.687-13.15-11.482-19.756
	c5.003,1.923,4.938,7.608,8.094,10.906C352.142,77.684,352.055,82.888,356.947,83.998z"/>
<path fill="#27C4D1" d="M286.719,85.083c2.88-7.054,5.76-14.108,8.64-21.162c0.343-0.036,0.678,0.001,1.005,0.112
	C294.693,71.758,291.958,78.994,286.719,85.083z"/>
<path fill="#E1E1E2" d="M176.239,80.696c-3.843,0.02-7.686,0.039-11.528,0.059c-0.057-0.508-0.114-1.015-0.171-1.523
	C168.416,79.907,172.671,77.553,176.239,80.696z"/>
<path fill="#01BCCB" d="M229.772,103.032c0.002,4.661,0.075,9.324-0.029,13.983c-0.039,1.774,0.818,4.601-1.961,4.647
	c-2.46,0.041-5.99,2.279-7.397-2.031c5.504,0.858,7.689-1.21,7.235-6.996C227.372,109.468,225.76,105.458,229.772,103.032z"/>
<path fill="#595B61" d="M68.222,101.711c3.756-0.63,6.686-3.854,10.777-3.429c0.524,3.069,2.74,3.209,5.237,3.22
	c4.894,0.02,9.388-1.364,13.717-3.48c3.155-7.261,1.962-9.288-5.66-9.451c-3.711-0.079-7.43,0.079-11.137-0.069
	c-1.83-0.073-4.278,1.012-5.323-1.183c-1.035-2.173,0.257-4.101,2.005-5.587c1.831,2.419,4.348,3.249,7.255,3.002
	c5.595-0.474,11.036-1.803,16.478-3.107c7.108,1.245,8.941,3.896,7.758,10.664c-0.495,2.829-2.204,5.405-1.72,8.422
	c-2.297,6.271-4.688,12.511-6.844,18.83c-0.853,2.501-2.332,3.342-4.842,3.305c-7.906-0.119-15.83,0.193-23.717-0.219
	c-10.511-0.549-13.634-6.976-8.167-16.015C65.171,104.739,66.361,102.947,68.222,101.711z"/>
<path fill="#606267" d="M118.295,87.688c5.584-6.281,12.703-7.906,20.783-7.222c4.302,0.364,8.67-0.101,12.989,0.138
	c1.944,0.107,5.486-1.509,5.094,2.641c-0.284,3.009-1.652,5.753-5.516,5.729c-4.333-0.027-8.668-0.079-12.998,0.025
	c-2.35,0.056-4.697,0.38-7.039,0.643c-2.797,0.313-4.423,2.151-4.283,4.727c0.158,2.903,2.77,2.838,4.975,2.852
	c5.673,0.036,11.411-0.41,16.711,2.315c5.579,7.826-4.807,21.468-13.453,22.629c-8.657,1.162-17.318,0.516-25.976,0.664
	c-1.678,0.029-3.584-0.509-3.04-2.572c0.74-2.803,0.502-6.693,5.144-6.665c5.519,0.034,11.038,0.005,16.557-0.029
	c1.772-0.011,3.596,0.119,5.301-0.253c2.386-0.521,4.716-1.748,4.614-4.557c-0.12-3.305-3.066-2.385-5.017-2.527
	c-2.943-0.214-5.93,0.106-8.861-0.18c-8.426-0.824-11.328-5.731-8.136-13.502C116.817,90.906,117.576,89.305,118.295,87.688z"/>
<path fill="#56585E" d="M165.696,86.344c-0.153-2.751,0.105-4.907,3.866-4.766c3.624,0.136,3.305,2.383,3.179,4.749
	C170.388,84.557,168.041,84.757,165.696,86.344z"/>
<path fill="#039AAF" d="M313.843,71.953c6.425,14.347,12.898,28.674,19.22,43.066c0.913,2.08,3.577,4.447,0.951,6.729
	c-2.259,1.963-10.764-0.237-11.892-2.722c-5.851-12.897-11.659-25.814-17.481-38.725c-0.212-5.403,4.015-9.209,4.939-14.345
	C312.301,67.231,312.496,70.001,313.843,71.953z"/>
<path fill="#27C4D1" d="M298.611,88.689c0.061,0.456,0.122,0.912,0.183,1.369c-4.367,9.92-8.712,19.849-13.117,29.752
	c-1.244,2.797-12.65,4.888-14.808,2.772c-1.109-1.088-0.381-2.195,0.1-3.24c5.255-11.426,9.602-23.272,15.779-34.274
	c0.071,0.439,0.142,0.878,0.213,1.318c0.863,1.205,0.721,2.375-0.12,3.522c-3.573,4.062-4.724,9.359-6.968,14.083
	c-0.68,1.431-1.696,2.469-2.419,3.769c0.868,1.205,0.73,2.376-0.116,3.524c-2.832,2.063-3.491,5.354-4.705,8.33
	c4.53,2.144,8.666,2.334,11.811-2.383c0.407-0.79,0.814-1.58,1.221-2.37c0.028-1.31,0.332-2.53,1.167-3.576
	c4.032-5.345,5.813-11.744,8.338-17.796c0.024-1.312,0.326-2.534,1.164-3.581C297.093,89.502,297.852,89.095,298.611,88.689z"/>
<path fill="#09BDCC" d="M284.443,117.232c-2.062,4.489-8.193,6.538-12.103,3.975c-0.176-0.115,0.182-1.043,0.291-1.592
	C276.714,119.539,280.95,120.225,284.443,117.232z"/>
<path fill="#0ABDCD" d="M296.334,89.909c-0.049,1.304,0.193,2.702-1.165,3.58C293.015,91.469,295.047,90.81,296.334,89.909z"/>
<path fill="#0ABDCD" d="M286.84,89.908c0.039-1.174,0.079-2.349,0.119-3.523C290.64,87.688,288.524,88.791,286.84,89.908z"/>
<path fill="#0ABDCD" d="M277.337,111.285c0.038-1.175,0.076-2.35,0.115-3.524C281.14,109.059,279.03,110.165,277.337,111.285z"/>
<path fill="#0ABDCD" d="M286.832,111.285c-0.049,1.303,0.197,2.703-1.168,3.576C283.517,112.841,285.549,112.186,286.832,111.285z"
	/>
<path fill="#54565D" d="M101.57,81.626c-3.662,3.721-8.874,3.084-13.312,4.603c-1.914,0.655-4.251-0.043-6.373,0.143
	c-3.612,0.317-4.336-1.672-4.048-4.643C85.748,81.696,93.659,81.661,101.57,81.626z"/>
<path fill="#54565D" d="M97.953,98.021c-2.334,3.753-6.351,4.18-10.109,4.875c-2.087,0.386-4.317-0.08-6.46,0.103
	c-4.894,0.419-5.058-1.394-2.384-4.718C85.317,98.195,91.635,98.108,97.953,98.021z"/>
<path fill="#0BBECD" d="M256.808,65.219c-1.114-0.333-2.305-0.45-3.244-1.236c-11.069,0.003-22.138,0.005-33.207,0.008
	c-1.941,2.431-1.202,5.312-1.164,7.991c0.225,15.751-0.7,31.515,0.497,47.258c6.001,3.22,8.83,1.787,9.386-4.627
	c0.298-3.441-0.88-7.107,1.435-10.28c1.385-2.147,3.561-2.118,5.744-2.123c5.091-0.012,10.193-0.21,15.272,0.039
	c8.396,0.411,14.869-2.449,18.84-10.122c0.42-0.521,0.712-1.104,0.867-1.757c0.151-1.162,0.408-2.307,0.484-3.477
	C272.543,74.159,268.877,68.824,256.808,65.219z M249.56,92.108c-2.361,0.103-4.73,0.017-7.095,0.024
	c-11.784,0.007-13.486-2.187-11.38-14.256c0.42-2.408,1.612-3.445,3.924-3.435c5.124,0.02,10.249-0.014,15.37,0.094
	c5.458,0.116,7.65,3.493,7.751,8.455C258.245,88.577,255.061,91.868,249.56,92.108z"/>
<path fill="#F2F2F2" d="M82.3,113.623c-2.323-1.076-7.873,2.389-7.822-3.331c0.048-5.378,5.381-3.803,8.873-4.115
	c1.761-0.157,3.553-0.121,5.32-0.003c1.803,0.12,4.435-0.769,4.561,2.233c0.12,2.844-1.293,4.978-4.462,5.192
	C86.807,113.73,84.828,113.623,82.3,113.623z"/>
<path fill="#5A5C61" d="M133.642,86.343c-1.732,0.894-3.478,1.761-5.193,2.687c-2.588,1.397-3.593,3.591-2.959,6.442
	c0.634,2.853,2.965,2.89,5.159,2.732c5.197-0.373,10.073,0.668,15.012,2.294c3.779,1.244,3.903,3.625,3.011,6.415
	c-2.684,8.396-8.911,12.682-17.973,12.685c-5.926,0.002-11.852,0.055-17.776-0.042c-1.367-0.022-3.658,0.798-3.611-1.686
	c0.036-1.955,1.529-3.024,3.676-3.011c6.715,0.041,13.431-0.02,20.147,0.01c3.304,0.015,6.312,0.159,6.534-4.62
	c0.226-4.868-2.061-6.967-6.485-7.222c-3.347-0.193-6.721-0.196-10.07-0.025c-5.456,0.28-6.227-2.885-5.479-7.173
	c1.237-7.087,5.214-11.631,12.435-13.048C132.414,82.812,134.882,82.718,133.642,86.343z"/>
<path fill="#54565D" d="M133.642,86.343c-0.047-2.334-2.053-2.703-3.572-3.561c8.283-2.536,16.695-0.472,25.167-0.288
	C149.089,89.209,140.833,85.095,133.642,86.343z"/>
</svg>
