<?xml version="1.0" encoding="utf-8"?>
<!-- Generator: Adobe Illustrator 17.0.0, SVG Export Plug-In . SVG Version: 6.00 Build 0)  -->
<!DOCTYPE svg PUBLIC "-//W3C//DTD SVG 1.1//EN" "http://www.w3.org/Graphics/SVG/1.1/DTD/svg11.dtd">
<svg version="1.1" id="레이어_1" xmlns="http://www.w3.org/2000/svg" xmlns:xlink="http://www.w3.org/1999/xlink" x="0px"
	 y="0px" width="200px" height="200px" viewBox="0 0 200 200" enable-background="new 0 0 200 200" xml:space="preserve">
<path fill="#12BECD" d="M84.436,24.622c7.847-0.212,15.779,0.229,23.522-0.781c13.754-1.793,19.814,4.923,21.502,17.484
	c0.922,1.248,0.935,2.506,0.045,3.773c-8.116,0.303-6.934-7.999-10.534-11.424c-2.012,11.113-8.205,20.766-12.233,31.212
	c-9.262,4.041-9.678,14.142-14.421,21.291c-1.292,2.342-3.26,4.051-5.336,5.641c-3.656,2.22-4.031,5.813-3.952,9.606
	c-2.945,15.799-11.206,29.27-18.715,43.075c-3.461,2.344-5.388,5.565-5.54,9.817c-0.889,2.875-2.605,5.166-4.846,7.116
	c-8.568,7.473-18.136,8.169-28.391,4.206c-5.883-10.274,2.378-16.327,6.984-23.473c3.994-2.378,3.971-6.1,3.282-10.052
	c6.334-14.822,12.134-29.891,20.652-43.661c2.091-1.973,4.446-3.839,3.068-7.324c-0.285-1.233-0.28-2.442-0.04-3.679
	c0.457-1.229,1.058-2.36,1.771-3.448C69.602,57.822,74.871,40.212,84.436,24.622z"/>
<path fill="#CFEDF1" d="M108.41,83.485c-7.222-3.949-9.913-0.824-12.766,6.214c-9.446,23.305-19.828,46.232-29.909,69.279
	c-4.717,10.783-9.929,18.372-24.819,17.66c-32.023-1.53-31.723-0.232-18.356-29.262c17.132-37.207,33.598-74.72,50.425-112.067
	c1.976-4.386,2.97-9.748,8.929-10.967c3.824,7.403-3.144,11.745-5.182,17.393c-4.455,12.345-10.063,24.238-16.499,35.71l0.072-0.038
	c-8.749,24.967-21.781,48.095-31.242,72.742c-2.181,5.683-11.367,11.121-3.141,17.872c6.639,5.448,25.7,0.234,29.947-7.674
	c9.506-17.702,17.939-35.924,25.437-54.588c2.344-5.833,2.466-12.868,8.324-17.029c3.23-3.172,2.064-8.397,5.582-11.53
	c2.945-2.622,3.933-9.128,9.684-5.95C109.425,73.754,111.67,78.137,108.41,83.485z"/>
<path fill="#49C6D3" d="M108.41,83.485c-0.336-4.536-2.586-8.018-5.47-11.553c-7.498,4.379-7.74,12.707-12.405,17.996
	c-0.976-0.647-1.369-1.371-1.181-2.174c0.197-0.842,0.436-1.263,0.72-1.263c3.046-8.453,2.769-19.295,15.133-21.051
	c6.398,2.275,8.267,8.227,10.542,13.575c10.641,25.003,22.291,49.551,33.238,74.415c0.796,1.809,1.554,3.633,2.437,5.403
	c4.609,9.241,13.598,9.208,20.532,6.397c8.582-3.479,1.555-10.259-0.471-14.855c-13.35-30.282-27.414-60.247-40.643-90.585
	c-2.094-4.803-5.809-9.522-2.543-15.295c0.387-1.056,0.774-2.112,1.161-3.169c12.633,17.369,18.24,38.162,27.616,57.127
	c10.287,20.807,18.516,42.625,28.55,63.567c4.156,8.675,2.819,11.937-6.633,11.88c-0.993-0.006-2.009-0.122-2.976,0.041
	c-19.11,3.219-30.76-2.812-37.503-22.826C130.671,127.834,118.63,105.966,108.41,83.485z"/>
<path fill="#27C4D1" d="M60.233,77.444c7.227-17.701,14.453-35.402,21.68-53.103c0.862-0.09,1.703,0.003,2.523,0.28
	C80.244,44.005,73.381,62.165,60.233,77.444z"/>
<path fill="#039AAF" d="M128.299,44.496c16.122,36.003,32.366,71.952,48.23,108.069c2.292,5.219,8.977,11.16,2.386,16.885
	c-5.669,4.925-27.011-0.595-29.84-6.832c-14.682-32.363-29.255-64.776-43.867-97.175c-0.533-13.557,10.076-23.108,12.393-35.998
	C124.429,32.646,124.919,39.596,128.299,44.496z"/>
<path fill="#27C4D1" d="M90.074,86.491c0.153,1.145,0.306,2.289,0.46,3.436c-10.959,24.893-21.863,49.809-32.915,74.659
	c-3.121,7.018-31.743,12.265-37.16,6.956c-2.784-2.729-0.956-5.507,0.25-8.13c13.188-28.673,24.094-58.397,39.596-86.005
	c0.177,1.102,0.356,2.204,0.535,3.307c2.167,3.024,1.809,5.961-0.302,8.838c-8.966,10.194-11.853,23.484-17.484,35.339
	c-1.706,3.591-4.256,6.195-6.071,9.459c2.179,3.023,1.833,5.962-0.292,8.843c-7.106,5.178-8.759,13.434-11.807,20.904
	c11.367,5.38,21.745,5.856,29.639-5.98c1.021-1.983,2.043-3.965,3.064-5.948c0.071-3.287,0.833-6.349,2.93-8.975
	c10.118-13.412,14.587-29.471,20.922-44.656c0.059-3.292,0.818-6.358,2.922-8.985C86.265,88.532,88.17,87.512,90.074,86.491z"/>
<path fill="#09BDCC" d="M54.523,158.117c-5.175,11.266-20.56,16.407-30.371,9.975c-0.44-0.289,0.456-2.617,0.731-3.995
	C35.128,163.906,45.757,165.627,54.523,158.117z"/>
<path fill="#0ABDCD" d="M84.361,89.553c-0.122,3.272,0.483,6.781-2.922,8.985C76.033,93.468,81.132,91.815,84.361,89.553z"/>
<path fill="#0ABDCD" d="M60.539,89.552c0.099-2.947,0.197-5.894,0.299-8.839C70.073,83.979,64.763,86.747,60.539,89.552z"/>
<path fill="#0ABDCD" d="M60.517,143.194c-0.122,3.27,0.495,6.782-2.93,8.974C52.198,147.099,57.299,145.454,60.517,143.194z"/>
</svg>
