<?xml version="1.0" encoding="utf-8"?>
<!-- Generator: Adobe Illustrator 17.0.0, SVG Export Plug-In . SVG Version: 6.00 Build 0)  -->
<!DOCTYPE svg PUBLIC "-//W3C//DTD SVG 1.1//EN" "http://www.w3.org/Graphics/SVG/1.1/DTD/svg11.dtd">
<svg version="1.1" id="레이어_1" xmlns="http://www.w3.org/2000/svg" xmlns:xlink="http://www.w3.org/1999/xlink" x="0px"
	 y="0px" width="400px" height="200px" viewBox="0 0 400 200" enable-background="new 0 0 400 200" xml:space="preserve">
<g>
	<path fill="#CE2242" d="M38.52,61.691c2.158-0.689,4.545-0.738,6.76-0.246c1.575,0.911,1.181,3.142,2.059,4.57
		c2.322,3.864-1.009,9.008-5.21,9.533c-3.889,0.779-8.024-2.215-8.393-6.178C33.245,66.08,35.427,62.773,38.52,61.691L38.52,61.691z
		"/>
	<path fill="#298679" d="M81.175,73.858c1.567-0.574,4.176-1.854,5.021,0.435c0.082,1.903-2.002,2.748-3.257,3.766
		c-11.814,7.696-26.106,9.977-39.816,11.847c-8.738,1.19-17.508,2.191-26.303,2.822c-5.932,0.878-11.773-2.601-15.375-7.097
		c-2.371-2.724-1.953-8.286,2.223-8.836c5.316-0.443,10.518,1.272,15.769,1.928C39.956,82.226,61.582,81.242,81.175,73.858
		L81.175,73.858z"/>
	<path fill="#211C1F" d="M112.77,80.643c2.863,0.96,5.751,1.879,8.623,2.822c-2.56,7.212-7.605,13.349-13.734,17.845
		c5.161,7.335,10.173,14.776,15.342,22.103c-3.651-0.008-7.302-0.025-10.961,0.008c-4.611-7.089-8.967-14.349-13.71-21.356
		c0.016,7.13,0.016,14.251,0.008,21.381c-2.88-0.049-5.768-0.057-8.647-0.016c-0.041-13.783,0.041-27.567-0.049-41.342
		c2.904-0.049,5.809-0.033,8.713-0.049c-0.016,6.301-0.033,12.602,0.008,18.903C104.549,95.32,109.775,88.494,112.77,80.643
		L112.77,80.643z"/>
	<path fill="#211C1F" d="M238.411,80.511c2.781-0.016,5.571-0.016,8.352-0.016c-0.041,4.619,0.016,9.238-0.033,13.857
		c2.568,0.025,5.144,0.033,7.72,0.016c-0.016,1.559-0.033,3.109-0.041,4.66c-2.552-0.025-5.103-0.016-7.646-0.008
		c-0.025,10.92-0.008,21.84-0.008,32.768c-2.765,0-5.522,0-8.278,0.008C238.387,114.699,238.526,97.609,238.411,80.511
		L238.411,80.511z"/>
	<path fill="#211C1F" d="M289.311,80.52c2.781-0.025,5.563-0.025,8.352-0.033c0.016,4.627,0.025,9.263-0.008,13.898
		c2.56-0.016,5.136-0.016,7.704-0.016c-0.016,1.551-0.033,3.101-0.033,4.652c-2.56-0.016-5.12-0.008-7.671,0
		c0.033,10.928,0.041,21.848-0.008,32.768c-2.757,0-5.513,0-8.262-0.008c-0.041-5.292-0.066-10.584,0.016-15.875
		c-2.461,1.723-5.333,2.954-8.385,2.904c-4.923,0.008-9.845,0.025-14.76-0.008c-4.398,0.115-8.377-3.913-8.081-8.327
		c-0.008-9.214,0.025-18.427-0.066-27.641c2.765-0.008,5.53-0.008,8.303-0.008c-0.025,9.222-0.074,18.443-0.025,27.665
		c-0.172,1.83,1.362,3.659,3.249,3.618c4.627,0.082,9.271,0.049,13.898,0.008c2.264,0.025,4.233-1.255,5.883-2.691
		C289.254,101.129,289.451,90.824,289.311,80.52L289.311,80.52z"/>
	<path fill="#211C1F" d="M126.553,82.037c8.336,0.041,16.663,0,24.999,0.025c-0.394,2.305-0.755,4.611-1.132,6.916
		c-5.12-0.016-10.247,0.016-15.367-0.016c-0.213,3.118,0.082,6.244-0.098,9.361c4.406,0.041,8.803-0.016,13.209,0.057
		c-0.008,2.297-0.008,4.603,0.008,6.9c-4.357,0.082-8.705,0.016-13.053,0.049c0,3.635-0.025,7.261,0.016,10.895
		c5.636-0.008,11.273,0.016,16.909-0.016c0.016,2.404,0.016,4.808,0.008,7.212c-8.492-0.016-16.983-0.033-25.475,0.008
		C126.561,109.629,126.594,95.837,126.553,82.037L126.553,82.037z"/>
	<path fill="#211C1F" d="M322.843,127.022c-1.83,0.082-3.569-1.6-3.462-3.454c-0.074-4.086,0.016-8.172-0.008-12.257
		c10.584-0.008,21.176,0,31.759,0c-0.008-1.633-0.008-3.265-0.008-4.89c-4.873,0.098-9.747-0.041-14.62,0.098
		c2.207-1.887,4.266-4.069,5.275-6.851c2.568-6.186,0.304-13.947-5.259-17.713c-4.98-3.618-12.29-3.495-17.155,0.271
		c-4.808,3.553-7.031,10.141-5.39,15.884c0.837,3.405,3.134,6.227,5.817,8.401c-5.021-0.09-10.042-0.049-15.063-0.033
		c0,1.608,0,3.216,0,4.824c2.133,0.008,4.266,0.008,6.399,0.025c0,4.061-0.057,8.131-0.008,12.2
		c-0.139,4.16,3.495,8.048,7.671,8.098c9.501,0.115,18.993-0.008,28.494,0.049c0-1.542,0.008-3.093,0.025-4.635
		C339.153,127.038,330.998,127.096,322.843,127.022z M326.453,84.466c2.453-1.469,5.316,0.418,6.572,2.593
		c2.519,4.348,2.519,10.157-0.09,14.464c-1.198,2.043-3.848,3.643-6.178,2.502c-3.602-1.871-4.75-6.334-4.783-10.091
		C322.104,90.414,323.163,86.32,326.453,84.466z"/>
	<path fill="#211C1F" d="M226.49,88.65c2.543,0.033,5.079,0.033,7.622,0.016c-0.025-1.542-0.041-3.093-0.049-4.635
		c-3.758-0.008-7.507,0.008-11.256-0.025c0.016-1.534,0.033-3.077,0.057-4.619c-2.798-0.287-5.612-0.238-8.409-0.041
		c0.008,1.559,0.016,3.118,0.025,4.677c-3.749,0.008-7.499,0-11.248,0.008c-0.025,1.542-0.041,3.093-0.066,4.635
		c2.543,0.016,5.087,0.016,7.638-0.016c-8.959,6.859-9.156,22.086-0.304,29.093c4.594,3.848,11.798,3.807,16.368-0.066
		C235.638,110.621,235.4,95.509,226.49,88.65z M224.718,107.807c-0.615,2.872-1.657,6.063-4.283,7.704
		c-2.067,1.296-4.545-0.254-5.636-2.109c-2.724-4.398-2.978-9.911-2.076-14.883c0.681-2.847,1.789-6.137,4.594-7.532
		c2.084-0.894,4.242,0.566,5.275,2.338C225.252,97.601,225.514,102.95,224.718,107.807z"/>
	<path fill="#211C1F" d="M372.241,88.666c1.69,0.016,3.372,0.016,5.07,0.016c-0.016-1.551-0.025-3.101-0.025-4.652
		c-2.724-0.008-5.439-0.008-8.155,0.008c-0.008-1.592-0.016-3.175-0.025-4.767c-2.748,0.041-5.505,0.041-8.254,0.008
		c-0.016,1.583-0.016,3.175-0.016,4.759c-2.748-0.016-5.489-0.016-8.229-0.008c-0.025,1.551-0.041,3.093-0.049,4.644
		c1.706,0.008,3.421,0,5.144-0.025c-5.891,4.98-6.235,14.965-0.525,20.207c4.119,4.25,11.626,4.143,15.703-0.107
		C378.436,103.467,378.066,93.622,372.241,88.666z M366.137,106.905c-1.953,1.6-3.618-1.222-4.086-2.855
		c-1.239-4.496-1.534-10.715,2.748-13.701c3.167,1.526,3.733,5.39,3.807,8.533C368.566,101.662,368.287,104.895,366.137,106.905z"/>
	<path fill="#298679" d="M28.018,101.055c3.15-5.694,10.461-8.385,16.647-6.703c6.785,1.657,11.864,8.286,12.003,15.219
		c0.189,6.153-1.6,12.192-3.979,17.812c-1.895,4.127-4.258,8.237-7.802,11.166c-0.829,0.747-1.821,0.041-2.683-0.205
		c1.805-7.589,4.217-15.162,4.135-23.054c0.025-3.044-0.041-6.719-2.716-8.738c-2.305-1.969-6.203-0.459-6.9,2.404
		c-1.452,3.323,1.526,7.441-1.124,10.337c-2.683,2.141-6.613,0.377-7.991-2.453C25.073,111.992,25.442,105.814,28.018,101.055
		L28.018,101.055z"/>
	<path fill="#211C1F" d="M183.032,100.464c3.52-2.732,4.939-7.77,3.134-11.88c-1.707-4.102-6.178-6.416-10.477-6.498
		c-5.858-0.098-11.716-0.008-17.574-0.033c0.066,13.792,0.016,27.583,0.025,41.375c5.956-0.074,11.905,0.033,17.861-0.049
		c4.718-0.107,9.706-2.469,11.667-6.974C190.268,110.835,188.406,103.639,183.032,100.464z M166.443,88.732
		c3.265,0.295,6.892-0.779,9.894,0.853c3.027,2.232,2.109,6.957-0.476,9.181c-3.134-0.057-6.268-0.025-9.394-0.016
		C166.459,95.41,166.467,92.071,166.443,88.732z M176.009,116.151c-3.085,0.681-6.301,0.189-9.443,0.32
		c0.025-3.749,0.033-7.491,0-11.24c3.364,0.222,6.916-0.574,10.157,0.574C181.014,107.66,180.464,114.838,176.009,116.151z"/>
	<path fill="#211C1F" d="M399.988,80.536c-2.634,0-5.267,0-7.901-0.016c0.041,3.429,0.033,6.859,0,10.288
		c-1.239,0-2.478-0.008-3.708-0.008c-0.008-3.429-0.033-6.859,0.033-10.288c-2.65-0.016-5.3-0.016-7.95-0.016
		c0.033,7.983,0.033,15.966,0.008,23.949c-5.177,1.994-9.222,6.826-9.73,12.421c-0.796,6.12,2.666,12.471,8.245,15.104
		c4.373,2.1,9.862,1.871,13.988-0.722c4.291-2.642,7.138-7.589,7.023-12.651C399.98,105.912,399.98,93.22,399.988,80.536z
		 M390.75,124.175c-0.87,2.01-2.42,3.971-4.677,4.414c-1.994,0.287-3.823-1.034-4.906-2.601c-2.248-3.298-2.609-7.614-1.698-11.429
		c0.624-2.469,1.977-5.078,4.463-6.096c2.437-1.034,4.923,0.771,6.12,2.822C392.301,115.142,392.473,120.081,390.75,124.175z
		 M388.379,103.918c-0.008-2.855-0.008-5.718,0-8.574c1.239,0.016,2.486,0.041,3.733,0.057c0,3.306-0.008,6.605,0.008,9.911
		C390.865,104.837,389.626,104.378,388.379,103.918z"/>
</g>
</svg>
