<?xml version="1.0" encoding="utf-8"?>
<!-- Generator: Adobe Illustrator 17.0.0, SVG Export Plug-In . SVG Version: 6.00 Build 0)  -->
<!DOCTYPE svg PUBLIC "-//W3C//DTD SVG 1.1//EN" "http://www.w3.org/Graphics/SVG/1.1/DTD/svg11.dtd">
<svg version="1.1" id="레이어_1" xmlns="http://www.w3.org/2000/svg" xmlns:xlink="http://www.w3.org/1999/xlink" x="0px"
	 y="0px" width="400px" height="200px" viewBox="0 0 400 200" enable-background="new 0 0 400 200" xml:space="preserve">
<circle fill="#FFFFFF" cx="46.231" cy="100.177" r="46.231"/>
<path fill="#0188CC" d="M33.266,55.413c9.526-2.738,19.951-2.4,29.239,1.097c10.782,4.022,19.901,12.263,25.057,22.548
	c3.958,7.798,5.526,16.734,4.676,25.427c-1.847-7.181-6.184-13.525-11.496-18.608c-4.909-5.055-11.221-8.511-17.721-11.084
	c-2.957-1.01-6.052-1.545-9.091-2.24c-3.821-0.713-7.738-0.53-11.601-0.439c-3.583,0.073-7.007,1.17-10.426,2.107
	c-9.128,2.587-17.332,8.163-23.37,15.445c-1.833,2.18-3.277,4.644-4.886,6.989c-1.613,2.24-2.445,4.904-3.442,7.45
	c-0.923-9.667,1.28-19.609,6.294-27.937C12.396,66.222,22.141,58.612,33.266,55.413L33.266,55.413z"/>
<path fill="#009EDB" d="M42.33,72.114c3.862-0.091,7.779-0.274,11.601,0.439c3.04,0.695,6.134,1.23,9.091,2.24
	c6.5,2.573,12.812,6.029,17.721,11.084c5.311,5.083,9.649,11.427,11.496,18.608c-0.073,1.353-0.357,2.683-0.594,4.013
	c-1.773-3.922-3.401-7.971-6.075-11.395c-1.732-2.084-3.094-4.498-5.252-6.203c-6.81-6.765-15.783-11.221-25.24-12.789
	c-5.051-0.859-10.298-1.417-15.362-0.357c-2.199,0.357-4.429,0.608-6.545,1.33c-3.652,1.28-7.45,2.285-10.769,4.351
	c-2.212,1.399-4.443,2.788-6.564,4.329c-5.357,4.329-9.804,9.781-12.949,15.911c-0.804,1.865-1.344,3.835-1.883,5.791
	c-0.343-1.769-0.745-3.551-0.8-5.362c0.996-2.546,1.828-5.211,3.442-7.45c1.609-2.345,3.053-4.808,4.886-6.989
	c6.038-7.281,14.243-12.858,23.37-15.445C35.323,73.284,38.746,72.187,42.33,72.114L42.33,72.114z"/>
<path fill="#00B1E6" d="M39.715,77.755c5.064-1.06,10.312-0.503,15.362,0.357c9.457,1.568,18.429,6.024,25.24,12.789
	c2.157,1.705,3.519,4.118,5.252,6.203c2.674,3.424,4.301,7.473,6.075,11.395c-0.146,0.841-0.325,1.673-0.521,2.505
	c-2.098-6.203-5.174-12.25-9.932-16.834c-8.959-9.544-22.196-14.777-35.232-14.425c-10.737-0.169-21.46,3.529-29.966,10.056
	C9.119,95.313,3.748,102.86,1.476,111.434c-0.169-0.654-0.375-1.298-0.471-1.965c0.539-1.956,1.079-3.926,1.883-5.791
	c3.145-6.129,7.592-11.582,12.949-15.911c2.121-1.54,4.351-2.93,6.564-4.329c3.318-2.066,7.117-3.072,10.769-4.351
	C35.286,78.362,37.517,78.111,39.715,77.755L39.715,77.755z"/>
<path fill="#2DBFF0" d="M15.993,89.799c8.506-6.527,19.229-10.225,29.966-10.056c13.036-0.352,26.273,4.882,35.232,14.425
	c4.758,4.584,7.834,10.632,9.932,16.834c-0.087,0.686-0.361,1.33-0.535,1.997c-0.37-0.969-0.8-1.911-1.184-2.87
	c-2.628-7.176-7.693-13.333-13.891-17.735c-5.096-4.205-11.381-6.673-17.716-8.31c-5.517-1.435-11.249-1.225-16.894-1.074
	c-4.21,0.425-8.319,1.591-12.346,2.848c-12.506,4.26-23.384,14.558-26.492,27.63c-0.201-0.686-0.453-1.358-0.59-2.057
	C3.748,102.857,9.119,95.311,15.993,89.799L15.993,89.799z"/>
<path fill="#67CEF6" d="M28.558,85.859c4.027-1.257,8.136-2.423,12.346-2.848c5.645-0.151,11.377-0.361,16.894,1.074
	c6.335,1.636,12.62,4.105,17.716,8.31c6.198,4.402,11.262,10.559,13.891,17.735c0.384,0.96,0.814,1.901,1.184,2.87
	c-0.101,0.453-0.233,0.905-0.384,1.348c-2.093-5.636-4.813-11.208-9.274-15.362c-5.43-5.019-11.907-9.014-19.001-11.18
	c-4.717-1.549-9.667-2.263-14.604-2.55c-10.065-0.032-20.198,2.637-28.673,8.145c-5.435,3.049-9.699,7.834-12.88,13.136
	c-1.426,2.313-2.221,4.927-3.309,7.4l-0.562,0.293c0.041-0.187,0.123-0.553,0.165-0.74C5.174,100.416,16.052,90.118,28.558,85.859
	L28.558,85.859z"/>
<path fill="#96DAF8" d="M18.653,93.4c8.474-5.508,18.608-8.177,28.673-8.145c4.936,0.288,9.887,1.001,14.604,2.55
	c7.094,2.167,13.571,6.161,19.001,11.18c4.461,4.155,7.181,9.727,9.274,15.362c-0.169,0.708-0.53,1.358-0.836,2.016
	c-0.969-5.128-4.095-9.521-7.35-13.47c-9.353-9.753-23.047-14.964-36.499-14.47c-6.065-0.215-12.058,1.193-17.762,3.145
	c-6.628,2.692-13.022,6.427-17.748,11.889c-3.117,3.748-5.896,7.994-6.952,12.816c-0.27-0.608-0.539-1.216-0.818-1.819l0.224-0.517
	c1.088-2.473,1.883-5.087,3.309-7.4C8.954,101.235,13.219,96.449,18.653,93.4L18.653,93.4z"/>
<path fill="#C5EAFC" d="M27.758,91.567c5.704-1.952,11.697-3.36,17.762-3.145c13.452-0.494,27.146,4.717,36.498,14.471
	c3.254,3.949,6.381,8.342,7.35,13.47c-0.059,0.306-0.178,0.923-0.233,1.234c-1.111-1.687-1.563-3.698-2.646-5.403
	c-3.094-5.11-7.327-9.544-12.359-12.775c-7.464-4.744-16.235-7.002-24.975-7.738c-3.625,0.114-7.313-0.366-10.869,0.558
	c-7.898,1.216-15.673,3.949-22.159,8.698c-3.89,3.003-7.606,6.422-10.056,10.741c-1.088,1.773-1.728,3.771-2.564,5.668
	c-0.114-0.27-0.334-0.804-0.448-1.074c1.056-4.822,3.835-9.068,6.952-12.816C14.736,97.994,21.131,94.26,27.758,91.567
	L27.758,91.567z"/>
<g>
	<path fill="#016EAF" d="M230.336,63.674c2.898,0.07,5.799-0.056,8.693,0.061c1.26,0.026,2.67,0.945,2.486,2.355
		c0,23.805,0.031,47.616-0.013,71.426c-3.427,0.009-6.849-0.017-10.273-0.009c-0.044-7.156-0.022-14.312-0.013-21.469
		c-2.845,1.536-6.136,1.755-9.305,1.851c-10.355-0.009-20.716-0.009-31.071,0c-2.04-0.039-4.263-0.324-5.878-1.685
		c-1.076-0.88-1.413-2.333-1.383-3.664c0.005-6.863,0.009-13.721,0-20.58c0.022-1.453-0.354-2.867-0.914-4.197
		c8.613,0.005,17.231-0.005,25.849,0.005c-0.013-5.217-0.017-10.438,0-15.656c-8.714-0.009-17.432,0.005-26.147-0.005
		c0.009-2.048,0.013-4.096-0.005-6.145c11.288-0.013,22.572,0.005,33.855-0.009c0.963,0.013,2.167,0.013,2.788,0.889
		c0.346,0.722,0.359,1.545,0.39,2.333c-0.005,7.152-0.017,14.308,0.005,21.46c-0.017,0.889-0.017,1.861-0.534,2.626
		c-0.7,0.666-1.711,0.718-2.617,0.735c-7.275,0-14.544-0.013-21.818,0.005c0.035,5.16-0.022,10.324,0.026,15.49
		c-0.145,1.173,0.779,2.359,2.022,2.219c8.176,0.031,16.356-0.017,24.532,0.017c2.648,0.044,5.44-0.201,7.782-1.545
		c1.501-0.823,2.491-2.486,2.421-4.207c-0.005-11.244-0.005-22.484-0.005-33.727C231.23,69.377,231.325,66.423,230.336,63.674
		L230.336,63.674z"/>
	<path fill="#016EAF" d="M166.177,74.927c-1.983-4.587-6.119-7.909-10.614-9.874c-6.136-2.644-13.074-3.269-19.635-2.127
		c-6.102,1.037-12.22,3.817-15.988,8.894c-2.985,3.987-4.009,9.427-2.486,14.194c1.554,5.427,6.124,9.476,11.161,11.681
		c6.447,2.836,13.8,3.374,20.68,2.022c5.712-1.12,11.34-3.851,14.947-8.543C167.766,86.639,168.567,80.157,166.177,74.927z
		 M152.968,89.528c-5.3,5.593-15.127,5.869-20.834,0.749c-4.661-4.074-5.116-11.914-1.098-16.579
		c1.781-2.157,4.329-3.558,7.007-4.258c4.801-1.195,10.299-0.306,14.068,3.034C156.986,76.66,157.318,84.844,152.968,89.528z"/>
	<path fill="#016EAF" d="M107.851,113.517c-0.022-2.132-0.013-4.263,0-6.398c22.904-0.005,45.812-0.005,68.716,0
		c-0.005,2.132-0.005,4.263,0,6.398c-9.616-0.022-19.232-0.013-28.848-0.005c0.026,8.649-0.013,17.297,0.022,25.946
		c-3.703,0.013-7.406-0.005-11.109,0.009c0.039-8.649,0.005-17.297,0.017-25.946C127.049,113.496,117.45,113.5,107.851,113.517
		L107.851,113.517z"/>
</g>
<path fill="#0188CC" d="M3.94,118.672c16.002-5.915,33.284-7.857,50.26-6.938c11.687,0.722,23.357,2.825,34.34,6.961
	c-4.909,10.91-14.101,19.874-25.267,24.234c-8.776,3.515-18.635,4.118-27.827,1.979C21.61,141.7,9.676,131.639,3.94,118.672
	L3.94,118.672z"/>
<g>
	<path fill="#016EAF" d="M295.06,68.582c-3.409-1.134-7.049-0.605-10.565-0.69c-9.048,0.115-18.104-0.215-27.145,0.153
		c0.023,1.992,0.015,3.984,0.023,5.976c8.979,0.046,17.951,0.015,26.93,0.023c0.008,4.038-1.019,7.953-1.946,11.852l-0.306,0.329
		c-0.069,0.498-0.146,0.996-0.207,1.494c-7.96,0.705-15.967,0.199-23.95,0.337c0,1.946-0.008,3.884,0,5.83
		c6.857,0.031,13.714-0.069,20.571,0.061c-2.337,3.271-4.405,6.88-7.623,9.378c-2.459,1.992-4.398,4.628-7.255,6.099
		c-3.425,1.754-6.512,4.068-9.876,5.915c0.375,0.36,1.126,1.065,1.502,1.425c0.559,0.904,1.157,1.793,1.724,2.697
		c2.559-0.705,4.98-1.777,7.347-2.965l0.192-0.199c4.528-0.644,7.792-4.045,11.584-6.244c3.363-1.862,5.647-5.049,8.412-7.631
		c4.903-5.922,8.336-13.032,10.044-20.525c0.858-3.294,1.264-6.688,1.356-10.083C295.857,70.697,296.141,69.326,295.06,68.582z"/>
	<path fill="#016EAF" d="M335.452,102.546c1.831,1.678,3.823,3.639,6.512,3.578c15.645,0.123,31.297,0.015,46.95,0.046
		c0.015-2.038,0-4.068-0.023-6.099c-14.197-0.061-28.401,0.13-42.598-0.1c-0.069-0.077-0.199-0.23-0.268-0.306
		c0.084-8.068,0-16.135,0.046-24.203c14.135,0,28.263,0.023,42.391-0.015c-0.015-2.13-0.031-4.26-0.038-6.397
		c-18.38,0.054-36.768,0-55.147,0.015c1.287,1.379,1.931,3.195,1.954,5.072C335.444,83.599,335,93.084,335.452,102.546z"/>
	<path fill="#016EAF" d="M327.039,95.873c0.008-2.199,0-4.39-0.008-6.589c-3.563,0.031-7.148-0.146-10.695,0.291
		c-0.084-7.263-0.038-14.519-0.038-21.782c-0.452-0.59-0.904-1.172-1.348-1.77c-3.417-0.774-6.926-0.452-10.389-0.521
		c0.452,2.092,1.042,4.176,0.988,6.344c-0.061,22.54,0.015,45.08-0.031,67.62c3.601-0.023,7.202-0.015,10.803-0.008
		c-0.031-14.526-0.038-29.045,0.008-43.571C319.891,95.865,323.469,95.865,327.039,95.873z"/>
	<path fill="#016EAF" d="M326.35,125.071c0.008,2.038,0.008,4.076,0.008,6.122c23.544,0.123,47.088,0.092,70.631,0.015
		c0.008-2.046,0.015-4.084,0.008-6.122C373.453,124.994,349.894,125.025,326.35,125.071z"/>
</g>
</svg>
