<?xml version="1.0" encoding="utf-8"?>
<!-- Generator: Adobe Illustrator 17.0.0, SVG Export Plug-In . SVG Version: 6.00 Build 0)  -->
<!DOCTYPE svg PUBLIC "-//W3C//DTD SVG 1.1//EN" "http://www.w3.org/Graphics/SVG/1.1/DTD/svg11.dtd">
<svg version="1.1" id="레이어_1" xmlns="http://www.w3.org/2000/svg" xmlns:xlink="http://www.w3.org/1999/xlink" x="0px"
	 y="0px" width="400px" height="200px" viewBox="0 0 400 200" enable-background="new 0 0 400 200" xml:space="preserve">
<g>
	<path fill="#585557" d="M169.673,66.003c3.446-0.011,6.886,0,10.331,0c0.017,20.571,0.006,41.143,0.006,61.714
		c0.023,2.138-0.236,4.817-2.472,5.803c-2.472,0.934-5.192,0.461-7.774,0.657C169.592,111.457,169.771,88.729,169.673,66.003
		L169.673,66.003z"/>
	<path fill="#585557" d="M241.165,66.02c3.348-0.034,6.695-0.006,10.044-0.034c0.075,20.957,0.011,41.921,0.034,62.878
		c0.11,1.914-0.697,4.178-2.679,4.806c-2.391,0.726-4.944,0.34-7.405,0.421C241.16,111.398,241.16,88.712,241.165,66.02
		L241.165,66.02z"/>
	<path fill="#585557" d="M309.639,65.98c3.256,0.092,6.517-0.08,9.773,0.104c0.127,0.08,0.386,0.248,0.519,0.329
		c0.139,6.828,0.006,13.662,0.069,20.496c3.803,0.029,7.612,0.04,11.415-0.011c0.04,2.241,0.011,4.488-0.075,6.737
		c-3.797,0.104-7.601-0.11-11.392,0.196c0.08,11.311,0.011,22.617,0.04,33.928c0.04,2.224-0.438,4.985-2.772,5.912
		c-2.466,0.709-5.071,0.329-7.595,0.461C309.662,111.416,309.627,88.695,309.639,65.98L309.639,65.98z"/>
	<path fill="#585557" d="M197.971,68.568c2.483,0.075,5.007-0.236,7.462,0.23c1.694,0.34,2.391,2.109,2.397,3.67
		c0.052,6.126-0.052,12.256,0.046,18.382c0.144,4.57,1.522,9.127,4.264,12.821c2.823-3.659,4.241-8.223,4.275-12.827
		c0.034-7.428-0.006-14.855,0.011-22.283c2.374,0.052,4.777-0.167,7.14,0.167c1.694,0.346,2.696,2.091,2.679,3.734
		c0.167,6.321-0.052,12.642,0.092,18.963c0.346,4.598,1.383,9.421,4.391,13.063c1.815,2.282,4.322,3.86,6.868,5.203
		c-1.994,1.492-3.889,3.105-5.843,4.65c-4.161-1.51-7.774-4.362-10.413-7.888c-2.576,3.1-5.555,6.137-9.231,7.865
		c-3.647-1.769-6.84-4.587-9.203-7.9c-2.616,3.59-6.177,6.609-10.493,7.888c-1.971-1.688-3.97-3.337-5.97-4.99
		c3.273-0.685,5.964-3.082,7.883-5.728c2.749-3.832,3.602-8.672,3.653-13.299C197.983,83.048,197.977,75.805,197.971,68.568
		L197.971,68.568z"/>
	<path fill="#585557" d="M265.298,68.533c6.667,0.086,13.334-0.034,20.007,0.063c3.59,0.121,7.543,0.79,10.135,3.509
		c2.363,2.304,3.037,5.757,3.031,8.938c-0.069,5.687,0.622,11.669-1.855,16.993c-4.909,10.551-15.559,17.258-26.524,20.099
		c-1.855-1.705-3.792-3.313-5.74-4.903c7.526-1.965,14.705-6.016,19.615-12.124c1.671-2.121,2.904-4.558,3.624-7.157
		c-7.97-0.052-15.932-0.04-23.896,0c-0.017-2.311-0.017-4.616,0-6.927c8.061,0.04,16.123,0.029,24.184,0.006
		c-0.144-2.939,0.508-6.056-0.697-8.845c-0.767-1.861-2.875-2.795-4.8-2.72c-5.687-0.04-11.369-0.011-17.056-0.006
		C265.269,73.154,265.292,70.843,265.298,68.533L265.298,68.533z"/>
	<path fill="#585557" d="M343.175,75.638c0.017-3.78,3.48-6.834,7.191-6.695c13.248-0.046,26.489-0.017,39.737-0.011
		c-0.04,2.213,0.306,4.587-0.934,6.564c-2.53,0.415-5.094,0.248-7.641,0.259c-7.698-0.006-15.397,0.006-23.09-0.011
		c-1.406-0.006-2.795,0.219-4.178,0.421c-0.519,0.968-1.124,1.965-1.031,3.118c0.006,5.209-0.063,10.424,0.029,15.633
		c-0.156,1.458,1.113,2.679,2.559,2.53c11.726,0.11,23.458,0.029,35.184,0.04c0.04,2.132,0.207,4.345-0.732,6.333
		c-1.366,0.335-2.755,0.599-4.161,0.565c-12.095-0.063-24.196,0.052-36.291-0.057c-3.775-0.006-6.823-3.509-6.684-7.209
		C343.118,89.958,343.032,82.789,343.175,75.638L343.175,75.638z"/>
	<path fill="#585557" d="M157.664,73.667c0.139-2.34-1.585-4.673-3.953-4.973c-2.068-0.253-4.155-0.097-6.229-0.127
		c-0.023,5.186,0.069,10.367-0.023,15.546c-5.468-0.057-10.943-0.086-16.417,0.017c-0.173-3.906,0.202-7.842-0.196-11.737
		c-0.133-1.855-1.718-3.284-3.463-3.665c-2.19-0.299-4.402-0.144-6.604-0.179c-0.023,12.614,0.023,25.233-0.023,37.853
		c0.017,1.895,0.144,3.919,1.227,5.549c1.267,1.971,3.624,3.031,5.93,3.014c5.203,0.052,10.401,0,15.605,0.034
		c3.094,0.046,6.408-0.588,8.748-2.755c3.895-3.187,5.312-8.453,5.394-13.305C157.675,90.516,157.687,82.091,157.664,73.667z
		 M147.378,103.573c-0.104,2.391-2.034,4.368-4.425,4.524c-3.687,0.23-7.399,0.11-11.092-0.034
		c-0.501-1.054-0.951-2.167-0.864-3.354c0.023-4.587,0-9.174,0.029-13.761c5.48-0.046,10.96-0.023,16.446-0.011
		C147.464,95.149,147.609,99.367,147.378,103.573z"/>
	<g>
		<path fill="#D93F43" d="M8.847,96.227c-0.299-0.219-0.905-0.662-1.204-0.881l-0.299,0.097c-0.069,5.376,1.113,10.706,2.455,15.892
			c2.409-1.089,4.985-2.011,6.996-3.78c3.636-3.065,3.515-9.127,0.536-12.568C14.799,92.521,11.221,94.608,8.847,96.227z"/>
		<path fill="#D93F43" d="M92.475,80.259c-3.889-8.857-10.568-16.451-18.803-21.516c-9.859-6.195-22.041-8.396-33.491-6.488
			C25.609,54.692,12.39,64.217,5.62,77.367c-4.806,8.978-6.604,19.522-5.105,29.589c1.539,11.237,7.237,21.839,15.748,29.336
			c8.92,7.906,20.837,12.487,32.787,12.095c10.021,0.011,19.966-3.423,27.987-9.399c9.341-6.84,16.06-17.16,18.485-28.489
			C97.725,100.439,96.74,89.663,92.475,80.259z M27.661,104.646c-0.732,2.27-1.908,4.524-3.855,5.981
			c-2.38,1.849-5.371,2.582-8.015,3.959c-2.437,1.071-5.059,2.898-7.825,1.815c-1.481-0.898-2.304-2.576-2.726-4.212
			c-1.308-4.892-1.908-9.969-1.982-15.034c0.092-4.334,0.069-8.834,1.861-12.879c1.694-4.241,4.84-7.687,8.24-10.649
			c1.908-1.417,4.126-3.037,6.644-2.57c1.959,0.357,3.008,2.432,3.301,4.229c0.668,4.553-1.527,9.098-4.731,12.228
			c2.264-0.029,4.696,0.323,6.304,2.091C28.917,93.432,28.894,99.604,27.661,104.646z M69.927,96.768
			c-5.082,4.402-11.946,6.246-18.56,6.385c-6.886,0.236-14.1-2.23-18.721-7.479c-7.365-8.28-7.589-22.179,0.213-30.241
			c6.488-7.312,17.719-9.629,26.702-5.987c0.98,1.412,1.741,2.962,2.115,4.65c-2.489-0.265-4.823-1.285-7.318-1.486
			c-5.74-0.438-11.986,1.781-15.253,6.713c-4.921,7.692-1.613,18.976,6.195,23.407c3.832,2.167,8.407,2.403,12.683,1.849
			c4.184-0.691,8.535-2.282,11.288-5.664c0.472-0.121,0.945-0.236,1.417-0.352C71.402,91.162,72.399,94.792,69.927,96.768z"/>
		<path fill="#D93F43" d="M10.523,91.53c3.371-3.607,6.609-8.729,4.777-13.818c-3.059,0.582-4.921,3.227-6.88,5.388
			c-1.337,1.463-1.054,3.596-1.262,5.417c0.017,1.878-0.495,3.976,0.478,5.681C8.945,94.077,9.555,92.348,10.523,91.53z"/>
	</g>
	<path fill="#585557" d="M334.918,117.408c17.454,0.011,34.914,0,52.368,0.006c4.189-0.069,8.384,0.184,12.568-0.202
		c0.086,1.804,0.409,3.717-0.317,5.434c-0.721,1.216-2.224,1.596-3.544,1.539c-20.358-0.023-40.722-0.017-61.08-0.006
		C334.941,121.921,334.935,119.668,334.918,117.408L334.918,117.408z"/>
</g>
</svg>
