<?xml version="1.0" encoding="utf-8"?>
<!-- Generator: Adobe Illustrator 17.0.0, SVG Export Plug-In . SVG Version: 6.00 Build 0)  -->
<!DOCTYPE svg PUBLIC "-//W3C//DTD SVG 1.1//EN" "http://www.w3.org/Graphics/SVG/1.1/DTD/svg11.dtd">
<svg version="1.1" id="레이어_1" xmlns="http://www.w3.org/2000/svg" xmlns:xlink="http://www.w3.org/1999/xlink" x="0px"
	 y="0px" width="400px" height="200px" viewBox="0 0 400 200" enable-background="new 0 0 400 200" xml:space="preserve">
<g>
	<path fill="#FCAF18" d="M35.502,66.986h0.131c0.399,0.096,1.191,0.282,1.583,0.372c0.447,1.376,0.881,2.808,0.495,4.253
		c-1.142,5.884-1.81,11.843-2.23,17.816c6.648-4.198,13.35-8.32,20.142-12.284c4.129-3.2,8.636-7.535,14.348-6.365
		c-0.358,1.927-0.372,4.239-2.175,5.457c-7.948,6.703-17.665,10.742-26.37,16.309c-2.23,1.438-4.514,2.787-6.675,4.335
		c5.072,3.152,9.813,6.792,14.699,10.199c5.787,2.484,10.577,6.641,15.979,9.765c5.375,0.592,11.155-0.723,15.477-4.067
		c2.663-2.016,3.936-5.402,3.819-8.678c-1.032-2.993-4.948-3.331-7.577-2.546c-4.762,1.548-8.258,6.18-8.602,11.169
		c-2.202,0.461-5.134,2.23-6.882-0.048c-1.452-7.921,0.241-15.89,0.915-23.79c1.844-0.709,3.75-1.232,5.684-1.638
		c1.101,4.239,0.365,8.602-0.117,12.862c3.806-2.03,7.99-3.695,12.387-3.406c4.225,0.028,8.65,1.817,11.086,5.375
		c1.624,4.122-0.048,9.015-3.179,11.981c-4.693,4.452-11.176,6.317-17.465,7.005c-0.846,0.957-1.603,2.099-2.808,2.649
		c-1.06,0.076-2.051-0.399-3.028-0.743c-10.907-4.59-20.418-11.747-30.541-17.748c-0.138,9.276,0.998,18.525,0.977,27.795
		c-1.473-0.268-3.014-0.372-4.404-0.991c-1.321-2.195-1.638-4.803-2.443-7.198c-2.388-7.446-2.209-15.373-2.402-23.102
		c-5.712,3.448-11.465,6.854-17.307,10.082c-2.753,1.307-6.166,3.613-9.022,1.266v-0.64c1.796-2.064,4.535-2.78,6.758-4.246
		c5.244-3.386,10.377-6.93,15.601-10.35C16.406,93.707,9.4,91.291,3.73,86.722c-0.984-0.688-1.28-1.886-1.741-2.925
		c1.514-1.149,3.104-2.209,4.762-3.138c6.132,4.473,13.495,6.73,19.716,11.066c0.736-8.01,2.154-16.062,5.106-23.57
		C32.88,67.756,34.181,67.336,35.502,66.986L35.502,66.986z"/>
	<path fill="#776C62" d="M113.106,76.234c2.395-0.007,4.79,0.007,7.184,0.014c-0.028,6.689,0,13.385-0.034,20.074
		c7.928-6.73,16-13.295,23.893-20.053c3.413-0.062,6.827-0.048,10.233-0.014c-8.444,6.778-16.929,13.515-25.407,20.259
		c9.214,8.086,18.264,16.371,27.485,24.443c-3.358,0.055-6.723,0.007-10.088,0.062c-8.733-7.962-17.472-15.917-26.109-23.989
		c0.041,7.983-0.014,15.965,0.041,23.948c-2.395,0.007-4.79,0.021-7.191,0.021C113.113,106.08,113.127,91.154,113.106,76.234
		L113.106,76.234z"/>
	<path fill="#776C62" d="M217.293,76.207c12.6-0.034,25.2-0.028,37.801-0.007c-0.041,4.845,0,9.696-0.021,14.548
		c1.328,0.007,2.663,0.014,4.005,0.021c-0.007,1.603,0,3.214,0.014,4.824c-6.723,0.021-13.447,0.021-20.17-0.007
		c-0.014,2.354-0.021,4.707-0.021,7.061c5.519-0.007,11.031,0.014,16.543,0c0,6.111-0.034,12.229,0.014,18.339
		c-1.941,0.028-3.881,0.034-5.815,0.028c-0.007-4.535,0.076-9.07-0.048-13.598c-10.969,0.103-21.939,0-32.908,0.048
		c0.007-1.603,0.007-3.207,0-4.81c5.533-0.021,11.059,0,16.585,0c-0.007-2.347,0-4.7,0.021-7.047
		c-6.648-0.007-13.295,0-19.943-0.007c0.021-1.603,0.034-3.2,0.041-4.803c12.008,0.028,24.017,0.021,36.025,0.014
		c-0.055-3.227-0.041-6.462-0.014-9.689c-10.701,0.028-21.402,0.041-32.103-0.014C217.307,79.476,217.3,77.838,217.293,76.207
		L217.293,76.207z"/>
	<path fill="#776C62" d="M299.081,75.856c1.824,0.014,3.654,0.028,5.485,0.034c0.007,9.861,0.007,19.723,0,29.584
		c-1.831-0.021-3.661-0.021-5.485,0.007C299.04,95.606,299.047,85.731,299.081,75.856L299.081,75.856z"/>
	<path fill="#776C62" d="M342.814,76.042c1.886-0.014,3.771-0.028,5.657-0.028c-0.014,3.537,0.007,7.074-0.021,10.611
		c1.934,0.028,3.867,0.041,5.801,0.048c-0.028,1.597-0.028,3.2-0.028,4.796c-1.913,0.014-3.826,0.021-5.739,0.021
		c-0.034,9.813-0.028,19.633,0,29.453c-1.906-0.007-3.806-0.007-5.705,0C342.869,105.977,342.807,91.009,342.814,76.042
		L342.814,76.042z"/>
	<path fill="#776C62" d="M310.236,77.831c8.967-0.034,17.933-0.055,26.9,0c-0.034,9.524-0.028,19.048-0.007,28.572
		c-1.906-0.007-3.805-0.007-5.705,0c0.021-4.439-0.028-8.884,0.021-13.323c-7.081-0.117-14.169,0.062-21.25-0.096
		c0.007-1.645,0.083-3.282,0.317-4.907c6.971,0.179,13.942,0.034,20.913,0.083c0.007-1.858,0-3.716-0.007-5.574
		c-7.067,0.014-14.142,0.083-21.202-0.034C310.223,80.976,310.229,79.407,310.236,77.831L310.236,77.831z"/>
	<path fill="#776C62" d="M361.181,77.893c11.444-0.014,22.895-0.034,34.339,0.014c-0.007,1.603-0.014,3.207-0.014,4.817
		c-9.579-0.034-19.165,0-28.744-0.021c-0.007,5.402,0.007,10.804-0.007,16.206c9.593,0.034,19.186-0.021,28.779,0.028
		c-0.014,1.624-0.014,3.241-0.014,4.858c-11.451,0-22.902,0.014-34.353,0C361.188,95.166,361.167,86.529,361.181,77.893
		L361.181,77.893z"/>
	<path fill="#776C62" d="M291.339,99.529c-0.027-7.508-0.014-15.023-0.007-22.537c-8.87,0.014-17.734,0.034-26.604-0.014
		c0.048,7.522,0.014,15.036,0.014,22.551C273.606,99.508,282.476,99.508,291.339,99.529z M270.282,81.877
		c5.175-0.014,10.35-0.014,15.525-0.007c0.014,4.15-0.062,8.306,0.076,12.456c-5.189,0.413-10.412,0.365-15.601,0.145
		C270.302,90.273,270.309,86.075,270.282,81.877z"/>
	<path fill="#776C62" d="M199.697,103.245c-1.755-3.124-5.168-4.865-8.602-5.45c2.175-1.177,4.604-2.154,6.111-4.225
		c3.434-4.425,2.505-11.912-2.484-14.809c-3.537-1.948-7.673-2.402-11.651-2.443c-7.219,0.007-14.444,0.021-21.663,0.007
		c0.041,14.919,0.014,29.839,0.007,44.758c7.914-0.048,15.828,0.014,23.742-0.021c4.466-0.11,9.276-1.067,12.586-4.287
		C201.349,113.388,201.913,107.539,199.697,103.245z M168.537,81.588c5.065,0,10.137-0.076,15.208,0
		c2.388,0.034,5.01,0.365,6.806,2.099c2.402,2.436,2.395,6.882-0.117,9.242c-1.913,1.913-4.803,2.14-7.356,2.175
		c-4.845,0.021-9.696,0-14.541,0C168.551,90.596,168.558,86.096,168.537,81.588z M192.293,112.728
		c-2.085,2.47-5.526,3.138-8.595,3.276c-5.051,0.103-10.102-0.007-15.146,0.041c0-5.237-0.014-10.467,0-15.697
		c5.072,0.041,10.144-0.062,15.215,0.041c3.104,0.124,6.565,0.881,8.519,3.517C194.047,106.472,194.041,110.161,192.293,112.728z"/>
	<path fill="#776C62" d="M269.676,104.36c1.927-0.028,3.854-0.034,5.787-0.021c0.014,3.874,0.021,7.749-0.007,11.623
		c9.868-0.007,19.736,0.014,29.612-0.007c0,1.638-0.007,3.283-0.014,4.92c-11.795-0.076-23.59,0.014-35.378-0.055
		C269.669,115.336,269.662,109.844,269.676,104.36L269.676,104.36z"/>
	<path fill="#776C62" d="M357.251,113.037c14.245-0.014,28.497,0.048,42.742-0.007c-0.007,1.652,0,3.31,0.007,4.962
		c-14.238-0.048-28.476-0.021-42.714-0.007C357.258,116.333,357.251,114.689,357.251,113.037L357.251,113.037z"/>
</g>
</svg>
