<?xml version="1.0" encoding="utf-8"?>
<!-- Generator: Adobe Illustrator 17.0.0, SVG Export Plug-In . SVG Version: 6.00 Build 0)  -->
<!DOCTYPE svg PUBLIC "-//W3C//DTD SVG 1.1//EN" "http://www.w3.org/Graphics/SVG/1.1/DTD/svg11.dtd">
<svg version="1.1" id="레이어_1" xmlns="http://www.w3.org/2000/svg" xmlns:xlink="http://www.w3.org/1999/xlink" x="0px"
	 y="0px" width="708.661px" height="141.732px" viewBox="0 0 708.661 141.732" enable-background="new 0 0 708.661 141.732"
	 xml:space="preserve">
<g>
	<g>
		<path d="M98.717,73.973c-5.113-1.95-8.571-3.993-10.383-6.135c-1.812-2.146-2.716-5.03-2.716-8.649
			c0-4.651,1.488-8.311,4.47-10.968c2.981-2.657,7.073-3.988,12.274-3.988c2.363,0,4.72,0.27,7.083,0.806
			c2.363,0.54,4.7,1.336,7.014,2.392v9.902c-2.176-1.537-4.391-2.706-6.636-3.507c-2.245-0.801-4.47-1.203-6.67-1.203
			c-2.451,0-4.332,0.491-5.639,1.478c-1.307,0.987-1.96,2.397-1.96,4.229c0,1.419,0.476,2.593,1.424,3.527
			c0.953,0.923,2.942,1.95,5.968,3.075l4.366,1.65c4.126,1.513,7.161,3.517,9.111,6.017c1.95,2.5,2.922,5.644,2.922,9.46
			c0,5.177-1.532,9.047-4.588,11.601c-3.065,2.554-7.687,3.841-13.876,3.841c-2.544,0-5.093-0.305-7.647-0.914
			c-2.559-0.609-5.03-1.513-7.412-2.701V83.393c2.706,1.925,5.324,3.36,7.854,4.303c2.534,0.943,5.039,1.415,7.515,1.415
			c2.5,0,4.435-0.57,5.811-1.709c1.375-1.13,2.063-2.721,2.063-4.755c0-1.542-0.457-2.893-1.375-4.052
			c-0.918-1.154-2.245-2.068-3.988-2.731L98.717,73.973z"/>
		<path d="M136.532,54.1v-8.939h30.565V54.1h-10.211v33.458h10.211v8.939h-30.565v-8.939h10.211V54.1H136.532z"/>
		<path d="M183.213,70.878c0-8.777,1.518-15.413,4.558-19.907c3.035-4.494,7.52-6.739,13.458-6.739
			c5.958,0,10.457,2.245,13.497,6.739c3.035,4.494,4.553,11.13,4.553,19.907c0,8.758-1.518,15.383-4.553,19.883
			c-3.04,4.489-7.539,6.739-13.497,6.739c-5.938,0-10.423-2.25-13.458-6.739C184.73,86.262,183.213,79.636,183.213,70.878z
			 M201.229,53.344c-2.588,0-4.479,1.38-5.673,4.141c-1.194,2.765-1.788,7.23-1.788,13.394c0,6.145,0.594,10.599,1.788,13.36
			s3.085,4.145,5.673,4.145c2.613,0,4.514-1.385,5.707-4.145c1.194-2.76,1.788-7.215,1.788-13.36c0-6.164-0.594-10.629-1.788-13.394
			C205.742,54.724,203.842,53.344,201.229,53.344z"/>
		<path d="M255.753,96.498h-10.143V54.031H232.58v-8.871h36.204v8.871h-13.031V96.498z"/>
	</g>
	<g>
		<path d="M319.694,53.955v33.822h-0.791V53.955H319.694z"/>
		<path d="M331.447,70.734c0-5.462,0.943-9.597,2.834-12.392c1.891-2.795,4.686-4.195,8.384-4.195c3.708,0,6.508,1.4,8.399,4.195
			c1.886,2.795,2.829,6.93,2.829,12.392c0,5.452-0.943,9.583-2.829,12.377c-1.891,2.8-4.691,4.195-8.399,4.195
			c-3.699,0-6.493-1.395-8.384-4.195C332.39,80.316,331.447,76.185,331.447,70.734z M342.665,59.82c-1.616,0-2.795,0.86-3.536,2.579
			c-0.742,1.719-1.11,4.499-1.11,8.335c0,3.826,0.368,6.596,1.11,8.315c0.742,1.719,1.92,2.588,3.536,2.588
			c1.626,0,2.809-0.869,3.551-2.588c0.742-1.719,1.115-4.489,1.115-8.315c0-3.836-0.373-6.616-1.115-8.335
			S344.291,59.82,342.665,59.82z"/>
		<path d="M370.249,53.955v33.822h-0.786V53.955H370.249z"/>
		<path d="M403.836,60.291H390.25v6.891h12.368v5.565H390.25v13.939h-6.316v-31.96h19.902V60.291z"/>
		<path d="M420.81,53.955v33.822h-0.786V53.955H420.81z"/>
		<path d="M454.396,60.291h-13.586v6.891h12.368v5.565h-12.368v13.939h-6.316v-31.96h19.902V60.291z"/>
		<path d="M471.361,53.955v33.822h-0.786V53.955H471.361z"/>
		<path d="M484.839,60.291v-5.565h19.028v5.565h-6.356v20.835h6.356v5.56h-19.028v-5.56h6.356V60.291H484.839z"/>
		<path d="M521.922,53.955v33.822h-0.786V53.955H521.922z"/>
		<path d="M554.85,85.763c-0.992,0.511-2.043,0.904-3.143,1.159s-2.25,0.383-3.468,0.383c-4.312,0-7.594-1.424-9.863-4.254
			c-2.269-2.854-3.409-6.95-3.409-12.319c0-5.378,1.139-9.489,3.409-12.328c2.269-2.839,5.55-4.258,9.863-4.258
			c1.218,0,2.377,0.128,3.487,0.383c1.12,0.26,2.161,0.643,3.124,1.159v7.019c-1.081-0.997-2.132-1.729-3.153-2.196
			c-1.022-0.462-2.073-0.693-3.153-0.693c-2.318,0-4.057,0.914-5.236,2.751c-1.179,1.832-1.768,4.553-1.768,8.163
			c0,3.595,0.589,6.312,1.768,8.148c1.179,1.827,2.918,2.755,5.236,2.755c1.081,0,2.132-0.236,3.153-0.697
			c1.022-0.467,2.073-1.194,3.153-2.196V85.763z"/>
		<path d="M572.483,53.955v33.822h-0.786V53.955H572.483z"/>
		<path d="M605.784,86.687h-19.912v-31.96h19.912v5.565h-13.596v6.891h12.309v5.565h-12.309v8.379h13.596V86.687z"/>
		<path d="M623.044,53.955v33.822h-0.786V53.955H623.044z"/>
	</g>
</g>
</svg>
