<?xml version="1.0" encoding="utf-8"?>
<!-- Generator: Adobe Illustrator 17.0.0, SVG Export Plug-In . SVG Version: 6.00 Build 0)  -->
<!DOCTYPE svg PUBLIC "-//W3C//DTD SVG 1.1//EN" "http://www.w3.org/Graphics/SVG/1.1/DTD/svg11.dtd">
<svg version="1.1" id="레이어_1" xmlns="http://www.w3.org/2000/svg" xmlns:xlink="http://www.w3.org/1999/xlink" x="0px"
	 y="0px" width="400px" height="200px" viewBox="0 0 400 200" enable-background="new 0 0 400 200" xml:space="preserve">
<g>
	<path fill="#EB2D2E" d="M85.597,52.172c14.436-5.516,30.943-5.54,45.324,0.16c12.022,4.788,22.838,12.958,30.016,23.805
		c-5.18,0.136-10.368,0.088-15.548,0.008c-9.297-10.328-23.013-16.595-36.962-16.283c-14.205-0.456-28.321,5.755-37.786,16.315
		c-5.124,0.064-10.256,0.04-15.388-0.008C62.439,65.178,73.486,57.008,85.597,52.172L85.597,52.172z"/>
	<path fill="#32347F" d="M351.599,68.663c4.061-2.254,8.137-4.508,12.222-6.731c0.056,17.818-0.088,35.627-0.232,53.445
		c6.459-9.624,12.982-19.193,19.528-28.753c4.62,0.016,9.249,0,13.877-0.008c-4.86,6.914-9.928,13.685-14.828,20.567
		c-0.807,0.911-0.128,2.15,0.224,3.102c5.907,13.413,11.711,26.866,17.61,40.28c-4.444,0.008-8.889,0-13.333,0.024
		c-4.572-10.504-9.049-21.063-13.557-31.599c-3.102,4.301-6.283,8.545-9.344,12.878c0.096,6.227,0.008,12.462,0.056,18.689
		c-4.069,0.04-8.137,0-12.206,0.016C351.583,123.267,351.623,95.969,351.599,68.663L351.599,68.663z"/>
	<path fill="#32347F" d="M100.265,73.315c4.357-2.254,8.609-4.708,12.934-7.01c0.048,6.715-0.008,13.429,0.032,20.136
		c4.452-0.04,8.897-0.008,13.349-0.024c0.032,4.061,0,8.121,0.04,12.19c-4.468,0-8.929,0.008-13.389-0.008
		c-0.024,11.263-0.008,22.526-0.016,33.789c-0.064,2.598,0.639,5.883,3.397,6.866c4.676,1.487,9.281-1.103,13.245-3.333
		c-0.991,4.125-1.942,8.273-3.086,12.366c-5.787,4.069-14.468,4.676-20.432,0.568c-4.173-2.982-6.099-8.305-6.115-13.301
		c0.016-12.31,0-24.628,0.008-36.946c-3.733,0.008-7.466-0.008-11.207,0.008c0.024-4.061,0.016-8.13,0-12.198
		c3.725,0.008,7.458,0,11.191,0.016C100.249,82.06,100.185,77.688,100.265,73.315L100.265,73.315z"/>
	<path fill="#32347F" d="M6.22,98.103c8.161-10.911,23.373-15.46,36.315-11.615c5.611,1.727,10.424,5.428,14.165,9.888
		c-2.494,3.101-5.028,6.179-7.538,9.281c-3.989-4.54-9.76-7.858-15.939-7.674c-6.451-0.32-12.79,3.102-16.307,8.457
		c-3.389,4.988-4.125,11.407-2.966,17.226c1.591,8.034,8.697,14.796,16.954,15.412c6.914,0.911,13.797-2.398,18.201-7.634
		c2.518,3.125,5.196,6.131,7.57,9.368c-3.973,4.42-8.753,8.377-14.604,9.96c-10.911,2.926-23.413,0.312-31.798-7.402
		c-5.779-4.98-9.249-12.334-10-19.872C-0.662,114.722,0.681,105.234,6.22,98.103L6.22,98.103z"/>
	<path fill="#32347F" d="M301.831,92.436c3.189-4.668,8.865-7.05,14.412-7.05c5.891-0.248,12.222,1.295,16.355,5.755
		c5.052,5.46,6.371,13.205,6.627,20.384c0.016,13.014,0,26.027,0.008,39.041c-4.133,0.016-8.257-0.008-12.39,0.008
		c-0.04-12.71,0.024-25.42-0.024-38.129c-0.224-4.628-1.135-9.848-4.884-12.982c-4.365-3.269-10.975-3.277-15.348-0.016
		c-3.565,2.894-4.548,7.762-4.708,12.126c-0.048,13.006,0.032,26.019-0.04,39.025c-4.053-0.048-8.106-0.024-12.158-0.032
		c-0.016-21.311-0.024-42.622,0-63.941c4.061,0.016,8.121-0.008,12.182,0C301.871,88.559,301.863,90.502,301.831,92.436
		L301.831,92.436z"/>
	<path fill="#32347F" d="M63.846,150.573c-0.008-21.383-0.024-42.766,0.008-64.156c4.524,0.008,9.049,0.008,13.581,0
		c-0.008,21.391-0.008,42.774,0,64.164C72.903,150.565,68.378,150.565,63.846,150.573L63.846,150.573z"/>
	<path fill="#32347F" d="M139.194,86.425c4.524,0,9.049-0.008,13.573,0c0.024,21.383-0.016,42.758,0.024,64.132
		c-4.54,0.032-9.073,0.008-13.605,0.016C139.186,129.19,139.178,107.808,139.194,86.425L139.194,86.425z"/>
	<path fill="#32347F" d="M222.926,117.967c-0.208-8.673-1.695-17.93-7.226-24.916c-3.981-5.124-10.52-7.938-16.962-7.674
		c-5.963-0.056-11.239,3.349-15.571,7.13c-0.04-10.184-0.016-20.376,0-30.567c-4.117,2.126-8.177,4.357-12.222,6.595
		c0.032,27.346,0,54.692,0.008,82.038c4.069-0.008,8.137,0,12.198,0c0.008-1.894,0-3.781-0.032-5.667
		c2.83,2.822,6.139,5.364,10.088,6.331c7.922,2.174,16.898-0.719,22.134-7.034C221.408,136.984,223.19,127.16,222.926,117.967z
		 M206.811,135.625c-3.006,4.237-8.897,5.18-13.645,3.837c-4.197-1.199-7.434-4.325-10.208-7.546
		c0.024-8.849-0.104-17.714,0.048-26.563c1.527-2.606,4.013-4.628,6.531-6.259c5.052-3.173,12.55-2.774,16.419,2.07
		c3.509,4.532,4.229,10.504,4.564,16.051C210.68,123.467,210.496,130.286,206.811,135.625z"/>
	<path fill="#32347F" d="M272.798,92.788c-3.405-4.237-8.729-6.499-14.029-7.146c-9.001-0.983-18.505,0.512-26.187,5.5
		c1.599,3.205,3.197,6.419,4.812,9.616c4.724-2.814,10.24-4.077,15.715-3.989c3.493-0.112,7.426,0.624,9.736,3.477
		c2.726,3.213,2.182,7.706,2.214,11.615c-6.97-2.662-14.732-2.886-21.998-1.407c-6.891,1.399-13.549,6.171-15.324,13.253
		c-1.918,7.65-0.799,16.826,5.196,22.446c5.164,5.244,13.221,6.747,20.24,5.236c4.604-0.911,8.561-3.677,11.91-6.867
		c-0.024,2.022-0.016,4.053,0.016,6.075c3.989-0.04,7.978-0.032,11.974-0.024c0.024-14.844-0.008-29.688,0.016-44.532
		C277.043,101.341,275.836,96.473,272.798,92.788z M252.463,140.246c-3.765,0.384-8.066,0.112-10.991-2.566
		c-2.814-2.478-3.102-6.627-2.606-10.104c0.52-3.461,3.725-5.851,7.01-6.443c6.387-1.367,13.085-0.224,19.121,2.086
		c0.112,3.014,0.056,6.035,0.08,9.057C262.095,136.417,257.626,139.686,252.463,140.246z"/>
</g>
</svg>
