<?xml version="1.0" encoding="utf-8"?>
<!-- Generator: Adobe Illustrator 17.0.0, SVG Export Plug-In . SVG Version: 6.00 Build 0)  -->
<!DOCTYPE svg PUBLIC "-//W3C//DTD SVG 1.1//EN" "http://www.w3.org/Graphics/SVG/1.1/DTD/svg11.dtd">
<svg version="1.1" id="레이어_1" xmlns="http://www.w3.org/2000/svg" xmlns:xlink="http://www.w3.org/1999/xlink" x="0px"
	 y="0px" width="400px" height="200px" viewBox="0 0 400 200" enable-background="new 0 0 400 200" xml:space="preserve">
<g>
	<path fill="#FABE00" d="M11.89,71.202c3.827,2.005,7.704,3.929,11.562,5.883c3.837-1.974,7.704-3.898,11.541-5.872
		c-3.776,7.379-7.755,14.635-11.552,21.994C19.655,85.837,15.696,78.56,11.89,71.202L11.89,71.202z"/>
	<path fill="#FABE00" d="M0.084,73.054c4.57,2.168,9.445,3.694,13.862,6.157c3.257,4.488,5.191,9.821,8.101,14.544
		c-5.129,1.242-9.923,5.119-10.381,10.676c-1.262,7.867,7.073,15.266,14.717,12.885c6.737-1.537,10.91-9.587,8.071-15.948
		c-1.516-4.102-5.506-6.524-9.587-7.491c2.84-4.824,4.804-10.198,8.132-14.686c4.448-2.483,9.343-4.03,13.964-6.157
		c-0.01,3.796-0.02,7.592,0.041,11.389c-2.667,1.272-5.384,2.443-8.122,3.542c5.801,5.343,9.2,13.495,7.806,21.383
		c-1.16,8.01-6.778,15.154-14.269,18.197c-3.45,1.547-7.328,1.221-11.002,1.231c-9.262,0.183-17.434-7.043-20.263-15.551
		c-2.941-8.885-0.112-19.073,6.87-25.291c-2.636-1.069-5.272-2.158-7.888-3.257C0.094,80.799,0.094,76.922,0.084,73.054
		L0.084,73.054z"/>
	<path fill="#005BAC" d="M63.979,79.222c4.417,0.214,9.424-0.957,13.302,1.771c3.705,2.738,6.259,6.656,9.048,10.249
		c5.547,7.246,10.931,14.595,16.61,21.739c-0.041-11.267,0.02-22.523-0.041-33.789c3.145,0.468,8.895-1.649,9.689,2.819
		c0.305,13.811,0,27.632,0.142,41.453c-3.135-0.041-6.3,0.244-9.404-0.275c-4.112-1.15-6.931-4.641-9.557-7.786
		c-6.595-8.62-13.261-17.19-19.826-25.831c0,11.297-0.02,22.594,0.02,33.891c-2.575-0.01-5.17,0.163-7.725-0.142
		c-2.127-0.336-2.178-3.033-2.249-4.702C63.968,105.49,64.009,92.351,63.979,79.222L63.979,79.222z"/>
	<path fill="#005BAC" d="M122.764,79.476c2.687-0.519,5.445-0.244,8.173-0.295c-0.031,5.893-0.02,11.786-0.02,17.678
		c9.323-0.041,18.645,0.02,27.968-0.031c0-5.883,0.02-11.755-0.031-17.627c3.145,0.478,8.916-1.679,9.72,2.778
		c0.295,11.867,0,23.754,0.142,35.632c-0.142,1.913,0.407,4.834-1.873,5.689c-2.646,0.336-5.323,0.153-7.979,0.163
		c0.031-6.28,0.02-12.549,0.02-18.818c-9.333-0.041-18.655,0-27.988-0.02c0.041,6.28,0,12.559,0.041,18.839
		c-3.114-0.529-9.18,1.812-9.648-2.84c-0.102-11.877,0-23.765-0.061-35.652C121.349,83.11,120.83,80.606,122.764,79.476
		L122.764,79.476z"/>
	<path fill="#005BAC" d="M179.606,79.018c2.473-0.01,4.936,0.051,7.409,0.122c0.478,4.081,0.265,8.203,0.753,12.274
		c12.824,0.204,25.678-0.265,38.491,0.224c0.102,0.753,0.316,2.27,0.417,3.023c-6.758,0.204-13.516,0.051-20.263,0.102
		c0,2.056-0.01,4.122-0.01,6.178c7.073,0.061,14.137-0.02,21.2,0.061c0.112,1.689-0.234,3.908-2.534,3.43
		c-8.539,0.173-17.088-0.153-25.617,0.122c-4.183,0.265-9.119,1.791-10.819,6.015c-1.649,3.654,0.835,7.837,4.264,9.343
		c5.811,2.504,12.63,2.544,18.564,0.427c3.267-1.13,6.127-4.234,5.72-7.888c-0.041-2.402-1.985-4.04-3.399-5.74
		c3.145,0.071,6.29,0.071,9.435,0.071c2.3,4.254,2.239,10.167-1.822,13.353c-6.351,5.048-15.083,5.333-22.838,4.936
		c-6.198-0.611-13.597-2.056-16.976-7.898c-2.524-4.56-0.336-9.913,3.348-13.078c-2.015,0.173-4.04,0.336-6.066,0.478
		c-0.875-1.201-1.751-2.402-2.626-3.603c7.511-0.01,15.022-0.02,22.533,0c0-2.076,0-4.152,0.01-6.218
		c-5.231-0.051-10.452,0.142-15.663-0.051c-1.924,0.163-3.664-1.628-3.471-3.532C179.504,87.12,179.656,83.069,179.606,79.018
		L179.606,79.018z"/>
	<path fill="#005BAC" d="M330.487,78.387c2.361,0.031,4.753-0.081,7.114,0.254c1.282,4.214,0.315,8.814,0.57,13.19
		c2.107-0.01,4.203-0.02,6.31-0.02c0.061,1.058,0.132,2.117,0.204,3.186c-2.178,0.142-4.346,0.265-6.503,0.356
		c0.031,9.17,0.01,18.34,0.01,27.5c-2.575,0-5.14,0-7.694,0C330.477,108.034,330.508,93.216,330.487,78.387L330.487,78.387z"/>
	<path fill="#005BAC" d="M291.823,80.168c9.221,0.01,18.452-0.092,27.683,0.02c2.758-0.417,2.565,3.033,2.158,4.834
		c-1.995,15.928-15.063,28.487-29.902,33.291c-0.855-0.936-1.71-1.873-2.565-2.799c8.692-2.778,16.152-8.824,20.599-16.793
		c-5.252-0.031-10.493-0.01-15.745-0.01c-0.743-1.099-1.486-2.198-2.229-3.298c6.524-0.051,13.058-0.01,19.582-0.031
		c1.191-3.857,1.974-7.816,2.341-11.836c-6.564-0.02-13.129-0.01-19.693-0.01C293.309,82.407,292.566,81.288,291.823,80.168
		L291.823,80.168z"/>
	<path fill="#005BAC" d="M352.766,80.138c14.808,0.041,29.606-0.01,44.415,0.031c0.041,0.814,0.142,2.443,0.183,3.257
		c-12.294,0.244-24.599,0.051-36.894,0.102c0.173,6.351-0.366,12.732,0.387,19.052c12.294,0.061,24.589,0,36.883,0.031
		c0.01,1.099,0.01,2.209,0.02,3.318c-13.841-0.031-27.683,0.071-41.514-0.041c-1.913,0.163-3.613-1.639-3.43-3.542
		C352.654,94.946,352.817,87.537,352.766,80.138L352.766,80.138z"/>
	<path fill="#005BAC" d="M282.053,93.165c-0.051-4.987,0.315-10.005-0.539-14.951c-2.504-0.051-5.007-0.112-7.501-0.102
		c0.01,2.86,0.01,5.72,0.02,8.58c-6.127,0-12.244,0.051-18.37-0.041c1.354,2.565,2.829,5.537,1.415,8.427
		c-1.801,5.984-11.063,6.849-14.076,1.455c-3.053-4.509-0.031-11.643,5.476-12.162c6.259-0.305,12.539,0,18.808-0.112
		c0-1.191,0-2.371,0-3.552c-4.437,0-8.865-0.01-13.302,0.02c-0.407-1.181-0.784-2.371-1.12-3.572
		c-2.382,0.02-4.753,0.031-7.134,0.031c0.02,0.875,0.041,2.646,0.051,3.521c-4.956,0.01-9.913,0-14.869,0
		c0.743,1.191,1.486,2.382,2.239,3.572c1.74-0.02,3.481-0.041,5.231-0.071c-1.801,1.985-4.061,4.01-4.163,6.9
		c-0.641,4.295,2.178,8.335,5.913,10.198c7.46,3.827,17.587,2.911,23.378-3.501c3.501-0.03,7.012-0.02,10.513-0.01
		c0,4.051,0,8.112,0.01,12.172c-9.485,0-18.971-0.031-28.456,0.01c-0.224-1.71,0.183-3.694-1.059-5.099
		c-2.31-0.326-4.651-0.193-6.972-0.224c0.102,5.292-0.173,10.585,0.092,15.867c0.112,2.219,2.605,3.135,4.519,2.901
		c13.302-0.031,26.614,0.051,39.916-0.061C282.022,113.296,282.073,103.231,282.053,93.165z M245.475,119.962
		c-0.01-2.219,0-4.427,0.02-6.636c9.506,0.01,19.012,0,28.517,0c0.01,2.239,0.01,4.468,0.02,6.707
		C264.517,119.993,254.991,120.125,245.475,119.962z M274.012,94.417c-2.941,0-5.883,0-8.824,0.031c0-1.405,0.02-2.819,0.041-4.224
		c2.931,0.031,5.872,0.041,8.814,0.051C274.022,91.648,274.012,93.033,274.012,94.417z"/>
	<path fill="#005BAC" d="M348.563,117.815c17.129-0.02,34.268-0.02,51.397,0c0.01,0.804,0.03,2.412,0.041,3.216
		c-16.396,0.051-32.782-0.031-49.178,0.041C350.069,119.983,349.316,118.894,348.563,117.815L348.563,117.815z"/>
</g>
</svg>
