<?xml version="1.0" encoding="utf-8"?>
<!-- Generator: Adobe Illustrator 17.0.0, SVG Export Plug-In . SVG Version: 6.00 Build 0)  -->
<!DOCTYPE svg PUBLIC "-//W3C//DTD SVG 1.1//EN" "http://www.w3.org/Graphics/SVG/1.1/DTD/svg11.dtd">
<svg version="1.1" id="레이어_1" xmlns="http://www.w3.org/2000/svg" xmlns:xlink="http://www.w3.org/1999/xlink" x="0px"
	 y="0px" width="400px" height="200px" viewBox="0 0 400 200" enable-background="new 0 0 400 200" xml:space="preserve">
<g>
	<path fill="#53FFFE" d="M60.147,47.856h8.573c3.526,0.605,7.156,0.72,10.598,1.765c-3.133,0.314-6.375-0.995-9.594-0.885
		c-2.095-0.366-4.228-0.169-6.339-0.169c-3.341-0.201-6.695,0.183-9.948,0.939c-1.758,0.289-3.456,0.862-5.124,1.472
		c-3.246,1.059-6.366,2.661-9.063,4.754c-1.149,0.86-2.327,1.679-3.377,2.661c-1.104,1.081-2.302,2.102-3.172,3.395
		c-2.325,2.544-4.104,5.655-5.131,8.946c-0.415,1.174-0.824,2.35-1.169,3.546c0.183-2.693,1.027-5.302,2.257-7.695
		C34.442,54.905,47.612,48.747,60.147,47.856L60.147,47.856z"/>
	<path fill="#20FFFE" d="M53.438,49.506c3.253-0.756,6.607-1.14,9.948-0.939c1.149,0.639,4.203-0.088,4.072,1.713
		c-5.406,2.485-11.535,3.029-16.896,5.698c-5.898,2.711-10.95,7.233-14.287,12.804c-1.447,2.068-2.995,4.44-5.35,5.485
		c-2.16,0.016-1.815-2.795-1.488-4.21c0.424-3.002,2.167-5.53,3.264-8.269c0.869-1.293,2.068-2.314,3.172-3.395
		c0.115,0.023,0.341,0.07,0.456,0.095c-2.598,3.248-5.305,6.808-5.86,11.032c-0.535,0.817,0.612,2.126,1.35,1.348
		c4.966-4.036,8.596-9.598,14.233-12.847c5.117-3.526,11.219-4.959,16.901-7.253c0.422-0.354,1.512-0.339,1.4-1.081
		C60.801,48.445,57.041,49.774,53.438,49.506L53.438,49.506z"/>
	<path fill="#11FEFE" d="M63.386,48.567c2.111,0,4.244-0.196,6.339,0.169c0.485,0.519,1.431,0.907,1.131,1.779
		c-1.822,1.788-4.458,1.815-6.808,2.237c-6.133,0.923-12.341,2.415-17.546,5.939c-4.273,2.874-8.054,6.878-9.691,11.844
		c-1.05,2.578-1.711,5.573-4.16,7.26c-1.456,0.612-3.666,0.199-4.203-1.492c-0.688-2.032-0.535-4.257-0.217-6.35
		c-0.212,0.266-0.422,0.535-0.659,0.781c1.027-3.291,2.806-6.402,5.131-8.946c-1.097,2.738-2.84,5.266-3.264,8.269
		c-0.327,1.415-0.673,4.226,1.488,4.21c2.354-1.045,3.903-3.418,5.35-5.485c3.336-5.571,8.388-10.093,14.287-12.804
		c5.361-2.668,11.49-3.212,16.896-5.698C67.589,48.479,64.535,49.205,63.386,48.567L63.386,48.567z"/>
	<path fill="#03FEFF" d="M69.725,48.736c3.219-0.111,6.46,1.199,9.594,0.885c3.242,0.786,6.431,1.869,9.379,3.442
		c0.842,0.544,2.352,1.255,1.634,2.449l-0.219,0.027c-0.368,0.011-0.725,0.088-0.984,0.361c-0.093,0.034-0.278,0.099-0.37,0.131
		c-1.867,0.804-2.955,2.806-3.754,4.605c-0.72,0.023-0.42-1.508-1.079-1.896c-5.009-5.384-13.018-5.743-19.878-5.989
		c2.35-0.422,4.986-0.449,6.808-2.237C71.156,49.643,70.21,49.255,69.725,48.736L69.725,48.736z"/>
	<path fill="#2FFFFE" d="M53.438,49.506c3.603,0.269,7.363-1.061,10.914,0.181c0.113,0.743-0.977,0.727-1.4,1.081
		c-5.682,2.293-11.783,3.727-16.901,7.253c-5.637,3.248-9.266,8.81-14.233,12.847c-0.738,0.779-1.885-0.53-1.35-1.348
		c0.555-4.223,3.262-7.783,5.86-11.032c-0.115-0.025-0.341-0.072-0.456-0.095c1.05-0.982,2.228-1.801,3.377-2.661
		c0.467-0.142,0.935-0.296,1.411-0.413c-3.693,2.964-7.129,6.605-8.72,11.149c-0.625,0.695,0.088,1.935,0.867,1.33
		c4.461-3.081,8.025-7.332,12.781-10.027c4.221-2.763,8.935-4.596,13.578-6.497c0.788-0.377,1.767-0.569,2.264-1.361
		c-4.695-0.905-9.307,0.862-13.84,1.795c0.223-0.257,0.472-0.494,0.722-0.729C49.982,50.368,51.679,49.795,53.438,49.506
		L53.438,49.506z"/>
	<path fill="#3EFFFE" d="M47.591,51.707c4.533-0.932,9.144-2.7,13.84-1.795c-0.497,0.792-1.476,0.984-2.264,1.361
		c-4.643,1.901-9.357,3.734-13.578,6.497c-4.756,2.695-8.321,6.946-12.781,10.027c-0.779,0.605-1.492-0.634-0.867-1.33
		c1.591-4.544,5.027-8.185,8.72-11.149c-0.476,0.117-0.944,0.271-1.411,0.413c2.698-2.093,5.817-3.695,9.063-4.754
		C48.063,51.212,47.815,51.449,47.591,51.707L47.591,51.707z"/>
	<path fill="#05ABFE" d="M100.63,49.801c5.203-0.384,10.458,0.038,15.677-0.199c1.223,0.228,2.551,0.372,3.596,1.102
		c0.253,1.063,1.634,2.151,0.828,3.26c-0.867-0.253-1.621-0.786-2.449-1.129c-5.391-1.081-10.792-2.248-16.26-2.948
		c-0.354-0.043-0.688,0.097-1.011,0.212C100.916,50.025,100.725,49.876,100.63,49.801L100.63,49.801z"/>
	<path fill="#0280FF" d="M101.011,50.099c0.323-0.115,0.657-0.255,1.011-0.212c5.467,0.7,10.869,1.867,16.26,2.948
		c0.828,0.343,1.582,0.876,2.449,1.129c0.806-1.108-0.576-2.196-0.828-3.26c3.512,2.151,1.038,6.824-0.219,9.616
		c-0.526,0.115-1.257,0.345-0.903-0.47c0.65-1.86,2.837-5.009,0.208-6.185c-0.115-0.056-0.348-0.172-0.463-0.228
		c-0.878-0.102-1.916-0.447-2.736,0.041c-3.436,9.3-6.968,18.763-10.226,28.16c-0.479,1.725,0.795,3.149,0.801,4.817
		c1.029-0.334,1.018-1.874,2.007-2.045c-0.275,1.472-1.391,2.754-0.984,4.35c-0.341,0.878-0.682,1.763-1.185,2.567
		c-0.332-1.287-0.185-3.061-1.454-3.986c-0.591-0.521-1.675-0.501-2.178,0.099c-0.847,2.108-2.603,3.695-3.429,5.824
		c-2.093,5.005-4.546,9.926-5.77,15.237c-0.598,1.465,0.158,3.494,2.045,2.995c1.822-3.506,5.598-5.271,8.027-8.278
		c5.788-5.068,11.553-10.429,18.614-13.682c6.266-2.251,12.955-3.199,19.571-3.664c0.763-0.072,2.384-0.359,1.702-1.646
		c-0.499-1.995-2.761-2.637-4.524-2.916c-2.359,0.05-4.729-0.488-7.061,0.077c-0.415,0.151-0.736-0.239-0.903-0.567
		c0.467-0.108,0.935-0.214,1.409-0.305c0.384,0.154,0.849,0.199,1.178-0.099c0.271-0.047,0.542-0.095,0.813-0.14
		c1.693,0.09,3.391,0.086,5.09,0.02c2.183,0.154,4.278,0.905,6.187,1.95c2.795,1.754,4.032,5.077,4.461,8.203
		c-0.032,0.203-0.095,0.605-0.126,0.808c-1.154-1.957-1.135-4.673-2.704-6.573c-0.174-0.718-1.361-1.122-1.481-0.187
		c-0.544,3.235-1.002,6.558-2.348,9.578c-1.097,4.011-2.124,8.081-3.571,12.023c-0.693,1.528-0.33,3.363-1.343,4.752
		c-0.862,3.72-2.172,7.318-2.652,11.138c-1.023,3.98-0.395,8.135-0.386,12.176c0.158,0.492,0.591,0.955,1.156,0.828
		c0.652-1.551,1.266-3.117,1.95-4.652c0.867-1.508,1.079-3.42,2.363-4.652c-0.269,1.862-1.237,3.684-1.163,5.533
		c-1.305,4.126-2.79,8.214-4.273,12.284c-1.061,1.63-1.35,3.932-0.438,5.713c0.047,0.33,0.558,0.95-0.063,1.038
		c-2.47,0.321-5.014,0.185-7.413,0.935c-0.984,0.036-1.959,0.081-2.937,0.111c-2.738-0.325-5.995-1.149-7.28-3.871
		c0.167-0.348,0.384-0.673,0.675-0.932c0.722,2.456,3.591,3.339,5.856,3.736c0.874,0.372,1.765,0.009,2.37-0.612
		c-1.149-2.081-4.515-3.113-3.797-6.027c1.916-8.014,5.054-15.702,6.975-23.729c0.609-2.095,1.501-4.147,1.314-6.368
		c-1.713,2.695-2.937,5.675-4.449,8.454c0.034-0.558,0.122-1.108,0.19-1.659c0.375-1.675,1.391-3.248,1.316-5.005
		c0.81-2.831,1.643-5.659,2.23-8.549c0.027,0.129,0.081,0.391,0.111,0.519c1.871-2.499,0.646-6.025,2.065-8.722
		c1.673-2.465,0.946-5.549,1.036-8.422c-0.447-0.302-0.993-0.388-1.483-0.596c-0.3-0.406-0.172-1.108-0.675-1.334
		c-7.027,0.16-13.607,3.6-18.659,8.357c-2.628,1.716-4.074,4.643-6.422,6.675c-1.363,1.641-3.126,3.029-4.131,4.935
		c-4.641,5.777-9.12,11.851-11.86,18.792c-0.409,1.388-1.409,2.817-0.804,4.302c-1.831,4.307-3.422,8.716-5.016,13.115l-0.133,0.147
		c-1.095,1.736-0.659,3.957,0.47,5.58c-2.659,0.704-5.562,0.133-8.203,1.111c-0.833,0.023-1.657,0.063-2.488,0.093
		c-0.35-0.059-1.05-0.178-1.402-0.237c0.84,0.201,2.361-0.67,1.698-1.63c-1.239-1.217-3.061-2.056-3.621-3.849
		c0.108-3.528,2.214-6.519,2.914-9.907c0.546-0.312,0.187-1.393-0.377-1.07c-2.871,2.111-5.42,4.946-6.571,8.321
		c-0.032-0.131-0.093-0.388-0.122-0.517c0.165-0.603,0.388-1.187,0.546-1.792c-0.754,0.616-1.463,1.287-2.233,1.885
		c0.131-0.479,0.298-0.946,0.413-1.427c-1.327,0.002-2.465,0.806-3.63,1.348c-6.212,2.21-12.492,4.677-19.16,4.995
		c-5.23-0.199-10.707,0.63-15.731-1.196c-8.725-1.725-16.409-6.596-23.546-11.695c-0.388-0.411-0.939-0.278-1.456-0.223
		c-0.501-0.621-0.971-1.266-1.483-1.878v-0.497c0.503-0.815,0.903-1.686,1.345-2.533c0.989-0.359,1.339-1.456,1.842-2.289
		c2.817-4.628,5.264-9.506,7-14.643c0.201-0.912,1.167-2.129,0.178-2.865c0.388-0.885,0.734-1.792,1.187-2.646
		c0.131,1.16,0.237,2.325,0.366,3.49c0.011,0.269,0.02,0.54,0.027,0.813c-0.941,6.321-0.535,13.007,1.835,18.993
		c2.461,8.165,10.235,13.835,18.497,14.914c6.214,0.528,12.555,0.51,18.555-1.33c1.659-0.754,3.402-1.284,5.124-1.871
		c8.826-4.357,16.255-11.278,21.476-19.587c6.323-9.698,9.763-20.856,14.874-31.181c5.138-11.591,10.596-23.05,15.666-34.682
		c1.801-3.016-2.253-6.639-4.953-5.19c-0.072,1.503-0.323,0.034-1.032-0.293C101.652,50.727,101.332,50.411,101.011,50.099
		L101.011,50.099z"/>
	<path fill="#4EFFFE" d="M56.953,50.201c0.442-0.009,0.874,0.126,1.312,0.19c-0.777,0.944-2.093,1.221-3.12,1.815
		c-7.075,3.138-13.607,7.386-19.684,12.156c-0.524,0.291-1.424,1.37-2.032,0.605c0.903-3.205,3.354-5.747,5.797-7.91
		C44.072,52.752,50.621,50.842,56.953,50.201L56.953,50.201z"/>
	<path fill="#61FFFF" d="M53.368,51.133c1.569-0.946,1.086,0.433,0.528,0.736c-5.585,3.059-11.036,6.368-16.442,9.731
		c-0.549,0.151-1.226,1.052-1.772,0.454C39.163,55.675,46.391,52.172,53.368,51.133L53.368,51.133z"/>
	<path fill="#018AFE" d="M101.989,51.023c0.709,0.327,0.959,1.797,1.032,0.293c2.7-1.449,6.754,2.174,4.953,5.19
		c-5.07,11.632-10.528,23.09-15.666,34.682c-5.111,10.325-8.551,21.483-14.874,31.181c-5.221,8.309-12.65,15.23-21.476,19.587
		c-1.722,0.587-3.465,1.117-5.124,1.871c-6,1.84-12.341,1.858-18.555,1.33c-8.262-1.079-16.036-6.749-18.497-14.914
		c-2.37-5.986-2.777-12.673-1.835-18.993l0.011,0.214c0.05,0.357,0.149,1.072,0.199,1.429c0.023,0.284,0.043,0.569,0.065,0.853
		c-0.122,0.321-0.126,0.7,0.135,0.957c0.158,0.962,0.402,1.905,0.596,2.86c-1.311,4.165,0.323,8.675,1.817,12.6
		c3.135,8.88,12.587,14.117,21.704,14.203c6.293,0.325,12.777-0.596,18.598-3.068c10.104-4.357,18.244-12.549,23.451-22.156
		c1.591-2.176,2.12-4.903,3.763-7.043c2.641-5.892,5.014-11.932,7.754-17.763c5.749-11.894,11.032-23.995,16.63-35.957
		c0.582-1.609,1.424-3.327,0.711-5.038c-0.792-1.165-2.124-1.754-3.501-1.878c-0.711,0.837,0.097,2.018-0.185,2.989
		c-0.235-0.731-0.499-1.472-0.991-2.072C102.402,51.964,102.174,51.501,101.989,51.023L101.989,51.023z"/>
	<path fill="#0393FE" d="M103.88,51.463c1.377,0.124,2.709,0.713,3.501,1.878c0.713,1.711-0.129,3.429-0.711,5.038
		c-5.598,11.962-10.88,24.063-16.63,35.957c-2.74,5.831-5.113,11.871-7.754,17.763c-1.643,2.14-2.172,4.867-3.763,7.043
		c-5.208,9.607-13.348,17.799-23.451,22.156c-5.822,2.472-12.305,3.393-18.598,3.068c-9.117-0.086-18.569-5.323-21.704-14.203
		c-1.494-3.925-3.129-8.436-1.817-12.6c1.343,5.251,3.856,10.284,7.749,14.108c3.946,3.887,9.257,6.226,14.709,6.982
		c0.251,0.273,0.639,0.262,0.957,0.133c0.291,0.036,0.58,0.074,0.869,0.115c0.56,0.345,1.093,0.372,1.596,0.084
		c0.28,0.041,0.562,0.079,0.844,0.113c1.903,0.282,3.844,0.255,5.749,0.016c1.648-0.122,3.232-0.594,4.853-0.885
		c1.637,0.375,3.223-0.537,4.725-1.054c6.98-2.576,12.889-7.395,17.935-12.761c3.605-4.438,7.429-8.977,9.178-14.519
		c2.438-5.758,5.018-11.499,7.402-17.266c-0.14-0.932,1.535-2.108,0.302-2.67c1.619-3.42,3.154-6.88,4.72-10.323
		c0.314-0.009,1.023-0.336,0.673,0.246c-0.716,1.307-0.955,2.817-1.747,4.09c0.585,0.558,0.844-0.086,0.959-0.634
		c4.6-8.826,8.628-17.975,12.596-27.102c0.932-2.007-0.889-4.217-2.905-4.298c-0.772,0.851,0.519,2.253,0.025,3.192
		c-0.266,0.368-0.352-0.074-0.467-0.298c0.005-0.095,0.016-0.284,0.02-0.379C103.977,53.481,103.169,52.3,103.88,51.463
		L103.88,51.463z"/>
	<path fill="#019FFE" d="M104.117,51.937c2.016,0.081,3.837,2.291,2.905,4.298c-3.968,9.126-7.995,18.275-12.596,27.102
		c-0.115,0.549-0.375,1.192-0.959,0.634c0.792-1.273,1.032-2.783,1.747-4.09c0.35-0.582-0.359-0.255-0.673-0.246
		c1.054-2.314,2.072-4.65,3.199-6.93c2.826-1.664,3.458-5.275,4.844-8.059c1.361-2.673,2.698-5.357,3.795-8.147
		c0.713-1.467-0.235-4.061-2.081-3.91c0.072,1.953,0.745,4.289-0.666,5.919c0.095-1.226,0.02-2.451,0.043-3.677
		c0.115,0.223,0.201,0.666,0.467,0.298C104.637,54.19,103.345,52.788,104.117,51.937L104.117,51.937z"/>
	<path fill="#79FFFE" d="M49.508,52.458c0.56-0.305,1.237,0.07,0.526,0.508c-2.424,1.497-4.6,3.431-7.278,4.485
		c-1.305,0.546-2.47,1.709-3.946,1.702C41.084,55.465,45.433,53.46,49.508,52.458L49.508,52.458z"/>
	<path fill="#0EEDFE" d="M102.704,52.379c0.492,0.6,0.756,1.341,0.991,2.072c-0.005,0.095-0.016,0.284-0.02,0.379
		c-0.023,1.226,0.052,2.451-0.043,3.677c-1.711,4.835-4,9.433-5.892,14.196c-1.126,2.28-2.144,4.616-3.199,6.93
		c-1.567,3.442-3.102,6.903-4.72,10.323c-2.682,5.497-4.968,11.235-7.919,16.573c5.856-13.971,12.181-27.752,18.196-41.657
		C101.844,60.977,104.176,56.788,102.704,52.379L102.704,52.379z"/>
	<path fill="#01AEFE" d="M104.298,52.589c1.846-0.151,2.795,2.442,2.081,3.91c-1.097,2.79-2.433,5.474-3.795,8.147
		c-1.386,2.783-2.018,6.395-4.844,8.059c1.892-4.763,4.181-9.361,5.892-14.196C105.043,56.878,104.37,54.542,104.298,52.589
		L104.298,52.589z"/>
	<path fill="#04F4FE" d="M46.501,58.691c5.205-3.524,11.413-5.016,17.546-5.939c6.86,0.246,14.869,0.605,19.878,5.989
		c0.659,0.388,0.359,1.919,1.079,1.896c0.799-1.799,1.887-3.801,3.754-4.605c-2.366,2.097-3.996,5.169-4.077,8.359
		c-0.09,0.767-0.12,1.54-0.038,2.312c-0.178,0.359-0.065,1.081-0.625,1.014c-0.05-2.187-1.027-4.293-2.567-5.828
		c-3.214-3.253-7.955-4.442-12.381-4.774l0.016-0.23c4.479-0.533,8.693,1.668,12.86,2.962c0.117-0.74-0.282-1.438-0.851-1.887
		c-1.901-1.772-4.474-2.37-6.804-3.352c-6.598-1.467-13.655-1.341-20.029,1.027c-5.585,1.986-11.036,5.21-14.325,10.273
		c-3.138,4.097-1.801,10.479,2.725,12.88c1.702,0.907,3.688,2.431,5.621,1.287c0.287-1.138-0.822-1.853-0.858-2.916
		c0.831,1.282,1.813,2.458,2.865,3.564c0.023,0.623,0.099,1.738-0.824,1.616c-1.199-0.47-2.37,0.591-3.501-0.074
		c-2.727-1.354-5.729-2.262-7.406-5.023c-0.53-2.278-2.194-4.237-1.747-6.704C38.447,65.569,42.228,61.564,46.501,58.691
		L46.501,58.691z"/>
	<path fill="#0476FE" d="M115.79,53.479c0.819-0.488,1.858-0.142,2.736-0.041c-2.287-0.242-2.095,2.309-2.582,3.819
		c-1.237,1.521-1.156,3.614-2.147,5.282c-0.634,1.896-1.517,3.7-2.088,5.619c-0.795,2.749-2.497,5.165-3.056,7.991
		c-0.449,1.919-1.801,3.641-1.404,5.72c0.246,0.345,1.014,0.98,1.088,0.072c3.957-8.379,7.526-16.939,11.097-25.485
		c0.497-0.98,0.144-1.984-0.445-2.79c2.63,1.176,0.442,4.325-0.208,6.185c-0.354,0.815,0.377,0.585,0.903,0.47
		c-4.117,9.472-8.131,18.989-12.296,28.44c-0.406-1.596,0.709-2.878,0.984-4.35c-0.989,0.172-0.977,1.711-2.007,2.045
		c-0.007-1.668-1.28-3.093-0.801-4.817C108.822,72.242,112.354,62.779,115.79,53.479L115.79,53.479z"/>
	<path fill="#016CFE" d="M115.944,57.257c0.488-1.51,0.296-4.061,2.582-3.819c0.115,0.056,0.348,0.172,0.463,0.228
		c0.589,0.806,0.941,1.81,0.445,2.79c-3.571,8.546-7.14,17.106-11.097,25.485c-0.074,0.907-0.842,0.273-1.088-0.072
		c-0.397-2.079,0.955-3.801,1.404-5.72c0.56-2.826,2.262-5.242,3.056-7.991c0.571-1.919,1.454-3.722,2.088-5.619
		C114.788,60.871,114.707,58.779,115.944,57.257L115.944,57.257z"/>
	<path fill="#02E9FE" d="M54.262,55.632c6.375-2.368,13.431-2.494,20.029-1.027c2.33,0.982,4.903,1.58,6.804,3.352
		c0.569,0.449,0.968,1.147,0.851,1.887c-4.167-1.293-8.381-3.494-12.86-2.962c-0.704,0.014-1.395,0.027-2.095,0.043
		c-0.339-0.005-0.675,0.007-1.009,0.027c-0.494-0.043-0.986-0.095-1.479-0.131c3.576-1.014,7.363-0.481,11-0.26
		c-2.402-1.74-5.582-2.027-8.456-2.165c-6.646-0.44-13.33,1.49-18.962,4.977c-2.867,1.95-5.756,4.214-7.21,7.463
		c-2,3.567-0.016,7.984,2.729,10.549c0.621,0.79,1.743,0.711,2.628,0.937c0.72-0.88-0.266-1.944-0.503-2.844
		c-1.135-3.445-0.108-7.652,2.393-10.228c-1.887,3.047-3.637,7.291-1.431,10.625c0.255,0.42,0.521,0.835,0.734,1.28
		c0.036,1.063,1.144,1.779,0.858,2.916c-1.932,1.144-3.919-0.379-5.621-1.287c-4.526-2.402-5.862-8.783-2.725-12.88
		C43.226,60.842,48.677,57.619,54.262,55.632L54.262,55.632z"/>
	<path fill="#03DDFE" d="M48.086,59.375c5.632-3.488,12.316-5.418,18.962-4.977c2.874,0.138,6.054,0.424,8.456,2.165
		c-3.637-0.221-7.424-0.754-11,0.26c-0.23,0.072-0.458,0.147-0.684,0.223c-3.989,0.483-7.88,1.824-11.167,4.153
		c-1.957,0.734-3.095,2.639-4.53,4.052c-2.501,2.576-3.528,6.783-2.393,10.228c0.237,0.901,1.223,1.964,0.503,2.844
		c-0.885-0.226-2.007-0.147-2.628-0.937c-2.745-2.564-4.729-6.982-2.729-10.549C42.33,63.589,45.219,61.325,48.086,59.375
		L48.086,59.375z"/>
	<path fill="#01D1FF" d="M64.187,55.169c0.47-0.081,1.564-0.108,1.483,0.546c-8.065,1.266-16.946,4.871-20.255,12.95
		c-0.862,1.445-0.499,3.704-2.305,4.476c-1.009-0.49-0.815-1.896-1.23-2.81c-0.727-3.501,2.016-6.35,4.3-8.587
		C51.156,57.465,57.682,55.332,64.187,55.169L64.187,55.169z"/>
	<path fill="#05C2C2" d="M89.129,55.901c0.26-0.273,0.616-0.35,0.984-0.361c-2.106,3.422-3.984,7.025-5.257,10.846
		c-0.052,0.079-0.158,0.237-0.212,0.316c-0.081-0.772-0.052-1.544,0.038-2.312C85.357,61.19,86.995,58.343,89.129,55.901
		L89.129,55.901z"/>
	<path fill="#63FBFB" d="M90.113,55.54l0.219-0.027c-1.7,3.677-3.494,7.341-5.476,10.874C86.129,62.564,88.007,58.962,90.113,55.54
		L90.113,55.54z"/>
	<path fill="#01DEDE" d="M88.758,56.032c0.093-0.032,0.278-0.097,0.37-0.131c-2.133,2.442-3.772,5.289-4.447,8.49
		C84.763,61.201,86.393,58.129,88.758,56.032L88.758,56.032z"/>
	<path fill="#9FFDFE" d="M63.819,57.045c0.226-0.077,0.454-0.151,0.684-0.223c0.492,0.036,0.984,0.088,1.479,0.131
		C65.275,57.149,64.537,57.063,63.819,57.045L63.819,57.045z"/>
	<path fill="#A5FEFF" d="M66.991,56.926c0.7-0.016,1.391-0.029,2.095-0.043l-0.016,0.23C68.375,57.106,67.677,57.007,66.991,56.926
		L66.991,56.926z"/>
	<path fill="#55FCFE" d="M48.122,65.251c1.436-1.413,2.573-3.318,4.53-4.052c-4.273,3.456-7.862,8.946-5.962,14.677
		C44.485,72.542,46.235,68.298,48.122,65.251L48.122,65.251z"/>
	<path fill="#03FDFF" d="M27.571,70.734c0.237-0.246,0.447-0.515,0.659-0.781c-0.318,2.093-0.472,4.318,0.217,6.35
		c0.537,1.691,2.747,2.104,4.203,1.492c2.449-1.686,3.111-4.682,4.16-7.26c-0.447,2.467,1.217,4.427,1.747,6.704
		c1.677,2.761,4.679,3.668,7.406,5.023c1.131,0.666,2.303-0.395,3.501,0.074c0.923,0.122,0.847-0.993,0.824-1.616
		c3.018,2.878,6.551,5.129,9.833,7.682c-0.255,0.745-0.461,1.508-0.564,2.289c-0.691-0.036-1.291,0.239-1.749,0.745
		c-0.698,0.291-1.397,0.6-1.948,1.133c-1.041-0.668-1.995-1.957-3.4-1.704c-0.856,0.068-1.036-1.368-2.093-0.792
		c-1.641,1.657-4.056,0.438-5.874-0.26c-3.133-1.914-6.052-4.156-8.966-6.381c-1.817-1.691-3.508-4.217-6.113-4.605
		c-2.287,2.856-0.165,6.768,0.341,9.944c-1.858-3.169-3.034-6.722-3.442-10.37c0.068-1.314,0.074-2.628,0.063-3.939l0.025-0.181
		C26.747,73.084,27.156,71.907,27.571,70.734L27.571,70.734z"/>
	<path fill="#8DFFFD" d="M26.314,78.4c-0.212-1.305-0.178-2.641,0.063-3.939C26.388,75.772,26.381,77.086,26.314,78.4L26.314,78.4z"
		/>
	<path fill="#03F2FF" d="M29.415,78.826c2.605,0.388,4.296,2.914,6.113,4.605c2.914,2.226,5.833,4.467,8.966,6.381
		c1.817,0.698,4.233,1.916,5.874,0.26c1.056-0.576,1.237,0.86,2.093,0.792c1.404-0.253,2.359,1.036,3.4,1.704
		c-0.639,0.858-1.727,1.544-1.587,2.761c-2.047-0.438-3.386-2.255-5.427-2.659c-4.84-1.533-8.923-4.553-12.88-7.646
		c-1.847-1.372-3.135-3.619-5.501-4.163c-0.718,0.029-0.892,0.831-1.027,1.4c-0.282,2.948,0.345,6.352,2.187,8.688l0.14,0.108
		c0.46,0.819,1.14,1.521,1.418,2.433c-1.298-1.451-2.576-2.953-3.427-4.722C29.251,85.594,27.129,81.682,29.415,78.826
		L29.415,78.826z"/>
	<path fill="#74B5FD" d="M134.244,80.278c1.677-0.287,3.404-0.172,5.09,0.02C137.634,80.363,135.937,80.368,134.244,80.278
		L134.244,80.278z"/>
	<path fill="#77BCFE" d="M132.253,80.517c0.339-0.275,0.79-0.242,1.178-0.099C133.102,80.716,132.637,80.67,132.253,80.517
		L132.253,80.517z"/>
	<path fill="#02E4FE" d="M29.438,82.262c0.135-0.569,0.309-1.37,1.027-1.4c2.366,0.544,3.655,2.79,5.501,4.163
		c3.957,3.093,8.041,6.113,12.88,7.646c2.041,0.404,3.379,2.221,5.427,2.659c0.655,1.007,1.609,1.754,2.415,2.63
		c-5.086-2.941-10.736-4.722-15.797-7.709c-2.219-1.603-4.499-3.14-6.576-4.928c-0.849-0.609-1.79-1.327-2.871-1.316
		c-1.7,2.065-0.736,4.767,0.181,6.944C29.783,88.614,29.156,85.21,29.438,82.262L29.438,82.262z"/>
	<path fill="#078CFE" d="M129.856,81.052c0.325-0.088,0.655-0.169,0.989-0.23c0.167,0.327,0.488,0.718,0.903,0.567
		c2.332-0.564,4.702-0.027,7.061-0.077c1.763,0.28,4.025,0.921,4.524,2.916c0.682,1.287-0.939,1.573-1.702,1.646
		c-6.616,0.465-13.305,1.413-19.571,3.664c-7.061,3.253-12.826,8.614-18.614,13.682c-2.429,3.007-6.205,4.772-8.027,8.278
		c-1.887,0.499-2.643-1.53-2.045-2.995c1.223-5.312,3.677-10.233,5.77-15.237c0.826-2.129,2.582-3.716,3.429-5.824
		c0.503-0.6,1.587-0.621,2.178-0.099c1.269,0.926,1.122,2.7,1.454,3.986c0.047,0.065,0.14,0.196,0.187,0.262
		c1.619-0.964,3.138-2.102,4.831-2.935c1.747-0.6,3.345-1.562,5.097-2.169c-2.438,2.097-5.42,3.56-7.932,5.612
		c-1.111,0.287-1.91,1.196-2.973,1.585c-0.716-0.239-0.619-1.345-1.366-1.569c-0.813-0.269-1.871-0.571-2.646-0.178
		c-2.754,4.564-5.14,9.461-6.212,14.718c-0.569,0.765,0.135,1.223,0.567,1.652c3.102-1.239,4.966-4.181,7.517-6.167
		c2.108-2.366,4.738-4.16,7.113-6.228c5.991-4.436,12.625-8.289,20.115-9.42c3.427-1.002,7.054-0.652,10.499-1.476
		c1.558-0.727,0.336-2.743-0.955-2.957c-3.815-0.923-8.138-0.896-11.889,0.296c-0.603,0.072-1.214,0.248-1.817,0.093
		C127.461,81.874,128.84,81.824,129.856,81.052L129.856,81.052z"/>
	<path fill="#13E2FE" d="M111.221,88.655c5.752-3.44,12.027-6.321,18.634-7.603c-1.016,0.772-2.395,0.822-3.517,1.393
		c-1.939,0.677-3.874,1.4-5.763,2.201c-1.463,0.501-2.896,1.111-4.257,1.84C114.567,87.093,112.968,88.054,111.221,88.655
		L111.221,88.655z"/>
	<path fill="#1598FE" d="M128.156,82.352c3.752-1.192,8.075-1.219,11.889-0.296c1.291,0.214,2.512,2.23,0.955,2.957
		c-3.445,0.824-7.072,0.474-10.499,1.476c-7.49,1.131-14.124,4.984-20.115,9.42c-0.792,0.226-1.537,0.571-2.266,0.944
		c0.223-0.309,0.442-0.623,0.661-0.937c2.977-2.26,6.151-4.284,9.298-6.307c4.788-2.758,10.314-3.898,15.707-4.81
		c1.944-0.424,4.711,0.483,6.12-1.35c0.352-0.72-0.691-1.029-1.138-1.212C135.334,80.966,131.664,82.097,128.156,82.352
		L128.156,82.352z"/>
	<path fill="#23A7FE" d="M128.156,82.352c3.508-0.255,7.178-1.386,10.612-0.115c0.447,0.183,1.49,0.492,1.138,1.212
		c-1.409,1.833-4.176,0.926-6.12,1.35c-5.393,0.912-10.919,2.052-15.707,4.81c-1.289-0.047-2.368,1.273-3.637,0.686
		c-0.677-0.097-0.233-1.183-0.011-1.591c1.7-1.801,4.181-2.619,6.144-4.059c1.889-0.801,3.824-1.524,5.763-2.201
		C126.941,82.6,127.553,82.424,128.156,82.352L128.156,82.352z"/>
	<path fill="#03D4FE" d="M31.445,84.007c1.081-0.011,2.023,0.707,2.871,1.316c2.077,1.788,4.357,3.325,6.576,4.928
		c5.061,2.986,10.711,4.767,15.797,7.709c0.898,0.512,1.684,1.196,2.447,1.892c0.431,0.44,0.867,0.88,1.316,1.307
		c0.411,0.616,0.761,1.271,1.007,1.971c-8.467-6.237-18.916-9.149-27.072-15.853c-0.84-0.095-2.199-0.562-2.752,0.386
		c-0.09,1.133,0.011,2.271,0.131,3.397l-0.14-0.108C30.709,88.774,29.745,86.072,31.445,84.007L31.445,84.007z"/>
	<path fill="#0377FE" d="M145.67,84.499c0.12-0.935,1.307-0.53,1.481,0.187c1.569,1.901,1.551,4.616,2.704,6.573
		c0.02,1.424,0.043,2.851,0.081,4.278c-0.102,0.878-0.23,1.752-0.321,2.632c-0.284,0.244-0.273,0.637-0.147,0.959
		c-0.016,0.097-0.052,0.291-0.068,0.388c-0.305,0.235-0.28,0.641-0.142,0.962c-2.278,10.51-6.02,20.619-9.582,30.743
		c-0.074-1.849,0.894-3.67,1.163-5.533c-1.284,1.233-1.497,3.144-2.363,4.652c-0.684,1.535-1.298,3.102-1.95,4.652
		c-0.564,0.126-0.998-0.336-1.156-0.828c-0.009-4.041-0.637-8.196,0.386-12.176c0.481-3.819,1.79-7.418,2.652-11.138
		c1.014-1.388,0.65-3.223,1.343-4.752c1.447-3.941,2.474-8.011,3.571-12.023C144.668,91.056,145.126,87.734,145.67,84.499
		L145.67,84.499z"/>
	<path fill="#15A6FE" d="M116.318,86.485c1.361-0.729,2.795-1.339,4.257-1.84c-1.964,1.44-4.445,2.257-6.144,4.059
		c-0.221,0.409-0.666,1.494,0.011,1.591c1.269,0.587,2.348-0.734,3.637-0.686c-3.147,2.023-6.321,4.047-9.298,6.307
		c-0.718,0.391-1.512,0.099-2.16-0.284c-0.582-0.648-0.025-1.461,0.178-2.147c0.58-0.402,1.144-0.833,1.587-1.388
		C110.898,90.045,113.88,88.582,116.318,86.485L116.318,86.485z"/>
	<path fill="#016BFE" d="M146.53,85.555c2.72,2.422,2.456,6.774,2.386,10.088c-1.483,9.032-4.296,17.817-7.847,26.248
		c-0.284,0.379-0.226,1.248-0.88,1.147c0.336-3.068-1.445-6.359-0.217-9.474c0.183-2.749,1.594-5.226,1.984-7.944
		c0.806-1.74,0.54-3.801,1.549-5.429c1.079-2.718,1.221-5.639,2.28-8.377C146.544,89.813,145.801,87.47,146.53,85.555L146.53,85.555
		z"/>
	<path fill="#03C4FE" d="M31.634,87.661c0.553-0.948,1.912-0.481,2.752-0.386c8.156,6.704,18.605,9.616,27.072,15.853
		c1.219,1.465,2.248,3.151,2.937,4.932c0.099,3.14,0.199,6.422-0.783,9.515c-1.192,3.316-3.23,6.754-6.291,8.623
		c0.725-2.822,1.084-5.81,0.318-8.668c-1.357-4.648-4.761-8.411-8.334-11.535c-5.002-4.646-11.318-7.659-16.122-12.503
		c-0.278-0.912-0.957-1.614-1.418-2.433C31.646,89.932,31.544,88.795,31.634,87.661L31.634,87.661z"/>
	<path fill="#D9D8FF" d="M357.318,87.589c2.318-0.269,6.305-0.555,8.603-0.005C363.05,87.582,360.183,87.582,357.318,87.589
		L357.318,87.589z"/>
	<path fill="#53ADFE" d="M314.673,87.81c0.011-0.745,1.539-0.045,2.09-0.169C316.045,87.722,315.379,87.824,314.673,87.81
		L314.673,87.81z"/>
	<path fill="#67B5FE" d="M318.002,87.639c0.546,0.174,1.86-0.42,2.111,0.196C319.413,87.799,318.679,87.72,318.002,87.639
		L318.002,87.639z"/>
	<path fill="#7ABBFF" d="M320.544,87.914c0.181-0.257,0.898-0.293,0.865,0.126C321.108,88.079,320.808,88.047,320.544,87.914
		L320.544,87.914z"/>
	<path fill="#0179FE" d="M112.348,96.542c5.052-4.756,11.632-8.196,18.659-8.357c0.503,0.226,0.375,0.928,0.675,1.334
		c0.49,0.208,1.036,0.293,1.483,0.596c-0.09,2.874,0.637,5.957-1.036,8.422c-1.42,2.698-0.194,6.223-2.065,8.722
		c-0.029-0.129-0.083-0.391-0.111-0.519c0.027-0.156,0.081-0.467,0.108-0.623c0.287-0.237,0.275-0.63,0.156-0.95
		c0.02-0.278,0.041-0.553,0.065-0.828c0.056-0.639,0.158-1.264,0.158-1.903c0.002-0.585-0.011-1.167-0.041-1.747
		c0.09-0.316,0.156-0.637,0.194-0.964c0.302,0.749-0.323,2.014,0.3,2.585c0.321-2.427,0.512-5.688-1.905-7.149
		c-3.034-2.059-6.919-1.032-10.239-0.431c-6.684,2.878-12.102,8.084-16.955,13.422c1.005-1.905,2.767-3.293,4.131-4.935
		C108.273,101.185,109.72,98.257,112.348,96.542L112.348,96.542z"/>
	<path fill="#14E5FE" d="M60.122,88.402c2.296,1.725,4.533,3.605,6.3,5.883c0.036,0.479,0.09,0.957,0.133,1.436l-0.226,0.05
		c-0.542-0.524-0.984-1.142-1.551-1.641c-1.564-1.291-2.944-3.506-5.221-3.438C59.661,89.91,59.867,89.147,60.122,88.402
		L60.122,88.402z"/>
	<path fill="#48B0FF" d="M367.045,88.483c0.463,1.05,0.242,2.962,0.14,4.386C366.777,91.454,367.151,89.93,367.045,88.483
		L367.045,88.483z"/>
	<path fill="#DCE1FE" d="M286.007,89.612l0.219,0.009c0.002,9.251,0.018,18.501-0.007,27.749l-0.214,0.016
		C286.005,108.129,286.002,98.871,286.007,89.612L286.007,89.612z"/>
	<path fill="#3BABFE" d="M358.079,89.544c0.397,1.054,0.113,2.23,0.027,3.316C358,91.758,357.941,90.643,358.079,89.544
		L358.079,89.544z"/>
	<path fill="#40A7FF" d="M198.176,90.068c3.366-0.357,8.212-0.413,11.528,0C205.86,90.065,202.018,90.07,198.176,90.068
		L198.176,90.068z"/>
	<path fill="#DED6FF" d="M380.327,90.074c1.763-0.725,4.576-0.079,6.637-0.07C384.747,90.074,382.537,90.072,380.327,90.074
		L380.327,90.074z"/>
	<path fill="#0688FE" d="M81.903,106.53c2.95-5.339,5.237-11.077,7.919-16.573c1.233,0.562-0.442,1.738-0.302,2.67
		c-2.384,5.767-4.964,11.508-7.402,17.266c-1.749,5.542-5.573,10.081-9.178,14.519c-5.045,5.366-10.955,10.185-17.935,12.761
		c-1.501,0.517-3.088,1.429-4.725,1.054c1.919-0.65,3.837-1.316,5.695-2.126C68.472,130.598,76.772,118.77,81.903,106.53
		L81.903,106.53z"/>
	<path fill="#0480FF" d="M198.176,90.068c3.842,0.002,7.684-0.002,11.528,0c0.056,0.056,0.169,0.172,0.223,0.228
		c0.041,1.147-0.147,2.332,0.144,3.458c0.747,4.528,3.984,8.074,7.309,10.984c4.309,3.424,9.571,5.402,14.894,6.591
		c-0.501,1.442-1.54,2.684-2.307,4.011c-0.754,0-1.467,0.009-2.205,0.014c-8.858-0.488-17.609-5.041-23.02-11.941
		c-5.357,6.937-14.025,11.275-22.797,11.939c-0.815-0.005-1.603,0.002-2.409-0.018c-0.774-1.341-1.612-2.648-2.325-4.023
		c8.632-1.763,17.684-6.255,21.433-14.695C199.668,94.526,199.65,91.916,198.176,90.068L198.176,90.068z"/>
	<path fill="#4FB1FE" d="M209.928,90.296c0.519,0.684,0.217,2.354,0.144,3.458C209.781,92.628,209.968,91.442,209.928,90.296
		L209.928,90.296z"/>
	<path fill="#5DBAFE" d="M149.982,90.451c0.262,1.682,0.165,3.404-0.045,5.086c-0.038-1.427-0.061-2.853-0.081-4.278
		C149.887,91.056,149.95,90.655,149.982,90.451L149.982,90.451z"/>
	<path fill="#28F8FE" d="M57.808,91.436c0.458-0.506,1.059-0.781,1.749-0.745c2.278-0.068,3.657,2.147,5.221,3.438
		c-0.113,0.002-0.341,0.011-0.454,0.016c-0.962-0.564-2.402-2.147-3.334-0.86c-1.133,1.212-0.65,2.889-0.488,4.352
		c-0.372,0.156-0.661,0.433-0.792,0.819C58.12,96.607,56.242,93.869,57.808,91.436L57.808,91.436z"/>
	<path fill="#249FFF" d="M388.562,91.131c0.395,3.966,0.016,8.025,0.156,12.025l-0.212-0.018
		C388.467,99.135,388.44,95.131,388.562,91.131L388.562,91.131z"/>
	<path fill="#17ECFF" d="M55.86,92.569c0.551-0.533,1.251-0.842,1.948-1.133c-1.567,2.433,0.312,5.172,1.903,7.02
		c0.043,0.158,0.131,0.472,0.176,0.63c-0.244,0.262-0.494,0.517-0.752,0.765c-0.763-0.695-1.549-1.379-2.447-1.892
		c-0.806-0.876-1.761-1.623-2.415-2.63C54.133,94.113,55.221,93.427,55.86,92.569L55.86,92.569z"/>
	<path fill="#0598FE" d="M101.402,91.935c0.774-0.393,1.833-0.09,2.646,0.178c0.747,0.223,0.65,1.33,1.366,1.569
		c1.063-0.388,1.862-1.298,2.973-1.585c-0.442,0.555-1.007,0.986-1.587,1.388c-1.192,0.935-2.743,0.959-4.063,1.558
		c-0.465,1.217-2.072,0.971-2.648,2.104c-0.962,1.352-1.47,2.953-2.063,4.483c-0.309,0.655,0.011,2.749,1.151,2.065
		c3.183-1.991,5.668-4.948,8.944-6.842c0.729-0.372,1.474-0.718,2.266-0.944c-2.375,2.068-5.005,3.862-7.113,6.228
		c-2.551,1.986-4.415,4.928-7.517,6.167c-0.431-0.429-1.135-0.887-0.567-1.652C96.262,101.395,98.648,96.499,101.402,91.935
		L101.402,91.935z"/>
	<path fill="#D7E0FF" d="M381.099,91.587c0.397,8.777,0.041,17.655,0.169,26.47c0.718,1.381-0.296,1.084-0.912,1.144l0.014-0.214
		c0.163-0.02,0.485-0.061,0.646-0.081C381.108,109.799,380.941,100.693,381.099,91.587L381.099,91.587z"/>
	<path fill="#4FA7FF" d="M392.797,91.851c0.309,3.666,0.4,7.948-0.025,11.305C392.781,99.386,392.761,95.619,392.797,91.851
		L392.797,91.851z"/>
	<path fill="#45F2FE" d="M60.991,93.284c0.932-1.287,2.372,0.296,3.334,0.86c1.865,1.758,3.185,4.196,3.4,6.767
		c0.255,0.833-0.93,1.388-1.515,0.828c-1.944-1.289-4.226-2.242-5.707-4.104C60.341,96.174,59.858,94.497,60.991,93.284
		L60.991,93.284z"/>
	<path fill="#B0DBFE" d="M236.117,98.402c-0.388-1.264-0.393-4.332-0.002-5.614l0.007,0.219c-0.009,1.727-0.009,3.454,0,5.181
		L236.117,98.402L236.117,98.402z"/>
	<path fill="#4CAEFF" d="M345.837,92.788c4.083,0.047,8.187-0.149,12.269,0.072c-3.968,0.424-8.034-0.038-12.032,0.158
		c-0.102,1.713-0.036,3.436-0.009,5.153c1.743,0.09,3.49-0.032,5.244,0.05c-0.065,0.09-0.196,0.271-0.262,0.361
		c-1.734-0.278-3.481-0.097-5.212-0.178C345.801,96.53,345.801,94.659,345.837,92.788L345.837,92.788z"/>
	<path fill="#4DABFE" d="M367.185,92.869c3.779-0.176,7.573-0.093,11.359-0.072c0.025,1.869,0.025,3.74-0.002,5.612
		c-1.368,0.169-2.819-0.293-4.126,0.201c-0.221-1.122,2.998-0.02,3.889-0.431c0.093-1.713,0.025-3.433,0.009-5.147
		C374.605,92.851,370.878,93.217,367.185,92.869L367.185,92.869z"/>
	<path fill="#07A5FE" d="M102.736,95.043c1.321-0.598,2.871-0.623,4.063-1.558c-0.203,0.686-0.761,1.499-0.178,2.147
		c0.648,0.384,1.442,0.675,2.16,0.284c-0.219,0.314-0.438,0.628-0.661,0.937c-3.275,1.894-5.761,4.851-8.944,6.842
		c-1.14,0.684-1.46-1.411-1.151-2.065c0.594-1.53,1.102-3.131,2.063-4.483C100.664,96.014,102.271,96.26,102.736,95.043
		L102.736,95.043z"/>
	<path fill="#69AFFE" d="M315.797,93.907c0.359-0.321,2.499-0.553,2.946-0.002C317.749,93.901,316.774,93.898,315.797,93.907
		L315.797,93.907z"/>
	<path fill="#066DFE" d="M118.749,94.729c3.321-0.6,7.205-1.628,10.239,0.431c2.418,1.46,2.226,4.722,1.905,7.149
		c-0.623-0.571,0.002-1.835-0.3-2.585c-0.05-0.239-0.149-0.458-0.3-0.655c-0.221-1.804-1.264-3.463-3.115-3.912
		c-3.506-0.673-6.977,0.745-10.025,2.354c-13.147,7.413-20.939,20.928-28.023,33.734c-0.605-1.485,0.395-2.914,0.804-4.302
		c2.74-6.941,7.219-13.016,11.86-18.792C106.648,102.813,112.065,97.607,118.749,94.729L118.749,94.729z"/>
	<path fill="#0480FF" d="M321.409,88.041c-0.3,0.038-0.6,0.007-0.865-0.126c-0.108-0.02-0.323-0.059-0.431-0.079
		c-0.7-0.036-1.433-0.115-2.111-0.196c-0.415-0.052-0.831-0.054-1.239,0.002c-0.718,0.081-1.384,0.183-2.09,0.169
		c-7.154,0.517-14.621,5.781-15.354,13.314c0.011,0.831-0.016,1.657-0.002,2.49c0.648,6.907,7.05,11.991,13.587,13.088
		c0.293-0.041,0.598-0.011,0.874,0.126c0.12,0.02,0.357,0.061,0.476,0.081c0.325,0.034,0.977,0.102,1.302,0.138
		c1.045,0.255,2.133,0.093,3.201-0.005c0.323-0.032,0.968-0.095,1.291-0.124c7.056-0.582,14.169-5.736,15.156-13.081
		C336.14,95.828,328.885,89.104,321.409,88.041z M318.738,110.842c-0.912-0.005-1.817-0.005-2.716,0
		c-3.835-0.237-7.659-3.325-8.131-7.228c-0.018-0.758,0.014-1.51,0.005-2.266c0.316-3.993,4.111-6.964,7.901-7.44
		c0.977-0.009,1.953-0.007,2.946-0.002c3.797,0.431,7.253,3.4,7.885,7.223c-0.016,0.749,0.014,1.508,0.018,2.262
		C326.194,107.305,322.569,110.409,318.738,110.842z"/>
	<path fill="#37DFFE" d="M64.325,94.144c0.113-0.005,0.341-0.014,0.454-0.016c0.567,0.499,1.009,1.117,1.551,1.641
		c1.442,2.804,3.634,6.404,1.585,9.431c-0.749,0.167-1.239-0.521-1.725-0.962c-1.901-1.957-4.354-3.255-6.302-5.153
		c-0.045-0.158-0.133-0.472-0.176-0.63c0.131-0.386,0.42-0.664,0.792-0.819c1.481,1.862,3.763,2.815,5.707,4.104
		c0.585,0.56,1.77,0.005,1.515-0.828C67.51,98.341,66.19,95.903,64.325,94.144L64.325,94.144z"/>
	<path fill="#5AF8FE" d="M62.813,94.395c2.35,0.275,4.034,2.993,3.968,5.318c-0.357,0.713-1.036,0.438-1.53,0.043
		C63.165,99.122,61.084,96.28,62.813,94.395L62.813,94.395z"/>
	<path fill="#17C5FE" d="M66.422,94.284c0.998,1.104,1.903,2.291,2.576,3.623c-0.415,1.499,1.226,2.72,1.07,4.253
		c0.564,2.921,0.289,6.404-2.19,8.411c-1.835,0.37-2.573-1.336-3.483-2.51c-0.688-1.781-1.718-3.467-2.937-4.932
		c-0.246-0.7-0.596-1.354-1.007-1.971c2.544,1.74,4.244,4.35,6.445,6.445c1.025,0.774,2.029-0.479,2.251-1.433
		c1.045-3.646-0.494-7.483-2.591-10.449C66.512,95.242,66.458,94.763,66.422,94.284L66.422,94.284z"/>
	<path fill="#26D1FF" d="M66.33,95.77l0.226-0.05c2.097,2.966,3.637,6.804,2.591,10.449c-0.221,0.955-1.226,2.208-2.251,1.433
		c-2.201-2.095-3.901-4.704-6.445-6.445c-0.449-0.427-0.885-0.867-1.316-1.307c0.257-0.248,0.508-0.503,0.752-0.765
		c1.948,1.898,4.402,3.196,6.302,5.153c0.485,0.44,0.975,1.129,1.725,0.962C69.964,102.174,67.772,98.573,66.33,95.77L66.33,95.77z"
		/>
	<path fill="#09B7FE" d="M70.068,102.16c0.156-1.533-1.485-2.754-1.07-4.253c1.655,2.819,2.607,6.016,3.09,9.237l-0.086,0.212
		c-1.025,1.591-1.688,3.397-2.871,4.894c-0.813,0.876-1.977,1.312-2.799,2.169c-2.14,1.804-1.67,5.027-3.587,7.014
		c-1.745,1.878-2.975,5.052-5.698,5.634c0.088-0.291,0.176-0.582,0.273-0.869c3.061-1.869,5.099-5.307,6.291-8.623
		c0.982-3.093,0.883-6.375,0.783-9.515c0.91,1.174,1.648,2.88,3.483,2.51C70.357,108.564,70.632,105.081,70.068,102.16
		L70.068,102.16z"/>
	<path fill="#74BEFF" d="M149.47,99.129c-0.126-0.323-0.138-0.716,0.147-0.959C149.745,98.488,149.765,98.889,149.47,99.129
		L149.47,99.129z"/>
	<path fill="#3197FE" d="M236.122,98.187c2.278,0.023,4.555-0.034,6.837,0.036c-0.056,0.099-0.172,0.298-0.228,0.397
		c-2.187-0.404-4.413-0.097-6.614-0.219L236.122,98.187L236.122,98.187z"/>
	<path fill="#9FCEFE" d="M130.293,99.07c0.151,0.196,0.251,0.415,0.3,0.655c-0.038,0.327-0.104,0.648-0.194,0.964
		C130.117,100.203,130.081,99.664,130.293,99.07L130.293,99.07z"/>
	<path fill="#5DB7FE" d="M361.623,99.551c0.745-0.422,1.499-0.422,2.262-0.002C363.104,99.54,362.384,99.542,361.623,99.551
		L361.623,99.551z"/>
	<path fill="#7BBBFD" d="M149.26,100.479c-0.138-0.321-0.163-0.727,0.142-0.962C149.524,99.84,149.53,100.228,149.26,100.479
		L149.26,100.479z"/>
	<path fill="#0380FF" d="M378.314,93.032c-3.709-0.181-7.436,0.185-11.129-0.163c-0.409-1.415-0.034-2.939-0.14-4.386
		c0.113-0.6-0.659-0.842-1.124-0.898c-2.871-0.002-5.738-0.002-8.603,0.005c-0.555,0.262,0.675,1.375,0.761,1.955
		c0.397,1.054,0.113,2.23,0.027,3.316c-3.968,0.424-8.034-0.038-12.032,0.158c-0.102,1.713-0.036,3.436-0.009,5.153
		c1.743,0.09,3.49-0.032,5.244,0.05c-0.065,0.09-0.196,0.271-0.262,0.361c-1.442,1.767-2.438,3.935-2.743,6.199
		c0.038,0.363,0.02,0.736-0.115,1.081c-0.19,0.731-0.194,1.537,0,2.273c0.133,0.343,0.154,0.713,0.117,1.079
		c0.98,7.084,8.316,12.535,15.37,11.666c0.323-0.032,0.968-0.095,1.293-0.126c6.104-0.623,11.573-5.779,12.233-11.944
		c-0.002-1.208-0.014-2.418,0.002-3.625c-0.262-2.404-1.298-4.686-2.79-6.576c-0.221-1.122,2.998-0.02,3.889-0.431
		C378.397,96.465,378.33,94.745,378.314,93.032z M369.302,108.359c-0.395,2.833-2.521,5.546-5.418,6.088
		c-0.781-0.002-1.501,0.009-2.262-0.002c-2.833-0.562-5.239-3.183-5.422-6.09c-0.005-0.905-0.005-1.813,0-2.716
		c0.255-2.876,2.576-5.524,5.422-6.088c0.761-0.009,1.481-0.011,2.262-0.002c2.921,0.621,5.199,3.366,5.424,6.318
		C369.282,106.693,369.307,107.528,369.302,108.359z"/>
	<path fill="#BBD3FE" d="M299.316,103.614c-0.298-0.07-0.587-2.406,0.002-2.49C299.33,101.955,299.302,102.781,299.316,103.614
		L299.316,103.614z"/>
	<path fill="#4BB1FE" d="M326.628,101.129c0.42,0.74,0.424,1.494,0.018,2.262C326.641,102.637,326.612,101.878,326.628,101.129
		L326.628,101.129z"/>
	<path fill="#8EBBFD" d="M307.892,103.614c-0.418-0.752-0.418-1.508,0.005-2.266C307.905,102.104,307.874,102.856,307.892,103.614
		L307.892,103.614z"/>
	<path fill="#A2CCFE" d="M130.282,104.339c0.029-0.634,0.088-1.273,0.158-1.903C130.44,103.074,130.339,103.7,130.282,104.339
		L130.282,104.339z"/>
	<path fill="#6FBBFD" d="M348.19,105.862c-0.242-0.26-0.336-1.045,0.115-1.081C348.343,105.144,348.325,105.517,348.19,105.862
		L348.19,105.862z"/>
	<path fill="#73B7FE" d="M130.061,106.117c-0.129-0.321-0.149-0.722,0.156-0.95C130.336,105.488,130.348,105.88,130.061,106.117
		L130.061,106.117z"/>
	<path fill="#6AB5FE" d="M377.205,105.185c0.266,0.555,0.553,3.086-0.002,3.625C377.201,107.603,377.19,106.393,377.205,105.185
		L377.205,105.185z"/>
	<path fill="#B4D0FE" d="M356.201,108.354c-0.307-0.257-0.573-2.415,0-2.716C356.196,106.542,356.196,107.449,356.201,108.354
		L356.201,108.354z"/>
	<path fill="#6EAEFD" d="M369.309,105.867c0.266,0.072,0.578,2.402-0.007,2.492C369.307,107.528,369.282,106.693,369.309,105.867
		L369.309,105.867z"/>
	<path fill="#4AA3FE" d="M11.553,106.946c0.113-0.233,0.244-0.456,0.381-0.673c0.054,1.386,0.007,2.774-0.016,4.163
		C11.79,109.271,11.684,108.106,11.553,106.946L11.553,106.946z"/>
	<path fill="#5FA9FE" d="M239.271,110.16c-0.244-0.652-0.605-3.192,0-3.844C239.275,107.596,239.275,108.878,239.271,110.16
		L239.271,110.16z"/>
	<path fill="#6CD8FE" d="M72.088,107.144c0.242,1.612,0.205,3.26-0.014,4.876c-0.036-0.418-0.081-0.831-0.113-1.244
		c0.029-1.142,0.029-2.28,0.041-3.42L72.088,107.144L72.088,107.144z"/>
	<path fill="#04A5FE" d="M69.131,112.251c1.183-1.497,1.847-3.302,2.871-4.894c-0.011,1.14-0.011,2.278-0.041,3.42
		c-1.652,4.853-3.718,9.688-7.384,13.391c-2.749,2.998-6.147,5.366-9.034,8.176c-0.664,0.467-1.334,0.923-2.027,1.348
		c-0.138-0.072-0.415-0.214-0.555-0.284c1.849-1.772,2.995-4.065,4.086-6.339c2.722-0.582,3.953-3.756,5.698-5.634
		c1.916-1.986,1.447-5.21,3.587-7.014C67.153,113.562,68.318,113.126,69.131,112.251L69.131,112.251z"/>
	<path fill="#6DB7FE" d="M348.19,108.135c0.133,0.343,0.154,0.713,0.117,1.079C347.853,109.178,347.946,108.393,348.19,108.135
		L348.19,108.135z"/>
	<path fill="#29A1FE" d="M388.549,117.887c0.032-2.815-0.366-6.144,0.167-8.625l0.002,0.221
		C388.652,112.282,388.867,115.097,388.549,117.887L388.549,117.887z"/>
	<path fill="#A7D1FE" d="M388.716,109.262c1.345-0.054,2.698-0.029,4.061-0.002l-0.005,0.221c-1.357,0-2.711-0.002-4.054,0.002
		L388.716,109.262L388.716,109.262z"/>
	<path fill="#6AB2FF" d="M392.777,109.26c0.571,3.858,0.036,8.659,0.23,12.862c-0.56-3.81-0.061-8.497-0.235-12.641L392.777,109.26
		L392.777,109.26z"/>
	<path fill="#0AAEFE" d="M1.345,129.388c2.887-6.648,5.957-13.228,9.02-19.797c0.989,0.736,0.023,1.953-0.178,2.865
		c-1.736,5.138-4.183,10.016-7,14.643C2.684,127.932,2.334,129.029,1.345,129.388L1.345,129.388z"/>
	<path fill="#0380FF" d="M286.005,117.386c0-9.257-0.002-18.515,0.002-27.774c-0.065-0.666-0.573-1.521-1.352-1.354
		c-2.589,0.054-5.192-0.151-7.765,0.172c0.192,0.652,0.856,1.126,0.77,1.86c-0.018,3.537,0.005,7.077-0.011,10.614
		c-2.336,0.605-5.991,0.187-8.618,0.045c-0.58-0.844-1.156-1.7-1.754-2.528c1.95-0.023,3.903,0.032,5.86-0.011
		c0.002-1.801-0.002-3.6-0.002-5.4c-4.458-0.16-9.415,0.302-13.535-0.23c-0.05-1.35,0-2.702-0.007-4.05
		c-0.129-0.499-0.465-0.941-0.975-1.081c-2.991-0.135-5.986-0.052-8.975-0.047c0.661,1.648,1.433,3.26,0.921,5.178l-0.016,0.208
		c-4.808,0.056-9.618-0.011-14.424,0.02c-0.009,1.727-0.009,3.454,0,5.181c2.278,0.023,4.555-0.034,6.837,0.036
		c-0.056,0.099-0.172,0.298-0.228,0.397c-1.878,2.124-3.214,4.856-3.461,7.695c0.005,1.28,0.005,2.562,0,3.844
		c0.553,5.792,5.07,10.795,10.553,12.517c7.196,2.542,15.953-0.761,19.422-7.612c2.749-0.411,5.688-0.165,8.49-0.034
		c0.445,2.086-0.038,4.284,0.144,6.406c-0.7,1.196,0.395,1.09,0.964,1.307c0.883,0.111,1.767,0.093,2.655-0.052
		c0.341-0.142,0.711-0.165,1.081-0.115C284.88,122.289,286.115,119.533,286.005,117.386z M262.756,109.716
		c-0.359,3.239-2.607,6.411-5.871,7.205c-2.716,0.88-5.704-0.327-7.51-2.413c-4.327-4.585-2.196-13.894,4.348-14.968
		c0.248-0.289,2.411-0.573,2.718,0.007c3.375,0.589,5.957,3.896,6.321,7.223C263.052,107.151,263.305,109.262,262.756,109.716z
		 M277.639,109.93c-1.67,0.388-5.072,0.388-6.747,0c-0.041-1.275-0.041-2.553,0-3.826c2.246-0.025,4.497-0.027,6.749,0.005
		C277.652,107.379,277.693,108.657,277.639,109.93z"/>
	<path fill="#1EBBFE" d="M64.578,124.167c3.666-3.702,5.731-8.537,7.384-13.391c0.032,0.413,0.077,0.826,0.113,1.244
		c-1.124,9.262-8.923,15.916-16.53,20.323C58.431,129.533,61.828,127.165,64.578,124.167L64.578,124.167z"/>
	<path fill="#88BFFE" d="M316.023,110.842c0.898-0.005,1.804-0.005,2.716,0C318.472,111.133,316.318,111.413,316.023,110.842
		L316.023,110.842z"/>
	<path fill="#8BC6FF" d="M11.957,111.463c0.05,0.357,0.149,1.072,0.199,1.429C12.106,112.535,12.007,111.819,11.957,111.463
		L11.957,111.463z"/>
	<path fill="#018FFE" d="M126.217,121.953c1.512-2.779,2.736-5.758,4.449-8.454c0.187,2.221-0.704,4.273-1.314,6.368
		c-1.921,8.027-5.059,15.716-6.975,23.729c-0.718,2.914,2.648,3.946,3.797,6.027c-0.605,0.621-1.497,0.984-2.37,0.612
		c-2.264-0.397-5.133-1.28-5.856-3.736c-0.291,0.26-0.508,0.585-0.675,0.932c-0.047-0.106-0.138-0.318-0.185-0.424
		c-0.576-3.621,1.56-6.763,2.754-10.009c2.196-5.567,4.494-11.095,6.564-16.704C126.339,120.844,126.251,121.395,126.217,121.953
		L126.217,121.953z"/>
	<path fill="#73CBFE" d="M12.221,113.745c0.314,0.226,0.278,0.641,0.135,0.957C12.095,114.445,12.099,114.065,12.221,113.745
		L12.221,113.745z"/>
	<path fill="#67B8FE" d="M361.623,114.445c0.761,0.011,1.481,0,2.262,0.002C363.122,114.865,362.368,114.865,361.623,114.445
		L361.623,114.445z"/>
	<path fill="#4AA5FE" d="M269.246,115.065c2.749-0.411,5.688-0.165,8.49-0.034C274.907,115.201,272.07,115.147,269.246,115.065
		L269.246,115.065z"/>
	<path fill="#2C9BFE" d="M277.736,115.032c0.445,2.086-0.038,4.284,0.144,6.406c-0.7,1.196,0.395,1.09,0.964,1.307
		c-0.655-0.018-2.018,0.497-1.196-1.074C277.72,119.46,277.501,117.232,277.736,115.032L277.736,115.032z"/>
	<path fill="#10F1FE" d="M118.09,139.302c3.314-7.962,6.619-15.93,9.632-24.014c0.075,1.756-0.941,3.33-1.316,5.005
		c-2.07,5.609-4.368,11.138-6.564,16.704c-1.194,3.246-3.33,6.388-2.754,10.009C116.05,144.492,117.163,141.698,118.09,139.302
		L118.09,139.302z"/>
	<path fill="#B8D3FE" d="M179.537,115.334c0.806,0.02,1.594,0.014,2.409,0.018C182.009,115.67,179.255,115.889,179.537,115.334
		L179.537,115.334z"/>
	<path fill="#B4D1FF" d="M227.763,115.354c0.738-0.005,1.451-0.014,2.205-0.014C229.302,115.754,228.567,115.758,227.763,115.354
		L227.763,115.354z"/>
	<path fill="#75BFFE" d="M312.903,116.702c0.293-0.041,0.598-0.011,0.874,0.126C313.578,117.077,312.867,117.117,312.903,116.702
		L312.903,116.702z"/>
	<path fill="#74B9FE" d="M314.253,116.91c0.325,0.034,0.977,0.102,1.302,0.138C315.239,117.332,314.33,117.427,314.253,116.91
		L314.253,116.91z"/>
	<path fill="#62B6FE" d="M318.756,117.043c0.323-0.032,0.968-0.095,1.291-0.124C319.977,117.429,319.059,117.325,318.756,117.043
		L318.756,117.043z"/>
	<path fill="#6EADFE" d="M292.117,118.521c16.698-0.016,33.397-0.023,50.095,0.002l-0.005,0.217
		c-16.621,0.002-33.244-0.029-49.862,0.016c-0.061,2.323-0.016,4.646-0.016,6.971l-0.005,0.214
		C291.822,123.957,292.187,120.921,292.117,118.521L292.117,118.521z"/>
	<path fill="#8CC7FF" d="M342.212,118.524c0.235,1.815,0.58,5.614,0,7.427l-0.005-0.219c0-2.332,0.009-4.661,0-6.991
		L342.212,118.524L342.212,118.524z"/>
	<path fill="#027FFF" d="M292.345,118.756c16.618-0.045,33.242-0.014,49.862-0.016c0.009,2.33,0,4.659,0,6.991
		c-16.628,0-33.253,0.009-49.878-0.005C292.33,123.402,292.284,121.079,292.345,118.756L292.345,118.756z"/>
	<path fill="#74B4FE" d="M376.005,119.095c1.433-0.278,2.907-0.088,4.366-0.108l-0.014,0.214
		C378.903,119.214,377.445,119.156,376.005,119.095L376.005,119.095z"/>
	<path fill="#019FFE" d="M77.492,119.264c0.343-0.318,0.117,0.537,0.005,0.675c-5.239,9.393-13.618,17.194-23.758,20.955
		c-5.508,2.129-11.558,2.325-17.391,2.196c-7.582-0.483-15.51-3.946-19.549-10.673c-2.007-3.264-3.372-6.973-3.682-10.806
		c1.363,2.011,1.874,4.603,3.363,6.605c2.332,3.6,5.607,6.589,9.542,8.298c6.449,3.354,14.041,3.436,21.14,3.181
		C59.668,137.761,70.354,129.393,77.492,119.264L77.492,119.264z"/>
	<path fill="#60B4FD" d="M363.677,120.88c0.323-0.032,0.968-0.095,1.293-0.126C364.898,121.269,363.977,121.167,363.677,120.88
		L363.677,120.88z"/>
	<path fill="#45A9FE" d="M177.438,121.456c18.131-0.02,36.262-0.018,54.393,0l-0.007,0.219c-18.052,0.011-36.106-0.043-54.156,0.023
		c-0.052,2.246-0.014,4.494-0.014,6.74l-0.219,0.007C177.409,126.115,177.411,123.786,177.438,121.456L177.438,121.456z"/>
	<path fill="#C4E2FE" d="M231.831,121.456c0.321,1.722,0.461,5.251-0.005,6.984c-0.002-2.257,0.007-4.51-0.002-6.765
		L231.831,121.456L231.831,121.456z"/>
	<path fill="#027FFF" d="M177.668,121.698c18.05-0.065,36.104-0.011,54.156-0.023c0.009,2.255,0,4.508,0.002,6.765
		c-7.749,0.011-15.499-0.011-23.248,0.007c-0.553,6.442-0.041,13.749-0.242,20.524c-2.63,0.045-5.255,0.007-7.88,0.011
		c-0.029-6.842,0.032-13.682-0.025-20.519c-7.591-0.056-15.185,0.002-22.777-0.025C177.655,126.192,177.616,123.944,177.668,121.698
		L177.668,121.698z"/>
	<path fill="#6DB6FE" d="M281.499,122.693c0.341-0.142,0.711-0.165,1.081-0.115C282.535,123.023,281.754,122.926,281.499,122.693
		L281.499,122.693z"/>
	<path fill="#54B9FF" d="M292.33,125.727c16.625,0.014,33.251,0.005,49.878,0.005l0.005,0.219
		c-16.63,0.009-33.26,0.029-49.887-0.009L292.33,125.727L292.33,125.727z"/>
	<path fill="#C8D3FF" d="M242.86,126.192c1.962-0.26,5.569-0.582,7.485-0.007C247.846,126.181,245.352,126.183,242.86,126.192
		L242.86,126.192z"/>
	<path fill="#C8D2FF" d="M276.72,126.192c1.968-0.26,5.569-0.585,7.485-0.007C281.707,126.181,279.212,126.185,276.72,126.192
		L276.72,126.192z"/>
	<path fill="#0380FF" d="M393.221,90.063c-2.063-0.666-0.747,1.074-0.424,1.788c0.309,3.666,0.4,7.948-0.025,11.305
		c-1.359,0.027-2.709,0.052-4.054,0l-0.212-0.018c-0.038-4.002-0.065-8.007,0.056-12.007c-0.21-0.684-0.939-1.036-1.598-1.126
		c-2.217,0.07-4.427,0.068-6.637,0.07c0.205,0.53,0.555,0.986,0.772,1.512c0.397,8.777,0.041,17.655,0.169,26.47
		c0.718,1.381-0.296,1.084-0.912,1.144c-1.454,0.014-2.912-0.045-4.352-0.106c-4.932,0.567-9.79,2.551-13.293,6.142
		c-2.946,3.147-4.641,7.571-3.923,11.892c1.501,8.063,9.521,13.02,17.23,13.716c1.618-0.104,3.232-0.036,4.862,0.016
		c0.147-0.025,0.44-0.074,0.587-0.097c0.219-0.316,0.632-0.287,0.955-0.147c7.12-1.065,14.363-6.102,15.607-13.562
		c0.034-0.352,0.104-1.059,0.138-1.413c0.002-0.363,0.007-0.725,0.016-1.086c-0.454-0.409-0.508-0.95-0.16-1.625
		c-0.885-5.664-5.499-10.095-10.643-12.181c0.693-0.801,1.154-1.788,1.169-2.862c0.032-2.815-0.366-6.144,0.167-8.625
		c1.345-0.054,2.698-0.029,4.061-0.002c0.571,3.858,0.036,8.659,0.23,12.862c3.147,0.779,6.777-0.914,6.993-4.379v-26.49
		C398.684,88.907,395.325,90.537,393.221,90.063z M388.709,133.409c-0.007,0.977,0.005,1.959,0.007,2.941
		c-1.007,6.205-8.772,9.253-14.246,7.018c-3.025-1.084-5.955-3.698-6.305-7.023c-0.005-0.907-0.005-1.813,0-2.716
		c0.781-5.472,7.199-8.549,12.291-7.569C384.246,126.747,387.986,129.451,388.709,133.409z"/>
	<path fill="#8DC3FF" d="M285.33,127.309l0.219,0.009c0.007,7.221,0.011,14.445-0.002,21.666l-0.217-0.009l-0.007-0.219
		C285.334,141.607,285.321,134.458,285.33,127.309L285.33,127.309z"/>
	<path fill="#A7C8FF" d="M251.693,127.535c0.607,0.698-0.014,2.544,0.237,3.607c8.492,0.009,16.989,0.029,25.483-0.009
		c0.023-1.07-0.029-2.138,0.068-3.201c0.185,1.131,0.242,2.273,0.169,3.424c-8.648,0.038-17.296,0.027-25.941,0.007
		C251.659,130.086,251.691,128.81,251.693,127.535L251.693,127.535z"/>
	<path fill="#CEDDFE" d="M243.639,127.926c0.343,3.844,0.07,7.72,0.154,11.578C243.293,136.086,243.634,131.707,243.639,127.926
		L243.639,127.926z"/>
	<path fill="#0280FF" d="M295.919,128.232c2.781-0.016,5.569-0.056,8.354,0.002c0.492,0.165,1.205,0.488,1.147,1.106
		c0.018,3.984-0.043,7.968,0.009,11.95l0.21,0.016c10.982,0.011,21.966-0.005,32.95,0.005c0.029,1.95,0.023,3.903-0.002,5.856
		c-12.034,0.02-24.07,0.02-36.104,0c-2.625,0.056-5.178-1.898-5.641-4.501c-0.106-4.235,0.201-8.488-0.156-12.707
		C296.508,129.343,295.871,128.91,295.919,128.232L295.919,128.232z"/>
	<path fill="#A4CEFE" d="M177.436,128.445l0.219-0.007c7.591,0.027,15.185-0.032,22.777,0.025
		c0.056,6.837-0.005,13.677,0.025,20.519l-0.007,0.217l-0.217,0.018c-0.032-6.847,0.018-13.693-0.018-20.54
		c-7.596-0.032-15.194,0.011-22.788-0.016L177.436,128.445L177.436,128.445z"/>
	<path fill="#29A2FF" d="M208.336,148.971c0.201-6.774-0.312-14.081,0.242-20.524l0.005,0.214
		c-0.005,6.472-0.016,12.946,0.002,19.42c0,0.37,0,0.745-0.025,1.117c-2.704,0.023-5.409,0.025-8.111,0l0.007-0.217
		C203.081,148.977,205.707,149.016,208.336,148.971L208.336,148.971z"/>
	<path fill="#9ED1FE" d="M208.578,128.447c7.749-0.018,15.499,0.005,23.248-0.007l0.002,0.221
		c-7.677,0.02-15.352-0.002-23.027,0.011l-0.219-0.011L208.578,128.447L208.578,128.447z"/>
	<path fill="#019DFE" d="M125.339,128.711c0.102-0.014,0.307-0.041,0.409-0.052c-1.002,5.169-3.14,10.018-4.612,15.059
		c-0.549,1.962,1.151,3.594,2.779,4.381c0.874,0.212,1.433,1.695,0.219,1.777c-2.422-0.314-5.51-1.442-5.946-4.196
		c-0.368-3.138,1.332-5.955,2.546-8.682C122.113,134.16,123.377,131.226,125.339,128.711L125.339,128.711z"/>
	<path fill="#51A3FF" d="M305.42,129.341c0.528,3.494,0.068,7.903,0.228,11.747l-0.009,0.219l-0.21-0.016
		C305.377,137.309,305.438,133.325,305.42,129.341L305.42,129.341z"/>
	<path fill="#C2D7FF" d="M296.686,129.959c0.357,4.219,0.05,8.472,0.156,12.707C296.341,138.862,296.682,134.117,296.686,129.959
		L296.686,129.959z"/>
	<path fill="#55B4FE" d="M398.023,132.93c0.341,0.449,0.395,0.991,0.16,1.625C397.729,134.147,397.675,133.605,398.023,132.93
		L398.023,132.93z"/>
	<path fill="#4DCBFE" d="M51.925,134.58c0.327-0.409,0.673-0.799,1.036-1.174c0.14,0.07,0.418,0.212,0.555,0.284
		C53.002,134.014,52.479,134.327,51.925,134.58L51.925,134.58z"/>
	<path fill="#96C1FD" d="M388.709,133.409c0.302,0.361,0.555,2.494,0.007,2.941C388.713,135.368,388.702,134.386,388.709,133.409
		L388.709,133.409z"/>
	<path fill="#BED3FE" d="M368.165,136.345c-0.307-0.257-0.573-2.415,0-2.716C368.16,134.533,368.16,135.438,368.165,136.345
		L368.165,136.345z"/>
	<path fill="#0277FE" d="M1.483,134.296c0.517-0.054,1.068-0.187,1.456,0.223c7.138,5.099,14.822,9.971,23.546,11.695
		c5.025,1.826,10.501,0.998,15.731,1.196c6.668-0.318,12.948-2.786,19.16-4.995c1.165-0.542,2.302-1.345,3.63-1.348
		c-0.115,0.481-0.282,0.948-0.413,1.427c-0.603,0.567-1.255,1.079-1.921,1.573c-0.476-1.28-1.874-0.305-2.7-0.111
		c-12.485,4.932-26.883,6.659-39.637,1.826c-1.998-1.305-4.585-1.391-6.357-3.088c-3.318-1.397-5.955-3.907-9.045-5.686
		c0.045,0.646,0.269,1.255,0.456,1.869C3.982,137.447,2.684,135.905,1.483,134.296L1.483,134.296z"/>
	<path fill="#029AFE" d="M72.973,134.598c0.564-0.323,0.923,0.758,0.377,1.07c-0.7,3.388-2.806,6.379-2.914,9.907
		c0.56,1.792,2.381,2.632,3.621,3.849c0.664,0.959-0.858,1.831-1.698,1.63c-2.722-0.305-5.562-1.901-6.298-4.707
		c0.02-1.025,0.025-2.043,0.025-3.063c0.043-0.3,0.108-0.594,0.194-0.883c0.029,0.129,0.09,0.386,0.122,0.517
		C67.553,139.544,70.102,136.709,72.973,134.598L72.973,134.598z"/>
	<path fill="#5DBBFD" d="M398.029,137.054c0.034-0.352,0.104-1.059,0.138-1.413C398.133,135.995,398.063,136.702,398.029,137.054
		L398.029,137.054z"/>
	<path fill="#036CFE" d="M4.935,137.009c3.09,1.779,5.727,4.289,9.045,5.686c1.772,1.698,4.359,1.783,6.357,3.088
		c12.754,4.833,27.151,3.106,39.637-1.826c0.826-0.194,2.223-1.169,2.7,0.111c-5.691,4.339-12.65,6.973-19.763,7.666
		c-0.316-0.126-0.729-0.158-0.944,0.165c-0.372,0.002-0.743,0.007-1.111,0.014c-0.731-0.016-1.481-0.074-2.16,0.233h-4.957
		c-0.783-0.135-1.567-0.248-2.361-0.233c-0.447-0.009-0.892-0.016-1.334-0.029c-0.314-0.327-0.79-0.278-1.174-0.122
		c-9.045-1.388-17.21-6.341-23.479-12.883C5.203,138.264,4.98,137.655,4.935,137.009L4.935,137.009z"/>
	<path fill="#4DA0FE" d="M251.684,137.027c8.657-0.014,17.316-0.011,25.975,0l-0.018,0.217l-0.219,0.007
		c-8.499-0.009-17-0.007-25.497,0l-0.219-0.007L251.684,137.027L251.684,137.027z"/>
	<path fill="#8AC4FD" d="M35.411,138.652c0.316-0.14,0.72-0.165,0.957,0.133C36.05,138.914,35.661,138.926,35.411,138.652
		L35.411,138.652z"/>
	<path fill="#A1CBFE" d="M37.237,138.901c0.501-0.307,1.034-0.278,1.596,0.084C38.33,139.273,37.797,139.246,37.237,138.901
		L37.237,138.901z"/>
	<path fill="#73C4FE" d="M39.677,139.097c1.916-0.077,3.833-0.047,5.749,0.016C43.521,139.352,41.58,139.379,39.677,139.097
		L39.677,139.097z"/>
	<path fill="#98C5FE" d="M305.648,141.088c10.984-0.007,21.971-0.014,32.957,0.005l-0.016,0.219
		c-10.984-0.009-21.968,0.007-32.95-0.005L305.648,141.088L305.648,141.088z"/>
	<path fill="#55AFFE" d="M66.061,146.348c-0.339-0.986-0.102-2.063,0.025-3.063C66.086,144.305,66.081,145.323,66.061,146.348
		L66.061,146.348z"/>
	<path fill="#079FFE" d="M134.966,149.219c-0.912-1.781-0.623-4.084,0.438-5.713c-0.081,0.379-0.167,0.756-0.228,1.138
		c-0.16,0.702-0.289,1.454-0.043,2.151c0.37,1.731,1.422,3.217,2.815,4.293c-3.476,0.309-6.975,0.122-10.458,0.104
		c2.4-0.749,4.944-0.614,7.413-0.935C135.524,150.169,135.014,149.549,134.966,149.219L134.966,149.219z"/>
	<path fill="#049FFE" d="M84.451,150.088c-1.129-1.623-1.564-3.844-0.47-5.58c-0.02,0.835,0.032,1.67,0.156,2.501
		c0.397,1.713,1.58,3.126,3.032,4.072c-3.63,0.314-7.282,0.133-10.921,0.117C78.889,150.221,81.792,150.792,84.451,150.088
		L84.451,150.088z"/>
	<path fill="#98D7FE" d="M83.982,144.508l0.133-0.147c0.104,0.88,0.05,1.761,0.023,2.648
		C84.014,146.178,83.962,145.343,83.982,144.508L83.982,144.508z"/>
	<path fill="#79D2FE" d="M135.133,146.795c-0.246-0.698-0.117-1.449,0.043-2.151C135.165,145.361,135.133,146.07,135.133,146.795
		L135.133,146.795z"/>
	<path fill="#027FFF" d="M285.323,148.756c0.011-7.149-0.002-14.298,0.007-21.447c-0.014-0.546-0.58-1.115-1.124-1.124
		c-2.499-0.005-4.993,0-7.485,0.007c0.221,0.591,0.519,1.151,0.761,1.74c0.185,1.131,0.242,2.273,0.169,3.424
		c-8.648,0.038-17.296,0.027-25.941,0.007c-0.05-1.278-0.018-2.553-0.016-3.828c-0.002-0.72-0.63-1.345-1.348-1.35
		c-2.499-0.005-4.993-0.002-7.485,0.007c0.088,0.65,0.693,1.081,0.779,1.734c0.343,3.844,0.07,7.72,0.154,11.578
		c-0.005,1.578-0.029,3.158,0.011,4.74c-0.124,2.253,1.779,4.451,4.047,4.521C260.341,148.747,272.833,148.767,285.323,148.756z
		 M251.707,137.244l0.219,0.007c8.497-0.007,16.998-0.009,25.497,0l0.219-0.007c0.025,2.029,0.027,4.059,0,6.088
		c-8.646,0.014-17.291,0.02-25.935-0.002C251.684,141.3,251.657,139.271,251.707,137.244z"/>
	<path fill="#78C2FE" d="M381.467,150.763c0.219-0.316,0.632-0.287,0.955-0.147C382.167,150.885,381.783,150.876,381.467,150.763
		L381.467,150.763z"/>
	<path fill="#82C1FE" d="M376.018,150.844c1.618-0.104,3.232-0.036,4.862,0.016C379.269,151.129,377.621,151.065,376.018,150.844
		L376.018,150.844z"/>
	<path fill="#94C7FF" d="M87.169,151.081c0.524,0.508,0.214,0.634-0.923,0.384c-4.16-0.088-8.341,0.214-12.485-0.174
		c0.831-0.029,1.655-0.07,2.488-0.093C79.887,151.214,83.54,151.395,87.169,151.081L87.169,151.081z"/>
	<path fill="#93C7FE" d="M137.948,151.088c0.544,0.499,0.239,0.623-0.912,0.375c-4.16-0.072-8.336,0.199-12.483-0.16
		c0.977-0.029,1.953-0.074,2.937-0.111C130.973,151.21,134.472,151.397,137.948,151.088L137.948,151.088z"/>
	<path fill="#92BEFE" d="M28.869,151.761c0.384-0.156,0.86-0.205,1.174,0.122C29.652,152.002,29.208,152.027,28.869,151.761
		L28.869,151.761z"/>
	<path fill="#70B0FE" d="M41.966,151.898c0.214-0.323,0.628-0.291,0.944-0.165C42.67,152.009,42.287,152.011,41.966,151.898
		L41.966,151.898z"/>
	<path fill="#7AB4FE" d="M31.377,151.912c0.795-0.016,1.578,0.097,2.361,0.233h-2.357L31.377,151.912L31.377,151.912z"/>
	<path fill="#7CB5FE" d="M38.695,152.144c0.679-0.307,1.429-0.248,2.16-0.233l0.002,0.233H38.695L38.695,152.144z"/>
</g>
</svg>
