<?xml version="1.0" encoding="utf-8"?>
<!-- Generator: Adobe Illustrator 17.0.0, SVG Export Plug-In . SVG Version: 6.00 Build 0)  -->
<!DOCTYPE svg PUBLIC "-//W3C//DTD SVG 1.1//EN" "http://www.w3.org/Graphics/SVG/1.1/DTD/svg11.dtd">
<svg version="1.1" id="레이어_1" xmlns="http://www.w3.org/2000/svg" xmlns:xlink="http://www.w3.org/1999/xlink" x="0px"
	 y="0px" width="400px" height="200px" viewBox="0 0 400 200" enable-background="new 0 0 400 200" xml:space="preserve">
<g>
	<path fill="#0679BF" d="M101.019,40.52c24.844-0.04,49.687-0.064,74.532,0.016c-0.032,6.387-0.024,12.775,0.008,19.161
		c-8.334-0.016-16.661-0.048-24.996,0.008c-0.016,32.409-0.04,64.818,0.016,97.227c-3.061,0.112-6.123,0.641-9.184,0.345
		c-4.857-0.609-9.738,0.617-14.562-0.424c0.144-7.886-0.12-15.78,0.16-23.658c0.625-8.808-0.112-17.631,0.208-26.439
		c-0.393-5.089,0.297-10.186-0.225-15.275c0.096-4.792,0.4-9.585,0.265-14.378c-0.16-5.963,0.352-11.957-0.457-17.888
		c-8.592,0.072-17.191,0.056-25.781,0C101.028,52.982,101.004,46.747,101.019,40.52L101.019,40.52z"/>
	<path fill="#0679BF" d="M68.979,40.745c7.173,0.056,14.337,0.032,21.51,0.008c-0.088,28.394,0.177,56.788,0.112,85.182
		c0.088,6.051-1.258,12.085-3.67,17.631c-2.821,6.403-8.238,11.789-14.962,13.976c-6.235,2.187-12.943,1.835-19.443,1.763
		c-7.573,0.008-15.627-2.716-20.283-8.976c-6.211-8.415-7.573-19.314-7.181-29.492c7.092-0.016,14.186-0.088,21.269,0.04
		c0.273,6.115-1.17,13.007,2.613,18.345c3.334,4.921,10.956,5.578,15.299,1.667c3.751-2.957,4.64-8.014,4.712-12.526
		C68.987,99.16,68.947,69.948,68.979,40.745L68.979,40.745z"/>
	<path fill="#0679BF" d="M188.261,156.565c-0.064-38.604-0.12-77.217,0.024-115.828c3.518,0.056,7.044,0.056,10.563-0.024
		c15.956,33.194,31.399,66.646,47.299,99.864c0.177-33.122,0.08-66.245,0.064-99.368c3.094-0.04,6.195-0.04,9.296,0.008
		c-0.016,38.5-0.048,77,0.016,115.5c-3.646-0.04-7.293-0.032-10.947,0c-12.03-25.188-23.738-50.521-35.655-75.758
		c-3.542-8.135-7.998-15.892-10.956-24.259c-0.345,5.45-0.273,10.908-0.256,16.365c0,23.786,0.008,47.564,0,71.35
		c-0.04,4.063,0.192,8.142-0.297,12.189C194.36,156.581,191.307,156.589,188.261,156.565L188.261,156.565z"/>
	<path fill="#0679BF" d="M349.514,46.53c2.989-0.016,5.987-0.008,8.984,0.056c0.08,7.661,0.08,15.323,0.016,22.984
		c5.217,0.265,10.451,0.105,15.675,0.153c0.032,3.142,0.032,6.283,0.04,9.425c-5.097,0.04-10.194,0.088-15.283,0
		c-0.729,6.508-0.425,13.095-0.184,19.635c-0.409,14.161-0.184,28.346-0.136,42.515c-0.232,3.246,1.539,6.908,4.984,7.518
		c3.783,0.345,7.59,0.529,11.389,0.657c-0.04,3.022-0.048,6.042-0.024,9.056c-5.129,0.04-10.274,0.177-15.404,0.008
		c-3.254-0.112-5.666-2.765-7.357-5.281c-2.124-3.086-2.781-6.893-2.74-10.571c-0.048-21.157,0.024-42.315-0.032-63.472
		c-3.678-0.024-7.357-0.016-11.035-0.08c0.024-3.037,0.016-6.067-0.04-9.104c3.687-0.465,7.413-0.313,11.124-0.352
		C349.45,61.958,349.426,54.249,349.514,46.53L349.514,46.53z"/>
	<path fill="#0679BF" d="M330.777,114.923c0.144-8.784-0.273-17.711-2.741-26.19c-2.332-7.878-7.589-15.098-15.034-18.825
		c-3.47-1.78-7.397-2.132-11.212-2.565c-5.786,0.297-11.749,1.611-16.285,5.441c-7.181,5.97-10.234,15.395-11.717,24.307
		c-1.539,10.899-1.483,22.015-0.105,32.93c1.266,7.693,3.43,15.684,8.791,21.598c4.568,5.257,11.605,7.982,18.505,7.877
		c6.748,0.208,14.369-1.162,18.929-6.611c5.305-6.403,7.766-14.617,9.04-22.712c-3.005-0.048-6.003-0.04-9,0.008
		c-0.4,5.513-1.9,11.268-5.746,15.419c-3.173,3.31-8.102,3.807-12.43,3.919c-7.092,0.112-13.961-4.24-16.782-10.763
		c-3.254-7.422-3.663-15.716-3.735-23.714C297.767,115.1,314.268,114.971,330.777,114.923z M287.549,83.692
		c4.8-6.018,13.592-7.437,20.644-5.137c6.003,1.804,10.186,7.309,11.901,13.143c1.611,4.448,1.435,9.216,1.867,13.856
		c-13.536-0.008-27.064,0.088-40.592-0.056C281.915,97.973,282.484,89.727,287.549,83.692z"/>
</g>
</svg>
