<?xml version="1.0" encoding="utf-8"?>
<!-- Generator: Adobe Illustrator 17.0.0, SVG Export Plug-In . SVG Version: 6.00 Build 0)  -->
<!DOCTYPE svg PUBLIC "-//W3C//DTD SVG 1.1//EN" "http://www.w3.org/Graphics/SVG/1.1/DTD/svg11.dtd">
<svg version="1.1" id="레이어_1" xmlns="http://www.w3.org/2000/svg" xmlns:xlink="http://www.w3.org/1999/xlink" x="0px"
	 y="0px" width="400px" height="200px" viewBox="0 0 400 200" enable-background="new 0 0 400 200" xml:space="preserve">
<g>
	<path fill="#FFFFFF" d="M96.879,38.031c25.883-0.042,51.766-0.067,77.65,0.017c-0.033,6.654-0.025,13.309,0.008,19.963
		c-8.683-0.017-17.358-0.05-26.042,0.008c-0.017,33.765-0.042,67.53,0.017,101.295c-3.189,0.117-6.379,0.668-9.568,0.359
		c-5.06-0.635-10.145,0.643-15.171-0.442c0.15-8.216-0.125-16.44,0.167-24.648c0.651-9.176-0.117-18.369,0.217-27.545
		c-0.409-5.302,0.309-10.612-0.234-15.914c0.1-4.993,0.417-9.986,0.276-14.979c-0.167-6.212,0.367-12.457-0.476-18.636
		c-8.951,0.075-17.91,0.058-26.86,0C96.888,51.014,96.863,44.519,96.879,38.031L96.879,38.031z"/>
	<path fill="#FFFFFF" d="M63.498,38.265c7.473,0.058,14.937,0.033,22.41,0.008c-0.092,29.582,0.184,59.164,0.117,88.746
		c0.092,6.304-1.311,12.591-3.824,18.369c-2.939,6.671-8.583,12.282-15.588,14.561c-6.496,2.279-13.484,1.912-20.256,1.837
		c-7.89,0.008-16.281-2.83-21.132-9.351c-6.471-8.767-7.89-20.122-7.481-30.726c7.389-0.017,14.779-0.092,22.159,0.042
		c0.284,6.371-1.219,13.551,2.722,19.112c3.473,5.127,11.414,5.811,15.939,1.737c3.908-3.081,4.834-8.349,4.909-13.05
		C63.507,99.124,63.465,68.69,63.498,38.265L63.498,38.265z"/>
	<path fill="#FFFFFF" d="M187.771,158.931c-0.067-40.219-0.125-80.447,0.025-120.674c3.665,0.058,7.339,0.058,11.005-0.025
		c16.624,34.583,32.713,69.434,49.278,104.042c0.184-34.508,0.083-69.016,0.067-103.525c3.223-0.042,6.454-0.042,9.685,0.008
		c-0.017,40.111-0.05,80.221,0.017,120.332c-3.799-0.042-7.598-0.033-11.405,0c-12.533-26.242-24.731-52.635-37.147-78.927
		c-3.69-8.475-8.333-16.557-11.414-25.274c-0.359,5.678-0.284,11.364-0.267,17.05c0,24.781,0.008,49.554,0,74.335
		c-0.042,4.233,0.2,8.483-0.309,12.699C194.125,158.948,190.944,158.956,187.771,158.931L187.771,158.931z"/>
	<path fill="#FFFFFF" d="M355.77,44.293c3.114-0.017,6.237-0.008,9.36,0.058c0.083,7.982,0.083,15.964,0.017,23.946
		c5.435,0.276,10.888,0.109,16.331,0.159c0.033,3.273,0.033,6.546,0.042,9.819c-5.31,0.042-10.62,0.092-15.922,0
		c-0.76,6.78-0.443,13.643-0.192,20.456c-0.426,14.753-0.192,29.532-0.142,44.294c-0.242,3.382,1.603,7.197,5.193,7.832
		c3.941,0.359,7.907,0.551,11.865,0.685c-0.042,3.148-0.05,6.295-0.025,9.435c-5.344,0.042-10.704,0.184-16.048,0.008
		c-3.39-0.117-5.903-2.881-7.665-5.502c-2.213-3.215-2.897-7.181-2.855-11.013c-0.05-22.042,0.025-44.085-0.033-66.127
		c-3.832-0.025-7.665-0.017-11.497-0.083c0.025-3.164,0.017-6.321-0.042-9.485c3.841-0.484,7.723-0.326,11.589-0.367
		C355.703,60.366,355.678,52.334,355.77,44.293L355.77,44.293z"/>
	<path fill="#FFFFFF" d="M336.249,115.547c0.15-9.151-0.284-18.452-2.856-27.286c-2.43-8.208-7.907-15.73-15.663-19.613
		c-3.615-1.854-7.707-2.221-11.681-2.672c-6.028,0.309-12.24,1.678-16.966,5.669c-7.481,6.22-10.662,16.039-12.207,25.324
		c-1.603,11.355-1.545,22.936-0.109,34.308c1.319,8.015,3.574,16.34,9.159,22.502c4.759,5.477,12.09,8.316,19.279,8.207
		c7.03,0.217,14.97-1.211,19.721-6.888c5.527-6.671,8.091-15.229,9.418-23.662c-3.131-0.05-6.254-0.042-9.376,0.008
		c-0.417,5.744-1.979,11.739-5.986,16.064c-3.306,3.448-8.441,3.966-12.95,4.083c-7.389,0.117-14.545-4.417-17.484-11.213
		c-3.39-7.732-3.816-16.373-3.891-24.706C301.858,115.731,319.049,115.597,336.249,115.547z M291.212,83.009
		c5.001-6.27,14.161-7.748,21.508-5.352c6.254,1.879,10.612,7.615,12.399,13.693c1.678,4.634,1.495,9.602,1.945,14.436
		c-14.102-0.008-28.196,0.092-42.29-0.058C285.343,97.888,285.935,89.297,291.212,83.009z"/>
</g>
</svg>
