<?xml version="1.0" encoding="utf-8"?>
<!-- Generator: Adobe Illustrator 17.0.0, SVG Export Plug-In . SVG Version: 6.00 Build 0)  -->
<!DOCTYPE svg PUBLIC "-//W3C//DTD SVG 1.1//EN" "http://www.w3.org/Graphics/SVG/1.1/DTD/svg11.dtd">
<svg version="1.1" id="레이어_1" xmlns="http://www.w3.org/2000/svg" xmlns:xlink="http://www.w3.org/1999/xlink" x="0px"
	 y="0px" width="400px" height="200px" viewBox="0 0 400 200" enable-background="new 0 0 400 200" xml:space="preserve">
<g>
	<path fill="#FE1106" d="M265.363,43.476c23.526-10.006,50.13-11.737,75.074-6.698c12.032,2.558,23.804,6.692,34.43,12.947
		c7.874,4.601,15.103,10.455,20.715,17.679c1.701,2.185,3.272,4.489,4.418,7.017c-4.643-0.242-9.244-0.963-13.887-1.164
		c0.201,10.833,1.022,21.642,1.122,32.475c-1.488-1.406-1.967-3.491-3.072-5.157c-10.691-17.744-27.88-31.152-47.206-38.358
		c-24.714-9.303-52.646-9.693-77.637-1.199c-13.922,4.79-26.929,12.487-37.395,22.888c-2.097,2.05-3.863,4.442-6.226,6.208
		c0.289-2.416,1.683-4.465,2.835-6.545C229.309,65.638,246.125,51.574,265.363,43.476L265.363,43.476z"/>
	<path fill="#6A6A6A" d="M46.697,55.337c10.041-0.006,20.089-0.053,30.136,0.024c0,1.902,0,3.81-0.012,5.718
		c-6.279-0.035-12.558-0.012-18.836-0.012c0.053,4.465,0.112,8.931,0.059,13.402c5.411-0.1,10.833-0.012,16.249-0.041
		c-0.006,1.926-0.03,3.851-0.071,5.777c-5.393,0.012-10.78-0.035-16.173,0.024c0,5.21,0.03,10.419,0.018,15.635
		c6.651,0.03,13.302,0.006,19.953,0.012c0.006,1.961,0.006,3.922,0.006,5.883c-10.396-0.059-20.792-0.03-31.187-0.012
		C46.869,86.276,46.65,70.806,46.697,55.337L46.697,55.337z"/>
	<path fill="#6A6A6A" d="M81.913,62.029c3.91-0.1,7.82-0.065,11.731-0.041c3.249,9.392,6.627,18.73,9.959,28.092
		c3.148-9.386,6.474-18.706,9.604-28.104c3.018,0,6.037-0.012,9.055,0.012c-4.985,13.219-9.793,26.509-14.714,39.752
		c-3.591-0.018-7.177-0.012-10.762-0.006C91.842,88.491,86.91,75.248,81.913,62.029L81.913,62.029z"/>
	<path fill="#6A6A6A" d="M131.015,62.058c8.76-0.03,17.525-0.006,26.285-0.012c-0.018,1.825-0.024,3.65-0.053,5.481
		c-5.145,0-10.284-0.024-15.422,0.012c0.035,3.42-0.083,6.846,0.112,10.266c4.241,0.047,8.488-0.024,12.729,0.03
		c-0.018,1.819-0.024,3.639-0.059,5.458c-4.247-0.041-8.488,0.024-12.729-0.041c-0.071,4.276-0.112,8.547,0.029,12.823
		c5.476,0.012,10.957-0.006,16.438,0.006c-0.006,1.89-0.012,3.78-0.012,5.67c-9.073-0.041-18.145-0.065-27.218,0.018
		C130.95,88.532,131.145,75.295,131.015,62.058L131.015,62.058z"/>
	<path fill="#6A6A6A" d="M196.946,87.593c-1.742-2.245-3.857-4.241-6.486-5.405c3.196-0.768,6.675-1.737,8.836-4.406
		c2.723-3.207,2.174-8.346-0.632-11.335c-2.203-2.493-5.481-3.704-8.695-4.206c-7.029-1.028-14.206-0.62-21.17,0.65
		c-0.012,12.965-0.089,25.93,0.041,38.89c3.55-0.095,7.1-0.071,10.656-0.024c0.035-5.918-0.047-11.843,0.047-17.767
		c1.872,0.189,3.757,0.886,4.79,2.558c3.385,4.879,6.409,10.006,9.386,15.145c4.566,0.053,9.138,0.077,13.704-0.03
		C203.898,96.996,200.519,92.224,196.946,87.593z M187.365,78.325c-2.286,1.642-5.227,1.601-7.909,1.542
		c0.089-4.542,0.041-9.085,0.035-13.627c2.569-0.142,5.387-0.354,7.643,1.128C190.909,69.637,190.968,75.874,187.365,78.325z"/>
	<path fill="#FE1106" d="M6.172,84.752c-0.195-0.727,0.886-1.766,1.335-0.786c14.259,20.668,35.44,35.741,58.228,45.759
		c26.698,11.583,57.088,16.043,85.629,9.232c13.65-3.26,26.686-9.09,38.157-17.188c6.527-4.347,12.197-9.781,17.939-15.08
		c-0.148,0.791-0.26,1.607-0.673,2.31c-10.396,18.47-26.362,33.739-45.292,43.261c-25.092,12.764-54.253,15.995-81.932,12.227
		c-14.578-2.032-28.907-6.007-42.31-12.109c-13.804-6.35-26.858-15.062-36.344-27.094c-0.774-0.886-1.093-2.109-0.803-3.255
		C2.102,109.595,4.175,97.18,6.172,84.752L6.172,84.752z"/>
	<path fill="#6A6A6A" d="M245.824,123.783c-1.683-2.877-4.448-4.82-7.265-6.462c3.261-0.904,6.799-2.05,8.801-4.997
		c3.113-4.536,2.115-11.565-2.428-14.82c-3.662-2.628-8.317-3.379-12.717-3.603c-5.576-0.071-11.229-0.03-16.675,1.288
		c0.077,15.115,0.047,30.225,0.012,45.34c3.615-0.065,7.236,0.165,10.845-0.094c0.224-6.97,0.047-13.952,0.089-20.921
		c1.453,0.112,3.148-0.095,4.324,0.957c1.825,1.589,2.989,3.768,4.123,5.877c2.392,4.654,4.566,9.421,6.745,14.188
		c4.613,0.012,9.232-0.012,13.851,0.006C252.351,134.923,249.185,129.294,245.824,123.783z M234.955,112.879
		c-2.38,1.949-5.6,1.89-8.5,1.742c0.083-5.375,0.018-10.75,0.047-16.119c2.67-0.089,5.665-0.467,7.945,1.258
		C238.789,102.614,239.013,109.678,234.955,112.879z"/>
	<path fill="#6A6A6A" d="M287.478,103.559c5.151-3.219,11.506-3.674,17.413-3.03c3.591,0.508,7.33,1.849,9.646,4.79
		c1.518,1.748,2.079,4.058,2.552,6.273c-3.503,0.573-6.988,1.235-10.508,1.672c-0.685-2.422-0.933-5.286-3.066-6.964
		c-2.416-2.032-6.208-1.465-8.364,0.673c-3.296,3.272-4.46,8.139-4.33,12.664c0.035,4.253,0.862,8.86,3.763,12.138
		c4.164,4.46,11.341,4.04,16.326,1.252c0.998,1.512,1.955,3.048,2.918,4.584c-5.162,3.497-11.683,4.206-17.738,3.444
		c-5.541-0.792-11.034-3.768-13.839-8.742c-2.812-4.643-3.414-10.331-2.664-15.623C280.455,111.568,282.989,106.418,287.478,103.559
		L287.478,103.559z"/>
	<path fill="#6A6A6A" d="M260.744,100.806c3.532-0.012,7.064-0.047,10.603-0.012c0.047,13.255,0,26.503,0.024,39.758
		c-3.55-0.035-7.1-0.012-10.65-0.024C260.768,127.286,260.726,114.049,260.744,100.806L260.744,100.806z"/>
	<path fill="#6A6A6A" d="M325.08,100.818c3.686-0.065,7.377-0.041,11.075-0.006c-0.035,5.162-0.006,10.325-0.024,15.493
		c5.174,0.077,10.354,0.071,15.535,0.006c-0.024-5.168,0.018-10.331-0.018-15.499c3.668-0.053,7.342-0.024,11.016-0.012
		c0.041,13.249,0.053,26.503-0.006,39.758c-3.656-0.041-7.318-0.047-10.975,0.024c-0.053-6.167,0.006-12.333-0.041-18.5
		c-5.157-0.035-10.319-0.165-15.476,0.006c-0.041,6.149-0.071,12.304,0.018,18.452c-3.715-0.018-7.431,0-11.14-0.006
		C325.097,127.292,325.026,114.055,325.08,100.818L325.08,100.818z"/>
</g>
</svg>
