<?xml version="1.0" encoding="utf-8"?>
<!-- Generator: Adobe Illustrator 17.0.0, SVG Export Plug-In . SVG Version: 6.00 Build 0)  -->
<!DOCTYPE svg PUBLIC "-//W3C//DTD SVG 1.1//EN" "http://www.w3.org/Graphics/SVG/1.1/DTD/svg11.dtd">
<svg version="1.1" id="레이어_1" xmlns="http://www.w3.org/2000/svg" xmlns:xlink="http://www.w3.org/1999/xlink" x="0px"
	 y="0px" width="320px" height="160px" viewBox="0 0 320 160" enable-background="new 0 0 320 160" xml:space="preserve">
<g>
	<g>
		<g>
			<path d="M126.914,55.642h-21.877v22.659h21.877V55.642z M123.308,74.695h-14.664V59.248h14.664V74.695z"/>
			<path d="M52.62,78.301h21.876V55.642H52.62V78.301z M56.226,59.248h14.664v15.447H56.226V59.248z"/>
			<path d="M26.974,78.301h21.877V55.642H26.974V78.301z M30.58,59.248h14.665v15.447H30.58V59.248z"/>
			<path d="M48.716,101.091c-3.55,0-6.439,2.889-6.439,6.438c0,3.55,2.889,6.438,6.439,6.438c3.55,0,6.438-2.888,6.438-6.438
				C55.154,103.98,52.265,101.091,48.716,101.091z M48.716,110.362c-1.561,0-2.832-1.271-2.832-2.832
				c0-1.561,1.271-2.832,2.832-2.832c1.561,0,2.832,1.271,2.832,2.832C51.548,109.091,50.277,110.362,48.716,110.362z"/>
			<rect x="84.877" y="61.399" width="3.606" height="16.902"/>
			<rect x="91.469" y="61.641" width="3.606" height="16.903"/>
			<rect x="63.318" y="118.48" width="9.263" height="3.606"/>
			<path d="M136.956,110.414h11.357V97.379h-1.949v-8.812V76.498l-5.114-25.379v-5.96v-1.986h-0.003h-12.083v-5.258h-21.877v5.258
				H15.429v9.931v44.275h-1.775v13.036h20.795c0.644,3.192,2.344,5.999,4.707,8.065H18.092v3.606h29.709v-0.046
				c0.304,0.019,0.606,0.046,0.915,0.046c7.038,0,12.924-5.023,14.267-11.671h14.985h1.243h20.133h2.339h6.74
				c0.645,3.192,2.344,5.999,4.708,8.065H79.21v3.606h64.222v-3.606h-11.184C134.613,116.413,136.312,113.606,136.956,110.414z
				 M144.707,106.808h-7.498c-0.103-2.087-0.642-4.057-1.536-5.824h1.22h7.814V106.808z M140.499,97.379v-5.206h2.259v5.206H140.499
				z M142.359,74.695h-8.763V59.248h5.655L142.359,74.695z M110.893,41.521h14.665v1.652h-14.665V41.521z M19.035,46.779h88.252
				h21.877h8.48v2.718H19.035V46.779z M17.26,100.985h1.775h16.697c-0.894,1.767-1.432,3.737-1.536,5.824H17.26V100.985z
				 M48.716,118.48c-6.038,0-10.95-4.912-10.95-10.95c0-6.038,4.912-10.951,10.95-10.951c6.038,0,10.95,4.913,10.95,10.951
				C59.665,113.568,54.754,118.48,48.716,118.48z M63.235,106.808c-0.103-2.087-0.641-4.057-1.536-5.824h16.268v5.824H63.235z
				 M98.076,106.808H81.574v-47.56h16.502V106.808z M77.968,55.642v41.737H59.128c-2.645-2.714-6.333-4.406-10.413-4.406
				c-4.08,0-7.768,1.692-10.413,4.406H19.035V53.103h118.98l0.511,2.539h-8.536v22.659h12.768v10.266h-5.865v8.812h-3.791
				c-2.646-2.714-6.333-4.406-10.413-4.406c-4.08,0-7.768,1.692-10.414,4.406h-10.594V55.642H77.968z M101.682,100.985h8.023
				c-0.894,1.767-1.433,3.737-1.536,5.824h-6.487V100.985z M111.738,107.53c0-6.038,4.913-10.951,10.951-10.951
				c6.038,0,10.95,4.913,10.95,10.951c0,6.038-4.912,10.95-10.95,10.95C116.651,118.48,111.738,113.568,111.738,107.53z"/>
			<path d="M122.689,101.091c-3.55,0-6.439,2.889-6.439,6.438c0,3.55,2.889,6.438,6.439,6.438c3.55,0,6.438-2.888,6.438-6.438
				C129.128,103.98,126.239,101.091,122.689,101.091z M122.689,110.362c-1.562,0-2.833-1.271-2.833-2.832
				c0-1.561,1.271-2.832,2.833-2.832c1.561,0,2.832,1.271,2.832,2.832C125.522,109.091,124.251,110.362,122.689,110.362z"/>
		</g>
	</g>
	<g>
		<polygon fill="#EB4237" points="183.297,93.665 199.428,93.665 199.428,95.992 183.297,98.286 183.297,103.43 183.297,105.481 
			183.297,106.773 183.297,108.722 183.297,113.968 206.809,113.968 206.809,106.773 190.931,106.773 190.931,104.396 
			206.809,102.138 206.809,95.56 206.809,94.943 206.809,93.665 206.809,90.468 206.809,86.47 183.297,86.47 		"/>
		<path fill="#EB4237" d="M199.16,73.026c1.89-0.618,3.598-1.673,5.114-3.19c2.56-2.559,3.839-5.652,3.839-9.277
			c0-3.626-1.279-6.682-3.839-9.171c-2.56-2.488-5.652-3.733-9.277-3.733c-3.626,0-6.684,1.245-9.172,3.733
			c-2.49,2.489-3.732,5.545-3.732,9.171c0,3.626,1.242,6.718,3.732,9.277c1.525,1.57,3.267,2.653,5.22,3.26v2.694h-13.777v7.623
			h35.669V75.79H199.16V73.026z M191.166,56.67c1.08-1.042,2.354-1.563,3.822-1.563c1.543,0,2.876,0.521,3.995,1.563
			c1.117,1.043,1.679,2.336,1.679,3.88c0,1.467-0.562,2.78-1.679,3.937c-1.12,1.158-2.452,1.737-3.995,1.737
			c-1.467,0-2.742-0.579-3.822-1.737c-1.082-1.158-1.622-2.47-1.622-3.937C189.544,59.006,190.084,57.713,191.166,56.67z"/>
		<polygon fill="#EB4237" points="252.453,64.396 246.076,64.396 246.076,72.511 252.453,72.511 252.453,95.88 260.512,95.88 
			260.512,48.173 252.453,48.173 		"/>
		<path fill="#EB4237" d="M235.593,61.431h-8.555v-8.106h-8.059v30.257h6.664h1.395h8.555h2.281h5.777V53.325h-8.059V61.431z
			 M227.038,75.467v-5.922h8.555v5.922H227.038z"/>
		<rect x="265.936" y="85.746" fill="#EB4237" width="40.41" height="8.12"/>
		<path fill="#EB4237" d="M285.185,69.842c5.357,3.86,10.544,9.805,10.544,9.805l6.187-5.489c-4.02-5.796-9.313-9.67-12.933-11.855
			c1.201-3.445,1.963-7.453,1.963-12.114h-8.6c0,0,0.278,17.016-14.3,23.88l4.695,6.421C272.741,80.49,279.852,77.6,285.185,69.842z
			"/>
	</g>
</g>
</svg>
