<?xml version="1.0" encoding="utf-8"?>
<!-- Generator: Adobe Illustrator 17.0.0, SVG Export Plug-In . SVG Version: 6.00 Build 0)  -->
<!DOCTYPE svg PUBLIC "-//W3C//DTD SVG 1.1//EN" "http://www.w3.org/Graphics/SVG/1.1/DTD/svg11.dtd">
<svg version="1.1" id="레이어_1" xmlns="http://www.w3.org/2000/svg" xmlns:xlink="http://www.w3.org/1999/xlink" x="0px"
	 y="0px" width="320px" height="160px" viewBox="0 0 320 160" enable-background="new 0 0 320 160" xml:space="preserve">
<path d="M71.762,28.241c3.82,0,7.629,0,11.439,0c-0.135,21.045-0.176,42.09-0.29,63.135c-0.031,3.116,0.217,6.822,2.992,8.809
	c2.743,2.174,6.356,1.284,9.348,0.186c-0.507-3.302-0.952-6.625-0.89-9.969c0.145-20.724,0.145-41.448,0.3-62.162
	c3.799,0,7.588,0,11.387,0c0.01,21.759-0.238,43.519-0.197,65.278c-0.186,3.841,2.443,7.919,6.532,8.105
	c4.731,0.714,8.095-3.261,10.476-6.749c5.911,4.286,13.126,7.878,20.631,6.667c3.281-0.414,6.501-3.53,5.559-7.018
	c-1.253-2.681-4.182-3.892-6.739-4.99c-6.294-2.464-13.55-3.602-18.405-8.727c-5.217-5.217-4.12-14.523,1.097-19.358
	c9.441-8.437,24.337-6.749,34.368-0.186c-1.439,2.826-2.888,5.662-4.317,8.499c-6.118-3.551-13.954-6.056-20.766-2.992
	c-3.313,1.377-3.851,6.915-0.238,8.25c7.277,3.043,15.652,3.789,21.946,8.944c4.658,3.623,5.373,10.341,3.903,15.714
	c-1.636,6.066-7.35,10.269-13.323,11.49c-7.774,1.698-15.766-0.352-22.929-3.385c-6.801,4.907-16.376,5.217-23.115,0.031
	c-6.77,4.803-16.283,5.041-22.919-0.145c-3.872,2.267-8.25,4.089-12.846,3.561c-8.24-0.393-15.383-7.526-15.869-15.755
	c-0.983-7.153,1.76-15.31-3.012-21.552c-5.041-7.681-16.728-9.493-23.788-3.561c-7.298,5.414-8.592,16.946-2.619,23.809
	c4.431,5.704,12.422,7.35,19.099,5.072c1.801,3.178,3.644,6.335,5.414,9.534c-5.228,2.07-10.963,3.219-16.563,2.081
	c-12.186-1.965-21.896-13-22.704-25.267v-4.13c0.838-12.256,10.559-23.281,22.753-25.248c7.484-1.491,15.196,0.756,21.438,4.927
	c-0.031-1.522-0.072-3.043-0.093-4.565c3.83,0,7.66,0,11.49,0c-0.062,11.936-0.166,23.871-0.135,35.807
	c-0.072,3.064,0.849,6.625,3.83,8.085c2.64,1.511,5.662,0.559,8.333-0.28c-0.507-3.24-0.942-6.501-0.88-9.793
	C71.607,69.679,71.617,48.955,71.762,28.241L71.762,28.241z"/>
<path d="M166.604,28.252c3.809-0.103,7.629-0.135,11.449-0.041c0.01,9.368-0.093,18.726-0.083,28.095
	c4.72,0.093,9.451,0.093,14.182,0.072c0,3.085,0,6.17,0,9.254c-4.741,0-9.482,0.041-14.223-0.062
	c-0.052,9.317-0.124,18.633-0.114,27.939c-0.176,3.675,1.967,7.826,5.932,8.312c3.395,0.921,6.346-1.273,8.851-3.25
	c1.522,2.723,3.085,5.424,4.607,8.147c-3.54,2.754-7.66,5.103-12.267,5.207c-7.215,0.611-14.492-3.841-17.142-10.579
	c-1.718-4.12-1.449-8.664-1.408-13.033C166.439,68.292,166.584,48.272,166.604,28.252L166.604,28.252z"/>
<path d="M258.59,56.584c4.089-0.01,8.168-0.01,12.256-0.01c5.331,13.395,10.631,26.801,15.931,40.206
	c5.445-13.395,10.838-26.811,16.283-40.206c4.068,0,8.136,0,12.215,0.01v0.114c-8.727,21.397-17.453,42.794-26.19,64.181
	c-2.402,6.201-8.023,11.087-14.72,11.915h-4.048c-4.255-0.58-8.023-2.733-11.387-5.279c1.698-3.106,3.447-6.19,5.176-9.296
	c2.339,1.46,4.772,3.292,7.671,3.188c5.341,0.176,9.938-5.994,7.691-10.994C272.813,92.36,265.619,74.493,258.59,56.584
	L258.59,56.584z"/>
<path d="M203.177,66.16c8.934-10.89,26.252-12.639,37.401-4.141c-0.021-1.812-0.031-3.623-0.031-5.445c3.82,0,7.64,0,11.459,0
	c-0.062,18.219-0.093,36.438-0.259,54.657c-5.145-2.36-9.596-6.718-10.724-12.422c-1.998-7.909,1.863-17.029-3.395-24.057
	c-4.979-7.567-16.387-9.461-23.498-3.83c-7.339,5.197-8.965,16.521-3.333,23.55c4.327,5.983,12.619,8.085,19.43,5.486
	c1.832,3.199,3.675,6.387,5.476,9.596c-4.648,1.894-9.7,3.043-14.73,2.381c-9.979-0.983-18.995-7.992-22.587-17.318
	C194.554,85.217,196.448,73.779,203.177,66.16L203.177,66.16z"/>
</svg>
