<?xml version="1.0" encoding="utf-8"?>
<!-- Generator: Adobe Illustrator 17.0.0, SVG Export Plug-In . SVG Version: 6.00 Build 0)  -->
<!DOCTYPE svg PUBLIC "-//W3C//DTD SVG 1.1//EN" "http://www.w3.org/Graphics/SVG/1.1/DTD/svg11.dtd">
<svg version="1.1" id="레이어_1" xmlns="http://www.w3.org/2000/svg" xmlns:xlink="http://www.w3.org/1999/xlink" x="0px"
	 y="0px" width="320px" height="160px" viewBox="0 0 320 160" enable-background="new 0 0 320 160" xml:space="preserve">
<g>
	<path fill="#222222" d="M81.245,52.024c3.058,0.089,6.116,0.14,9.174,0.19c0.038,7.524,0.051,15.036-0.025,22.56
		c3.502-3.451,6.903-7.004,10.29-10.57c3.73,0.013,7.474,0,11.204,0.038c-3.984,3.959-8.083,7.804-11.978,11.851
		c4.34,6.712,8.971,13.234,13.107,20.061c-3.692,0.089-7.372,0.076-11.064,0.089c-2.842-4.631-5.672-9.263-8.577-13.831
		c-1.002,1.002-1.979,1.992-2.969,2.995c0.038,3.591,0.038,7.194,0.038,10.785c-3.058,0.038-6.116,0.038-9.161,0.013
		C81.194,81.487,81.271,66.755,81.245,52.024L81.245,52.024z"/>
	<path fill="#222222" d="M161.171,52.049c3.071,0.076,6.141,0.089,9.225,0.063c-0.013,2.512-0.013,5.037-0.013,7.55
		c-3.071,0.013-6.129,0-9.187,0C161.183,57.125,161.171,54.587,161.171,52.049L161.171,52.049z"/>
	<path fill="#222222" d="M153.088,62.891c-2.335-5.786-8.133-9.694-14.262-10.278c-7.423-0.647-14.896-0.013-22.345-0.343
		c0.051,14.719-0.013,29.438,0.038,44.169c6.903-0.089,13.805,0.178,20.708-0.102c6.382-0.406,12.803-3.921,15.467-9.935
		C155.943,79.081,156.222,70.288,153.088,62.891z M142.671,83.877c-3.756,5.342-10.95,3.553-16.508,3.768
		c0.025-8.907-0.013-17.815,0.025-26.735c5.482,0.14,12.27-1.104,16.178,3.756C146.147,70.161,146.363,78.282,142.671,83.877z"/>
	<path fill="#222222" d="M51.808,65.017c5.278-2.36,11.521-2.449,16.939-0.469c3.933,1.32,5.888,5.228,6.611,9.047
		c-2.842,0.102-5.684,0.127-8.527,0.14c-1.256-4.733-8.717-5.913-11.052-1.561c4.2,5.989,13.805,2.868,18.551,8.489
		c3.769,5.494,0.469,14.034-6.167,15.442c-5.811,1.002-12.536,1.51-17.675-1.916c-2.969-1.903-3.857-5.431-4.593-8.654
		c2.817-0.038,5.634-0.051,8.451-0.038c1.548,5.697,8.476,6.484,12.638,3.134c-0.634-1.561-0.571-3.883-2.627-4.301
		c-4.403-1.852-9.39-1.992-13.666-4.162C44.829,77.135,46.098,67.504,51.808,65.017L51.808,65.017z"/>
	<path fill="#222222" d="M220.858,67.314c4.289-3.756,10.493-5.481,15.873-3.033c4.2,1.497,5.532,6.281,5.596,10.303
		c0.089,7.207,0,14.414-0.013,21.621c-2.931,0.025-5.875,0.025-8.806,0.025c-0.266-7.347,0.647-14.795-0.672-22.065
		c-1.434-5.57-10.164-4.225-10.899,1.091c-1.18,6.915-0.355,13.996-0.596,20.974c-2.918,0-5.837,0-8.742-0.025
		c-0.076-10.671,0.101-21.342-0.102-32.013c2.893,0.025,5.799,0.025,8.704,0.063C221.111,65.017,220.947,66.552,220.858,67.314
		L220.858,67.314z"/>
	<path fill="#222222" d="M29.006,52.359c-3.413,0-6.826-0.013-10.24-0.089C13.209,66.976,7.474,81.619,2.183,96.414
		c3.375,0.038,6.75,0.025,10.138-0.025c1.129-3.299,2.284-6.585,3.489-9.846c5.24,0.013,10.481,0.025,15.721-0.025
		c1.117,3.312,2.233,6.611,3.35,9.922c3.464,0,6.928,0,10.392-0.025C40.16,81.606,34.297,67.09,29.006,52.359z M18.424,78.891
		c1.751-4.872,3.439-9.758,5.291-14.592c1.827,4.834,3.477,9.745,5.164,14.63C25.39,79.094,21.901,79.119,18.424,78.891z"/>
	<path fill="#222222" d="M161.171,64.205c3.071,0.013,6.141,0.013,9.212,0c-0.025,10.684,0,21.355,0.013,32.039
		c-0.14,3.02-0.038,6.649-2.614,8.755c-3.261,2.639-7.803,1.84-11.699,2.043c0.013-2.424,0.025-4.86,0.038-7.283
		c1.662-0.317,3.337-0.634,4.999-0.99C161.247,87.248,161.171,75.726,161.171,64.205L161.171,64.205z"/>
	<path fill="#222222" d="M279.187,64.426c-2.842,0-5.685-0.013-8.527-0.025c-0.013,0.711-0.063,2.157-0.089,2.868
		c-5.367-5.837-15.899-4.987-20.137,1.738c-3.591,5.761-3.553,13.488-0.99,19.629c3.68,8.045,15.417,8.857,21.406,2.982
		c-0.368,2.995,0.102,6.725-2.614,8.793c-3.451,3.02-9.237,1.459-10.887-2.766c-2.995-0.051-5.976-0.051-8.958-0.025
		c0.66,2.297,0.99,4.91,2.931,6.56c4.644,4.504,11.775,4.492,17.739,3.401c5.367-1.015,10.062-5.659,10.024-11.318
		C279.263,85.654,279.035,75.034,279.187,64.426z M263.047,88.433c-7.639-1.155-8.59-13.513-2.474-17.168
		c3.921-2.474,8.984,0.749,9.681,4.999C272.018,81.302,269.163,88.712,263.047,88.433z"/>
	<path fill="#222222" d="M316.187,72.229c-3.312-7.867-13.424-10.519-21.012-7.88c-10.595,2.982-12.854,16.99-8.083,25.618
		c4.187,7.486,14.44,8.4,21.786,5.735C317.71,92.011,319.676,80.299,316.187,72.229z M305.706,88.496
		c-3.223,3.071-9.326,1.726-10.823-2.538c-1.903-4.72-1.751-11.42,2.868-14.541c3.68-2.449,8.869-0.102,10.138,3.959
		C309.297,79.665,309.208,85.21,305.706,88.496z"/>
	<path fill="#222222" d="M205.771,70.669c-0.393-3.058-3.045-5.329-5.888-6.154c-5.951-1.776-12.727-1.624-18.297,1.269
		c-3.248,1.649-4.403,5.266-4.936,8.603c2.944,0.089,5.875,0.114,8.819,0.127c1.053-4.238,5.824-5.989,9.567-4.06
		c1.941,0.812,2.144,3.337,1.269,5.012c-5.456,3.109-12.739,0.977-17.789,5.126c-4.504,4.378-3.324,13.907,3.198,15.797
		c5.101,1.117,10.823,0.914,15.188-2.259c1.383,4.124,6.674,1.637,9.91,2.335C204.997,87.976,206.431,79.259,205.771,70.669z
		 M195.455,88.458c-2.69,3.654-9.047,3.375-10.95-0.952c0.355-0.825,1.079-2.474,1.447-3.299c3.426-1.548,7.194-1.954,10.861-2.652
		C196.559,83.865,197.155,86.58,195.455,88.458z"/>
</g>
</svg>
