<?xml version="1.0" encoding="utf-8"?>
<!-- Generator: Adobe Illustrator 17.0.0, SVG Export Plug-In . SVG Version: 6.00 Build 0)  -->
<!DOCTYPE svg PUBLIC "-//W3C//DTD SVG 1.1//EN" "http://www.w3.org/Graphics/SVG/1.1/DTD/svg11.dtd">
<svg version="1.1" id="레이어_1" xmlns="http://www.w3.org/2000/svg" xmlns:xlink="http://www.w3.org/1999/xlink" x="0px"
	 y="0px" width="320px" height="160px" viewBox="0 0 320 160" enable-background="new 0 0 320 160" xml:space="preserve">
<g>
	<path fill="#2C292A" d="M82.408,30.201c13.929,0,27.85,0,41.779,0c-0.008,3.749,0.016,7.498-0.008,11.256
		c-4.744-0.024-9.487-0.024-14.231-0.008c0.024,21.762-0.081,43.532,0.057,65.293c-4.401,0.122-8.811,0.139-13.212-0.008
		c0.155-21.762,0.033-43.523,0.065-65.285c-4.801,0-9.593-0.041-14.394,0.024C82.343,37.716,82.432,33.958,82.408,30.201
		L82.408,30.201z"/>
	<path fill="#2C292A" d="M131.677,30.217c11.533,0.033,23.066-0.139,34.59,0.082c-0.204,3.855,0.041,7.727-0.179,11.582
		c-7.221-0.139-14.443,0-21.664-0.073c-0.082,6.724-0.008,13.448-0.033,20.181c6.74,0.065,13.489-0.13,20.229,0.09
		c-0.163,3.586,0.024,7.172-0.139,10.75c-6.667-0.114-13.326,0.065-19.985-0.09c-0.228,7.482-0.073,14.972-0.082,22.463
		c7.653-0.016,15.315,0,22.968-0.008c0,3.871,0,7.751,0,11.623c-11.9-0.016-23.807,0.016-35.707-0.008
		C131.71,81.272,131.702,55.744,131.677,30.217L131.677,30.217z"/>
	<path fill="#2C292A" d="M233.558,30.217c5.925-0.041,11.859,0,17.792-0.024c5.061,18.722,9.699,37.565,14.956,56.23
		c4.621-18.787,9.618-37.476,14.361-56.222c6.202,0.016,12.405-0.041,18.608,0.024c-0.041,25.519-0.041,51.046,0,76.565
		c-4.303,0.057-8.599,0.008-12.894,0.024c0-15.755-0.057-31.501,0.171-47.256c0.155-3.749-0.375-7.547,0.383-11.256
		c-0.497,0.391-0.807,0.888-0.937,1.5c-4.931,19.015-9.968,37.997-14.883,57.012c-3.521-0.016-7.026,0.049-10.539-0.049
		c-4.426-17.703-9.047-35.348-13.53-53.035c-0.481-1.891-0.929-3.79-1.655-5.591c0.424,19.553,0.163,39.114,0.236,58.675
		c-4.026-0.016-8.053,0.033-12.071-0.016C233.59,81.272,233.582,55.744,233.558,30.217L233.558,30.217z"/>
	<path fill="#2C292A" d="M207.207,30.201c-5.624,0-11.256,0-16.88,0c-6.366,25.535-12.69,51.087-19.08,76.614
		c4.418,0,8.835,0,13.253,0c1.475-5.355,2.453-10.824,4.059-16.138c6.577,0.098,13.155,0.033,19.732,0.033
		c1.361,5.347,2.535,10.742,3.814,16.105c4.613-0.008,9.218,0.016,13.831-0.008C219.694,81.272,213.385,55.753,207.207,30.201z
		 M190.1,80.302c2.893-12.601,5.314-25.315,8.501-37.834c2.608,12.633,5.379,25.226,8.053,37.843
		C201.135,80.302,195.617,80.318,190.1,80.302z"/>
	<path fill="#2C292A" d="M60.255,30.274c-5.013-0.171-10.033-0.024-15.046-0.073c-8.183,33.017-16.496,66.002-24.639,99.028
		c4.605,0,9.218,0.106,13.823-0.065c1.475-6.993,3.309-13.913,4.923-20.881c7.376-0.033,14.744,0.024,22.112-0.024
		c1.206,0.13,2.616-0.318,3.708,0.334c1.703,6.863,3.244,13.766,4.866,20.645c4.825-0.065,9.658,0.188,14.475-0.122
		C76.295,96.195,68.267,63.235,60.255,30.274z M41.444,94.964c3.635-16.211,7.107-32.471,10.75-48.683
		c0.448,0.791,0.758,1.646,0.921,2.551c3.219,15.404,6.618,30.768,9.846,46.172C55.788,94.932,48.616,95.005,41.444,94.964z"/>
	<path fill="#2C292A" d="M99.809,114.974c0.44,0.122,1.329,0.383,1.769,0.513c1.084,3.831,1.85,7.759,2.665,11.663
		c1.206-3.945,1.769-8.044,3.008-11.965c0.383-0.033,1.165-0.098,1.557-0.139c-1.011,4.858-2.339,9.642-3.554,14.451
		c-0.497-0.016-1.492-0.049-1.989-0.065C102.238,124.583,100.795,119.831,99.809,114.974L99.809,114.974z"/>
	<path fill="#2C292A" d="M128.735,115.088c2.078,0.114,4.271-0.277,6.235,0.603c-1.223,1.434-3.244,0.791-4.882,0.929
		c0.008,1.549,0.016,3.097,0.024,4.654c1.386,0,2.763,0,4.157,0.016c0.497,2.502-2.779,1.035-4.043,1.361
		c-0.13,1.72-0.147,3.439-0.13,5.159c1.434-0.024,2.861-0.057,4.295-0.098c0.073,0.432,0.22,1.304,0.293,1.736
		c-1.981-0.008-3.961,0.008-5.942,0.081C128.58,124.722,128.596,119.897,128.735,115.088L128.735,115.088z"/>
	<path fill="#2C292A" d="M155.199,115.047c0.505,0.049,1.524,0.155,2.029,0.204c1.41,3.545,2.812,7.099,4.418,10.563
		c0.497-3.488-0.024-7.018,0.285-10.514c0.318-0.106,0.962-0.31,1.28-0.416c0.171,4.907,0.155,9.821,0.008,14.736
		c-0.473-0.081-1.41-0.228-1.883-0.31c-1.614-3.66-2.796-7.539-4.841-10.995c0.228,3.7,0.09,7.409,0.114,11.109l-1.451,0.065
		C155.183,124.673,155.102,119.864,155.199,115.047L155.199,115.047z"/>
	<path fill="#2C292A" d="M182.919,115.12c2.315,0.041,4.638-0.09,6.944,0.098c0.114,0.31,0.334,0.921,0.448,1.223
		c-1.06,0.082-2.119,0.163-3.179,0.236c0,4.124,0.09,8.256,0,12.381c-0.318,0.187-0.962,0.571-1.28,0.758
		c-0.293-4.369-0.147-8.754-0.09-13.13c-0.978-0.041-1.948-0.082-2.918-0.106C182.862,116.213,182.903,115.487,182.919,115.12
		L182.919,115.12z"/>
	<path fill="#2C292A" d="M209.441,114.909c0.383,0.106,1.141,0.318,1.524,0.424c0.359,3.863-0.538,7.857,0.554,11.623
		c0.888,1.834,3.749,1.524,4.149-0.497c0.937-3.676,0.033-7.523,0.53-11.248c0.383-0.033,1.149-0.098,1.532-0.122
		c-0.139,3.986,0.44,8.061-0.448,11.989c-0.652,2.82-4.621,3.456-6.586,1.646c-1.051-1.043-1.223-2.608-1.329-4.002
		C209.269,121.445,209.31,118.177,209.441,114.909L209.441,114.909z"/>
	<path fill="#2C292A" d="M238.758,115.088c2.274,0.204,5.314-0.668,6.797,1.646c0.668,2.07,0.587,5.224-2.005,5.868
		c0.88,2.298,1.818,4.572,2.673,6.887c-3.554,0.147-2.543-4.89-4.711-6.732c-0.277,0.122-0.848,0.375-1.125,0.505
		c-0.114,2.135-0.008,4.271-0.114,6.406c-0.383-0.155-1.166-0.465-1.549-0.619C238.627,124.396,238.644,119.734,238.758,115.088
		L238.758,115.088z"/>
	<path fill="#2C292A" d="M266.486,115.072c1.899,0.073,3.806-0.008,5.713,0.147c0.098,0.318,0.293,0.945,0.399,1.263
		c-1.54,0.09-3.081,0.147-4.613,0.236c0.049,1.508,0.073,3.016,0.09,4.532c1.361,0.016,2.714,0.033,4.083,0.081
		c-0.139,2.29-2.69,1.133-4.108,1.426c0.008,1.679,0.016,3.374,0.049,5.061c1.475-0.016,2.959-0.024,4.442-0.033
		c-0.008,0.424-0.033,1.271-0.049,1.695c-2.021-0.024-4.034-0.024-6.048,0.008C266.38,124.681,266.298,119.872,266.486,115.072
		L266.486,115.072z"/>
	<path fill="#2C292A" d="M292.616,120.092c-0.709-2.087,0.35-4.874,2.681-5.29c1.589-0.432,3.089,0.383,4.132,1.532
		c-0.277,0.228-0.831,0.685-1.108,0.913c-1.043-0.652-2.437-1.606-3.529-0.465c-1.386,1.312-0.799,3.676,0.913,4.369
		c2.021,0.97,4.173,2.739,3.529,5.29c-0.098,3.562-5.412,4.369-7.115,1.597c0.187-0.326,0.562-0.962,0.742-1.288
		c1.263,1.671,4.32,2.103,4.817-0.432C298.142,122.912,293.292,122.969,292.616,120.092L292.616,120.092z"/>
	<path fill="#FEFEFE" d="M240.347,116.547c2.062-0.538,4.784,0.823,3.896,3.268c-0.31,1.94-2.437,1.695-3.896,1.72
		C240.347,119.872,240.347,118.209,240.347,116.547L240.347,116.547z"/>
</g>
</svg>
