<?xml version="1.0" encoding="utf-8"?>
<!-- Generator: Adobe Illustrator 17.0.0, SVG Export Plug-In . SVG Version: 6.00 Build 0)  -->
<!DOCTYPE svg PUBLIC "-//W3C//DTD SVG 1.1//EN" "http://www.w3.org/Graphics/SVG/1.1/DTD/svg11.dtd">
<svg version="1.1" id="레이어_1" xmlns="http://www.w3.org/2000/svg" xmlns:xlink="http://www.w3.org/1999/xlink" x="0px"
	 y="0px" width="320px" height="160px" viewBox="0 0 320 160" enable-background="new 0 0 320 160" xml:space="preserve">
<path fill="#0479C2" d="M119.659,53.237c0.835,0.017,1.67,0.028,2.505,0.039c-3.092,11.403-6.088,22.833-9.236,34.219
	c-0.621,0-1.851-0.011-2.471-0.017C113.515,76.059,116.59,64.651,119.659,53.237z"/>
<path fill="#505050" d="M79.719,55.985c6.754-0.006,13.507,0.017,20.266-0.011c0,0.643,0.006,1.286,0.006,1.935
	c-6.031-0.017-12.063,0-18.1-0.011c0.006,3.735,0.006,7.47,0,11.2c5.433-0.017,10.867,0,16.3-0.006c0,0.468-0.011,1.411-0.017,1.884
	c-5.422-0.034-10.85-0.011-16.272-0.017c-0.017,3.825-0.006,7.651-0.006,11.476c6.116,0,12.238-0.017,18.359,0.011
	c0,0.468,0.006,1.411,0.006,1.884c-6.849,0.023-13.699,0-20.543,0.011C79.725,74.885,79.725,65.435,79.719,55.985z"/>
<path fill="#505050" d="M164.344,55.99c0.722-0.006,1.45-0.017,2.178-0.028c-0.006,6.353,0.006,12.712,0,19.065
	c0.045,2.635-0.626,5.433-2.522,7.363c-2.454,2.59-6.562,2.962-9.749,1.653c-2.121-0.875-3.555-2.753-4.863-4.548
	c0.575-0.389,1.151-0.773,1.726-1.157c1.298,1.614,2.578,3.498,4.666,4.13c2.178,0.587,4.835,0.468,6.5-1.241
	c1.676-1.591,2.127-4.017,2.076-6.24C164.344,68.657,164.356,62.326,164.344,55.99z"/>
<path fill="#505050" d="M267.888,55.973c0.666,0.006,1.337,0.011,2.009,0.017c6.528,8.175,13.028,16.373,19.544,24.554
	c0.011-8.192,0-16.385,0.006-24.577c0.53,0.006,1.585,0.023,2.116,0.034c-0.006,9.434-0.011,18.867,0,28.301
	c-0.53,0.023-1.061,0.051-1.585,0.079c-6.742-8.367-13.366-16.83-20.097-25.209c0.017,8.39-0.006,16.78,0.017,25.169
	c-0.677,0-1.348,0-2.014,0C267.899,74.885,267.893,65.429,267.888,55.973z"/>
<path fill="#0479C2" d="M135.925,57.017c1.14,0.006,2.274,0.011,3.413,0.023c-4.26,4.305-8.463,8.661-12.734,12.949
	c4.316,4.435,8.621,8.886,12.977,13.281c-1.168,0.011-2.336,0.011-3.504,0.017c-4.316-4.401-8.655-8.785-12.954-13.208
	C127.417,65.745,131.677,61.384,135.925,57.017z"/>
<path fill="#0479C2" d="M301.689,57.028c1.123-0.006,2.246-0.017,3.374-0.023c4.294,4.327,8.531,8.706,12.813,13.033
	c-4.299,4.423-8.615,8.83-12.903,13.253c-1.196-0.011-2.387-0.023-3.571-0.039c4.367-4.401,8.689-8.841,13.033-13.259
	C310.164,65.695,305.96,61.328,301.689,57.028z"/>
<path fill="#505050" d="M205.531,59.342c-3.571-3.515-9.039-4.666-13.812-3.357c-2.522,0.705-4.852,2.133-6.596,4.091
	c-5.298,5.8-5.01,15.747,0.829,21.073c5.343,5.083,14.698,4.903,19.787-0.451C211.444,75.083,211.394,64.82,205.531,59.342z
	 M203.41,80.076c-3.363,3.002-8.497,3.543-12.57,1.8c-4.784-2.082-7.606-7.425-7.261-12.548c0.186-5.541,4.282-10.872,9.896-11.724
	c4.153-0.818,8.672,0.841,11.329,4.13C209.154,66.958,208.669,75.647,203.41,80.076z"/>
<path fill="#505050" d="M247.988,59.167c-3.769-3.555-9.507-4.57-14.376-2.962c-2.054,0.711-3.949,1.89-5.45,3.464
	c-5.665,5.636-5.586,15.905,0.316,21.35c5.445,5.388,15.273,5.021,20.317-0.739C254.121,74.485,253.862,64.493,247.988,59.167z
	 M245.901,80.2c-3.329,2.866-8.299,3.374-12.294,1.738c-4.869-2.02-7.769-7.442-7.38-12.61c0.141-5.067,3.577-9.992,8.525-11.408
	c4.689-1.495,10.184,0.293,13.05,4.294C251.83,67.528,251.108,75.924,245.901,80.2z"/>
<path fill="#505050" d="M52.366,56c-0.497,0-1.484,0-1.975,0c-4.474,9-8.836,18.955-13.315,28.473
	c0.564,0.006,1.698-0.055,2.263-0.049c1.207-2.652,2.404-5.345,3.633-7.985c5.569,0.011,11.143-0.007,16.712-0.018
	c1.219,2.652,2.398,5.312,3.639,7.952c0.587-0.011,1.766,0.105,2.353,0.094C61.207,74.948,56.846,65,52.366,56z M43.852,75
	c2.471-6,4.988-10.844,7.436-16.283C53.906,64.088,56.287,69,58.793,75C53.811,75,48.829,75,43.852,75z"/>
<path fill="#505050" d="M23.152,72.448c-1.162-1.422-2.962-2.031-4.632-2.641c1.399-0.903,2.906-1.822,3.729-3.329
	c1.292-2.375,1.168-5.625-0.717-7.656c-1.76-2.003-4.508-2.787-7.098-2.827c-4.102-0.045-8.204,0.011-12.311-0.017
	c0.011,9.456,0.023,18.907,0,28.363c4.091-0.011,8.187,0.011,12.277,0c2.951,0.011,6.122-0.677,8.283-2.815
	C25.064,79.196,25.431,74.976,23.152,72.448z M4.324,57.897c3.182,0.023,6.359-0.023,9.535,0c1.98,0.045,4.153,0.367,5.636,1.811
	c2.212,2.076,1.789,6.093-0.621,7.854c-1.58,1.19-3.617,1.535-5.552,1.529c-3.002,0.023-6.009-0.011-9.01,0
	C4.341,65.362,4.324,61.632,4.324,57.897z M20.9,80.375c-1.715,1.614-4.181,1.997-6.443,2.054c-3.38,0.028-6.754-0.017-10.128,0.006
	c0-3.825-0.017-7.651,0.017-11.476c3.188,0.023,6.376-0.056,9.563,0.034c2.432,0.13,5.134,0.288,7.047,1.997
	C23.129,74.818,22.994,78.536,20.9,80.375z"/>
<path fill="#505050" d="M88.904,106.695c-0.525-3.509-0.293-7.086-0.158-10.624c2.629,2.669,4.773,5.761,7.137,8.655
	c0.006-2.719,0.006-5.433-0.006-8.153c0.192,0,0.581-0.006,0.773-0.011c-0.039,3.306,0.085,6.613-0.141,9.913
	c-2.556-2.782-4.751-5.873-7.171-8.779C89.209,100.692,89.773,103.779,88.904,106.695z"/>
<path fill="#505050" d="M106.231,96.534c0.214,0.023,0.638,0.062,0.852,0.079c-0.017,2.923-0.011,5.84-0.011,8.757
	c1.794-0.011,3.594-0.011,5.394-0.023l0.045,0.801c-2.093-0.011-4.181-0.006-6.268-0.023
	C106.225,102.927,106.237,99.733,106.231,96.534z"/>
<path fill="#505050" d="M121.651,96.585c0.203-0.011,0.598-0.023,0.801-0.028c-0.118,3.397,0.271,6.833-0.299,10.207
	C121.177,103.468,121.877,99.97,121.651,96.585z"/>
<path fill="#505050" d="M132.202,96.066c2.663,2.635,4.779,5.744,7.154,8.627c0.006-2.708,0-5.416-0.006-8.13
	c0.197,0.006,0.592,0.006,0.796,0.011c-0.039,3.295,0.068,6.596-0.13,9.891c-2.595-2.753-4.739-5.885-7.199-8.751
	c0.017,2.798,0.023,5.603,0.006,8.407h-0.733C132.1,102.769,131.987,99.412,132.202,96.066z"/>
<path fill="#505050" d="M149.72,96.557c2.257-0.034,4.519-0.023,6.782-0.045c0.011,0.181,0.028,0.547,0.039,0.728
	c-2.009,0-4.012-0.006-6.014,0.006c0.011,1.213,0.017,2.426,0.028,3.645c1.743-0.023,3.487-0.028,5.236-0.039
	c0.051,0.203,0.147,0.609,0.197,0.818c-1.817-0.011-3.639,0.006-5.456-0.011c0.006,1.241,0.011,2.477,0.023,3.718
	c1.969-0.017,3.944-0.017,5.919-0.028l0.062,0.796c-2.268-0.006-4.542,0-6.816-0.017C149.709,102.932,149.715,99.744,149.72,96.557z
	"/>
<path fill="#505050" d="M180.712,96.545c0.214,0.017,0.643,0.045,0.858,0.056c-0.051,2.404,0.13,4.818-0.096,7.211
	c-0.147,1.625-1.868,2.798-3.436,2.42c-1.23-0.169-1.884-1.348-2.612-2.2c1.54,0.643,3.797,2.657,5.021,0.457
	C181.051,101.905,180.582,99.186,180.712,96.545z"/>
<path fill="#505050" d="M190.834,96.54c0.209,0.028,0.632,0.073,0.841,0.096c0.056,2.296-0.22,4.626,0.186,6.906
	c0.711,2.64,5.044,2.719,5.862,0.107c0.48-2.319,0.164-4.717,0.22-7.07c0.209-0.006,0.626-0.011,0.835-0.011
	c-0.113,2.449,0.299,4.976-0.322,7.38c-1.083,3.03-5.998,3.148-7.244,0.192C190.456,101.691,190.964,99.062,190.834,96.54z"/>
<path fill="#505050" d="M226.746,97.719c1.879-2.031,5.529-1.879,7.149,0.406c-1.71-0.418-3.498-1.529-5.281-0.79
	c-2.928,1.145-3.351,5.665-0.869,7.476c1.535,1.14,3.729,0.914,5.23-0.164c0.322-0.886,0.158-1.873,0.299-2.793
	c-1.078-0.017-2.15-0.023-3.222-0.023c0.006-0.192,0.011-0.57,0.011-0.756c1.303,0.023,2.612,0.034,3.921,0.073
	c0,1.275,0,2.556,0,3.837c-1.715,0.954-3.752,1.845-5.699,0.993C225.019,104.8,224.28,100.032,226.746,97.719z"/>
<path fill="#505050" d="M243.266,96.54c2.268-0.011,4.542-0.006,6.816-0.028c0.011,0.181,0.045,0.547,0.062,0.728
	c-2.031,0-4.057-0.006-6.082,0.006c0.028,1.269,0.051,2.545,0.09,3.814c1.749-0.085,3.498-0.147,5.253-0.248l0.09,0.863
	c-1.805-0.017-3.605-0.006-5.411-0.011c0.006,1.236,0.011,2.466,0.017,3.701c1.986-0.006,3.978-0.006,5.969-0.017l0.085,0.796
	c-2.296-0.006-4.593,0-6.883-0.017C243.249,102.932,243.249,99.739,243.266,96.54z"/>
<path fill="#505050" d="M72.712,96.692c-3.515,1.36-4.006,6.793-0.818,8.79c2.787,2.082,7.143,0.051,7.521-3.357
	C80.215,98.497,76.114,95.028,72.712,96.692z M78.619,101.46c0.13,2.866-3.25,5.157-5.8,3.667c-3.177-1.484-2.906-6.827,0.485-7.859
	C75.956,96.28,78.895,98.695,78.619,101.46z"/>
<path fill="#505050" d="M215.021,97.792c-1.822-1.76-4.525-1.179-6.81-1.264c-0.028,3.205-0.034,6.409,0.006,9.614
	c2.2-0.068,4.751,0.384,6.59-1.14C217.064,103.327,217.194,99.592,215.021,97.792z M214.265,104.467
	c-1.484,1.196-3.515,0.812-5.27,0.931c-0.011-2.736-0.017-5.467,0.006-8.204c1.732,0.113,3.707-0.243,5.179,0.903
	C216.212,99.547,216.251,102.96,214.265,104.467z"/>
</svg>
