<?xml version="1.0" encoding="utf-8"?>
<!-- Generator: Adobe Illustrator 17.0.0, SVG Export Plug-In . SVG Version: 6.00 Build 0)  -->
<!DOCTYPE svg PUBLIC "-//W3C//DTD SVG 1.1//EN" "http://www.w3.org/Graphics/SVG/1.1/DTD/svg11.dtd">
<svg version="1.1" id="레이어_1" xmlns="http://www.w3.org/2000/svg" xmlns:xlink="http://www.w3.org/1999/xlink" x="0px"
	 y="0px" width="320px" height="160px" viewBox="0 0 320 160" enable-background="new 0 0 320 160" xml:space="preserve">
<g>
	<path fill="#1E50A2" d="M283.295,18.932h2.474c5.629,0.665,10.89,4.126,13.357,9.286c2.051,3.875,1.738,8.385,1.738,12.621
		c-0.008,16.395-0.016,32.789,0.008,49.184c4.525,2.145,7.915,6.475,8.276,11.572v6.201c-0.266,6.146-4.784,11.916-10.969,12.957
		c-8.471,1.268-17.765-1.088-23.848-7.344c-2.357,4.494-6.357,8.362-11.486,9.317c-5.426,1.253-11.039-0.791-15.079-4.431
		c-8.996,4.533-20.019,4.854-29.211,0.728c-4.948-2.216-8.792-6.287-11.407-10.961c-8.416,10.789-23.175,15.76-36.492,13.13
		c0.164,4.658-0.352,9.654-3.406,13.404c-2.866,3.86-7.5,6.122-12.253,6.475h-2.545c-5.042-0.564-9.818-3.531-12.112-8.127
		c-2.27-4.04-2.083-8.808-2.004-13.286c-6.154,1.425-12.754,1.237-18.61-1.284c-6.905,3.633-15.048,4.431-22.611,2.646
		c-6.929-1.464-13.748-4.58-18.461-10.021c-4.651,3.93-10.249,6.624-16.167,8.009c-7.947,2.051-16.214,1.48-24.326,1.55
		c-7.5,0.016-14.915-3.233-19.98-8.761c-4.345-4.588-6.843-10.734-7.328-17.005V47.556c0.274-10.648,7.406-20.63,17.357-24.38
		c6.397-2.717,13.451-1.715,20.2-1.903c9.34-0.102,19.338,1.527,26.69,7.72c6.13,5.089,9.082,12.957,10.068,20.661
		c7.328-3.68,15.298-6.091,23.441-7.07c10.914-1.112,22.854,1.84,30.464,10.131c1.511-3.695,4.024-7.43,8.142-8.44
		c5.387-1.229,11.18-0.548,16.254,1.582c13.216-6.537,30.338-3.672,40.931,6.514c1.182-3.053,2.591-6.475,5.856-7.806
		c5.802-2.443,12.347-2.075,18.493-1.55c4.236,0.305,8.33,2.49,10.202,6.436c2.811-4.4,8.056-6.209,13.036-6.584
		c5.23-0.337,10.601-0.54,15.682,0.932c0.117-5.136-0.736-10.624,1.636-15.4C271.818,23.003,277.376,19.323,283.295,18.932
		L283.295,18.932z"/>
	<path fill="#FFFFFF" d="M282.105,28.875c4.22-1.48,9.199,1.965,9.137,6.483c0.102,18.814,0,37.643,0.039,56.457
		c0.023,2.419,0.462,5.762,3.218,6.514c2.004,0.564,4.917,1.033,4.979,3.703c0.102,3.124,1.018,8.08-2.92,9.246
		c-5.95,0.814-13.114-0.736-16.473-6.193c-2.396-3.711-2.795-8.276-2.858-12.582c-0.243-18.806-0.525-37.62-0.759-56.433
		C276.257,32.68,278.974,29.76,282.105,28.875L282.105,28.875z"/>
	<path fill="#FFFFFF" d="M21.218,43.289c2.114-6.992,8.957-12.175,16.246-12.37c10.147,0.008,21.758-1.339,30.072,5.778
		c6.06,5.034,8.056,14.124,5.175,21.374c-1.785,4.502-5.324,8.088-9.395,10.616c6.905,2.255,12.276,8.424,13.529,15.572
		c1.049,6.436-0.556,13.474-5.019,18.352c-3.508,3.938-8.479,6.271-13.56,7.406c-6.796,1.464-13.787,0.814-20.669,0.9
		c-9.458-0.141-17.679-8.871-17.17-18.336c0-13.333,0.016-26.659,0-39.984C20.443,49.482,20.232,46.287,21.218,43.289L21.218,43.289
		z"/>
	<path fill="#1E50A2" d="M36.204,49.419c-0.047-2.552,1.613-5.543,4.416-5.676c3.367-0.157,6.741-0.125,10.108,0
		c3.21,0.11,6.584,1.628,8.033,4.635c1.769,3.742,1.503,8.581-1.08,11.885c-1.801,2.294-4.776,3.296-7.618,3.28
		c-4.627,0.07-9.254-0.008-13.881,0.008C36.219,58.845,36.117,54.132,36.204,49.419L36.204,49.419z"/>
	<path fill="#FFFFFF" d="M95.072,56.136c7.743-3.821,16.802-5.269,25.281-3.312c5.379,1.253,10.382,4.588,13.02,9.528
		c2.153,3.946,2.905,8.495,2.889,12.95c-0.016,10.194,0.016,20.395-0.008,30.589c0.047,1.856-0.438,4.259-2.545,4.792
		c-2.709,0.391-5.661,0.634-8.283-0.282c-2.92-1.918-1.668-5.974-1.879-8.886c-2.912,4.729-7.36,8.675-12.817,10.108
		c-7.211,1.856-15.721,0-20.654-5.825c-5.676-6.663-4.87-18.031,2.333-23.3c8.518-6.287,19.683-6.702,29.869-6.804
		c0.039-3.648-0.462-7.978-3.86-10.108c-4.604-2.826-10.499-1.895-15.283,0c-2.74,0.94-5.504,2.975-8.526,2.059
		c-3.171-0.908-4.995-4.784-3.625-7.806C91.682,58.031,93.404,56.943,95.072,56.136L95.072,56.136z"/>
	<path fill="#FFFFFF" d="M171.219,53.075c7.845-2.474,16.99-0.853,23.214,4.619c5.755,4.995,8.612,12.589,9.301,20.027
		c0.9,8.925-0.83,18.563-6.686,25.61c-5.974,7.469-16.582,10.671-25.727,8.056c-4.22-1.253-7.782-4.134-10.319-7.681
		c0.063,6.733,0.031,13.466,0.031,20.192c0.078,2.051-0.548,4.181-2.106,5.582c-2.701,2.701-7.649,2.607-10.147-0.321
		c-1.597-1.621-1.832-3.977-1.801-6.13c0.023-21.397,0-42.803,0.008-64.2c-0.086-1.996,0.438-4.494,2.599-5.191
		c2.654-0.556,5.551-0.65,8.166,0.157c3.03,1.503,1.965,5.441,2.169,8.182C162.623,57.906,166.498,54.531,171.219,53.075
		L171.219,53.075z"/>
	<path fill="#FFFFFF" d="M214.586,58.023c-0.031-1.949,0.141-4.502,2.263-5.347c2.74-0.744,5.684-0.532,8.487-0.251
		c2.349,0.251,3.453,2.732,3.296,4.854c0.063,10.977-0.047,21.953,0.039,32.93c0.125,2.92,0.282,6.678,3.257,8.189
		c3.688,1.511,8.041,0.744,11.462-1.143c5.465-3.155,8.15-9.583,8.495-15.666c0.219-8.377-0.086-16.77,0.133-25.155
		c-0.063-2.145,1.715-4.056,3.876-4.087c2.576-0.188,5.222-0.337,7.759,0.243c2.004,0.579,2.803,2.803,2.701,4.713
		c0.039,15.917-0.023,31.842,0.031,47.766c0.07,2.2-0.219,4.619-1.887,6.224c-2.56,2.889-7.571,2.873-10.061-0.102
		c-2.693-2.944-1.597-7.258-1.816-10.867c-5.214,10.836-19.949,15.204-30.393,9.528c-5.864-3.523-7.367-10.906-7.571-17.24
		C214.515,81.088,214.648,69.556,214.586,58.023L214.586,58.023z"/>
	<path fill="#1E50A2" d="M171.642,64.725c4.392-1.159,9.419-0.117,12.66,3.147c4.173,4.134,5.426,10.335,5.12,16.011
		c-0.227,5.238-2.231,10.765-6.639,13.897c-5.128,3.735-13.012,3.108-17.24-1.73c-5.026-5.614-5.708-13.96-3.805-20.998
		C163.022,70.245,166.678,65.907,171.642,64.725L171.642,64.725z"/>
	<path fill="#1E50A2" d="M36.258,93.2c-0.196-6.029-0.016-12.073-0.07-18.109c5.371,0.047,10.742-0.078,16.113,0.047
		c4.212,0.047,8.299,2.709,9.787,6.686c2.067,5.253,0.822,12.308-4.29,15.338c-4.517,2.576-9.943,1.362-14.883,1.621
		C39.641,99.119,36.431,96.52,36.258,93.2L36.258,93.2z"/>
	<path fill="#1E50A2" d="M103.77,87.571c5.418-3.562,12.245-3.476,18.485-3.5c0.282,5.567-1.668,11.525-6.256,14.954
		c-3.813,2.952-9.998,3.398-13.529-0.211C99.386,95.674,100.02,89.92,103.77,87.571L103.77,87.571z"/>
</g>
</svg>
