<?xml version="1.0" encoding="utf-8"?>
<!-- Generator: Adobe Illustrator 17.0.0, SVG Export Plug-In . SVG Version: 6.00 Build 0)  -->
<!DOCTYPE svg PUBLIC "-//W3C//DTD SVG 1.1//EN" "http://www.w3.org/Graphics/SVG/1.1/DTD/svg11.dtd">
<svg version="1.1" id="레이어_1" xmlns="http://www.w3.org/2000/svg" xmlns:xlink="http://www.w3.org/1999/xlink" x="0px"
	 y="0px" width="320px" height="160px" viewBox="0 0 320 160" enable-background="new 0 0 320 160" xml:space="preserve">
<g>
	<path fill="#0C0C0C" d="M8.867,63.52c4.793-5.436,12.155-8.347,19.35-8.021c8.276,0.396,16.087,5.242,20.115,12.472
		c-2.815,1.566-5.488,3.413-8.461,4.679c-3.492-8.294-15.489-10.299-22.12-4.618c-7.722,6.21-7.045,20.133,1.662,25.164
		c6.957,4.301,17.186,1.654,20.722-5.858c2.718,1.566,5.436,3.158,8.171,4.706c-3.413,6.218-9.666,10.81-16.667,12.05
		c-8.356,1.61-17.556-1.319-23.061-7.898C0.81,87.162,0.924,72.403,8.867,63.52z"/>
	<path fill="#0C0C0C" d="M59.932,56.668c3.078,0.053,6.157,0.053,9.235,0c-0.035,5.77-0.009,11.54-0.018,17.309
		c7.784-0.044,15.559,0.018,23.334-0.026c-0.018-5.752,0.026-11.504-0.026-17.256c3.122,0.009,6.236,0.018,9.358-0.009
		c-0.018,15.55-0.07,31.109,0.026,46.659c-3.131-0.018-6.271-0.018-9.402,0c0.097-6.684,0.018-13.36,0.044-20.045
		c-7.784-0.009-15.559-0.009-23.334-0.009c0.018,6.684-0.026,13.369,0.026,20.053c-3.078-0.018-6.157-0.018-9.235,0.018
		C59.968,87.795,59.985,72.236,59.932,56.668z"/>
	<path fill="#0C0C0C" d="M174.131,56.712c4.09-0.018,8.18-0.009,12.27-0.018c7.01,10.264,13.835,20.669,20.986,30.845
		c-0.035-10.291,0.009-20.581-0.026-30.872c2.841,0.053,5.691,0.053,8.54,0c-0.044,15.568-0.035,31.136-0.009,46.703
		c-2.718-0.044-5.427-0.062-8.144-0.009c-8.408-12.164-16.562-24.504-24.979-36.668c0.07,12.208-0.07,24.425,0.07,36.633
		c-2.929,0.018-5.849,0.009-8.769,0C174.281,87.795,174.158,72.254,174.131,56.712z"/>
	<path fill="#0C0C0C" d="M233.913,56.712c11.056-0.035,22.112,0.018,33.167-0.026c-0.053,2.885-0.053,5.77,0,8.663
		c-8.188-0.009-16.368,0.009-24.557-0.026c-0.009,3.351,0,6.702-0.018,10.053c7.115,0.018,14.24,0.018,21.355-0.009
		c-0.009,2.885-0.018,5.77-0.009,8.655c-7.115-0.018-14.231-0.009-21.346-0.009c0.018,3.562,0.018,7.133,0.009,10.695
		c8.628,0.026,17.257,0.026,25.885,0c-0.035,2.885-0.035,5.779,0,8.663c-11.513-0.079-23.035-0.035-34.548-0.035
		C234.01,87.795,233.878,72.254,233.913,56.712z"/>
	<path fill="#0C0C0C" d="M283.431,56.677c3.078,0.035,6.157,0.026,9.235,0.018c-0.079,12.445-0.018,24.891-0.035,37.336
		c8.171,0.009,16.351,0.035,24.521-0.018c-0.026,3.114-0.035,6.227,0.018,9.349c-11.24-0.044-22.481-0.062-33.721,0.009
		C283.475,87.813,283.502,72.245,283.431,56.677z"/>
	<path fill="#0C0C0C" d="M144.21,56.686c-4.222,0.062-8.435-0.07-12.657,0.097c-6.728,15.577-13.686,31.056-20.502,46.598
		c3.377-0.07,6.764-0.053,10.141-0.026c1.592-3.589,2.999-7.247,4.723-10.774c8.065,0.123,16.131,0.009,24.196,0.053
		c1.495,3.589,3.043,7.159,4.609,10.713c3.377-0.026,6.755-0.026,10.132,0.018C157.93,87.821,151.123,72.236,144.21,56.686z
		 M129.407,84.127c2.92-6.579,5.664-13.237,8.575-19.807c2.762,6.623,5.629,13.211,8.479,19.807
		C140.771,84.127,135.089,84.11,129.407,84.127z"/>
</g>
</svg>
