<?xml version="1.0" encoding="utf-8"?>
<!-- Generator: Adobe Illustrator 17.0.0, SVG Export Plug-In . SVG Version: 6.00 Build 0)  -->
<!DOCTYPE svg PUBLIC "-//W3C//DTD SVG 1.1//EN" "http://www.w3.org/Graphics/SVG/1.1/DTD/svg11.dtd">
<svg version="1.1" id="레이어_1" xmlns="http://www.w3.org/2000/svg" xmlns:xlink="http://www.w3.org/1999/xlink" x="0px"
	 y="0px" width="320px" height="160px" viewBox="0 0 320 160" enable-background="new 0 0 320 160" xml:space="preserve">
<g>
	<path fill="#ED9A9B" d="M135.824,6.56c7.585-2.532,15.588-3.88,23.591-3.793c4.341,0.022,8.726,0.058,12.991,0.977
		c1.755,0.4,3.625,0.465,5.246,1.319c-3.862-0.541-7.676-1.442-11.588-1.529c-4.287-0.603-8.664-0.592-12.943,0.018
		c-3.28,0.098-6.444,0.992-9.678,1.442c-4.403,0.705-8.526,2.481-12.791,3.702C132.162,7.544,134.062,7.166,135.824,6.56
		L135.824,6.56z"/>
	<path fill="#BF5658" d="M153.119,3.552c4.279-0.61,8.657-0.621,12.943-0.018C161.747,3.646,157.431,3.668,153.119,3.552
		L153.119,3.552z"/>
	<path fill="#F33736" d="M234.958,62.416c-2.499-11.312-7.854-21.934-15.203-30.871c-2.63-3.506-5.776-6.59-9.056-9.481
		c-9.441-8.195-20.841-14.211-33.047-17.001c-3.862-0.541-7.676-1.442-11.588-1.529c-4.316,0.113-8.631,0.134-12.943,0.018
		c-3.28,0.098-6.444,0.992-9.678,1.442c-4.403,0.705-8.526,2.481-12.791,3.702c-1.667,0.469-3.168,1.362-4.723,2.092
		c-15.683,7.669-28.688,20.765-36.066,36.603c-1.028,2.227-2.049,4.479-2.645,6.869c-0.073-0.124-0.142-0.247-0.214-0.367
		c-0.45,2.22-1.301,4.33-1.864,6.521c-0.97,4.021-1.896,8.076-2.205,12.21c-0.156,4.599-0.149,9.202-0.04,13.804
		c-0.007,3.208,0.748,6.35,1.261,9.5c0.654,3.636,2.009,7.084,2.859,10.666c0.073-0.113,0.145-0.229,0.218-0.338
		c0.563,2.285,1.62,4.399,2.55,6.546c1.518,3.124,3.008,6.285,5.053,9.107c4.239,6.608,9.478,12.566,15.501,17.604
		c11.588,9.674,26.058,15.919,41.083,17.492c5.031,0.214,10.103,0.392,15.123-0.004c3.564-1.01,7.262-1.693,10.978-1.671
		c2.75-0.443,5.424-1.348,8.054-2.26c8.584-3.106,16.681-7.621,23.664-13.517c0.574-0.734,1.097-1.504,1.62-2.278
		c-0.262-0.018-0.781-0.058-1.039-0.076c-4.229,1.874-9.038,2.176-13.536,1.235c-5.329-1.29-10.106-4.643-13.18-9.176
		c-2.26-3.437-3.32-7.531-3.593-11.599c-1.489,0.403-2.917,0.995-4.363,1.537c-3.891,1.355-7.952,2.405-12.104,2.372
		c-5.002,0.004-10.088,0.327-15-0.846c-8.653-1.624-17.005-5.129-23.994-10.517c-3.938-2.601-6.949-6.285-10.335-9.514
		c-1.068,1.417-2.514,2.666-3.081,4.388c-0.229,3.222,0.124,6.466-0.138,9.692c-0.156,1.944-1.813,3.19-3.295,4.199
		c-1.162,0.857-2.623,1.246-4.051,1.279c-1.206-0.156-2.183-0.992-3.113-1.704c-0.585-0.541-1.377-1.104-1.38-1.983
		c-0.036-1.449,0.203-2.892,0.196-4.341c-0.058-8.472,0.025-16.943-0.113-25.415c-1.271-0.392-2.714-0.567-3.713-1.533
		c-0.345-0.876,0.171-1.896,1.097-2.092c2.063-0.552,4.214-0.705,6.285-1.246c2.241-0.592,5.122-1.079,6.859,0.872
		c1.613,1.562,1.239,3.934,1.431,5.958c1.853-1.522,3.019-3.658,4.526-5.485c1.475-1.842,2.765-4.156,5.151-4.911
		c1.726-0.512,3.506-0.814,5.275-1.126c1.439-0.323,2.725,0.955,3.022,2.278c0.055,0.901-0.549,1.671-1.006,2.398
		c-2.209,3.001-4.465,5.965-6.691,8.951c-0.385,0.534-0.748,1.086-0.992,1.7c0.701,1.366,1.824,2.434,2.841,3.564
		c5.656,6.205,12.867,10.989,20.87,13.572c2.361,0.356,4.635,1.126,6.993,1.508c7.603,1.359,15.679,1.068,22.872-1.933
		c2.801-1.075,5.297-2.779,8.043-3.981c3.546-2.147,6.139-5.605,9.957-7.327c0.832-0.414,1.744-0.687,2.507-1.231
		c0.861-1.25,1.257-2.746,1.853-4.127c-3.393-2.26-6.303-5.504-7.305-9.54c-1.09-3.644-0.603-7.665,1.104-11.036
		c1.053-2.14,3.113-3.633,3.869-5.936c0.919-2.652,2.172-5.166,3.393-7.687c-1.893-1.242-3.898-2.423-5.311-4.236
		c-2.565-3.142-3.898-7.295-3.567-11.341c0.523-5.631,4.341-10.953,9.703-12.903c3.444-1.202,7.091-1.635,10.648-2.383
		c1.805-0.291,3.582-0.966,5.431-0.857c0.806,0.036,0.999,0.948,0.945,1.598c-0.668,1.166-1.791,1.976-2.677,2.968
		c1.66,1.693,3.589,3.211,4.693,5.358c2.267,3.891,2.576,8.784,1.014,12.983c-1.144,3.357-3.662,6.132-6.662,7.956
		c-1.25,0.788-2.743,1.075-3.989,1.856c-1.152,1.083-1.773,2.587-2.409,4c3.102,0.076,6.092-0.865,9.107-1.468
		c0.589-0.102,1.199-0.153,1.795-0.022c0.748,0.472,0.915,1.613,0.309,2.263c-0.825,0.966-1.831,1.755-2.739,2.634
		c1.475,1.755,3.208,3.36,4.159,5.485c1.482,2.997,1.693,6.466,1.192,9.728c-0.915,5.133-4.752,9.529-9.569,11.421
		c-1.333,0.465-2.717,0.752-4.065,1.162c-0.025,0.45-0.044,0.901-0.062,1.351c2.445,0.563,4.904,1.235,7.055,2.576
		c4.356,2.452,7.661,6.513,9.492,11.138c1.736,3.102,1.475,6.739,1.37,10.161c-0.127,1.893-0.727,3.713-0.999,5.584
		c1.395-1.261,2.412-2.855,3.368-4.457c7.414-11.825,11.378-25.702,11.712-39.626C237.152,74.971,235.96,68.679,234.958,62.416z"/>
	<path fill="#FDFDFD" d="M217.055,132.163c0.495-0.593,0.98-1.186,1.573-1.778C218.036,130.978,217.55,131.57,217.055,132.163
		c1.145-0.625,2.394-1.019,2.322-2.607c-0.315,0.321-0.641,0.633-0.981,0.931c0.992-1.9,2.198-3.698,2.924-5.725
		c0.897-2.507,1.446-5.155,1.402-7.821c-0.018-2.478-0.814-4.846-1.25-7.258c-1.831-4.624-5.137-8.686-9.492-11.138
		c-2.151-1.34-4.61-2.013-7.055-2.576c0.018-0.45,0.036-0.901,0.062-1.351c1.348-0.41,2.732-0.697,4.065-1.162
		c4.817-1.893,8.653-6.288,9.569-11.421c0.501-3.262,0.291-6.731-1.192-9.728c-0.952-2.125-2.685-3.731-4.159-5.485
		c0.908-0.879,1.914-1.667,2.739-2.634c0.607-0.65,0.44-1.791-0.309-2.263c-0.596-0.131-1.206-0.08-1.795,0.022
		c-3.015,0.603-6.005,1.544-9.107,1.468c0.636-1.413,1.257-2.917,2.409-4c1.246-0.781,2.739-1.068,3.989-1.856
		c3.001-1.824,5.518-4.599,6.662-7.956c1.562-4.199,1.253-9.093-1.014-12.983c-1.104-2.147-3.033-3.665-4.693-5.358
		c0.886-0.992,2.009-1.802,2.677-2.968c0.054-0.65-0.138-1.562-0.945-1.598c-1.849-0.109-3.625,0.567-5.431,0.857
		c-3.556,0.748-7.204,1.181-10.648,2.383c-5.362,1.951-9.18,7.273-9.703,12.903c-0.331,4.047,1.003,8.199,3.567,11.341
		c1.413,1.813,3.418,2.993,5.311,4.236c-1.221,2.521-2.474,5.035-3.393,7.687c-0.756,2.303-2.815,3.796-3.869,5.936
		c-1.707,3.371-2.194,7.393-1.104,11.036c1.003,4.036,3.912,7.28,7.305,9.54c-0.596,1.38-0.992,2.877-1.853,4.127
		c-0.763,0.545-1.675,0.817-2.507,1.231c-3.818,1.722-6.412,5.18-9.957,7.327c-2.205,1.853-4.857,3.022-7.454,4.21
		c-6.753,2.837-14.298,3.698-21.528,2.536c-3.015-0.596-6.085-1.108-8.926-2.339c-8.003-2.583-15.214-7.367-20.87-13.572
		c-1.017-1.13-2.14-2.198-2.841-3.564c0.243-0.614,0.607-1.166,0.992-1.7c2.227-2.986,4.483-5.95,6.691-8.951
		c0.458-0.727,1.061-1.497,1.006-2.398c-0.298-1.322-1.584-2.601-3.022-2.278c-1.769,0.312-3.549,0.614-5.275,1.126
		c-2.387,0.756-3.676,3.07-5.151,4.911c-1.508,1.827-2.674,3.963-4.526,5.485c-0.193-2.023,0.182-4.396-1.431-5.958
		c-1.736-1.951-4.617-1.464-6.859-0.872c-2.071,0.541-4.221,0.694-6.285,1.246c-0.926,0.196-1.442,1.217-1.097,2.092
		c0.999,0.966,2.441,1.141,3.713,1.533c0.708,1.34,0.461,2.895,0.49,4.348c-0.018,7.876-0.004,15.755-0.011,23.635
		c-0.167,1.962,1.29,3.851,3.157,4.352c1.602,0.294,3.215-0.156,4.824-0.171c1.482-1.01,3.139-2.256,3.295-4.199
		c0.262-3.226-0.091-6.47,0.138-9.692c0.567-1.722,2.013-2.972,3.081-4.388c3.386,3.23,6.397,6.913,10.335,9.514
		c6.989,5.387,15.341,8.893,23.994,10.517c4.911,1.173,9.997,0.85,15,0.846c4.152,0.033,8.214-1.017,12.104-2.372
		c1.446-0.541,2.873-1.133,4.363-1.537c0.272,4.069,1.333,8.163,3.593,11.599c3.073,4.534,7.85,7.887,13.18,9.176
		c4.497,0.941,9.307,0.639,13.536-1.235c1.985-1.072,3.881-2.308,5.711-3.627C215.865,132.894,216.446,132.496,217.055,132.163z"/>
	<path fill="#FEE4E5" d="M134.839,31.218c-0.08-1.315,1.802-1.769,2.583-0.897c0.861,0.69,0.163,1.896,0.018,2.765
		c0.701,0.621,1.311,1.573,2.318,1.682c0.792-0.41,1.598-0.959,2.045-1.747c-0.054-0.883-0.843-1.991,0.025-2.685
		c0.73-0.886,1.9-0.243,2.626,0.294c-0.062,0.865-0.45,1.722-0.381,2.583c0.574,0.668,1.282,1.46,2.212,1.537
		c0.81-0.287,1.446-0.926,2.042-1.529c0.102-0.959-0.861-2.132,0.04-2.877c0.69-0.843,2.405-0.498,2.557,0.643
		c0.185,1.014-0.774,1.78-0.821,2.761c-0.207,2.042,0.403,4.203-0.469,6.139c-0.142-0.214-0.429-0.636-0.574-0.846
		c-0.145-1.529,0.036-3.077-0.262-4.592c-0.647,0.396-1.399,0.719-1.824,1.377c-0.265,0.825-0.341,1.689-0.465,2.543
		c-0.174,0-0.523-0.004-0.697-0.004c-0.124-0.85-0.102-1.755-0.469-2.543c-0.708-0.781-1.515-1.624-2.554-1.922
		c-0.875,0.523-1.678,1.177-2.347,1.944c-0.367,0.767-0.392,1.638-0.509,2.463c-0.182,0.025-0.541,0.076-0.719,0.098
		c-0.127-0.875-0.193-1.765-0.389-2.63c-0.465-0.625-1.192-0.963-1.831-1.366c-0.142,1.878,0.247,3.833-0.483,5.631
		c-1.195-1.449-0.36-3.502-0.603-5.213C136.071,33.489,134.956,32.472,134.839,31.218L134.839,31.218z"/>
	<path fill="#CC8183" d="M136.22,30.913c0.683-0.214,0.974,0.926,0.283,1.086C135.827,32.203,135.533,31.066,136.22,30.913
		L136.22,30.913z"/>
	<path fill="#C18591" d="M142.744,30.902c0.683-0.222,0.981,0.915,0.287,1.068C142.345,32.196,142.047,31.055,142.744,30.902
		L142.744,30.902z"/>
	<path fill="#C78A90" d="M148.854,31.251c0.338-0.182,0.687-0.345,1.046-0.487c0.018,0.323,0.058,0.97,0.076,1.293
		C149.465,31.934,148.713,32,148.854,31.251L148.854,31.251z"/>
	<path fill="#FDFDFC" d="M169.547,37.194c1.744-1.522,3.883-2.601,6.201-2.874c5.133-0.443,10.433,3.593,10.76,8.864
		c0.084,4.973,0.015,9.95,0.025,14.923c0.102,1.395-0.752,2.692-1.904,3.411c-1.489,0.777-3.244,1.003-4.886,0.694
		c-1.569-0.512-2.761-2.092-2.732-3.749c-0.033-3.64,0.025-7.284-0.015-10.924c0.022-1.442-0.792-2.888-2.147-3.455
		c-2.172-1.173-5.304,0.349-5.467,2.873c-0.131,4.802,0.051,9.619-0.08,14.422c-0.018,1.518-0.752,3.012-2.143,3.709
		c-1.413,0.57-2.972,1.01-4.505,0.737c-1.391-0.41-2.314-1.62-3.015-2.812c-0.033-5.275-0.018-10.549-0.022-15.821
		c0.018-2.387-0.163-4.802,0.407-7.146c0.992-1.805,2.808-3.012,4.835-3.324C166.433,36.192,168.083,36.497,169.547,37.194
		L169.547,37.194z"/>
	<path fill="#EB9899" d="M108.604,37.467c6.201-1.751,13.274-0.378,18.178,3.862c1.271,1.024,1.765,2.794,1.326,4.348
		c-0.323,1.529-1.729,2.438-2.95,3.233c-1.82,1.221-4.308,0.897-6.045-0.323c-3.894-2.637-9.641-1.558-12.486,2.136
		c-1.944,2.499-2.863,6.045-1.558,9.042c0.937,2.688,3.084,4.897,5.736,5.918c1.86,0.639,3.858,0.443,5.791,0.509
		c-4.53,1.638-9.859-1.206-11.657-5.551c-1.344-3.229-0.977-7.251,1.231-10.019c1.969-2.612,5.289-4.138,8.544-4.025
		c2.387,0.091,4.359,1.548,6.437,2.539c1.678,0.857,3.422-0.309,4.759-1.271c1.17-0.788,2.06-2.103,1.929-3.564
		c-0.015-1.337-0.926-2.434-1.958-3.182c-3.676-2.79-8.344-4.221-12.958-3.909c-2.804,0.015-5.431,1.072-8.021,2.023
		C105.908,38.248,107.285,37.848,108.604,37.467L108.604,37.467z"/>
	<path fill="#FDFDFD" d="M104.902,39.232c2.59-0.952,5.217-2.009,8.021-2.023c4.614-0.312,9.282,1.119,12.958,3.909
		c1.032,0.748,1.944,1.845,1.958,3.182c0.131,1.46-0.759,2.775-1.929,3.564c-1.337,0.963-3.081,2.129-4.759,1.271
		c-2.078-0.992-4.05-2.448-6.437-2.539c-3.255-0.113-6.575,1.413-8.544,4.025c-2.209,2.768-2.576,6.79-1.231,10.019
		c1.798,4.345,7.127,7.189,11.657,5.551c1.809-0.567,3.295-1.758,4.893-2.725c2.158-1.221,4.53,0.298,6.194,1.667
		c1.449,1.072,1.293,3.15,0.901,4.693c-1.896,2.663-4.882,4.327-7.887,5.449c-4.973,1.878-10.626,1.315-15.392-0.905
		c-2.844-1.468-5.224-3.702-7.225-6.172c-1.856-2.517-3.048-5.54-3.48-8.635c-0.167-2.913-0.272-5.91,0.632-8.722
		C96.866,45.975,100.245,41.528,104.902,39.232L104.902,39.232z"/>
	<path fill="#F13636" d="M200.977,38.673c1.991-0.708,4.468-0.65,6.165,0.745c2.775,2.009,3.139,6.575,0.708,8.991
		c-1.271,1.25-3.062,2.009-4.857,1.86c-3.818-0.153-6.742-4.686-5.158-8.199C198.409,40.605,199.553,39.352,200.977,38.673
		L200.977,38.673z"/>
	<path fill="#DC413F" d="M159.019,41.383c-0.018-0.665,0.396-1.126,1.006-1.333c-0.57,2.343-0.389,4.759-0.407,7.146
		c0.004,5.271-0.011,10.546,0.022,15.821l-0.127,0.341c-0.334-1.558-0.225-3.157-0.203-4.733c-0.552,0.065-1.101,0.134-1.646,0.196
		c0.305-2.387,0.28-4.835-0.174-7.204c-0.033-0.178-0.091-0.534-0.124-0.712c0.421,0.323,0.828,0.683,1.282,0.97
		c0.211-0.316,0.316-0.661,0.327-1.039C159.11,47.686,158.783,44.525,159.019,41.383L159.019,41.383z"/>
	<path fill="#FDFDFD" d="M128.308,54.824c0.116-7.127,6.219-13.496,13.303-14.022c1.791-0.065,3.622-0.105,5.362,0.396
		c5.039,1.271,9.082,5.471,10.517,10.419c0.454,2.369,0.48,4.817,0.174,7.204c-1.032,4.352-3.989,8.337-8.155,10.117
		c-4.784,2.383-10.902,1.827-15.185-1.377C130.397,64.643,127.977,59.735,128.308,54.824L128.308,54.824z"/>
	<path fill="#F13636" d="M141.331,50.054c2.703-0.803,6.063,0.338,7.084,3.124c0.672,1.998,0.61,4.497-0.832,6.165
		c-1.123,1.275-2.797,2.085-4.515,1.933c-2.267,0.203-4.374-1.311-5.275-3.328C136.463,54.933,138.043,50.944,141.331,50.054
		L141.331,50.054z"/>
	<path fill="#E99999" d="M237.119,76.976c0.058-3.862-0.607-7.672-1.199-11.472c-0.163-1.072-0.487-2.114-0.963-3.088
		c1.003,6.263,2.194,12.555,1.965,18.927c-0.334,13.924-4.298,27.801-11.712,39.626c-0.955,1.602-1.973,3.197-3.368,4.457
		c0.272-1.871,0.872-3.691,0.999-5.584c0.105-3.422,0.367-7.058-1.37-10.161c0.436,2.412,1.231,4.781,1.25,7.258
		c0.044,2.666-0.505,5.315-1.402,7.821c-0.727,2.027-1.933,3.825-2.924,5.725c2.652-2.325,4.476-5.406,6.55-8.221
		c4.018-6.354,7.142-13.256,9.343-20.441c0.458-1.78,0.799-3.586,1.264-5.358C237.017,90.083,237.348,83.501,237.119,76.976z"/>
	<path fill="#FDFDFD" d="M173.444,69.613c4.087-1.475,8.969,0.189,11.374,3.793c1.137,1.548,1.744,3.473,1.715,5.391
		c-0.004,4.853,0.04,9.703-0.022,14.556c0.018,1.475-1.188,2.656-2.478,3.175c-1.508,0.567-3.291,1.003-4.795,0.2
		c-1.468-0.567-2.263-2.227-2.23-3.734c-0.025-3.651,0.044-7.298-0.022-10.945c-0.011-1.464-1.057-2.714-2.314-3.342
		c-0.941-0.243-1.94-0.222-2.884-0.044c-1.213,0.574-2.372,1.689-2.412,3.113c-0.138,4.824,0.091,9.656-0.105,14.48
		c0.022,1.693-0.995,3.357-2.666,3.843c-1.511,0.352-3.197,0.937-4.668,0.138c-1.54-0.665-2.343-2.365-2.321-3.985
		c-0.015-6.179,0.007-12.362-0.011-18.545c-0.033-1.588,0.392-3.28,1.588-4.399c1.264-1.475,3.299-1.849,5.133-2.023
		c1.108-0.167,2.111,0.436,3.186,0.519C170.807,71.048,171.977,70.042,173.444,69.613L173.444,69.613z"/>
	<path fill="#F13636" d="M200.704,73.627c1.366-0.737,3.008-0.552,4.497-0.421c1.962,0.534,3.48,2.249,4.123,4.141
		c0.193,1.638,0.331,3.495-0.69,4.908c-0.963,1.362-2.434,2.554-4.159,2.634c-1.449,0.08-3.019,0.113-4.258-0.77
		c-1.809-1.239-3.048-3.48-2.812-5.703C197.671,76.417,198.91,74.564,200.704,73.627L200.704,73.627z"/>
	<path fill="#FDFDFC" d="M138.24,76.246c2.114-0.839,4.432-0.639,6.659-0.603c7.113,0.632,13.1,7.258,12.933,14.418
		c0.258,4.359-1.805,8.664-5.064,11.505c-2.314,1.965-5.22,3.193-8.225,3.567c-4.337,0.421-8.846-1.152-11.944-4.229
		c-2.735-2.884-4.592-6.8-4.319-10.84C128.064,83.897,132.464,78.161,138.24,76.246L138.24,76.246z"/>
	<path fill="#F03736" d="M140.968,84.907c2.056-0.458,4.497-0.396,6.099,1.162c1.693,1.504,2.02,3.981,1.493,6.085
		c-0.748,2.445-3.295,4.229-5.863,3.934c-1.947,0.08-3.647-1.21-4.664-2.768C136.369,90.381,137.564,85.975,140.968,84.907
		L140.968,84.907z"/>
	<path fill="#CF6057" d="M98.741,86.807c0.708,1.34,0.461,2.895,0.49,4.348c-0.018,7.876-0.004,15.755-0.011,23.635
		c-0.167,1.962,1.29,3.851,3.157,4.352c1.602,0.294,3.215-0.156,4.824-0.171c-1.162,0.857-2.623,1.246-4.05,1.279
		c-1.206-0.156-2.183-0.992-3.113-1.704c-0.585-0.541-1.377-1.104-1.38-1.983c-0.036-1.449,0.203-2.892,0.196-4.341
		C98.795,103.75,98.879,95.278,98.741,86.807L98.741,86.807z"/>
	<path fill="#EBA0A0" d="M173.561,109.279c2.801-1.075,5.297-2.779,8.043-3.981c-2.205,1.853-4.857,3.022-7.454,4.21
		c-6.753,2.837-14.298,3.698-21.528,2.536c-3.015-0.596-6.085-1.108-8.926-2.339c2.361,0.356,4.635,1.126,6.993,1.508
		C158.292,112.57,166.368,112.279,173.561,109.279L173.561,109.279z"/>
	<path fill="#F23736" d="M198.903,107.688c0.665-0.341,1.239-0.846,1.933-1.137c0.781-0.196,1.439,0.32,2.052,0.719
		c1.053,0.894,2.492,0.211,3.72,0.494c0.752,0.716,1.032,1.751,1.431,2.677c0.97,0.476,2.408,0.556,2.768,1.769
		c0.044,0.832-0.098,1.664-0.073,2.499c0.251,0.948,1.301,1.558,1.282,2.597c0.065,0.945-0.839,1.522-1.228,2.296
		c-0.138,0.93,0.091,1.867,0.018,2.801c-0.196,0.886-1.188,1.112-1.874,1.497c-1.351,0.429-1.253,2.183-2.318,2.943
		c-1.01,0.254-2.063-0.087-3.073,0.123c-0.799,0.345-1.42,1.181-2.354,1.13c-1.137,0.062-1.773-1.315-2.913-1.21
		c-0.836-0.033-1.693,0.174-2.51-0.044c-0.723-0.734-1.024-1.744-1.435-2.659c-0.915-0.396-2.034-0.592-2.634-1.464
		c-0.305-0.934,0-1.936,0.12-2.881c-0.494-0.705-1.115-1.351-1.395-2.176c-0.2-0.872,0.52-1.526,0.901-2.223
		c0.865-1.173-0.356-2.906,0.748-3.974c0.701-0.443,1.5-0.694,2.267-0.999c0.418-0.919,0.716-1.936,1.439-2.677
		C196.803,107.568,197.864,107.818,198.903,107.688L198.903,107.688z"/>
	<path fill="#CF6057" d="M209.819,137.2c0.258,0.018,0.777,0.058,1.039,0.076c-0.523,0.774-1.046,1.544-1.62,2.278
		c2.416-1.78,4.577-3.876,6.532-6.15C213.866,134.788,211.89,136.081,209.819,137.2z"/>
	<path fill="#E05357" d="M166.542,157.002c3.564-1.01,7.262-1.693,10.978-1.671c-0.581,0.309-1.213,0.516-1.86,0.621
		C172.652,156.508,169.619,157.231,166.542,157.002L166.542,157.002z"/>
</g>
</svg>
