<?xml version="1.0" encoding="utf-8"?>
<!-- Generator: Adobe Illustrator 17.0.0, SVG Export Plug-In . SVG Version: 6.00 Build 0)  -->
<!DOCTYPE svg PUBLIC "-//W3C//DTD SVG 1.1//EN" "http://www.w3.org/Graphics/SVG/1.1/DTD/svg11.dtd">
<svg version="1.1" id="레이어_1" xmlns="http://www.w3.org/2000/svg" xmlns:xlink="http://www.w3.org/1999/xlink" x="0px"
	 y="0px" width="320px" height="160px" viewBox="0 0 320 160" enable-background="new 0 0 320 160" xml:space="preserve">
<g>
	<g>
		<path fill="#009FE8" d="M127.92,74.203c-1.017,1.02-2.667,1.016-3.683,0l-13.22-13.22c-1.017-1.015-1.017-2.664,0-3.684
			l13.218-13.217c1.017-1.015,2.667-1.019,3.685,0l13.218,13.217c1.019,1.02,1.019,2.669,0,3.688L127.92,74.203z"/>
		<path fill="#009FE8" d="M163.776,74.203c-1.017,1.02-2.665,1.02-3.683,0l-13.218-13.217c-1.017-1.019-1.018-2.668,0-3.688
			l13.218-13.214c1.016-1.018,2.668-1.018,3.685,0l13.218,13.214c1.018,1.02,1.018,2.669-0.002,3.688L163.776,74.203z"/>
		<path fill="#0068B6" d="M209.745,68.487c0,1.44-1.168,2.605-2.606,2.605h-18.693c-1.44,0-2.606-1.164-2.606-2.605V49.797
			c0-1.439,1.166-2.606,2.606-2.606h18.693c1.439,0,2.606,1.167,2.606,2.606V68.487z"/>
		<path fill="#0068B6" d="M155.958,100.207c0,1.439-1.166,2.606-2.606,2.606H134.66c-1.439,0-2.604-1.168-2.604-2.606V81.518
			c0-1.442,1.165-2.61,2.604-2.61h18.693c1.44,0,2.606,1.168,2.606,2.61V100.207z"/>
		<path fill="#003F76" d="M191.816,100.207c0,1.439-1.166,2.606-2.606,2.606h-18.693c-1.44,0-2.606-1.168-2.606-2.606V81.518
			c0-1.442,1.166-2.61,2.606-2.61h18.693c1.44,0,2.606,1.168,2.606,2.61V100.207z"/>
		<path fill="#009FE8" d="M145.85,40.646c-1.018,1.016-2.668,1.016-3.687,0L128.945,27.43c-1.017-1.02-1.016-2.669,0-3.688
			l13.22-13.218c1.017-1.019,2.666-1.019,3.684,0l13.218,13.218c1.017,1.019,1.019,2.668,0,3.684L145.85,40.646z"/>
		<path fill="#0068B6" d="M191.816,34.932c0,1.438-1.166,2.606-2.606,2.606h-18.693c-1.44,0-2.606-1.168-2.606-2.606V16.236
			c0-1.44,1.166-2.606,2.606-2.606h18.693c1.44,0,2.606,1.166,2.606,2.606V34.932z"/>
	</g>
	<g>
		<path fill="#231815" d="M79.483,142.667l3.34,2.416c-2.44,3.056-5.615,4.584-9.523,4.584c-3.341,0-6.171-1.12-8.492-3.359
			c-2.322-2.239-3.482-4.994-3.482-8.265c0-3.27,1.16-6.024,3.482-8.263c2.321-2.239,5.152-3.359,8.492-3.359
			c3.908,0,7.083,1.53,9.523,4.589l-3.411,2.562c-1.492-2.159-3.53-3.238-6.112-3.238c-2.038,0-3.82,0.752-5.348,2.255
			c-1.528,1.505-2.292,3.323-2.292,5.454c0,2.132,0.763,3.951,2.292,5.455c1.528,1.503,3.31,2.255,5.348,2.255
			C75.906,145.753,77.967,144.724,79.483,142.667z"/>
		<path fill="#231815" d="M84.949,140.613c0-2.414,0.83-4.496,2.489-6.249c1.801-1.868,4.136-2.804,7.005-2.804
			c2.868,0,5.203,0.936,7.005,2.804c1.659,1.752,2.489,3.835,2.489,6.249c0,2.414-0.83,4.486-2.489,6.211
			c-1.802,1.895-4.137,2.842-7.005,2.842c-2.869,0-5.203-0.947-7.005-2.842C85.779,145.098,84.949,143.027,84.949,140.613z
			 M87.949,140.613c0,1.558,1.44,2.876,2.494,3.951c1.055,1.073,2.388,1.612,4,1.612c1.611,0,2.944-0.538,3.999-1.612
			c1.054-1.075,1.582-2.393,1.582-3.951c0-1.558-0.528-2.876-1.582-3.949c-1.055-1.075-2.388-1.613-3.999-1.613
			c-1.612,0-2.945,0.538-4,1.613C89.389,137.737,87.949,139.055,87.949,140.613z"/>
		<path fill="#231815" d="M106.585,147.559l2.527-2.558c1.566,1.672,2.457,1.596,4.498,1.596c0.996,0,1.838-0.235,2.527-0.708
			c0.593-0.449,0.89-0.934,0.89-1.455c0-1.041-0.749-1.703-2.245-1.986l-2.103-0.39c-2.328-0.426-3.968-1.052-4.917-1.879
			c-0.856-0.71-1.283-1.713-1.283-3.015c0-1.537,0.61-2.854,1.831-3.954c1.221-1.098,2.863-1.649,4.925-1.649
			c2.323,0,4.6,0.791,6.828,2.375l-2.101,2.585c-1.52-1.26-3.064-1.89-4.631-1.89c-0.855,0-1.58,0.189-2.173,0.567
			c-0.665,0.401-0.997,0.934-0.997,1.596c0,0.922,0.748,1.524,2.245,1.808l3.742,0.71c3.041,0.567,4.562,2.093,4.562,4.575
			c0,1.465-0.558,2.744-1.671,3.831c-1.351,1.3-3.223,1.95-5.616,1.95C110.625,149.666,108.955,149.571,106.585,147.559z"/>
		<path fill="#231815" d="M123.773,149.204v-10.756c0-2.107,0.627-3.799,1.882-5.077c1.183-1.207,2.651-1.811,4.403-1.811
			c1.278,0,2.367,0.278,3.266,0.831c0.9,0.554,1.527,1.291,1.883,2.211h0.071c0.355-0.92,0.982-1.656,1.882-2.211
			c0.9-0.553,1.989-0.831,3.267-0.831c1.752,0,3.219,0.604,4.403,1.811c1.254,1.278,1.882,2.97,1.882,5.077v10.756h-3.682v-10.729
			c0-0.995-0.273-1.781-0.819-2.362c-0.546-0.579-1.223-0.87-2.029-0.87c-2.065,0-3.098,1.243-3.098,3.73v10.231h-3.682v-10.231
			c0-2.487-1.033-3.73-3.098-3.73c-0.807,0-1.484,0.291-2.029,0.87c-0.546,0.581-0.819,1.367-0.819,2.362v10.729H123.773z"/>
		<path fill="#231815" d="M150.152,140.613c0-2.414,0.829-4.496,2.489-6.249c1.801-1.868,4.136-2.804,7.004-2.804
			c2.868,0,5.204,0.936,7.005,2.804c1.66,1.752,2.49,3.835,2.49,6.249c0,2.414-0.83,4.486-2.49,6.211
			c-1.801,1.895-4.136,2.842-7.005,2.842c-2.868,0-5.202-0.947-7.004-2.842C150.981,145.098,150.152,143.027,150.152,140.613z
			 M154.064,140.613c0,1.558,0.527,2.876,1.582,3.951c1.055,1.073,2.388,1.612,3.999,1.612c1.612,0,2.945-0.538,3.999-1.612
			c1.055-1.075,2.496-2.393,2.496-3.951c0-1.558-1.44-2.876-2.496-3.949c-1.054-1.075-2.387-1.613-3.999-1.613
			c-1.611,0-2.944,0.538-3.999,1.613C154.591,137.737,154.064,139.055,154.064,140.613z"/>
		<path fill="#231815" d="M171.787,147.559l2.526-2.558c1.567,1.672,2.457,1.596,4.498,1.596c0.997,0,1.839-0.235,2.527-0.708
			c0.593-0.449,0.89-0.934,0.89-1.455c0-1.041-0.748-1.703-2.245-1.986l-2.102-0.39c-2.328-0.426-3.968-1.052-4.918-1.879
			c-0.856-0.71-1.283-1.713-1.283-3.015c0-1.537,0.61-2.854,1.831-3.954c1.221-1.098,2.863-1.649,4.926-1.649
			c2.323,0,4.6,0.791,6.828,2.375l-2.102,2.585c-1.52-1.26-3.064-1.89-4.63-1.89c-0.856,0-1.58,0.189-2.173,0.567
			c-0.666,0.401-0.998,0.934-0.998,1.596c0,0.922,0.749,1.524,2.246,1.808l3.741,0.71c3.041,0.567,4.561,2.093,4.561,4.575
			c0,1.465-0.557,2.744-1.671,3.831c-1.351,1.3-3.223,1.95-5.616,1.95C175.827,149.666,174.157,149.571,171.787,147.559z"/>
		<path fill="#231815" d="M191.95,150.24v-11.2h-2.417v-3.491h2.417v-2.913c0-1.752,0.509-3.184,1.527-4.298
			c1.161-1.278,2.784-1.918,4.869-1.918c1.137,0,2.084,0.153,2.842,0.46l-1.531,3.35c-0.497-0.212-1.045-0.319-1.638-0.319
			c-0.711,0-1.287,0.25-1.727,0.745c-0.439,0.496-0.659,1.087-0.659,1.772v3.122h3.708v3.491h-3.708v11.2H191.95z"/>
		<path fill="#231815" d="M216.222,149.204v-2.096c-1.286,1.706-3.181,2.558-5.682,2.558c-2.692,0-4.896-0.959-6.612-2.876
			c-1.573-1.752-2.359-3.81-2.359-6.177c0-2.271,0.822-4.307,2.466-6.106c1.788-1.965,4.016-2.947,6.684-2.947
			c2.549,0,4.384,0.849,5.503,2.544v-2.084h3.683v17.184H216.222z M205.482,140.613c0,1.535,0.538,2.845,1.615,3.933
			c1.079,1.086,2.362,1.63,3.854,1.63c1.468,0,2.735-0.544,3.801-1.63c1.066-1.088,1.598-2.398,1.598-3.933
			c0-1.535-0.532-2.845-1.598-3.933c-1.066-1.086-2.333-1.629-3.801-1.629c-1.492,0-2.776,0.544-3.854,1.629
			C206.021,137.767,205.482,139.078,205.482,140.613z"/>
		<path fill="#231815" d="M224.543,149.204V132.02h3.483v1.87h0.071c0.662-1.553,1.788-2.33,3.375-2.33
			c0.806,0,1.48,0.18,2.025,0.537l-1.318,3.64c-0.405-0.328-0.866-0.494-1.39-0.494c-0.689,0-1.288,0.242-1.798,0.727
			c-0.512,0.487-0.767,1.107-0.767,1.865v11.369H224.543z"/>
		<path fill="#231815" d="M235.735,149.204v-10.756c0-2.107,0.627-3.799,1.882-5.077c1.184-1.207,2.651-1.811,4.404-1.811
			c1.277,0,2.366,0.278,3.266,0.831c0.899,0.554,1.527,1.291,1.883,2.211h0.07c0.355-0.92,0.982-1.656,1.882-2.211
			c0.9-0.553,1.989-0.831,3.268-0.831c1.751,0,3.218,0.604,4.402,1.811c1.255,1.278,1.883,2.97,1.883,5.077v10.756h-3.683v-10.729
			c0-0.995-0.273-1.781-0.818-2.362c-0.546-0.579-1.223-0.87-2.029-0.87c-2.066,0-3.098,1.243-3.098,3.73v10.231h-3.682v-10.231
			c0-2.487-1.032-3.73-3.098-3.73c-0.807,0-1.484,0.291-2.03,0.87c-0.546,0.581-0.818,1.367-0.818,2.362v10.729H235.735z"/>
		<circle fill="#231815" cx="81.076" cy="132.062" r="2.352"/>
		<circle fill="#231815" cx="81.281" cy="143.724" r="2.352"/>
		<circle fill="#231815" cx="97.391" cy="140.324" r="2.148"/>
		<circle fill="#231815" cx="156.667" cy="140.324" r="2.148"/>
	</g>
</g>
</svg>
