<?xml version="1.0" encoding="utf-8"?>
<!-- Generator: Adobe Illustrator 17.0.0, SVG Export Plug-In . SVG Version: 6.00 Build 0)  -->
<!DOCTYPE svg PUBLIC "-//W3C//DTD SVG 1.1//EN" "http://www.w3.org/Graphics/SVG/1.1/DTD/svg11.dtd">
<svg version="1.1" id="레이어_1" xmlns="http://www.w3.org/2000/svg" xmlns:xlink="http://www.w3.org/1999/xlink" x="0px"
	 y="0px" width="320px" height="160px" viewBox="0 0 320 160" enable-background="new 0 0 320 160" xml:space="preserve">
<g>
	<path fill="#3EBEC6" d="M75.389,66.165c1.515-1.423,2.644-3.226,3.217-5.227c0.617,4.167-0.714,8.483-3.318,11.753
		c-2.456,3.441-6.583,5.139-10.58,6.01c-4.653,0.928-9.512,1.169-14.156,0.096c-6.277-1.493-11.972-4.684-18.179-6.395
		c-1.909-0.569-3.883-0.84-5.826-1.243c5.323-2.25,11.298-3.134,16.997-1.965c5.524,0.805,10.895,2.854,16.542,2.618
		C65.597,71.746,71.327,70.021,75.389,66.165L75.389,66.165z"/>
	<path fill="#3EBEC6" d="M121.622,70.359c-2.141-3.607-5.739-6.295-9.792-7.358c-3.16-0.928-6.478-0.517-9.718-0.604
		c-1.817,0.066-3.668-0.184-5.458,0.171c-1.107,0.394-1.852,1.563-1.72,2.736c0.009,9.512,0.004,19.024,0,28.536
		c-0.201,1.532,1.309,2.88,2.797,2.71c3.222,0.013,6.443-0.026,9.661,0.004c3.891,0.127,7.844-1.177,10.808-3.725
		c3.051-2.609,5.148-6.378,5.585-10.387C124.244,78.338,123.885,73.922,121.622,70.359z M116.238,87.767
		c-1.239,1.703-3.06,2.898-4.999,3.668c-3.563,1.462-7.498,0.757-11.241,0.919c0.022-8.601,0-17.207,0.013-25.809
		c2.46,0.039,4.929-0.109,7.385,0.114c3.918,0.341,7.757,2.521,9.696,6.001C119.709,77.292,119.468,83.495,116.238,87.767z"/>
	<path fill="#3EBEC6" d="M0.891,71.326c1.033,0.074,2.053,0.267,3.055,0.534c5.677,1.383,11.35,3.117,16.432,6.067
		c8.527,4.819,17.128,9.814,26.658,12.366c5.782,1.589,12.099,1.672,17.759-0.46c2.679-0.998,5.034-2.762,6.789-5.016
		c-2.596,6.22-8.142,11.018-14.559,12.974C50.39,99.87,43.185,99.201,36.614,97.2c-5.971-1.852-11.35-5.288-15.859-9.586
		c-4.907-4.452-9.937-8.781-15.08-12.961C4.17,73.418,2.607,72.25,0.891,71.326L0.891,71.326z"/>
	<path fill="#3EBEC6" d="M205.767,73.668c0.009-1.62,1.602-2.937,3.191-2.731c1.3,0.228,2.578,1.357,2.464,2.771
		c0.048,5.248-0.031,10.501,0.026,15.75c0.035,2.035,2.412,3.476,4.259,2.666c1.016-0.53,1.882-1.55,1.812-2.758
		c0.053-5.235-0.031-10.475,0.026-15.71c-0.053-1.913,2.276-3.327,3.961-2.478c0.989,0.394,1.751,1.379,1.712,2.469
		c0.026,5.108-0.018,10.221,0.009,15.329c-0.057,1.283,0.6,2.622,1.817,3.139c1.878,0.875,4.351-0.622,4.294-2.723
		c0.066-5.266-0.022-10.536,0.026-15.802c0-1.909,2.337-3.283,4.014-2.39c1.125,0.473,1.755,1.703,1.646,2.898
		c-0.004,4.973,0.009,9.945-0.009,14.914c-0.017,2.977-1.668,5.896-4.281,7.35c-3.2,1.917-7.516,1.445-10.317-0.985
		c-1.668,1.269-3.655,2.246-5.8,2.154c-3.572,0.149-7.056-2.215-8.273-5.564c-0.779-2.066-0.6-4.316-0.617-6.478
		C205.767,81.547,205.666,77.603,205.767,73.668L205.767,73.668z"/>
	<path fill="#3EBEC6" d="M166.157,71.527c4.745-0.919,10.033,0.95,12.887,4.903c1.02,1.414-0.376,3.458-2.027,3.314
		c-0.963,0.101-1.598-0.696-2.215-1.287c-2.053-2.101-5.288-3.296-8.159-2.346c-3.738,0.963-6.776,4.557-6.553,8.501
		c-0.162,4.115,3.23,7.761,7.209,8.404c2.657,0.508,5.533-0.394,7.376-2.386c0.683-0.617,1.248-1.65,2.32-1.506
		c1.812-0.271,3.2,2.197,1.952,3.576c-4.211,5.927-13.57,6.658-18.871,1.817c-4.46-3.681-5.844-10.466-3.301-15.636
		C158.496,75.117,162.095,72.306,166.157,71.527L166.157,71.527z"/>
	<path fill="#3EBEC6" d="M190.158,71.475c2.316-0.311,4.824-0.28,6.916,0.889c2.828,1.466,4.841,4.587,4.679,7.805
		c-0.101,1.939-2.657,2.911-4.115,1.712c-1.458-1.059-0.744-3.156-1.628-4.531c-1.182-2.342-4.513-2.534-6.544-1.278
		c-1.107,0.84-2.114,2.775-0.889,3.918c2.342,1.847,5.432,2.132,8.107,3.292c2.057,0.784,4.036,2.149,5.003,4.189
		c1.051,2.723,0.009,6.001-2.219,7.831c-2.495,2.211-6.08,2.762-9.28,2.219c-4.255-0.7-7.796-4.657-7.704-9.022
		c0.144-1.795,2.447-2.998,3.931-1.882c1.515,0.972,0.88,3.025,1.628,4.439c1.374,3.511,7.047,3.406,8.702,0.188
		c0.521-1.213,0.206-2.845-1.059-3.462c-3.585-1.93-8.081-2.132-11.092-5.104c-1.409-1.23-1.9-3.283-1.409-5.06
		C183.828,74.307,186.962,72.013,190.158,71.475L190.158,71.475z"/>
	<path fill="#1B869C" d="M15.669,73.129c6.71-0.14,13.552,0.455,19.908,2.758c6.338,2.184,12.41,5.607,19.221,6.058
		c5.918,0.245,12.23-0.416,17.29-3.747c2.066-1.278,3.436-3.331,4.653-5.371c-1.48,4.566-3.638,9.144-7.428,12.243
		c-4.246,3.248-9.801,3.935-14.988,3.944c-9.07-0.56-17.426-4.587-25.336-8.75C24.507,77.966,20.27,75.195,15.669,73.129
		L15.669,73.129z"/>
	<path fill="#3EBEC6" d="M267.413,76.084c-0.814-1.856,1.278-4.018,3.165-3.296c1.296,0.306,1.672,1.707,2.145,2.775
		c1.768,4.417,3.769,8.742,5.428,13.206c1.843-4.088,3.458-8.277,5.209-12.41c0.582-1.283,0.906-2.972,2.386-3.524
		c1.922-0.88,4.15,1.462,3.191,3.357c-2.622,6.391-5.332,12.747-7.927,19.142c-0.355,0.77-0.617,1.707-1.436,2.114
		c-1.353,0.854-3.371,0.153-3.821-1.401C272.994,89.387,270.162,82.751,267.413,76.084L267.413,76.084z"/>
	<path fill="#3EBEC6" d="M152.898,81.993c-1.103-6.776-8.028-11.928-14.839-10.943c-4.102,0.573-7.993,3.038-9.967,6.724
		c-2.254,3.891-2.276,8.943-0.144,12.887c2.723,5.297,9.245,8.199,15.001,6.658C149.554,95.786,154.255,88.669,152.898,81.993z
		 M143.478,92.193c-2.701,1.309-6.01,1.059-8.536-0.53c-3.252-1.979-4.78-6.312-3.598-9.91c0.854-2.985,3.436-5.305,6.43-6.028
		c1.97-0.398,4.088-0.206,5.87,0.753c2.898,1.414,4.763,4.513,4.933,7.695C148.52,87.504,146.586,90.84,143.478,92.193z"/>
	<path fill="#3EBEC6" d="M319.074,82.996c-0.118,0.017-0.346,0.053-0.46,0.07c-0.53-5.17-4.417-9.744-9.359-11.258
		c-5.371-1.747-11.652,0.438-14.843,5.082c-2.994,4.119-3.244,9.993-0.67,14.379c1.86,3.3,5.266,5.642,8.987,6.312
		c4.819,0.972,10.221-1.02,12.896-5.218c0.784-1.366-0.525-3.371-2.088-3.169c-1.177-0.206-1.795,0.963-2.552,1.624
		c-2.386,2.556-6.461,3.09-9.543,1.532c-2.211-0.972-3.769-2.985-4.552-5.231c6.579-0.096,13.167,0.022,19.75-0.053
		c1.217,0.039,1.62-1.357,2.469-1.979C319.1,84.388,319.087,83.692,319.074,82.996z M296.942,82.072
		c1.129-4.045,5.476-6.921,9.634-6.229c3.371,0.499,6.115,3.09,7.271,6.233C308.209,82.094,302.576,82.098,296.942,82.072z"/>
	<path fill="#3EBEC6" d="M264.401,73.23c0.136-1.458-1.414-2.005-2.513-2.403c-1.392,0.451-2.631,1.51-2.469,3.13
		c-2.084-1.55-4.539-2.648-7.144-2.872c-6.767-0.731-13.443,4.531-14.375,11.267c-1.072,6.098,2.762,12.523,8.562,14.611
		c4.299,1.663,9.346,0.784,12.952-2.04c0.087,0.906,0.28,1.913,1.116,2.434c1.409,1.09,4.027,0.101,3.865-1.834
		C264.427,88.095,264.419,80.658,264.401,73.23z M254.784,92.319c-2.937,1.374-6.614,0.941-9.149-1.081
		c-2.119-1.672-3.344-4.39-3.222-7.082c0.022-3.502,2.403-6.815,5.686-8.002c4.281-1.79,9.49,0.74,11.167,4.955
		C261.201,85.259,258.903,90.538,254.784,92.319z"/>
</g>
</svg>
