<?xml version="1.0" encoding="utf-8"?>
<!-- Generator: Adobe Illustrator 17.0.0, SVG Export Plug-In . SVG Version: 6.00 Build 0)  -->
<!DOCTYPE svg PUBLIC "-//W3C//DTD SVG 1.1//EN" "http://www.w3.org/Graphics/SVG/1.1/DTD/svg11.dtd">
<svg version="1.1" id="레이어_1" xmlns="http://www.w3.org/2000/svg" xmlns:xlink="http://www.w3.org/1999/xlink" x="0px"
	 y="0px" width="320px" height="160px" viewBox="0 0 320 160" enable-background="new 0 0 320 160" xml:space="preserve">
<g>
	<path fill="#25CD98" d="M49.978,44.271c3.066-1.34,7.055,0.863,6.758,4.406c0.476,11.372-0.03,22.774,0.194,34.161
		c-0.119,4.689,0.476,9.482-0.655,14.066c-1.98,4.227-9.407,2.486-8.812-2.411c-0.342-13.828,0.045-27.686-0.164-41.529
		C47.567,50.046,46.718,45.819,49.978,44.271L49.978,44.271z"/>
	<path fill="#25CD98" d="M219.696,45.521c3.185-2.143,8.38,0.536,7.889,4.57c0.357,4.317-6.058,7.041-8.931,3.691
		C216.108,51.534,216.734,47.099,219.696,45.521L219.696,45.521z"/>
	<path fill="#25CD98" d="M6.589,46.965c10.375-0.878,20.869-0.387,31.273-0.298c4.361,0.089,5.031,7.383,0.685,8.291
		c-8.112,1.131-16.373,0.179-24.53,0.461c0,4.272,0,8.529,0,12.801c7.264,0.208,14.587-0.566,21.792,0.387
		c3.974,0.625,4.317,7.234,0.357,8.127c-7.279,1.384-14.781,0.387-22.149,0.64c0.045,6.788,0.045,13.575-0.283,20.348
		c-2.441,0.819-5.433,2.486-7.755,0.461c-1.637-2.263-1.325-5.225-1.474-7.874C4.564,78.863,4.579,67.417,4.49,55.97
		C4.579,52.889,4.341,49.406,6.589,46.965L6.589,46.965z"/>
	<path fill="#25CD98" d="M156.078,62.773c3.349-2.024,7.026-4.317,11.134-3.409c3.007,0.997,3.825,5.031,2.054,7.472
		c-4.614,1.98-11.372,1.712-13.59,7.13c-0.908,7.368,0.432,14.825-0.566,22.193c-0.536,4.867-9.541,3.766-8.529-1.325
		c-0.045-10.896-0.491-21.851,0.253-32.717C148.754,57.533,153.681,60.064,156.078,62.773L156.078,62.773z"/>
	<path fill="#25CD98" d="M174.178,62.639c1.518-4.957,7.294-3.051,9.363,0.372c4.138-2.292,8.663-4.51,13.545-3.677
		c7.13,0.506,11.967,7.681,11.819,14.453c0.134,7.457,0.447,14.959-0.149,22.402c-0.313,3.2-4.376,3.602-6.758,2.59
		c-2.977-2.352-1.608-6.713-1.965-9.988c-0.313-6.296,1.28-13.262-1.786-19.068c-4.957-4.346-11.432,0.104-15.242,3.825
		c0,7.368,0.521,14.781-0.134,22.134c-0.253,4.793-8.514,4.823-8.827,0.045C173.791,84.728,173.567,73.624,174.178,62.639
		L174.178,62.639z"/>
	<path fill="#25CD98" d="M236.397,62.311c1.846-4.57,7.413-2.739,9.229,0.848c4.54-2.813,9.884-5.001,15.302-3.543
		c6.386,1.369,10.107,7.993,10.211,14.156c0.134,7.442,0.447,14.915-0.149,22.327c-0.61,4.391-8.321,4.272-8.663-0.238
		c-1.355-8.529,1.474-17.653-1.697-25.84c-4.361-4.525-11.714-0.878-14.915,3.364c-1.355,7.442,0.402,15.123-0.819,22.595
		c-0.417,5.046-9.586,4.019-8.723-1.161C236.114,83.998,235.712,73.103,236.397,62.311L236.397,62.311z"/>
	<path fill="#25CD98" d="M219.517,60.078c2.769-1.414,7.279-0.193,7.145,3.438c0.432,10.434,0.313,20.928,0.045,31.377
		c0.744,5.12-8.053,6.088-8.737,1.161c-1.265-7.785-0.253-15.748-0.61-23.607C217.582,68.325,216.629,63.502,219.517,60.078
		L219.517,60.078z"/>
	<path fill="#25CD98" d="M97.119,82.852c5.284-1.503,3.17-8.544,2.009-12.399C95.02,57.86,76.042,55.166,68.212,65.556
		c-6.862,9.005-6.192,24.277,3.513,31.05c8.246,5.12,18.919,3.558,27.076-0.982c0.387-2.575,0.834-7.249-3.081-6.877
		c-5.269,0.58-10.524,3.215-15.852,1.578c-3.438-0.863-5.046-4.242-6.907-6.892C80.998,82.986,89.125,84.028,97.119,82.852z
		 M72.678,75.246c1.935-3.855,4.808-8.544,9.898-7.74c4.704-0.194,7.294,3.945,9.02,7.681C85.3,75.44,78.974,75.44,72.678,75.246z"
		/>
	<path fill="#25CD98" d="M315.629,62.222c-1.935-4.242-6.728-2.59-9.229,0.089c-6.013-3.662-14.007-4.421-20.05-0.417
		c-11.7,6.981-12.101,26.287-0.893,33.923c6.386,4.763,15.198,3.662,21.777-0.119c-0.997,3.691-0.938,8.723-5.061,10.509
		c-6.192,2.724-12.652-0.774-18.755-1.95c-3.811,0.729-4.927,6.52-1.235,8.112c7.011,3.438,15.495,4.986,23.072,2.62
		c7.651-2.65,11.089-11.193,10.673-18.785C315.689,84.892,316.329,73.519,315.629,62.222z M302.53,88.955
		c-5.269,2.977-13.441,1.027-15.212-5.21c-2.173-6.088,0.521-15.153,7.934-15.674c4.317-1.191,8.023,1.608,11.461,3.721
		C305.909,77.509,309.541,86.216,302.53,88.955z"/>
	<path fill="#25CD98" d="M137.531,72.299c-0.625-6.341-5.701-11.968-12.087-12.801c-5.879-0.714-12.101,0.045-17.386,2.828
		c-3.051,1.444-2.471,7.204,1.101,7.502c5.269-0.357,10.643-2.828,15.882-0.953c2.605,0.729,2.813,3.885,4.019,5.88
		c-7.413,0.164-15.927-0.893-21.97,4.332c-5.85,5.225-4.079,15.957,3.066,19.142c5.82,2.932,12.429,1.012,17.996-1.533
		c2.635,2.53,8.455,4.198,9.452-0.744C138.543,88.137,138.394,80.128,137.531,72.299z M115.918,90.89
		c-2.59-0.506-3.349-3.111-3.051-5.448c4.376-3.662,10.479-2.605,15.763-3.022c0.015,1.191,0.03,3.557,0.045,4.748
		C124.953,89.61,120.577,92.319,115.918,90.89z"/>
</g>
</svg>
