<?xml version="1.0" encoding="utf-8"?>
<!-- Generator: Adobe Illustrator 17.0.0, SVG Export Plug-In . SVG Version: 6.00 Build 0)  -->
<!DOCTYPE svg PUBLIC "-//W3C//DTD SVG 1.1//EN" "http://www.w3.org/Graphics/SVG/1.1/DTD/svg11.dtd">
<svg version="1.1" id="레이어_1" xmlns="http://www.w3.org/2000/svg" xmlns:xlink="http://www.w3.org/1999/xlink" x="0px"
	 y="0px" width="320px" height="160px" viewBox="0 0 320 160" enable-background="new 0 0 320 160" xml:space="preserve">
<g>
	<path fill="#555555" d="M115.531,48.487c-0.12-2.23,1.35-4.69,3.71-4.9c2.69-0.34,4.67,2.43,4.52,4.91
		c0.06,19.13-0.02,38.26,0.04,57.39c8.13-3.08,15-9.5,17.81-17.82c2.21-4.92,1.58-10.38,1.69-15.6c-0.07-1.93,1.02-3.92,2.88-4.6
		c2.18-0.99,4.78,0.93,5.17,3.13c0.37,2.17,0.18,4.39,0.23,6.58c-0.45,12.35,8.07,24.03,19.53,28.31
		c0.09-19.45-0.09-38.9,0.08-58.34c0-2.85,3.61-5.17,6.04-3.38c2.34,1.25,1.97,4.12,2.06,6.35c-0.1,20.33,0.1,40.67-0.1,61
		c0.26,2.81-2.6,4.8-5.21,3.99c-11.29-2.1-21.16-9.94-26.52-20.01c-5.28,9.74-14.63,17.33-25.49,19.85
		c-1.88,0.29-4.31,0.66-5.52-1.21c-1.24-1.96-0.9-4.39-0.98-6.59C115.561,87.867,115.431,68.177,115.531,48.487L115.531,48.487z"/>
	<path fill="#555555" d="M249.371,46.967c0.56-4.16,6.96-4.53,7.81-0.38c0.99,8.62-1.09,17.89,2.96,25.98
		c2.84,6.48,10.03,10.44,17,10.09c7.1-0.32,13.76-5.17,16.02-11.96c3.07-7.71,1.37-16.09,2.08-24.12c0.88-3.8,6.78-3.96,7.68-0.13
		c-0.04,9.71,1.36,19.96-2.81,29.08c-3.36,8.21-11.21,14.1-19.89,15.57c-0.25,7.13,0.2,14.28-0.22,21.4
		c-0.41,4.14-7.1,4.13-7.77,0.09c-0.44-7.2,0.19-14.43-0.31-21.62c-7.93-1.32-15.15-6.46-18.71-13.7
		C248.411,67.947,249.06,57.107,249.371,46.967L249.371,46.967z"/>
	<path fill="#555555" d="M243.69,75.497c-0.2-8.85-2.45-18.28-9.04-24.6c-9.06-8.79-24.34-9.72-34.45-2.2
		c-8.08,5.73-11.38,15.97-11.59,25.5c-0.25,12.1-0.06,24.2-0.1,36.3c-0.21,2.56,1.53,5.71,4.5,5.09c2.6,0.13,3.91-2.79,3.77-5.02
		c0.04-6.35-0.03-12.7,0-19.05c12.88-0.01,25.76-0.01,38.64,0c0.07,6.6-0.12,13.21,0.06,19.81c-0.05,1.77,1.19,3.07,2.31,4.27
		c0.89,0,2.67-0.01,3.55-0.01c1.39-1.34,2.56-3.03,2.38-5.06C243.71,98.847,243.761,87.167,243.69,75.497z M235.421,82.827
		c-12.88,0-25.76,0.01-38.64,0c-0.05-7.88-0.56-16.56,4.37-23.25c6.93-9.81,23.76-9.63,30.27,0.55
		C235.981,66.777,235.431,75.157,235.421,82.827z"/>
	<path fill="#FF6532" d="M90.571,43.517c-11.11-0.97-22.25,2.84-30.83,9.87c-8.41-7.16-19.64-10.79-30.66-9.86
		c-11.63,11.63-15.32,30.11-9.43,45.39c4.96,13.41,17.01,23.86,31,26.81c9.9,1.96,20.56,0.81,29.47-4.13
		c11.34-6,19.66-17.39,21.91-30.03C104.851,68.017,100.181,53.367,90.571,43.517z M49.7,107.167c-13.65-4.26-23.97-17.22-24.7-31.55
		c-0.53-8.72,2.54-17.42,7.91-24.24c7.67,0.32,15.1,3.09,21.17,7.78C43.28,72.507,41.51,92.087,49.7,107.167z M59.751,107.627
		c-9.35-12.17-9.38-30.31,0.02-42.47C69.361,77.217,69.38,95.577,59.751,107.627z M94.39,77.657c-1.37,13.5-11.45,25.5-24.42,29.4
		c8.18-15.04,6.35-34.54-4.36-47.88c6-4.77,13.49-7.46,21.14-7.81C92.57,58.717,95.57,68.307,94.39,77.657z"/>
</g>
</svg>
