<?xml version="1.0" encoding="utf-8"?>
<!-- Generator: Adobe Illustrator 17.0.0, SVG Export Plug-In . SVG Version: 6.00 Build 0)  -->
<!DOCTYPE svg PUBLIC "-//W3C//DTD SVG 1.1//EN" "http://www.w3.org/Graphics/SVG/1.1/DTD/svg11.dtd">
<svg version="1.1" id="레이어_1" xmlns="http://www.w3.org/2000/svg" xmlns:xlink="http://www.w3.org/1999/xlink" x="0px"
	 y="0px" width="320px" height="160px" viewBox="0 0 320 160" enable-background="new 0 0 320 160" xml:space="preserve">
<g>
	<path fill="#3F3F3F" d="M265.982,54.58c1.586,0,4.758,0,6.344,0c0,16.696,0,33.392,0,50.088c-1.586,0-4.758,0-6.344,0
		C265.954,87.971,266.009,71.276,265.982,54.58L265.982,54.58z"/>
	<path fill="#3F3F3F" d="M68.581,57.835c2.727-4.174,9.851,0.334,6.595,4.452C72.449,66.378,65.353,61.926,68.581,57.835
		L68.581,57.835z"/>
	<path fill="#3F3F3F" d="M15.015,71.637c6.818-4.285,15.277-3.59,21.037,1.92c5.593-6.011,16.696-7.291,21.176,0.668
		c2.449,9.934,1.113,20.313,1.336,30.442c-1.642,0-4.897,0-6.539,0c-0.083-9.155,0.751-18.421-0.89-27.493
		c-2.727-5.843-12.466-2.95-13.496,2.644c-1.363,8.209-0.584,16.612-0.584,24.905c-1.697-0.028-5.092-0.084-6.762-0.084
		c-0.139-9.155,1.197-18.56-1.252-27.52C24.977,74.086,19.467,74.002,15.015,71.637L15.015,71.637z"/>
	<path fill="#3F3F3F" d="M68.636,68.298c1.391,0.362,4.174,1.085,5.593,1.419c1.308,11.604,0.195,23.319,0.529,34.978
		c-1.586-0.028-4.758-0.028-6.344-0.028C68.441,92.535,68.191,80.43,68.636,68.298L68.636,68.298z"/>
	<path fill="#3F3F3F" d="M84.219,68.02c1.892,0.835,5.732,2.477,7.624,3.311c5.899-3.2,15.332-4.619,18.616,2.783
		c3.089,9.851,1.252,20.452,1.642,30.637c-1.642-0.028-4.925-0.083-6.595-0.111c0-8.237,0.751-16.584-0.529-24.765
		c0.083-8.125-12.522-6.929-14.08-0.223c-0.946,8.292-0.306,16.668-0.362,25.016c-1.642,0-4.925,0-6.567,0
		C83.913,92.451,83.857,80.236,84.219,68.02L84.219,68.02z"/>
	<path fill="#3F3F3F" d="M158.961,79.401c0.946-15.332,26.63-13.858,27.437,1.252c-5.899-0.25-9.572-5.649-15.11-6.595
		c-4.758-0.473-5.204,4.118-6.066,7.513c6.873,2.477,15.165,3.367,20.035,9.378c4.591,14.052-16.612,18.894-24.265,10.045
		c-1.586-2.449-3.005-5.009-4.23-7.652c4.758-0.584,8.431,1.586,10.658,5.788c4.48,0.529,12.188,1.419,12.383-5.009
		C174.126,87.303,160.185,89.919,158.961,79.401L158.961,79.401z"/>
	<path fill="#3F3F3F" d="M207.49,105.14c-19.033,0.445-20.397-32.557-2.644-35.98c9.099-3.061,17.67,4.925,17.753,13.941
		c-7.207-1.03-10.018-11.103-17.976-8.877c-7.764,5.036-7.736,17.92-1.837,24.32c7.847,5.259,12.55-5.927,20.146-5.788
		C220.986,99.631,215.337,106.225,207.49,105.14L207.49,105.14z"/>
	<path fill="#3F3F3F" d="M9.672,66.74c11.103,9.934,3.757,25.239,5.649,37.928c-1.614,0-4.87,0-6.511,0
		C8.893,92.034,8.197,79.345,9.672,66.74L9.672,66.74z"/>
	<path fill="#3F3F3F" d="M150.112,54.552c-1.642,0-4.925,0.028-6.567,0.028c0.028,5.593,0.056,11.158,0.139,16.751
		c-4.981-1.67-10.658-4.452-15.611-1.113c-9.489,5.899-9.739,20.091-4.814,29.023c3.784,7.096,12.856,6.901,19.2,3.729
		c1.92,0.612,5.76,1.809,7.68,2.421C150.084,88.444,150.14,71.498,150.112,54.552z M127.99,95.039
		c-2.282-6.706-2.616-16.445,4.341-20.536c4.063-1.419,7.986,0.25,10.713,3.311c0.863,6.122,0.529,12.327,0.724,18.505
		C139.065,99.742,130.828,101.857,127.99,95.039z"/>
	<path fill="#3F3F3F" d="M299.262,99.352c-7.151,2.894-10.936-4.842-12.828-10.296c8.292-0.223,16.557-0.195,24.849-0.223
		c-0.195-8.07-2.616-18.56-12.105-19.979c-14.108-2.894-22.261,15.722-16.863,26.992c3.896,11.437,21.566,12.661,27.854,2.783
		C308.25,93.37,302.796,99.269,299.262,99.352z M296.507,74.058c5.621-1.057,6.205,6.177,8.654,9.405
		c-6.01,0.083-12.021,0.111-18.032-0.028C289.384,80.041,290.831,72.722,296.507,74.058z"/>
	<path fill="#3F3F3F" d="M255.63,76.006c-4.842-12.16-26.018-8.654-26.769,4.591c5.37-1.169,9.294-5.983,14.776-6.539
		c4.786-0.139,5.537,4.87,7.263,8.153c-5.788,1.085-12.077,0.751-17.447,3.478c-7.458,3.979-6.317,16.752,2.059,18.95
		c7.43,1.391,15.026-3.339,22.289,0.612C256.214,95.568,257.411,85.634,255.63,76.006z M236.012,98.963
		c-0.25-2.17-0.779-6.539-1.057-8.71c5.092-1.781,10.435-2.393,15.778-2.699C251.651,96.653,244.193,101.133,236.012,98.963z"/>
</g>
</svg>
