<?xml version="1.0" encoding="utf-8"?>
<!-- Generator: Adobe Illustrator 17.0.0, SVG Export Plug-In . SVG Version: 6.00 Build 0)  -->
<!DOCTYPE svg PUBLIC "-//W3C//DTD SVG 1.1//EN" "http://www.w3.org/Graphics/SVG/1.1/DTD/svg11.dtd">
<svg version="1.1" id="레이어_1" xmlns="http://www.w3.org/2000/svg" xmlns:xlink="http://www.w3.org/1999/xlink" x="0px"
	 y="0px" width="320px" height="160px" viewBox="0 0 320 160" enable-background="new 0 0 320 160" xml:space="preserve">
<g>
	<path fill="#6B90CB" d="M95.931,51.875c0.323-1.118-0.831-3.511,0.85-3.741c1.247-0.97,3.289,1.875,1.783,2.633
		C97.77,51.293,96.892,51.662,95.931,51.875L95.931,51.875z"/>
	<path fill="#6B90CB" d="M100.366,48.05c0.758-0.028,2.282-0.092,3.049-0.12c0.009,0.795,0.018,2.393,0.018,3.187
		c-0.785-0.046-2.356-0.139-3.141-0.185C100.31,50.212,100.347,48.771,100.366,48.05L100.366,48.05z"/>
	<path fill="#6B90CB" d="M105.28,48.244c1.497-0.185,3.067-0.111,3.132,1.801c-0.6,1.303-2.125,1.349-3.289,1.774
		C105.123,50.628,105.17,49.436,105.28,48.244L105.28,48.244z"/>
	<path fill="#6B90CB" d="M165.236,48.217c1.866-1.423,3.658,2.568,1.376,3.187C164.645,52.328,163.038,48.983,165.236,48.217
		L165.236,48.217z"/>
	<path fill="#6B90CB" d="M169.209,48.503c1.561-2.245,4.536,1.136,2.356,2.337C170.151,52.235,167.601,49.806,169.209,48.503
		L169.209,48.503z"/>
	<path fill="#6B90CB" d="M174.438,48.207c1.82-0.785,3.492,1.552,1.885,2.855C174.558,52.993,171.851,49.159,174.438,48.207
		L174.438,48.207z"/>
	<path fill="#6B90CB" d="M91.571,49.371c1.626-1.404,3.945,1.007,2.522,2.55C92.541,53.852,89.769,51.099,91.571,49.371
		L91.571,49.371z"/>
	<path fill="#6B90CB" d="M109.983,49.233c2.005-1.09,3.935,1.7,2.116,3.187C110.02,53.288,108.514,50.859,109.983,49.233
		L109.983,49.233z"/>
	<path fill="#6B90CB" d="M160.627,49.076c1.783-0.915,3.594,1.903,1.94,2.947C160.839,54.064,158.262,50.258,160.627,49.076
		L160.627,49.076z"/>
	<path fill="#6B90CB" d="M179.149,48.928c1.275,0.055,3.058,1.127,2.162,2.55c-0.536,1.413-2.3,1.247-3.224,0.351
		C177.782,50.618,178.142,49.648,179.149,48.928L179.149,48.928z"/>
	<path fill="#6B90CB" d="M27.698,50.277c1.303-0.157,2.938-0.342,2.624,1.515c0.785,1.33-1.728,2.383-2.559,1.497
		C26.885,52.494,26.774,51.09,27.698,50.277L27.698,50.277z"/>
	<path fill="#6B90CB" d="M32.104,55.33c0.083-2.171-1.155-6.984,2.614-5.284c1.099,2.069-1.09,3.39-2.217,4.795l2.374,0.065
		c-0.499,1.293-1.155,2.531-2.374,3.298c0.674,0.711,1.367,1.404,2.079,2.097c-0.36,2.152-3.123,2.67-3.788,0.333
		c2.189-1.33,0.933-3.843,0.259-5.598L32.104,55.33L32.104,55.33z"/>
	<path fill="#6B90CB" d="M36.65,50.97c0.619-1.755,3.307-0.591,3.252,1.099c1.247-0.305,2.485-0.665,3.769-0.822
		c0.813,1.007,0.85,2.06,0.102,3.141c-1.755,0.573-3.03-0.988-4.351-1.848C38.516,54.776,35.255,52.586,36.65,50.97L36.65,50.97z"/>
	<path fill="#6B90CB" d="M230.68,50.046c2.328-1.035,3.067,1.21,3.27,3.049C231.826,53.861,229.322,52.531,230.68,50.046
		L230.68,50.046z"/>
	<path fill="#6B90CB" d="M235.392,50.129c2.005-1.192,3.511,0.859,2.827,2.762C236.066,54.027,234.071,52.318,235.392,50.129
		L235.392,50.129z"/>
	<path fill="#6B90CB" d="M269.776,50.212c2.143-0.952,3.584,2.614,1.312,3.381C268.963,54.203,267.624,51.164,269.776,50.212
		L269.776,50.212z"/>
	<path fill="#6B90CB" d="M275.107,53.944c-1.044-1.044-3.049-2.919-0.915-3.972c0.85-1.146,3.28,0.748,2.402,1.718
		C276.132,52.466,275.643,53.214,275.107,53.944L275.107,53.944z"/>
	<path fill="#6B90CB" d="M279.033,50.129c2.494-0.453,2.263,2.476,1.7,4C278.636,53.889,276.188,51.367,279.033,50.129
		L279.033,50.129z"/>
	<path fill="#6B90CB" d="M4.713,51.237c1.395-1.783,3.926,0.139,3.012,2.023C6.367,55.173,3.133,53.168,4.713,51.237L4.713,51.237z"
		/>
	<path fill="#6B90CB" d="M9.378,51.256c1.293-1.968,4.536,0.48,2.836,2.069C10.912,55.265,8.196,53.076,9.378,51.256L9.378,51.256z"
		/>
	<path fill="#6B90CB" d="M14.007,51.339c1.284-1.968,4.665,0.231,2.984,1.986C15.596,55.09,13.009,53.251,14.007,51.339
		L14.007,51.339z"/>
	<path fill="#6B90CB" d="M22.589,54.877c-0.425-1.912,0.148-4.333,2.624-3.621C27.097,53.307,24.649,55.016,22.589,54.877
		L22.589,54.877z"/>
	<path fill="#6B90CB" d="M87.58,50.776c1.94-0.702,3.741,1.848,1.82,3.076C87.654,55.561,85.474,51.986,87.58,50.776L87.58,50.776z"
		/>
	<path fill="#6B90CB" d="M114.445,50.905c1.959-1.099,3.982,1.931,1.838,3.039C114.565,55.469,112.523,52.023,114.445,50.905
		L114.445,50.905z"/>
	<path fill="#6B90CB" d="M155.961,50.923c2.079-1.229,4.12,2.023,1.968,3.076C156.091,55.228,154.52,52.244,155.961,50.923
		L155.961,50.923z"/>
	<path fill="#6B90CB" d="M182.845,51.053c2.291-1.238,3.926,1.413,2.153,3.123C182.992,54.896,181.459,52.725,182.845,51.053
		L182.845,51.053z"/>
	<path fill="#6B90CB" d="M207.926,51.136c1.58-1.275,3.741,0.185,3.021,2.088C209.368,55.21,206.337,53.362,207.926,51.136
		L207.926,51.136z"/>
	<path fill="#6B90CB" d="M212.545,51.237c1.358-1.534,4.213,0.194,3.039,2.014C214.328,55.293,211.095,53.187,212.545,51.237
		L212.545,51.237z"/>
	<path fill="#6B90CB" d="M217.368,51.376c1.219-1.949,4.444,0.333,2.808,2.079C218.827,55.21,215.908,52.993,217.368,51.376
		L217.368,51.376z"/>
	<path fill="#6B90CB" d="M225.719,52.919c0-2.032,1.367-2.374,3.049-1.894c1.146,1.894-0.785,4.434-2.661,2.383
		c-1.053,0.878-1.875,2.171-3.224,2.624c-1.552-0.425-1.293-2.236-1.737-3.427C222.661,52.688,224.195,52.799,225.719,52.919
		L225.719,52.919z"/>
	<path fill="#6B90CB" d="M239.844,50.803c2.069-0.665,4.019,0.702,2.836,2.91C240.389,54.896,238.967,52.974,239.844,50.803
		L239.844,50.803z"/>
	<path fill="#6B90CB" d="M265.333,51.579c2.143-1.219,3.806,2.346,1.404,3.123C264.668,55.746,263.577,52.365,265.333,51.579
		L265.333,51.579z"/>
	<path fill="#6B90CB" d="M282.941,51.413c1.94-0.887,3.547,1.321,2.162,2.956C283.089,56.032,281.121,52.79,282.941,51.413
		L282.941,51.413z"/>
	<path fill="#6B90CB" d="M245.009,52.383c1.644-0.905,3.649,2.485,1.321,3.15C244.223,56.799,242.681,53.168,245.009,52.383
		L245.009,52.383z"/>
	<path fill="#6B90CB" d="M19.55,53.085c2.106-0.942,3.095,3.723,0.527,3.409C17.887,56.947,17.416,53.418,19.55,53.085L19.55,53.085
		z"/>
	<path fill="#6B90CB" d="M46.183,53.039c1.857-1.404,3.751,2.541,1.413,3.123C45.555,57.159,43.865,53.806,46.183,53.039
		L46.183,53.039z"/>
	<path fill="#6B90CB" d="M84.199,53.02c1.7-0.416,2.864,2.236,1.192,3.113C83.386,58.24,81.141,52.974,84.199,53.02L84.199,53.02z"
		/>
	<path fill="#6B90CB" d="M96.153,56.041c-0.804-1.173-0.259-2.411,0.684-3.27c1.349,0.527,2.753,0.887,4.166,1.192l0.037-1.857
		c2.661,0.083,3.307,3.076,0.794,4.037c-0.813-0.702-1.644-1.386-2.485-2.069C98.888,55.746,97.816,56.651,96.153,56.041
		L96.153,56.041z"/>
	<path fill="#6B90CB" d="M105.299,52.974c2.153-0.859,3.871,1.469,2.171,3.196C105.373,56.984,103.996,54.683,105.299,52.974
		L105.299,52.974z"/>
	<path fill="#6B90CB" d="M118.371,53.141c2.393-0.416,3.511,2.541,5.524,3.381c2.624,1.025-1.118,4.499-2.088,1.801
		C120.976,56.134,115.877,55.903,118.371,53.141L118.371,53.141z"/>
	<path fill="#6B90CB" d="M152.497,53.002c2.467-0.868,3.261,3.631,0.647,3.437C151.056,56.753,150.659,53.676,152.497,53.002
		L152.497,53.002z"/>
	<path fill="#6B90CB" d="M165.218,52.937c2.079-1.284,3.686,2.504,1.515,3.224C164.775,57.168,163.149,53.769,165.218,52.937
		L165.218,52.937z"/>
	<path fill="#6B90CB" d="M168.562,53.852c1.247-1.238,2.55-1.875,3.695-0.185c-0.748,1.783-0.758,3.751,0,5.524
		c-1.164,1.746-2.476,1.072-3.732-0.194C170.123,57.686,170.04,55.201,168.562,53.852L168.562,53.852z"/>
	<path fill="#6B90CB" d="M174.549,52.873c2.402-0.868,3.233,3.28,0.721,3.464C173.172,56.429,172.507,53.547,174.549,52.873
		L174.549,52.873z"/>
	<path fill="#6B90CB" d="M187.639,52.928c2.476-0.406,2.965,3.658,0.443,3.621C185.939,56.512,185.681,53.547,187.639,52.928
		L187.639,52.928z"/>
	<path fill="#6B90CB" d="M285.971,54.693c0.647-2.079,4.065-1.811,3.584,0.776c1.146,0.028,2.3,0.055,3.464,0.074
		c0.065,1.182,0.61,2.642-0.711,3.363c-1.173,0.314-1.672-1.062-2.411-1.663C288.881,55.875,286.285,56.725,285.971,54.693
		L285.971,54.693z"/>
	<path fill="#6B90CB" d="M92.541,54.074c1.293-0.573,2.18,0.859,2.199,2.005c-0.628,2.605-4.554,1.09-3.538-1.386
		C91.534,54.536,92.208,54.221,92.541,54.074L92.541,54.074z"/>
	<path fill="#6B90CB" d="M109.687,57.307c-1.626-2.577,1.146-3.908,3.317-2.993C112.643,56.143,111.95,58.028,109.687,57.307
		L109.687,57.307z"/>
	<path fill="#6B90CB" d="M160.802,54.074c2.162-0.785,3.538,2.032,1.598,3.298C160.239,58.286,158.797,55.154,160.802,54.074
		L160.802,54.074z"/>
	<path fill="#6B90CB" d="M178.179,53.63c0.924,0.296,1.829,0.628,2.716,1.007c0.453,0.942,0.028,2.06,0.175,3.058
		c-0.702-0.185-2.116-0.564-2.818-0.748C178.142,55.838,178.115,54.739,178.179,53.63L178.179,53.63z"/>
	<path fill="#6B90CB" d="M260.741,54.074c1.497-2.217,4.684,1.284,2.245,2.374C261.767,58.037,259.041,54.97,260.741,54.074
		L260.741,54.074z"/>
	<path fill="#6B90CB" d="M27.79,54.905c2.365-1.044,3.178,3.649,0.6,3.4C26.423,58.739,25.721,55.228,27.79,54.905L27.79,54.905z"/>
	<path fill="#6B90CB" d="M35.68,56.466c0.083-3.547,3.751-0.961,5.026,0.453l0.554-1.94c0.582,0.979,3.224,1.783,1.912,3.243
		c-0.684,1.672-3.215,0.6-3.233-1.081C38.608,57.418,35.67,58.887,35.68,56.466L35.68,56.466z"/>
	<path fill="#6B90CB" d="M230.052,54.499c1.173,0.194,3.317,0.139,2.993,1.894c0.249,2.032-2.189,1.173-3.409,1.404
		C229.738,56.974,229.95,55.321,230.052,54.499L230.052,54.499z"/>
	<path fill="#6B90CB" d="M234.218,56.235c-0.139-1.986,2.18-1.524,3.418-2.042c-0.139,1.922-0.517,3.825-1.718,5.386l2.014,0.157
		c-0.166,2.55-3.067,3.649-3.991,0.924c0.637-0.85,1.247-1.718,1.848-2.605C235.401,57.603,234.606,56.688,234.218,56.235
		L234.218,56.235z"/>
	<path fill="#6B90CB" d="M248.427,54.757c1.755-0.554,3.547,0.628,2.633,2.568C249.351,59.459,246.487,56.67,248.427,54.757
		L248.427,54.757z"/>
	<path fill="#6B90CB" d="M268.289,56.882c1.423-0.988,2.781-2.79,4.739-2.097c1.192,1.82-0.619,4.407-2.531,2.411
		c-1.293,0.868-2.587,2.347-4.305,1.737c-1.118-1.7,0.203-2.965,1.617-3.815L268.289,56.882L268.289,56.882z"/>
	<path fill="#6B90CB" d="M274.534,55.044c1.857-1.571,4.093,0.055,3.326,2.328C276.031,58.563,274.007,57.094,274.534,55.044
		L274.534,55.044z"/>
	<path fill="#6B90CB" d="M4.648,55.82c1.497-1.33,4.296,0.185,2.91,2.088C6.441,60.032,3.143,57.741,4.648,55.82L4.648,55.82z"/>
	<path fill="#6B90CB" d="M9.286,55.93c1.469-1.58,4.554,0.166,2.947,2.069C11.041,59.866,8.187,57.87,9.286,55.93L9.286,55.93z"/>
	<path fill="#6B90CB" d="M14.025,55.967c1.497-1.672,4.434,0.111,3.021,2.125C15.642,59.801,12.907,57.843,14.025,55.967
		L14.025,55.967z"/>
	<path fill="#6B90CB" d="M49.555,55.506c1.912-0.721,4.083,0.591,2.836,2.688C50.581,59.977,48.317,57.501,49.555,55.506
		L49.555,55.506z"/>
	<path fill="#6B90CB" d="M80.596,55.792c2.116-0.24,2.688,3.538,0.406,3.557C78.804,59.727,78.24,55.912,80.596,55.792
		L80.596,55.792z"/>
	<path fill="#6B90CB" d="M87.931,56.051c2.245-1.284,3.668,2.457,1.441,3.15C87.506,60.411,86.046,56.697,87.931,56.051
		L87.931,56.051z"/>
	<path fill="#6B90CB" d="M113.502,56.605c1.506-1.931,3.141,0.268,4.046,1.534C116.024,59.801,112.403,59.496,113.502,56.605
		L113.502,56.605z"/>
	<path fill="#6B90CB" d="M148.866,55.949c1.691-0.942,3.594,2.476,1.376,3.169C148.321,60.596,146.437,56.651,148.866,55.949
		L148.866,55.949z"/>
	<path fill="#6B90CB" d="M155.315,56.134c1.792-0.379,3.825-0.416,3.991,1.875C157.874,60.873,155.268,58.48,155.315,56.134
		L155.315,56.134z"/>
	<path fill="#6B90CB" d="M183.676,59.598c-2.735-0.859-1.266-2.956-0.157-4.554C185.117,56.309,186.549,58.831,183.676,59.598
		L183.676,59.598z"/>
	<path fill="#6B90CB" d="M191.418,55.718c2.199,0.018,2.882,3.427,0.397,3.732C189.57,59.478,189.302,56.291,191.418,55.718
		L191.418,55.718z"/>
	<path fill="#6B90CB" d="M207.862,55.764c1.478-1.155,4.056,0.24,2.892,2.088C209.682,60.115,206.263,57.778,207.862,55.764
		L207.862,55.764z"/>
	<path fill="#6B90CB" d="M212.647,55.995c1.506-2.125,4.684,1.053,2.383,2.402C213.608,59.811,211.16,57.325,212.647,55.995
		L212.647,55.995z"/>
	<path fill="#6B90CB" d="M217.839,55.45c1.986-0.961,3.935,1.958,1.829,3.03C217.839,59.875,215.899,56.596,217.839,55.45
		L217.839,55.45z"/>
	<path fill="#6B90CB" d="M226.31,55.653c1.783-0.508,3.778,1.922,1.894,3.03C226.292,60.503,223.982,56.891,226.31,55.653
		L226.31,55.653z"/>
	<path fill="#6B90CB" d="M238.68,55.422c0.896,0.018,2.688,0.046,3.584,0.055c-0.157,0.702-0.462,2.116-0.619,2.818
		C239.364,59.617,238.579,57.325,238.68,55.422L238.68,55.422z"/>
	<path fill="#6B90CB" d="M257.933,55.93c1.617-0.795,3.464,2.531,1.247,3.27C256.852,60.291,255.466,56.716,257.933,55.93
		L257.933,55.93z"/>
	<path fill="#6B90CB" d="M279.809,55.552c1.949-1.46,3.926,1.977,1.737,2.938C279.827,59.663,277.62,56.365,279.809,55.552
		L279.809,55.552z"/>
	<path fill="#6B90CB" d="M23.032,60.291c-0.582-1.293-1.654-4.083,0.813-3.991C27.051,56.457,25.157,59.912,23.032,60.291
		L23.032,60.291z"/>
	<path fill="#6B90CB" d="M45.269,57.473c2.143-0.684,3.335,2.457,1.33,3.427C44.373,61.547,42.941,58.342,45.269,57.473
		L45.269,57.473z"/>
	<path fill="#6B90CB" d="M96.523,60.531c-1.783-0.259-0.259-2.393,0.259-3.206c1.497,0.693,4.12,1.875,4.97-0.471
		c2.356,0.443,2.042,2.993,0.166,3.852c-0.841-0.665-1.691-1.321-2.55-1.959C98.888,59.968,97.982,61.473,96.523,60.531
		L96.523,60.531z"/>
	<path fill="#6B90CB" d="M105.308,57.547c2.152-0.868,3.945,1.497,2.069,3.132C105.308,61.677,103.959,59.155,105.308,57.547
		L105.308,57.547z"/>
	<path fill="#6B90CB" d="M165.19,57.409c2.347-0.813,3.695,2.383,1.506,3.492C164.544,61.252,163.5,58.748,165.19,57.409
		L165.19,57.409z"/>
	<path fill="#6B90CB" d="M172.941,60.448c-0.249-2.254,2.836-4.517,3.88-1.765C177.145,61.067,174.484,60.827,172.941,60.448
		L172.941,60.448z"/>
	<path fill="#6B90CB" d="M222.791,57.686c1.644-0.545,2.771,2.411,1.256,3.123C221.876,62.748,219.871,57.713,222.791,57.686
		L222.791,57.686z"/>
	<path fill="#6B90CB" d="M243.124,57.723c1.201-1.995,4.481,0.259,2.855,1.94C244.925,61.908,241.923,59.441,243.124,57.723
		L243.124,57.723z"/>
	<path fill="#6B90CB" d="M252.381,57.843c1.977-1.072,3.769,2.467,1.349,3.233C251.577,62.102,250.348,58.637,252.381,57.843
		L252.381,57.843z"/>
	<path fill="#6B90CB" d="M283.384,57.307c1.949-1.256,4.628,0.988,2.651,2.808C284.105,61.547,282.701,59.053,283.384,57.307
		L283.384,57.307z"/>
	<path fill="#6B90CB" d="M19.365,58.508c2.393-1.201,3.252,3.4,0.711,3.298C18.09,62.231,17.222,58.859,19.365,58.508L19.365,58.508
		z"/>
	<path fill="#6B90CB" d="M53.546,58.406c1.922-1.183,3.88,1.94,1.995,3.021C53.75,62.952,51.625,59.681,53.546,58.406L53.546,58.406
		z"/>
	<path fill="#6B90CB" d="M84.051,58.545c1.007-0.12,3.104,0.083,2.633,1.635c0.665,2.226-3.511,2.337-3.584,0.102
		C83.34,59.847,83.811,58.979,84.051,58.545L84.051,58.545z"/>
	<path fill="#6B90CB" d="M91.987,58.951c1.617-0.878,2.485,0.831,3.427,1.82c-0.647,0.499-1.958,1.497-2.614,1.995
		C91.894,61.658,90.629,60.282,91.987,58.951L91.987,58.951z"/>
	<path fill="#6B90CB" d="M118.297,58.591c2.337-1.256,3.206,3.658,0.591,3.28C116.81,62.157,116.228,58.979,118.297,58.591
		L118.297,58.591z"/>
	<path fill="#6B90CB" d="M151.869,60.088c0.305-1.561,2.032-1.487,3.196-1.922c0.046,0.998,0.222,2.005,0.12,3.012
		C154.298,62.545,151.638,61.871,151.869,60.088L151.869,60.088z"/>
	<path fill="#6B90CB" d="M160.008,61.039c-0.527-2.513,3.076-3.159,3.547-0.804c-0.12,1.709-1.922,1.534-3.169,1.894
		c-1.34,0.397-1.626,2.661-3.233,2.3c-1.561-0.601-0.785-2.208-0.711-3.427C157.624,61.021,158.816,61.03,160.008,61.039
		L160.008,61.039z"/>
	<path fill="#6B90CB" d="M178.327,58.277c1.654,0.591,3.769,1.617,2.42,3.705c-0.693-0.009-2.079-0.028-2.771-0.028
		C177.865,60.716,177.985,59.487,178.327,58.277L178.327,58.277z"/>
	<path fill="#6B90CB" d="M186.318,57.972c1.986,0.222,4.462,2.67,1.672,3.834C185.431,62.619,185.644,59.45,186.318,57.972
		L186.318,57.972z"/>
	<path fill="#6B90CB" d="M262.044,58.231c1.607-1.82,4.416,0.887,2.448,2.448C262.949,62.351,260.52,59.857,262.044,58.231
		L262.044,58.231z"/>
	<path fill="#6B90CB" d="M26.063,59.82c2.153-0.776,4.647,0.527,3.317,3.049C27.023,63.746,26.21,61.815,26.063,59.82L26.063,59.82z
		"/>
	<path fill="#6B90CB" d="M36.114,59.432c1.894-0.887,3.695,0.868,2.642,2.698C36.917,64.014,34.488,61.307,36.114,59.432
		L36.114,59.432z"/>
	<path fill="#6B90CB" d="M76.623,59.515c1.94-1.534,3.954,1.838,1.977,2.873C76.836,63.774,74.739,60.66,76.623,59.515
		L76.623,59.515z"/>
	<path fill="#6B90CB" d="M109.779,59.099c1.968-1.589,4,2.097,1.728,2.901C109.798,63.293,107.747,60.078,109.779,59.099
		L109.779,59.099z"/>
	<path fill="#6B90CB" d="M125.521,59.284c2.106-1.09,3.474,2.559,1.33,3.233C124.828,63.441,123.332,60.226,125.521,59.284
		L125.521,59.284z"/>
	<path fill="#6B90CB" d="M144.765,59.062c1.358,0.323,3.28,0.157,3.317,2.079c-0.305,1.09-0.989,1.626-2.06,1.589
		C144.266,62.277,144.931,60.383,144.765,59.062L144.765,59.062z"/>
	<path fill="#6B90CB" d="M193.967,59.321c2.3-1.219,3.991,3.03,1.238,3.243C193.302,63.183,192.24,60.282,193.967,59.321
		L193.967,59.321z"/>
	<path fill="#6B90CB" d="M230.163,59.681c1.192-1.58,3.769,0.878,2.448,2.254C231.558,64.328,227.779,61.316,230.163,59.681
		L230.163,59.681z"/>
	<path fill="#6B90CB" d="M247.799,59.607c1.303-0.554,2.43,0.933,2.365,2.162c-0.591,1.035-2.411,1.875-3.206,0.628
		C245.942,61.667,246.598,59.764,247.799,59.607L247.799,59.607z"/>
	<path fill="#6B90CB" d="M270.58,59.441c2.263-1.358,4.037,2.762,1.404,3.298C270.044,63.321,268.954,60.494,270.58,59.441
		L270.58,59.441z"/>
	<path fill="#6B90CB" d="M274.543,59.644c1.626-1.626,4.25,0.055,3.104,2.189C276.104,63.423,273.573,61.63,274.543,59.644
		L274.543,59.644z"/>
	<path fill="#6B90CB" d="M287.763,59.894c0.896-0.148,1.801-0.259,2.716-0.351c-0.48,1.386-0.157,4.176-2.439,3.289
		C286.747,62.979,286.165,59.524,287.763,59.894L287.763,59.894z"/>
	<path fill="#6B90CB" d="M294.987,62.406c-2.651,0.148-2.347-4.342,0.277-3.474c0.517,2.781,4.046,3.954,3.64,6.938
		c0.693,0.536,1.358,1.09,2.014,1.681c-0.379,0.841-0.776,1.663-1.192,2.485c0.794,0.656,1.589,1.303,2.393,1.968
		c-0.453,0.462-1.367,1.386-1.82,1.848c0.952,1.072,2.587,2.088,1.487,3.686c-0.684,0.037-2.06,0.111-2.753,0.148
		c-0.379-1.238,0.102-2.393,0.591-3.501c-0.988-1.118-1.413-2.485-1.109-3.963c-0.48-1.21-0.822-2.467-1.099-3.741
		C296.105,65.464,295.486,63.94,294.987,62.406L294.987,62.406z"/>
	<path fill="#6B90CB" d="M4.833,60.559c1.266-1.589,4.148,0.314,2.725,2.023C6.542,64.818,2.847,62.259,4.833,60.559L4.833,60.559z"
		/>
	<path fill="#6B90CB" d="M10.034,60.051c1.709-0.397,3.437,0.85,2.254,2.577C10.847,65.15,7.346,61.344,10.034,60.051L10.034,60.051
		z"/>
	<path fill="#6B90CB" d="M14.579,60.06c2.125-0.711,3.926,1.7,1.995,3.215C14.496,64.245,12.833,61.529,14.579,60.06L14.579,60.06z"
		/>
	<path fill="#6B90CB" d="M48.872,60.115c1.875-0.933,3.575,2.06,1.644,3.021C48.678,64.919,46.461,61.048,48.872,60.115
		L48.872,60.115z"/>
	<path fill="#6B90CB" d="M207.843,60.337c1.718-0.933,3.963,0.222,2.892,2.189C209.451,64.864,206.411,62.37,207.843,60.337
		L207.843,60.337z"/>
	<path fill="#6B90CB" d="M212.536,60.54c1.45-1.469,4.351,0.259,2.919,2.088C214.347,64.735,211.04,62.434,212.536,60.54
		L212.536,60.54z"/>
	<path fill="#6B90CB" d="M217.331,60.707c1.053-1.774,4.49,0.046,2.882,1.866C219.169,64.818,215.954,62.425,217.331,60.707
		L217.331,60.707z"/>
	<path fill="#6B90CB" d="M239.189,60.226c2.254-0.859,3.741,1.34,2.226,3.178C239.336,64.162,237.747,62,239.189,60.226
		L239.189,60.226z"/>
	<path fill="#6B90CB" d="M279.874,60.217c1.829-0.998,3.815,1.857,1.792,2.956C279.957,64.808,277.426,61.067,279.874,60.217
		L279.874,60.217z"/>
	<path fill="#6B90CB" d="M22.284,62.286c0.739-1.857,3.649-0.619,3.169,1.192c-0.425,0.554-1.256,1.654-1.681,2.208
		C23.254,64.642,21.296,63.644,22.284,62.286L22.284,62.286z"/>
	<path fill="#6B90CB" d="M40.003,63.875c0.009-2.051,0.702-3.908,3.095-2.947c0.12,0.748,0.37,2.254,0.49,3.002
		C42.691,63.922,40.899,63.885,40.003,63.875L40.003,63.875z"/>
	<path fill="#6B90CB" d="M87.922,61.501c1.718-1.7,3.741,0.721,2.614,2.504C88.799,65.492,86.111,63.266,87.922,61.501
		L87.922,61.501z"/>
	<path fill="#6B90CB" d="M113.484,61.206c1.801-0.878,3.529,0.813,2.735,2.651C114.463,65.806,111.599,63.072,113.484,61.206
		L113.484,61.206z"/>
	<path fill="#6B90CB" d="M181.967,63.46c-1.33-1.524,0.952-2.143,1.959-2.698c0.933,1.894,2.374,3.344,4.185,4.397
		c1.487,0.785-1.275,3.418-2.125,1.848C184.794,65.658,183.436,64.494,181.967,63.46L181.967,63.46z"/>
	<path fill="#6B90CB" d="M225.424,61.326c1.931-1.46,4.056,0.831,2.679,2.661C226.357,65.206,224.019,63.155,225.424,61.326
		L225.424,61.326z"/>
	<path fill="#6B90CB" d="M254.385,62.397c0.601-1.487,2.541-0.499,3.695-0.739c-0.268,2.06-1.598,3.243-3.612,3.52
		C254.376,64.254,254.348,63.321,254.385,62.397L254.385,62.397z"/>
	<path fill="#6B90CB" d="M258.422,60.965c1.515-1.035,2.633-0.711,3.372,0.979C261.813,65.086,256.889,63.709,258.422,60.965
		L258.422,60.965z"/>
	<path fill="#6B90CB" d="M265.924,61.132c2.291-1.09,3.732,1.386,2.189,3.15C266.127,65.141,264.51,62.693,265.924,61.132
		L265.924,61.132z"/>
	<path fill="#6B90CB" d="M56.253,62.111c2.383-2.236,4.573,2.993,1.681,2.901C55.754,65.704,55.625,63.617,56.253,62.111
		L56.253,62.111z"/>
	<path fill="#6B90CB" d="M80.272,62.148c2.005-1.552,4.139,0.61,2.799,2.679C81.039,65.797,79.423,64.143,80.272,62.148
		L80.272,62.148z"/>
	<path fill="#6B90CB" d="M120.856,62.018c2.143-1.866,4.259,2.217,1.801,2.91C121.078,66.093,119.295,63.099,120.856,62.018
		L120.856,62.018z"/>
	<path fill="#6B90CB" d="M148.894,62.406c1.46-1.94,4.093-0.028,3.039,2.032C150.501,66.166,147.785,64.347,148.894,62.406
		L148.894,62.406z"/>
	<path fill="#6B90CB" d="M188.868,65.141c0.425-1.386-0.102-3.88,2.143-3.52c1.506,0.379,1.894,1.995,0.868,3.076
		C191.131,64.808,189.625,65.03,188.868,65.141L188.868,65.141z"/>
	<path fill="#6B90CB" d="M244.103,62.425c1.201-0.508,2.143,0.896,2.042,1.959c-0.249,1.774-1.912,1.349-3.187,1.072
		C242.662,64.226,242.302,62.49,244.103,62.425L244.103,62.425z"/>
	<path fill="#6B90CB" d="M282.931,63.718c0.36-1.062,1.072-1.497,2.106-1.321c1.709,0.018,0.915,2.531,1.33,3.557
		C284.964,65.584,282.691,65.852,282.931,63.718L282.931,63.718z"/>
	<path fill="#6B90CB" d="M45.195,63.007c2.18-0.711,3.363,2.245,1.386,3.326C44.391,67.053,42.895,63.894,45.195,63.007
		L45.195,63.007z"/>
	<path fill="#6B90CB" d="M74.018,63.099c2.143-0.785,3.64,1.534,2.06,3.206C73.99,67.155,72.207,64.679,74.018,63.099L74.018,63.099
		z"/>
	<path fill="#6B90CB" d="M128.367,63.035c2.393-0.915,3.002,3.344,0.702,3.335C126.889,66.841,126.251,63.524,128.367,63.035
		L128.367,63.035z"/>
	<path fill="#6B90CB" d="M143.102,63.081c2.42-1.099,3.261,3.224,0.813,3.326C141.901,66.859,140.958,63.58,143.102,63.081
		L143.102,63.081z"/>
	<path fill="#6B90CB" d="M196.73,63.035c1.681-0.804,3.483,1.709,1.912,2.892C196.905,68.051,194.263,64.226,196.73,63.035
		L196.73,63.035z"/>
	<path fill="#6B90CB" d="M250.247,63.035c1.912-1.497,4.065,2.263,1.922,2.965C250.413,67.497,248.454,64.245,250.247,63.035
		L250.247,63.035z"/>
	<path fill="#6B90CB" d="M290.886,62.887c2.236-0.859,3.492,2.43,1.376,3.381C290.184,67.044,288.789,63.82,290.886,62.887
		L290.886,62.887z"/>
	<path fill="#6B90CB" d="M19.55,64.134c2.328-0.85,2.91,3.538,0.573,3.381C18.118,68.023,17.194,64.245,19.55,64.134L19.55,64.134z"
		/>
	<path fill="#6B90CB" d="M51.375,63.598c1.561-1.072,4.129,0.12,2.901,2.18C52.807,67.802,50.027,65.806,51.375,63.598
		L51.375,63.598z"/>
	<path fill="#6B90CB" d="M84.965,63.968c2.263-0.61,3.714,2.448,1.441,3.501C84.245,68.088,83.247,65.141,84.965,63.968
		L84.965,63.968z"/>
	<path fill="#6B90CB" d="M117.373,64.143c1.469-1.044,3.631,1.718,1.866,2.799C117.54,69.141,114.666,65.012,117.373,64.143
		L117.373,64.143z"/>
	<path fill="#6B90CB" d="M153.393,64.263c2.079-1.829,4.111,2.679,1.524,3.086C153.097,68.116,151.767,65.307,153.393,64.263
		L153.393,64.263z"/>
	<path fill="#6B90CB" d="M221.636,63.58c1.256,0.185,3.511,0.249,3.058,2.106c-0.139,1.718-2.189,1.201-3.335,1.34
		C221.433,66.166,221.571,64.439,221.636,63.58L221.636,63.58z"/>
	<path fill="#6B90CB" d="M261.794,63.386c1.247,0.517,3.363,0.296,3.353,2.189c0.083,1.321-1.635,1.894-2.624,1.395
		C261.24,66.203,261.97,64.55,261.794,63.386L261.794,63.386z"/>
	<path fill="#6B90CB" d="M4.805,65.243c1.266-1.552,3.889,0.111,2.892,1.94C6.635,69.464,2.902,66.989,4.805,65.243L4.805,65.243z"
		/>
	<path fill="#6B90CB" d="M9.997,64.762c1.866-0.896,3.797,1.774,1.875,2.975C10.173,69.372,7.66,65.834,9.997,64.762L9.997,64.762z"
		/>
	<path fill="#6B90CB" d="M14.57,64.735c1.995-0.859,4.093,1.949,1.94,3.141C14.478,68.975,12.87,66.176,14.57,64.735L14.57,64.735z"
		/>
	<path fill="#6B90CB" d="M207.427,65.049c0.804-0.12,2.411-0.342,3.215-0.453c0.074,1.192,0.139,2.393,0.194,3.594
		C208.841,68.079,207.169,67.377,207.427,65.049L207.427,65.049z"/>
	<path fill="#6B90CB" d="M213.294,64.79c2.199-1.164,3.649,2.679,1.266,3.169C212.629,68.698,211.03,65.464,213.294,64.79
		L213.294,64.79z"/>
	<path fill="#6B90CB" d="M217.857,64.735c1.949-0.776,3.917,1.885,1.903,3.03C217.82,69.15,215.853,65.945,217.857,64.735
		L217.857,64.735z"/>
	<path fill="#6B90CB" d="M59.098,65.806c2.328-1.478,3.963,3.039,1.219,3.196C58.526,69.668,57.352,66.647,59.098,65.806
		L59.098,65.806z"/>
	<path fill="#6B90CB" d="M79.256,69.483c-1.774-1.044-2.827-3.917-0.018-4.333C81.714,65.899,80.753,68.3,79.256,69.483
		L79.256,69.483z"/>
	<path fill="#6B90CB" d="M123.6,65.741c1.774-2.023,4.416,2.245,1.765,2.799C123.627,69.732,122.02,66.767,123.6,65.741
		L123.6,65.741z"/>
	<path fill="#6B90CB" d="M146.695,65.594c1.995-1.109,3.353,0.878,2.596,2.725C147.342,69.751,144.7,67.414,146.695,65.594
		L146.695,65.594z"/>
	<path fill="#6B90CB" d="M191.824,65.27c0.711,0.139,2.134,0.397,2.855,0.536c1.404,2.226-1.016,3.104-2.882,3.039
		C191.806,67.949,191.815,66.166,191.824,65.27L191.824,65.27z"/>
	<path fill="#6B90CB" d="M246.653,66.028c1.497-1.672,4.25,1.801,1.949,2.818C247.041,70.361,244.648,67.146,246.653,66.028
		L246.653,66.028z"/>
	<path fill="#6B90CB" d="M256.621,65.806c0.665-0.037,2.005-0.102,2.679-0.139c0.517,1.293,0.12,2.688,0.102,4.028
		c1.21,0.527,2.762,2.661,0.859,3.27c-1.7,1.524-4.213-2.18-1.497-2.614C257.683,69.021,255.725,67.765,256.621,65.806
		L256.621,65.806z"/>
	<path fill="#6B90CB" d="M287.255,65.76c1.774-0.693,3.437,1.654,1.857,2.938C287.477,70.656,284.585,66.758,287.255,65.76
		L287.255,65.76z"/>
	<path fill="#6B90CB" d="M47.754,66.481c1.626-0.554,3.862-0.37,3.086,1.931C49.805,71.164,46.396,68.707,47.754,66.481
		L47.754,66.481z"/>
	<path fill="#6B90CB" d="M53.713,67.968c0.517-1.534,2.153-0.813,3.326-0.831c0.018,1.192,0.046,2.393,0.092,3.594
		c1.395,0.397,2.956,3.104,0.739,3.344c-2.069,0.988-3.187-1.681-1.413-2.947C55.569,70.093,53.186,69.649,53.713,67.968
		L53.713,67.968z"/>
	<path fill="#6B90CB" d="M253.018,66.619c2.356-0.61,3.206,3.206,0.813,3.501C251.679,70.628,251.041,67.34,253.018,66.619
		L253.018,66.619z"/>
	<path fill="#6B90CB" d="M293.703,66.711c2.014-0.49,2.836,2.919,0.693,3.381C291.985,71.1,291.2,66.619,293.703,66.711
		L293.703,66.711z"/>
	<path fill="#6B90CB" d="M71.385,68.042c0.85-1.801,4.093-0.748,3.252,1.275C74.175,71.737,70.101,70.277,71.385,68.042
		L71.385,68.042z"/>
	<path fill="#6B90CB" d="M82.157,67.7c2.273-0.896,4.185,2.836,1.376,3.196C81.538,71.746,80.66,68.799,82.157,67.7L82.157,67.7z"/>
	<path fill="#6B90CB" d="M120.052,67.672c2.402-1.21,3.501,3.39,0.758,3.252C118.676,71.238,118.288,68.485,120.052,67.672
		L120.052,67.672z"/>
	<path fill="#6B90CB" d="M129.401,67.783c1.552-1.728,3.871,0.102,3.095,2.079C131.009,71.599,127.988,69.834,129.401,67.783
		L129.401,67.783z"/>
	<path fill="#6B90CB" d="M140.044,67.423c1.524-0.462,2.827,0.36,4.093,1.099c-1.109,1.053-2.134,2.827-3.862,1.672
		C140.219,69.501,140.099,68.116,140.044,67.423L140.044,67.423z"/>
	<path fill="#6B90CB" d="M150.686,67.783c2.042-0.776,3.871,1.617,2.042,3.178C150.723,71.589,148.94,69.381,150.686,67.783
		L150.686,67.783z"/>
	<path fill="#6B90CB" d="M188.36,67.728c2.282-1.266,4.259,3.039,1.34,3.086C187.861,71.571,186.965,68.753,188.36,67.728
		L188.36,67.728z"/>
	<path fill="#6B90CB" d="M197.82,67.949c1.58-1.977,4.397-0.065,3.159,2.143C199.242,71.358,197.247,69.973,197.82,67.949
		L197.82,67.949z"/>
	<path fill="#6B90CB" d="M5.443,69.4c2.494-1.109,3.464,3.243,0.841,3.344C4.223,73.04,3.549,70.157,5.443,69.4L5.443,69.4z"/>
	<path fill="#6B90CB" d="M9.979,69.372c2.282-0.989,3.88,2.679,1.395,3.363C9.295,73.326,8.242,70.499,9.979,69.372L9.979,69.372z"
		/>
	<path fill="#6B90CB" d="M14.635,69.428c2.023-0.878,4.083,2.069,1.848,3.039C14.607,73.797,12.723,70.684,14.635,69.428
		L14.635,69.428z"/>
	<path fill="#6B90CB" d="M61.851,69.852c2.291-0.065,2.245,3.714-0.249,3.483C59.311,73.169,59.634,69.788,61.851,69.852
		L61.851,69.852z"/>
	<path fill="#6B90CB" d="M74.97,72.439c0.637-1.099,0.628-3.095,2.347-3.021c1.728-0.12,2.152,2.504,0.739,3.289
		C77.021,72.67,75.995,72.587,74.97,72.439L74.97,72.439z"/>
	<path fill="#6B90CB" d="M125.078,69.446c0.822,0.055,2.448,0.175,3.27,0.231c-0.055,1.275-0.176,3.566-2.014,3.141
		C124.542,72.689,125.17,70.619,125.078,69.446L125.078,69.446z"/>
	<path fill="#6B90CB" d="M144.968,69.557c1.811-1.007,3.862,1.885,1.922,2.892C145.125,74.204,142.723,70.739,144.968,69.557
		L144.968,69.557z"/>
	<path fill="#6B90CB" d="M193.653,72.07c-0.739-1.857,1.192-2.614,2.596-2.892c0.296,0.582,0.905,1.737,1.201,2.31
		C196.249,72.245,194.854,73.714,193.653,72.07L193.653,72.07z"/>
	<path fill="#6B90CB" d="M207.15,72.458c0.203-2.106,1.469-3.344,3.575-3.511c-0.166,1.164,0.637,2.799-0.61,3.594
		C209.118,72.569,208.139,72.541,207.15,72.458L207.15,72.458z"/>
	<path fill="#6B90CB" d="M213.275,69.437c1.875-0.979,3.455,1.644,1.885,2.919C213.275,74.065,210.67,70.425,213.275,69.437
		L213.275,69.437z"/>
	<path fill="#6B90CB" d="M217.83,69.363c1.894-0.887,3.926,1.986,1.959,3.021C217.913,73.945,215.927,70.702,217.83,69.363
		L217.83,69.363z"/>
	<path fill="#6B90CB" d="M50.147,70.832c1.099-1.524,4.056-0.896,3.353,1.275C52.798,74.555,49.14,73.141,50.147,70.832
		L50.147,70.832z"/>
	<path fill="#6B90CB" d="M248.011,71.331c-0.6-1.903,3.778-2.051,3.187-0.176c0.055,0.564,0.157,1.672,0.212,2.236
		C250.145,72.91,247.817,73.363,248.011,71.331L248.011,71.331z"/>
	<path fill="#6B90CB" d="M289.02,70.287c2.245-1.737,3.215,1.164,2.993,3.039C290.294,73.428,287.126,72.43,289.02,70.287
		L289.02,70.287z"/>
	<path fill="#6B90CB" d="M71.228,71.331c2.3-0.305,3.012,3.474,0.564,3.538C69.556,75.331,69.159,71.857,71.228,71.331
		L71.228,71.331z"/>
	<path fill="#6B90CB" d="M80.476,71.811c1.848-1.127,3.843,2.467,1.487,3.104C79.801,76.024,78.582,72.873,80.476,71.811
		L80.476,71.811z"/>
	<path fill="#6B90CB" d="M131.332,71.562c2.762-1.34,3.695,3.972,0.665,3.243C130.205,75.257,130.113,72.319,131.332,71.562
		L131.332,71.562z"/>
	<path fill="#6B90CB" d="M139.49,71.599c1.57-1.099,3.695,1.82,2.005,2.79C139.72,76.467,137.014,72.707,139.49,71.599
		L139.49,71.599z"/>
	<path fill="#6B90CB" d="M199.252,73.197c-0.397-1.848,2.005-2.199,3.086-1.164c0.157,1.072,0.046,2.162,0,3.243
		C201.238,74.721,199.048,75.035,199.252,73.197L199.252,73.197z"/>
	<path fill="#6B90CB" d="M253.314,71.709c1.478-2.134,4.767,0.462,2.383,2.171c0.591,1.515,0.97,3.095,1.321,4.684
		c-0.813,0.037-2.43,0.111-3.233,0.148C253.886,76.356,253.563,74.037,253.314,71.709L253.314,71.709z"/>
	<path fill="#6B90CB" d="M293.047,72.753c1.025-0.434,1.922-2.799,3.178-1.552c1.718,0.656,0.129,2.504-0.148,3.557
		c0.582,1.201,1.58,2.356,1.081,3.788c-1.173-0.018-2.956,0.637-3.187-1.062c0.397-0.97,0.85-1.922,1.358-2.845
		C294.756,74.167,293.62,73.224,293.047,72.753L293.047,72.753z"/>
	<path fill="#6B90CB" d="M121.022,72.347c1.386-1.506,3.354-0.323,3.492,1.469C123.535,76.236,119.729,74.804,121.022,72.347
		L121.022,72.347z"/>
	<path fill="#6B90CB" d="M148.543,72.199c1.395-1.127,3.723-0.249,3.049,1.783C150.742,76.467,146.686,74.398,148.543,72.199
		L148.543,72.199z"/>
	<path fill="#6B90CB" d="M189.478,72.559c1.367-1.497,4.176-0.831,3.538,1.524C191.547,76.042,188.997,74.961,189.478,72.559
		L189.478,72.559z"/>
	<path fill="#6B90CB" d="M5.434,74.111c2.467-1.256,3.501,3.381,0.795,3.335C4.205,77.733,3.521,74.776,5.434,74.111L5.434,74.111z"
		/>
	<path fill="#6B90CB" d="M10.034,74.01c2.171-0.887,3.871,2.735,1.404,3.326C9.48,78.296,8.131,75.063,10.034,74.01L10.034,74.01z"
		/>
	<path fill="#6B90CB" d="M14.7,74.213c1.792-1.395,4.037,2.143,1.912,2.91C14.736,78.647,12.556,75.275,14.7,74.213L14.7,74.213z"/>
	<path fill="#6B90CB" d="M52.706,74.204c2.106-0.554,3.381,2.476,1.377,3.492C51.819,78.315,50.461,75.257,52.706,74.204
		L52.706,74.204z"/>
	<path fill="#6B90CB" d="M61.972,74.573c0.702-0.758,3.159,0.037,2.522,1.349c0.379,1.7-1.432,2.042-2.688,1.663
		C60.937,76.753,60.724,75.155,61.972,74.573L61.972,74.573z"/>
	<path fill="#6B90CB" d="M74.545,74.139c2.042-1.016,4.009,0.48,2.882,2.67C75.339,78.084,73.538,76.282,74.545,74.139
		L74.545,74.139z"/>
	<path fill="#6B90CB" d="M126.417,74.176c1.219-0.231,2.42-0.111,3.603,0.379c-0.453,0.794-1.367,2.383-1.82,3.178
		c0.573,0.684,1.136,1.367,1.709,2.06c-0.813,1.46-0.85,3.132-0.619,4.739c-0.028,0.471-0.102,1.404-0.129,1.866
		c-2.485,0.176-4.287-2.282-1.571-3.825c-0.416-0.878-0.859-1.737-1.312-2.587c0.591-0.785,1.21-1.534,1.857-2.273
		C127.009,76.753,125.216,75.867,126.417,74.176L126.417,74.176z"/>
	<path fill="#6B90CB" d="M142.751,75.063c1.016-0.758,2.356-2.162,3.363-0.48c1.33,1.201-1.099,2.3-1.626,3.03
		c0.462,0.702,0.933,1.386,1.432,2.06c-0.508,0.942-0.961,1.912-1.45,2.864c0.785,0.822,2.975,1.432,1.607,2.818
		c-0.61,1.903-2.485,0.231-3.381-0.443c1.016-1.146,2.069-3.88-0.12-4.554c-0.018-0.342-0.074-1.035-0.102-1.386l1.681,0.157
		C143.878,77.714,143.49,76.31,142.751,75.063L142.751,75.063z"/>
	<path fill="#6B90CB" d="M195.141,74.425c1.7-2.282,4.517,1.395,2.254,2.43C195.898,78.213,193.413,75.46,195.141,74.425
		L195.141,74.425z"/>
	<path fill="#6B90CB" d="M207.206,76.569c0.406-1.552,1.247-3.113,3.15-2.55c1.109,1.293,0.203,2.642-0.536,3.815
		C209.173,77.52,207.862,76.883,207.206,76.569L207.206,76.569z"/>
	<path fill="#6B90CB" d="M213.285,74.074c2.143-1.173,3.631,2.531,1.367,3.196C212.804,78.342,210.947,74.841,213.285,74.074
		L213.285,74.074z"/>
	<path fill="#6B90CB" d="M217.774,73.973c1.903-0.822,3.917,1.774,2.051,3.049C217.885,78.638,215.973,75.405,217.774,73.973
		L217.774,73.973z"/>
	<path fill="#6B90CB" d="M248.565,74.499c2.134-0.665,4.869,0.499,3.233,3.049C249.415,78.49,248.815,76.356,248.565,74.499
		L248.565,74.499z"/>
	<path fill="#6B90CB" d="M258.515,74.924c1.053-0.259,2.134-0.406,3.215-0.545c-0.176,1.016-0.323,2.051-0.619,3.049
		c-0.721,0.129-2.162,0.379-2.882,0.508C258.302,77.178,258.441,75.682,258.515,74.924L258.515,74.924z"/>
	<path fill="#6B90CB" d="M289.371,75.793c0.083-1.765,2.291-1.247,3.464-1.34c-0.102,0.841-0.296,2.522-0.397,3.363
		C291.154,77.64,289.103,77.613,289.371,75.793L289.371,75.793z"/>
	<path fill="#6B90CB" d="M57.408,75.423c1.635-0.905,3.206,1.201,2.069,2.661c-0.684,0.259-2.06,0.785-2.753,1.044
		C56.854,77.908,55.773,75.996,57.408,75.423L57.408,75.423z"/>
	<path fill="#6B90CB" d="M70.267,76.125c1.58-0.961,3.538,1.635,1.829,2.836C70.267,81.058,67.496,76.818,70.267,76.125
		L70.267,76.125z"/>
	<path fill="#6B90CB" d="M79.432,76.134c1.94-0.527,3.677,1.367,2.069,3.002C79.515,80.744,77.325,77.456,79.432,76.134
		L79.432,76.134z"/>
	<path fill="#6B90CB" d="M122.981,76.218c2.476-1.266,3.123,3.584,0.619,3.27C121.595,79.774,120.838,76.541,122.981,76.218
		L122.981,76.218z"/>
	<path fill="#6B90CB" d="M132.127,76.061c1.811-0.813,3.64,1.801,1.894,2.984C132.191,80.911,129.632,77.077,132.127,76.061
		L132.127,76.061z"/>
	<path fill="#6B90CB" d="M137.023,77.714c1.044-0.453,2.411-2.661,3.547-1.395c1.506,0.859,0.591,2.596-0.545,3.28
		C138.88,79.239,137.993,78.379,137.023,77.714L137.023,77.714z"/>
	<path fill="#6B90CB" d="M147.13,77.687c0.194-1.792,2.106-2.042,3.261-0.97c0.037,0.758,0.102,2.254,0.139,3.002
		C149.227,79.322,147.333,79.479,147.13,77.687L147.13,77.687z"/>
	<path fill="#6B90CB" d="M191.288,76.31c2.725-1.857,3.695,3.751,0.785,3.067C190.364,79.765,189.736,76.929,191.288,76.31
		L191.288,76.31z"/>
	<path fill="#6B90CB" d="M200.443,76.273c1.718-1.524,4.129,1.644,2.125,2.892C200.739,80.495,198.679,77.64,200.443,76.273
		L200.443,76.273z"/>
	<path fill="#6B90CB" d="M5.461,78.592c2.097-0.36,3.437,2.3,1.478,3.483C4.676,83.109,3.244,79.608,5.461,78.592L5.461,78.592z"/>
	<path fill="#6B90CB" d="M10.099,78.647c2.134-0.693,3.76,2.679,1.395,3.418C9.221,82.878,8.26,79.83,10.099,78.647L10.099,78.647z"
		/>
	<path fill="#6B90CB" d="M13.055,80.541c0.988-0.647,2.568-2.91,3.751-1.386c1.312,0.988,0.314,3.335-1.303,2.984
		C14.653,81.65,13.84,81.123,13.055,80.541L13.055,80.541z"/>
	<path fill="#6B90CB" d="M52.9,79.081c2.06-0.887,3.418,1.432,2.236,3.15C53.084,83.128,50.775,80.597,52.9,79.081L52.9,79.081z"/>
	<path fill="#6B90CB" d="M62.951,78.998c2.448-0.979,2.993,3.741,0.545,3.344C61.454,82.721,60.789,79.22,62.951,78.998
		L62.951,78.998z"/>
	<path fill="#6B90CB" d="M74.101,78.98c1.497-2.088,4.767,0.711,2.31,2.3c0.924,1.746,2.485,5.451-0.952,4.97
		C73.907,84.32,74.554,81.345,74.101,78.98L74.101,78.98z"/>
	<path fill="#6B90CB" d="M194.882,80.384c0.49-2.282,2.938-2.642,3.991-0.453c-1.912,0.952-1.654,3.52-0.406,4.85
		c-0.905,1.681-3.899,1.857-3.825-0.517c0.61-0.462,1.82-1.386,2.42-1.848C196.406,81.659,195.676,80.985,194.882,80.384
		L194.882,80.384z"/>
	<path fill="#6B90CB" d="M207.917,78.527c1.146,0.212,3.418,0.249,3.049,1.958c0.037,2.005-2.337,1.238-3.584,1.321
		C207.511,80.994,207.788,79.349,207.917,78.527L207.917,78.527z"/>
	<path fill="#6B90CB" d="M213.321,78.666c2.088-0.924,3.612,2.513,1.349,3.27C212.702,82.934,211.012,79.543,213.321,78.666
		L213.321,78.666z"/>
	<path fill="#6B90CB" d="M217.802,78.675c1.894-1.109,3.908,2.014,2.032,3.012C217.987,83.322,215.908,80.088,217.802,78.675
		L217.802,78.675z"/>
	<path fill="#6B90CB" d="M248.889,82.62c-0.277-1.783,0.065-4.416,2.54-3.52C253.702,80.938,250.838,82.814,248.889,82.62
		L248.889,82.62z"/>
	<path fill="#6B90CB" d="M258.829,79.349c0.942-0.12,1.894-0.203,2.855-0.249c-0.499,0.97,0.268,3.52-1.46,3.178
		C258.201,83.156,257.591,80.504,258.829,79.349L258.829,79.349z"/>
	<path fill="#6B90CB" d="M289.546,79.894c0.508-1.33,2.226-0.564,3.28-0.748c-0.092,0.748-0.268,2.245-0.351,2.993
		c-0.748,0.074-2.245,0.222-2.993,0.296C289.454,81.585,289.472,80.735,289.546,79.894L289.546,79.894z"/>
	<path fill="#6B90CB" d="M299.597,79.109c1.857-0.471,3.437,1.34,2.18,3.039c-0.665,0.037-2.014,0.111-2.688,0.148
		C298.461,81.049,298.637,79.996,299.597,79.109L299.597,79.109z"/>
	<path fill="#6B90CB" d="M56.992,81.419c-0.406-1.681,2.134-1.423,2.965-2.208c0.074,1.46,0.111,2.919,0.092,4.388
		C59.191,82.823,56.549,83.137,56.992,81.419L56.992,81.419z"/>
	<path fill="#6B90CB" d="M254.238,79.913c2.023-0.758,3.298,1.432,2.116,3.104C254.164,84.264,252.408,81.53,254.238,79.913
		L254.238,79.913z"/>
	<path fill="#6B90CB" d="M293.86,79.959c2.143-0.517,4.61,0.536,3.141,3.076C294.507,84.116,294.008,81.918,293.86,79.959
		L293.86,79.959z"/>
	<path fill="#6B90CB" d="M70.147,80.606c1.792-0.831,3.557,1.718,1.949,3.002C70.194,85.484,67.699,81.687,70.147,80.606
		L70.147,80.606z"/>
	<path fill="#6B90CB" d="M79.339,80.661c1.866-1.072,3.899,1.737,2.032,2.938C79.58,85.363,77.353,81.899,79.339,80.661
		L79.339,80.661z"/>
	<path fill="#6B90CB" d="M122.805,80.486c2.273-0.545,3.307,2.245,1.45,3.492C122.122,84.587,120.644,81.493,122.805,80.486
		L122.805,80.486z"/>
	<path fill="#6B90CB" d="M131.988,80.652c1.829-1.053,3.852,1.765,2.005,2.929C132.191,85.391,129.817,81.899,131.988,80.652
		L131.988,80.652z"/>
	<path fill="#6B90CB" d="M138.584,80.874c1.164-1.46,3.797,1.016,2.448,2.31C139.85,85.622,136.081,82.324,138.584,80.874
		L138.584,80.874z"/>
	<path fill="#6B90CB" d="M147.813,80.828c1.986-1.413,3.982,1.487,2.162,2.984C147.97,84.763,146.252,82.444,147.813,80.828
		L147.813,80.828z"/>
	<path fill="#6B90CB" d="M191.214,80.744c1.866-1.506,3.843,1.885,1.949,2.919C191.519,85.142,189.117,81.89,191.214,80.744
		L191.214,80.744z"/>
	<path fill="#6B90CB" d="M200.527,80.911c1.118-1.607,3.871,0.998,2.448,2.282C201.801,85.622,198.162,82.361,200.527,80.911
		L200.527,80.911z"/>
	<path fill="#6B90CB" d="M5.554,83.451c2.051-0.767,3.243,2.245,1.45,3.307C4.796,87.941,3.041,84.116,5.554,83.451L5.554,83.451z"
		/>
	<path fill="#6B90CB" d="M10.136,83.377c1.848-0.517,3.344,1.561,2.005,3.049C10.173,88.394,7.678,84.569,10.136,83.377
		L10.136,83.377z"/>
	<path fill="#6B90CB" d="M14.81,83.59c0.868-0.813,2.864,0.314,2.55,1.524c0.24,1.598-2.189,2.55-3.039,1.136
		C13.406,85.484,13.794,84.042,14.81,83.59L14.81,83.59z"/>
	<path fill="#6B90CB" d="M52.872,83.682c2.097-0.952,3.501,1.423,2.162,3.123C52.89,87.747,50.923,85.308,52.872,83.682
		L52.872,83.682z"/>
	<path fill="#6B90CB" d="M62.969,83.645c2.402-1.09,3.058,3.64,0.536,3.307C61.399,87.331,60.771,83.802,62.969,83.645
		L62.969,83.645z"/>
	<path fill="#6B90CB" d="M208.656,83.276c2.393-0.887,3.307,3.261,0.804,3.501C207.252,86.971,206.827,84.162,208.656,83.276
		L208.656,83.276z"/>
	<path fill="#6B90CB" d="M213.312,83.285c2.125-0.942,3.547,2.559,1.386,3.326C212.573,87.581,211.123,84.255,213.312,83.285
		L213.312,83.285z"/>
	<path fill="#6B90CB" d="M217.82,83.276c2.3-0.942,3.991,2.707,1.46,3.455C217.165,87.174,216.37,84.569,217.82,83.276
		L217.82,83.276z"/>
	<path fill="#6B90CB" d="M249.175,84.255c0.896-1.617,2.947-0.305,3.224,1.081c1.266-0.342,2.55-0.702,3.862-0.905
		c0.628,1.072,0.637,2.153,0.018,3.243c-1.866,0.296-3.252-1.109-4.647-2.088l-0.351,1.894
		C250.237,87.008,247.697,85.659,249.175,84.255L249.175,84.255z"/>
	<path fill="#6B90CB" d="M258.173,87.23c0.48-0.961-0.286-3.538,1.303-3.501c1.737-0.601,2.818,1.626,1.617,2.882
		C260.363,86.768,258.903,87.073,258.173,87.23L258.173,87.23z"/>
	<path fill="#6B90CB" d="M290.285,83.756c2.744-1.746,3.511,4.037,0.517,3.113C289.14,87.137,288.807,83.987,290.285,83.756
		L290.285,83.756z"/>
	<path fill="#6B90CB" d="M299.616,83.756c2.254-1.183,3.788,2.947,1.284,3.15C298.84,87.821,297.805,84.615,299.616,83.756
		L299.616,83.756z"/>
	<path fill="#6B90CB" d="M57.297,84.449c0.702-0.055,2.097-0.157,2.799-0.212c-0.037,1.09,0.517,2.448-0.554,3.224
		c-0.933,0-1.866-0.028-2.79-0.092C56.891,86.638,57.158,85.179,57.297,84.449L57.297,84.449z"/>
	<path fill="#6B90CB" d="M294.729,84.495c1.367-0.37,2.651-0.148,2.762,1.543c0.037,1.506-1.654,1.922-2.808,1.58
		C293.759,86.777,293.814,85.317,294.729,84.495L294.729,84.495z"/>
	<path fill="#6B90CB" d="M71.201,88.606c-2.975-1.183-0.443-4.166,1.848-3.926C73.288,86.167,73.51,88.902,71.201,88.606
		L71.201,88.606z"/>
	<path fill="#6B90CB" d="M80.162,85.049c1.377-0.286,3.104,0.037,2.864,1.811c-0.083,1.312-1.617,1.395-2.596,1.469
		C79.598,87.396,79.025,86.029,80.162,85.049L80.162,85.049z"/>
	<path fill="#6B90CB" d="M121.179,85.576c1.035-1.691,4.536,0.222,2.781,1.959C123.101,89.53,119.452,87.368,121.179,85.576
		L121.179,85.576z"/>
	<path fill="#6B90CB" d="M131.055,87.756c-1.109-1.82,0.517-3.538,2.347-2.374c1.654,1.755-0.841,3.012-1.82,4.314
		c2.18,0.933,0.212,4.314-1.497,2.919C127.831,91.581,130.334,89.151,131.055,87.756L131.055,87.756z"/>
	<path fill="#6B90CB" d="M139.397,85.105c1.885-0.656,3.797,1.709,1.931,3.03C139.508,89.899,137.143,86.306,139.397,85.105
		L139.397,85.105z"/>
	<path fill="#6B90CB" d="M148.072,85.151c0.896-0.028,2.707-0.092,3.612-0.12c0.166,1.922-0.822,4.213-3.039,2.845
		C148.506,87.193,148.21,85.825,148.072,85.151L148.072,85.151z"/>
	<path fill="#6B90CB" d="M189.69,84.606c1.654,0.36,4.194,0.924,3.067,3.215C190.272,89.567,189.006,86.685,189.69,84.606
		L189.69,84.606z"/>
	<path fill="#6B90CB" d="M199.714,85.548c1.423-1.82,4.102,0.896,2.402,2.347C200.822,89.853,197.829,87.11,199.714,85.548
		L199.714,85.548z"/>
	<path fill="#6B90CB" d="M76.854,87.211c0.795-0.665,2.162,0.73,2.069,1.552c0.12,1.45-1.765,2.439-2.836,1.404
		C74.748,89.493,75.367,87.304,76.854,87.211L76.854,87.211z"/>
	<path fill="#6B90CB" d="M125.688,87.193c2.014-0.601,3.501,1.423,2.171,3.132C125.669,91.479,123.775,88.809,125.688,87.193
		L125.688,87.193z"/>
	<path fill="#6B90CB" d="M143.268,88.754c1.386-1.21,3.825-2.707,4.508,0.046C147.009,91.535,144.561,90.371,143.268,88.754
		L143.268,88.754z"/>
	<path fill="#6B90CB" d="M194.974,87.1c2.347-0.434,2.845,3.464,0.517,3.409C193.33,91.119,192.766,87.304,194.974,87.1
		L194.974,87.1z"/>
	<path fill="#6B90CB" d="M5.609,88.2c2.282-1.192,3.28,3.557,0.619,3.326C4.196,91.96,3.457,88.468,5.609,88.2L5.609,88.2z"/>
	<path fill="#6B90CB" d="M10.219,88.153c2.06-0.841,3.52,2.42,1.386,3.28C9.443,92.569,8.03,88.92,10.219,88.153L10.219,88.153z"/>
	<path fill="#6B90CB" d="M14.829,88.098c2.199-0.693,3.742,2.43,1.423,3.372C14.062,92.44,12.972,89.16,14.829,88.098L14.829,88.098
		z"/>
	<path fill="#6B90CB" d="M52.9,88.237c1.94-0.776,3.695,1.506,2.051,2.929C53.094,92.828,50.821,89.585,52.9,88.237L52.9,88.237z"/>
	<path fill="#6B90CB" d="M61.593,90.602c-0.443-1.635,1.044-2.827,2.577-2.383c1.497,0.758,0.453,2.614,0.527,3.843
		C63.634,91.627,62.6,91.147,61.593,90.602L61.593,90.602z"/>
	<path fill="#6B90CB" d="M208.675,87.83c2.014-0.434,3.224,2.319,1.46,3.4C207.88,92.542,206.457,88.819,208.675,87.83
		L208.675,87.83z"/>
	<path fill="#6B90CB" d="M213.451,88.024c2.042-0.822,3.353,2.291,1.33,3.215C212.758,92.505,210.873,88.634,213.451,88.024
		L213.451,88.024z"/>
	<path fill="#6B90CB" d="M217.996,88.163c2.18-1.312,3.557,2.337,1.45,3.289C217.442,92.209,215.982,88.837,217.996,88.163
		L217.996,88.163z"/>
	<path fill="#6B90CB" d="M248.916,91.895c-0.37-1.857,0.065-4.481,2.587-3.658C253.369,90.297,250.986,91.969,248.916,91.895
		L248.916,91.895z"/>
	<path fill="#6B90CB" d="M258.57,87.849c1.229,0.425,3.908,0.97,2.845,2.845c-0.092,1.247-3.492,1.367-2.901-0.157
		C258.524,89.862,258.552,88.523,258.57,87.849L258.57,87.849z"/>
	<path fill="#6B90CB" d="M289.343,89.16c0.758-1.497,2.568-0.527,3.834-0.647c-0.776,0.85-0.582,3.557-2.31,3.03
		C289.444,91.978,289.241,90.093,289.343,89.16L289.343,89.16z"/>
	<path fill="#6B90CB" d="M299.616,88.31c2.337-1.099,3.778,3.021,1.192,3.206C298.72,92.32,297.934,89.234,299.616,88.31
		L299.616,88.31z"/>
	<path fill="#6B90CB" d="M56.817,89.752c0.915-0.388,1.811-1.626,2.91-0.868c1.644,1.552-0.37,3.372-1.164,4.785l1.691,0.212
		c-0.508,2.125-0.231,4.268-0.129,6.411c-1.062,1.312-2.522,0.333-3.344-0.656c1.534-1.45,1.182-3.511,0.416-5.173
		C58.618,93.114,57.583,91.11,56.817,89.752L56.817,89.752z"/>
	<path fill="#6B90CB" d="M82.259,89.114c1.728-1.146,3.778,1.737,1.949,2.873C82.425,93.826,80.023,90.26,82.259,89.114
		L82.259,89.114z"/>
	<path fill="#6B90CB" d="M120.025,89.013c1.94-1.09,3.695,2.633,1.423,3.187C119.507,93.484,117.798,89.872,120.025,89.013
		L120.025,89.013z"/>
	<path fill="#6B90CB" d="M150.723,89.086c2.051-0.878,3.834,1.561,2.023,3.095C150.779,93.392,148.876,90.454,150.723,89.086
		L150.723,89.086z"/>
	<path fill="#6B90CB" d="M188.471,89.133c2.162-1.441,3.972,2.596,1.423,3.252C187.879,93.04,186.872,90.241,188.471,89.133
		L188.471,89.133z"/>
	<path fill="#6B90CB" d="M253.988,88.948c2.032-0.674,3.501,0.637,2.698,2.762C254.653,93.096,252.464,91.045,253.988,88.948
		L253.988,88.948z"/>
	<path fill="#6B90CB" d="M294.553,88.976c2.208-0.988,3.825,1.266,2.263,3.086C294.849,92.763,293.094,90.703,294.553,88.976
		L294.553,88.976z"/>
	<path fill="#6B90CB" d="M71.311,93.059c-0.388-2.014,0.6-4.73,3.086-3.169C75.672,92.301,73.104,92.846,71.311,93.059
		L71.311,93.059z"/>
	<path fill="#6B90CB" d="M139.776,89.438c1.487,0.296,3.991-0.259,3.538,2.097c-0.277,0.896-0.924,1.376-1.958,1.45
		C139.73,92.588,140.21,90.629,139.776,89.438L139.776,89.438z"/>
	<path fill="#6B90CB" d="M198.79,92.579c-2.032-0.785-0.499-4.194,1.358-2.965c2.106,0.286,0.776,3.381-0.905,3.344
		c0,1.182,0.018,2.365,0.037,3.547c-1.256,0.157-2.808,0.896-3.511-0.637C195.372,94.121,197.774,93.586,198.79,92.579
		L198.79,92.579z"/>
	<path fill="#6B90CB" d="M77.621,91.83c1.57-2.134,4.748,1.109,2.439,2.457C78.831,95.941,76.439,93.271,77.621,91.83L77.621,91.83z
		"/>
	<path fill="#6B90CB" d="M123.591,91.535c2.125-1.58,4.12,1.995,1.737,2.975C123.535,95.618,122.112,92.708,123.591,91.535
		L123.591,91.535z"/>
	<path fill="#6B90CB" d="M146.16,92.015c1.127-1.432,3.926-0.785,3.252,1.312C148.931,95.969,144.968,94.278,146.16,92.015
		L146.16,92.015z"/>
	<path fill="#6B90CB" d="M191.492,91.47c0.933-0.009,2.799-0.018,3.732-0.018c-0.176,0.702-0.527,2.116-0.702,2.818
		C192.508,95.775,191.492,93.124,191.492,91.47L191.492,91.47z"/>
	<path fill="#6B90CB" d="M5.646,92.846c2.467-0.961,3.132,3.806,0.48,3.317C4.039,96.486,3.614,93.124,5.646,92.846L5.646,92.846z"
		/>
	<path fill="#6B90CB" d="M10.247,92.819c2.125-0.61,3.261,2.143,1.469,3.353C9.489,97.235,7.974,93.622,10.247,92.819L10.247,92.819
		z"/>
	<path fill="#6B90CB" d="M14.884,92.874c0.952-0.212,2.919,0.111,2.448,1.543c0.453,1.681-2.226,1.46-3.012,2.31
		C14.302,95.516,13.314,93.567,14.884,92.874L14.884,92.874z"/>
	<path fill="#6B90CB" d="M52.872,92.902c2.079-0.85,3.455,1.423,2.226,3.159C53.02,96.828,50.858,94.556,52.872,92.902
		L52.872,92.902z"/>
	<path fill="#6B90CB" d="M61.574,95.193c-0.397-1.949,1.681-2.245,2.956-2.956c0.259,1.469,0.342,2.965,0.24,4.453
		C63.681,96.246,62.609,95.747,61.574,95.193L61.574,95.193z"/>
	<path fill="#6B90CB" d="M84.882,92.625c2.208-1.09,3.899,2.679,1.423,3.363C84.282,96.625,83.219,93.779,84.882,92.625
		L84.882,92.625z"/>
	<path fill="#6B90CB" d="M117.345,92.726c1.589-0.97,3.76,1.681,1.866,2.836C117.456,97.549,114.777,93.586,117.345,92.726
		L117.345,92.726z"/>
	<path fill="#6B90CB" d="M153.282,92.763c2.365-1.515,4.36,2.919,1.413,3.15C152.848,96.56,152.063,93.909,153.282,92.763
		L153.282,92.763z"/>
	<path fill="#6B90CB" d="M181.422,96.625c2.393-0.785,3.566-3.206,5.728-4.231c1.118,0.61,1.164,1.774,1.118,2.91
		c-2.171,0.453-3.372,2.226-4.712,3.778C182.142,99.008,181.828,97.706,181.422,96.625L181.422,96.625z"/>
	<path fill="#6B90CB" d="M208.157,93.031c1.377-1.192,2.494,0.647,3.621,1.275c-0.758,0.628-1.543,1.192-2.374,1.7
		C207.806,96.634,206.578,93.53,208.157,93.031L208.157,93.031z"/>
	<path fill="#6B90CB" d="M213.358,92.662c2.032-0.822,3.464,2.347,1.478,3.224C212.795,97.225,210.966,93.475,213.358,92.662
		L213.358,92.662z"/>
	<path fill="#6B90CB" d="M217.95,92.606c1.866-0.397,3.686,1.515,1.995,3.012C218.088,97.586,215.742,93.863,217.95,92.606
		L217.95,92.606z"/>
	<path fill="#6B90CB" d="M249.582,92.994c2.051-1.044,3.4,1.33,2.152,3.002C249.757,97.336,247.466,94.278,249.582,92.994
		L249.582,92.994z"/>
	<path fill="#6B90CB" d="M258.441,93.419c0.988-0.628,2.245-0.351,3.344-0.527c-0.554,0.97,0.083,3.538-1.607,3.233
		C258.339,96.754,257.961,94.759,258.441,93.419L258.441,93.419z"/>
	<path fill="#6B90CB" d="M289.722,93.225c1.062-0.443,2.217-0.148,3.335-0.24c-0.536,1.238-0.249,3.52-2.236,3.28
		C289.25,96.154,289.001,94.306,289.722,93.225L289.722,93.225z"/>
	<path fill="#6B90CB" d="M299.653,92.985c2.226-1.219,3.705,2.799,1.219,3.187C298.849,97.013,297.888,93.752,299.653,92.985
		L299.653,92.985z"/>
	<path fill="#6B90CB" d="M73.981,93.835c2.189-1.848,4.102,2.707,1.321,3.095C73.575,97.752,72.429,94.528,73.981,93.835
		L73.981,93.835z"/>
	<path fill="#6B90CB" d="M128.256,93.41c2.402-0.619,3.344,3.363,0.804,3.538C126.944,97.438,126.427,94.168,128.256,93.41
		L128.256,93.41z"/>
	<path fill="#6B90CB" d="M143.139,93.428c2.365-0.637,3.169,3.437,0.739,3.511C141.734,97.475,141.106,94.038,143.139,93.428
		L143.139,93.428z"/>
	<path fill="#6B90CB" d="M253.147,94.842c1.173-1.875,3.058-1.986,4.093,0.065c-1.866,0.397-2.236,3.566-0.323,4.129
		c-0.388,0.998-1.09,1.829-1.515,2.818c1.266,0.915,1.663,2.088,1.192,3.501c-1.506,0.148-3.344,0.323-3.076-1.783
		c0.379-0.416,1.155-1.247,1.543-1.663c-0.619-0.868-1.238-1.737-1.783-2.651C255.346,98.667,255.106,95.396,253.147,94.842
		L253.147,94.842z"/>
	<path fill="#6B90CB" d="M294.609,93.438c1.33-0.564,2.245,0.296,3.067,1.229c-1.829,1.146-1.644,3.769-0.009,4.979
		c-0.841,0.85-1.986,1.219-3.095,1.571c-0.203-0.536-0.6-1.598-0.794-2.125c0.591-0.453,1.765-1.358,2.356-1.811
		c-0.591-0.139-1.774-0.416-2.365-0.554C293.98,95.904,294.396,94.26,294.609,93.438L294.609,93.438z"/>
	<path fill="#6B90CB" d="M80.217,95.424c1.829-1.774,4.481,0.85,2.67,2.614C81.058,98.925,79.293,97.299,80.217,95.424
		L80.217,95.424z"/>
	<path fill="#6B90CB" d="M87.34,97.198c-0.212-1.312,1.552-2.097,2.55-1.469c1.506,0.637,0.434,2.457,0.591,3.631
		C89.381,98.759,87.303,98.953,87.34,97.198L87.34,97.198z"/>
	<path fill="#6B90CB" d="M113.53,98.777c-2.014-2.42,1.164-3.741,3.196-2.938C116.468,97.512,115.71,99.794,113.53,98.777
		L113.53,98.777z"/>
	<path fill="#6B90CB" d="M120.801,95.267c2.467-1.386,3.169,1.182,3.086,3.159C122.029,98.519,119.156,97.604,120.801,95.267
		L120.801,95.267z"/>
	<path fill="#6B90CB" d="M147.832,97.124c0.748-0.878,1.58-1.663,2.485-2.365c1.349,0.083,2.596,1.82,1.413,2.901
		C150.511,98.934,149.088,97.503,147.832,97.124L147.832,97.124z"/>
	<path fill="#6B90CB" d="M156.663,95.923c1.219-1.201,2.069,0.527,2.855,1.312c0.989,1.534,4.203,0.111,3.871,2.587
		c-0.092,2.254-4.065,1.598-3.381-0.831c-1.192-0.018-2.374-0.028-3.557-0.018C156.599,98.02,155.416,96.403,156.663,95.923
		L156.663,95.923z"/>
	<path fill="#6B90CB" d="M189.274,95.276c2.088-1.321,4.351,0.924,2.651,2.882C189.782,98.944,188.517,97.272,189.274,95.276
		L189.274,95.276z"/>
	<path fill="#6B90CB" d="M5.711,97.53c2.356-0.868,3.058,3.834,0.443,3.307C4.048,101.207,3.651,97.789,5.711,97.53L5.711,97.53z"/>
	<path fill="#6B90CB" d="M10.284,97.466c2.042-0.508,3.363,2.282,1.377,3.307C9.397,101.881,8.039,98.352,10.284,97.466
		L10.284,97.466z"/>
	<path fill="#6B90CB" d="M15.004,97.576c2.439-1.072,3.418,3.511,0.582,3.252C13.591,101.383,13.221,98.02,15.004,97.576
		L15.004,97.576z"/>
	<path fill="#6B90CB" d="M52.807,97.503c2.051-0.868,3.594,1.34,2.273,3.086C52.974,101.641,50.969,99.147,52.807,97.503
		L52.807,97.503z"/>
	<path fill="#6B90CB" d="M62.969,97.484c2.337-1.164,3.076,3.668,0.554,3.28C61.408,101.152,60.724,97.576,62.969,97.484
		L62.969,97.484z"/>
	<path fill="#6B90CB" d="M76.771,97.549c2.125-1.303,4.009,2.633,1.303,3.03C76.106,101.484,74.887,98.315,76.771,97.549
		L76.771,97.549z"/>
	<path fill="#6B90CB" d="M124.459,99.803c-0.822-2.069,2.614-3.612,3.335-1.432c-0.046,0.952-0.157,1.903-0.305,2.855
		C126.454,100.801,125.438,100.329,124.459,99.803L124.459,99.803z"/>
	<path fill="#6B90CB" d="M146.039,97.466c2.079-1.155,2.734,3.474,0.554,3.132C144.404,101.53,143.573,97.281,146.039,97.466
		L146.039,97.466z"/>
	<path fill="#6B90CB" d="M194.124,97.53c0.721-0.656,3.067,0.24,2.448,1.487c0.185,2.587-4.379,1.94-3.4-0.647
		C193.413,98.158,193.884,97.743,194.124,97.53L194.124,97.53z"/>
	<path fill="#6B90CB" d="M208.85,97.262c2.448-0.684,2.929,3.594,0.564,3.418C207.206,101.05,206.744,97.669,208.85,97.262
		L208.85,97.262z"/>
	<path fill="#6B90CB" d="M213.442,97.392c2.531-1.109,3.317,3.52,0.619,3.307C212.037,100.948,211.335,97.715,213.442,97.392
		L213.442,97.392z"/>
	<path fill="#6B90CB" d="M218.024,97.299c2.143-0.73,3.704,2.439,1.45,3.335C217.312,101.706,216.102,98.269,218.024,97.299
		L218.024,97.299z"/>
	<path fill="#6B90CB" d="M248.528,97.558c2.088-0.619,4.832,0.388,3.215,2.956C249.498,101.697,248.713,99.285,248.528,97.558
		L248.528,97.558z"/>
	<path fill="#6B90CB" d="M258.533,97.022c1.672,0.212,4.462,1.617,2.439,3.474C258.312,102.011,258.228,98.87,258.533,97.022
		L258.533,97.022z"/>
	<path fill="#6B90CB" d="M289.62,97.364c0.767,0.037,2.282,0.102,3.049,0.139c-0.268,1.293,0.314,3.658-1.783,3.206
		C288.992,100.995,289.555,98.482,289.62,97.364L289.62,97.364z"/>
	<path fill="#6B90CB" d="M299.468,97.466c2.337-1.118,4.009,2.873,1.386,3.178C298.821,101.484,298.082,98.611,299.468,97.466
		L299.468,97.466z"/>
	<path fill="#6B90CB" d="M84.014,98.14c1.866-0.979,3.954,1.995,1.995,3.021C84.097,102.768,82.019,99.415,84.014,98.14
		L84.014,98.14z"/>
	<path fill="#6B90CB" d="M91.682,100.505c-1.118-1.127,0.61-2.31,1.053-3.289c0.665,0.536,2.005,1.617,2.67,2.153
		C94.527,100.357,92.781,102.38,91.682,100.505L91.682,100.505z"/>
	<path fill="#6B90CB" d="M109.724,98.001c2.051-1.534,4.166,2.439,1.709,3.021C109.613,102.196,108.163,99.055,109.724,98.001
		L109.724,98.001z"/>
	<path fill="#6B90CB" d="M118.029,98.066c2.088-0.896,3.566,2.3,1.617,3.344C117.549,102.399,116.071,99.184,118.029,98.066
		L118.029,98.066z"/>
	<path fill="#6B90CB" d="M152.46,98.26c2.069-1.118,4.129,1.58,2.069,3.021C152.765,102.667,150.908,99.637,152.46,98.26
		L152.46,98.26z"/>
	<path fill="#6B90CB" d="M178.29,98.269c1.367-1.774,4.037,0.887,2.43,2.411C179.463,102.519,176.202,99.775,178.29,98.269
		L178.29,98.269z"/>
	<path fill="#6B90CB" d="M184.96,99.849c1.016-0.647,1.82-1.838,3.113-1.912c1.478,0.804,1.617,3.104-0.12,3.677
		C186.799,101.346,185.93,100.468,184.96,99.849L184.96,99.849z"/>
	<path fill="#6B90CB" d="M95.876,98.962c1.922-0.009,4.333,1.386,2.67,3.483C96.024,103.618,95.46,100.801,95.876,98.962
		L95.876,98.962z"/>
	<path fill="#6B90CB" d="M105.465,99.276c1.986-0.739,3.668,1.506,2.097,3.113C105.428,103.655,103.765,100.819,105.465,99.276
		L105.465,99.276z"/>
	<path fill="#6B90CB" d="M165.43,99.193c2.023-0.656,3.307,2.356,1.423,3.353C164.654,103.554,163.065,100.071,165.43,99.193
		L165.43,99.193z"/>
	<path fill="#6B90CB" d="M174.65,99.285c1.718-0.813,3.178,2.31,1.376,3.196C173.828,103.84,171.98,99.627,174.65,99.285
		L174.65,99.285z"/>
	<path fill="#6B90CB" d="M307.69,99.23c3.612-2.143,8.453,1.127,8.028,5.238c0.129,4.019-5.035,7.234-8.342,4.554
		C303.902,106.87,304.087,101.161,307.69,99.23L307.69,99.23z"/>
	<path fill="#6B90CB" d="M100.19,99.59c1.968-0.166,4.434,0.702,3.049,3.076C100.818,104.025,99.996,101.614,100.19,99.59
		L100.19,99.59z"/>
	<path fill="#6B90CB" d="M168.599,100.911c1.266-1.173,2.559-1.663,3.695-0.055c-0.785,1.737-0.813,3.695,0.009,5.423
		c-1.118,1.783-2.494,1.247-3.714-0.139C170.17,104.745,169.929,102.362,168.599,100.911L168.599,100.911z"/>
	<path fill="#FFFFFF" d="M308.642,100.246c4.721-2.42,7.88,5.164,4.093,7.742c-2.263,1.349-6.291,0.656-6.337-2.504
		c-0.296-1.543-0.212-4.619,1.894-4.647c-0.185,2.042-0.194,4.093,0.286,6.097c0.582-0.656,1.118-1.358,1.626-2.088
		c0.508,0.721,1.044,1.441,1.589,2.162c0.924-1.376,1.266-3.049,0.841-4.675C311.838,100.791,309.75,101.244,308.642,100.246
		L308.642,100.246z"/>
	<path fill="#6B90CB" d="M79.432,101.068c1.654-1.58,4.12,0.758,2.577,2.494C80.42,105.189,77.852,102.944,79.432,101.068
		L79.432,101.068z"/>
	<path fill="#6B90CB" d="M87.682,100.911c1.053-0.998,3.123,0.296,2.661,1.691c0.49,1.626-2.005,1.672-2.929,1.127
		C86.859,102.778,86.767,101.687,87.682,100.911L87.682,100.911z"/>
	<path fill="#6B90CB" d="M114.362,100.782c2.513-1.256,3.427,3.169,0.979,3.317C113.244,104.468,112.542,101.66,114.362,100.782
		L114.362,100.782z"/>
	<path fill="#6B90CB" d="M121.9,101.041c1.423-1.644,4.083,1.053,2.494,2.476C123.082,105.364,119.923,102.713,121.9,101.041
		L121.9,101.041z"/>
	<path fill="#6B90CB" d="M148.672,100.874c1.035-1.303,3.575,1.201,2.171,2.365C149.522,105.956,145.642,101.955,148.672,100.874
		L148.672,100.874z"/>
	<path fill="#6B90CB" d="M155.37,103.655c0.065-1.866,2.106-4.656,3.538-1.995c-0.083,0.647-0.24,1.922-0.314,2.559
		C157.513,104.043,156.442,103.858,155.37,103.655L155.37,103.655z"/>
	<path fill="#6B90CB" d="M182.761,100.801c1.922-1.155,3.982,2.143,1.912,3.021C182.826,105.244,180.803,101.946,182.761,100.801
		L182.761,100.801z"/>
	<path fill="#6B90CB" d="M190.42,101.235c0.684-0.249,2.051-0.758,2.734-1.007c0.166,1.358,0.591,4.379-1.737,3.806
		C189.801,104.126,189.69,102.251,190.42,101.235L190.42,101.235z"/>
	<path fill="#6B90CB" d="M308.642,100.246c1.109,0.998,3.196,0.545,3.991,2.088c0.425,1.626,0.083,3.298-0.841,4.675
		c-0.545-0.721-1.081-1.441-1.589-2.162c-0.508,0.73-1.044,1.432-1.626,2.088c-0.48-2.005-0.471-4.056-0.286-6.097L308.642,100.246z
		"/>
	<path fill="#6B90CB" d="M5.757,102.214c2.3-0.693,3.104,3.566,0.48,3.298C4.02,106.002,3.688,102.325,5.757,102.214L5.757,102.214z
		"/>
	<path fill="#6B90CB" d="M10.376,102.232c2.254-0.905,3.317,3.464,0.564,3.289C8.778,105.937,8.408,102.648,10.376,102.232
		L10.376,102.232z"/>
	<path fill="#6B90CB" d="M14.958,102.316c2.485-1.182,3.483,3.483,0.61,3.15C13.6,106.029,13.231,102.639,14.958,102.316
		L14.958,102.316z"/>
	<path fill="#6B90CB" d="M52.798,102.14c2.097-0.924,3.547,1.34,2.273,3.113C52.955,106.085,50.987,103.877,52.798,102.14
		L52.798,102.14z"/>
	<path fill="#6B90CB" d="M56.576,102.288c0.979-0.065,1.958-0.065,2.938-0.018c1.229,0.822,0.416,2.43,0.554,3.603
		C57.925,105.697,56.752,104.385,56.576,102.288L56.576,102.288z"/>
	<path fill="#6B90CB" d="M61.593,104.413c-0.73-2.079,2.448-3.501,3.409-1.515c-0.065,1.016-0.185,2.023-0.36,3.03
		C63.597,105.475,62.581,104.967,61.593,104.413L61.593,104.413z"/>
	<path fill="#6B90CB" d="M208.878,102.011c1.792-0.674,3.049,2.273,1.312,3.095C208.24,106.898,205.996,102.214,208.878,102.011
		L208.878,102.011z"/>
	<path fill="#6B90CB" d="M213.395,101.946c2.476-0.979,3.39,3.621,0.739,3.418C212,105.669,211.511,102.667,213.395,101.946
		L213.395,101.946z"/>
	<path fill="#6B90CB" d="M217.959,101.918c2.217-0.582,3.538,2.162,1.598,3.455C217.257,106.131,216.222,103.221,217.959,101.918
		L217.959,101.918z"/>
	<path fill="#6B90CB" d="M249.563,102.149c2.042-1.007,3.483,1.386,2.079,3.002C249.6,106.417,247.577,103.48,249.563,102.149
		L249.563,102.149z"/>
	<path fill="#6B90CB" d="M258.801,102.085c1.404-0.351,2.457,0.776,3.584,1.404c-1.109,0.85-2.079,2.448-3.677,1.709
		C258.09,104.136,258.118,103.101,258.801,102.085L258.801,102.085z"/>
	<path fill="#6B90CB" d="M289.371,104.08c-0.462-1.709,1.404-2.476,2.799-1.995c0.305,1.09,0.517,2.208,0.647,3.344
		C291.643,105.069,289.694,105.725,289.371,104.08L289.371,104.08z"/>
	<path fill="#6B90CB" d="M293.907,102.112c1.062,0.12,2.143,0.24,3.196,0.49c0.083,0.748,0.24,2.263,0.323,3.021
		c-0.721-0.12-2.152-0.342-2.873-0.453C294.248,104.163,294.082,103.138,293.907,102.112L293.907,102.112z"/>
	<path fill="#6B90CB" d="M299.44,102.038c2.365-1.182,3.972,2.836,1.423,3.233C298.747,106.103,298.165,103.239,299.44,102.038
		L299.44,102.038z"/>
	<path fill="#FFFFFF" d="M309.473,102.214c1.275-0.471,1.746-0.055,1.404,1.247C309.575,103.932,309.113,103.507,309.473,102.214
		L309.473,102.214z"/>
	<path fill="#6B90CB" d="M91.035,102.62c1.293,0.231,3.132-0.314,3.649,1.33c0.129,1.718-2.069,2.929-3.215,1.432
		C91.358,104.69,91.146,103.313,91.035,102.62L91.035,102.62z"/>
	<path fill="#6B90CB" d="M107.821,104.745c1.136-1.072,3.714-3.464,4.619-1.146c1.238,1.737-1.746,3.464-2.67,1.589
		c-1.358,0.841-2.642,2.55-4.416,1.811C103.673,105.318,106.426,102.131,107.821,104.745L107.821,104.745z"/>
	<path fill="#6B90CB" d="M160.507,102.593c2.448-0.841,3.991,2.485,1.469,3.474C159.888,106.417,159.158,103.942,160.507,102.593
		L160.507,102.593z"/>
	<path fill="#6B90CB" d="M177.856,104.45c-0.12-1.857,1.838-1.681,3.076-2.097c0.12,1.201,0.231,2.402,0.333,3.612
		C180.101,105.743,177.8,106.325,177.856,104.45L177.856,104.45z"/>
	<path fill="#6B90CB" d="M83.238,103.692c2.199-1.072,4.046,1.681,2.032,3.178C83.192,107.646,81.852,105.327,83.238,103.692
		L83.238,103.692z"/>
	<path fill="#6B90CB" d="M96.098,103.877c2.097-0.896,3.991,1.423,2.171,3.095C96.144,108.099,94.869,105.521,96.098,103.877
		L96.098,103.877z"/>
	<path fill="#6B90CB" d="M118.325,103.711c2.79-1.21,3.095,1.663,2.273,3.649C118.925,106.889,116.588,105.669,118.325,103.711
		L118.325,103.711z"/>
	<path fill="#6B90CB" d="M152.331,103.47c2.319-0.665,3.372,2.402,1.358,3.483C151.536,107.526,150.271,104.57,152.331,103.47
		L152.331,103.47z"/>
	<path fill="#6B90CB" d="M165.338,103.692c2.116-0.443,3.215,2.226,1.45,3.437C164.424,107.886,163.102,104.801,165.338,103.692
		L165.338,103.692z"/>
	<path fill="#6B90CB" d="M174.65,103.821c2.365-1.016,3.307,3.566,0.619,3.363C173.301,107.581,172.609,104.274,174.65,103.821
		L174.65,103.821z"/>
	<path fill="#6B90CB" d="M187.445,103.655c2.633-1.561,3.363,3.427,0.702,3.27C186.281,107.193,185.662,104.006,187.445,103.655
		L187.445,103.655z"/>
	<path fill="#6B90CB" d="M100.403,104.376c0.813,0,2.439,0,3.252,0c0.148,2.3-0.979,3.418-3.28,3.28
		C100.384,106.842,100.403,105.198,100.403,104.376L100.403,104.376z"/>
	<path fill="#6B90CB" d="M86.933,106.593c0.656-1.432,2.919-0.933,3.095,0.564c-0.111,0.647-0.323,1.94-0.425,2.587
		C88.522,109.18,85.363,108.357,86.933,106.593L86.933,106.593z"/>
	<path fill="#6B90CB" d="M114.676,105.946c0.711-0.748,2.845,0.296,2.411,1.469c0.647,1.534-2.661,2.698-3.076,0.961
		C113.179,107.618,113.909,106.399,114.676,105.946L114.676,105.946z"/>
	<path fill="#6B90CB" d="M156.303,105.789c1.072-0.166,2.383,0.249,2.587,1.497c0.046,1.644-1.487,2.217-2.873,1.829
		C154.917,108.173,155.213,106.584,156.303,105.789L156.303,105.789z"/>
	<path fill="#6B90CB" d="M183.131,105.854c2.864-1.497,3.741,4.351,0.536,3.169C181.985,109.281,182.069,106.602,183.131,105.854
		L183.131,105.854z"/>
	<path fill="#6B90CB" d="M5.72,106.87c2.152-0.721,3.159,3.27,0.61,3.464C4.131,110.427,3.54,107.415,5.72,106.87L5.72,106.87z"/>
	<path fill="#6B90CB" d="M9.388,109.752c-0.868-1.506,0.721-2.531,1.469-3.64c0.739,1.099,2.319,2.088,1.506,3.594
		C11.383,110.381,10.385,110.39,9.388,109.752L9.388,109.752z"/>
	<path fill="#6B90CB" d="M15.004,106.907c1.949-0.693,3.455,2.254,1.376,3.196C14.081,111.267,12.769,107.535,15.004,106.907
		L15.004,106.907z"/>
	<path fill="#6B90CB" d="M52.733,109.78c-1.885-2.023,0.684-3.196,2.411-3.584C55.699,108.154,55.403,110.861,52.733,109.78
		L52.733,109.78z"/>
	<path fill="#6B90CB" d="M57.094,106.371c1.072,0.545,3.252,0.092,3.224,1.774c0.342,1.764-1.672,2.014-2.975,1.672
		C57.195,108.672,57.121,107.526,57.094,106.371L57.094,106.371z"/>
	<path fill="#6B90CB" d="M63.006,106.667c0.85-0.582,2.217,0.619,2.106,1.543c0.277,1.644-1.811,2.319-2.901,1.293
		C60.918,108.921,61.639,106.713,63.006,106.667L63.006,106.667z"/>
	<path fill="#6B90CB" d="M208.933,106.639c2.494-0.767,2.744,3.852,0.388,3.353C207.289,110.353,206.679,106.602,208.933,106.639
		L208.933,106.639z"/>
	<path fill="#6B90CB" d="M213.58,106.667c1.737-0.804,3.418,2.614,1.238,3.132C212.795,111.341,210.781,107.129,213.58,106.667
		L213.58,106.667z"/>
	<path fill="#6B90CB" d="M218.051,106.648c2.143-0.758,3.575,2.393,1.404,3.344C217.303,110.926,216.121,107.609,218.051,106.648
		L218.051,106.648z"/>
	<path fill="#6B90CB" d="M249.498,106.889c2.032-1.21,3.538,1.155,2.162,2.845C249.748,111.286,247.586,108.163,249.498,106.889
		L249.498,106.889z"/>
	<path fill="#6B90CB" d="M253.619,109.013c-0.804-1.94,1.654-2.282,2.855-2.79c0.046,0.721,0.148,2.153,0.203,2.873
		C256.094,110.501,254.108,110.547,253.619,109.013L253.619,109.013z"/>
	<path fill="#6B90CB" d="M258.118,108.08c0.434-1.413,2.051-1.349,3.178-1.783c0.028,1.367,0.748,3.252-1.035,3.852
		C258.931,110.131,258.219,109.448,258.118,108.08L258.118,108.08z"/>
	<path fill="#6B90CB" d="M290.128,106.722c2.032-0.628,3.492,1.229,2.125,2.993C290.184,111.295,288.142,108.126,290.128,106.722
		L290.128,106.722z"/>
	<path fill="#6B90CB" d="M294.747,106.778c2.051-0.924,3.52,1.293,2.171,3.002C294.987,111.286,292.872,108.173,294.747,106.778
		L294.747,106.778z"/>
	<path fill="#6B90CB" d="M299.477,106.685c1.959-0.674,3.695,1.46,2.143,3.113C299.459,111,297.657,108.265,299.477,106.685
		L299.477,106.685z"/>
	<path fill="#6B90CB" d="M91.58,107.572c2.143-0.924,3.668,1.386,2.254,3.159C91.617,111.655,90.204,109.392,91.58,107.572
		L91.58,107.572z"/>
	<path fill="#6B90CB" d="M110.14,107.6c1.284-0.48,2.448,0.166,2.873,1.45c-0.148,1.82-1.626,1.949-3.086,1.718
		C109.234,109.632,109.308,108.579,110.14,107.6L110.14,107.6z"/>
	<path fill="#6B90CB" d="M160.784,107.517c2.162-0.73,3.076,2.069,1.478,3.307C160.1,112.043,158.391,108.163,160.784,107.517
		L160.784,107.517z"/>
	<path fill="#6B90CB" d="M179.325,107.498c2.485-0.85,2.984,3.612,0.573,3.4C177.773,111.267,177.182,107.822,179.325,107.498
		L179.325,107.498z"/>
	<path fill="#6B90CB" d="M96.31,108.524c2.116-0.758,3.326,1.571,2.088,3.252C96.301,112.783,94.352,109.974,96.31,108.524
		L96.31,108.524z"/>
	<path fill="#6B90CB" d="M106.352,108.551c2.125-1.062,2.818,3.889,0.462,3.326C104.846,112.478,103.932,108.32,106.352,108.551
		L106.352,108.551z"/>
	<path fill="#6B90CB" d="M165.467,108.551c2.365-1.081,3.012,3.769,0.517,3.335C164.017,112.339,163.241,108.542,165.467,108.551
		L165.467,108.551z"/>
	<path fill="#6B90CB" d="M174.743,108.57c0.785-0.61,2.356,0.527,2.208,1.487c0.434,1.635-2.162,2.753-2.975,1.275
		C173.052,110.491,173.505,108.838,174.743,108.57L174.743,108.57z"/>
	<path fill="#6B90CB" d="M100.153,109.087c0.878-0.018,2.651-0.055,3.538-0.074c0.055,2.042-0.665,3.954-3.039,2.947
		C100.523,111.24,100.273,109.799,100.153,109.087L100.153,109.087z"/>
	<path fill="#6B90CB" d="M169.135,109.401c1.164-1.072,3.778-0.453,3.086,1.423C172.045,113.66,167.306,111.776,169.135,109.401
		L169.135,109.401z"/>
</g>
</svg>
