<?xml version="1.0" encoding="utf-8"?>
<!-- Generator: Adobe Illustrator 17.0.0, SVG Export Plug-In . SVG Version: 6.00 Build 0)  -->
<!DOCTYPE svg PUBLIC "-//W3C//DTD SVG 1.1//EN" "http://www.w3.org/Graphics/SVG/1.1/DTD/svg11.dtd">
<svg version="1.1" id="레이어_1" xmlns="http://www.w3.org/2000/svg" xmlns:xlink="http://www.w3.org/1999/xlink" x="0px"
	 y="0px" width="320px" height="160px" viewBox="0 0 320 160" enable-background="new 0 0 320 160" xml:space="preserve">
<g>
	<path fill="#424242" d="M193.17,32h9.03c1.25,2.84,0.73,6.02,0.82,9.03c-0.04,17.31-0.01,34.61-0.02,51.92
		c-0.04,3.29,0.26,6.62-0.27,9.89c-2.2,1.63-5.26,0.82-7.81,0.9c-2.08,0.2-2.53-2.22-2.42-3.79c-0.01-18.63,0.01-37.26,0-55.89
		C192.51,40.04,192.16,35.95,193.17,32L193.17,32z"/>
	<path fill="#424242" d="M211.12,33.14c3.17,0,7.52-1.2,9.36,2.26c3.2,4.56-0.7,11.79-6.44,10.88
		C207.3,46.39,205.27,35.97,211.12,33.14L211.12,33.14z"/>
	<path fill="#424242" d="M233.95,61.21c6.3-5.67,15.64-7.6,23.63-4.74c4.59,1.63,7.98,5.76,9.24,10.39
		c1.96,6.88,1.32,14.12,1.43,21.18c-0.1,4.64,0.21,9.29-0.13,13.92c-0.49,2.34-3.33,1.73-5.05,1.85c-1.73-0.26-4.82,0.68-5.23-1.79
		c-0.3-8.6,0.1-17.21-0.17-25.81c-0.18-4-1.52-8.75-5.6-10.38c-4.52-1.6-9.66-0.07-13.22,2.96c-1.21,1.12-2.85,2.31-2.58,4.19
		c-0.1,9,0.06,18-0.04,27c-0.19,1.31,0.23,3.33-1.55,3.64c-2.45,0.27-4.95,0.27-7.39-0.01c-1.91-0.2-1.42-2.3-1.56-3.65
		c0.03-13.32,0.03-26.63,0-39.95c0.08-1.32-0.25-3.33,1.53-3.64c1.51-0.18,3.03-0.12,4.55-0.13
		C232.55,57.88,233.25,59.54,233.95,61.21L233.95,61.21z"/>
	<path fill="#424242" d="M210.34,56.48c2.76-0.42,5.61-0.4,8.36,0.01c1.45,1.03,0.93,3.02,1.08,4.53
		c-0.15,13.65,0.15,27.33-0.14,40.98c-0.46,2.54-3.76,1.56-5.59,1.81c-1.59-0.16-4.5,0.45-4.69-1.85c-0.28-13.64,0-27.3-0.13-40.94
		C209.42,59.52,208.78,57.42,210.34,56.48L210.34,56.48z"/>
	<path fill="#424242" d="M88.54,59.44c-5.45-4.23-12.91-5.08-19.48-3.51c-7.22,1.73-13.18,7.4-15.76,14.29
		c-2.96,7.84-2.22,17.11,2.3,24.21c7.37,12.26,25.42,13.4,36.36,5.46c0.76-0.78,2.31-1.42,1.94-2.77c-1.15-2.59-2.84-4.9-4.7-7.02
		c-4.21,2.87-8.96,5.6-14.28,4.92c-6.75-0.16-12.32-5.87-13.16-12.42c10.73-0.24,21.46,0,32.19-0.11c1-0.02,2.44-0.19,2.61-1.43
		C98.14,73.14,95.16,64.25,88.54,59.44z M62.21,74.5c0.9-2.36,1.68-4.92,3.58-6.71c4.67-4.82,13.62-4.98,18.08,0.23
		c1.68,1.77,2.2,4.21,2.96,6.45C78.65,74.96,70.39,74.9,62.21,74.5z"/>
	<path fill="#424242" d="M39.63,59.28c-8.04-6.07-19.73-5.02-27.48,1.04c-0.61-1.22-1.14-2.49-1.9-3.63
		C8.33,55.63,6.01,56.43,4,56.81v70.8c0.09,0.1,0.28,0.29,0.37,0.39h9.67c1.11-8.62,0.1-17.38,0.53-26.05
		c7.43,3.64,16.76,4.29,23.85-0.49C52.51,92.44,53.05,69.15,39.63,59.28z M32.01,92.93c-5.47,3.59-12.49,1.79-17.72-1.35
		c0.08-6.65-0.34-13.35,0.17-19.98c3.45-6.54,13.07-8.49,18.84-3.85C41.21,73.83,40.57,87.71,32.01,92.93z"/>
	<path fill="#424242" d="M143.79,38.01c0-2.01-0.23-4.02-0.57-6.01h-9.43c-1.23,8.4-0.2,16.98-0.55,25.45
		c-7.83-2.77-17.23-3.6-24.32,1.49c-13.38,8.96-13.93,30.75-1.94,41.1c4.62,4.06,11.14,5.7,17.15,4.48
		c4.34-0.71,8.03-3.24,11.54-5.72c0.55,1.59,1.03,3.21,1.84,4.69c2.16,0.58,6.59,0.94,6.2-2.45
		C143.84,80.04,143.67,59.02,143.79,38.01z M133.14,87.95c-3.17,6.59-12.8,9.34-18.61,4.47c-9.1-6.96-6.65-23.94,4.85-26.84
		c4.56-0.89,9.67-0.02,13.59,2.39C133.57,74.56,133.22,81.31,133.14,87.95z"/>
	<path fill="#424242" d="M310.29,56.37c-1.14,1.04-1.62,2.58-2.35,3.9c-4.39-3.01-9.51-5.3-14.94-5.06
		c-8.18-0.21-15.88,4.98-19.43,12.23c-5.03,10.02-3.58,23.49,4.76,31.33c7.04,7.23,18.53,7.63,27.16,3.15
		c0.17,4.19-0.17,9.04-3.57,11.98c-4.48,3.63-11.24,3.3-15.92,0.22c-1.65-0.81-3.05-2.44-4.97-2.47c-2.9,1.98-5.87,7.75-1.66,10.03
		c8.18,5.54,19.82,6.29,28.2,0.8c4.98-3.22,7.69-8.97,8.43-14.71V56.79C314.12,56.45,312.19,55.94,310.29,56.37z M305.66,90.77
		c-4.42,4.2-12.2,5.73-17.52,2.13c-6.34-3.89-8.68-12.66-5.67-19.34c1.52-3.86,4.82-7.04,8.9-8.01c5.41-1.42,11.27,1.43,14.17,6.05
		C305.98,77.96,305.75,84.39,305.66,90.77z"/>
	<path fill="#424242" d="M186.76,76.05c-0.02-5.09,0.02-10.58-2.71-15.07c-2.51-4.07-7.5-5.55-12.03-5.72
		c-6.36-0.19-12.9,0.49-18.84,2.89c-1.87,0.75-0.86,3.16-0.63,4.62c0.5,1.36,0.55,4,2.53,3.96c5.54-0.91,11.15-3.17,16.83-1.89
		c4.32,1.13,4.82,6.41,4.51,10.12c-7.5-1.93-16.31-2.2-22.86,2.53c-8.55,6.3-6.97,21.72,2.82,25.99c7.24,3.24,15.67,0.78,21.59-4.03
		c0.84,1.46,0.79,4.3,2.99,4.26c1.84-0.05,5.24,0.85,5.68-1.72C186.92,93.35,186.65,84.69,186.76,76.05z M176.18,90.89
		c-3.24,3.85-8.93,6.62-13.89,4.69c-4.8-2.05-5.3-9.59-0.98-12.4c4.48-3.12,10.31-1.9,15.15-0.43
		C176.4,85.45,176.84,88.23,176.18,90.89z"/>
	<path fill="#FFFFFF" d="M4,127.61c0.09,0.1,0.28,0.29,0.37,0.39H4V127.61L4,127.61z"/>
</g>
</svg>
