<?xml version="1.0" encoding="utf-8"?>
<!-- Generator: Adobe Illustrator 17.0.0, SVG Export Plug-In . SVG Version: 6.00 Build 0)  -->
<!DOCTYPE svg PUBLIC "-//W3C//DTD SVG 1.1//EN" "http://www.w3.org/Graphics/SVG/1.1/DTD/svg11.dtd">
<svg version="1.1" id="레이어_1" xmlns="http://www.w3.org/2000/svg" xmlns:xlink="http://www.w3.org/1999/xlink" x="0px"
	 y="0px" width="320px" height="160px" viewBox="0 0 320 160" enable-background="new 0 0 320 160" xml:space="preserve">
<g>
	<path fill="#B3B0AE" d="M246.48,45.078c7.642,0.05,15.287,0.056,22.933,0c0.33,0.888,0.486,1.83,0.43,2.777
		c-1.415,0.103-2.824,0.327-4.242,0.274c1.219-0.415,2.512-0.533,3.793-0.602c0-0.524,0-1.05,0.006-1.574
		c-7.62-0.053-15.244-0.093-22.864,0.019c-0.019,0.514-0.034,1.032-0.05,1.549c1.287,0.081,2.584,0.215,3.806,0.667
		c-1.387,0.034-2.755-0.19-4.127-0.33C245.944,46.914,246.006,45.938,246.48,45.078z"/>
	<path fill="#B3B0AE" d="M286.037,45.069c7.14,0.075,14.284,0.059,21.424,0c0.358,0.901,0.477,1.854,0.265,2.805
		c-2.818,0.041-5.763,0.371-8.259,1.767c-2.07,1.138-2.92,3.453-3.952,5.432c-4.217,8.054-8.365,16.141-12.548,24.211
		c-0.879,1.767-2.247,3.456-2.154,5.535c0.041,7.692-0.009,15.387,0.022,23.079c-0.103,1.156,0.792,2.098,1.848,2.403
		c1.848,0.542,3.787,0.661,5.694,0.904c0.094,0.976,0.58,2.278-0.39,2.976c-0.979,0.128-1.957-0.09-2.927-0.143
		c-4.984-0.122-9.97,0-14.957-0.053c-1.836,0.003-3.671,0.187-5.507,0.028c0.09-0.842-0.39-2.188,0.673-2.543
		c1.11-0.355,2.297-0.305,3.422-0.592c1.262-0.281,2.375-0.963,3.503-1.571c-0.489,0.842-1.222,1.583-2.191,1.82
		c-1.558,0.418-3.17,0.602-4.728,1.013c-0.006,0.496-0.003,0.991,0.006,1.487c7.574,0.031,15.147,0.034,22.721-0.006
		c0.003-0.695,0.009-1.39,0.012-2.082c-2.091-0.109-4.329-0.016-6.221-1.053c-1.499-0.935-1.773-2.842-1.777-4.46
		c0.006-6.76,0.006-13.523,0-20.284c-0.072-2.378,1.399-4.342,2.425-6.361c4.161-7.997,8.256-16.026,12.436-24.014
		c1.103-2.107,1.985-4.544,4.067-5.903c2.5-1.602,5.554-1.87,8.446-1.945c-0.034-0.496-0.065-0.988-0.097-1.484
		c-7.022-0.087-14.047-0.094-21.069,0.003c-0.041,0.496-0.075,0.991-0.106,1.487c2.381,0.118,5.012-0.025,7.05,1.434
		c0.938,0.58,0.873,1.82,0.605,2.749c-0.483,1.586-1.406,2.983-2.163,4.441c-2.789,5.342-5.489,10.728-8.275,16.07
		c-1.462,2.578-2.627,5.32-4.223,7.823c-1.54-1.964-2.531-4.267-3.731-6.433c-3.466-6.395-6.907-12.803-10.397-19.186
		c-0.589-1.106-1.259-2.185-1.664-3.379c-0.243-0.658-0.246-1.48,0.274-2.01c0.492-0.439,1.15-0.614,1.761-0.829
		c-0.642,0.555-1.328,1.075-1.839,1.758c0.037,0.823,0.455,1.558,0.807,2.285c3.079,5.747,6.184,11.479,9.31,17.204
		c1.836,3.254,3.363,6.692,5.442,9.805c4.644-8.294,8.705-16.896,13.205-25.267c0.505-1.016,1.131-2.01,1.328-3.148
		c0.118-0.966-0.773-1.664-1.561-2.017c-1.954-0.792-4.102-0.754-6.162-1.019C285.152,47.02,285.763,45.923,286.037,45.069z"/>
	<path fill="#B3B0AE" d="M111.112,45.299c6.037,0.249,12.08,0.206,18.124,0.187c1.842-0.075,3.681-0.218,5.526-0.146
		c0.072,0.851,0.561,1.995-0.396,2.525c-0.028-0.611-0.047-1.219-0.062-1.826c-7.639-0.065-15.281-0.053-22.92-0.009
		c-0.037,0.489-0.072,0.976-0.103,1.465c2.172,0.243,4.476,0.38,6.411,1.502c1.371,0.813,1.752,2.528,1.705,4.014
		c-0.047,13.305-0.016,26.61-0.019,39.916c-0.056,1.798,0.337,3.759-0.598,5.401c-2.814,5.379-7.477,9.846-13.112,12.165
		c-2.808,1.219-5.956,1.524-8.976,1.181c-4.538-0.545-8.717-3.369-10.946-7.352c-1.1-1.992-2.004-4.164-2.094-6.467
		c0.848,1.948,1.178,4.102,2.3,5.934c1.976,3.765,5.704,6.533,9.899,7.278c3.4,0.411,6.938,0.19,10.117-1.181
		c4.585-1.892,8.375-5.386,11.102-9.481c0.676-1.035,1.452-2.126,1.443-3.416c-0.022-15.172,0.009-30.351-0.016-45.526
		c0.109-1.334-1.047-2.303-2.216-2.649c-1.73-0.536-3.544-0.692-5.32-0.988C110.978,46.979,111.034,46.138,111.112,45.299z"/>
	<path fill="#B3B0AE" d="M141.104,45.321c4.045-0.24,8.075,0.617,12.118,0.171c3.21-0.396,6.445-0.022,9.662-0.29
		c1.873-0.131,3.756-0.044,5.626,0.115c0.411-0.019,0.732,0.237,1.078,0.415c-1.814,0.153-3.631,0.006-5.448,0.019
		c-7.555,0.352-15.122,0.084-22.68,0.206c0.006,0.458,0.016,0.916,0.028,1.374c2.331,0.492,4.984,1.138,6.383,3.254
		c1.353,2.45,1.163,5.355,1.153,8.057c-0.006,16.107-0.006,32.211,0.003,48.315c-0.016,1.396-0.346,3.039-1.686,3.765
		c-1.789,0.944-3.868,1.035-5.822,1.409c-0.034,0.468-0.069,0.938-0.103,1.409c2.478,0.231,4.965,0.106,7.449,0.128
		c8.309,0.006,16.618-0.009,24.927,0.009c2.013-0.009,3.989-0.471,6-0.567c-1.764,0.873-3.765,0.826-5.676,0.979
		c-1.973,0.171-3.952,0.078-5.928,0.09c-8.209,0.012-16.419-0.022-24.628,0.025c-0.817-0.016-1.63-0.093-2.437-0.178
		c-0.041-0.723-0.321-1.546,0.143-2.188c1.96-0.835,4.354-0.312,6.118-1.677c0.742-0.502,1.066-1.387,1.016-2.26
		c0.009-17.666-0.019-35.331,0.012-52.993c0.065-1.795-0.299-3.781-1.689-5.037c-1.524-1.309-3.612-1.418-5.423-2.094
		C140.742,47.091,141.116,46.122,141.104,45.321z"/>
	<path fill="#B3B0AE" d="M201.474,45.508c2.3-0.489,4.607,0.162,6.919,0.112c3.634-0.031,7.271-0.003,10.908-0.006
		c1.92,0.003,3.843-0.558,5.763-0.209c0.452,0.707,0.299,1.583,0.34,2.381c-1.658,0.343-3.332,0.614-4.971,1.032
		c-0.957,0.29-2.088,0.739-2.391,1.792c-0.312,1.303-0.15,2.655-0.175,3.98c0.012,16.936-0.009,33.872,0.009,50.812
		c-0.009,1.82-0.362,3.647,0.009,5.457c5.351,0.131,10.709-0.003,16.067,0.059c2.97,0.084,6.162-0.648,8.331-2.802
		c1.586-1.456,2.412-3.481,3.35-5.367c0.767-1.611,1.658-3.16,2.475-4.747c0.913-0.031,1.829-0.044,2.749-0.05
		c0.137,1.097-0.24,2.138-0.82,3.057c0.14-0.904,0.271-1.805,0.402-2.708c-0.679,0.019-1.356,0.016-2.029,0.034
		c-1.072,1.976-2.094,3.974-3.057,6.003c-0.708,1.49-1.59,2.914-2.783,4.064c-1.303,1.334-3.048,2.113-4.797,2.671
		c-1.636,0.533-3.379,0.386-5.071,0.39c-4.476-0.019-8.951-0.012-13.427,0.012c-0.561-0.05-1.219,0.034-1.664-0.371
		c-0.539-0.499-0.598-1.275-0.623-1.96c0.025-19.018,0.006-38.039,0.009-57.054c-0.009-1.449,0.773-2.942,2.166-3.488
		c1.892-0.736,3.955-0.835,5.95-1.122c-0.05-0.539-0.1-1.078-0.146-1.618c-7.676,0.143-15.359,0.05-23.039,0.084
		c-0.009,0.483-0.016,0.969-0.016,1.456c2.007,0.396,4.142,0.486,5.959,1.515c-2.101-0.318-4.17-0.817-6.277-1.081
		C201.537,47.06,201.499,46.284,201.474,45.508z"/>
	<path fill="#605C58" d="M67.425,45.67c7.87,0.128,15.743,0.053,23.612,0.031c0.012,0.623,0.028,1.25,0.047,1.876
		c-1.985,0.362-4.045,0.508-5.931,1.272c-1.315,0.464-1.979,1.907-1.923,3.232c0.003,13.72-0.003,27.44,0.003,41.156
		c-0.053,1.555,0.349,3.07,0.418,4.616c0.09,2.303,0.994,4.476,2.094,6.467c2.228,3.983,6.408,6.807,10.946,7.352
		c3.02,0.343,6.168,0.037,8.976-1.181c5.635-2.319,10.298-6.785,13.112-12.165c0.935-1.643,0.542-3.603,0.598-5.401
		c0.003-13.305-0.028-26.61,0.019-39.916c0.047-1.487-0.333-3.201-1.705-4.014c-1.935-1.122-4.239-1.259-6.411-1.502
		c0.031-0.489,0.065-0.976,0.103-1.465c7.639-0.044,15.281-0.056,22.92,0.009c0.016,0.608,0.034,1.216,0.062,1.826
		c-1.599-0.15-3.157,0.284-4.694,0.661c-0.913,0.277-1.898,0.692-2.372,1.577c-0.583,0.982-0.411,2.157-0.439,3.244
		c0.012,17.974,0.003,35.948,0.003,53.925c-0.037,1.078,0.256,2.35,1.272,2.917c1.904,1.141,4.186,1.343,6.361,1.34
		c0.078,0.739,0.271,1.474,0.246,2.225c-0.583,0.103-1.169,0.171-1.758,0.175c-4.787-0.078-9.575-0.037-14.362-0.025
		c-0.502-0.031-0.997-0.134-1.484-0.24c-0.093-1.265,0.312-2.437,1.032-3.46c0.087,0.106,0.171,0.215,0.262,0.327
		c0.564-2.509,0.443-5.093,0.337-7.642c-1.016,0.655-1.621,2.004-2.481,2.97c-3.388,3.971-7.951,7.268-13.174,8.172
		c0.156,0.065,0.312,0.131,0.471,0.196c-2.169,0.106-4.276,0.795-6.458,0.689c-4.354,0.146-8.833-0.826-12.523-3.201
		c-3.241-1.92-5.844-4.881-7.362-8.325c-0.047,0.09-0.09,0.184-0.131,0.277c-0.817-2.412-1.727-4.822-1.988-7.377
		c-0.312-2.041-0.187-4.111-0.206-6.171c-0.006-12.785,0.009-25.569-0.006-38.354c0.146-1.496-1.025-2.883-2.447-3.216
		c-1.72-0.396-3.469-0.642-5.196-1.004C67.39,46.926,67.309,46.29,67.425,45.67z"/>
	<path fill="#605C58" d="M201.929,45.947c7.68-0.034,15.362,0.059,23.039-0.084c0.047,0.539,0.097,1.078,0.146,1.618
		c-1.995,0.287-4.058,0.386-5.95,1.122c-1.393,0.545-2.175,2.038-2.166,3.488c-0.003,19.015,0.016,38.036-0.009,57.054
		c0.025,0.686,0.084,1.462,0.623,1.96c0.446,0.405,1.103,0.321,1.664,0.371c4.476-0.025,8.951-0.031,13.427-0.012
		c1.692-0.003,3.435,0.143,5.071-0.39c1.748-0.558,3.494-1.337,4.797-2.671c1.194-1.15,2.076-2.574,2.783-4.064
		c0.963-2.029,1.985-4.027,3.057-6.003c0.673-0.019,1.35-0.016,2.029-0.034c-0.131,0.904-0.262,1.805-0.402,2.708
		c-1.029,4.217-1.798,8.502-2.288,12.813c-4.488,0.284-8.992,0.003-13.489,0.065c-9.453,0.003-18.909-0.022-28.365,0.05
		c-1.303-0.006-2.615,0.059-3.905-0.146c0.012-0.966,0.047-1.939,0.256-2.886c1.942-0.044,3.943-0.184,5.744-0.972
		c1.128-0.483,1.546-1.836,1.521-2.97c0-18.289,0-36.581,0.003-54.873c0.081-1.265-0.483-2.578-1.643-3.173
		c-1.817-1.029-3.952-1.119-5.959-1.515C201.914,46.917,201.92,46.431,201.929,45.947z"/>
	<path fill="#605C58" d="M246.536,45.972c7.62-0.112,15.244-0.072,22.864-0.019c-0.006,0.524-0.006,1.05-0.006,1.574
		c-1.281,0.069-2.574,0.187-3.793,0.602l-0.243,0.075c-0.611,0.215-1.268,0.39-1.761,0.829c-0.52,0.53-0.517,1.353-0.274,2.01
		c0.405,1.194,1.075,2.272,1.664,3.379c3.491,6.383,6.932,12.791,10.397,19.186c1.2,2.166,2.191,4.469,3.731,6.433
		c1.596-2.503,2.761-5.245,4.223-7.823c2.786-5.342,5.485-10.728,8.275-16.07c0.757-1.459,1.68-2.855,2.163-4.441
		c0.268-0.929,0.333-2.169-0.605-2.749c-2.038-1.459-4.669-1.315-7.05-1.434c0.031-0.496,0.065-0.991,0.106-1.487
		c7.022-0.097,14.047-0.09,21.069-0.003c0.031,0.496,0.062,0.988,0.097,1.484c-2.892,0.075-5.947,0.343-8.446,1.945
		c-2.082,1.359-2.964,3.796-4.067,5.903c-4.18,7.988-8.275,16.017-12.436,24.014c-1.025,2.02-2.496,3.983-2.425,6.361
		c0.006,6.76,0.006,13.523,0,20.284c0.003,1.618,0.277,3.525,1.777,4.46c1.892,1.038,4.13,0.944,6.221,1.053
		c-0.003,0.692-0.009,1.387-0.012,2.082c-7.574,0.041-15.147,0.037-22.721,0.006c-0.009-0.496-0.012-0.991-0.006-1.487
		c1.558-0.411,3.17-0.595,4.728-1.013c0.969-0.237,1.702-0.979,2.191-1.82c0.377-0.602,0.271-1.353,0.318-2.026
		c0.009-7.493-0.006-14.988,0.009-22.481c-0.009-0.598-0.006-1.231-0.333-1.758c-3.475-6.296-6.913-12.607-10.404-18.89
		c-1.596-3.154-3.637-6.071-4.99-9.344c-0.065,0.062-0.125,0.128-0.181,0.19c-0.689-1.381-1.312-2.808-2.175-4.092
		c-0.963-1.415-2.562-2.216-4.148-2.718c-1.222-0.452-2.518-0.586-3.806-0.667C246.502,47.004,246.517,46.487,246.536,45.972z"/>
	<path fill="#605C58" d="M62.65,59.879c-0.218-1.68-0.801-3.304-1.549-4.818c-2.25-4.382-6.857-7.156-11.569-8.166
		c0.14-0.065,0.277-0.131,0.418-0.196c-1.427-0.159-2.842-0.464-4.285-0.355c0.614-0.1,1.231-0.181,1.836-0.33
		c-2.602,0.196-5.124-0.698-7.72-0.583c-2.702-0.093-5.401,0.059-8.103,0.016c-2.091,0.05-4.201-0.159-6.271,0.231
		c-4.391,0.178-8.792-0.041-13.187-0.006c-0.009,0.595-0.031,1.187-0.025,1.783c1.334,0.471,2.724,0.773,4.095,1.119
		c-0.103,0.047-0.209,0.097-0.315,0.146c0.957,0.433,2.032,0.838,2.618,1.767c0.845,1.306,1.05,2.899,1.078,4.419
		c-0.009,17.454-0.003,34.907-0.003,52.361c-0.031,1.085-0.14,2.391-1.159,3.026c-1.851,1.35-4.279,0.926-6.339,1.711
		c0.016,0.57,0.012,1.144,0.016,1.717c1.49,0.349,3.02,0.143,4.532,0.168c5.922,0.009,11.843-0.031,17.765,0.037
		c1.069-0.081,0.602-1.427,0.502-2.11c-2.21-0.492-4.806-0.228-6.573-1.889c-0.873-0.745-0.664-1.957-0.708-2.976
		c0.028-7.44-0.034-14.882,0.031-22.322c1.842-0.181,3.662-0.527,5.501-0.714c3.777-0.327,7.44-1.346,11.13-2.147
		c-0.146-0.044-0.296-0.084-0.443-0.125c1.415-0.259,2.771-0.739,4.155-1.122c-0.128-0.041-0.259-0.078-0.386-0.115
		c2.094-0.555,4.017-1.596,5.894-2.652c3.375-2.041,6.67-4.822,7.979-8.664c0.041,0.118,0.081,0.237,0.125,0.355
		c0.39-1.406,0.963-2.783,0.997-4.257C62.734,63.417,62.759,61.643,62.65,59.879z M52.34,71.212
		c-1.683,3.026-4.401,5.56-7.704,6.704c0.115,0.062,0.228,0.128,0.34,0.193c-0.558,0.115-1.113,0.246-1.671,0.362
		c0.131,0.059,0.262,0.118,0.396,0.181c-3.827,1.203-7.708,2.313-11.713,2.715c-1.424,0.137-2.833,0.365-4.245,0.567
		c-0.069-11.148-0.053-22.3-0.009-33.449c3.809-0.081,7.62-0.047,11.429-0.037c2.5-0.062,4.943,0.701,7.209,1.699
		c3.435,1.686,6.399,4.856,7.05,8.714c0.059-0.153,0.122-0.302,0.181-0.455C54.313,62.669,54.25,67.25,52.34,71.212z"/>
	<path fill="#605C58" d="M197.373,90.426c-0.343-2.179-1.431-4.139-2.646-5.944c-1.53-2.194-3.721-3.805-5.909-5.286
		c-3.375-1.992-7.231-3.001-11.064-3.656c1.583-0.894,3.232-1.667,4.859-2.478c-0.053-0.053-0.103-0.103-0.153-0.153
		c2.752-1.3,5.149-3.497,6.542-6.212c0.976-1.805,0.91-3.89,0.879-5.872c0.237-5.224-3.354-10.179-8.119-12.102
		c0.103-0.059,0.206-0.118,0.315-0.178c-0.549-0.115-1.091-0.249-1.633-0.365c0.128-0.075,0.256-0.15,0.386-0.221
		c-3.668-1.05-7.387-2.272-11.242-2.228c-1.814,0.153-3.631,0.006-5.448,0.019c-7.555,0.352-15.122,0.084-22.68,0.206
		c0.006,0.458,0.016,0.916,0.028,1.374c2.331,0.492,4.984,1.138,6.383,3.254c1.353,2.45,1.163,5.355,1.153,8.057
		c-0.006,16.107-0.006,32.211,0.003,48.315c-0.016,1.396-0.346,3.039-1.686,3.765c-1.789,0.944-3.868,1.035-5.822,1.409
		c-0.034,0.468-0.069,0.938-0.103,1.409c2.478,0.231,4.965,0.106,7.449,0.128c8.309,0.006,16.618-0.009,24.927,0.009
		c2.013-0.009,3.989-0.471,6-0.567c1.496-0.078,2.867-0.736,4.292-1.134c4.158-1.396,8.16-3.787,10.665-7.471
		c0.988-1.256,1.708-2.718,2.048-4.282c0.056,0.131,0.115,0.262,0.178,0.396c0.206-1.739,0.795-3.425,0.757-5.192
		C197.741,93.755,197.806,92.056,197.373,90.426z M156.768,48.481c3.693-0.059,7.39-0.084,11.083,0.006
		c3.787,0.343,7.611,1.783,10.276,4.575c1.876,2.122,3.023,4.921,3.029,7.767c0.084,2.708-0.097,5.56-1.533,7.935
		c-1.739,3.294-5.339,4.934-8.696,6.096c-3.46,1.178-7.069,1.817-10.665,2.409c-1.153,0.284-2.344,0.293-3.525,0.324
		C156.756,67.889,156.7,58.184,156.768,48.481z M186.935,103.85c-1.985,3.749-6.059,5.725-10.017,6.685
		c-1.658,0.249-3.304,0.673-4.987,0.658c-4.058,0.062-8.116,0.065-12.174-0.006c-1.019-0.025-2.182-0.309-2.827-1.159
		c-0.284-0.994-0.162-2.054-0.196-3.076c0.053-8.945-0.084-17.896,0.072-26.838c1.745-0.031,3.438-0.489,5.167-0.707
		c3.008-0.53,6.04-0.932,9.042-1.533c3.737-0.527,7.583,0.676,10.634,2.83c3.952,2.715,6.501,7.196,7.237,11.893
		C189.195,96.416,189.011,100.499,186.935,103.85z"/>
</g>
</svg>
