<?xml version="1.0" encoding="utf-8"?>
<!-- Generator: Adobe Illustrator 17.0.0, SVG Export Plug-In . SVG Version: 6.00 Build 0)  -->
<!DOCTYPE svg PUBLIC "-//W3C//DTD SVG 1.1//EN" "http://www.w3.org/Graphics/SVG/1.1/DTD/svg11.dtd">
<svg version="1.1" id="레이어_1" xmlns="http://www.w3.org/2000/svg" xmlns:xlink="http://www.w3.org/1999/xlink" x="0px"
	 y="0px" width="320px" height="160px" viewBox="0 0 320 160" enable-background="new 0 0 320 160" xml:space="preserve">
<g>
	<path fill="#F3C406" d="M3.01,56.352c3.273-3.898,8.737-3.392,13.31-3.392c97.173,0.035,194.353,0.007,291.526,0.014
		c2.831,0.084,6.005,0.309,8.19,2.339c1.117,0.99,0.829,2.627,0.955,3.954c-0.063,13.823-0.07,27.645,0,41.468
		c-0.091,1.489,0.162,3.371-1.257,4.348c-3.666,2.753-8.541,1.77-12.804,1.946c-97.18-0.028-194.36-0.021-291.533-0.007
		c-3.14,0.105-6.504-0.773-8.386-3.47V56.352L3.01,56.352z"/>
	<path fill="#FFFFFF" d="M8.172,54.681c1.292-0.281,2.62-0.351,3.933-0.393c98.564-0.007,197.134-0.007,295.698-0.007
		c2.641,0.084,5.703,0.225,7.649,2.29c0.316,1.342,0.253,2.739,0.274,4.109c-0.084,13.83,0.042,27.666-0.056,41.496
		c0.239,1.833-1.735,2.648-3.161,3.104c-3.126,0.787-6.378,0.457-9.566,0.52c-96.934-0.007-193.875-0.014-290.81,0
		c-2.62-0.084-5.745-0.183-7.55-2.367c-0.407-2.304-0.218-4.657-0.246-6.982C4.344,84.279,4.358,72.114,4.33,59.941
		c0.021-1.124,0.028-2.262,0.288-3.364C5.552,55.573,6.859,55.004,8.172,54.681L8.172,54.681z"/>
	<path fill="#F3C406" d="M23.069,66.263c1.622-2.788,5.289-2.255,8.007-2.093c6.061,0.808,12.636-1.826,18.297,1.342
		c2.859,1.384,4.432,4.657,3.877,7.768c-0.19,2.866-2.69,4.594-4.685,6.272c1.728,1.061,3.828,1.791,4.959,3.589
		c1.152,2.051,1.215,4.481,1.953,6.68c0.857,0.997,2.1,1.552,3.013,2.493c0.162,2.311-2.269,3.498-4.221,3.716
		c-3.027,0.358-6.637,0.527-9.011-1.742c-2.648-2.922-2.493-7.178-4.214-10.557c-0.716-1.278-2.346-1.742-3.68-1.201
		c-0.506,3.182-0.815,7.073,1.974,9.32c1.18,0.836,0.716,2.746-0.639,3.076c-3.737,1.313-7.867,1.124-11.73,0.527
		c-1.608-0.281-3.891-1.054-3.716-3.076c1.18-1.58,3.168-2.788,3.14-4.987c0.365-5.352,0.337-10.746,0.084-16.098
		C26.427,68.995,23.568,68.356,23.069,66.263L23.069,66.263z"/>
	<path fill="#F3C406" d="M109.545,68.384c1.96-2.781,5.724-3.083,8.78-3.772c1.566-0.035,3.709-0.934,4.924,0.337
		c0.604,3.694-0.253,7.459-0.267,11.182c-0.028,4.453-0.225,8.934,0.126,13.38c-0.021,1.693,1.974,2.234,2.859,3.385
		c-0.66,0.927-1.145,2.241-2.423,2.444c-3.575,0.801-7.333,0.723-10.915,0.007c-1.349-0.204-2.037-1.496-2.809-2.458
		c1.117-1.229,3.02-2.107,2.971-4.032c0.471-4.776,0.442-9.622,0.126-14.406C112.994,71.783,109.278,70.997,109.545,68.384
		L109.545,68.384z"/>
	<path fill="#F3C406" d="M198.198,66.986c-0.14-1.636,1.475-2.55,2.873-2.774c3.252-0.541,6.532,0.372,9.798,0.063
		c4.629-0.295,9.735-1.152,13.886,1.482c2.95,1.601,4.193,5.338,3.259,8.485c-0.555,2.402-2.76,3.8-4.502,5.31
		c1.735,1.047,3.821,1.784,4.959,3.568c1.236,2.044,1.222,4.53,1.995,6.736c0.976,1.089,2.557,1.63,3.168,3.027
		c-0.695,2.205-3.034,3.126-5.155,3.245c-2.817,0.225-6.139,0.288-8.274-1.882c-2.662-2.929-2.458-7.213-4.228-10.585
		c-0.611-1.138-2.002-1.313-3.14-1.517c-1.215,1.7-0.723,3.968-0.681,5.914c-0.056,2.142,2.051,3.259,3.006,4.938
		c-0.253,1.229-1.215,2.065-2.423,2.29c-3.877,0.836-7.965,0.85-11.828-0.07c-1.419-0.274-2.234-1.531-3.055-2.592
		c0.962-1.138,2.255-2.016,3.034-3.294c0.766-1.953,0.562-4.116,0.646-6.174c-0.049-3.912,0.183-7.838-0.098-11.751
		C201.45,69.339,199.287,68.454,198.198,66.986L198.198,66.986z"/>
	<path fill="#F3C406" d="M289.879,65.329c2.613-0.604,5.317-1.25,8.007-0.878c0.864,1.384,0.513,3.055,0.464,4.587
		c-0.506,6.574-0.534,13.183-0.358,19.772c-0.204,1.812,1.538,2.732,2.55,3.926c0.393,1.32-0.892,2.388-2.065,2.62
		c-3.589,0.787-7.361,0.709-10.95-0.028c-1.356-0.19-1.988-1.51-2.704-2.493c1.11-1.236,3.083-2.114,2.95-4.06
		c0.386-4.685,0.4-9.412,0.105-14.104c0.056-2.479-2.564-3.582-3.596-5.549C285.033,66.684,287.709,65.954,289.879,65.329
		L289.879,65.329z"/>
	<path fill="#FFFFFF" d="M36.976,77.69c0.155-2.95-0.653-6.3,0.962-8.948c3.954-0.548,4.678,4.453,3.428,7.157
		C40.593,77.578,38.5,77.381,36.976,77.69L36.976,77.69z"/>
	<path fill="#FFFFFF" d="M212.555,69.29c0.435-1.145,2.248-0.351,3.013,0.126c1.552,1.496,1.433,4.039,0.955,5.984
		c-0.485,1.967-2.774,2.311-4.481,2.142C211.845,74.818,211.677,71.896,212.555,69.29L212.555,69.29z"/>
	<path fill="#F3C406" d="M61.896,76.707c4.783-5.507,14.968-5.535,18.957,0.913c1.335,2.072,2.212,5.731-0.148,7.354
		c-4.151,0.478-8.351,0-12.516,0.239c0.695,1.566,1.377,3.364,3.09,4.067c2.964,1.651,6.047-0.548,8.759-1.665
		c0.443,0.85,0.913,1.693,1.229,2.599c-0.478,2.205-2.514,3.512-4.397,4.453c-4.811,2.269-11.259,1.777-14.953-2.318
		C57.893,88.177,57.823,80.879,61.896,76.707L61.896,76.707z"/>
	<path fill="#F3C406" d="M92.534,73.09c4.32-0.892,9.917-0.625,12.544,3.484c1.77,3.807,0.133,8.183,1.187,12.158
		c0.801,0.702,1.693,1.285,2.543,1.932c-0.99,2.901-3.589,5.226-6.729,5.345c-1.974,0.211-3.47-1.236-4.98-2.255
		c-2.332,1.377-4.952,2.697-7.754,2.17c-2.824-0.218-5.401-2.339-5.921-5.162c-0.59-2.543,1.04-5.029,3.14-6.321
		c2.88-1.896,6.462-1.735,9.735-2.241c-0.267-1.988,0.246-5.914-2.739-5.689c-2.212,1.454-3.364,4.699-6.3,4.832
		c-1.96,0.225-3.175-2.142-2.191-3.744C86.585,74.937,89.738,73.855,92.534,73.09L92.534,73.09z"/>
	<path fill="#F3C406" d="M133.257,73.041c3.147-0.716,6.378,0.302,9.559-0.14c1.538-0.421,2.402,1.18,3.14,2.234
		c0.871,1.587,1.939,3.884,0.225,5.303c-3.161,1.18-4.734-2.894-7.579-3.399c-1.117,0.639-1.384,1.496-0.808,2.571
		c2.908,2.212,7.038,3.133,8.843,6.602c1.693,3.217-0.267,7.192-3.357,8.681c-3.645,2.016-7.845,0.548-11.744,0.59
		c-2.114,0.323-3.217-1.798-3.884-3.442c-0.576-1.552-1.25-3.744,0.365-4.917c2.831,0.063,3.884,3.519,6.413,4.362
		c1.257,0.112,2.908-0.358,2.072-1.939c-2.564-2.198-6.314-3.154-7.881-6.406C126.585,79.271,129.106,74.129,133.257,73.041
		L133.257,73.041z"/>
	<path fill="#F3C406" d="M151.659,77.199c4.404-5.612,14.146-6.258,18.718-0.534c1.784,2.205,2.964,5.865,0.843,8.218
		c-4.228,0.66-8.555,0.056-12.825,0.33c0.695,1.714,1.552,3.603,3.449,4.249c2.894,1.299,5.752-0.773,8.344-1.84
		c0.632,1.257,1.882,2.676,0.709,4.025c-4.79,5.928-15.565,5.935-19.849-0.625C148.183,86.941,148.379,80.991,151.659,77.199
		L151.659,77.199z"/>
	<path fill="#F3C406" d="M176.207,77.332c4.256-5.563,13.668-6.413,18.465-1.117c1.84,2.093,3.217,5.324,1.763,7.979
		c-0.4,0.955-1.503,0.892-2.36,0.955c-3.687,0.098-7.396-0.183-11.069,0.274c0.787,1.587,1.686,3.329,3.449,4.011
		c2.873,1.334,5.752-0.688,8.33-1.805c0.99,1.257,1.882,3.112,0.478,4.446c-4.72,5.064-13.963,5.422-18.648,0.112
		C172.976,88.17,172.709,81.518,176.207,77.332L176.207,77.332z"/>
	<path fill="#F3C406" d="M236.492,77.142c3.842-4.797,11.491-5.949,16.534-2.451c2.472,1.756,4.362,4.692,4.067,7.817
		c-0.148,1.054-0.66,2.557-1.946,2.564c-4.032,0.281-8.084-0.183-12.095,0.421c0.934,1.573,1.833,3.428,3.723,4.025
		c2.88,1.18,5.654-0.871,8.225-1.91c0.653,1.342,1.854,2.978,0.485,4.313c-4.811,5.443-14.792,5.612-19.266-0.358
		C232.945,87.467,232.98,81.083,236.492,77.142L236.492,77.142z"/>
	<path fill="#F3C406" d="M261.349,75.962c3.716-2.957,8.822-3.814,13.422-2.95c2.571,0.653,5.282,2.353,5.851,5.134
		c0.639,3.498-0.253,7.122,0.681,10.585c0.744,0.752,1.651,1.299,2.486,1.953c-1.047,2.901-3.652,5.268-6.834,5.324
		c-1.946,0.169-3.421-1.257-4.91-2.255c-2.515,1.559-5.471,2.852-8.478,2.044c-2.978-0.471-5.415-3.273-5.247-6.321
		c0.028-2.444,1.91-4.418,3.968-5.486c2.76-1.405,5.935-1.349,8.927-1.777c-0.225-1.882,0.147-4.109-1.32-5.584
		c-2.086-0.674-3.062,1.798-4.383,2.922c-1.124,1.454-3.512,2.585-5.057,1.159C258.827,79.369,259.979,77.023,261.349,75.962
		L261.349,75.962z"/>
	<path fill="#FFFFFF" d="M68.183,80.711c0.365-1.594,0.716-4.13,2.957-3.849c2.121-0.204,2.318,2.276,2.725,3.751
		C71.982,80.816,70.079,80.816,68.183,80.711L68.183,80.711z"/>
	<path fill="#FFFFFF" d="M158.269,80.619c0.534-1.622,1.047-4.284,3.406-3.737c2.037,0.042,1.974,2.381,2.177,3.842
		C161.984,80.83,160.123,80.795,158.269,80.619L158.269,80.619z"/>
	<path fill="#FFFFFF" d="M182.936,80.64c0.583-1.391,0.695-3.786,2.725-3.772c2.17-0.421,3.308,2.086,2.486,3.835
		C186.42,80.963,184.664,80.774,182.936,80.64L182.936,80.64z"/>
	<path fill="#FFFFFF" d="M243.157,80.689c0.358-1.552,0.702-4.025,2.859-3.828c2.044-0.239,2.732,2.044,2.55,3.68
		C246.788,80.949,244.948,80.823,243.157,80.689L243.157,80.689z"/>
	<path fill="#FFFFFF" d="M93.18,86.898c0.744-1.398,3.378-1.552,3.111,0.457c0.457,1.819-0.709,3.231-1.995,4.327
		C93.271,90.375,91.74,88.514,93.18,86.898L93.18,86.898z"/>
	<path fill="#FFFFFF" d="M268.414,86.526c0.85-0.428,1.805-0.569,2.718-0.815c-0.098,1.967,0.78,5.092-1.96,5.528
		C267.375,90.403,266.961,87.875,268.414,86.526L268.414,86.526z"/>
</g>
</svg>
