<?xml version="1.0" encoding="utf-8"?>
<!-- Generator: Adobe Illustrator 17.0.0, SVG Export Plug-In . SVG Version: 6.00 Build 0)  -->
<!DOCTYPE svg PUBLIC "-//W3C//DTD SVG 1.1//EN" "http://www.w3.org/Graphics/SVG/1.1/DTD/svg11.dtd">
<svg version="1.1" id="레이어_1" xmlns="http://www.w3.org/2000/svg" xmlns:xlink="http://www.w3.org/1999/xlink" x="0px"
	 y="0px" width="320px" height="160px" viewBox="0 0 320 160" enable-background="new 0 0 320 160" xml:space="preserve">
<g>
	<path fill="#44B6AE" d="M34.141,43.243c1.061-3.253,5.248-3.395,7.864-2.108c3.183,1.655,3.296,5.644,4.3,8.657
		c5.078-1.612,10.651-4.286,15.998-2.079c6.153,2.164,9.053,8.444,12.009,13.749c-7.454,1.726-15.036,3.494-21.839,7.115
		c-2.037,0.806-2.645,3.069-3.706,4.753c12.15-3.805,24.456-10.778,37.597-7.935c8.133,1.273,13.452,8.19,17.681,14.626
		c-22.433-0.424-45.065,6.04-63.184,19.407c-6.832,4.979-12.645,11.132-18.515,17.157c-2.673-7.921-4.286-17.596,0.806-24.895
		c2.334-3.975,4.159-8.586,3.296-13.282c-0.651-4.639-3.649-9.208-1.924-13.961c1.924-6.026,8.19-8.756,13.381-11.415
		C35.64,50.343,32.344,47.09,34.141,43.243L34.141,43.243z"/>
	<path fill="#44B6AE" d="M156.69,39.721c4.06-1.033,8.275-0.905,12.405-0.594c-0.113,3.112-0.184,6.238-0.255,9.35
		c-4.003-0.014-7.992-0.014-11.981,0C156.803,45.562,156.761,42.634,156.69,39.721L156.69,39.721z"/>
	<path fill="#44B6AE" d="M249.592,40.527c4.017-1.4,8.26-2.093,12.49-1.245c-0.382,12.179-0.693,24.357-0.113,36.522
		c1.796,0.071,3.607,0.141,5.417,0.226c-1.174,2.914-2.334,5.842-3.494,8.77l-0.849,0.75c-3.734-0.467-8.416,0.622-11.203-2.574
		c-2.277-2.306-2.15-5.743-2.235-8.727C249.621,63.003,249.748,51.772,249.592,40.527L249.592,40.527z"/>
	<path fill="#44B6AE" d="M113.506,41.149c9.845-0.014,19.704-0.269,29.548,0.014c3.338-0.099,7.214,1.471,7.893,5.092
		c0.75,5.403,0.736,10.948,0.057,16.365c-0.538,3.013-4.116,3.706-6.266,5.276c3.168,5.785,6.21,11.627,9.293,17.44
		c-4.555,0-9.123,0-13.692,0.014c-4.06-7.907-8.105-15.828-12.023-23.82c3.239-0.014,6.478-0.042,9.717-0.057
		c-0.042-3.197-0.099-6.393-0.156-9.59c-3.663,0.028-7.313,0.042-10.976,0.042c-0.113,11.118-0.071,22.25-0.014,33.367
		c-4.441,0.042-8.883,0.042-13.324,0.057C113.535,70.613,113.62,55.874,113.506,41.149L113.506,41.149z"/>
	<path fill="#44B6AE" d="M156.959,52.635c3.975-0.679,8.006-0.424,12.009-0.368c-0.071,11.033,0.042,22.08-0.099,33.113
		c-4.017-0.028-8.034-0.042-12.051-0.042C156.902,74.446,156.464,63.526,156.959,52.635L156.959,52.635z"/>
	<path fill="#44B6AE" d="M174.314,52.196c8.855,0.24,17.723-0.368,26.564,0.283c3.777,0.297,6.408,4.088,6.408,7.695
		c0.382,8.402,0.028,16.818,0.042,25.234c-4.031-0.042-8.062-0.071-12.08-0.085c-0.028-7.836-0.028-15.672-0.028-23.508
		c-2.914-0.014-5.828-0.028-8.741-0.057c-0.099,7.85-0.085,15.701-0.042,23.551c-4.045,0.014-8.091,0.042-12.15,0.057
		C174.272,74.304,174.23,63.243,174.314,52.196L174.314,52.196z"/>
	<path fill="#44B6AE" d="M244.57,52.196c-8.345,0.198-16.691-0.269-25.036,0.184c-3.309,0.113-6.747,2.56-6.987,6.04
		c-0.594,6.676-0.594,13.423-0.016,20.085c0.368,4.667,5.531,6.732,9.647,6.294c4.003,0.552,10.071-1.839,11.203,3.72
		c-6.082,0.198-12.15,0.141-18.232,0.141c-1.117,2.956-2.249,5.913-3.352,8.883c9.137-0.113,18.289,0.354,27.412-0.127
		c3.253,0.057,5.544-2.998,5.304-6.082C244.782,78.293,244.528,65.237,244.57,52.196z M224.444,76.44
		c-0.015-5.247-0.029-10.509-0.114-15.757c2.702-0.127,5.389-0.226,8.091-0.354c0.071,5.347,0.085,10.693,0.085,16.04
		C229.819,76.397,227.131,76.426,224.444,76.44z"/>
	<path fill="#44B6AE" d="M281.8,75.86c0.057-0.948,0.141-2.843,0.198-3.805c5.729-0.382,13.834,1.98,17.172-4.229
		c1.626-5.078,1.796-13.211-4.456-15.121c-6.138-0.919-12.433-0.664-18.614-0.226c-3.749,0.325-6.578,3.918-6.408,7.624
		c-0.241,6.125-0.325,12.264,0.099,18.388c0.071,3.352,2.857,6.422,6.238,6.662c7.001,0.538,14.045,0.071,21.061,0.156
		c1.132-3.112,2.235-6.224,3.282-9.364C294.191,75.902,287.995,75.917,281.8,75.86z M288.603,61.206
		c-0.028,1.061-0.113,3.183-0.141,4.243c-2.178-0.014-4.357-0.028-6.521-0.028c-0.056-1.046-0.141-3.125-0.184-4.158
		C284.034,61.235,286.312,61.221,288.603,61.206z"/>
	<path fill="#44B6AE" d="M54.311,100.302c6.832-3.607,15.983,3.154,13.734,10.792c-1.216,7.185-11.231,9.901-16.196,4.767
		C46.97,111.646,48.441,102.848,54.311,100.302L54.311,100.302z"/>
	<path fill="#44B6AE" d="M150.764,101.589c3.536,0.113,7.129,0.156,10.495,1.372c-2.843,0.438-5.7,0.707-8.558,0.948
		c0.057,0.934,0.17,2.801,0.226,3.734c2.093,0.41,4.187,0.82,6.266,1.301c-2.108,0.382-4.229,0.75-6.351,1.103
		c-0.028,1.598-0.057,3.211-0.085,4.823c2.801,0.368,5.615,0.764,8.402,1.315c-3.423,0.849-6.959,0.948-10.453,1.004
		C150.749,111.986,150.749,106.795,150.764,101.589L150.764,101.589z"/>
	<path fill="#44B6AE" d="M187.865,118.45c-4.555-5.007-3.112-12.575-1.358-18.487C187.214,106.102,187.243,112.297,187.865,118.45
		L187.865,118.45z"/>
	<path fill="#44B6AE" d="M192.561,101.83c2.023-0.509,2.645,0.198,1.895,2.136C192.434,104.489,191.797,103.782,192.561,101.83
		L192.561,101.83z"/>
	<path fill="#44B6AE" d="M206.225,117.092c-0.071-5.7-0.354-11.5,0.905-17.115c0.424,2.037,0.82,4.074,1.174,6.125
		c1.966,0,3.932-0.028,5.898,0.24c1.16,3.451,0.948,7.171,1.174,10.764l-2.065,0.028c-0.41-3.409,1.315-11.655-4.781-9.137
		c-0.438,3.027-0.481,6.096-0.622,9.137L206.225,117.092L206.225,117.092z"/>
	<path fill="#44B6AE" d="M274.473,101.717c2.277-0.736,3.069,0.042,2.362,2.348C274.543,104.8,273.751,104.022,274.473,101.717
		L274.473,101.717z"/>
	<path fill="#44B6AE" d="M113.704,105.635c1.895-1.188,3.763-2.419,5.644-3.635c0.014,5.007,0.028,10.014,0.028,15.036l-2.023-0.042
		C116.661,113.047,119.391,106.54,113.704,105.635L113.704,105.635z"/>
	<path fill="#44B6AE" d="M132.588,106.285c1.966-1.499,3.946-2.999,5.927-4.484c0.057,5.46,0.226,10.962-0.552,16.394
		c-1.867-3.678-1.457-7.893-1.542-11.867C135.473,106.314,133.549,106.3,132.588,106.285L132.588,106.285z"/>
	<path fill="#44B6AE" d="M246.48,116.356c-1.584-4.399-0.877-9.208-0.552-13.763c1.669,1.542,3.338,3.098,4.993,4.668
		c-0.976,0.127-2.914,0.41-3.89,0.538c0.396,3.55,1.033,7.129,3.564,9.859C249.225,117.219,247.853,116.781,246.48,116.356
		L246.48,116.356z"/>
	<path fill="#44B6AE" d="M224.712,103.499c1.952,1.033,3.904,2.079,5.884,3.069c-5.531,1.4-4.088,9.038,0.637,10.608
		c-1.867-0.099-3.72-0.212-5.573-0.325C225.263,112.396,224.853,107.955,224.712,103.499L224.712,103.499z"/>
	<path fill="#44B6AE" d="M126.01,105.805c1.98-1.598,4.654,1.768,2.405,3.197C126.406,110.628,123.79,107.233,126.01,105.805
		L126.01,105.805z"/>
	<path fill="#44B6AE" d="M162.051,106.3c2.871-0.127,5.757-0.24,8.657-0.283c0.382,4.074,0.481,8.19,0.014,12.263
		c-1.754-3.282-1.726-7.072-2.023-10.679c-1.061,0.071-3.197,0.212-4.272,0.283c-0.24,3.494-0.495,6.987-1.033,10.439
		C162.122,114.447,162.122,110.331,162.051,106.3L162.051,106.3z"/>
	<path fill="#44B6AE" d="M192.009,104.348c3.055,3.564,2.291,8.36,2.433,12.702l-2.023,0.127
		C192.264,112.891,191.967,108.619,192.009,104.348L192.009,104.348z"/>
	<path fill="#44B6AE" d="M197.554,106.102c2.461-0.467,4.908,0.198,7.284,0.736c-1.556,0.325-4.696,0.948-6.252,1.273
		c2.051,2.532,7.44,4.569,4.88,8.473c-2.489,1.33-5.219,0.113-7.737-0.382c1.726-0.255,5.205-0.75,6.945-0.99
		C200.567,112.495,195.39,110.232,197.554,106.102L197.554,106.102z"/>
	<path fill="#44B6AE" d="M265.208,106.215c2.122-0.099,4.243-0.226,6.365-0.368c0.042,0.41,0.099,1.216,0.141,1.627
		c-0.962,0.127-2.871,0.41-3.819,0.538c-0.339,3.465-0.693,6.945-1.301,10.368C265.166,114.489,265.279,110.303,265.208,106.215
		L265.208,106.215z"/>
	<path fill="#44B6AE" d="M279.551,106.328c2.857-0.156,5.729-0.311,8.6-0.382c0.396,4.116,0.495,8.261-0.042,12.362
		c-1.216-3.239-1.443-6.705-2.178-10.043c-0.948-0.255-2.857-0.764-3.805-1.004c-0.368,3.692-0.707,7.398-1.315,11.075
		C279.749,114.419,279.664,110.345,279.551,106.328L279.551,106.328z"/>
	<path fill="#44B6AE" d="M233.863,116.54c-1.443-3.847-0.962-8.034,0.523-11.783c0.538,3.791,0.849,7.61,1.188,11.429
		c1.443-0.538,2.871-1.103,4.3-1.726c0.509-2.772,0.41-5.63,0.594-8.43l1.853,0.014c-0.014,3.734-0.014,7.468-0.014,11.203
		C239.479,117.106,236.622,117.177,233.863,116.54L233.863,116.54z"/>
	<path fill="#44B6AE" d="M275.095,107.346c2.207,1.584,1.598,6.266,0.622,8.699C273.723,114.362,274.289,109.822,275.095,107.346
		L275.095,107.346z"/>
	<path fill="#44B6AE" d="M262.718,108.775c-0.792-3.169-4.795-3.494-7.355-2.504c-4.059,2.377-3.324,11.274,2.291,11.09
		C262.28,117.927,264.217,112.382,262.718,108.775z M260.654,115.225c-1.316,0.141-3.947,0.438-5.262,0.58
		c0.071-2.56-0.934-5.488,0.693-7.737c1.174-0.226,3.508-0.679,4.682-0.891C260.753,109.85,260.739,112.538,260.654,115.225z"/>
	<path fill="#44B6AE" d="M292.507,106.413c-2.489,2.319-0.509,5.728-0.198,8.515c2.249-0.693,4.569-1.244,6.747-2.178
		c0.595-2.349,0.665-4.781,0.934-7.186C297.486,105.805,294.954,105.861,292.507,106.413z M297.345,111.83
		c-1.203,0.156-3.621,0.467-4.838,0.623c0.863-2.645,1.245-6.846,5.064-4.569C297.514,108.874,297.401,110.84,297.345,111.83z"/>
	<path fill="#44B6AE" d="M125.982,114.305c1.952-1.584,4.724,1.697,2.461,3.154C126.477,119.086,123.747,115.776,125.982,114.305
		L125.982,114.305z"/>
	<path fill="#44B6AE" d="M290.159,115.14c3.253-0.071,6.521,0.042,9.788,0.297c-0.071,1.825-0.141,3.649-0.212,5.474
		c-3.112-0.127-6.224-0.311-9.321-0.58c3.027-0.75,6.082-1.386,9.123-2.065C296.369,117.332,293.2,116.427,290.159,115.14
		L290.159,115.14z"/>
	<path fill="#44B6AE" d="M175.149,114.97c2.136-0.707,4.343-1.287,6.422-2.235c0.58-2.348,0.65-4.767,0.919-7.157
		c-2.872,0.721-7.285-0.764-8.671,2.645c0.17,4.3,0.948,8.558,1.076,12.872c2.319-0.226,4.667-0.325,6.973-0.778
		c0.495-1.471,0.933-2.971,1.315-4.47C180.496,115.522,177.822,115.239,175.149,114.97z M180.496,112.226
		c-1.146,0-3.437,0-4.583-0.014c-0.057-1.245-0.156-3.748-0.212-5.007C178.954,107.148,180.397,109.129,180.496,112.226z
		 M176.309,117.827c1.655-1.315,2.603-0.962,2.829,1.033C177.483,120.176,176.549,119.836,176.309,117.827z"/>
</g>
</svg>
