<?xml version="1.0" encoding="utf-8"?>
<!-- Generator: Adobe Illustrator 17.0.0, SVG Export Plug-In . SVG Version: 6.00 Build 0)  -->
<!DOCTYPE svg PUBLIC "-//W3C//DTD SVG 1.1//EN" "http://www.w3.org/Graphics/SVG/1.1/DTD/svg11.dtd">
<svg version="1.1" id="레이어_1" xmlns="http://www.w3.org/2000/svg" xmlns:xlink="http://www.w3.org/1999/xlink" x="0px"
	 y="0px" width="320px" height="160px" viewBox="0 0 320 160" enable-background="new 0 0 320 160" xml:space="preserve">
<path fill="#15629D" d="M30.386,41.354c8.916-8.321,23.045-10.275,34.232-5.789c8.842,3.388,10.275,16.865,3.239,22.691
	c-3.109,2.68-7.353,1.191-11.001,1.024c2.29-4.579,6.552-9.27,4.97-14.798c-1.88-6.385-10.517-6.627-15.376-3.76
	c-6.106,4.021-5.435,13.142-1.545,18.503c5.659,7.799,14.594,12.621,19.787,20.848c8.209,12.602,5.547,31.849-7.408,40.282
	c-11.262,7.39-26.823,8.674-38.848,2.457c-13.253-7.185-11.988-29.876,2.048-35.46c6.664-3.109,14.836-1.005,18.41,5.64
	c-5.454,1.768-13.216,2.625-14.854,9.307c-2.587,7.93,4.951,16.399,13.16,14.538c9.661-0.745,13.886-11.932,11.82-20.308
	c-2.532-13.663-15.878-20.904-22.207-32.445C22.754,56.804,24.169,46.995,30.386,41.354L30.386,41.354z"/>
<path fill="#15629D" d="M221.928,39.065c6.329-4.095,15.506,1.638,14.65,9.102c-0.279,7.167-9.289,11.28-15.059,7.353
	C215.599,51.983,215.841,42.285,221.928,39.065L221.928,39.065z"/>
<path fill="#15629D" d="M293.203,39.381c5.864,0.019,11.746,0.019,17.609,0c-5.286,18.912-10.573,37.843-15.822,56.774
	c-3.481,0-6.962,0-10.424,0C287.451,77.224,290.317,58.312,293.203,39.381L293.203,39.381z"/>
<path fill="#15629D" d="M251.395,46.809c6.031-0.8,12.062-1.601,18.112-2.383c-1.396,6.385-2.774,12.769-4.17,19.154
	c2.457,0.019,4.914,0.019,7.371,0.019c-0.354,1.619-0.689,3.257-1.042,4.877c-2.439,0-4.877,0.019-7.315,0.019
	c-2.606,13.179-6.031,26.19-8.209,39.444c-1.75,4.97,4.412,5.156,7.464,6.589c-3.202,5.007-7.185,11.485-14.184,10.35
	c-6.012,0.223-9.326-5.044-11.392-9.866c-6.496,7.651-18.242,13.44-27.642,7.464c-5.491-4.263-5.361-12.099-4.244-18.279
	c2.625-13.589,5.808-27.047,8.563-40.617c5.864,0.019,11.746,0.019,17.628,0c-2.904,14.78-6.813,29.392-9.102,44.284
	c-1.21,8.358,10.927,5.38,13.123,0c6.459-11.895,6.627-25.986,10.35-38.811c-1.322-0.484-3.965-1.452-5.287-1.936
	c2.122-1.619,4.3-3.202,6.496-4.747C249.124,57.195,250.315,52.021,251.395,46.809L251.395,46.809z"/>
<path fill="#15629D" d="M172.06,102.279c4.579-21.053,9.046-42.143,13.607-63.196c-6.05,0.782-12.081,1.601-18.112,2.42
	c-4.412,20.122-8.526,40.337-13.049,60.422c-1.079,6.589-7.278,13.253-14.426,10.61c-2.122-2.978-0.819-6.664-0.335-9.94
	c4.598-21.071,9.046-42.18,13.607-63.27c-6.031,0.782-12.062,1.601-18.093,2.42c-4.523,19.936-8.19,40.096-13.16,59.92
	c-5.101,8.693-16.027,15.283-26.228,12.23c-4.951-2.587-3.537-9.158-4.095-13.756c6.831-1.377,13.961-3.09,19.303-7.855
	c7.595-5.993,12.9-18.763,5.808-26.916c-8.786-5.696-21.202-2.569-28.648,4.132c-10.219,9.679-14.556,24.403-14.351,38.178
	c-0.019,7.185,4.412,14.724,11.783,16.306c13.309,3.705,26.824-3.369,35.2-13.495c1.061,4.654,1.768,10.573,6.701,12.844
	c9.288,4.393,19.861-0.857,25.911-8.228c2.476,6.366,8.656,11.392,15.804,9.549c6.236-0.559,9.214-6.404,11.336-11.504
	c-2.755-0.242-5.51-0.633-8.209-1.136C170.478,109.073,171.539,105.462,172.06,102.279z M110.074,67.825
	c3.313,12.005-5.044,24.291-17.032,26.674C95.629,84.41,98.328,70.84,110.074,67.825z"/>
<path fill="#15629D" d="M281.531,106.226c6.273-4.114,15.524,1.433,14.65,8.935c-0.168,7.278-9.438,11.597-15.208,7.297
	C275.24,118.865,275.463,109.334,281.531,106.226L281.531,106.226z"/>
</svg>
