<?xml version="1.0" encoding="utf-8"?>
<!-- Generator: Adobe Illustrator 17.0.0, SVG Export Plug-In . SVG Version: 6.00 Build 0)  -->
<!DOCTYPE svg PUBLIC "-//W3C//DTD SVG 1.1//EN" "http://www.w3.org/Graphics/SVG/1.1/DTD/svg11.dtd">
<svg version="1.1" id="레이어_1" xmlns="http://www.w3.org/2000/svg" xmlns:xlink="http://www.w3.org/1999/xlink" x="0px"
	 y="0px" width="320px" height="160px" viewBox="0 0 320 160" enable-background="new 0 0 320 160" xml:space="preserve">
<path fill="#EC5245" d="M19.306,31.883c16.2-0.677,31.964,4.486,46.363,11.485l-0.034,0.321c-0.723,5.071-1.239,10.165-1.388,15.282
	c-13.63-4.36-27.765-7.022-41.406-11.335c-3.545-1.01-5.737-4.084-7.951-6.792C16.266,37.815,17.746,34.832,19.306,31.883
	L19.306,31.883z"/>
<path fill="#010101" d="M122.92,35.876c6.551-3.086,14.054-0.941,20.353,1.744c-1.308,3.017-2.799,5.932-4.36,8.823
	c-3.132-2.191-7.744-4.199-11.106-1.342c-1.996,1.56-0.597,4.325,1.4,5.048c5.048,2.237,11.817,2.685,14.628,8.18
	c2.834,6.425,0.688,15.546-6.081,18.609c-7.767,3.947-17.187,1.939-24.197-2.685c1.618-2.994,3.201-6,4.807-8.995
	c3.35,2.65,7.48,5.163,11.955,4.016c2.719-0.482,4.463-4.417,1.962-6.264c-4.658-3.316-11.725-2.639-15.259-7.698
	C113.225,48.771,115.864,39.042,122.92,35.876L122.92,35.876z"/>
<path fill="#010101" d="M154.78,35.532c3.648-0.023,7.297-0.011,10.957,0.023c2.811,7.457,5.633,14.915,8.479,22.361
	c3.109-7.435,6-14.961,9.064-22.407c3.671,0.011,7.343,0.034,11.026,0c2.203,14.123,4.153,28.293,6.494,42.393
	c-3.729-0.011-7.457-0.011-11.186,0.011c-1.067-8.054-2.019-16.12-3.086-24.174c-3.511,8.008-6.769,16.108-10.165,24.162
	c-1.514-0.011-3.017-0.023-4.52-0.034c-3.178-8.089-6.379-16.166-9.626-24.231c-1.319,8.077-2.329,16.189-3.58,24.277
	c-3.683-0.011-7.354-0.023-11.026-0.023C149.962,63.767,152.406,49.655,154.78,35.532L154.78,35.532z"/>
<path fill="#010101" d="M283.83,35.554c9.775-0.057,19.562-0.069,29.348,0c-0.023,3.109-0.023,6.218-0.012,9.328
	c-3.063,0.011-6.115,0.023-9.167,0.023c0.115,10.991,0.023,21.994,0.057,32.985c-3.706,0-7.412,0-11.106,0.011
	c0.046-11.003-0.069-22.005,0.046-32.997c-3.052-0.012-6.104-0.023-9.144-0.012C283.853,41.784,283.853,38.675,283.83,35.554
	L283.83,35.554z"/>
<path fill="#FDB839" d="M14.557,40.431c0.08,0.103,0.252,0.31,0.333,0.413c2.214,2.708,4.406,5.782,7.951,6.792
	c1.87,12.081,3.648,24.197,4.956,36.358l-0.069,0.597c-7.09,0.918-13.343,4.922-20.525,5.45C6.675,80.507,6.4,70.812,8.442,61.416
	C9.531,54.164,12.698,47.475,14.557,40.431L14.557,40.431z"/>
<path fill="#010101" d="M271.072,60.611c11.186-1.812,12.482-19.687,2.191-23.657c-7.733-2.765-16.188-0.906-24.231-1.411
	c0.08,14.123,0.023,28.247,0.034,42.369c3.717-0.011,7.446-0.023,11.163-0.034c0.023-5.358-0.149-10.728,0.149-16.097
	c3.247,5.45,6.746,10.762,10.154,16.108c4.613,0.011,9.213,0,13.837,0C279.929,72.141,275.558,66.325,271.072,60.611z
	 M267.365,52.788c-1.927,1.755-4.715,1.469-7.113,1.767c0.035-3.523-0.298-7.08,0.172-10.579c2.731-0.069,6.161,0.149,7.744,2.754
	C269.097,48.623,269.04,51.308,267.365,52.788z"/>
<path fill="#9B3869" d="M64.246,58.971c0.149-5.117,0.665-10.211,1.388-15.282c11.427,5.955,21.374,14.582,29.417,24.61
	c-7.412,8.375-14.456,17.083-21.753,25.562c-3.671,4.245-6.884,8.949-11.473,12.288c-5.255-3.568-10.647-6.941-15.81-10.636
	c1.17-0.688,2.34-1.354,3.511-2.031c-0.115,1.067-0.229,2.134-0.344,3.212c3.981,2.971,8.18,5.645,12.655,7.79
	c1.732-5.909,2.157-12.311,0.115-18.208c3.43-2.123,6.907-4.176,10.418-6.138c-2.96-1.847-5.966-3.648-8.972-5.415
	C63.374,69.457,63.937,64.214,64.246,58.971L64.246,58.971z"/>
<path fill="#E21A8A" d="M22.84,47.636c13.641,4.314,27.776,6.976,41.406,11.335c-0.31,5.243-0.872,10.486-0.849,15.753
	c-9.327-5.737-19.114-10.682-28.487-16.35c0.034,9.821-0.103,19.653-0.195,29.486c-2.318-1.274-4.624-2.559-6.918-3.866
	C26.489,71.832,24.71,59.717,22.84,47.636L22.84,47.636z"/>
<path fill="#E21A8A" d="M67.172,46.603c6.861,3.843,13.458,8.444,18.46,14.594c-7.125,0.574-13.745-2.914-20.835-2.467
	C64.522,54.531,66.266,50.619,67.172,46.603L67.172,46.603z"/>
<path fill="#010101" d="M229.86,35.544c-4.061-0.023-8.111-0.012-12.161-0.012c-5.404,14.123-10.911,28.2-16.234,42.36
	c3.901,0.012,7.813,0.023,11.714-0.011c0.986-2.479,1.984-4.957,3.04-7.412c4.99,0.046,9.993-0.034,14.995,0.069
	c0.849,2.466,1.756,4.899,2.639,7.354c3.981,0.011,7.962,0.011,11.943,0.011C240.438,63.802,235.103,49.69,229.86,35.544z
	 M219.156,61.988c1.572-4.36,2.949-8.777,4.532-13.125c1.583,4.348,2.949,8.788,4.52,13.148
	C225.191,62.011,222.173,62,219.156,61.988z"/>
<path fill="#FFFFFF" d="M34.91,58.374c9.373,5.668,19.16,10.613,28.488,16.349c3.006,1.767,6.012,3.568,8.972,5.415
	c-3.511,1.962-6.987,4.016-10.418,6.138c-4.107,2.455-8.295,4.784-12.425,7.205c-1.17,0.677-2.34,1.342-3.511,2.031
	c-3.694,2.168-7.423,4.291-11.244,6.218c-0.046-4.624-0.046-9.247-0.057-13.871C34.807,78.028,34.944,68.195,34.91,58.374
	L34.91,58.374z"/>
<path fill="#A67D9F" d="M95.052,68.299c2.903,3.752,5.507,7.71,8.031,11.703c-4.061,6.746-8.651,13.263-14.33,18.747l-0.551,0.092
	c-9.167,1.01-17.233,6.368-26.377,7.308c4.589-3.339,7.802-8.043,11.473-12.288C80.596,85.382,87.64,76.674,95.052,68.299
	L95.052,68.299z"/>
<path fill="#010101" d="M123.62,82.227c6.494-2.49,13.687-0.562,19.78,2.191c-1.48,2.903-2.972,5.805-4.497,8.697
	c-3.522-2.903-10.027-4.406-12.54,0.551c2.776,5.507,10.177,4.211,14.456,7.894c5.025,3.419,4.933,10.475,3.017,15.615
	c-2.432,6.161-9.614,8.743-15.798,8.467c-5.174,0.092-9.993-2.065-14.399-4.566c1.48-3.086,3.075-6.115,4.704-9.11
	c3.442,2.57,7.641,5.301,12.127,3.97c2.788-0.62,4.291-4.738,1.618-6.471c-4.865-3.098-12.058-2.558-15.385-7.951
	C113.282,94.675,116.277,85.061,123.62,82.227L123.62,82.227z"/>
<path fill="#010101" d="M146.898,82.089c9.729,0.023,19.458,0.023,29.187,0.115c0,3.144,0,6.276,0.08,9.419
	c-3.063,0.046-6.127,0.046-9.178,0.069c0.034,10.922-0.046,21.856,0.046,32.779c-3.694,0.023-7.377,0.011-11.072,0.023
	c0.011-10.945,0-21.891,0-32.836c-3.04,0.011-6.069,0-9.098,0.023C146.864,88.48,146.864,85.29,146.898,82.089L146.898,82.089z"/>
<path fill="#010101" d="M179.688,82.319c3.729-0.218,7.469-0.298,11.198-0.046c-0.046,7.607-0.057,15.225-0.023,22.843
	c0.103,3.189,0.138,6.907,2.616,9.293c4.084,3.453,11.645,1.182,11.886-4.601c0.86-9.19,0.172-18.472,0.413-27.696
	c3.66-0.011,7.32,0,10.98-0.011c0.023,8.834,0.034,17.657,0.011,26.48c0.023,4.876-1.331,10.177-5.392,13.263
	c-5.691,4.36-13.561,4.486-20.261,2.926c-5.897-1.377-10.636-6.528-11.014-12.643C179.482,102.202,179.757,92.254,179.688,82.319
	L179.688,82.319z"/>
<path fill="#010101" d="M261.17,82.147c4.429,0.344,8.949-0.528,13.32,0.31c2.765,3.557,5.151,7.389,7.675,11.117
	c2.754-3.683,5.301-7.526,7.939-11.29c4.463-0.023,8.926-0.218,13.401-0.184c-5.174,7.4-10.395,14.766-15.672,22.097
	c0,3.821-0.011,7.641,0,11.473c-3.66,3.075-7.469,5.966-11.106,9.064c-0.138-6.769,0.138-13.55-0.115-20.319
	C271.84,96.763,266.092,89.73,261.17,82.147L261.17,82.147z"/>
<path fill="#70BFD4" d="M27.797,83.994c2.295,1.308,4.601,2.593,6.918,3.866c0.011,4.624,0.011,9.247,0.057,13.871
	c3.821-1.927,7.549-4.05,11.244-6.218c5.163,3.694,10.555,7.067,15.81,10.636c9.144-0.941,17.21-6.299,26.377-7.308
	c-13.148,15.064-32.297,24.415-51.847,27.914c-4.406-5.255-10.142-9.11-15.167-13.722c1.388-9.66,4.509-18.931,6.54-28.442
	L27.797,83.994L27.797,83.994z"/>
<path fill="#7886C0" d="M7.202,90.04c7.182-0.528,13.435-4.532,20.525-5.45c-2.031,9.511-5.151,18.781-6.54,28.442
	c5.025,4.612,10.762,8.467,15.167,13.722c-5.645,0.895-11.335,1.377-17.049,1.423C12.836,116.394,8.476,103.452,7.202,90.04
	L7.202,90.04z"/>
<path fill="#E21A8A" d="M49.527,93.482c4.13-2.421,8.318-4.75,12.425-7.205c2.042,5.897,1.618,12.299-0.115,18.208
	c-4.474-2.145-8.674-4.819-12.655-7.79C49.297,95.616,49.412,94.549,49.527,93.482L49.527,93.482z"/>
<path fill="#010101" d="M250.913,85.519c-8.123-5.151-18.219-2.834-27.283-3.258c0.046,14.078,0.023,28.155,0.012,42.221
	c6.437-0.138,12.885,0.298,19.298-0.218c8.593-1.239,15.982-8.318,17.519-16.877C262.157,99.057,258.244,89.879,250.913,85.519z
	 M243.57,113.721c-2.719,1.491-5.897,1.411-8.903,1.48c0.069-7.871-0.057-15.742,0.069-23.612c2.96,0.115,6.138-0.103,8.811,1.446
	C251.222,96.856,251.291,109.9,243.57,113.721z"/>
</svg>
