<?xml version="1.0" encoding="utf-8"?>
<!-- Generator: Adobe Illustrator 17.0.0, SVG Export Plug-In . SVG Version: 6.00 Build 0)  -->
<!DOCTYPE svg PUBLIC "-//W3C//DTD SVG 1.1//EN" "http://www.w3.org/Graphics/SVG/1.1/DTD/svg11.dtd">
<svg version="1.1" id="레이어_1" xmlns="http://www.w3.org/2000/svg" xmlns:xlink="http://www.w3.org/1999/xlink" x="0px"
	 y="0px" width="320px" height="160px" viewBox="0 0 320 160" enable-background="new 0 0 320 160" xml:space="preserve">
<g>
	<path fill="#4C80F1" d="M18.75,41.612c11.014-5.112,24.331-3.353,34.888,2.099c-0.039,4.694-0.024,9.389-0.008,14.083
		c-5.87-3.905-12.868-6.193-19.929-6.28c-2.935,0.024-6.525,0.702-7.921,3.629c-1.073,2.761,1.183,5.467,3.732,6.288
		c6.698,2.517,14.091,3.061,20.45,6.525c3.495,1.886,6.501,5.065,7.314,9.057c1.215,5.791-0.079,12.544-4.671,16.592
		c-4.126,3.519-9.594,4.939-14.888,5.46c-9.696,1.223-19.858-0.813-28.213-5.917c0.024-5.168,0-10.335,0.016-15.495
		c6.824,5.389,15.55,8.197,24.197,8.402c3.061,0.095,7.109-0.844,7.905-4.3c0.781-2.698-1.657-4.892-4.039-5.531
		c-8.181-2.698-17.736-3.29-24.174-9.649C6.395,59.213,9.646,45.722,18.75,41.612L18.75,41.612z"/>
	<path fill="#4C80F1" d="M177.749,45.809c-6.162-5.617-14.872-7.826-23.069-7.077c-7.771,0.631-15.377,4.347-20.182,10.564
		c-8.868,11.535-8.623,29.404,0.884,40.497c7.724,9.041,21.081,11.732,32.174,8.221c8.6-2.572,15.566-9.657,18.178-18.233
		C189.394,68.215,187.106,54.101,177.749,45.809z M168.763,81.162c-3.037,4.552-9.073,6.84-14.359,5.365
		c-4.394-1.049-7.85-4.615-9.499-8.734c-2.391-6.067-2.256-13.191,0.718-19.022c1.886-3.811,5.562-6.761,9.799-7.432
		c2.848-0.363,5.893-0.174,8.45,1.262c4.458,2.28,7.085,7.061,7.929,11.858C172.739,70.125,172.084,76.342,168.763,81.162z"/>
	<path fill="#4C80F1" d="M121.212,66.819c-0.292-7.037-2.525-14.162-7.164-19.55c-5.31-6.225-13.965-9.239-21.996-7.937
		c-4.024,0.608-7.653,2.572-10.99,4.797c-0.103-1.247-0.197-2.493-0.3-3.732c-4.773-0.024-9.546-0.016-14.32-0.008
		c0.016,27.006-0.024,54.02,0.016,81.034c4.852,0,9.712,0,14.564,0c0.087-9.27,0.055-18.54,0.032-27.803
		c3.542,2.43,7.471,4.529,11.803,5.01c7.684,0.947,15.795-1.917,20.915-7.771C119.579,84.381,121.67,75.332,121.212,66.819z
		 M103.185,80.207c-2.477,3.937-7.172,6.359-11.819,5.909c-3.976-0.229-7.471-2.446-10.343-5.057
		c0.142-8.126-0.008-16.26,0.071-24.387c3.779-3.44,8.986-5.98,14.193-4.655c5.728,1.176,9.523,6.651,10.501,12.142
		C106.656,69.58,106.277,75.521,103.185,80.207z"/>
	<path fill="#4C80F1" d="M249.276,40.405c-4.86-0.039-9.712-0.016-14.572-0.024c-0.103,1.247-0.197,2.493-0.284,3.732
		c-3.061-2.075-6.367-3.905-10.036-4.615c-7.811-1.586-16.402,0.947-21.925,6.738c-5.736,5.815-8.221,14.17-8.237,22.193
		c-0.166,8.11,2.146,16.6,7.74,22.667c4.686,5.176,11.732,7.992,18.69,7.684c5.034-0.055,9.751-2.233,13.752-5.152
		c-0.008,9.27-0.039,18.533,0.016,27.803c4.947-0.024,9.901,0,14.848-0.016C249.291,94.409,249.276,67.403,249.276,40.405z
		 M234.396,81.02c-2.627,2.627-5.98,4.679-9.736,5.049c-4.292,0.544-8.797-1.239-11.464-4.663
		c-3.937-4.907-4.623-11.732-3.393-17.736c1.073-5.278,4.781-10.414,10.272-11.606c5.207-1.396,10.604,1.034,14.32,4.639
		C234.388,64.815,234.396,72.917,234.396,81.02z"/>
	<path fill="#4C80F1" d="M310.475,62.898c0.103-4.931-0.079-10.13-2.556-14.54c-2.564-4.805-7.708-7.606-12.876-8.734
		c-10.233-2.264-21.255-0.844-30.58,3.945c0.071,4.671,0.016,9.341,0.047,14.012c8.016-4.765,18.114-8.631,27.298-4.978
		c3.882,1.538,4.032,6.193,3.905,9.728c-8.158,0-16.544-1.254-24.497,1.199c-5.01,1.475-9.641,4.955-11.574,9.925
		c-2.201,5.68-2.004,12.568,1.475,17.712c3.022,4.473,8.276,7.022,13.546,7.613c7.266,0.757,14.966-0.497,21.057-4.726
		c0.032,1.428,0.079,2.856,0.134,4.292c4.844,0.292,9.704,0.071,14.548,0.134C310.554,86.622,310.42,74.764,310.475,62.898z
		 M295.603,81.825c-1.531,1.949-4.103,2.769-6.359,3.606c-4.434,1.325-9.436,1.736-13.775-0.095
		c-3.574-1.586-3.929-6.675-1.625-9.467c2.193-2.753,5.862-3.606,9.207-3.866c4.205-0.166,8.426-0.024,12.631-0.047
		C295.532,75.245,295.777,78.535,295.603,81.825z"/>
</g>
</svg>
