<?xml version="1.0" encoding="utf-8"?>
<!-- Generator: Adobe Illustrator 17.0.0, SVG Export Plug-In . SVG Version: 6.00 Build 0)  -->
<!DOCTYPE svg PUBLIC "-//W3C//DTD SVG 1.1//EN" "http://www.w3.org/Graphics/SVG/1.1/DTD/svg11.dtd">
<svg version="1.1" id="레이어_1" xmlns="http://www.w3.org/2000/svg" xmlns:xlink="http://www.w3.org/1999/xlink" x="0px"
	 y="0px" width="320px" height="160px" viewBox="0 0 320 160" enable-background="new 0 0 320 160" xml:space="preserve">
<g>
	<path fill="#313131" d="M84.857,61.514c3.525-2.376,7.965-1.916,11.999-1.955c3.574-0.059,7.138,0.342,10.633,1.089
		c-0.302,2.495-0.604,4.99-0.906,7.485c-4.52-0.703-9.128-1.475-13.702-0.926c-1.431,0.089-2.346,1.426-2.267,2.787
		c-0.01,1.505-0.322,3.668,1.361,4.43c4.45,1.792,9.589,1.866,13.648,4.638c2.376,1.614,2.723,4.718,2.737,7.351
		c0.045,3.351,0.144,7.113-2.069,9.876c-2.188,2.559-5.747,3.198-8.93,3.49c-5.589,0.47-11.331-0.203-16.519-2.386
		c0.5-2.302,1.005-4.604,1.505-6.901c4.663,1.386,9.603,2.341,14.47,1.663c1.426-0.129,2.495-1.376,2.485-2.792
		c0.054-1.698,0.45-4.128-1.436-5.01c-4.411-1.916-9.698-1.653-13.658-4.638c-2.653-2.218-2.579-6.015-2.638-9.168
		C81.545,67.326,81.961,63.494,84.857,61.514L84.857,61.514z"/>
	<path fill="#313131" d="M270.194,63.752c1.51-2.802,4.856-3.846,7.831-4.099c5.614-0.213,11.296-0.267,16.806,0.995
		c-0.297,2.495-0.594,4.99-0.901,7.485c-4.43-0.703-8.93-1.416-13.42-0.975c-1.302,0.059-2.535,1.02-2.505,2.401
		c-0.074,1.688-0.475,4.208,1.52,4.96c4.376,1.663,9.351,1.827,13.346,4.475c2.153,1.386,2.752,4.099,2.802,6.5
		c0.069,3.391,0.317,7.094-1.53,10.108c-1.559,2.47-4.544,3.48-7.287,3.921c-6.262,0.896-12.811,0.322-18.672-2.129
		c0.505-2.297,1.015-4.594,1.5-6.901c4.688,1.381,9.643,2.356,14.534,1.653c1.401-0.149,2.44-1.381,2.426-2.782
		c0.084-1.718,0.436-4.188-1.49-5.039c-4.242-1.792-9.188-1.673-13.123-4.247c-2.336-1.52-2.94-4.47-3.049-7.059
		C268.877,69.915,268.708,66.588,270.194,63.752L270.194,63.752z"/>
	<path fill="#F26722" d="M1.807,65.682c1.846-1.916,3.718-3.812,5.589-5.708c20.306,0.005,40.607-0.005,60.913,0.005
		c0,1.762,0,3.525,0.005,5.282c-1.921,1.985-3.866,3.945-5.777,5.935c-20.242,0.025-40.483,0.01-60.725,0.01
		C1.802,69.365,1.807,67.524,1.807,65.682L1.807,65.682z"/>
	<path fill="#313131" d="M111.469,67.836c0-2.629-0.005-5.257,0-7.891c10.158,0,20.316,0,30.474,0.005c0,2.629,0.005,5.257,0,7.886
		c-3.579,0-7.153,0-10.732,0c-0.005,10.499,0.005,20.994,0,31.493c-3.005,0.005-6.005,0.005-9.004,0
		c-0.005-10.495,0-20.994-0.005-31.488C118.622,67.831,115.048,67.836,111.469,67.836L111.469,67.836z"/>
	<path fill="#313131" d="M185.351,59.95c3-0.005,6-0.005,9.004-0.005c0,13.128,0,26.256,0,39.384c-3.005,0.005-6.005,0.005-9.004,0
		C185.346,86.201,185.351,73.073,185.351,59.95L185.351,59.95z"/>
	<path fill="#313131" d="M237.393,59.95c8.381-0.005,16.766,0,25.147-0.005c0.005,2.634,0.005,5.262,0,7.891
		c-5.371,0-10.742,0-16.113,0c-0.005,2.391,0,4.782-0.005,7.178c4.95,0.005,9.9-0.005,14.851,0c0,2.629,0.005,5.262,0,7.891
		c-4.95,0.005-9.896,0-14.846,0c-0.005,2.846-0.005,5.688,0,8.534c5.371,0.005,10.747,0,16.118,0.005c-0.005,2.629,0,5.257,0,7.886
		c-8.386,0.005-16.771,0.005-25.152,0C237.388,86.201,237.388,73.078,237.393,59.95L237.393,59.95z"/>
	<path fill="#313131" d="M170.669,85.885c1.812-0.857,3.529-2.089,4.465-3.911c1.683-3.039,1.248-6.623,1.312-9.95
		c0.059-3.049-0.302-6.415-2.485-8.737c-2.5-2.619-6.327-3.198-9.777-3.317c-5.885-0.055-11.776-0.01-17.662-0.02
		c0,13.128,0,26.256-0.001,39.38c3,0.005,6,0.005,9.005,0c0.005-4.069-0.005-8.143,0-12.217c1.752-0.005,3.505-0.005,5.257,0
		c2.936,4.074,5.862,8.148,8.802,12.222c3.569-0.005,7.138,0,10.707-0.005C177.094,94.84,173.877,90.365,170.669,85.885z
		 M167.214,76.964c-0.277,1.49-1.802,2.262-3.198,2.332c-2.827,0.183-5.658,0.03-8.49,0.079c0-3.847,0-7.693,0-11.539
		c2.881,0.054,5.767-0.129,8.638,0.109c1.421,0.064,2.901,0.955,3.099,2.465C167.53,72.573,167.565,74.806,167.214,76.964z"/>
	<path fill="#313131" d="M230.364,64.311c-2.198-3.341-6.509-4.187-10.232-4.331c-5.911-0.08-11.821-0.01-17.732-0.035
		c0,13.128-0.005,26.256,0,39.384c3.009,0.005,6.019,0.005,9.029,0c0.005-3.98,0.005-7.96,0-11.935
		c5.381-0.198,11.208,0.773,16.138-1.94c3.193-1.718,4.539-5.51,4.465-8.965C231.899,72.419,232.691,67.93,230.364,64.311z
		 M222.919,76.717c-0.074,1.49-1.327,2.663-2.782,2.802c-2.886,0.341-5.802,0.093-8.703,0.168c-0.005-3.95-0.005-7.901,0-11.851
		c2.728,0.05,5.46-0.114,8.183,0.094c1.391,0.059,2.926,0.822,3.208,2.307C223.167,72.371,223.087,74.563,222.919,76.717z"/>
	<path fill="#42B2E6" d="M1.812,73.439c20.242,0,40.483-0.02,60.725,0.01c1.916,1.985,3.866,3.94,5.777,5.935
		c-0.005,1.752,0,3.5-0.01,5.247c-20.311,0.01-40.622,0.005-60.937,0c-1.856-1.881-3.708-3.762-5.549-5.658
		C1.802,77.127,1.797,75.281,1.812,73.439L1.812,73.439z"/>
	<path fill="#313131" d="M1.812,92.869c1.851-1.891,3.703-3.782,5.559-5.668c20.316,0.005,40.627,0,60.937,0.005
		c0.005,1.752,0,3.505,0.005,5.257c-1.921,1.985-3.861,3.95-5.782,5.935c-20.242,0.015-40.483,0.005-60.72,0.005
		C1.807,96.557,1.807,94.715,1.812,92.869L1.812,92.869z"/>
	<path fill="#313131" d="M318.062,91.433c-0.886-3.896-5.331-6.381-9.133-5.242c-4.445,1.015-6.925,6.609-4.569,10.554
		c2.302,4.618,9.663,5,12.544,0.787C318.295,95.824,318.339,93.512,318.062,91.433z M315.003,93.82
		c-0.317,3.134-4.534,4.668-6.826,2.544c-2.367-1.827-1.659-5.985,1.183-6.925C312.127,88.196,315.553,90.82,315.003,93.82z"/>
</g>
</svg>
