<?xml version="1.0" encoding="utf-8"?>
<!-- Generator: Adobe Illustrator 17.0.0, SVG Export Plug-In . SVG Version: 6.00 Build 0)  -->
<!DOCTYPE svg PUBLIC "-//W3C//DTD SVG 1.1//EN" "http://www.w3.org/Graphics/SVG/1.1/DTD/svg11.dtd">
<svg version="1.1" id="레이어_1" xmlns="http://www.w3.org/2000/svg" xmlns:xlink="http://www.w3.org/1999/xlink" x="0px"
	 y="0px" width="320px" height="160px" viewBox="0 0 320 160" enable-background="new 0 0 320 160" xml:space="preserve">
<g>
	<path d="M0.711,69.183c1.774-0.024,3.54-0.032,5.315-0.032c1.551,4.225,2.856,8.529,4.368,12.769
		c1.512-4.28,3.007-8.568,4.567-12.833c1.655-0.008,3.31-0.016,4.964-0.008c1.599,4.241,2.991,8.553,4.694,12.761
		c1.273-3.644,2.045-7.51,3.867-10.939c1.138-2.005,3.707-1.631,5.649-1.878c-2.49,7.335-4.996,14.671-7.566,21.982
		c-1.464-0.008-2.936-0.008-4.4,0c-1.615-4.463-3.182-8.942-4.718-13.43c-1.718,4.416-3.182,8.919-4.758,13.374
		c-1.52,0.008-3.031,0-4.543-0.008C5.723,83.671,3.066,76.479,0.711,69.183L0.711,69.183z"/>
	<path d="M48.462,69.016c1.448,0,2.904,0.008,4.352,0.008c3.198,7.311,6.397,14.615,9.547,21.942c-2.252-0.119-5.14,0-6.373-2.331
		c-2.196-3.93-3.222-8.401-5.553-12.268c-2.132,4.797-3.994,9.706-6.134,14.504c-1.766-0.016-3.54-0.04-5.307-0.072
		C42.034,83.488,45.312,76.28,48.462,69.016L48.462,69.016z"/>
	<path d="M70.627,69.168c1.981,0.191,4.622-0.78,5.919,1.225c3.166,3.851,6.039,7.94,9.141,11.846
		c0.135-3.676-0.207-7.375,0.199-11.035c0.629-2.299,3.238-1.989,5.084-2.164c0,7.24,0.008,14.472,0,21.712
		c-1.559,0.04-3.119,0.08-4.67,0.119C82.752,86.503,79.379,82,75.894,77.577c-0.064,4.4-0.048,8.799-0.032,13.199
		c-1.742,0.016-3.493,0.048-5.243,0.095C70.588,83.631,70.58,76.399,70.627,69.168L70.627,69.168z"/>
	<path d="M99.635,69.144c6.086,0,12.173-0.024,18.259,0.016c-0.438,1.472,0.167,3.811-1.647,4.416
		c-1.615,0.469-3.334,0.31-4.996,0.406c0.008,5.625,0.032,11.258-0.008,16.882c-1.711,0-3.413-0.008-5.124-0.016
		c-0.048-5.633-0.04-11.266,0-16.898c-2.14-0.016-4.28-0.024-6.42-0.032C99.643,72.326,99.65,70.735,99.635,69.144L99.635,69.144z"
		/>
	<path d="M135.866,69.231c6.15-0.167,12.3-0.087,18.45-0.056c-0.493,1.432,0.167,3.731-1.623,4.344
		c-1.623,0.573-3.389,0.334-5.076,0.446c0,5.633,0.008,11.274,0,16.906c-1.766-0.024-3.532-0.048-5.291-0.072
		c-0.016-5.633,0-11.258-0.008-16.89c-2.148-0.016-4.288-0.024-6.436-0.048C135.874,72.318,135.866,70.775,135.866,69.231
		L135.866,69.231z"/>
	<path d="M200.921,69.215c1.798-0.016,3.596-0.032,5.394-0.056c1.456,4.201,2.737,8.465,4.328,12.618
		c1.512-4.209,2.991-8.433,4.479-12.658c1.679-0.024,3.365-0.04,5.052-0.048c1.536,4.248,3.063,8.497,4.471,12.785
		c1.567-3.596,2.188-7.59,4.121-11.019c1.201-1.941,3.668-1.591,5.617-1.798c-2.522,7.304-5.076,14.599-7.51,21.926
		c-1.512,0.008-3.023,0.016-4.527,0.008c-1.631-4.328-2.8-8.831-4.845-12.992c-1.647,4.304-3.039,8.712-4.662,13.032
		c-1.496-0.032-2.991-0.056-4.479-0.088C205.902,83.679,203.34,76.471,200.921,69.215L200.921,69.215z"/>
	<path d="M243.111,69.175c5.521-0.048,11.051-0.088,16.58,0.032c-0.024,1.543-0.048,3.095-0.072,4.638
		c-3.819,0.064-7.638,0.064-11.456,0.064c-0.008,1.193-0.016,2.379-0.016,3.572c3.357,0.032,6.715,0.032,10.08,0.032
		c-0.016,1.567-0.024,3.127-0.04,4.694c-3.334,0-6.667-0.008-10.001,0c-0.032,1.305-0.056,2.61-0.088,3.906
		c3.031,0.088,6.07-0.103,9.086,0.215c2.204,0.286,2.538,2.753,2.936,4.495c-5.681,0.088-11.353,0.056-17.034,0.024
		C243.056,83.623,243.032,76.399,243.111,69.175L243.111,69.175z"/>
	<path d="M277.6,69c1.424,0,2.856,0.008,4.296,0.008c3.222,7.304,6.428,14.615,9.563,21.958c-2.252-0.111-5.116-0.008-6.365-2.315
		c-2.18-3.938-3.246-8.393-5.545-12.284c-2.148,4.789-3.978,9.714-6.15,14.496c-1.782-0.008-3.556-0.024-5.33-0.056
		C271.172,83.504,274.378,76.248,277.6,69L277.6,69z"/>
	<path d="M184.572,76.909c-1.615-6.182-8.807-9.444-14.734-7.677c-5.673,1.424-9.34,7.494-7.996,13.199
		c0.907,5.72,7.041,9.475,12.602,8.72C181.318,90.975,186.736,83.496,184.572,76.909z M170.227,85.66
		c-4.495-2.244-4.256-9.682,0.43-11.552c4.002-1.989,9.205,1.456,8.887,5.927C179.894,84.697,174.197,88.222,170.227,85.66z"/>
	<path d="M313.975,83.345c1.742-1.305,3.851-2.61,4.32-4.925c1.138-3.604-0.963-7.916-4.734-8.815
		c-4.376-0.963-8.919-0.294-13.366-0.43c-0.072,7.232-0.048,14.456-0.008,21.688c1.687-0.008,3.381-0.024,5.076-0.04
		c0.04-2.259,0.064-4.511,0.08-6.77c1.146,0.024,2.291,0.048,3.445,0.064c1.241,1.878,2.371,3.867,3.994,5.458
		c1.679,1.774,4.328,1.154,6.508,1.329C317.515,88.381,315.725,85.875,313.975,83.345z M311.89,79.025
		c-2.1,0.724-4.376,0.382-6.556,0.477c-0.008-1.894-0.016-3.787-0.024-5.673c2.1,0.008,4.233-0.143,6.317,0.215
		C313.895,74.442,314.03,78.341,311.89,79.025z"/>
</g>
</svg>
