<?xml version="1.0" encoding="utf-8"?>
<!-- Generator: Adobe Illustrator 17.0.0, SVG Export Plug-In . SVG Version: 6.00 Build 0)  -->
<!DOCTYPE svg PUBLIC "-//W3C//DTD SVG 1.1//EN" "http://www.w3.org/Graphics/SVG/1.1/DTD/svg11.dtd">
<svg version="1.1" id="레이어_1" xmlns="http://www.w3.org/2000/svg" xmlns:xlink="http://www.w3.org/1999/xlink" x="0px"
	 y="0px" width="400px" height="200px" viewBox="0 0 400 200" enable-background="new 0 0 400 200" xml:space="preserve">
<g>
	<path fill="#FA1616" d="M234.611,68.931c7.18-5.711,16.424-8.609,25.566-8.444c7.816-0.093,15.809,1.584,22.501,5.749
		c1.886,1.201,3.943,2.394,5.071,4.408c1.584,2.697,1.531,6.3-0.275,8.876c-1.907,2.867-5.692,4.226-9.004,3.352
		c-2.372-0.55-4.095-2.382-6.19-3.49c-5.171-3.047-11.496-4.133-17.362-2.812c-4.908,1.101-9.354,4.041-12.356,8.066
		c-5.459,7.23-6.322,17.38-2.882,25.664c2.027,4.876,5.727,9.116,10.493,11.46c3.832,1.971,8.266,2.547,12.526,2.114
		c4.155-0.335,8.168-1.869,11.573-4.261c1.466-0.944,2.697-2.262,4.343-2.909c2.084-0.853,4.534-0.721,6.53,0.313
		c2.674,1.336,4.468,4.288,4.288,7.29c-0.095,2.177-1.189,4.246-2.84,5.649c-3.678,3.232-7.938,5.844-12.589,7.408
		c-3.925,1.359-8.071,1.961-12.206,2.179h-4.673c-5.549-0.32-11.076-1.648-16.034-4.188c-7.325-3.627-13.355-9.747-16.977-17.064
		c-4.271-8.563-5.211-18.636-3.044-27.923C223.027,81.983,227.825,74.26,234.611,68.931L234.611,68.931z"/>
	<path fill="#FA1616" d="M207.039,62.122c2.359-1.403,5.379-1.451,7.886-0.415c3.655,1.496,5.349,5.987,4.288,9.662
		c-0.451,1.611-1.318,3.067-2.337,4.381c-6.225,8.376-12.447,16.752-18.671,25.125c-1.861,2.554-3.815,5.049-5.624,7.638
		c-0.053,6.675-0.007,13.352-0.022,20.025c-0.032,1.341,0.125,2.707-0.225,4.017c-0.511,2.134-1.904,4.033-3.79,5.153
		c-2.762,1.694-6.499,1.611-9.184-0.203c-2.299-1.503-3.746-4.223-3.693-6.972c0.01-7.238-0.003-14.475,0.007-21.716
		c-8.263-11.208-16.534-22.406-24.802-33.609c-1.264-1.716-2.077-3.813-2.039-5.964c-0.043-2.519,1.233-5.011,3.282-6.472
		c2.332-1.732,5.549-2.121,8.268-1.141c2.131,0.76,3.755,2.472,5.031,4.286c6.269,9.014,12.549,18.02,18.806,27.044
		c6.032-8.594,12.066-17.185,18.1-25.778C203.613,65.269,204.994,63.302,207.039,62.122L207.039,62.122z"/>
	<path fill="#FA1616" d="M364.913,73.067c-5.699-6.14-13.452-10.252-21.666-11.804c-9.599-1.804-19.866-0.621-28.553,3.957
		c-6.455,3.38-11.953,8.581-15.611,14.883c-3.995,6.794-5.761,14.818-5.241,22.664c0.453,7.963,3.382,15.781,8.391,22
		c5.116,6.442,12.381,11.073,20.299,13.237c3.145,0.878,6.389,1.346,9.646,1.538h4.424c2.059-0.138,4.118-0.34,6.147-0.731
		c7.955-1.469,15.496-5.312,21.198-11.073c6.116-6.097,10.053-14.3,11.052-22.874v-9.961
		C374.047,86.807,370.502,79.019,364.913,73.067z M351.914,116.205c-3.1,3.685-7.465,6.257-12.169,7.263
		c-4.896,1.048-10.138,0.58-14.708-1.491c-4.113-1.851-7.613-4.996-9.952-8.849c-3.753-6.087-4.578-13.785-2.597-20.619
		c1.526-5.326,4.976-10.125,9.699-13.062c2.762-1.754,5.934-2.827,9.174-3.235c4.694-0.59,9.584,0.188,13.78,2.401
		c4.771,2.469,8.529,6.745,10.555,11.704C359.164,98.77,357.906,109.19,351.914,116.205z"/>
	<path fill="#FA1616" d="M82.732,74.813c-2.432-4.731-6.58-8.478-11.398-10.68c-4.846-2.252-10.25-3.082-15.564-3.022
		c-7.51,0.005-15.021,0-22.533,0.003c-1.766,0.025-3.518,0.611-4.931,1.676c-1.876,1.371-3.078,3.58-3.305,5.887v62.704
		c0.263,2.542,1.711,4.946,3.907,6.275c3.082,1.946,7.428,1.634,10.145-0.821c1.804-1.553,2.849-3.916,2.837-6.292
		c-0.005-5.296-0.003-10.593-0.003-15.889c4.879-0.01,9.757,0.01,14.635-0.007c7.436-0.283,15.088-2.401,20.807-7.343
		c4.365-3.712,7.175-9.087,7.998-14.735C86.187,86.581,85.582,80.222,82.732,74.813z M66.356,94.872
		c-2.379,3.197-6.46,4.648-10.333,4.766c-4.711,0.005-9.422,0-14.133,0c-0.003-7.753-0.003-15.508-0.003-23.261
		c4.463-0.005,8.924,0.003,13.387-0.005c3.28,0.018,6.72,0.723,9.367,2.764c2.156,1.619,3.442,4.205,3.778,6.847
		C68.835,89.058,68.297,92.38,66.356,94.872z"/>
	<path fill="#FA1616" d="M157.788,129.749c-0.323-1.676-1.186-3.178-1.833-4.736c-8.601-19.354-17.187-38.715-25.791-58.069
		c-1.378-3.085-4.163-5.671-7.578-6.204c-2.915-0.43-6.109-0.276-8.661,1.349c-2.181,1.349-3.68,3.558-4.616,5.906
		c-8.696,19.574-17.38,39.153-26.079,58.724c-0.578,1.296-1.226,2.622-1.256,4.07c-0.173,2.874,1.418,5.749,3.932,7.148
		c2.397,1.343,5.464,1.293,7.87-0.003c1.744-0.919,3.052-2.524,3.813-4.323c1.776-4.176,3.565-8.346,5.344-12.519
		c11.208-0.005,22.416,0.005,33.621-0.005c1.769,4.073,3.5,8.164,5.259,12.241c0.953,2.149,2.585,4.11,4.811,4.996
		c2.824,1.13,6.314,0.671,8.573-1.426C157.186,135.153,158.214,132.364,157.788,129.749z M109.196,106.211
		c3.502-8.366,7.038-16.715,10.547-25.075c3.55,8.351,7.05,16.724,10.568,25.088C123.274,106.19,116.237,106.218,109.196,106.211z"
		/>
</g>
</svg>
