<?xml version="1.0" encoding="utf-8"?>
<!-- Generator: Adobe Illustrator 17.0.0, SVG Export Plug-In . SVG Version: 6.00 Build 0)  -->
<!DOCTYPE svg PUBLIC "-//W3C//DTD SVG 1.1//EN" "http://www.w3.org/Graphics/SVG/1.1/DTD/svg11.dtd">
<svg version="1.1" id="레이어_1" xmlns="http://www.w3.org/2000/svg" xmlns:xlink="http://www.w3.org/1999/xlink" x="0px"
	 y="0px" width="400px" height="200px" viewBox="0 0 400 200" enable-background="new 0 0 400 200" xml:space="preserve">
<g>
	<path fill="#FFFFFF" d="M237.414,66.413c7.762-6.174,17.755-9.306,27.637-9.128c8.449-0.1,17.09,1.712,24.324,6.215
		c2.039,1.298,4.262,2.588,5.482,4.765c1.712,2.915,1.655,6.81-0.297,9.595c-2.061,3.099-6.153,4.568-9.733,3.624
		c-2.564-0.595-4.427-2.575-6.691-3.773c-5.59-3.294-12.427-4.468-18.769-3.04c-5.306,1.19-10.112,4.368-13.357,8.719
		c-5.901,7.816-6.834,18.788-3.116,27.743c2.191,5.271,6.191,9.855,11.343,12.389c4.143,2.131,8.936,2.753,13.541,2.285
		c4.492-0.362,8.83-2.02,12.511-4.606c1.585-1.02,2.915-2.445,4.695-3.145c2.253-0.922,4.901-0.779,7.059,0.338
		c2.891,1.444,4.83,4.635,4.635,7.881c-0.103,2.353-1.285,4.59-3.07,6.107c-3.976,3.494-8.581,6.318-13.609,8.008
		c-4.243,1.469-8.725,2.12-13.195,2.356h-5.052c-5.999-0.346-11.973-1.782-17.333-4.527c-7.919-3.921-14.437-10.537-18.353-18.447
		c-4.617-9.257-5.633-20.146-3.291-30.185C224.892,80.523,230.079,72.174,237.414,66.413L237.414,66.413z"/>
	<path fill="#FFFFFF" d="M207.608,59.052c2.55-1.517,5.815-1.569,8.525-0.449c3.951,1.617,5.782,6.472,4.635,10.445
		c-0.487,1.742-1.425,3.316-2.526,4.736c-6.729,9.055-13.455,18.109-20.184,27.161c-2.012,2.761-4.124,5.458-6.08,8.257
		c-0.057,7.216-0.008,14.434-0.024,21.647c-0.035,1.45,0.135,2.926-0.243,4.343c-0.552,2.307-2.058,4.36-4.097,5.571
		c-2.986,1.831-7.026,1.742-9.928-0.219c-2.485-1.625-4.049-4.565-3.992-7.537c0.011-7.824-0.003-15.648,0.008-23.475
		c-8.933-12.116-17.874-24.221-26.812-36.332c-1.366-1.855-2.245-4.122-2.204-6.447c-0.046-2.723,1.333-5.417,3.548-6.996
		c2.521-1.872,5.999-2.293,8.938-1.233c2.304,0.822,4.059,2.672,5.439,4.633c6.777,9.744,13.566,19.48,20.33,29.235
		c6.521-9.29,13.044-18.577,19.567-27.867C203.905,62.454,205.398,60.328,207.608,59.052L207.608,59.052z"/>
	<path fill="#FFFFFF" d="M378.274,70.884c-6.161-6.637-14.542-11.083-23.421-12.76c-10.377-1.95-21.476-0.671-30.866,4.278
		c-6.978,3.654-12.922,9.276-16.876,16.089c-4.319,7.345-6.228,16.019-5.666,24.5c0.49,8.608,3.656,17.06,9.071,23.783
		c5.531,6.964,13.384,11.97,21.944,14.309c3.4,0.949,6.907,1.455,10.428,1.663h4.782c2.226-0.149,4.452-0.368,6.645-0.79
		c8.6-1.588,16.752-5.742,22.915-11.97c6.612-6.591,10.867-15.459,11.948-24.727V94.491
		C388.148,85.737,384.316,77.318,378.274,70.884z M364.221,117.517c-3.351,3.984-8.07,6.764-13.155,7.851
		c-5.293,1.133-10.959,0.627-15.9-1.612c-4.446-2.001-8.23-5.401-10.758-9.566c-4.057-6.58-4.949-14.902-2.807-22.29
		c1.65-5.758,5.379-10.945,10.485-14.12c2.986-1.896,6.415-3.056,9.917-3.497c5.074-0.638,10.361,0.203,14.896,2.596
		c5.157,2.669,9.22,7.291,11.41,12.652C372.059,98.67,370.699,109.934,364.221,117.517z"/>
	<path fill="#FFFFFF" d="M73.23,72.772c-2.629-5.114-7.113-9.165-12.322-11.545c-5.239-2.434-11.08-3.332-16.825-3.267
		c-8.119,0.005-16.238,0-24.359,0.003c-1.909,0.027-3.803,0.66-5.331,1.812c-2.028,1.482-3.327,3.87-3.573,6.364v67.785
		c0.284,2.748,1.85,5.347,4.224,6.783c3.332,2.104,8.03,1.766,10.967-0.887c1.95-1.679,3.08-4.233,3.067-6.802
		c-0.005-5.725-0.003-11.451-0.003-17.176c5.274-0.011,10.547,0.011,15.821-0.008c8.038-0.306,16.311-2.596,22.493-7.938
		c4.719-4.013,7.756-9.823,8.646-15.929C76.965,85.493,76.311,78.619,73.23,72.772z M55.527,94.456
		c-2.572,3.456-6.983,5.025-11.17,5.152c-5.093,0.005-10.185,0-15.278,0c-0.003-8.381-0.003-16.765-0.003-25.146
		c4.825-0.005,9.647,0.003,14.472-0.005c3.546,0.019,7.264,0.782,10.126,2.988c2.331,1.75,3.721,4.546,4.084,7.402
		C58.207,88.171,57.625,91.762,55.527,94.456z"/>
	<path fill="#FFFFFF" d="M154.367,132.159c-0.349-1.812-1.282-3.435-1.982-5.12c-9.298-20.922-18.58-41.852-27.881-62.774
		c-1.49-3.335-4.5-6.131-8.192-6.707c-3.151-0.465-6.604-0.298-9.363,1.458c-2.358,1.458-3.978,3.846-4.99,6.385
		c-9.401,21.16-18.788,42.325-28.192,63.482c-0.625,1.401-1.325,2.834-1.358,4.4c-0.187,3.107,1.533,6.215,4.251,7.727
		c2.591,1.452,5.907,1.398,8.508-0.003c1.885-0.993,3.299-2.729,4.122-4.673c1.92-4.514,3.854-9.022,5.777-13.533
		c12.116-0.005,24.232,0.005,36.345-0.005c1.912,4.403,3.784,8.825,5.685,13.233c1.03,2.323,2.794,4.443,5.201,5.401
		c3.053,1.222,6.826,0.725,9.268-1.542C153.716,138.001,154.827,134.985,154.367,132.159z M101.838,106.713
		c3.786-9.044,7.608-18.069,11.402-27.107c3.838,9.028,7.621,18.079,11.424,27.121C117.056,106.691,109.449,106.721,101.838,106.713
		z"/>
</g>
</svg>
