<?xml version="1.0" encoding="utf-8"?>
<!-- Generator: Adobe Illustrator 17.0.0, SVG Export Plug-In . SVG Version: 6.00 Build 0)  -->
<!DOCTYPE svg PUBLIC "-//W3C//DTD SVG 1.1//EN" "http://www.w3.org/Graphics/SVG/1.1/DTD/svg11.dtd">
<svg version="1.1" id="레이어_1" xmlns="http://www.w3.org/2000/svg" xmlns:xlink="http://www.w3.org/1999/xlink" x="0px"
	 y="0px" width="200px" height="200px" viewBox="0 0 200 200" enable-background="new 0 0 200 200" xml:space="preserve">
<g>
	<path fill="#012E82" d="M42.569,10.177c0.391-4.428,4.448-8.013,8.869-7.972c20.231-0.013,40.469,0,60.699,0
		c12.717,0.236,26.006,1.469,37.321,7.79c9.455,5.257,16.208,15.17,17.535,25.919c0.836,5.371,0.33,10.843-0.505,16.181
		c-2.588,15.85-8.687,31.93-20.918,42.854c-11.308,10.196-26.586,14.846-41.554,15.763c-8.505,0.613-17.037,0.229-25.555,0.357
		c-4.839-0.465-9.044,3.646-9.495,8.316c-2.958,18.944-5.984,37.881-8.916,56.824c-12.508,0.02-25.022,0.081-37.524-0.027
		c-3.154,0.148-5.701-3.127-5.108-6.139C25.816,116.757,34.173,63.464,42.569,10.177z"/>
	<path fill="#089DDD" d="M145.571,94.949c12.232-10.924,18.33-27.004,20.918-42.854c7.056,3.646,12.467,10.223,14.59,17.886
		c2.622,9.111,1.644,18.816-0.384,27.94c-2.534,11.396-7.595,22.583-16.187,30.697c-7.817,7.474-18.175,11.82-28.736,13.613
		c-6.914,1.274-13.957,1.334-20.959,1.355c-3.686,0.02-6.813,3.147-7.211,6.746c-2.271,13.701-4.259,27.442-6.564,41.136
		c-0.566,3.686-4.084,6.517-7.811,6.321c-10.324,0.007-20.649,0.034-30.973-0.02c-2.642,0.202-5.102-2.244-4.738-4.899
		c0.681-5.573,1.759-11.093,2.534-16.659c2.932-18.944,5.957-37.881,8.916-56.824c0.452-4.67,4.657-8.781,9.495-8.316
		c8.518-0.128,17.05,0.256,25.555-0.357C118.985,109.795,134.262,105.145,145.571,94.949z"/>
	<path fill="#022069" d="M139.09,47.986c-17.415,0-34.836-0.012-52.251,0c-3.806-0.035-7.298,3.051-7.634,6.863
		c-3.295,20.911-6.582,41.823-9.87,62.736c1.202-3.869,4.924-6.919,9.127-6.515c8.518-0.128,17.05,0.256,25.555-0.357
		c14.968-0.917,30.245-5.567,41.554-15.763c12.148-10.85,18.243-26.784,20.861-42.529C157.836,48.945,148.291,48.157,139.09,47.986z
		"/>
</g>
</svg>
