<?xml version="1.0" encoding="utf-8"?>
<!-- Generator: Adobe Illustrator 17.0.0, SVG Export Plug-In . SVG Version: 6.00 Build 0)  -->
<!DOCTYPE svg PUBLIC "-//W3C//DTD SVG 1.1//EN" "http://www.w3.org/Graphics/SVG/1.1/DTD/svg11.dtd">
<svg version="1.1" id="레이어_1" xmlns="http://www.w3.org/2000/svg" xmlns:xlink="http://www.w3.org/1999/xlink" x="0px"
	 y="0px" width="400px" height="200px" viewBox="0 0 400 200" enable-background="new 0 0 400 200" xml:space="preserve">
<g>
	<path fill="#F7B706" d="M140.24,53.081h3.306c0.482,0.716,0.8,1.522,1.237,2.264c0.424,0.692,0.015,1.507-0.065,2.242
		c-1.699,9.366-3.003,18.819-3.587,28.324c2.056-1.155,3.991-2.519,6.006-3.745c7.103-4.448,14.218-8.88,21.444-13.126
		c1.838-1.109,3.862-1.965,5.436-3.466c2.605-2.45,5.503-4.636,8.763-6.136c2.27-1.042,4.757-1.764,7.276-1.628
		c0.731-0.089,0.761,0.785,0.839,1.293c0.199,1.328-0.454,2.569-0.474,3.883c-2.16,2.324-4.703,4.253-7.276,6.095
		c-7.079,4.949-14.709,9.029-22.253,13.209c-3.325,1.844-6.675,3.654-9.901,5.665c-1.392,1.248-3.025,2.173-4.616,3.137
		c-1.764,1.053-3.555,2.063-5.299,3.144c-0.636,0.279-0.863,1.239-0.43,1.747c6.476,4.456,13.217,8.566,19.256,13.622
		c1.101,0.943,2.396,1.602,3.751,2.095c7.014,3.109,13.049,7.935,19.375,12.192c0.679,0.424,1.312,0.941,2.05,1.265
		c6.549,0.277,13.328-0.534,19.217-3.578c3.049-1.589,5.866-3.823,7.637-6.813c1.533-2.696,2.376-5.844,2.071-8.954
		c-0.076-0.543-0.156-1.135-0.538-1.555c-1.574-1.73-3.764-2.906-6.099-3.152c-3.725-0.43-7.475,0.938-10.383,3.228
		c-3.282,2.597-5.868,6.136-7.159,10.132c-0.406,1.077-0.169,2.234-0.32,3.347c-2.279,0.404-4.422,1.537-6.781,1.529
		c-0.789-0.093-1.457-0.603-2.011-1.139c-0.337-0.275-0.322-0.733-0.372-1.122c-0.737-7.194-0.532-14.452,0.106-21.643
		c0.015-0.791,0.491-1.466,0.597-2.24c0.478-2.835,0.612-5.715,0.765-8.582c0.731-0.646,1.661-0.988,2.56-1.33
		c1.295-0.45,2.629-0.858,4.006-0.943c0.627-0.037,0.685,0.742,0.865,1.181c1.042,3.747,0.357,7.671,0.009,11.468
		c-0.218,2.091-0.396,4.19-0.32,6.296c2.755-1.663,5.598-3.228,8.679-4.199c4.037-1.336,8.381-1.619,12.59-1.096
		c3.689,0.474,7.332,1.935,10.032,4.545c0.588,0.653,1.533,0.874,2.019,1.632c1.232,1.747,1.5,3.97,1.429,6.054
		c-0.147,3.911-1.764,7.732-4.424,10.597c-3.991,4.426-9.494,7.194-15.122,8.921c-3.849,1.139-7.838,1.89-11.857,1.991
		c-0.074,0.798-0.054,1.721-0.646,2.339c-0.75,0.391-1.57,0.681-2.169,1.308c-0.355,0.417-0.928,0.322-1.388,0.177
		c-3.994-1.232-7.769-3.062-11.475-4.971c-7.418-3.892-14.525-8.339-21.578-12.852c-5.008-3.178-9.894-6.551-15.005-9.561
		c-0.028,11.111,0.534,22.214,1.213,33.302c0.13,2.476,0.523,4.982,0.039,7.444h-1.903c-1.152-0.346-2.348-0.634-3.39-1.258
		c-0.277-0.143-0.437-0.415-0.534-0.696c-1.44-4.05-1.937-8.415-3.797-12.314c-1.189-6.121-1.669-12.361-2-18.582
		c-0.175-4.188-0.389-8.383-0.296-12.575c-1.704,0.999-3.52,1.79-5.163,2.889c-0.657,0.424-1.243,0.943-1.903,1.358
		c-0.571,0.37-1.293,0.372-1.857,0.75c-4.141,2.495-8.272,5.001-12.467,7.405c-2.709,1.531-5.408,3.105-8.301,4.272
		c-1.617,0.64-3.209,1.423-4.938,1.697c-0.562,0.026-1.235,0.171-1.697-0.234c-0.541-0.452-1.094-0.902-1.769-1.135
		c0.268-0.997,1.109-1.691,1.933-2.24c1.386-0.863,2.964-1.341,4.409-2.091c1.803-0.778,3.36-1.991,4.999-3.049
		c6.923-4.599,13.885-9.139,20.746-13.827c0.201-0.169,0.486-0.288,0.577-0.556c-0.848-0.783-2.019-1.103-2.861-1.896
		c-0.56-0.562-1.256-0.943-1.942-1.321c-6.711-3.818-13.829-6.945-20.186-11.362c-1.421-1.014-2.863-2.022-4.076-3.282
		c-0.084-0.681-0.348-1.338-0.359-2.028c1.001-1.511,2.608-2.515,4.171-3.373c0.729-0.32,1.624-0.912,2.383-0.357
		c2.203,1.302,4.272,2.817,6.45,4.162c1.293,0.761,2.566,1.643,4.061,1.957c0.761,0.166,1.434,0.579,2.134,0.906
		c5.412,2.698,10.722,5.615,15.803,8.899c0.519-8.499,1.961-16.934,4.141-25.163c0.882-3.185,1.808-6.381,3.135-9.412
		C137.929,54.019,139.109,53.611,140.24,53.081L140.24,53.081z"/>
	<path fill="#81786C" d="M315.676,77.73c1.602,0,3.206,0,4.811,0c-0.011,8.372,0.03,16.746-0.019,25.116
		c-1.544,0.205-3.178-0.011-4.755,0.104C315.626,94.545,315.702,86.136,315.676,77.73L315.676,77.73z"/>
	<path fill="#81786C" d="M387.937,77.734c1.555-0.006,3.111-0.013,4.67,0.002c0.002,2.432-0.039,4.865,0.019,7.297
		c0.852-0.013,1.704-0.009,2.56-0.011c0-2.43-0.004-4.863,0.002-7.293c1.602,0.063,3.222-0.132,4.811,0.106v19.144
		c-1.602,0.095-3.206,0.035-4.809,0.045c0.002-2.634-0.03-5.269,0.017-7.905c-0.869-0.065-1.738-0.03-2.605-0.028
		c0,2.636-0.017,5.271,0.009,7.909c-1.561,0.048-3.124,0.045-4.683,0C387.952,90.579,387.937,84.156,387.937,77.734L387.937,77.734z
		"/>
	<path fill="#81786C" d="M246.231,78.638c10.735,0.015,21.468-0.004,32.203,0.009c0,4.112,0.013,8.225-0.007,12.337
		c1.133,0.093,2.27,0.013,3.408,0.039c0.013,1.408,0.007,2.813,0.004,4.221c-5.73,0-11.462,0-17.191,0c-0.002,1.961,0,3.922,0,5.883
		c4.666,0.006,9.334,0.002,14.002,0.002c0.009,5.228,0.002,10.456,0.002,15.684c-1.609-0.002-3.219,0.022-4.826-0.013
		c0.009-3.812,0.015-7.626-0.004-11.44c-6.521-0.006-13.044,0-19.565-0.002c-2.852-0.043-5.715,0.084-8.56-0.065
		c0.084-1.392-0.039-2.789,0.069-4.179c4.692,0.017,9.388,0.043,14.08-0.013c-0.017-1.946-0.019-3.894,0.002-5.84
		c-5.678-0.041-11.358-0.006-17.038-0.017c0.022-1.414-0.045-2.832,0.035-4.246c10.257,0.054,20.515,0.017,30.772,0.019
		c-0.002-2.733,0.004-5.464-0.004-8.197c-6.804-0.011-13.609,0-20.413-0.004c-2.333-0.032-4.67,0.065-6.999-0.048
		C246.24,81.39,246.186,80.013,246.231,78.638L246.231,78.638z"/>
	<path fill="#81786C" d="M0,78.77c1.818-0.032,3.637-0.006,5.457-0.013c0.022,5.578-0.022,11.159,0.019,16.737
		c6.683-5.565,13.343-11.163,20.052-16.692c2.649-0.106,5.308-0.028,7.961-0.037c-0.391,0.406-0.837,0.755-1.287,1.094
		c-6.229,4.956-12.456,9.916-18.685,14.874c-0.435,0.331-0.863,0.672-1.25,1.057c7.449,6.577,14.826,13.235,22.259,19.829
		c0.266,0.24,0.515,0.499,0.759,0.763c-2.653,0-5.306,0.004-7.961-0.002c-7.289-6.683-14.558-13.392-21.87-20.054
		c0.002,6.688,0.024,13.377-0.011,20.063c-1.814-0.011-3.63-0.002-5.444-0.004V78.77L0,78.77z"/>
	<path fill="#81786C" d="M357.442,82.257c-0.949-2.234-2.919-3.883-5.101-4.854c-3.728-1.626-7.944-1.831-11.926-1.261
		c-2.802,0.448-5.645,1.466-7.68,3.511c-3.332,3.243-3.366,9.181-0.125,12.499c2.19,2.236,5.293,3.302,8.335,3.719
		c3.455,0.409,7.044,0.255,10.344-0.925c2.491-0.886,4.848-2.536,6.007-4.977C358.443,87.585,358.454,84.694,357.442,82.257z
		 M351.922,89.122c-1.04,1.163-2.538,1.79-4.026,2.143c-2.413,0.528-4.943,0.536-7.356,0.009c-1.494-0.363-3.014-0.962-4.058-2.136
		c-1.397-1.537-1.57-4.015-0.443-5.749c1.241-1.879,3.557-2.627,5.682-2.943c2.311-0.311,4.707-0.227,6.951,0.443
		c1.341,0.415,2.662,1.116,3.514,2.264C353.49,84.884,353.362,87.509,351.922,89.122z"/>
	<path fill="#81786C" d="M309.139,78.646c-7.552-0.022-15.105,0.022-22.655-0.022c-0.093,0.569-0.054,1.144-0.054,1.717
		c-0.002,5.831,0,11.665,0,17.496c7.574-0.009,15.148,0.017,22.722-0.013C309.126,91.431,309.15,85.04,309.139,78.646z
		 M304.318,93.613c-4.359,0.004-8.718,0.013-13.075-0.004c0-3.578-0.002-7.155,0-10.733c4.357-0.009,8.714-0.004,13.07-0.002
		C304.326,86.454,304.318,90.032,304.318,93.613z"/>
	<path fill="#81786C" d="M385.81,83.749c0.069-1.375,0.02-2.752,0.026-4.128c-2.817-0.048-5.65,0.091-8.458-0.069
		c0.067-1.161,0.011-2.324,0.041-3.488c-1.611-0.037-3.219-0.011-4.828-0.013c-0.03,1.194,0.048,2.389-0.043,3.581
		c-2.813-0.026-5.626-0.011-8.439-0.009c0.002,1.373-0.009,2.744,0.007,4.117c0.798-0.004,1.596-0.011,2.4,0.002
		c-1.97,2.458-2.331,6.071-0.865,8.858c1.036,1.937,2.995,3.215,5.062,3.836c2.333,0.692,4.837,0.761,7.226,0.32
		c2.212-0.415,4.419-1.451,5.799-3.286c2.099-2.817,1.892-7.029-0.311-9.732C384.218,83.732,385.012,83.73,385.81,83.749z
		 M378.915,91.455c-1.239,0.973-2.895,1.194-4.424,1.133c-1.341-0.071-2.763-0.419-3.743-1.39c-1.386-1.377-1.354-3.905,0.082-5.235
		c0.77-0.724,1.805-1.079,2.832-1.241c1.792-0.212,3.801-0.086,5.271,1.081C380.638,87.165,380.631,90.108,378.915,91.455z"/>
	<path fill="#81786C" d="M324.711,97.784c13.003-0.002,26.006-0.002,39.01,0c0.019,1.386,0.011,2.774,0.004,4.162
		c-10.019,0.011-20.041-0.024-30.061,0.017c0.028,3.291,0.002,6.582,0.015,9.872c8.809,0.002,17.617-0.004,26.428,0.002
		c0.004,1.388,0.011,2.776-0.004,4.166c-10.413-0.009-20.826-0.002-31.239-0.004c0-4.683,0-9.366-0.002-14.05
		c-1.386-0.006-2.772-0.004-4.158-0.004C324.701,100.558,324.688,99.172,324.711,97.784L324.711,97.784z"/>
	<path fill="#81786C" d="M70.534,99.736c-1.699-1.836-4.164-2.72-6.592-3.051c0.359-0.182,0.761-0.249,1.146-0.368
		c2.052-0.631,3.937-1.939,5.064-3.79c1.423-2.339,1.524-5.325,0.659-7.879c-0.698-2.091-2.441-3.689-4.437-4.532
		c-2.718-1.142-5.715-1.412-8.634-1.36c-6.082-0.013-12.164,0.019-18.246-0.017c-0.074,0.67-0.032,1.343-0.039,2.013
		c-0.006,11.872,0.011,23.745-0.006,35.619c6.668,0.03,13.338,0.002,20.009,0.013c2.727-0.078,5.498-0.525,7.965-1.738
		c2.147-1.062,3.978-2.867,4.811-5.139C73.427,106.275,72.977,102.285,70.534,99.736z M44.928,83.094
		c3.617-0.015,7.232-0.002,10.85-0.006c2.432-0.004,4.962-0.121,7.263,0.811c1.217,0.474,2.268,1.436,2.679,2.696
		c0.422,1.321,0.469,2.785,0.05,4.115c-0.415,1.317-1.477,2.363-2.718,2.928c-1.985,0.969-4.257,0.962-6.417,0.958
		c-3.903,0-7.805,0.002-11.708-0.002C44.925,90.761,44.921,86.928,44.928,83.094z M65.155,110.227
		c-1.719,1.362-3.991,1.699-6.119,1.821c-4.69,0.019-9.379-0.017-14.069,0.017c-0.097-4.378-0.015-8.763-0.041-13.146
		c4.556,0.004,9.109-0.009,13.665,0.006c2.216,0.117,4.564,0.478,6.376,1.862c1.418,1.072,2.123,2.874,2.112,4.621
		C67.159,107.178,66.595,109.096,65.155,110.227z"/>
	<path fill="#81786C" d="M290.759,101.894c1.602-0.006,3.206-0.006,4.809,0c0.011,3.319-0.024,6.638,0.019,9.957
		c8.426-0.032,16.852-0.009,25.278-0.013c-0.002,1.388,0,2.774,0,4.162c-10.035,0-20.071,0-30.106,0
		C290.75,111.297,290.752,106.597,290.759,101.894L290.759,101.894z"/>
	<path fill="#81786C" d="M396.871,100.781c-3.101-2.508-7.28-3.133-11.157-2.99c-3.371,0.143-6.93,0.975-9.488,3.302
		c-3.758,3.299-3.775,9.875-0.041,13.2c2.796,2.547,6.726,3.33,10.4,3.392c3.559-0.024,7.332-0.692,10.182-2.964
		c1.825-1.436,2.988-3.613,3.232-5.918v-2.411C399.656,104.227,398.603,102.156,396.871,100.781z M393.641,111.146
		c-1.217,1.159-2.878,1.704-4.504,1.97c-2.24,0.314-4.569,0.242-6.729-0.467c-1.284-0.437-2.545-1.181-3.271-2.361
		c-1.118-1.801-0.936-4.385,0.601-5.896c1.243-1.306,3.059-1.844,4.796-2.108c2.197-0.275,4.482-0.192,6.595,0.521
		c1.336,0.45,2.582,1.291,3.31,2.521C395.466,107.161,395.163,109.669,393.641,111.146z"/>
</g>
</svg>
