<?xml version="1.0" encoding="utf-8"?>
<!-- Generator: Adobe Illustrator 17.0.0, SVG Export Plug-In . SVG Version: 6.00 Build 0)  -->
<!DOCTYPE svg PUBLIC "-//W3C//DTD SVG 1.1//EN" "http://www.w3.org/Graphics/SVG/1.1/DTD/svg11.dtd">
<svg version="1.1" id="레이어_1" xmlns="http://www.w3.org/2000/svg" xmlns:xlink="http://www.w3.org/1999/xlink" x="0px"
	 y="0px" width="200px" height="200px" viewBox="0 0 200 200" enable-background="new 0 0 200 200" xml:space="preserve">
<g>
	<path fill="#D7006D" d="M141.147,20.905c4.156,2.932,11.357,8.012,15.294,10.788C152.505,28.916,145.305,23.837,141.147,20.905z"/>
	<path fill="#D7006D" d="M185.072,52.017L159.209,34h-0.003c0,0-0.003-0.18-0.003-0.18c-0.333-0.184-0.743,0.022-0.439,0.291
		C162.89,37.565,169,43.421,169,57.38v3.523l14.008,7.057c1.535,0.791,2.992,2.844,2.992,4.577V82.77
		c0,1.739-1.565,2.787-3.24,2.356L169,81.649v20.42c0,2.893-2.155,5.445-5.028,5.697l-9.038,0.706
		c-2.873,0.265-4.934-1.868-4.934-4.758V76.6l-26-6.608v46.38c0,31.415-21.842,44.54-49.45,40.403l-18.915-2.893
		C29.594,149.966,15,137.458,15,114.684V60.511c0-2.884,2.354-5.607,5.201-6.058l13.526-2.159C36.586,51.839,39,53.814,39,56.697
		v55.466c0,9.905,4.173,18.359,15.688,19.485l15.103,1.442C80.347,134.107,90,130.686,90,116.694V48.398
		c0-2.897,2.194-5.609,5.035-6.076l24.251-3.94c2.565-0.416,6.662,0.205,8.971,1.384L150,50.822v-2.655
		c0-15.854-5.132-24.743-11.894-29.525c-10.103-7.159-24.315-5.122-31.884-3.459L22.556,34.024C11.293,36.573,2,48.001,2,59.551
		v81.606c0,11.557,9.25,22.979,20.512,25.53l83.555,18.873c11.268,2.555,28.089-0.786,37.519-7.452l41.472-29.219
		C195.893,141.287,198,135.137,198,124.158V76.572C198,65.27,195.994,59.673,185.072,52.017z"/>
</g>
</svg>
