<?xml version="1.0" encoding="utf-8"?>
<!-- Generator: Adobe Illustrator 17.0.0, SVG Export Plug-In . SVG Version: 6.00 Build 0)  -->
<!DOCTYPE svg PUBLIC "-//W3C//DTD SVG 1.1//EN" "http://www.w3.org/Graphics/SVG/1.1/DTD/svg11.dtd">
<svg version="1.1" id="레이어_1" xmlns="http://www.w3.org/2000/svg" xmlns:xlink="http://www.w3.org/1999/xlink" x="0px"
	 y="0px" width="400px" height="200px" viewBox="0 0 400 200" enable-background="new 0 0 400 200" xml:space="preserve">
<g>
	<g>
		<path fill="#003878" d="M127.33,142.638h-25.163h-0.142v22.772h6.032c0,0,0-18.322,0-18.601c0.27,0,7.637,0,7.904,0
			c0,0.28,0,18.601,0,18.601h6.034c0,0,0-18.322,0-18.601c0.267,0,5.338,0,5.338,0c1.605,0,2.569,0.961,2.569,2.566v16.035h6.029
			v-16.035C135.928,144.78,133.198,142.638,127.33,142.638z"/>
		<path fill="#003878" d="M158.926,142.638h-5.14h-4.132c-5.862,0-8.595,2.142-8.595,6.737v9.3c0,4.595,2.733,6.734,8.595,6.734
			h9.272c5.865,0,8.598-2.139,8.598-6.734v-9.3C167.523,144.78,164.79,142.638,158.926,142.638z M147.092,149.374
			c0-1.605,0.959-2.566,2.564-2.566h9.272c1.607,0,2.566,0.961,2.566,2.566v9.3c0,1.63-0.934,2.566-2.566,2.566h-9.272
			c-1.63,0-2.564-0.936-2.564-2.566V149.374z"/>
		<path fill="#003878" d="M190.521,142.638c0,0-11.56,0-11.835,0c0-0.271,0-5.734,0-5.734c0-0.969-0.789-1.755-1.755-1.755h-4.134
			h-0.143v30.261h17.868c5.865,0,8.598-2.139,8.598-6.734v-9.3C199.117,144.778,196.386,142.638,190.521,142.638z M190.521,161.241
			c0,0-11.56,0-11.835,0c0-0.277,0-14.154,0-14.432c0.193,0,0.703,0,0.703,0h11.131c1.605,0,2.566,0.961,2.566,2.566v9.3
			C193.087,160.284,192.126,161.241,190.521,161.241z"/>
		<path fill="#003878" d="M219.684,135.148h-4.132h-0.142v30.261h6.032v-28.506C221.441,135.935,220.653,135.148,219.684,135.148z"
			/>
		<path fill="#003878" d="M232.602,158.675c0,0,0-2.309,0-2.566c0.277,0,11.835,0,11.835,0c5.867,0,8.596-2.139,8.596-6.734
			s-2.73-6.737-8.596-6.737h-9.269c-5.867,0-8.598,2.142-8.598,6.737v9.3c0,4.595,2.73,6.734,8.598,6.734h15.41
			c0.966,0,1.754-0.787,1.754-1.752v-2.417h-17.165C233.536,161.241,232.602,160.305,232.602,158.675z M232.602,149.374
			c0-1.605,0.959-2.566,2.566-2.566h9.269c1.605,0,2.566,0.961,2.566,2.566c0,1.607-0.961,2.566-2.566,2.566c0,0-11.558,0-11.835,0
			C232.602,151.686,232.602,149.374,232.602,149.374z"/>
		<g>
			<circle fill="#003878" cx="207.263" cy="136.691" r="3.468"/>
			<path fill="#003878" d="M208.524,142.63h-4.134h-0.139v22.779h6.029v-21.024C210.279,143.417,209.492,142.63,208.524,142.63z"/>
		</g>
	</g>
	<g>
		<g>
			<path fill="#003878" d="M202.75,58.363h-9.788v61.444h15.001V63.568C207.962,60.693,205.632,58.363,202.75,58.363z"/>
			<path fill="#003878" d="M227.764,58.363h-9.788v61.444h14.998V63.568C232.975,60.693,230.645,58.363,227.764,58.363z"/>
			<g>
				<path fill="#003878" d="M99.667,76.592H66.011V63.568c0-2.875-2.334-5.205-5.217-5.205h-9.791v61.444h15.008V83.933h24.39
					c3.625,0,6.556,2.934,6.556,6.559v29.315h15.002V88.886C111.959,82.097,106.461,76.592,99.667,76.592z"/>
			</g>
			<path fill="#003878" d="M291.662,76.592h-36.389c-6.786,0-12.293,5.505-12.293,12.293v18.635c0,6.782,5.507,12.287,12.293,12.287
				h36.389c6.783,0,12.283-5.505,12.283-12.287V88.886C303.945,82.097,298.447,76.592,291.662,76.592z M288.934,105.909
				c0,3.62-2.931,6.552-6.549,6.552h-17.844c-3.623,0-6.549-2.932-6.549-6.552V90.492c0-3.625,2.926-6.559,6.549-6.559h17.844
				c3.618,0,6.549,2.934,6.549,6.559V105.909z"/>
			<path fill="#003878" d="M134.262,119.807h43.467c2.87,0,5.205-2.33,5.205-5.207v-2.138h-34.234h-5.171
				c-3.618,0-6.559-2.932-6.559-6.552v-1.54h33.673c6.786,0,12.291-5.502,12.291-12.296v-3.188c0-6.788-5.505-12.293-12.291-12.293
				h-36.381c-6.783,0-12.291,5.505-12.291,12.293v18.635C121.971,114.302,127.478,119.807,134.262,119.807z M136.969,90.492
				c0-3.625,2.941-6.559,6.559-6.559h17.847c3.623,0,6.562,2.934,6.562,6.559c0,3.611-2.941,6.546-6.562,6.546h-24.405V90.492z"/>
		</g>
		<g>
			<g>
				<g>
					<path fill="#EC008C" d="M323.708,40.145c0,0.004,0.005,0.009,0.01,0.011c0.095,0.144,0.211,0.282,0.334,0.41
						c2.484,3.166,2.191,7.245,0.99,9.336h0.005c-0.172,0.285-0.277,0.614-0.277,0.97c0,1.03,0.836,1.867,1.87,1.867
						c1.031,0,1.867-0.837,1.867-1.867c0-0.356-0.103-0.686-0.277-0.97h0.008c-1.201-2.09-1.497-6.172,0.993-9.337
						c0.12-0.128,0.233-0.265,0.331-0.407c0.003-0.003,0.005-0.01,0.01-0.014l0,0c0.39-0.57,0.617-1.259,0.617-2.004
						c0-1.961-1.589-3.55-3.549-3.55c-1.962,0-3.554,1.589-3.554,3.55C323.085,38.886,323.316,39.574,323.708,40.145L323.708,40.145
						z"/>
				</g>
				
					<radialGradient id="SVGID_1_" cx="2779.8667" cy="-253.5732" r="22.9643" gradientTransform="matrix(0.2976 0 0 -0.2976 -500.6079 -40.8529)" gradientUnits="userSpaceOnUse">
					<stop  offset="0.0056" style="stop-color:#F287B7"/>
					<stop  offset="0.2226" style="stop-color:#F069A7"/>
					<stop  offset="0.5411" style="stop-color:#ED3293"/>
					<stop  offset="0.7" style="stop-color:#EC008C"/>
					<stop  offset="1" style="stop-color:#EC008C"/>
				</radialGradient>
				<circle fill="url(#SVGID_1_)" cx="326.639" cy="38.141" r="3.281"/>
				
					<radialGradient id="SVGID_2_" cx="-4728.1221" cy="5610.7949" r="22.9633" gradientTransform="matrix(-0.1491 0 0 0.1491 -378.4589 -784.0874)" gradientUnits="userSpaceOnUse">
					<stop  offset="0.0056" style="stop-color:#F287B7"/>
					<stop  offset="0.2226" style="stop-color:#F069A7"/>
					<stop  offset="0.5411" style="stop-color:#ED3293"/>
					<stop  offset="0.7" style="stop-color:#EC008C"/>
					<stop  offset="1" style="stop-color:#EC008C"/>
				</radialGradient>
				<circle fill="url(#SVGID_2_)" cx="326.636" cy="50.87" r="1.645"/>
			</g>
			<g>
				<g>
					<path fill="#EC008C" d="M312.682,47.14c0.005,0,0.013,0,0.015,0c0.172,0.033,0.35,0.05,0.527,0.054
						c3.998,0.482,6.673,3.574,7.303,5.901l0.003-0.005c0.079,0.324,0.238,0.632,0.491,0.882c0.73,0.73,1.911,0.73,2.641,0
						c0.73-0.73,0.73-1.912,0-2.643c-0.25-0.252-0.558-0.412-0.88-0.491l0.005-0.005c-2.328-0.63-5.423-3.306-5.901-7.305
						c-0.005-0.177-0.023-0.35-0.054-0.519c0-0.005-0.003-0.013-0.003-0.018l0,0c-0.125-0.679-0.453-1.329-0.978-1.855
						c-1.389-1.388-3.635-1.388-5.022-0.001c-1.387,1.387-1.387,3.635-0.003,5.024c0.527,0.524,1.178,0.851,1.857,0.975
						L312.682,47.14z"/>
				</g>
				
					<radialGradient id="SVGID_3_" cx="667.3135" cy="-1454.4316" r="22.9633" gradientTransform="matrix(0.2104 -0.2104 -0.2104 -0.2104 -135.6972 -124.5012)" gradientUnits="userSpaceOnUse">
					<stop  offset="0.0056" style="stop-color:#F287B7"/>
					<stop  offset="0.2226" style="stop-color:#F069A7"/>
					<stop  offset="0.5411" style="stop-color:#ED3293"/>
					<stop  offset="0.7" style="stop-color:#EC008C"/>
					<stop  offset="1" style="stop-color:#EC008C"/>
				</radialGradient>
				<circle fill="url(#SVGID_3_)" cx="313.34" cy="43.65" r="3.282"/>
				
					<radialGradient id="SVGID_4_" cx="-514.2303" cy="8008.9087" r="22.9564" gradientTransform="matrix(-0.1054 0.1054 0.1054 0.1054 -574.998 -736.422)" gradientUnits="userSpaceOnUse">
					<stop  offset="0.0056" style="stop-color:#F287B7"/>
					<stop  offset="0.2226" style="stop-color:#F069A7"/>
					<stop  offset="0.5411" style="stop-color:#ED3293"/>
					<stop  offset="0.7" style="stop-color:#EC008C"/>
					<stop  offset="1" style="stop-color:#EC008C"/>
				</radialGradient>
				<circle fill="url(#SVGID_4_)" cx="322.34" cy="52.651" r="1.644"/>
			</g>
			<g>
				<g>
					<path fill="#EC008C" d="M341.956,37.484c0,0.005-0.003,0.013,0,0.018c-0.034,0.171-0.051,0.348-0.056,0.524
						c-0.481,3.998-3.574,6.674-5.899,7.303l0.003,0.004c-0.324,0.08-0.63,0.237-0.882,0.489c-0.728,0.73-0.728,1.914,0.003,2.643
						c0.73,0.73,1.911,0.729,2.641,0c0.25-0.251,0.412-0.558,0.488-0.881l0.008,0.005c0.627-2.329,3.306-5.423,7.305-5.901
						c0.174-0.005,0.35-0.023,0.519-0.054c0.005,0.001,0.01-0.001,0.015-0.003l0,0c0.681-0.125,1.329-0.452,1.856-0.977
						c1.387-1.388,1.387-3.634,0-5.022c-1.388-1.387-3.635-1.389-5.022,0c-0.525,0.524-0.853,1.177-0.975,1.856L341.956,37.484z"/>
				</g>
				
					<radialGradient id="SVGID_5_" cx="3422.9124" cy="2083.0225" r="22.9596" gradientTransform="matrix(0.2104 0.2104 0.2104 -0.2104 -810.7242 -246.3604)" gradientUnits="userSpaceOnUse">
					<stop  offset="0.0056" style="stop-color:#F287B7"/>
					<stop  offset="0.2226" style="stop-color:#F069A7"/>
					<stop  offset="0.5411" style="stop-color:#ED3293"/>
					<stop  offset="0.7" style="stop-color:#EC008C"/>
					<stop  offset="1" style="stop-color:#EC008C"/>
				</radialGradient>
				<circle fill="url(#SVGID_5_)" cx="345.445" cy="38.141" r="3.281"/>
				
					<radialGradient id="SVGID_6_" cx="-6013.4585" cy="949.3776" r="22.9559" gradientTransform="matrix(-0.1054 -0.1054 -0.1054 0.1054 -198.8027 -685.6614)" gradientUnits="userSpaceOnUse">
					<stop  offset="0.0056" style="stop-color:#F287B7"/>
					<stop  offset="0.2226" style="stop-color:#F069A7"/>
					<stop  offset="0.5411" style="stop-color:#ED3293"/>
					<stop  offset="0.7" style="stop-color:#EC008C"/>
					<stop  offset="1" style="stop-color:#EC008C"/>
				</radialGradient>
				<circle fill="url(#SVGID_6_)" cx="336.444" cy="47.143" r="1.644"/>
			</g>
			<g>
				<g>
					<path fill="#EC008C" d="M309.835,59.881c0-0.004,0.008-0.008,0.01-0.013c0.144-0.095,0.282-0.211,0.409-0.333
						c3.166-2.487,7.246-2.192,9.337-0.991v-0.006c0.285,0.173,0.615,0.279,0.97,0.279c1.031,0,1.867-0.837,1.867-1.87
						c0-1.031-0.836-1.867-1.867-1.867c-0.355,0-0.686,0.104-0.97,0.277V55.35c-2.09,1.202-6.173,1.497-9.337-0.994
						c-0.13-0.12-0.265-0.231-0.407-0.33c-0.003-0.004-0.01-0.006-0.013-0.01l0,0c-0.571-0.39-1.26-0.619-2.005-0.619
						c-1.962,0-3.549,1.59-3.549,3.55c0,1.962,1.586,3.552,3.549,3.552c0.745,0,1.434-0.23,2.005-0.622V59.881z"/>
				</g>
				
					<radialGradient id="SVGID_7_" cx="-1675.0477" cy="-811.2697" r="22.9596" gradientTransform="matrix(0 -0.2976 -0.2976 0 62.8693 -441.5574)" gradientUnits="userSpaceOnUse">
					<stop  offset="0.0056" style="stop-color:#F287B7"/>
					<stop  offset="0.2226" style="stop-color:#F069A7"/>
					<stop  offset="0.5411" style="stop-color:#ED3293"/>
					<stop  offset="0.7" style="stop-color:#EC008C"/>
					<stop  offset="1" style="stop-color:#EC008C"/>
				</radialGradient>
				<circle fill="url(#SVGID_7_)" cx="307.83" cy="56.949" r="3.281"/>
				
					<radialGradient id="SVGID_8_" cx="4161.5713" cy="6723.666" r="22.9489" gradientTransform="matrix(0 0.1491 0.1491 0 -680.3652 -563.706)" gradientUnits="userSpaceOnUse">
					<stop  offset="0.0056" style="stop-color:#F287B7"/>
					<stop  offset="0.2226" style="stop-color:#F069A7"/>
					<stop  offset="0.5411" style="stop-color:#ED3293"/>
					<stop  offset="0.7" style="stop-color:#EC008C"/>
					<stop  offset="1" style="stop-color:#EC008C"/>
				</radialGradient>
				<circle fill="url(#SVGID_8_)" cx="320.56" cy="56.95" r="1.644"/>
			</g>
			<g>
				<g>
					<path fill="#EC008C" d="M343.444,59.881c-0.005-0.004-0.01-0.008-0.013-0.013c-0.144-0.095-0.282-0.211-0.412-0.331
						c-3.163-2.487-7.244-2.193-9.334-0.993V58.54c-0.285,0.172-0.612,0.277-0.97,0.277c-1.029,0-1.867-0.836-1.867-1.87
						c0-1.031,0.838-1.867,1.867-1.867c0.358,0,0.686,0.104,0.97,0.277V55.35c2.09,1.202,6.173,1.497,9.337-0.993
						c0.13-0.12,0.265-0.232,0.407-0.331c0.003-0.003,0.01-0.006,0.015-0.009l0,0c0.568-0.391,1.26-0.619,2.003-0.619
						c1.962,0,3.551,1.589,3.551,3.549c0,1.962-1.589,3.554-3.551,3.554c-0.743,0-1.434-0.231-2.003-0.624V59.881z"/>
				</g>
				
					<radialGradient id="SVGID_9_" cx="-1675.0469" cy="4201.333" r="22.9601" gradientTransform="matrix(0 -0.2976 0.2976 0 -901.3111 -441.5569)" gradientUnits="userSpaceOnUse">
					<stop  offset="0.0056" style="stop-color:#F287B7"/>
					<stop  offset="0.2226" style="stop-color:#F069A7"/>
					<stop  offset="0.5411" style="stop-color:#ED3293"/>
					<stop  offset="0.7" style="stop-color:#EC008C"/>
					<stop  offset="1" style="stop-color:#EC008C"/>
				</radialGradient>
				<circle fill="url(#SVGID_9_)" cx="345.447" cy="56.949" r="3.281"/>
				
					<radialGradient id="SVGID_10_" cx="4161.5679" cy="-3278.8979" r="22.9629" gradientTransform="matrix(0 0.1491 -0.1491 0 -158.0776 -563.7054)" gradientUnits="userSpaceOnUse">
					<stop  offset="0.0056" style="stop-color:#F287B7"/>
					<stop  offset="0.2226" style="stop-color:#F069A7"/>
					<stop  offset="0.5411" style="stop-color:#ED3293"/>
					<stop  offset="0.7" style="stop-color:#EC008C"/>
					<stop  offset="1" style="stop-color:#EC008C"/>
				</radialGradient>
				<circle fill="url(#SVGID_10_)" cx="332.717" cy="56.95" r="1.645"/>
			</g>
			<g>
				<g>
					<path fill="#EC008C" d="M323.708,73.755c0.003-0.004,0.005-0.01,0.01-0.01c0.098-0.147,0.211-0.285,0.334-0.412
						c2.484-3.167,2.193-7.246,0.99-9.337h0.008c-0.174-0.285-0.28-0.612-0.28-0.969c0-1.03,0.838-1.868,1.872-1.868
						c1.031,0,1.865,0.838,1.865,1.868c0,0.356-0.103,0.685-0.277,0.969h0.008c-1.201,2.092-1.497,6.173,0.995,9.338
						c0.12,0.129,0.231,0.264,0.329,0.405c0.005,0.004,0.008,0.01,0.01,0.015l0,0c0.391,0.568,0.62,1.26,0.62,2.003
						c0,1.962-1.589,3.551-3.551,3.551c-1.96,0-3.551-1.589-3.551-3.551c0-0.743,0.231-1.434,0.622-2.003
						C323.71,73.755,323.708,73.755,323.708,73.755z"/>
				</g>
				
					<radialGradient id="SVGID_11_" cx="2779.8625" cy="3643.6377" r="22.9606" gradientTransform="matrix(0.2976 0 0 0.2976 -500.6065 -1005.0338)" gradientUnits="userSpaceOnUse">
					<stop  offset="0.0056" style="stop-color:#F287B7"/>
					<stop  offset="0.2226" style="stop-color:#F069A7"/>
					<stop  offset="0.5411" style="stop-color:#ED3293"/>
					<stop  offset="0.7" style="stop-color:#EC008C"/>
					<stop  offset="1" style="stop-color:#EC008C"/>
				</radialGradient>
				<circle fill="url(#SVGID_11_)" cx="326.639" cy="75.757" r="3.281"/>
				
					<radialGradient id="SVGID_12_" cx="-4728.126" cy="-2166.021" r="22.9629" gradientTransform="matrix(-0.1491 0 0 -0.1491 -378.4574 -261.7993)" gradientUnits="userSpaceOnUse">
					<stop  offset="0.0056" style="stop-color:#F287B7"/>
					<stop  offset="0.2226" style="stop-color:#F069A7"/>
					<stop  offset="0.5411" style="stop-color:#ED3293"/>
					<stop  offset="0.7" style="stop-color:#EC008C"/>
					<stop  offset="1" style="stop-color:#EC008C"/>
				</radialGradient>
				<circle fill="url(#SVGID_12_)" cx="326.639" cy="63.028" r="1.645"/>
			</g>
			<g>
				<g>
					<path fill="#EC008C" d="M312.682,66.76c0.005-0.001,0.013-0.003,0.015,0c0.172-0.034,0.35-0.051,0.527-0.056
						c3.998-0.481,6.673-3.574,7.303-5.9l0.003,0.004c0.079-0.324,0.238-0.63,0.491-0.882c0.73-0.729,1.911-0.728,2.641,0.001
						c0.73,0.732,0.73,1.912,0,2.643c-0.25,0.252-0.558,0.41-0.882,0.491l0.008,0.005c-2.328,0.629-5.423,3.306-5.901,7.305
						c-0.008,0.176-0.023,0.35-0.054,0.519c0,0.006-0.003,0.011-0.003,0.016l0,0c-0.125,0.679-0.453,1.329-0.978,1.856
						c-1.389,1.387-3.635,1.387-5.022,0c-1.387-1.387-1.39-3.634-0.003-5.022c0.527-0.527,1.178-0.853,1.857-0.976L312.682,66.76z"
						/>
				</g>
				
					<radialGradient id="SVGID_13_" cx="3422.9128" cy="1301.1626" r="22.9578" gradientTransform="matrix(0.2104 0.2104 -0.2104 0.2104 -135.6977 -921.3854)" gradientUnits="userSpaceOnUse">
					<stop  offset="0.0056" style="stop-color:#F287B7"/>
					<stop  offset="0.2226" style="stop-color:#F069A7"/>
					<stop  offset="0.5411" style="stop-color:#ED3293"/>
					<stop  offset="0.7" style="stop-color:#EC008C"/>
					<stop  offset="1" style="stop-color:#EC008C"/>
				</radialGradient>
				<circle fill="url(#SVGID_13_)" cx="313.34" cy="70.25" r="3.281"/>
				
					<radialGradient id="SVGID_14_" cx="-6013.4551" cy="2509.6909" r="22.9629" gradientTransform="matrix(-0.1054 -0.1054 0.1054 -0.1054 -574.998 -309.4642)" gradientUnits="userSpaceOnUse">
					<stop  offset="0.0056" style="stop-color:#F287B7"/>
					<stop  offset="0.2226" style="stop-color:#F069A7"/>
					<stop  offset="0.5411" style="stop-color:#ED3293"/>
					<stop  offset="0.7" style="stop-color:#EC008C"/>
					<stop  offset="1" style="stop-color:#EC008C"/>
				</radialGradient>
				<circle fill="url(#SVGID_14_)" cx="322.34" cy="61.248" r="1.645"/>
			</g>
			<g>
				<g>
					<path fill="#EC008C" d="M336.45,70.905c-0.003-0.005-0.003-0.01,0-0.015c-0.036-0.172-0.051-0.35-0.056-0.526
						c-0.481-3.998-3.574-6.674-5.901-7.303l0.005-0.004c-0.324-0.078-0.63-0.237-0.882-0.491c-0.73-0.728-0.73-1.911,0-2.643
						c0.733-0.73,1.914-0.729,2.641,0c0.252,0.252,0.412,0.558,0.491,0.882l0.005-0.005c0.63,2.329,3.306,5.421,7.308,5.899
						c0.174,0.008,0.348,0.024,0.519,0.054c0.005,0,0.01,0.003,0.015,0.004l0,0c0.679,0.127,1.329,0.452,1.856,0.979
						c1.387,1.387,1.387,3.634,0,5.02c-1.387,1.388-3.634,1.388-5.022,0.001c-0.527-0.527-0.853-1.177-0.977-1.857v0.004H336.45z"/>
				</g>
				
					<radialGradient id="SVGID_15_" cx="667.3137" cy="4845.4199" r="22.9554" gradientTransform="matrix(0.2104 -0.2104 0.2104 0.2104 -817.6635 -806.4677)" gradientUnits="userSpaceOnUse">
					<stop  offset="0.0056" style="stop-color:#F287B7"/>
					<stop  offset="0.2226" style="stop-color:#F069A7"/>
					<stop  offset="0.5411" style="stop-color:#ED3293"/>
					<stop  offset="0.7" style="stop-color:#EC008C"/>
					<stop  offset="1" style="stop-color:#EC008C"/>
				</radialGradient>
				<circle fill="url(#SVGID_15_)" cx="339.938" cy="70.248" r="3.281"/>
				
					<radialGradient id="SVGID_16_" cx="-514.2349" cy="-4563.4243" r="22.9615" gradientTransform="matrix(-0.1054 0.1054 -0.1054 -0.1054 -205.7428 -367.1661)" gradientUnits="userSpaceOnUse">
					<stop  offset="0.0056" style="stop-color:#F287B7"/>
					<stop  offset="0.2226" style="stop-color:#F069A7"/>
					<stop  offset="0.5411" style="stop-color:#ED3293"/>
					<stop  offset="0.7" style="stop-color:#EC008C"/>
					<stop  offset="1" style="stop-color:#EC008C"/>
				</radialGradient>
				<circle fill="url(#SVGID_16_)" cx="330.937" cy="61.248" r="1.645"/>
			</g>
		</g>
	</g>
</g>
</svg>
