<?xml version="1.0" encoding="utf-8"?>
<!-- Generator: Adobe Illustrator 17.0.0, SVG Export Plug-In . SVG Version: 6.00 Build 0)  -->
<!DOCTYPE svg PUBLIC "-//W3C//DTD SVG 1.1//EN" "http://www.w3.org/Graphics/SVG/1.1/DTD/svg11.dtd">
<svg version="1.1" id="레이어_1" xmlns="http://www.w3.org/2000/svg" xmlns:xlink="http://www.w3.org/1999/xlink" x="0px"
	 y="0px" width="400px" height="200px" viewBox="0 0 400 200" enable-background="new 0 0 400 200" xml:space="preserve">
<g>
	<path fill="#FFFFFF" d="M230.37,64.844c8.477-1.585,17.896,0.214,24.313,6.248c12.096,11.098,14.427,30.729,6.435,44.839
		c-4.476,8.235-12.068,14.903-21.03,17.803c-13.429,4.775-29.414,0.616-39.029-9.83c-9.279-9.969-12.31-26.075-5.521-38.199
		c4.141-7.004,11.256-11.527,18.363-15.099C219.113,67.996,224.588,65.805,230.37,64.844L230.37,64.844z"/>
	<path fill="#FFFFFF" d="M358.116,74.86c2.975-0.476,6.006-0.643,8.971,0c3.441,9.96,7.862,19.566,11.368,29.498
		c3.963-9.746,6.938-19.855,10.585-29.731c2.891-0.103,5.791-0.103,8.682,0.065c-2.956,9.037-6.799,17.766-10.137,26.672
		c-3.143,7.694-5.624,15.723-9.792,22.951c-3.721,6.528-11.005,11.275-18.698,10.51c0-2.21,0.009-4.43,0.047-6.64
		c3.068-0.718,6.388-1.231,8.878-3.339c2.723-2.276,4.812-5.316,6.09-8.626c0.886-2.499-0.625-4.915-1.539-7.162
		C367.703,97.681,362.835,86.303,358.116,74.86L358.116,74.86z"/>
	<path fill="#FFFFFF" d="M13.487,76.128c9.335-2.854,20.06-0.979,27.623,5.278c7.06,5.568,10.389,14.213,13.821,22.214
		c0.532,0.737,0.42,2.537,1.697,2.266c3.749-10.016,7.162-20.163,10.958-30.169c2.574-0.065,5.148-0.065,7.722,0.037
		c-2.76,9.391-6.966,18.316-10.314,27.53c-3.012,7.423-5.428,15.183-9.643,22.056c-3.628,6.006-10.622,10.025-17.701,9.531
		c-0.009-2.192-0.009-4.393,0-6.584c6.789-0.42,12.413-5.334,14.604-11.62c1.287-2.565-0.83-5.017-1.716-7.33
		c-4.234-7.908-6.621-17.449-14.194-22.998c-5.754-4.719-14.054-6.015-21.011-3.488c-2.835,0.821-4.7,4.775-2.341,7.022
		c4.262,3.562,10.193,3.329,15.192,5.26c4.98,1.39,10.548,5.185,10.333,10.949c0.429,3.73-1.035,7.47-3.898,9.885
		c-3.861,3.665-9.494,4.215-14.558,3.963c-6.491-0.056-13.094-2.285-17.785-6.873c1.418-1.772,2.835-3.553,4.197-5.362
		c3.469,1.791,6.715,4.243,10.678,4.812c4.085,0.69,8.916,1.017,12.338-1.744c2.387-1.735,2.126-5.735-0.504-7.116
		c-6.593-4.094-15.406-3.059-21.347-8.459c-3.525-2.76-3.898-7.806-2.667-11.807C6.492,79.822,9.924,77.387,13.487,76.128
		L13.487,76.128z"/>
	<path fill="#FFFFFF" d="M80.717,83.738c3.581-5.409,10.1-8.505,16.544-8.123c0.103,2.415,0.112,4.831-0.112,7.246
		c-5.745-0.177-11.424,4.094-12.254,9.876c-0.765,8.944,0.504,17.99-0.681,26.896c-2.303-0.056-4.607-0.056-6.91-0.112
		c-0.252-7.256-0.065-14.511-0.131-21.767C77.117,92.906,77.742,87.749,80.717,83.738L80.717,83.738z"/>
	<path fill="#FFFFFF" d="M103.5,75.718c2.462-0.065,4.933-0.056,7.395,0c0.14,9.54-0.084,19.081,0.103,28.612
		c-0.121,3.824,2.555,7.498,6.323,8.328c3.777,0.811,8.533,0.597,11.144-2.658c1.819-2.042,2.238-4.859,2.21-7.498
		c0.028-8.925-0.056-17.859,0.037-26.784c2.453-0.065,4.896-0.056,7.349,0c0.065,9.522,0.093,19.053,0,28.575
		c0.028,6.985-5.017,13.709-11.937,15.155c-5.195,0.905-11.014,0.933-15.584-2.052c-4.887-2.826-7.013-8.599-7.069-14.008
		C103.407,94.165,103.388,84.941,103.5,75.718L103.5,75.718z"/>
	<path fill="#FFFFFF" d="M180.943,93.269c-0.942-6.771-4.43-13.718-10.799-16.833c-5.4-2.313-11.872-2.117-17.104,0.55
		c-5.894,3.348-8.477,10.482-8.347,16.992c0.028,13.625-0.056,27.26,0.047,40.885c2.443,0.065,4.887,0.075,7.33,0.028
		c0.112-5.978,0.075-11.965,0.037-17.943c7.19,4.514,17.934,4.346,23.734-2.378C180.775,108.741,181.726,100.618,180.943,93.269z
		 M173.631,98.706c-0.382,4.859-1.511,10.613-6.071,13.271c-5.176,2.359-11.956,0.923-15.472-3.665
		c0.159-5.381-0.121-10.762,0.14-16.143c0.261-3.646,1.856-7.647,5.26-9.438c3.143-1.184,6.799-1.259,9.885,0.149
		C172.661,86.107,173.911,92.98,173.631,98.706z"/>
	<path fill="#FFFFFF" d="M313.958,91.152c-1.39-7.153-6.09-14.325-13.532-16.087c-5.913-1.25-12.907-0.448-17.318,4.057
		c-3.73,3.963-5.344,9.559-5.167,14.931c0.028,13.523-0.084,27.054,0.056,40.577c2.453,0.037,4.924,0.019,7.386-0.037
		c0.093-5.95-0.009-11.909,0.075-17.859c7.144,4.532,17.775,4.318,23.613-2.275C314.415,108.088,315.347,99.089,313.958,91.152z
		 M306.833,99.602c-0.522,4.094-1.492,8.645-4.915,11.331c-2.033,1.902-5.055,1.539-7.619,1.567
		c-3.404-0.009-7.097-1.669-8.738-4.738c-0.345-4.905-0.103-9.839-0.093-14.744c0.168-3.982,1.529-8.738,5.465-10.51
		c3.88-1.669,9.037-1.287,11.993,1.968C306.534,88.532,307.281,94.37,306.833,99.602z"/>
	<path fill="#FFFFFF" d="M355.533,87.012c-0.933-6.258-6.323-11.452-12.599-12.189c-6.64-0.923-14.129,0.354-19.071,5.185
		c-0.942,1.809,1.445,3.339,2.331,4.747c0.849,1.315,2.35,0.27,3.283-0.317c4.309-2.928,10.286-3.889,15.033-1.464
		c3.124,1.791,3.73,5.605,3.758,8.888c-5.53,0.187-11.126-0.457-16.591,0.578c-4.393,0.709-8.496,3.852-9.811,8.17
		c-0.578,3.964-0.839,8.449,1.483,11.946c2.537,4.085,7.013,7.088,11.891,7.265c5.39,0.41,11.508,0.205,15.658-3.768
		c3.758-3.04,5.111-8.03,5.017-12.693C355.859,97.914,356.288,92.421,355.533,87.012z M346.058,110.392
		c-2.872,2.91-7.433,3.078-11.182,2.136c-3.749-0.709-6.752-4.467-6.295-8.309c0.55-2.667,2.826-4.849,5.596-5.017
		c4.644-0.522,9.326-0.205,13.998-0.252C347.904,102.754,349.256,107.473,346.058,110.392z"/>
</g>
</svg>
