<?xml version="1.0" encoding="utf-8"?>
<!-- Generator: Adobe Illustrator 17.0.0, SVG Export Plug-In . SVG Version: 6.00 Build 0)  -->
<!DOCTYPE svg PUBLIC "-//W3C//DTD SVG 1.1//EN" "http://www.w3.org/Graphics/SVG/1.1/DTD/svg11.dtd">
<svg version="1.1" id="레이어_1" xmlns="http://www.w3.org/2000/svg" xmlns:xlink="http://www.w3.org/1999/xlink" x="0px"
	 y="0px" width="200px" height="200px" viewBox="0 0 200 200" enable-background="new 0 0 200 200" xml:space="preserve">
<g>
	<path d="M166.993,35.914c-1.327-10.749-8.08-20.662-17.535-25.919c-11.315-6.321-24.604-7.554-37.321-7.79
		c-20.23,0-40.468-0.013-60.699,0c-4.421-0.041-8.478,3.544-8.869,7.972c-8.396,53.287-16.753,106.58-25.151,159.866
		c-0.593,3.012,1.954,6.287,5.108,6.139c12.502,0.108,25.016,0.047,37.524,0.027c2.932-18.943,5.958-37.88,8.916-56.824
		c0.451-4.67,4.656-8.781,9.495-8.316c8.518-0.128,17.05,0.256,25.555-0.357c14.968-0.917,30.246-5.567,41.554-15.763
		c12.231-10.924,18.33-27.004,20.918-42.854C167.323,46.757,167.829,41.285,166.993,35.914z M120.574,71.234
		c-6.97,6.284-16.387,9.151-25.612,9.716c-5.242,0.378-10.501,0.141-15.751,0.22c-1.753-0.169-3.357,0.65-4.45,1.928
		c1.481-9.416,2.961-18.833,4.444-28.249c0.336-3.812,3.828-6.898,7.634-6.863c15.34-0.011,30.684-0.002,46.025,0
		C131.008,56.693,127.299,65.228,120.574,71.234z"/>
	<g>
		<path d="M60.219,175.128c2.88-18.583,5.844-37.159,8.747-55.741C66.063,137.969,63.099,156.545,60.219,175.128z"/>
		<path d="M166.572,52.141c-0.028-0.015-0.055-0.031-0.083-0.046C166.517,52.109,166.544,52.126,166.572,52.141
			C166.572,52.141,166.572,52.141,166.572,52.141z"/>
		<path d="M181.079,69.981c-0.894-3.228-2.378-6.259-4.316-8.964c-0.003,0.021-0.006,0.041-0.009,0.062
			c-0.5,3.063-1.135,6.134-1.917,9.176c-0.004-0.004-0.008-0.007-0.013-0.011c-3.206,13.065-9.121,25.655-19.254,34.705
			c-11.308,10.196-26.586,14.846-41.554,15.763c-8.505,0.613-17.037,0.229-25.555,0.357c-4.839-0.465-9.044,3.646-9.495,8.316
			c-2.958,18.944-5.984,37.881-8.916,56.824c-0.002,0-0.003,0-0.005,0c-0.606,3.857-1.21,7.715-1.812,11.573
			c8.331,0.021,16.663,0.013,24.994,0.007c3.727,0.196,7.245-2.635,7.811-6.321c2.305-13.694,4.293-27.435,6.564-41.136
			c0.398-3.599,3.525-6.726,7.211-6.746c7.002-0.021,14.045-0.081,20.959-1.355c10.561-1.793,20.919-6.139,28.736-13.613
			c8.592-8.114,13.653-19.301,16.187-30.697C182.723,88.797,183.701,79.092,181.079,69.981z"/>
	</g>
</g>
</svg>
