<?xml version="1.0" encoding="utf-8"?>
<!-- Generator: Adobe Illustrator 17.0.0, SVG Export Plug-In . SVG Version: 6.00 Build 0)  -->
<!DOCTYPE svg PUBLIC "-//W3C//DTD SVG 1.1//EN" "http://www.w3.org/Graphics/SVG/1.1/DTD/svg11.dtd">
<svg version="1.1" id="레이어_1" xmlns="http://www.w3.org/2000/svg" xmlns:xlink="http://www.w3.org/1999/xlink" x="0px"
	 y="0px" width="400px" height="200px" viewBox="0 0 400 200" enable-background="new 0 0 400 200" xml:space="preserve">
<g>
	<path fill="#012E82" d="M36.496,59.083c0.178-2.017,2.026-3.65,4.04-3.631c9.216-0.006,18.435,0,27.65,0
		c5.793,0.107,11.847,0.669,17.002,3.549c4.307,2.395,7.383,6.91,7.988,11.807c0.38,2.446,0.15,4.939-0.23,7.371
		c-1.179,7.22-3.957,14.545-9.529,19.522c-5.151,4.645-12.111,6.763-18.929,7.181c-3.875,0.279-7.761,0.105-11.641,0.163
		c-2.204-0.212-4.12,1.661-4.325,3.789c-1.347,8.629-2.726,17.256-4.062,25.886c-5.697,0.009-11.398,0.037-17.093-0.012
		c-1.437,0.068-2.597-1.425-2.327-2.797C28.864,107.634,32.671,83.357,36.496,59.083z"/>
	<path fill="#089DDD" d="M83.416,97.699c5.572-4.976,8.35-12.301,9.529-19.522c3.214,1.661,5.68,4.657,6.646,8.147
		c1.195,4.15,0.749,8.571-0.175,12.728c-1.154,5.191-3.46,10.287-7.374,13.983c-3.561,3.405-8.28,5.385-13.09,6.202
		c-3.15,0.581-6.358,0.608-9.547,0.617c-1.68,0.009-3.103,1.434-3.285,3.073c-1.035,6.241-1.94,12.501-2.99,18.739
		c-0.258,1.68-1.86,2.969-3.558,2.879c-4.703,0.003-9.406,0.015-14.109-0.009c-1.203,0.092-2.324-1.022-2.158-2.232
		c0.31-2.539,0.801-5.053,1.154-7.589c1.335-8.629,2.713-17.256,4.062-25.886c0.206-2.127,2.121-4,4.325-3.789
		c3.881-0.058,7.767,0.117,11.641-0.162C71.305,104.463,78.265,102.344,83.416,97.699z"/>
	<path fill="#089DDD" d="M364.19,79.188c3.042-0.126,6.1-0.033,9.151-0.049c1.068-0.08,1.897,1.047,1.596,2.057
		c-2.471,15.767-4.967,31.528-7.438,47.292c-0.181,0.951-0.175,2.045-0.878,2.793c-0.54,0.632-1.378,0.93-2.195,0.891
		c-2.569-0.009-5.139,0.021-7.709-0.012c-1.084,0.018-1.787-1.176-1.464-2.158c2.575-16.452,5.154-32.901,7.736-49.352
		C363.057,79.98,363.5,79.329,364.19,79.188z"/>
	<path fill="#012E82" d="M174.242,85.055c-1.869-2.895-5.139-4.543-8.42-5.274c-3.724-0.893-7.574-0.589-11.365-0.641
		c-4.78,0.027-9.566-0.055-14.343,0.04c-1.612,0.172-2.337,1.851-2.38,3.288c-2.382,15.23-4.789,30.46-7.18,45.689
		c-0.119,0.82-0.31,1.636-0.341,2.468c-0.033,0.93,0.897,1.645,1.79,1.544c2.984-0.003,5.971,0.021,8.955-0.012
		c1.335,0.009,2.483-1.142,2.582-2.456c0.688-4.301,1.345-8.608,2.039-12.906c0.144-1.218,1.218-2.247,2.453-2.29
		c3.251-0.113,6.52,0.138,9.765-0.197c4.47-0.445,8.991-2.033,12.225-5.255c3.524-3.448,5.241-8.307,5.928-13.096
		C176.496,92.284,176.33,88.25,174.242,85.055z M159.599,101.724c-1.682,1.608-4.12,1.98-6.352,2.091
		c-1.879,0.076-3.758,0.021-5.637,0.04c0.672-4.273,1.323-8.553,2.029-12.823c0.113-0.807,0.921-1.363,1.716-1.28
		c2.631,0.046,5.394-0.221,7.884,0.792c1.673,0.663,2.655,2.434,2.665,4.187C161.939,97.202,161.432,99.929,159.599,101.724z"/>
	<path fill="#089DDD" d="M310.139,85.199c-1.784-2.877-4.955-4.568-8.166-5.339c-3.972-1.019-8.098-0.666-12.154-0.727
		c-4.672,0.04-9.354-0.08-14.024,0.058c-1.105,0.193-1.961,1.173-2.097,2.269c-2.557,16.197-5.099,32.396-7.647,48.593
		c-0.329,1.053,0.538,2.238,1.664,2.115c3.183,0.006,6.37,0.006,9.557,0c0.912,0.058,1.805-0.639,1.916-1.559
		c0.768-4.602,1.443-9.219,2.198-13.823c0.148-1.17,1.139-2.177,2.33-2.263c3.577-0.16,7.177,0.181,10.736-0.313
		c4.298-0.55,8.584-2.244,11.629-5.409c3.374-3.454,5.013-8.212,5.682-12.909C312.281,92.29,312.133,88.355,310.139,85.199z
		 M297.699,95.637c-0.113,2.75-1.123,5.867-3.791,7.126c-3.279,1.522-7.003,0.973-10.499,1.087
		c0.645-4.083,1.296-8.166,1.925-12.249c0.089-0.503,0.154-1.074,0.574-1.421c0.629-0.617,1.587-0.372,2.382-0.427
		c2.431,0.061,5.053-0.15,7.264,1.062C297.251,91.741,297.846,93.819,297.699,95.637z"/>
	<path fill="#012E82" d="M222.763,97.602c0.316-0.62,1.035-0.86,1.698-0.811c2.858,0.003,5.719-0.006,8.58,0.003
		c1.216-0.074,2.376,0.783,2.68,1.961c1.781,5.931,3.549,11.868,5.317,17.805c4.286-6.18,8.43-12.458,12.691-18.656
		c0.513-0.764,1.434-1.164,2.345-1.115c3.06,0.018,6.124-0.04,9.185,0.027c1.21,0.064,1.802,1.694,1.025,2.585
		c-9.87,14.293-19.755,28.578-29.625,42.874c-0.503,0.684-0.908,1.516-1.686,1.937c-0.678,0.387-1.483,0.322-2.229,0.337
		c-2.769-0.033-5.538,0.033-8.307-0.031c-1.21,0.015-1.943-1.571-1.194-2.502c3.14-4.47,6.288-8.943,9.471-13.382
		c-3.189-9.539-6.456-19.052-9.691-28.574C222.794,99.281,222.287,98.397,222.763,97.602z"/>
	<path fill="#012E82" d="M216.475,96.8c-3.175,0.012-6.358-0.076-9.526,0.046c-1.6,0.495-1.185,2.532-1.553,3.801
		c-0.764-1.182-1.694-2.294-2.959-2.959c-2.92-1.593-6.361-1.83-9.624-1.723c-5.038,0.271-9.879,2.619-13.33,6.278
		c-4.074,4.273-6.266,10.229-6.109,16.114c0.132,4.295,1.82,8.697,5.161,11.509c2.668,2.259,6.235,3.125,9.667,3.15
		c4.768,0.098,9.56-1.772,12.921-5.167c-0.144,0.927-0.353,1.848-0.405,2.791c-0.012,0.835,0.764,1.559,1.596,1.52
		c2.775,0.015,5.557,0.031,8.332-0.006c1.249-0.018,2.345-1.059,2.493-2.29c1.643-10.383,3.288-20.768,4.906-31.153
		C218.274,97.755,217.463,96.742,216.475,96.8z M199.759,121.298c-2.431,1.808-5.67,2.398-8.608,1.747
		c-1.82-0.405-3.54-1.504-4.436-3.175c-1.302-2.351-1.074-5.255-0.154-7.699c1.201-3.218,4.142-5.697,7.521-6.324
		c2.358-0.439,4.98-0.199,6.981,1.224c1.753,1.224,2.723,3.349,2.812,5.452C204.026,115.88,202.476,119.299,199.759,121.298z"/>
	<path fill="#089DDD" d="M352.162,96.794c-3.168,0.037-6.352-0.107-9.514,0.074c-1.492,0.583-1.078,2.489-1.48,3.736
		c-0.77-1.191-1.725-2.302-3.005-2.963c-2.846-1.526-6.177-1.772-9.351-1.692c-5.062,0.218-9.956,2.539-13.443,6.195
		c-4.206,4.36-6.447,10.502-6.183,16.54c0.197,4.239,1.934,8.553,5.265,11.285c2.551,2.106,5.906,2.957,9.161,3.042
		c4.89,0.199,9.845-1.667,13.308-5.148c-0.148,0.927-0.365,1.848-0.411,2.791c0,0.921,0.914,1.624,1.808,1.516
		c2.671-0.004,5.345,0.012,8.019-0.009c1.339,0.033,2.514-1.093,2.631-2.413c1.624-10.352,3.276-20.703,4.881-31.061
		C354.087,97.687,353.179,96.68,352.162,96.794z M339.533,114.704c-0.577,3.61-3.171,6.861-6.674,8.007
		c-2.953,0.97-6.573,0.872-9.034-1.218c-2.097-1.814-2.563-4.872-1.992-7.469c0.678-3.813,3.666-7.113,7.451-8.031
		c2.69-0.666,5.826-0.421,8.019,1.427C339.37,109.166,340.024,112.119,339.533,114.704z"/>
	<path fill="#022069" d="M80.464,76.307c-7.933,0-15.869-0.005-23.802,0c-1.734-0.016-3.325,1.39-3.478,3.126
		c-1.501,9.525-2.999,19.052-4.496,28.578c0.547-1.762,2.243-3.152,4.157-2.968c3.881-0.058,7.767,0.117,11.641-0.163
		c6.818-0.417,13.778-2.536,18.929-7.18c5.534-4.943,8.311-12.201,9.503-19.373C89.003,76.743,84.655,76.384,80.464,76.307z"/>
</g>
</svg>
