<?xml version="1.0" encoding="utf-8"?>
<!-- Generator: Adobe Illustrator 17.0.0, SVG Export Plug-In . SVG Version: 6.00 Build 0)  -->
<!DOCTYPE svg PUBLIC "-//W3C//DTD SVG 1.1//EN" "http://www.w3.org/Graphics/SVG/1.1/DTD/svg11.dtd">
<svg version="1.1" id="레이어_1" xmlns="http://www.w3.org/2000/svg" xmlns:xlink="http://www.w3.org/1999/xlink" x="0px"
	 y="0px" width="400px" height="200px" viewBox="0 0 400 200" enable-background="new 0 0 400 200" xml:space="preserve">
<path fill="#FFFFFF" d="M386.919,76.306c3.463-0.143,6.944-0.038,10.418-0.056c1.216-0.091,2.16,1.192,1.817,2.342
	c-2.813,17.95-5.655,35.892-8.468,53.839c-0.206,1.083-0.199,2.328-1,3.18c-0.615,0.72-1.569,1.059-2.499,1.014
	c-2.925-0.01-5.85,0.024-8.776-0.014c-1.234,0.021-2.034-1.339-1.667-2.457c2.932-18.729,5.868-37.455,8.807-56.184
	C385.629,77.208,386.133,76.467,386.919,76.306z"/>
<path fill="#FFFFFF" d="M170.677,82.985c-2.128-3.296-5.85-5.172-9.586-6.004c-4.239-1.017-8.622-0.671-12.938-0.73
	c-5.442,0.031-10.89-0.063-16.328,0.045c-1.835,0.196-2.66,2.107-2.709,3.743c-2.712,17.338-5.452,34.676-8.174,52.014
	c-0.136,0.933-0.353,1.863-0.388,2.81c-0.038,1.059,1.021,1.873,2.038,1.758c3.397-0.003,6.798,0.024,10.195-0.014
	c1.52,0.01,2.827-1.3,2.939-2.796c0.783-4.896,1.531-9.8,2.321-14.692c0.164-1.387,1.387-2.558,2.792-2.607
	c3.701-0.129,7.423,0.157,11.117-0.224c5.089-0.507,10.236-2.314,13.917-5.983c4.012-3.925,5.966-9.457,6.749-14.909
	C173.242,91.215,173.054,86.623,170.677,82.985z M154.007,101.962c-1.915,1.831-4.69,2.254-7.231,2.38
	c-2.139,0.087-4.278,0.024-6.417,0.045c0.765-4.865,1.506-9.737,2.31-14.598c0.129-0.919,1.048-1.552,1.954-1.457
	c2.995,0.052,6.141-0.252,8.975,0.902c1.905,0.755,3.023,2.771,3.034,4.767C156.67,96.814,156.093,99.918,154.007,101.962z"/>
<path fill="#FFFFFF" d="M325.385,83.149c-2.031-3.275-5.641-5.2-9.296-6.078c-4.522-1.16-9.219-0.758-13.836-0.828
	c-5.319,0.045-10.649-0.091-15.965,0.066c-1.258,0.22-2.233,1.335-2.387,2.583c-2.911,18.439-5.805,36.881-8.706,55.32
	c-0.374,1.199,0.612,2.548,1.894,2.408c3.624,0.007,7.252,0.007,10.88,0c1.038,0.066,2.055-0.727,2.181-1.775
	c0.874-5.239,1.643-10.495,2.502-15.737c0.168-1.332,1.297-2.478,2.653-2.576c4.072-0.182,8.171,0.206,12.222-0.356
	c4.893-0.626,9.772-2.555,13.239-6.158c3.841-3.932,5.707-9.349,6.469-14.696C327.824,91.222,327.656,86.742,325.385,83.149z
	 M311.223,95.032c-0.129,3.131-1.279,6.679-4.316,8.112c-3.733,1.733-7.972,1.108-11.952,1.237
	c0.734-4.648,1.475-9.296,2.191-13.945c0.101-0.573,0.175-1.223,0.654-1.618c0.716-0.702,1.807-0.423,2.712-0.486
	c2.768,0.07,5.753-0.171,8.269,1.209C310.713,90.597,311.391,92.963,311.223,95.032z"/>
<path fill="#FFFFFF" d="M225.914,97.269c0.36-0.706,1.178-0.979,1.933-0.923c3.254,0.003,6.511-0.007,9.768,0.003
	c1.384-0.084,2.705,0.891,3.051,2.233c2.027,6.752,4.04,13.511,6.053,20.27c4.879-7.035,9.597-14.182,14.448-21.238
	c0.584-0.87,1.632-1.325,2.67-1.269c3.484,0.021,6.972-0.045,10.457,0.031c1.377,0.073,2.052,1.929,1.167,2.943
	c-11.236,16.272-22.49,32.534-33.726,48.809c-0.573,0.779-1.034,1.726-1.919,2.205c-0.772,0.44-1.688,0.367-2.537,0.384
	c-3.152-0.038-6.305,0.038-9.457-0.035c-1.377,0.017-2.212-1.789-1.359-2.848c3.575-5.089,7.158-10.181,10.782-15.234
	c-3.631-10.859-7.35-21.689-11.033-32.53C225.949,99.18,225.372,98.174,225.914,97.269z"/>
<path fill="#FFFFFF" d="M218.756,96.356c-3.614,0.014-7.238-0.087-10.845,0.052c-1.821,0.563-1.349,2.883-1.768,4.327
	c-0.87-1.346-1.929-2.611-3.369-3.369c-3.324-1.814-7.241-2.083-10.956-1.961c-5.735,0.308-11.246,2.981-15.175,7.147
	c-4.638,4.865-7.133,11.645-6.955,18.345c0.15,4.889,2.072,9.901,5.875,13.102c3.037,2.572,7.098,3.558,11.005,3.586
	c5.428,0.112,10.883-2.017,14.71-5.882c-0.164,1.055-0.402,2.104-0.461,3.177c-0.014,0.951,0.87,1.775,1.817,1.73
	c3.159,0.017,6.326,0.035,9.485-0.007c1.422-0.021,2.67-1.206,2.838-2.607c1.87-11.82,3.743-23.643,5.585-35.466
	C220.804,97.443,219.881,96.29,218.756,96.356z M199.726,124.245c-2.768,2.058-6.455,2.73-9.8,1.989
	c-2.072-0.461-4.03-1.712-5.05-3.614c-1.482-2.677-1.223-5.983-0.175-8.765c1.367-3.663,4.715-6.486,8.562-7.199
	c2.684-0.5,5.669-0.227,7.947,1.394c1.996,1.394,3.1,3.813,3.201,6.207C204.584,118.077,202.819,121.97,199.726,124.245z"/>
<path fill="#FFFFFF" d="M373.226,96.349c-3.607,0.042-7.231-0.122-10.831,0.084c-1.699,0.664-1.227,2.834-1.685,4.253
	c-0.877-1.356-1.964-2.621-3.421-3.373c-3.24-1.737-7.032-2.017-10.645-1.926c-5.763,0.248-11.334,2.89-15.304,7.053
	c-4.788,4.963-7.339,11.956-7.039,18.83c0.224,4.826,2.202,9.737,5.994,12.847c2.904,2.397,6.724,3.366,10.429,3.463
	c5.567,0.227,11.208-1.898,15.15-5.861c-0.168,1.055-0.416,2.104-0.468,3.177c0,1.048,1.041,1.849,2.058,1.726
	c3.041-0.004,6.085,0.014,9.129-0.01c1.524,0.038,2.862-1.244,2.995-2.747c1.849-11.785,3.729-23.569,5.557-35.361
	C375.417,97.366,374.383,96.22,373.226,96.349z M358.848,116.738c-0.657,4.11-3.61,7.811-7.598,9.115
	c-3.362,1.104-7.483,0.993-10.285-1.387c-2.387-2.065-2.918-5.546-2.268-8.503c0.772-4.341,4.173-8.098,8.482-9.143
	c3.062-0.758,6.633-0.479,9.129,1.625C358.663,110.434,359.407,113.796,358.848,116.738z"/>
<g>
	<path fill="#FFFFFF" d="M77.523,66.922c-0.687-5.568-4.185-10.703-9.083-13.426c-5.861-3.274-12.745-3.913-19.332-4.035
		c-10.479,0-20.962-0.007-31.441,0c-2.29-0.021-4.391,1.836-4.594,4.129c-4.349,27.602-8.678,55.207-13.028,82.809
		c-0.307,1.56,1.012,3.257,2.646,3.18c6.476,0.056,12.958,0.024,19.437,0.014c1.519-9.812,3.086-19.621,4.618-29.434
		c0.234-2.419,2.412-4.548,4.918-4.308c4.412-0.066,8.832,0.133,13.237-0.185c7.753-0.475,15.667-2.884,21.524-8.165
		c6.336-5.658,9.495-13.988,10.835-22.198C77.694,72.538,77.956,69.704,77.523,66.922z M53.478,85.217
		c-3.611,3.255-8.488,4.74-13.267,5.033c-2.715,0.196-5.439,0.073-8.159,0.114c-0.908-0.087-1.739,0.336-2.305,0.999
		c0.767-4.878,1.534-9.755,2.302-14.633c0.174-1.975,1.983-3.573,3.954-3.555c7.946-0.006,15.894-0.001,23.841,0
		C58.883,77.685,56.962,82.106,53.478,85.217z"/>
	<g>
		<path fill="#FFFFFF" d="M22.215,139.033c1.492-9.626,3.027-19.248,4.531-28.873C25.242,119.785,23.707,129.407,22.215,139.033z"/>
		<path fill="#FFFFFF" d="M77.305,75.327c-0.015-0.008-0.028-0.016-0.043-0.024C77.276,75.311,77.29,75.32,77.305,75.327
			C77.305,75.327,77.305,75.327,77.305,75.327z"/>
		<path fill="#FFFFFF" d="M84.819,84.568c-0.463-1.672-1.232-3.242-2.236-4.643c-0.002,0.011-0.003,0.021-0.005,0.032
			c-0.259,1.587-0.588,3.177-0.993,4.753c-0.002-0.002-0.004-0.004-0.007-0.006c-1.661,6.767-4.725,13.289-9.973,17.977
			c-5.857,5.281-13.771,7.69-21.524,8.165c-4.405,0.318-8.825,0.119-13.237,0.185c-2.507-0.241-4.685,1.889-4.918,4.308
			c-1.532,9.813-3.1,19.622-4.618,29.434c-0.001,0-0.002,0-0.002,0c-0.314,1.998-0.627,3.996-0.939,5.995
			c4.315,0.011,8.631,0.007,12.946,0.004c1.931,0.102,3.753-1.365,4.046-3.274c1.194-7.093,2.224-14.211,3.4-21.308
			c0.206-1.864,1.826-3.484,3.735-3.494c3.627-0.011,7.275-0.042,10.857-0.702c5.47-0.929,10.836-3.18,14.885-7.051
			c4.451-4.203,7.072-9.998,8.385-15.901C85.671,94.315,86.177,89.287,84.819,84.568z"/>
	</g>
</g>
</svg>
