<?xml version="1.0" encoding="utf-8"?>
<!-- Generator: Adobe Illustrator 17.0.0, SVG Export Plug-In . SVG Version: 6.00 Build 0)  -->
<!DOCTYPE svg PUBLIC "-//W3C//DTD SVG 1.1//EN" "http://www.w3.org/Graphics/SVG/1.1/DTD/svg11.dtd">
<svg version="1.1" id="레이어_1" xmlns="http://www.w3.org/2000/svg" xmlns:xlink="http://www.w3.org/1999/xlink" x="0px"
	 y="0px" width="400px" height="200px" viewBox="0 0 400 200" enable-background="new 0 0 400 200" xml:space="preserve">
<g>
	<path fill="#7FB7DC" d="M40.192,53.908h1.515c-0.313,0.589-1.09,0.665-1.611,0.309L40.192,53.908L40.192,53.908z"/>
	<path fill="#0370B8" d="M41.707,53.908h8.77c0.309,0.593,1.094,0.665,1.611,0.309c0.297,0.044,0.894,0.136,1.19,0.184
		c0.429,0.265,0.894,0.425,1.399,0.477c-0.092,0.224-0.281,0.677-0.373,0.902c-4.429,0.581-9.295,0.553-13.114,3.182
		c-2.204,0.192-4.485-0.128-6.621,0.557c-7.912,0.906-15.323,6.954-16.236,15.13c-0.212,1.916-0.621,3.94-0.024,5.828
		c0.377,1.375,0.782,2.745,1.238,4.1c0.124,0.437,0.257,0.874,0.393,1.307c-0.645,1.046-1.663,2.136-1.375,3.467
		c0.04,10.83,5.768,21.01,13.936,27.828c6.585,4.12,14.052,7.852,22.04,6.942c1.158,0.112,0.477-1.086,0.465-1.743
		c0.874,0.858,1.751,1.711,2.661,2.533c0.918,1.363,1.695,2.818,2.208,4.385c-6.597,2.561-14.986,1.375-20.974-2.421
		c-0.633-0.385-1.311-0.786-1.323-1.611c0.733-1.162,2.184-3.126-0.032-3.503c-3.828-0.112-7.591,1.146-11.395,1.471
		c-1.695-3.707,0.898-8.717-1.383-12.393c-1.423-0.341-2.501,0.794-3.487,1.615c-4-0.717-3.715-5.535-5.924-8.168
		c-2.541-7.331-3.996-15.363-2.441-23.07c1.467-4.717,2.361-10.024,5.808-13.756c0.176-1.752,1.19-3.062,2.87-3.623
		c1.05-1.034,4.144-2.95,1.627-4.032c3.727-2.196,7.868-3.583,12.008-4.766c0.569,0.228,1.271,0.253,1.703-0.257l0.285-0.148
		c0.565,0.232,1.287,0.273,1.703-0.265c0.293-0.036,0.882-0.112,1.174-0.152C40.617,54.573,41.395,54.497,41.707,53.908
		L41.707,53.908z"/>
	<path fill="#83BBDF" d="M50.477,53.908h1.515l0.096,0.309C51.571,54.573,50.786,54.501,50.477,53.908L50.477,53.908z"/>
	<path fill="#85BADE" d="M37.218,54.633c0.437-0.493,1.126-0.485,1.703-0.265C38.505,54.906,37.784,54.866,37.218,54.633
		L37.218,54.633z"/>
	<path fill="#97C7E3" d="M53.279,54.401c0.677-0.22,1.463-0.297,2.052,0.184c-0.164,0.072-0.489,0.22-0.653,0.293
		C54.172,54.826,53.707,54.665,53.279,54.401L53.279,54.401z"/>
	<path fill="#7AB4DA" d="M35.23,55.038c0.429-0.509,1.134-0.493,1.703-0.257C36.501,55.291,35.8,55.267,35.23,55.038L35.23,55.038z"
		/>
	<path fill="#0280C4" d="M54.677,54.878c0.164-0.072,0.489-0.22,0.653-0.293c12.573,2.85,24.012,10.778,30.477,22.024
		c-0.826,0.128-2.261,0.609-1.964,1.683c5.764,14.405-1.683,31.912-15.343,38.818l-0.2,0.168c-0.737-1.391-1.808-2.569-2.83-3.747
		l-0.257-0.305c5.126-3.495,10.413-7.311,12.886-13.271c4.485-9.038,2.537-19.924-3.238-27.916c1.399-1.162,1.006-3.419-0.733-4.088
		c-3.054-2.321-7.022-2.766-10.705-3.315c-2.449-0.421-4.938-0.297-7.407-0.228c-2.317-0.208-7.679-3.976-7.563,0.341
		c-0.898-2.533-3.904-0.096-5.543,0.441c-5.964,1.924-9.507,7.327-12.605,12.437c-0.485-1.014-0.906-2.068-1.166-3.162
		c0.052-1.539,0.096-3.074,0.056-4.613c1.242-4.413,5.563-7.23,9.968-7.683c1.134-0.032,2.417,0.509,3.407-0.176
		c2.224-1.09,0.513-3.122-1.379-3.03c3.82-2.629,8.685-2.601,13.114-3.182C54.397,55.555,54.585,55.102,54.677,54.878L54.677,54.878
		z"/>
	<path fill="#D4AE76" d="M34.569,59.519c2.136-0.685,4.417-0.365,6.621-0.557c1.892-0.092,3.603,1.94,1.379,3.03
		c-1.138,0.04-2.285-0.02-3.407,0.176c-4.405,0.453-8.725,3.271-9.968,7.683c-0.2,1.074-0.309,2.172-0.393,3.263
		c-1.086-0.846-1.455,0.97-1.936,1.639c-2.878,5.451-2.966,11.739-3.222,17.739c-1.479-2.056-2.513-4.381-3.703-6.609
		c-0.136-0.433-0.269-0.87-0.393-1.307c0.397-0.377,0.81-0.741,1.154-1.17c0.834-7.186,4.401-13.896,9.263-19.17
		C31.391,62.561,33.687,61.631,34.569,59.519L34.569,59.519z"/>
	<path fill="#D2A769" d="M18.333,74.649c0.914-8.176,8.325-14.224,16.236-15.13c-0.882,2.112-3.178,3.042-4.605,4.717
		c-4.862,5.275-8.429,11.984-9.263,19.17c-0.345,0.429-0.758,0.794-1.154,1.17c-0.457-1.355-0.862-2.725-1.238-4.1
		C18.357,78.533,18.397,76.589,18.333,74.649L18.333,74.649z"/>
	<path fill="#0369B4" d="M1.134,89.138C4.1,76.874,12.309,66.088,23.222,59.804c2.517,1.082-0.577,2.998-1.627,4.032
		c-1.679,0.561-2.693,1.872-2.87,3.623c-3.447,3.731-4.341,9.038-5.808,13.756c-1.555,7.707-0.1,15.739,2.441,23.07
		c2.208,2.633,1.924,7.451,5.924,8.168c-1.263,1.595-2.144,3.511-3.643,4.898c-3.78-2.725-4.681-7.631-7.591-11.058
		c-0.493,0.353-0.966,0.75-1.331,1.238c-0.437,1.627-0.425,3.375-0.044,5.014c1.776,13.122,12.124,25.162,25.699,26.421
		c2.164,0.277,4.485,0.653,6.625,0.036c0.966-0.429,3.006-1.154,1.752-2.389c-3.603-1.583-8.096-2.317-10.705-5.335
		c2-1.804,3.996-3.743,5.535-6.016c0.012,0.826,0.689,1.226,1.323,1.611c5.988,3.796,14.377,4.982,20.974,2.421l0.301-0.072
		c1.703,6.721-5.291,9.495-10.461,10.537c-0.649,2.108,1.571,2.132,3.154,1.92c1.138,0.441,2.096,0.329,2.878-0.337
		c7.399-1.287,16.184-6.417,15.603-14.962c0.008-0.657,0.028-1.972,0.036-2.629c4.637-2.208,8.862-5.238,12.477-8.814
		c1.018-3.158,3.956-5.086,4.994-8.244c0.998-1.467,0.421-5.138,2.858-4.032c-0.212,0.733-0.044,1.491,0.24,2.176
		c-0.208,1.311-0.405,2.625-0.637,3.936c-0.549,0.413-0.489,1.142-0.224,1.703c-3.948,16.633-17.491,30.469-34.14,34.485
		c-0.573-0.232-1.271-0.253-1.703,0.257l-0.285,0.148c-0.569-0.232-1.287-0.273-1.703,0.265c-0.293,0.036-0.882,0.112-1.174,0.152
		c-0.521-0.357-1.303-0.285-1.611,0.309h-8.77c-0.313-0.593-1.094-0.665-1.611-0.309c-0.297-0.044-0.886-0.136-1.182-0.18
		c-0.565-0.513-1.359-0.485-2.044-0.273c-0.285-0.657-1.078-0.593-1.631-0.373C18.693,141.062,5.01,127.423,1.13,110.862
		c0.232-0.565,0.265-1.275-0.261-1.691c-0.249-1.046-0.457-2.104-0.577-3.174c0.369-0.509,0.313-1.311-0.293-1.615v-8.762
		c0.605-0.305,0.661-1.106,0.293-1.615c0.12-1.074,0.329-2.128,0.577-3.174C1.395,90.413,1.359,89.703,1.134,89.138L1.134,89.138z"
		/>
	<path fill="#6895A6" d="M39.162,62.168c1.122-0.196,2.269-0.136,3.407-0.176C41.579,62.677,40.297,62.136,39.162,62.168
		L39.162,62.168z"/>
	<path fill="#DCC096" d="M48.453,64.749c-0.116-4.317,5.247-0.549,7.563-0.341c2.441,0.505,4.938,0.297,7.407,0.228
		c3.683,0.549,7.651,0.994,10.705,3.315c1.739,0.669,2.132,2.926,0.733,4.088c-1.623,0.232-3.238,0.136-4.709-0.621
		c-0.577-0.1-1.727-0.305-2.301-0.409c-4.216-4.521-11.988-5.455-17.772-3.876l-0.293,0.084
		C49.327,66.401,48.874,65.583,48.453,64.749L48.453,64.749z"/>
	<path fill="#018DCF" d="M42.91,65.19c1.639-0.537,4.645-2.974,5.543-0.441c0.421,0.834,0.874,1.651,1.335,2.469
		c-7.756,1.904-14.012,7.8-16.525,15.315c-0.192-0.196-0.573-0.585-0.766-0.778c-0.705-1.291-1.411-2.585-2.092-3.888l-0.1-0.24
		C33.403,72.517,36.946,67.114,42.91,65.19L42.91,65.19z"/>
	<path fill="#569ABB" d="M56.016,64.409c2.469-0.068,4.958-0.192,7.407,0.228C60.954,64.705,58.457,64.914,56.016,64.409
		L56.016,64.409z"/>
	<path fill="#E3CBA7" d="M50.08,67.134c5.784-1.579,13.555-0.645,17.772,3.876l-0.116,0.281c-0.489,0.557-1.194,1.263-0.553,2
		c1.876,4.148,7.928,2.585,9.788,6.641c1.295,2.425,0.084,5.271-1.98,6.758c-0.621,0.445-1.25,0.886-1.924,1.247
		c-2.886-2.665-1.784-6.697-4.128-9.571c-2.942-3.9-7.439-6.737-12.433-6.814c-1.84,0.108-4.441-0.774-5.543,1.238
		C51.174,70.838,50.737,68.95,50.08,67.134L50.08,67.134z"/>
	<path fill="#029CD9" d="M49.788,67.218l0.293-0.084c0.657,1.816,1.094,3.703,0.882,5.655c-0.293,0.766-0.613,1.523-0.93,2.281
		c-6.389,1.96-10.12,8.285-10.317,14.705c-0.545-0.509-1.098-1.01-1.651-1.511c-0.97-1.054-1.992-2.068-2.894-3.19
		c-0.653-0.834-1.319-1.659-1.908-2.541C35.776,75.018,42.032,69.122,49.788,67.218L49.788,67.218z"/>
	<path fill="#6292A7" d="M28.802,73.114c0.084-1.09,0.192-2.188,0.393-3.263c0.04,1.539-0.004,3.074-0.056,4.613
		C29.018,74.016,28.906,73.567,28.802,73.114L28.802,73.114z"/>
	<path fill="#74A8BA" d="M67.852,71.01c0.573,0.104,1.723,0.309,2.301,0.409c-0.778,0.277-1.731,0.473-2.417-0.128L67.852,71.01
		L67.852,71.01z"/>
	<path fill="#E9D7BC" d="M50.962,72.79c1.102-2.012,3.703-1.13,5.543-1.238c4.994,0.076,9.491,2.914,12.433,6.814
		c2.345,2.874,1.242,6.906,4.128,9.571c-0.401,0.232-0.822,0.425-1.254,0.577c-3.174-0.349-7.743-1.792-7.343-5.731
		c-0.317-3.567-3.242-6.228-7.006-4.946c-3.194-0.87-6.305,0.208-9.114,1.623c0.509-1.483,1.114-2.93,1.683-4.389
		C50.349,74.313,50.669,73.555,50.962,72.79L50.962,72.79z"/>
	<path fill="#038ECE" d="M67.182,73.291c-0.641-0.737,0.064-1.443,0.553-2c0.685,0.601,1.639,0.405,2.417,0.128
		c1.471,0.758,3.086,0.854,4.709,0.621c5.776,7.992,7.723,18.878,3.238,27.916c-2.473,5.96-7.76,9.776-12.886,13.271
		c-0.701-0.665-1.399-1.331-2.116-1.976c-0.717-0.653-1.499-1.234-2.212-1.892c8.998-2.036,15.074-11.226,15.23-20.188
		c1.214-1.743-0.212-2.024-1.126-2.481c2.064-1.487,3.275-4.333,1.98-6.758C75.11,75.876,69.058,77.439,67.182,73.291L67.182,73.291
		z"/>
	<path fill="#DAB682" d="M26.866,74.754c0.481-0.669,0.85-2.485,1.936-1.639c0.104,0.453,0.216,0.902,0.337,1.351
		c0.261,1.094,0.681,2.148,1.166,3.162l0.1,0.24c-2.281,1.194-1.84,4.545-2.577,6.661c-1.254,4.89,1.058,9.627,1.018,14.393
		c-1.447-1.423-2.725-2.994-4.012-4.557c-0.405-0.621-0.806-1.242-1.19-1.872C23.9,86.493,23.988,80.204,26.866,74.754
		L26.866,74.754z"/>
	<path fill="#7F8D89" d="M18.309,80.477c-0.597-1.888-0.188-3.912,0.024-5.828C18.397,76.589,18.357,78.533,18.309,80.477
		L18.309,80.477z"/>
	<path fill="#04ABE2" d="M39.715,89.776c0.196-6.421,3.928-12.745,10.317-14.705c-0.569,1.459-1.174,2.906-1.683,4.389
		c-1.495,4.85-3.082,11.507,1.447,15.222c3.03,2.766,10.116,1.663,9.936-3.158c0.248-1.002,0.581-1.992,0.705-3.026
		c-2.072-1.483-4.176-2.958-5.078-5.467c-0.774-2.212,0.798-3.768,2.104-5.194c3.764-1.283,6.689,1.379,7.006,4.946
		c-0.401,3.94,4.168,5.383,7.343,5.731c-3.707-1.395-3.483,2.517-3.916,4.822c-1.675,4.721-5.948,8.737-11.038,9.347
		c-0.778,0.124-1.563,0.297-2.112,0.906C49.599,99.13,44.822,94.269,39.715,89.776L39.715,89.776z"/>
	<path fill="#0174BD" d="M83.844,78.293c-0.297-1.074,1.138-1.555,1.964-1.683c2.449,3.984,4,8.441,5.307,12.91
		c-0.281,0.553-0.349,1.287,0.192,1.711c0.184,1.307,0.373,2.605,0.557,3.912c0.064,0.621,0.196,1.872,0.261,2.497
		c0.04,1.599,0.084,3.198,0.132,4.798c-0.136,0.056-0.405,0.168-0.541,0.224c-2.437-1.106-1.86,2.565-2.858,4.032
		c-1.038,3.158-3.976,5.086-4.994,8.244c-3.615,3.575-7.84,6.605-12.477,8.814c-0.281-0.733-0.553-1.471-0.854-2.2
		c-0.593-1.519-1.307-2.982-2.032-4.441C82.16,110.204,89.607,92.697,83.844,78.293L83.844,78.293z"/>
	<path fill="#ECE5D7" d="M48.349,79.459c2.81-1.415,5.92-2.493,9.114-1.623c-1.307,1.427-2.878,2.982-2.104,5.194
		c-3.583-1.142-6.633,3.206-6.036,6.509c0.549,4.85,8.701,7.15,10.409,1.984c0.18,4.822-6.906,5.924-9.936,3.158
		C45.267,90.966,46.854,84.309,48.349,79.459L48.349,79.459z"/>
	<path fill="#DDBD8F" d="M27.828,84.529c0.737-2.116,0.297-5.467,2.577-6.661c0.681,1.303,1.387,2.597,2.092,3.888
		c-2,0.918-1.106,3.727-1.603,5.427c-1.046,12.032,8.301,23.735,20.273,25.387c3.856,0.261,8.493,0.942,11.932-1.319
		c0.717,0.645,1.415,1.311,2.116,1.976l0.257,0.305c-2.092,2.918-6.982,1.908-10.104,2.665c-2.589,0.309-5.146-0.533-7.739-0.469
		c-6.409-5.427-13.01-10.689-18.782-16.806C28.886,94.156,26.573,89.419,27.828,84.529L27.828,84.529z"/>
	<path fill="#E2C499" d="M30.894,87.182c0.497-1.699-0.397-4.509,1.603-5.427c0.192,0.192,0.573,0.581,0.766,0.778
		c0.589,0.882,1.255,1.707,1.908,2.541c-1.88,0.814-0.834,3.375-1.102,4.894c0.345,12.577,14.064,23.062,26.22,18.87
		c0.148,0.128,0.449,0.393,0.597,0.521c0.713,0.657,1.495,1.238,2.212,1.892c-3.439,2.261-8.076,1.579-11.932,1.319
		C39.194,110.918,29.848,99.214,30.894,87.182L30.894,87.182z"/>
	<path fill="#F6F2EA" d="M49.323,89.539c-0.597-3.303,2.453-7.651,6.036-6.509c0.902,2.509,3.006,3.984,5.078,5.467
		c-0.124,1.034-0.457,2.024-0.705,3.026C58.024,96.689,49.872,94.389,49.323,89.539L49.323,89.539z"/>
	<path fill="#E6CCA7" d="M34.068,89.968c0.269-1.519-0.778-4.08,1.102-4.894c0.902,1.122,1.924,2.136,2.894,3.19
		c-1.078,9.663,8.87,19.279,18.541,17.327c1.311,0.982,2.553,2.056,3.683,3.246C48.132,113.03,34.413,102.545,34.068,89.968
		L34.068,89.968z"/>
	<path fill="#0177BE" d="M18.565,89.351c-0.289-1.331,0.729-2.421,1.375-3.467c1.19,2.228,2.224,4.553,3.703,6.609
		c0.385,0.629,0.786,1.251,1.19,1.872c2.649,11.996,12.806,22.725,25.351,23.723c0.914,0.782,1.764,1.639,2.701,2.393
		c0.745,0.589,1.471,1.202,2.12,1.896c0.012,0.657,0.693,1.856-0.465,1.743c-7.988,0.91-15.455-2.822-22.04-6.942
		C24.333,110.361,18.605,100.18,18.565,89.351L18.565,89.351z"/>
	<path fill="#019CD9" d="M73.066,87.936c0.673-0.361,1.303-0.802,1.924-1.247c0.914,0.457,2.341,0.737,1.126,2.481
		c-0.156,8.962-6.232,18.152-15.23,20.188c-0.148-0.128-0.449-0.393-0.597-0.521c-1.13-1.19-2.373-2.265-3.683-3.246
		c-0.617-0.669-1.234-1.343-1.86-2.004c0.549-0.609,1.335-0.782,2.112-0.906c5.09-0.609,9.363-4.625,11.038-9.347
		c0.433-2.305,0.208-6.216,3.916-4.822C72.244,88.361,72.665,88.168,73.066,87.936L73.066,87.936z"/>
	<path fill="#E7D5B8" d="M38.064,88.265c0.553,0.501,1.106,1.002,1.651,1.511c5.106,4.493,9.884,9.355,15.03,13.812
		c0.625,0.661,1.242,1.335,1.86,2.004C46.934,107.543,36.986,97.928,38.064,88.265L38.064,88.265z"/>
	<path fill="#7CB0D8" d="M0.87,90.83c-0.228-0.569-0.249-1.271,0.265-1.691C1.359,89.703,1.395,90.413,0.87,90.83L0.87,90.83z"/>
	<path fill="#83BADE" d="M91.114,89.519c0.441,0.473,0.421,1.146,0.192,1.711C90.766,90.806,90.834,90.072,91.114,89.519
		L91.114,89.519z"/>
	<path fill="#7EB2D7" d="M0,94.104l0.293-0.1C0.661,94.513,0.605,95.315,0,95.619V94.104L0,94.104z"/>
	<path fill="#0583C5" d="M24.834,94.365c1.287,1.563,2.565,3.134,4.012,4.557c5.772,6.116,12.373,11.379,18.782,16.806
		c0.85,0.79,1.703,1.575,2.557,2.361C37.639,117.09,27.483,106.361,24.834,94.365L24.834,94.365z"/>
	<path fill="#61A6D4" d="M91.864,95.142c0.064,0.621,0.196,1.872,0.261,2.497C92.06,97.014,91.928,95.764,91.864,95.142
		L91.864,95.142z"/>
	<path fill="#A6A7A9" d="M104.617,101.595c1.868,0.008,3.731,0.004,5.603,0.024C109.419,102.14,105.507,102.545,104.617,101.595
		L104.617,101.595z"/>
	<path fill="#5FA4D2" d="M91.715,102.661c0.136-0.056,0.405-0.168,0.541-0.224c-0.076,0.601-0.224,1.8-0.301,2.401
		C91.671,104.152,91.503,103.395,91.715,102.661L91.715,102.661z"/>
	<path fill="#83B4D9" d="M0,104.381c0.605,0.305,0.661,1.106,0.293,1.615L0,105.896V104.381L0,104.381z"/>
	<path fill="#CC9B53" d="M8.717,107.531c0.365-0.489,0.838-0.886,1.331-1.238c2.91,3.427,3.812,8.333,7.591,11.058
		c1.499-1.387,2.381-3.303,3.643-4.898c0.986-0.822,2.064-1.956,3.487-1.615c2.281,3.675-0.313,8.685,1.383,12.393
		c3.804-0.325,7.567-1.583,11.395-1.471c2.216,0.377,0.766,2.341,0.032,3.503c-1.539,2.273-3.535,4.212-5.535,6.016
		c2.609,3.018,7.102,3.752,10.705,5.335c1.254,1.234-0.786,1.96-1.752,2.389c-2.208-0.064-4.421-0.168-6.625-0.036
		c-13.575-1.259-23.924-13.299-25.699-26.421C8.701,110.874,8.717,109.202,8.717,107.531L8.717,107.531z"/>
	<path fill="#677F85" d="M8.673,112.545c-0.381-1.639-0.393-3.387,0.044-5.014C8.717,109.202,8.701,110.874,8.673,112.545
		L8.673,112.545z"/>
	<path fill="#C8C9CA" d="M111.82,108.417c3.824-0.601,10.661-0.79,14.417,0.004C121.427,108.421,116.625,108.409,111.82,108.417
		L111.82,108.417z"/>
	<path fill="#82B7DB" d="M91.094,110.477c-0.265-0.561-0.325-1.291,0.224-1.703C91.539,109.339,91.551,110.016,91.094,110.477
		L91.094,110.477z"/>
	<path fill="#7DB0D8" d="M0.87,109.17c0.525,0.417,0.493,1.126,0.261,1.691C0.621,110.437,0.641,109.739,0.87,109.17L0.87,109.17z"
		/>
	<path fill="#9A9B9D" d="M115.563,113.11c0.441,2.826,0.24,5.695,0.265,8.545C114.806,119.615,115.691,115.768,115.563,113.11
		L115.563,113.11z"/>
	<path fill="#DAB682" d="M65.471,113.531c1.022,1.178,2.092,2.357,2.83,3.747c-4.569,2.609-10.224,2.958-15.415,3.202
		c-0.938-0.754-1.788-1.611-2.701-2.393c-0.854-0.786-1.707-1.571-2.557-2.361c2.593-0.064,5.15,0.778,7.739,0.469
		C58.489,115.439,63.379,116.449,65.471,113.531L65.471,113.531z"/>
	<path fill="#D5AD73" d="M68.301,117.279l0.2-0.168c0.725,1.459,1.439,2.922,2.032,4.441c-4.244,1.283-8.497,2.541-12.866,3.359
		c-0.91-0.822-1.788-1.675-2.661-2.533c-0.649-0.693-1.375-1.307-2.12-1.896C58.076,120.236,63.731,119.888,68.301,117.279
		L68.301,117.279z"/>
	<path fill="#D2A463" d="M57.667,124.91c4.369-0.818,8.621-2.076,12.866-3.359c0.301,0.729,0.573,1.467,0.854,2.2
		c-0.008,0.657-0.028,1.972-0.036,2.629c-3.756,0.794-7.359,2.248-11.174,2.842l-0.301,0.072
		C59.363,127.727,58.585,126.273,57.667,124.91L57.667,124.91z"/>
	<path fill="#CB9A54" d="M60.176,129.222c3.816-0.593,7.419-2.048,11.174-2.842c0.581,8.545-8.204,13.675-15.603,14.962
		c-1.218-0.565-2.176-0.453-2.878,0.337c-1.583,0.212-3.804,0.188-3.154-1.92C54.886,138.717,61.88,135.944,60.176,129.222
		L60.176,129.222z"/>
	<path fill="#797A7D" d="M390.409,70.385c-0.1,3.856-0.004,7.719-0.036,11.575c-1.23,0.048-2.393,0.072-3.591-0.004
		c-0.076-3.864,0.116-7.727-0.052-11.587c-4.405,0.188-8.954-0.549-13.291,0.253c-1.054,0.152-1.319,1.118-1.058,2.036
		c1.174,1.311,3.824,0.245,4.505,1.98c0.004,9.395-0.629,19.76,0.273,28.557c3.186,0.02,6.393,0.132,9.587-0.032
		c0.096-5.331-0.016-10.657,0.036-15.984c1.158-0.052,2.397-0.072,3.587,0.004c0.104,5.331-0.14,10.669,0.06,15.996
		c3.182,0.08,6.377,0.028,9.571,0.024v-0.401V70.745v-0.401C396.798,70.385,393.599,70.212,390.409,70.385z"/>
	<path fill="#797A7D" d="M156.83,75.443c-0.253,12.196-0.072,24.401-0.1,36.597l0.389-0.052c3.467,0.128,6.942,0.024,10.413,0.02
		l0.389,0.016c0.028-13.495,0.024-26.986,0.004-40.481l-0.393,0.004c-3.856-0.91-10.974-0.521-14.802,0
		c-0.982,0.02-0.902,1.23-0.79,1.924C153.271,74.978,155.768,73.639,156.83,75.443z"/>
	<path fill="#797A7D" d="M110.22,101.619c7.323-0.429,13.868-5.15,17.731-11.218c4.902,5.122,10.673,10.08,17.928,11.198
		c0.974,0.942,4.83,0.549,5.615,0c-0.261-1.687,1.042-4.85-1.595-4.81c-8.842-0.858-14.329-9.154-15.84-17.259
		c0.505-0.545,0.685-2.16-0.216-2.301c-0.032-0.289-0.1-0.862-0.132-1.15c-0.084-1.138,0.938-3.844-0.273-4.132l0.024-0.377
		c-5.094,0.132-11.238-0.513-15.599,0.381c-0.766,0.172-1.511,1.062-1.162,1.892c1.09,1.852,4.172,0.096,4.906,2.357
		c1.291,9.776-6,20.273-16.24,20.922c-1.98,0.076-0.096,3.391-0.749,4.473C106.485,101.603,108.349,101.599,110.22,101.619z"/>
	<path fill="#797A7D" d="M287.772,97.992c0.385,0.934,2.325,0.192,3.315,0.305c2.497,0.196,5.046,0.232,7.535-0.116
		c0.697,0.445,2.357,0.693,2.709-0.192c6.461-1.034,13.419-3.118,17.824-8.293c2.882-2.946,3.707-7.832,1.551-11.419
		c-3.924-6.425-11.912-9.242-18.986-10.329c-0.285-0.926-1.972-0.617-2.681-0.24c-0.2-0.032-0.605-0.1-0.81-0.136
		c-1.591-1.13-6.116-0.493-7.679-0.008c-0.2,0.04-0.601,0.12-0.806,0.16c-0.553-0.481-2.168-0.669-2.293,0.232
		c-5.92,0.533-11.916,2.998-16.441,6.866c-3.727,3.07-5.443,8.717-2.721,13.01C272.533,94.261,280.449,97.034,287.772,97.992z
		 M279.784,79.579c3.848-5.824,11.583-6.898,17.984-6.389c4.826,0.778,11.006,3.17,12.08,8.449
		c-0.004,0.661-0.008,1.988-0.012,2.653c-0.982,4.826-6.076,7.17-10.473,8.04c-5.9,1.307-12.521,0.393-17.375-3.363
		C279.246,86.838,277.699,82.653,279.784,79.579z"/>
	<path fill="#797A7D" d="M201.595,105.214c0.974,0.93,4.786,0.537,5.619,0.012c6.978-0.645,14.737-4.192,17.138-11.303
		c1.788-5.102-1.026-10.661-5.19-13.659c2.461-0.754,6.309,0.309,8.06-0.705c0.116-1.86,0.024-3.731,0.016-5.591
		c-5.659,0.016-11.327-0.18-16.974,0.136c0.329-2.028,0.128-4.096,0.14-6.136c-4.934,0.144-10.97-0.533-15.19,0.373
		c-0.978,0.008-0.902,1.234-0.79,1.924c1.804,1.655,5.892,0.004,5.182,3.683c-5.214-0.036-10.429,0.032-15.639-0.008
		c-0.533,0.124-5.295-0.421-3.756,0.705c0.733,1.731,1.663,3.695,3.01,4.906c1.046,1.046,4.585,0.108,6.417,0.497
		c-4.874,3.575-7.575,10.309-4.409,15.9C188.497,101.707,195.222,104.629,201.595,105.214z M214.449,90.786
		c-0.465,4.096-3.8,8.016-8.028,8.421c-1.355-0.004-2.681,0-4.028-0.004c-7.427-0.569-11.042-11.459-4.713-15.956
		C203.603,77.451,215.138,82.289,214.449,90.786z"/>
	<path fill="#797A7D" d="M253.711,82.369c-1.952-1.194-6.188,0-8.818-0.397c0.008-3.475,0.016-6.954-0.02-10.429l0.012-0.381
		c-4.934,0.176-11.002-0.533-15.194,0.389c-1.006,0.212-0.974,1.992-0.044,2.425c1.243,0.77,3.05,0.02,4.104,1.078
		c-0.192,12.317-0.048,24.641-0.072,36.962l0.393,0.02l0.397-0.044c3.335,0.124,6.673,0.02,10.012,0.016l0.381,0.012
		c-0.004-8.06,0.188-16.132-0.128-24.184c3.094,0.345,6.224,0.092,9.339,0.12C254.016,86.16,254.637,83.419,253.711,82.369z"/>
	<path fill="#797A7D" d="M326.257,101.615l-0.401-0.012l-0.012-0.389c-22.705-0.02-45.415-0.02-68.124,0l-0.004,0.389
		c-0.008,0.104-0.028,0.309-0.036,0.409c0.754,1.824,1.872,3.507,2.93,5.178c0.874,1.094,4.645,0.092,6.429,0.313
		c0.501,0.441,1.018,0.926,1.234,1.583c-0.152,2.517-0.597,5.924,0.265,7.747c-0.581,6.441,1.635,15.479,9.206,16.437
		c-0.088,0.802,1.138,0.232,1.615,0.409l0.008,0.381c14.164,0.012,28.329,0.024,42.493-0.008l-0.048-0.389
		c0.12-1.864,0.032-3.739,0.016-5.599l0.012-0.385c-13.267,0.016-26.537-0.164-39.796,0.1c-1.844-0.505-3.018-2.168-3.202-4.016
		c0.26-5.419,0.172-10.87-0.04-16.289c15.8,0.329,31.635,0.06,47.451,0.128l-0.008-0.389
		C327.194,106.305,326.782,102.353,326.257,101.615z"/>
	<path fill="#797A7D" d="M357.527,103.214c5.651-0.569,11.186-4.409,12.874-9.984c1.439-4.529-0.497-9.711-4.16-12.593
		c2.096-0.874,5.487,0.449,6.882-0.685c0.092-1.727,0.032-3.467,0.012-5.198c-2.529-1.267-7.555,0.096-10.81-0.397
		c-4.028,1.443-0.693-4.417-2.401-5.218c-0.004-0.196-0.016-0.589-0.024-0.786c-4.645,0.22-10.457-0.561-14.385,0.393
		c-0.778-0.04-0.982,0.906-0.77,1.499c1.17,1.487,3.924,0.589,4.541,2.782c-0.068,0.321-0.2,0.97-0.268,1.295
		c-4.116,0.096-8.232,0-12.345,0.016c-0.517,0.124-5.331-0.405-3.731,0.693c0.958,1.667,1.952,3.315,3.022,4.914
		c0.653,1.25,4.77-0.108,6.381,0.705c-1.956,1.387-3.134,3.595-4.012,5.772c-2.914,8.216,4.814,16.236,12.758,16.794
		C352.04,104.204,356.533,103.699,357.527,103.214z M352.449,81.299c9.764-2.148,12.06,14.589,2.906,16.545
		C346.16,99.367,343.8,83.575,352.449,81.299z"/>
	<path fill="#797A7D" d="M398.81,118.425c-2.128-8.248-11.691-11.659-19.323-12.786c-0.124-0.914-1.747-0.742-2.297-0.253
		l-0.381-0.092c-1.687-1.118-6.749-0.589-8.505-0.052c-0.2,0.04-0.601,0.12-0.802,0.16c-0.557-0.493-2.176-0.677-2.301,0.228
		c-6.517,0.922-13.467,3.507-17.603,8.898c-3.146,3.972-1.912,10.06,1.788,13.238c5.046,4.525,11.868,6.673,18.541,7.102
		c1.824,1.058,6.974,0.429,8.83,0.008c8.481-0.621,19.17-3.88,22.032-12.826C399.519,121.852,399.511,118.301,398.81,118.425z
		 M385.399,125.086c-4.489,4.581-11.515,5.194-17.511,4.248c-4.517-0.782-9.487-3.475-10.617-8.24
		c-0.597-6.397,6.826-9.968,12.277-10.285c1.868,0.02,3.727,0.008,5.611,0.004c4.902,0.301,10.689,2.786,12.176,7.88
		C388.196,121.054,386.918,123.371,385.399,125.086z"/>
	<path fill="#797A7D" d="M167.944,128.064l-0.024-0.381c-12.725,0.004-25.463-0.168-38.184,0.1
		c-1.764-0.445-2.653-2.052-3.146-3.687c-0.958-5.106,0.032-10.485-0.353-15.675c-4.81,0-9.611-0.012-14.417-0.004
		c-0.942-0.1-1.908,0.966-1.531,1.9c1.303,1.888,4.645,0.04,5.275,2.794c0.441,2.826,0.24,5.695,0.265,8.545
		c0.232,5.82,4.733,11.776,10.818,12.02l0.028,0.373c13.752,0.04,27.507,0.024,41.263,0.008l-0.008-0.393
		C168.878,132.758,168.469,128.822,167.944,128.064z"/>
	<path fill="#797A7D" d="M244.493,128.064l-0.012-0.393c-12.866,0.04-25.735-0.168-38.593,0.112
		c-2.281-0.577-3.202-3.082-3.263-5.206c0.497-4.693,0.04-9.451,0.164-14.164c-3.76-0.774-10.593-0.601-14.417,0.004
		c-0.946-0.1-1.908,0.966-1.531,1.9c1.158,1.784,3.912,0.285,5.07,2.2c0.253,5.707-0.529,12.084,2.95,17.066
		c2.004,2.253,4.87,3.968,7.936,4.092l0.028,0.373c13.884,0.044,27.776,0.02,41.663,0.008l-0.008-0.393
		C245.431,132.754,245.022,128.826,244.493,128.064z"/>
	<path fill="#78837E" d="M34.373,138.966c2.204-0.132,4.417-0.028,6.625,0.036C38.858,139.619,36.537,139.242,34.373,138.966
		L34.373,138.966z"/>
	<path fill="#617C89" d="M52.87,141.679c0.701-0.79,1.659-0.902,2.878-0.337C54.966,142.008,54.008,142.12,52.87,141.679
		L52.87,141.679z"/>
	<path fill="#79AED7" d="M35.238,144.958c0.553-0.22,1.347-0.285,1.631,0.373C36.297,145.471,35.651,145.423,35.238,144.958
		L35.238,144.958z"/>
	<path fill="#83B5D9" d="M55.251,145.218c0.433-0.509,1.13-0.489,1.703-0.257C56.525,145.471,55.82,145.455,55.251,145.218
		L55.251,145.218z"/>
	<path fill="#90BDDD" d="M36.87,145.331c0.685-0.212,1.479-0.24,2.044,0.273C38.236,145.84,37.399,145.924,36.87,145.331
		L36.87,145.331z"/>
	<path fill="#8CBBDC" d="M53.263,145.631c0.417-0.537,1.134-0.497,1.703-0.265C54.529,145.86,53.836,145.848,53.263,145.631
		L53.263,145.631z"/>
	<path fill="#7AAFD7" d="M40.096,145.784c0.517-0.357,1.299-0.285,1.611,0.309h-1.515L40.096,145.784L40.096,145.784z"/>
	<path fill="#86B7DA" d="M50.477,146.092c0.309-0.593,1.09-0.665,1.611-0.309l-0.096,0.309H50.477L50.477,146.092z"/>
</g>
</svg>
