<?xml version="1.0" encoding="utf-8"?>
<!-- Generator: Adobe Illustrator 17.0.0, SVG Export Plug-In . SVG Version: 6.00 Build 0)  -->
<!DOCTYPE svg PUBLIC "-//W3C//DTD SVG 1.1//EN" "http://www.w3.org/Graphics/SVG/1.1/DTD/svg11.dtd">
<svg version="1.1" id="레이어_1" xmlns="http://www.w3.org/2000/svg" xmlns:xlink="http://www.w3.org/1999/xlink" x="0px"
	 y="0px" width="400px" height="200px" viewBox="0 0 400 200" enable-background="new 0 0 400 200" xml:space="preserve">
<g>
	<g>
		<g>
			<path fill="#EF7622" d="M388.022,139.271c-7.826,0-11.85,5.16-12.487,5.933c-1.974-3.727-5.606-5.933-10.371-5.933
				c-6.893,0-10.812,4.002-11.454,4.651c-0.285-1.074-1.696-3.996-6.145-3.996c-1.286,0-3.168,0.407-3.324,0.446
				c0.186,0.84,1.03,4.912,1.03,10.531c0,3.563,0,24.76,0,24.76h9.055v-25.237c0.179-0.159,3.571-3.592,7.648-3.592
				c4.158,0,6.101,3.04,6.101,7.2v21.629h9.098V150.42c0.179-0.175,3.504-3.585,7.643-3.585c4.144,0,6.043,3.04,6.043,7.2v21.629
				H400v-23.042C400,144.535,395.397,139.271,388.022,139.271z"/>
			<path fill="#EF7622" d="M288.632,169.126c-6.159,0-10.553-4.868-10.553-11.225c0-7.084,4.996-11.301,10.551-11.301
				c2.997,0,4.258,0.913,6.241,0.913c2.118,0,3.249-1.026,4.298-3.068c0.578-1.128,0.92-1.779,0.92-1.779
				c-0.45-0.287-5.044-3.402-12.833-3.402c-11.424,0-18.256,8.183-18.256,18.637c0,11.403,7.812,18.562,18.256,18.562
				c7.572,0,12.162-3.09,12.969-3.667l-3.144-6.202C296.383,167.036,293.147,169.126,288.632,169.126z"/>
			<path fill="#EF7622" d="M189.233,139.275c-8.684,0-16.015,7.064-16.015,18.632c0,11.843,7.105,18.56,17.726,18.56
				c8.439,0,12.814-3.691,13.34-4.033c0,0-0.824-1.338-1.054-1.713c-1.184-1.941-2.534-2.565-4.028-2.565
				c-2.986,0-3.37,1.244-7.42,1.244c-6.945,0-9.351-5.422-9.519-9.034h23.252c0-0.895,0-2.158,0-2.692
				C205.516,146.581,199.13,139.275,189.233,139.275z M182.237,153.932c0-4.065,2.857-7.843,6.855-7.843
				c4.477,0,6.947,3.892,7.019,7.843H182.237z"/>
			<path fill="#EF7622" d="M221.032,165.645v-37.078c0-4.186-2.793-7.425-7.128-7.425c-0.264,0-1.941,0-1.941,0v48.141
				c0,4.432,2.744,7.184,7.516,7.184c5.881,0,7.647-4.185,7.647-8.126c-0.246,0.131-1.489,0.634-2.751,0.634
				C222.279,168.974,221.032,167.755,221.032,165.645z"/>
			<path fill="#EF7622" d="M160.406,164.391V146.76h7.581l2.64-6.823h-10.222v-10.66c0,0-0.81-0.008-0.844,0
				c-4.037,0-8.219,1.713-8.219,10.576v0.084h-6.701v6.821h6.701v20.768c0,5.881,3.479,8.937,8.41,8.937
				c3.989,0,9.136-1.214,9.136-9.114c-0.311,0.19-2.244,1.437-4.365,1.437C161.572,168.787,160.406,166.987,160.406,164.391z"/>
		</g>
		<path fill="#EF7622" d="M246.121,139.275c-8.684,0-16.014,7.064-16.014,18.632c0,11.843,7.103,18.56,17.725,18.56
			c8.438,0,12.812-3.691,13.34-4.033c0,0-0.823-1.338-1.052-1.713c-1.186-1.941-2.537-2.565-4.03-2.565
			c-2.987,0-3.371,1.244-7.419,1.244c-6.945,0-9.354-5.422-9.521-9.034h23.254c0-0.895,0-2.158,0-2.692
			C262.406,146.581,256.02,139.275,246.121,139.275z M239.125,153.932c0-4.065,2.857-7.843,6.856-7.843
			c4.477,0,6.946,3.892,7.017,7.843H239.125z"/>
		<path fill="#EF7622" d="M321,176.466c-11.096,0-17.776-7.325-17.776-18.586c0-11.212,6.593-18.617,17.776-18.617
			c11.211,0,17.789,7.406,17.789,18.617C338.788,168.478,332.706,176.466,321,176.466z M321,169.488
			c5.563,0,8.766-4.78,8.766-11.608c0-6.764-3.131-11.639-8.766-11.639c-5.473,0-8.753,4.736-8.753,11.639
			C312.247,164.537,315.372,169.488,321,169.488z"/>
	</g>
	<g>
		<g>
			<path fill="#CF0A2C" d="M28.964,136.028c-5.474-2.56-9.97-4.628-9.97-8.811c0-3.196,2.558-5.524,7.613-5.524
				c1.859,0,3.38,0.22,4.95,0.507c0.822,0.142,1.699,0.262,2.424,0.262c4.415,0,6.906-2.631,8.563-7.627l0.685-2.041
				c-0.705-0.288-7.918-3.455-17.322-3.455c-14.963,0-22.861,9.596-22.856,19.551c0,5.024,1.572,8.661,4.034,11.528
				c3.171,3.687,7.693,6.1,11.923,8.163c6.164,3.025,11.727,5.259,11.727,9.744c0.004,3.977-4.108,6.241-9.603,6.241
				c-7.529,0-14.11-4.304-14.95-4.823L0,171.331c1.1,0.621,9.061,5.676,22.166,5.676c13.963-0.01,24.536-8.014,24.536-20.333
				C46.702,144.418,36.901,139.873,28.964,136.028z"/>
			<path fill="#CF0A2C" d="M83.58,141.751l25.329-31.057H90.862l-20.203,26.8h-0.302v-26.8H55.482l0.004,65.788h0.885
				c6.431,0,14.087-2.975,14.087-13.719V147.66h0.302l20.594,28.004h18.93L83.58,141.751z"/>
		</g>
		<g>
			<path fill="#CF0A2C" d="M109.752,40.224c-5.237,0.989-13.003,5.742-12.977,14.149c0.02,7.634,6.262,12.261,6.281,22.264
				c0.03,7.525-4.117,12.593-8.602,15.403c1.812-0.161,3.798-0.265,5.982-0.27c4.583-0.011,7.345,0.425,7.516,0.453l23.495-28.831
				C124.924,53.623,117.303,46.043,109.752,40.224z"/>
			<path fill="#CF0A2C" d="M129.489,118.083c2.962-4.603,3.333-11.941,3.584-19.416c0.277-6.971,1.731-12.217,11.058-12.249
				c2.066-0.007,4.035,0.276,7.599,0.266c13.662-0.06,22.584-4.765,28.132-7.852c-11.337-7.23-27.885-14.61-48.415-15.44
				c-1.338,3.773-11.743,32.703-12.529,35.038c0.118,0.14,1.941,2.182,4.216,6.165C126.492,110.065,128.295,114.7,129.489,118.083z"
				/>
		</g>
	</g>
	<g>
		<path fill="#EF7622" d="M79.863,94.453c-1.188,0.007-1.779-0.783-1.94-2.152c-0.151-1.359-6.028-55.118-6.902-63.253
			c-0.128-1.188-0.422-3.37-0.425-4.146c-0.003-1.253,0.813-1.907,1.774-1.909c2.784-0.011,17.957,3.543,34.059,14.829
			c-4.639,1.309-13.031,6.134-12.993,16.125c0.03,8.844,6.362,13.71,6.395,22.582C99.881,90.958,83.297,94.447,79.863,94.453z"/>
		<path fill="#EF7622" d="M130.838,121.919c0.254,0.669,0.491,1.232,0.73,1.626c0.371,0.628,0.852,0.913,1.445,0.911
			c0.375-0.005,0.834-0.13,1.341-0.359c1.241-0.57,50.302-23.409,57.701-26.823c1.073-0.515,3.106-1.423,3.776-1.817
			c0.695-0.395,1.013-0.973,1.013-1.561c-0.003-0.329-0.099-0.661-0.286-0.963c-0.924-1.496-5.671-6.535-13.607-12.039
			c-6.301,3.469-16.141,8.834-30.777,8.894c-3.587,0.003-4.398-0.238-6.848-0.227c-7.145,0.024-8.929,3.081-9.19,9.345
			c-0.044,1.183-0.064,2.776-0.133,4.523C135.778,109.028,135.116,116.751,130.838,121.919z"/>
	</g>
</g>
</svg>
