<?xml version="1.0" encoding="utf-8"?>
<!-- Generator: Adobe Illustrator 17.0.0, SVG Export Plug-In . SVG Version: 6.00 Build 0)  -->
<!DOCTYPE svg PUBLIC "-//W3C//DTD SVG 1.1//EN" "http://www.w3.org/Graphics/SVG/1.1/DTD/svg11.dtd">
<svg version="1.1" id="레이어_1" xmlns="http://www.w3.org/2000/svg" xmlns:xlink="http://www.w3.org/1999/xlink" x="0px"
	 y="0px" width="400px" height="200px" viewBox="0 0 400 200" enable-background="new 0 0 400 200" xml:space="preserve">
<g>
	<path d="M337.7,29.526c5.288-0.998,10.623,0.086,15.899,0.641c8.409,1.163,17.062,4.237,22.82,10.756
		c5.216,5.771,7.093,13.909,6.432,21.524c-0.932,10.432-5.315,20.248-10.954,28.955c-7.556,11.549-17.518,21.418-28.743,29.391
		c-4.826,3.312-9.751,6.604-15.132,8.951c7.133-4.608,14.1-9.975,18.43-17.445c6.3-10.141,6.67-23.831,0.311-34.025
		c0.013-0.106,0.04-0.324,0.053-0.43c0.416-2.049,1.183-4.026,1.382-6.115c-3.008-3.649-6.108-7.536-6.789-12.382
		c2.757-0.172,5.52,0.066,8.204,0.701c-4.806-3.854-9.308-9.414-9.063-15.885c2.36-0.754,5.156,0.681,7.655,0.972
		C343.299,41.213,338.249,36.117,337.7,29.526L337.7,29.526z"/>
	<path d="M272.777,47.077c18.159-1.011,37.046,1.739,53.103,10.663c8.514,4.779,16.137,11.522,20.936,20.103
		c-0.013,0.106-0.04,0.324-0.053,0.43c-5.976,19.7-15.793,37.958-26.766,55.291c2.995-18.754-0.615-38.52-10.028-55.014
		c-5.791,1.137-12.197-0.271-16.474-4.462c-0.119-1.335,1.818-1.388,2.611-2.076c-5.718-0.397-11.192-3.742-13.664-8.984
		c1.375-0.496,2.757-0.959,4.151-1.401C280.505,58.573,275.322,53.456,272.777,47.077L272.777,47.077z"/>
	<path d="M319.997,133.564c10.974-17.333,20.79-35.592,26.766-55.291c6.359,10.194,5.989,23.884-0.311,34.025
		c-4.33,7.47-11.298,12.838-18.43,17.445C325.497,131.31,322.727,132.414,319.997,133.564L319.997,133.564z"/>
	<path d="M285.112,106.864c0.529-3.636,4.019-6.273,7.609-6.28c3.973-0.106,7.953-0.026,11.926,0.007
		c-5.262,21.98-10.511,43.967-15.78,65.948c-0.364,1.765-1.765,3.332-3.649,3.398c-5.024,0.245-10.068,0.007-15.105,0.112
		C274.879,148.934,280.155,127.932,285.112,106.864L285.112,106.864z"/>
	<path d="M84.235,114.849c-6.174-5.09-14.338-7.007-22.185-7.245c-12.342-0.06-24.684,0.02-37.033-0.04
		c-1.044,0.026-2.122-0.06-3.147,0.205c-0.826,0.43-1.018,1.712-0.271,2.327c1.646,1.23,3.788,1.851,5.064,3.55
		c1.388,1.778,0.932,4.211,0.496,6.247c-3.246,13.486-6.452,26.985-9.698,40.477c-0.502,2.109-0.529,4.317-0.304,6.465
		c0.998,2.492,4.019,3.166,6.439,3.18c8.171,0.033,16.348,0.013,24.519,0.007c11.661-0.212,23.613-3.775,32.498-11.542
		c7.43-6.419,12.329-16.031,12.051-25.947C92.545,125.79,89.497,119.107,84.235,114.849z M65.467,152.517
		c-6.928,7.338-17.611,9.176-27.275,9.017c3.457-14.715,6.941-29.424,10.504-44.113c5.434,0.073,11.271-0.529,16.183,2.314
		c4.898,2.545,7.358,8.177,7.411,13.512C72.389,140.168,70.3,147.4,65.467,152.517z"/>
	<path d="M155.379,121.764c-1.137-0.45-0.793-2.34,0.476-2.228c12.117-0.132,24.248-0.013,36.378-0.053
		c5.751,0.053,12.137,1.071,16.289,5.441c3.424,3.576,3.768,9.004,2.624,13.598c-1.996,8.131-3.96,16.275-5.969,24.4
		c-0.734,3.246-3.636,5.48-6.697,6.392c-4.032,1.058-8.263,0.423-12.382,0.542c2.492-10.802,5.084-21.584,7.642-32.372
		c0.542-2.221,0.628-4.905-1.137-6.63c-1.772-1.937-4.601-1.725-6.987-1.739c-2.433,0.073-4.885-0.178-7.298,0.185
		c-1.197,0.245-1.395,1.646-1.719,2.618c-2.558,10.352-5.057,20.724-7.629,31.083c-0.899,4.132-5.13,6.611-9.109,6.981
		c-3.319,0.218-6.65,0.053-9.975,0.093c3.18-14.074,6.743-28.069,9.876-42.156C160.7,124.798,157.646,123.013,155.379,121.764
		L155.379,121.764z"/>
	<path d="M145.886,122.736c-4.548-3.246-10.365-3.768-15.78-3.966c-8.158-0.205-16.903,0.45-23.891,5.084
		c-3.788,2.446-6.326,6.432-7.45,10.756c4.918-0.033,9.843,0.165,14.748-0.073c2.096-1.639,3.444-4.125,5.811-5.467
		c3.286-1.963,7.576-2.935,11.232-1.501c2.155,0.959,2.413,3.715,1.448,5.619c-1.342,3.127-4.879,4.251-7.86,5.203
		c-7.596,2.076-15.403,3.755-22.443,7.397c-3.702,1.95-7.292,4.674-9.004,8.6c-1.633,3.742-1.692,8.554,1.117,11.754
		c2.466,2.697,6.188,4.264,9.843,4.079c3.523-0.059,7.047,0.112,10.564-0.106c4.132-0.701,7.913-2.809,11.152-5.407
		c0.846,1.573,1.818,3.239,3.51,4.032c3.51,1.877,7.609,1.183,11.417,1.263c2.882-12.388,5.936-24.744,8.819-37.132
		C149.998,129.247,149.039,124.977,145.886,122.736z M123.489,158.367c-2.803,2.651-6.783,4.356-10.676,3.742
		c-2.314-0.364-4.132-2.717-3.623-5.064c0.635-3.213,3.537-5.361,6.366-6.617c4.687-2.016,9.473-3.834,14.378-5.255
		C128.804,149.952,127.165,154.91,123.489,158.367z"/>
	<path d="M267.614,123.284c-4.185-3.523-9.936-4.178-15.198-4.475c-8.581-0.304-17.849,0.165-25.2,5.097
		c-3.768,2.439-6.234,6.412-7.391,10.689c4.475,0.02,8.957,0.106,13.433,0.02c2.043,0.205,2.988-1.897,4.264-3.081
		c2.975-3.424,7.721-5.064,12.197-4.542c1.673,0.178,3.523,1.197,3.821,3.001c0.364,2.367-0.906,4.793-2.895,6.062
		c-3.12,2.003-6.829,2.697-10.352,3.649c-6.611,1.758-13.347,3.556-19.27,7.08c-3.761,2.254-7.212,5.685-8.058,10.141
		c-0.853,3.424-0.106,7.384,2.532,9.85c3.021,2.882,7.325,3.676,11.324,4.105h4.865c5.341-0.681,10.544-2.644,14.709-6.108
		c0.959,1.481,1.871,3.153,3.543,3.947c3.497,1.891,7.622,1.21,11.436,1.289c2.829-12.045,5.725-24.076,8.62-36.107
		C270.972,130.279,270.629,125.876,267.614,123.284z M244.503,158.42c-2.658,2.486-6.32,4.092-9.995,3.794
		c-2.281-0.159-4.469-2.122-4.284-4.522c0.192-3.319,3.054-5.665,5.844-6.994c4.839-2.182,9.837-4.019,14.927-5.526
		C249.891,149.985,248.205,154.969,244.503,158.42z"/>
</g>
</svg>
