<?xml version="1.0" encoding="utf-8"?>
<!-- Generator: Adobe Illustrator 17.0.0, SVG Export Plug-In . SVG Version: 6.00 Build 0)  -->
<!DOCTYPE svg PUBLIC "-//W3C//DTD SVG 1.1//EN" "http://www.w3.org/Graphics/SVG/1.1/DTD/svg11.dtd">
<svg version="1.1" id="레이어_1" xmlns="http://www.w3.org/2000/svg" xmlns:xlink="http://www.w3.org/1999/xlink" x="0px"
	 y="0px" width="400px" height="200px" viewBox="0 0 400 200" enable-background="new 0 0 400 200" xml:space="preserve">
<g>
	<path fill="#0089D1" d="M331.696,32.599c5.057-0.954,10.16,0.082,15.206,0.613c8.042,1.112,16.318,4.052,21.825,10.287
		c4.989,5.519,6.784,13.303,6.152,20.586c-0.891,9.977-5.083,19.365-10.476,27.692c-7.227,11.045-16.754,20.484-27.49,28.109
		c-4.616,3.168-9.326,6.316-14.472,8.561c6.822-4.407,13.485-9.54,17.626-16.684c6.025-9.699,6.379-22.792,0.297-32.541
		c0.012-0.101,0.038-0.31,0.051-0.411c0.398-1.96,1.131-3.85,1.322-5.848c-2.877-3.49-5.842-7.207-6.493-11.842
		c2.637-0.165,5.279,0.063,7.846,0.67c-4.596-3.686-8.902-9.004-8.668-15.192c2.257-0.721,4.931,0.651,7.321,0.93
		C337.051,43.777,332.221,38.903,331.696,32.599L331.696,32.599z"/>
	<path fill="#EE2D24" d="M269.604,49.385c17.367-0.967,35.431,1.663,50.788,10.198c8.143,4.571,15.433,11.02,20.023,19.226
		c-0.012,0.101-0.038,0.31-0.051,0.411c-5.715,18.841-15.104,36.303-25.599,52.88c2.864-17.936-0.588-36.84-9.591-52.615
		c-5.538,1.087-11.665-0.259-15.756-4.267c-0.114-1.277,1.739-1.327,2.497-1.985c-5.469-0.38-10.704-3.579-13.068-8.592
		c1.315-0.474,2.637-0.917,3.97-1.34C276.995,60.38,272.038,55.486,269.604,49.385L269.604,49.385z"/>
	<path fill="#3B3092" d="M314.765,132.101c10.496-16.577,19.884-34.04,25.599-52.88c6.082,9.75,5.728,22.843-0.297,32.541
		c-4.141,7.144-10.805,12.278-17.626,16.684C320.025,129.945,317.376,131.001,314.765,132.101L314.765,132.101z"/>
	<path fill="#0089D1" d="M281.401,106.565c0.506-3.477,3.844-5.999,7.277-6.006c3.8-0.101,7.606-0.025,11.406,0.007
		c-5.033,21.022-10.053,42.05-15.092,63.073c-0.348,1.688-1.688,3.187-3.49,3.25c-4.805,0.234-9.629,0.007-14.446,0.107
		C271.614,146.801,276.66,126.714,281.401,106.565L281.401,106.565z"/>
	<path fill="#EE2D24" d="M89.282,114.202c-5.905-4.868-13.713-6.701-21.218-6.929c-11.804-0.057-23.608,0.019-35.418-0.038
		c-0.998,0.025-2.029-0.057-3.01,0.196c-0.79,0.411-0.974,1.637-0.259,2.226c1.574,1.176,3.623,1.77,4.843,3.395
		c1.327,1.7,0.891,4.027,0.474,5.975c-3.104,12.898-6.171,25.808-9.275,38.712c-0.48,2.017-0.506,4.129-0.291,6.183
		c0.954,2.383,3.844,3.028,6.158,3.041c7.815,0.032,15.635,0.012,23.45,0.007c11.153-0.203,22.583-3.61,31.081-11.039
		c7.106-6.139,11.791-15.332,11.526-24.816C97.23,124.666,94.315,118.274,89.282,114.202z M71.333,150.227
		c-6.626,7.018-16.843,8.776-26.086,8.624c3.306-14.073,6.638-28.141,10.046-42.19c5.197,0.07,10.78-0.506,15.477,2.213
		c4.684,2.434,7.037,7.82,7.088,12.923C77.953,138.417,75.955,145.334,71.333,150.227z"/>
	<path fill="#0089D1" d="M157.324,120.815c-1.087-0.43-0.758-2.238,0.455-2.131c11.589-0.126,23.191-0.012,34.792-0.051
		c5.5,0.051,11.608,1.024,15.579,5.204c3.275,3.42,3.604,8.611,2.51,13.005c-1.909,7.776-3.787,15.565-5.709,23.336
		c-0.702,3.104-3.477,5.241-6.405,6.113c-3.856,1.012-7.903,0.405-11.842,0.518c2.383-10.331,4.862-20.643,7.309-30.96
		c0.518-2.124,0.601-4.691-1.087-6.341c-1.695-1.853-4.4-1.65-6.682-1.663c-2.327,0.07-4.672-0.17-6.98,0.177
		c-1.145,0.234-1.334,1.574-1.644,2.504c-2.446,9.901-4.837,19.82-7.296,29.728c-0.86,3.952-4.906,6.323-8.712,6.677
		c-3.174,0.208-6.36,0.051-9.54,0.089c3.041-13.46,6.449-26.845,9.445-40.318C162.413,123.717,159.493,122.01,157.324,120.815
		L157.324,120.815z"/>
	<path fill="#EE2D24" d="M148.245,121.745c-4.35-3.104-9.913-3.604-15.092-3.793c-7.802-0.196-16.166,0.43-22.849,4.862
		c-3.623,2.339-6.05,6.152-7.125,10.287c4.704-0.032,9.414,0.158,14.105-0.07c2.005-1.568,3.294-3.945,5.558-5.229
		c3.143-1.877,7.246-2.807,10.742-1.436c2.061,0.917,2.308,3.553,1.385,5.374c-1.283,2.991-4.666,4.066-7.517,4.976
		c-7.265,1.985-14.731,3.591-21.464,7.074c-3.541,1.865-6.974,4.47-8.611,8.225c-1.562,3.579-1.618,8.181,1.068,11.242
		c2.358,2.579,5.918,4.078,9.414,3.901c3.369-0.056,6.74,0.107,10.103-0.101c3.952-0.67,7.568-2.687,10.666-5.171
		c0.809,1.504,1.739,3.098,3.357,3.856c3.357,1.795,7.277,1.131,10.919,1.208c2.756-11.848,5.677-23.665,8.434-35.513
		C152.178,127.972,151.261,123.888,148.245,121.745z M126.825,155.822c-2.681,2.535-6.487,4.166-10.211,3.579
		c-2.213-0.348-3.952-2.599-3.465-4.843c0.607-3.073,3.383-5.127,6.088-6.328c4.483-1.928,9.06-3.667,13.751-5.026
		C131.908,147.774,130.341,152.516,126.825,155.822z"/>
	<path fill="#0089D1" d="M264.666,122.269c-4.003-3.369-9.503-3.996-14.535-4.28c-8.207-0.291-17.071,0.158-24.101,4.875
		c-3.604,2.333-5.962,6.132-7.069,10.223c4.28,0.019,8.566,0.101,12.847,0.019c1.954,0.196,2.858-1.814,4.078-2.947
		c2.845-3.275,7.384-4.843,11.665-4.344c1.6,0.17,3.369,1.145,3.654,2.87c0.348,2.264-0.867,4.584-2.769,5.798
		c-2.984,1.916-6.531,2.579-9.901,3.49c-6.323,1.681-12.765,3.401-18.43,6.771c-3.597,2.156-6.898,5.437-7.707,9.699
		c-0.816,3.275-0.101,7.062,2.422,9.421c2.889,2.756,7.006,3.516,10.83,3.926h4.653c5.108-0.651,10.084-2.529,14.068-5.842
		c0.917,1.416,1.789,3.016,3.389,3.775c3.345,1.809,7.29,1.157,10.937,1.233c2.706-11.52,5.475-23.026,8.244-34.533
		C267.877,128.959,267.549,124.748,264.666,122.269z M242.562,155.873c-2.542,2.378-6.044,3.914-9.559,3.629
		c-2.182-0.152-4.274-2.029-4.097-4.325c0.184-3.174,2.921-5.418,5.589-6.689c4.628-2.087,9.408-3.844,14.276-5.285
		C247.715,147.806,246.103,152.573,242.562,155.873z"/>
</g>
</svg>
