<?xml version="1.0" encoding="utf-8"?>
<!-- Generator: Adobe Illustrator 17.0.0, SVG Export Plug-In . SVG Version: 6.00 Build 0)  -->
<!DOCTYPE svg PUBLIC "-//W3C//DTD SVG 1.1//EN" "http://www.w3.org/Graphics/SVG/1.1/DTD/svg11.dtd">
<svg version="1.1" id="레이어_1" xmlns="http://www.w3.org/2000/svg" xmlns:xlink="http://www.w3.org/1999/xlink" x="0px"
	 y="0px" width="400px" height="200px" viewBox="0 0 400 200" enable-background="new 0 0 400 200" xml:space="preserve">
<g>
	<path fill="#028DC7" d="M145.606,78.675c6.286-3.45,12.741-6.634,19.485-9.088c-1.094,1.748-1.719,4.174-3.832,4.967
		c-4.614,1.893-9.158,3.948-13.58,6.258C146.984,80.099,146.295,79.387,145.606,78.675L145.606,78.675z"/>
	<path fill="#004A8C" d="M26.898,76.521c3.334,1.042,6.651,2.148,9.962,3.271c-3.085,8.237-8.781,15.323-15.861,20.486
		c5.864,8.446,11.722,16.897,17.545,25.372c-4.185,0.081-8.37,0.017-12.556,0.041c-5.256-8.098-10.252-16.359-15.647-24.359
		c-0.243,8.116-0.052,16.237-0.104,24.359c-3.404,0-6.807-0.023-10.211,0.035c-0.052-15.884-0.012-31.762-0.017-47.641
		c3.41,0.006,6.825-0.012,10.24,0.012c0.006,7.218-0.104,14.443,0.058,21.661C17.486,93.384,23.35,85.47,26.898,76.521
		L26.898,76.521z"/>
	<path fill="#028DC7" d="M145.514,84.029c4.99-2.576,9.974-5.21,15.265-7.126c-1.071,1.76-1.737,4.174-3.913,4.857
		c-3.606,1.505-7.132,3.19-10.599,4.984C146.012,85.841,145.763,84.932,145.514,84.029L145.514,84.029z"/>
	<path fill="#004A8C" d="M42.643,78.113c9.644-0.052,19.288-0.041,28.932-0.006c-0.423,2.663-0.781,5.337-1.285,7.988
		c-5.928-0.029-11.849,0.017-17.777-0.029c-0.023,3.624-0.029,7.247,0.006,10.871c5.013,0.012,10.026,0.012,15.039-0.006
		c-0.012,2.622-0.012,5.239,0,7.861c-4.915-0.012-9.823-0.017-14.732,0.006c-0.498,4.191-0.26,8.428-0.22,12.637
		c6.518,0.052,13.03-0.029,19.548,0.041c-0.029,2.738-0.023,5.47-0.012,8.208c-9.835-0.023-19.67,0.064-29.499-0.046
		C42.649,109.794,42.643,93.957,42.643,78.113L42.643,78.113z"/>
	<path fill="#00B0EA" d="M131.777,87.601c4.394-3.3,9.007-6.298,13.829-8.926c0.689,0.712,1.378,1.424,2.072,2.136
		c-5.042,2.645-9.933,5.58-14.616,8.81C132.634,88.949,132.206,88.272,131.777,87.601L131.777,87.601z"/>
	<path fill="#004A8C" d="M327.128,76.926c-2.935-1.708-6.553-1.54-9.777-0.978c-3.78,1.21-6.917,4.203-8.405,7.873
		c-1.14,2.645-0.972,5.632-0.671,8.434c0.862,3.763,3.375,7.149,6.79,8.978c2.692,1.748,6.061,1.21,9.1,1.117
		c5.8-1.32,10.148-7.114,10.09-13.025C334.45,84.307,331.585,79.271,327.128,76.926z M328.453,89.893
		c-0.434,2.744-2.339,5.187-4.857,6.356c-4.504,1.835-9.968-2.072-9.661-6.929c-0.365-3.375,2.026-6.524,5.146-7.589
		C323.967,80.197,329.038,84.99,328.453,89.893z"/>
	<path fill="#00B0EA" d="M131.98,92.77c4.255-3.294,8.839-6.13,13.534-8.741c0.249,0.903,0.498,1.812,0.753,2.715
		c-4.515,2.385-8.88,5.042-13.088,7.925C132.779,94.038,132.379,93.401,131.98,92.77L131.98,92.77z"/>
	<path fill="#028DC7" d="M142.81,90.837c4.457-2.483,9.019-4.793,13.742-6.738c-1.03,1.679-1.673,3.931-3.699,4.677
		c-2.877,1.331-5.742,2.674-8.544,4.162C143.806,92.237,143.308,91.537,142.81,90.837L142.81,90.837z"/>
	<path fill="#004A8C" d="M222.434,80.029c-1.563-1.522-4.116-0.527-6.095-0.695c-0.151,0.799-0.22,1.603-0.197,2.42
		c0.058,12.614-0.012,25.221,0.035,37.829c-6.159,0.11-12.318,0.052-18.472,0.035c-0.029-3.363,0-6.726-0.029-10.09
		c6.466-1.962,11.873-8.023,11.6-15.004c0.411-5.829-3.143-11.415-8.168-14.165c-3.051-1.8-6.761-1.343-10.136-1.152
		c-5.441,1.169-9.737,5.899-10.987,11.247c-0.903,4.174-0.324,8.764,2.072,12.365c2.02,3.404,5.603,5.436,9.245,6.697
		c-0.023,3.369,0,6.738-0.017,10.113c-4.475,0.041-8.944-0.046-13.412,0.075c0.035,1.922,0.035,3.844,0.017,5.766
		c12.087,0.185,24.179,0.023,36.266,0.093c1.696-0.035,3.427,0.098,5.094-0.289c2.315-1.522,3.323-4.301,3.23-6.981
		C222.434,105.534,222.532,92.782,222.434,80.029z M194.48,103.56c-3.427,0.307-6.547-2.049-8.11-4.949
		c-1.106-1.957-1.013-4.295-0.81-6.454c0.527-3.051,2.883-5.58,5.644-6.842c1.771-0.619,3.734-0.428,5.58-0.278
		c5.389,1.395,8.307,7.971,6.026,12.978C201.438,101.25,198.098,103.844,194.48,103.56z"/>
	<path fill="#004A8C" d="M287.498,80.272c-3.386,0.122-6.796-0.197-10.171,0.168c-0.99,0.926-1.551,2.246-1.43,3.606
		c0.017,11.855-0.006,23.716,0.012,35.577c-10.292,0.029-20.585,0.029-30.877-0.006c0-2.472-0.023-4.944,0.064-7.415
		c8.874,0.035,17.748,0.035,26.622,0c0.017-1.864,0.116-3.728-0.017-5.586c-0.203-0.168-0.614-0.504-0.816-0.677
		c-4.203-0.232-8.423,0.139-12.625-0.145c-0.7-0.834-0.26-2.078-0.417-3.08c3.103-1.528,6.101-3.774,7.253-7.172
		c1.447-3.022,0.915-6.489-0.365-9.464c2.171-0.347,4.365-0.48,6.564-0.567c0.006-1.754,0.006-3.508-0.006-5.262
		c-4.353-0.035-8.706-0.058-13.053,0.029c-0.035-0.318-0.098-0.949-0.127-1.268c-0.133-1.054-0.237-2.113-0.318-3.172
		c-2.067-0.023-4.127-0.029-6.188,0.012c-0.058,1.094-0.087,2.188-0.185,3.282c-0.035,0.289-0.098,0.874-0.127,1.169
		c-4.394-0.122-8.781-0.104-13.175-0.017c-0.012,1.76-0.006,3.52,0.012,5.279c2.003,0.041,4,0.075,6.003,0.104l-0.029,0.498
		c-0.203,2.964-0.509,5.962-0.041,8.915c1.094,3.635,4.266,6.032,7.502,7.687c-0.006,1.03-0.012,2.061-0.017,3.097
		c-4.278,0.035-8.561,0.023-12.845,0.006c-0.145,4.712-0.087,9.436-0.058,14.153c-0.058,2.674,2.072,5.748,4.99,5.499
		c11.224,0.046,22.454,0.052,33.678,0c3.172,0.185,5.088-3.276,4.984-6.078c0.017-11.027,0.023-22.055-0.006-33.076
		c1.858-0.174,3.722-0.174,5.592-0.232C287.915,84.18,287.915,82.2,287.498,80.272z M248.998,91.039
		c-0.359-2.715,1.766-4.868,4.098-5.823c4.353-1.366,8.88,3.739,7.265,7.936c-1.007,3.056-4.926,5.696-7.971,3.78
		C250.057,95.977,248.627,93.546,248.998,91.039z"/>
	<path fill="#004A8C" d="M379.469,86.055c-0.174-1.905-0.22-3.809-0.289-5.713c-3.392-0.151-6.79-0.145-10.188-0.075
		c-0.509-1.337-0.92-2.715-1.586-3.988c-1.499-0.191-3.01-0.127-4.515-0.11c-0.289,1.355-0.585,2.709-0.897,4.058
		c-3.479-0.017-6.958-0.017-10.437,0.052c-0.006,1.713,0,3.433,0.017,5.152c1.025,0.133,2.055,0.26,3.085,0.417
		c0.012,0.197,0.04,0.585,0.052,0.776c-0.666,3.253-1.58,6.807-0.098,9.991c1.8,4.671,6.784,8.017,11.832,7.438
		c5.077-0.446,9.291-4.614,10.24-9.551c0.839-2.825-0.313-5.638-1.065-8.336C376.899,86.125,378.184,86.096,379.469,86.055z
		 M367.978,97.887c-3.902,2.032-9.111-1.273-8.816-5.679c-0.295-3.08,2.206-5.818,5.088-6.524c2.026-0.486,4.104,0.573,5.546,1.951
		C372.667,90.582,371.776,96.122,367.978,97.887z"/>
	<path fill="#69C2E9" d="M125.566,93.123c1.928-1.991,3.959-3.896,6.211-5.522c0.428,0.671,0.857,1.349,1.285,2.02
		c-1.87,1.488-3.792,2.9-5.702,4.324C126.758,93.673,126.162,93.395,125.566,93.123L125.566,93.123z"/>
	<path fill="#00B0EA" d="M133.433,96.851c3.004-2.188,6.124-4.208,9.378-6.014c0.498,0.7,0.996,1.401,1.499,2.101
		c-3.271,1.771-6.483,3.653-9.569,5.737C134.301,98.067,133.867,97.459,133.433,96.851L133.433,96.851z"/>
	<path fill="#00B0EA" d="M135.285,100.452c5.407-3.473,11.085-6.506,16.972-9.065c-0.92,1.569-1.551,3.583-3.334,4.388
		c-4.237,2.014-8.463,4.081-12.434,6.593C136.09,101.731,135.685,101.088,135.285,100.452L135.285,100.452z"/>
	<path fill="#B0DCF3" d="M125.213,92.961l0.353,0.162c0.596,0.272,1.192,0.55,1.794,0.822c-1.8,2.067-3.896,3.844-5.684,5.916
		l-0.197,0.255C121.89,97.36,123.372,94.987,125.213,92.961L125.213,92.961z"/>
	<path fill="#69C2E9" d="M127.36,96.666c1.517-1.331,3.022-2.674,4.619-3.896c0.399,0.631,0.799,1.268,1.198,1.899
		c-1.673,1.389-3.415,2.686-5.21,3.907C127.766,97.939,127.563,97.302,127.36,96.666L127.36,96.666z"/>
	<path fill="#B0DCF3" d="M123.47,101.632c1.03-1.847,2.31-3.554,3.89-4.967c0.203,0.637,0.405,1.273,0.608,1.91
		c-1.111,1.297-2.188,2.628-3.19,4.006C124.333,102.281,123.899,101.962,123.47,101.632L123.47,101.632z"/>
	<path fill="#69C2E9" d="M129.439,100.22c1.302-1.158,2.616-2.304,3.994-3.369c0.434,0.608,0.868,1.216,1.308,1.823
		c-1.297,0.955-2.611,1.881-3.913,2.825C130.365,101.071,129.902,100.643,129.439,100.22L129.439,100.22z"/>
	<path fill="#00B0EA" d="M136.865,104.359c3.583-2.032,7.184-4.058,11.01-5.598c-0.816,1.436-1.383,3.265-2.993,4.023
		c-2.397,1.227-4.862,2.321-7.23,3.612C137.386,105.719,137.126,105.036,136.865,104.359L136.865,104.359z"/>
	<path fill="#B12149" d="M121.479,100.116l0.197-0.255c0.573,0.614,1.135,1.245,1.794,1.771c0.428,0.33,0.863,0.648,1.308,0.949
		c0.318,0.203,0.949,0.602,1.268,0.799c0.602,0.353,1.216,0.695,1.829,1.03c0.33,0.174,0.99,0.527,1.32,0.7
		c0.787,0.399,1.586,0.781,2.385,1.164c0.347,0.162,1.048,0.492,1.395,0.654c0.776,0.353,1.551,0.695,2.333,1.036
		c13.233,5.719,26.9,10.339,40.509,15.062c-2.368,1.106-4.741,2.379-7.317,2.871c-3.925-1.441-7.716-3.218-11.566-4.834
		c-9.609-4.26-19.288-8.498-28.266-13.997C125.896,105.233,122.724,103.381,121.479,100.116L121.479,100.116z"/>
	<path fill="#B0DCF3" d="M126.046,103.381c1.152-1.036,2.275-2.095,3.392-3.161c0.463,0.423,0.926,0.851,1.389,1.279
		c-0.996,0.961-1.991,1.922-2.952,2.912C127.262,104.075,126.648,103.734,126.046,103.381L126.046,103.381z"/>
	<path fill="#B0DCF3" d="M129.195,105.111c2.078-1.493,4.017-3.166,6.09-4.66c0.399,0.637,0.805,1.279,1.204,1.916
		c-1.661,1.268-3.328,2.535-4.909,3.907C130.782,105.893,129.983,105.511,129.195,105.111L129.195,105.111z"/>
	<path fill="#B12149" d="M123.007,104.203c3.213,2.582,6.466,5.129,10.084,7.126c10.362,6.061,21.372,10.888,32.307,15.792
		c-2.032,0.758-4.087,1.528-6.24,1.841c-1.048-0.318-1.991-0.874-2.952-1.383c-8.764-4.758-17.545-9.58-25.609-15.473
		C127.696,109.887,124.605,107.595,123.007,104.203L123.007,104.203z"/>
	<path fill="#B0DCF3" d="M132.975,106.929c1.308-0.845,2.593-1.713,3.89-2.57c0.26,0.677,0.521,1.36,0.787,2.038
		c-0.781,0.527-1.563,1.048-2.344,1.569C134.527,107.624,133.751,107.282,132.975,106.929L132.975,106.929z"/>
	<path fill="#004A8C" d="M113.068,104.81c-1.1-2.304-3.091-3.965-5.048-5.522c1.789-1.673,3.381-3.67,3.988-6.095
		c1.129-3.213,0.232-6.79-1.557-9.58c-2.674-3.832-7.502-5.563-12.04-5.534c-6.431,0.023-12.868-0.023-19.299,0.035
		c0.006,15.838,0.012,31.676-0.006,47.519c6.616,0.11,13.233,0.046,19.849,0.04c4.266,0.069,8.729-1.239,11.774-4.347
		c2.292-2.194,3.224-5.331,4.11-8.284C115.505,110.153,114.243,107.375,113.068,104.81z M88.877,85.702
		c3.427,0.133,6.958-0.417,10.31,0.527c4.307,1.748,3.931,8.295,0.619,10.871c-3.618,0.452-7.311,0.041-10.958,0.191
		C88.837,93.43,88.796,89.563,88.877,85.702z M99.858,117.36c-3.554,0.949-7.282,0.295-10.912,0.475
		c-0.041-4.37-0.023-8.741-0.012-13.111c4.139,0.336,8.689-0.961,12.48,1.204C105.624,108.556,104.599,115.913,99.858,117.36z"/>
	<path fill="#004A8C" d="M298.85,105.719c14.923-0.075,29.852-0.087,44.775,0.006c0,1.771-0.006,3.543-0.023,5.32
		c-13.1,0.11-26.205-0.052-39.299,0.081c-0.069,2.825-0.341,5.731,0.475,8.486c13.065,0.046,26.136-0.046,39.207,0.046
		c0.006,1.939,0.006,3.878,0,5.818c-12.787,0.11-25.574,0.006-38.362,0.058c-1.32-0.029-2.657,0.052-3.942-0.249
		c-1.077-0.776-2.043-1.737-2.721-2.877C298.711,116.845,298.827,111.282,298.85,105.719L298.85,105.719z"/>
	<path fill="#004A8C" d="M399.851,79.989c-1.082-0.347-2.148-0.851-3.305-0.822c-3.502-0.023-6.999,0.006-10.501-0.012
		c-1.262-0.058-2.472,0.313-3.653,0.689c-0.55,6.842,0.411,13.771-0.533,20.567c-7.282,0.174-13.702,7.039-12.972,14.367
		c-0.625,7.352,6.24,14.674,13.731,13.812c5.98,0.567,11.299-4.249,12.897-9.76c0.399-2.68,0.37-5.43,0.046-8.116
		c-0.863-3.786-3.728-6.588-6.744-8.805c-0.486-5.447-0.069-10.987-0.197-16.469c1.592-0.029,3.195-0.029,4.799-0.023
		c-0.023,5.158,0.012,10.315-0.029,15.479c-0.035,1.465,0.145,2.929,0.463,4.365c2.026-0.012,4.058,0,6.095,0.023
		C399.938,96.851,400.123,88.417,399.851,79.989z M389.987,114.79c0.341,4.81-4.915,9.071-9.557,7.641
		c-3.195-1.019-5.945-4.174-5.731-7.641c-0.243-3.224,1.899-6.327,4.781-7.641c1.702-0.469,3.531-0.33,5.279-0.156
		C387.909,108.081,390.323,111.392,389.987,114.79z"/>
	<path fill="#B12149" d="M124.999,108.891c1.754,1.146,3.178,2.698,4.816,3.988c8.127,6.478,17.233,11.554,26.095,16.926
		c-2.42,0.232-5.297,1.389-7.404-0.347c-6.2-4.33-12.394-8.718-17.98-13.829C128.454,113.598,126.168,111.624,124.999,108.891
		L124.999,108.891z"/>
	<path fill="#B12149" d="M126.052,112.26c6.072,6.779,13.187,12.463,20.249,18.153c-2.02-0.168-4.48,0.301-6.026-1.349
		c-2.616-2.402-5.129-4.926-7.543-7.537C130.191,118.692,127.523,115.832,126.052,112.26L126.052,112.26z"/>
	<path fill="#B12149" d="M127.858,116.828c3.161,4.058,6.42,8.04,9.789,11.93C132.802,126.42,129.473,121.864,127.858,116.828
		L127.858,116.828z"/>
</g>
</svg>
