<?xml version="1.0" encoding="utf-8"?>
<!-- Generator: Adobe Illustrator 17.0.0, SVG Export Plug-In . SVG Version: 6.00 Build 0)  -->
<!DOCTYPE svg PUBLIC "-//W3C//DTD SVG 1.1//EN" "http://www.w3.org/Graphics/SVG/1.1/DTD/svg11.dtd">
<svg version="1.1" id="레이어_1" xmlns="http://www.w3.org/2000/svg" xmlns:xlink="http://www.w3.org/1999/xlink" x="0px"
	 y="0px" width="320px" height="160px" viewBox="0 0 320 160" enable-background="new 0 0 320 160" xml:space="preserve">
<g>
	<path fill="#434856" d="M88.22,67.856c4.485-3.985,10.736-5.898,16.68-5.095c4.871,0.628,9.466,2.995,12.809,6.59
		c-2.747,2.738-5.499,5.467-8.228,8.218c-1.77-1.958-4.265-3.275-6.93-3.357c-3.252-0.128-6.531,1.5-8.306,4.242
		c-1.899,2.738-2.128,6.517-0.605,9.475c1.44,2.834,4.329,4.962,7.531,5.233c3.174,0.404,6.37-1.032,8.406-3.453
		c2.738,2.738,5.476,5.48,8.232,8.2c-3.215,3.573-7.7,6.022-12.47,6.677c-6.347,1.027-13.121-1.11-17.73-5.6
		c-4.178-3.926-6.774-9.626-6.526-15.396C80.896,77.61,83.767,71.759,88.22,67.856L88.22,67.856z"/>
	<path fill="#434856" d="M293.882,63.884c7.801-3.004,17.157-0.665,22.802,5.448c-2.738,2.761-5.503,5.49-8.255,8.237
		c-1.825-2.064-4.49-3.375-7.264-3.366c-2.889,0.009-5.769,1.357-7.531,3.66c-2.444,3.068-2.665,7.705-0.509,10.979
		c1.555,2.394,4.21,4.105,7.081,4.32c3.151,0.39,6.32-1.046,8.324-3.467c2.77,2.706,5.485,5.476,8.251,8.191
		c-4.614,5.228-11.975,7.838-18.849,6.691c-5.311-0.743-10.213-3.719-13.492-7.934c-3.839-4.783-5.283-11.346-3.99-17.322
		C281.844,72.309,287.164,66.278,293.882,63.884L293.882,63.884z"/>
	<path fill="#434856" d="M175.527,66.636c4.407-3.962,12.011-3.325,15.51,1.523c-1.491,2.747-3.508,5.302-5.21,7.962
		c-2.27-2.036-5.994-2.178-8.264-0.083c-1.33,1.197-2.119,2.981-2.027,4.774c0.009,7.751,0.005,15.501,0,23.252
		c-3.751-0.005-7.503,0.014-11.259-0.009c0.023-13.043,0.009-26.091,0.009-39.138c3.751,0,7.503,0,11.254,0
		C175.532,65.489,175.527,66.062,175.527,66.636L175.527,66.636z"/>
	<path fill="#14C5FF" d="M65.959,72.479c-2.495-6.609-7.205-12.36-13.213-16.084c-6.461-4.082-14.4-5.66-21.949-4.559
		c-7.815,1.16-15.121,5.27-20.157,11.36c-4.7,5.669-7.48,12.993-7.415,20.386c-0.175,8.732,3.581,17.409,9.882,23.427
		c5.944,5.765,14.185,9.159,22.486,9.012c6.783,0.124,13.53-2.128,19.01-6.095c6.329-4.564,10.966-11.484,12.594-19.134
		C68.573,84.738,68.087,78.303,65.959,72.479z M51.302,92.763c-5.233,2.999-10.452,6.022-15.68,9.021
		c-5.256-2.944-10.438-6.012-15.676-8.984c-0.023-5.999,0.004-11.998-0.014-17.996c5.196-3.064,10.461-6.008,15.671-9.049
		c5.214,3.068,10.516,5.999,15.717,9.099C51.292,80.825,51.334,86.792,51.302,92.763z"/>
	<path fill="#434856" d="M158.838,82.669c-0.005-8.049-5.393-15.712-12.873-18.615c-6.292-2.596-13.841-1.683-19.372,2.256
		c-3.829,2.72-6.755,6.732-7.989,11.277c-1.61,5.806-0.527,12.323,3.036,17.207c3.563,5.118,9.585,8.379,15.804,8.654
		c4.132,0.225,8.228-1.004,11.773-3.077c-0.014,1.224-0.018,2.454-0.023,3.678c3.219,0.032,6.439,0.014,9.663,0.014
		C158.824,96.932,158.861,89.801,158.838,82.669z M143.286,90.8c-2.545,1.637-5.916,1.894-8.663,0.619
		c-2.885-1.247-5.045-4.063-5.384-7.2c-0.734-4.366,2.302-8.856,6.535-10.021c4.66-1.504,10.126,1.449,11.438,6.159
		C148.515,84.205,146.721,88.709,143.286,90.8z"/>
	<path fill="#434856" d="M232.153,43.975c-3.779,0.009-7.553,0.005-11.332,0.005c-0.064,6.925,0.101,13.859-0.083,20.78
		c-6.824-3.55-15.616-2.66-21.624,2.119c-4.206,3.247-7.15,8.145-7.774,13.447c-0.61,4.944,0.486,10.168,3.412,14.245
		c2.88,4.219,7.393,7.264,12.378,8.388c5.187,1.238,10.814,0.193,15.322-2.619c0,1.243,0.009,2.481,0,3.724
		c3.242,0,6.485,0.009,9.727-0.005C232.143,84.031,232.194,64.003,232.153,43.975z M217.413,90.2
		c-2.509,2.013-6.095,2.623-9.09,1.399c-3.435-1.28-5.916-4.756-5.889-8.443c-0.142-3.921,2.545-7.686,6.288-8.856
		c4.71-1.724,10.346,1.211,11.745,5.994C221.581,83.82,220.343,87.925,217.413,90.2z"/>
	<path fill="#434856" d="M270.713,68.163c-4.618-4.329-11.277-6.32-17.519-5.334c-7.719,1.119-14.561,6.875-16.909,14.318
		c-2.068,6.26-1.036,13.515,2.898,18.835c3.33,4.66,8.622,7.929,14.323,8.645c5.453,0.816,11.199-0.688,15.588-4.017
		c5.283-3.907,8.645-10.401,8.484-17.001C277.657,77.785,275.01,72.052,270.713,68.163z M265.719,85.861
		c-0.766,3.366-3.508,6.173-6.838,7.054c-2.238,0.491-4.696,0.394-6.746-0.702c-3.059-1.513-5.192-4.742-5.237-8.173
		c-0.229-4.04,2.477-7.994,6.306-9.273c2.692-0.991,5.801-0.637,8.232,0.867C264.82,77.679,266.732,81.999,265.719,85.861z"/>
</g>
</svg>
