<?xml version="1.0" encoding="utf-8"?>
<!-- Generator: Adobe Illustrator 17.0.0, SVG Export Plug-In . SVG Version: 6.00 Build 0)  -->
<!DOCTYPE svg PUBLIC "-//W3C//DTD SVG 1.1//EN" "http://www.w3.org/Graphics/SVG/1.1/DTD/svg11.dtd">
<svg version="1.1" id="레이어_1" xmlns="http://www.w3.org/2000/svg" xmlns:xlink="http://www.w3.org/1999/xlink" x="0px"
	 y="0px" width="320px" height="160px" viewBox="0 0 320 160" enable-background="new 0 0 320 160" xml:space="preserve">
<g>
	<path d="M55.393,24.384c9.554-6.212,23.151-4.618,31.151,3.456c-1.52,1.936-3.046,3.86-4.567,5.802
		c-2.83-2.955-6.531-5.187-10.613-5.791c-5.768-0.934-11.934,1.515-15.47,6.172c-4.686,5.95-4.549,15.077,0.296,20.897
		c4.327,5.449,12.259,7.482,18.71,4.925c2.653-0.957,5.005-2.585,7.077-4.475c1.537,1.759,3.097,3.507,4.635,5.273
		c-5.079,4.92-12.082,8.125-19.24,7.698c-6.764-0.245-13.375-3.49-17.617-8.78c-4.31-5.318-6.064-12.515-4.937-19.24
		C45.845,33.813,49.819,27.874,55.393,24.384L55.393,24.384z"/>
	<path d="M112.184,20.768c2.608,0,5.221,0,7.829,0c0.006,8.991,0.011,17.981,0,26.978c-0.159,3.991,1.025,8.324,4.276,10.892
		c4.857,3.638,12.561,3.581,17.036-0.672c2.386-2.352,3.382-5.785,3.405-9.065c0.017-9.378,0-18.756,0.006-28.134
		c2.613,0,5.221,0.006,7.829-0.006c0.017,9.196,0.006,18.386,0.011,27.576c0.006,4.715-1.11,9.623-4.157,13.335
		c-3.075,3.878-7.909,6.036-12.76,6.52c-5.973,0.66-12.492-0.359-17.196-4.35c-4.333-3.65-6.246-9.446-6.263-14.981
		C112.156,39.495,112.19,30.134,112.184,20.768L112.184,20.768z"/>
	<path d="M176.827,27.902c-0.006-2.38-0.006-4.76,0-7.134c12.401,0,24.803,0,37.204,0c0.006,2.38,0.006,4.76,0,7.134
		c-4.902,0-9.799,0-14.696,0.006c-0.006,13.386,0,26.773-0.006,40.159c-2.613,0-5.221-0.006-7.829,0
		c-0.011-13.386,0-26.773-0.006-40.159C186.604,27.902,181.712,27.908,176.827,27.902L176.827,27.902z"/>
	<path d="M266.489,57.784c1.964-2.79,3.519-5.842,4.828-8.985c-1.646-1.27-3.308-2.522-4.959-3.786
		c-1.093,2.949-2.5,5.762-4.088,8.467c-3.496-3.183-6.673-6.719-9.856-10.221c3.883-2.152,8.188-4.384,10.283-8.512
		c1.828-3.655,1.139-8.518-1.97-11.268c-3.57-3.211-8.934-3.701-13.403-2.369c-3.769,1.099-6.867,4.413-7.311,8.37
		c-0.689,4.623,1.702,8.934,4.31,12.555c-3.394,1.89-6.89,4.139-8.734,7.692c-2.346,4.595-1.344,10.613,2.278,14.269
		c3.559,3.695,9.082,4.999,14.041,4.122c4.202-0.74,7.943-3.103,10.995-6.007c2.414,2.403,4.817,4.817,7.226,7.22
		c1.304-1.349,2.613-2.699,3.917-4.054C271.522,62.777,269,60.284,266.489,57.784z M246.258,29.024
		c1.27-3.843,6.656-4.857,9.68-2.505c2.152,1.737,2.152,5.102,0.746,7.305c-1.72,2.642-4.641,4.094-7.311,5.586
		C247.306,36.432,245.108,32.771,246.258,29.024z M246.748,62.208c-3.638-0.803-6.474-4.35-6.11-8.125
		c0.268-3.883,3.747-6.423,6.895-8.102c3.507,4.157,7.351,8.011,11.171,11.877C255.739,61.075,251.184,63.341,246.748,62.208z"/>
	<path d="M57.722,93.986c9.281-4.316,20.971-2.181,28.202,5.045c-1.526,1.942-3.058,3.872-4.578,5.819
		c-3.929-4.276-9.936-6.833-15.761-5.774c-7.009,1.036-12.845,7.095-13.603,14.144c-1.179,7.573,3.547,15.618,10.892,17.993
		c6.406,2.363,13.734,0.028,18.46-4.658c1.554,1.748,3.103,3.502,4.646,5.261c-5.159,5.107-12.435,8.256-19.752,7.704
		c-6.69-0.416-13.181-3.707-17.298-9.025c-5.09-6.434-6.434-15.539-3.621-23.225C47.411,101.393,52.045,96.537,57.722,93.986
		L57.722,93.986z"/>
	<path d="M111.581,91.942c2.596,0,5.199,0,7.801,0c0.011,9.31-0.017,18.625,0.011,27.934c0.023,3.559,1.173,7.334,3.963,9.702
		c5.7,4.72,16.222,3.718,19.467-3.468c1.053-2.226,1.315-4.72,1.31-7.157c0-9.002,0-18.004,0.006-27.012c2.596,0,5.193,0,7.795,0
		c0.006,9.378,0.006,18.761,0,28.139c-0.017,4.783-1.395,9.714-4.601,13.358c-3.206,3.69-8.034,5.608-12.828,6.018
		c-5.939,0.535-12.424-0.581-16.973-4.686c-4.122-3.65-5.944-9.281-5.95-14.667C111.581,110.714,111.575,101.331,111.581,91.942
		L111.581,91.942z"/>
	<path d="M248.234,91.942c2.596,0,5.199,0,7.801,0c0,13.358,0.006,26.721,0,40.079c6.696,0.017,13.398,0,20.099,0.011
		c-0.006,2.403,0,4.806-0.006,7.208c-9.298-0.006-18.596,0.006-27.9-0.006C248.234,123.469,248.229,107.708,248.234,91.942
		L248.234,91.942z"/>
	<path d="M209.647,123.457c4.35-1.685,7.829-5.443,8.934-10.004c1.355-5.455,0.82-11.906-3.137-16.193
		c-3.604-3.923-9.15-5.21-14.292-5.301c-6.48-0.04-12.959-0.006-19.433-0.017c-0.006,15.766,0,31.533-0.006,47.293
		c2.614,0.006,5.227,0.006,7.84,0c0-4.743-0.006-9.486,0-14.229c4.373-0.034,8.752,0.063,13.124-0.068
		c2.818,4.771,5.654,9.526,8.467,14.297c2.961,0.011,5.922,0,8.888,0.006C216.576,133.968,213.103,128.718,209.647,123.457z
		 M201.704,117.792c-4.048,0.091-8.102,0.011-12.151,0.034c0-6.235-0.006-12.475,0-18.71c4.185,0.034,8.376-0.074,12.561,0.057
		c3.405,0.165,7.265,1.458,8.808,4.771c1.355,3.115,1.236,6.975-0.569,9.885C208.485,116.659,204.921,117.667,201.704,117.792z"/>
</g>
</svg>
