<?xml version="1.0" encoding="utf-8"?>
<!-- Generator: Adobe Illustrator 17.0.0, SVG Export Plug-In . SVG Version: 6.00 Build 0)  -->
<!DOCTYPE svg PUBLIC "-//W3C//DTD SVG 1.1//EN" "http://www.w3.org/Graphics/SVG/1.1/DTD/svg11.dtd">
<svg version="1.1" id="레이어_1" xmlns="http://www.w3.org/2000/svg" xmlns:xlink="http://www.w3.org/1999/xlink" x="0px"
	 y="0px" width="320px" height="160px" viewBox="0 0 320 160" enable-background="new 0 0 320 160" xml:space="preserve">
<g>
	<path fill="#F1573A" d="M29.767,49.419c1.024,1.168,1.642,2.603,2.444,3.923c2.858,4.875,5.593,9.822,8.519,14.654l-0.048,0.084
		c-6.143,10.608-12.266,21.227-18.389,31.843c-7.183,0-14.371,0.028-21.554-0.012c0.239-0.502,0.474-1.005,0.729-1.495
		C10.911,82.087,20.323,65.743,29.767,49.419L29.767,49.419z"/>
	<path fill="#1696D3" d="M50.954,50.268c0.159-0.387,0.761-1.16,1.001-0.311c9.623,16.651,19.21,33.322,28.865,49.956
		c-7.227,0.032-14.45,0.008-21.678,0.012c-6.195-10.592-12.214-21.287-18.461-31.847l0.048-0.084
		C44.129,62.084,47.566,56.188,50.954,50.268L50.954,50.268z"/>
	<path fill="#313438" d="M95.704,55.558c2.216-2.994,5.971-4.453,9.587-4.74c3.659-0.339,7.482-0.267,10.934,1.12
		c0.004,2.304,0,4.608,0.004,6.912c-3.388-1.276-7.291-1.874-10.783-0.674c-2.563,0.993-3.727,3.895-3.564,6.49
		c3.831-0.012,7.662,0,11.493-0.004c-0.004,2.292-0.004,4.584,0,6.872c-3.823,0.004-7.646,0.004-11.469,0
		c-0.004,9.137,0.012,18.269-0.008,27.402c-2.93-0.012-5.86-0.004-8.79-0.004c0.008-11.544-0.008-23.085,0.004-34.629
		C93.229,61.25,93.803,58.041,95.704,55.558L95.704,55.558z"/>
	<path fill="#313438" d="M141.132,51.285c2.902,0.012,5.804,0,8.71,0.008c0,2.755-0.012,5.509,0.008,8.264
		c-2.906-0.012-5.816,0-8.726-0.008C141.132,56.794,141.124,54.039,141.132,51.285L141.132,51.285z"/>
	<path fill="#313438" d="M272.788,51.293c2.882-0.004,5.76-0.004,8.642,0c0,2.755-0.016,5.509,0.012,8.264
		c-2.89-0.008-5.776-0.012-8.666,0C272.804,56.802,272.784,54.047,272.788,51.293L272.788,51.293z"/>
	<path fill="#313438" d="M228.548,59.09c1.981,0.036,3.962-0.06,5.944,0.044c0.63,1.79,0.973,3.659,1.339,5.517
		c2.898,0.024,5.8,0.004,8.702,0.012c-0.004,2.292-0.008,4.584,0,6.876c-2.571,0-5.146,0-7.717,0c0.004,5.306-0.008,10.616,0,15.925
		c0.024,1.591,0.558,3.52,2.165,4.19c1.794,0.574,3.707,0.231,5.557,0.339c-0.016,2.312-0.004,4.624-0.008,6.936
		c-3.046-0.032-6.095,0.084-9.141-0.064c-2.396-0.072-4.776-1.411-5.844-3.596c-0.618-1.447-1.064-3.002-1.02-4.588
		C228.548,80.149,228.5,69.622,228.548,59.09L228.548,59.09z"/>
	<path fill="#313438" d="M118.299,64.663c2.268,0.008,4.532-0.028,6.801,0.028c0.267,1.447,0.594,2.882,0.985,4.301
		c2.539-2.531,5.928-4.333,9.579-4.341c-0.008,2.344,0.02,4.684-0.02,7.024c-3.432,0.084-6.669,1.595-9.073,4.006
		c-0.004,7.753,0.004,15.503-0.008,23.256c-2.747-0.004-5.493-0.016-8.244,0.008C118.279,87.516,118.323,76.087,118.299,64.663
		L118.299,64.663z"/>
	<path fill="#313438" d="M141.128,64.663c2.906,0.004,5.816-0.004,8.722,0.004c-0.024,11.421,0,22.842-0.012,34.266
		c-2.902,0.004-5.808-0.008-8.71,0.004C141.128,87.512,141.128,76.087,141.128,64.663L141.128,64.663z"/>
	<path fill="#313438" d="M191.097,64.667c2.252-0.008,4.509-0.004,6.769-0.004c0.403,1.622,0.797,3.249,1.08,4.899
		c2.416-2.24,5.238-4.297,8.606-4.7c3.871-0.47,8.288-0.032,11.225,2.802c2.583,2.539,3.161,6.338,3.281,9.798
		c0.02,7.155,0.004,14.311,0.008,21.47c-2.938,0-5.88,0-8.818,0c-0.032-7.415,0.02-14.829-0.024-22.244
		c0.04-1.945-1.096-4.01-3.046-4.568c-3.636-1.18-7.69,0.431-10.265,3.042c-0.076,7.921-0.012,15.846-0.032,23.762
		c-2.926,0.012-5.848,0.004-8.774,0.008C191.097,87.512,191.125,76.087,191.097,64.667L191.097,64.667z"/>
	<path fill="#313438" d="M250.321,64.659c2.224,0.008,4.449-0.004,6.677,0.012c0.387,1.419,0.777,2.838,1.032,4.289
		c2.623-2.424,5.928-4.309,9.595-4.313c0,2.344-0.004,4.688,0.008,7.032c-3.388,0.06-6.557,1.575-8.965,3.915
		c-0.052,7.777-0.004,15.559-0.02,23.34c-2.774,0.004-5.549-0.016-8.319,0.012C250.317,87.516,250.329,76.087,250.321,64.659
		L250.321,64.659z"/>
	<path fill="#313438" d="M272.78,64.663c2.886,0,5.772-0.004,8.662,0.004c-0.032,11.421-0.004,22.842-0.012,34.266
		c-2.882,0-5.76-0.004-8.634,0C272.78,87.508,272.808,76.087,272.78,64.663L272.78,64.663z"/>
	<path fill="#313438" d="M22.292,99.922c6.123-10.616,12.246-21.235,18.389-31.843c6.247,10.56,12.266,21.255,18.461,31.847
		C46.86,99.926,34.578,99.93,22.292,99.922L22.292,99.922z"/>
	<path fill="#313438" d="M319.153,77.487c-0.311-4.353-2.408-8.814-6.314-11.03c-4.728-2.858-10.452-2.519-15.758-2.34
		c-3.257,0.064-6.454,0.702-9.655,1.216c-0.052,15.084-0.008,30.164-0.02,45.249h8.77c-0.012-4.636-0.004-9.276-0.004-13.912
		c4.102,1.937,8.878,1.917,13.187,0.725c3.36-0.973,6.294-3.341,7.833-6.498C319.276,86.771,319.44,82.015,319.153,77.487z
		 M310.036,85.503c-0.566,2.396-2.34,4.644-4.815,5.214c-3.061,0.69-6.259-0.048-9.041-1.383c-0.024-5.975-0.004-11.955-0.008-17.93
		c2.683-0.291,5.393-0.478,8.088-0.207c2.46,0.215,4.728,1.894,5.617,4.202C311.093,78.619,310.917,82.222,310.036,85.503z"/>
	<path fill="#313438" d="M185.863,84.821c0.482-2.818,0.478-5.704-0.02-8.523c-0.45-3.651-2.208-7.355-5.425-9.336
		c-3.64-2.296-8.164-2.468-12.334-2.125c-3.839,0.323-7.805,1.945-10.026,5.226c-2.579,3.783-3.026,8.579-2.858,13.039
		c0.263,4.389,1.443,9.133,4.951,12.083c3.962,3.341,9.416,3.891,14.403,3.727c3.245-0.056,6.51-0.207,9.679-0.985
		c0.008-2.308,0-4.616,0.004-6.92c-3.532,0.789-7.179,0.937-10.787,0.977c-2.798-0.06-6.003-0.283-8.024-2.483
		c-1.204-1.248-1.451-3.022-1.531-4.676C171.217,84.806,178.54,84.813,185.863,84.821z M163.902,78.79
		c0.191-2.248,0.813-4.72,2.739-6.115c2.615-1.622,6.199-1.634,8.79,0.04c1.945,1.359,2.22,3.903,2.312,6.083
		C173.13,78.798,168.514,78.806,163.902,78.79z"/>
</g>
</svg>
