<?xml version="1.0" encoding="utf-8"?>
<!-- Generator: Adobe Illustrator 17.0.0, SVG Export Plug-In . SVG Version: 6.00 Build 0)  -->
<!DOCTYPE svg PUBLIC "-//W3C//DTD SVG 1.1//EN" "http://www.w3.org/Graphics/SVG/1.1/DTD/svg11.dtd">
<svg version="1.1" id="레이어_1" xmlns="http://www.w3.org/2000/svg" xmlns:xlink="http://www.w3.org/1999/xlink" x="0px"
	 y="0px" width="320px" height="160px" viewBox="0 0 320 160" enable-background="new 0 0 320 160" xml:space="preserve">
<g>
	<path fill="#555555" d="M-0.6,52.261c3.171,0.003,6.342-0.003,9.513,0.003c0.088,3.888-0.015,7.777,0.059,11.665
		c3.554,0.081,7.108,0.062,10.661,0.011c0.052-3.878-0.177-7.769,0.132-11.636c2.439-0.081,4.874-0.026,7.31-0.055
		c0.817-0.033,1.622,0.107,2.402,0.331c-0.067,11.033,0.044,22.065-0.055,33.099c-3.248,0.103-6.504,0.099-9.753,0.003
		c-0.122-4.22,0.003-8.443-0.07-12.662c-3.476-0.202-6.986-0.246-10.459,0.026c-0.452,4.127-0.029,8.296-0.231,12.438l-0.257,0.21
		c-3.113,0.107-6.236,0.047-9.352,0.008c-0.047-10.242,0.003-20.484-0.026-30.722C-0.728,54.067-0.691,53.162-0.6,52.261
		L-0.6,52.261z"/>
	<path fill="#555555" d="M33.628,52.331c7.678-0.136,15.367-0.067,23.048-0.037c0.023,2.715,0.114,5.434-0.023,8.148l-0.236,0.213
		c-4.327,0.147-8.664-0.059-12.99,0.099c0,1.232-0.008,2.469-0.015,3.709c4.197,0.091,8.407-0.151,12.6,0.14
		c0.033,2.752,0.052,5.507-0.015,8.262c-4.187,0.136-8.392-0.173-12.567,0.169c-0.011,1.372-0.008,2.741-0.026,4.113
		c4.635,0.129,9.274,0.015,13.909,0.059c0.18,2.836,0.136,5.684,0.033,8.524c-7.884,0.011-15.767,0.033-23.652-0.011
		c-0.276-5.58-0.044-11.177-0.122-16.76C33.61,63.416,33.514,57.871,33.628,52.331L33.628,52.331z"/>
	<path fill="#555555" d="M61.801,52.331c7.696-0.132,15.396-0.077,23.092-0.029c0,2.804,0.14,5.614-0.096,8.407
		c-4.392,0.003-8.789-0.041-13.181,0.026c-0.117,1.237-0.125,2.48-0.091,3.723c4.216,0.107,8.443-0.14,12.651,0.14
		c0.067,2.752,0.096,5.51-0.023,8.262c-4.161,0.088-8.329-0.044-12.493,0.073c-0.177,1.406-0.18,2.822-0.143,4.238
		c4.646,0.055,9.292-0.033,13.94,0.044c0.431,2.804,0.32,5.688,0.085,8.509c-7.909,0.026-15.819,0.041-23.725-0.008
		C61.765,74.588,61.79,63.46,61.801,52.331L61.801,52.331z"/>
	<path fill="#555555" d="M122.152,52.334c7.692-0.143,15.388-0.073,23.081-0.033c0.008,2.799,0.103,5.606-0.07,8.41
		c-4.392,0-8.785-0.041-13.174,0.018c-0.122,1.24-0.161,2.487-0.077,3.73c4.202,0.091,8.407-0.125,12.604,0.122
		c0.07,2.76,0.091,5.522-0.018,8.281c-4.161,0.077-8.322-0.041-12.482,0.067c-0.158,1.409-0.192,2.825-0.136,4.242
		c4.65,0.055,9.3-0.033,13.95,0.047c0.412,2.807,0.217,5.669,0.125,8.498c-7.928,0.041-15.86,0.052-23.787-0.003
		C122.123,74.584,122.149,63.46,122.152,52.334L122.152,52.334z"/>
	<path fill="#555555" d="M186.561,52.485c3.219-0.478,6.497-0.103,9.741-0.236c0.806,0.081,1.943-0.269,2.387,0.648
		c1.567,2.568,2.843,5.305,4.36,7.906c1.754,3.002,3.105,6.21,4.695,9.297c0.236-2.104-0.276-4.187-0.173-6.291
		c0.073-3.826-0.122-7.66,0.114-11.481c3.027-0.096,6.059-0.125,9.087,0.015c0.077,11.103,0.026,22.21,0.029,33.315
		c-3.432,0.184-6.872,0.037-10.308,0.088c-2.281-3.834-4.158-7.888-6.306-11.795c-1.546-2.814-2.766-5.798-4.352-8.586
		c-0.213,6.346-0.037,12.711-0.081,19.064c-0.052,0.452,0.166,1.406-0.607,1.295c-2.862,0.047-5.725,0.033-8.586-0.023
		C186.573,74.628,186.576,63.554,186.561,52.485L186.561,52.485z"/>
	<path fill="#555555" d="M290.838,52.368c3.683-0.217,7.376-0.077,11.063-0.081c1.733,3.933,3.035,8.057,4.955,11.901
		c1.438-3.123,2.608-6.361,3.888-9.546c0.397-0.806,0.61-1.888,1.439-2.34c1.832-0.117,3.675-0.003,5.515-0.041
		c1.696,0.044,3.447-0.213,5.092,0.353c-3.053,5.471-6.501,10.713-9.712,16.091c-0.773,1.331-1.803,2.667-1.78,4.278
		c-0.011,4.246,0.033,8.495-0.015,12.74c-3.212,0.033-6.423,0.026-9.631,0.003c-0.117-4.591,0.132-9.198-0.117-13.774
		c-1.442-3.006-3.333-5.783-4.879-8.741c-1.699-2.988-3.396-5.971-5.118-8.939C291.191,53.681,291.001,53.022,290.838,52.368
		L290.838,52.368z"/>
	<path fill="#555555" d="M288.175,74.923c-0.581-1.832-1.766-3.362-2.924-4.856c1.457-1.118,2.932-2.34,3.749-4.025
		c1.439-2.789,1.203-6.265-0.324-8.965c-1.829-2.874-5.18-4.4-8.477-4.76c-2.583-0.18-5.162-0.654-7.751-0.345
		c-2.888,0.478-5.904-0.008-8.704,0.997c0.033,10.915-0.033,21.834,0.033,32.749c3.182,0.026,6.368,0.077,9.551-0.033
		c0.052-4.018,0.011-8.039,0.023-12.055c1.258-0.047,2.586,0.044,3.701,0.698c0.964,0.706,1.346,1.906,1.704,2.998
		c0.817,2.84,1.357,5.798,2.763,8.428c3.219-0.047,6.438,0.047,9.657-0.055C290.331,82.067,289.375,78.451,288.175,74.923z
		 M279.191,65.056c-1.611,1.435-3.855,1.167-5.842,1.159c0-2.119,0.003-4.234-0.003-6.353c1.692,0.052,3.45-0.228,5.099,0.231
		C280.416,60.833,280.942,63.808,279.191,65.056z"/>
	<path fill="#555555" d="M252.273,55.325c-3.035-2.052-6.71-3.108-10.366-3.131c-5.11-0.14-10.249-0.161-15.33,0.46
		c-0.151,0.633-0.287,1.273-0.283,1.932c0,9.58,0.015,19.159-0.008,28.739c-0.026,0.788,0.117,1.571,0.32,2.332
		c5.422,0.452,10.915,0.776,16.319-0.033c3.72-0.695,7.546-1.909,10.319-4.599c3.665-3.263,5.349-8.347,5.103-13.17
		C258.656,62.996,256.268,58.099,252.273,55.325z M245.448,75.442c-2.443,2.384-6.059,2.744-9.3,2.564
		c-0.059-5.901,0.011-11.802-0.037-17.706c2.355-0.107,4.804-0.331,7.085,0.379c2.976,0.975,4.874,4.106,4.815,7.167
		C248.179,70.567,247.564,73.554,245.448,75.442z"/>
	<path fill="#555555" d="M180.252,79.528c-2.524-7.781-4.963-15.584-7.56-23.335c-0.475-1.203-0.964-2.402-1.42-3.609
		c-3.686-0.132-7.376-0.129-11.058-0.059c-0.883-0.07-1.409,0.724-1.912,1.313c-1.648,6.129-3.863,12.104-5.323,18.28
		c-0.067-0.155-0.129-0.309-0.184-0.46c-0.401,2.457-1.387,4.768-1.982,7.181c-0.592,2.292-1.608,4.48-1.883,6.85
		c3.329,0.114,6.662,0.011,9.995,0.062c0.768-2.571,1.409-5.183,1.99-7.806c2.729-0.059,5.463-0.059,8.192,0.003
		c0.835,2.586,1.501,5.232,2.417,7.792c3.462-0.018,6.927,0.037,10.389-0.033C181.801,83.553,180.878,81.567,180.252,79.528z
		 M162.855,69.948c0.231-2.77,1.162-5.419,1.818-8.108c0.397,0.552,0.718,1.155,0.92,1.81c0.669,2.057,1.442,4.109,1.604,6.287
		C165.751,69.967,164.301,69.967,162.855,69.948z"/>
	<path fill="#555555" d="M117.568,73.002c-0.57-2.506-2.579-4.319-4.753-5.492c1.714-1.147,3.385-2.685,3.738-4.819
		c0.276-2.137,0.386-4.617-1.059-6.383c-1.909-2.56-5.121-3.834-8.233-4.047c-3.425-0.202-6.861-0.173-10.29-0.055
		c-2.148,0.085-4.389-0.037-6.394,0.864c0,10.209,0.011,20.421-0.008,30.63c-0.026,0.651,0.055,1.325,0.449,1.873
		c4.518,0.666,9.116,0.607,13.671,0.401c4.22-0.306,8.944-1.431,11.515-5.099C117.889,78.631,118.04,75.67,117.568,73.002z
		 M100.367,59.641c1.821-0.018,3.774-0.298,5.478,0.49c1.38,0.669,1.284,2.968-0.07,3.624c-1.608,1.059-3.621,0.636-5.434,0.721
		C100.333,62.863,100.33,61.252,100.367,59.641z M106.672,77.193c-1.714,1.567-4.223,1.074-6.342,1.123
		c0.015-2.101,0-4.202,0.015-6.301c2.347,0.107,5.378-0.584,7.004,1.6C107.68,74.801,107.724,76.335,106.672,77.193z"/>
	<path d="M301.805,78.524c0.085-2.252-0.287-4.543,0.269-6.755c0.32,2.241,0.143,4.503,0.169,6.755
		c-0.041,2.387,0.158,4.783-0.155,7.159C301.492,83.34,301.897,80.908,301.805,78.524L301.805,78.524z"/>
	<path d="M71.612,77.369c2.932-0.091,5.868-0.008,8.799-0.041c1.674-0.008,3.388-0.195,5.011,0.331
		c-1.295,0.166-2.601,0.199-3.907,0.169c-3.297-0.067-6.596,0.055-9.893-0.059L71.612,77.369L71.612,77.369z"/>
	<path d="M131.953,77.365c2.928-0.085,5.86-0.008,8.793-0.037c1.67-0.011,3.381-0.184,5.003,0.324
		c-1.292,0.169-2.597,0.206-3.899,0.177c-3.297-0.067-6.596,0.055-9.896-0.062v-0.401H131.953z"/>
	<path fill="#888888" d="M262.291,94.895c0.736,0.033,1.479,0.07,2.222,0.114c-1.222,2.211-2.182,4.558-3.131,6.898
		c-0.327,1.483-0.078,3.028-0.206,4.536c-0.718-0.052-1.427-0.096-2.137-0.147c-0.091-1.81,0.338-3.738-0.482-5.43
		c-0.872-1.95-1.774-3.888-2.509-5.89c0.703-0.026,1.413-0.037,2.122-0.044c0.651,1.575,1.126,3.227,1.862,4.768
		c0.107-0.011,0.316-0.026,0.423-0.037C261.084,98.081,261.573,96.444,262.291,94.895L262.291,94.895z"/>
	<path fill="#888888" d="M2.531,95.09c1.302-0.464,2.583,0.283,3.811,0.636c-0.023,0.607-0.151,1.203-0.371,1.769
		c-1.365-0.364-3.087-0.934-4.282,0.155c-0.864,1.45-1.206,3.297-0.54,4.9c0.35,0.993,1.196,2.093,2.376,1.968
		c0.89,0.041,1.619-0.552,2.373-0.931c0.345,0.471,0.864,0.938,0.743,1.59c-1.81,1.696-5.04,1.66-6.615-0.342
		c-1.35-1.435-1.281-3.535-1.162-5.364C-1,97.434,0.523,95.553,2.531,95.09L2.531,95.09z"/>
	<path fill="#888888" d="M8.922,94.943c0.714,0,1.431,0.003,2.148,0.015c0.018,1.67,0.023,3.341,0.003,5.014
		c1.225,0.088,2.457,0.088,3.686,0.011c-0.015-1.674-0.008-3.348,0.008-5.017c0.718-0.015,1.435-0.026,2.153-0.029
		c0.003,3.823,0.067,7.652-0.037,11.474c-0.714-0.026-1.424-0.047-2.137-0.062c0.015-1.49,0.015-2.976-0.003-4.462
		c-1.217-0.018-2.431-0.018-3.645,0.011c-0.015,1.483-0.018,2.968-0.003,4.455c-0.714,0.015-1.424,0.029-2.137,0.052
		C8.866,102.584,8.928,98.762,8.922,94.943L8.922,94.943z"/>
	<path fill="#888888" d="M30.94,96.742c0.813-1.107,2.178-1.655,3.502-1.806c1.152-0.096,2.153,0.585,3.076,1.177
		c-0.169,0.438-0.335,0.879-0.5,1.325c-1.255-0.228-2.734-0.813-3.899-0.033c-1.387,1.126-1.251,3.046-1.111,4.646
		c0.081,1.133,0.986,2.112,2.052,2.439c1.053,0.173,1.968-0.496,2.944-0.762c0.776,0.199,0.894,1.501,0.177,1.839
		c-1.048,0.861-2.48,0.927-3.767,0.736c-1.824-0.394-3.212-2.031-3.495-3.848C29.626,100.524,29.7,98.345,30.94,96.742L30.94,96.742
		z"/>
	<path fill="#888888" d="M39.923,94.943c0.703,0.003,1.406,0.018,2.108,0.041c-0.026,1.471-0.143,2.983,0.376,4.396
		c1.177-1.45,2.163-3.043,3.359-4.477c0.669,0.029,1.339,0.059,2.013,0.107c-0.762,1.435-1.873,2.638-2.755,3.995
		c-0.405,0.578,0.117,1.225,0.345,1.762c1.034,1.854,2.127,3.679,3.046,5.595c-0.791,0-1.575-0.008-2.361-0.033
		c-0.802-1.59-1.626-3.167-2.376-4.779c-0.14,0.003-0.42,0.008-0.56,0.011c-1.041,1.401-1.243,3.12-1.111,4.812
		c-0.662,0.003-1.328,0.008-1.99,0.018C39.761,102.584,39.901,98.757,39.923,94.943L39.923,94.943z"/>
	<path fill="#888888" d="M52.604,98.111c0.654-1.928,2.597-3.212,4.613-3.175c1.038,0.081,1.928,0.695,2.811,1.196
		c-0.184,0.427-0.371,0.857-0.552,1.287c-1.273-0.192-2.734-0.794-3.922-0.029c-1.305,1.03-1.299,2.818-1.173,4.327
		c0.033,1.133,0.784,2.189,1.792,2.685c1.173,0.412,2.288-0.342,3.341-0.765c0.228,0.485,0.456,0.978,0.68,1.471
		c-1.652,1.483-4.249,1.766-6.055,0.397C51.986,103.784,51.765,100.557,52.604,98.111L52.604,98.111z"/>
	<path fill="#888888" d="M61.967,94.931c0.467,3.675,0.044,7.401,0.221,11.092c0.114-3.694,0.081-7.424-0.029-11.128
		c0.596,0.14,1.413-0.195,1.873,0.301c0.091,1.604-0.003,3.216,0.055,4.823c1.331,0.026,2.659,0.029,3.992,0.015
		c0.073-1.608-0.037-3.219,0.07-4.823c0.401-0.53,1.243-0.169,1.818-0.32c-0.132,3.749-0.062,7.497-0.044,11.246
		c0.239-3.745-0.291-7.538,0.28-11.25c0.298,3.811,0.047,7.648,0.132,11.471c-0.743,0.008-1.486,0.015-2.226,0.026
		c0.008-1.505,0.011-3.006-0.011-4.503c-1.343-0.018-2.685-0.018-4.028,0.011c-0.011,1.497-0.011,2.998-0.008,4.499
		c-0.743-0.018-1.483-0.033-2.222-0.044C61.929,102.544,61.698,98.728,61.967,94.931L61.967,94.931z"/>
	<path fill="#888888" d="M86.792,95.16c1.325-0.548,2.77,0.018,3.955,0.651c0.452,0.57-0.081,1.177-0.313,1.71
		c-0.905-0.262-1.806-0.545-2.7-0.832c-3.002,1.17-3.23,5.956-0.636,7.66c1.181,0.537,2.366-0.283,3.429-0.729
		c0.283,0.592,0.838,1.512,0.037,1.964c-2.252,1.748-5.834,0.61-6.817-2.027C82.303,100.609,83.425,96.179,86.792,95.16
		L86.792,95.16z"/>
	<path fill="#888888" d="M93.042,94.987c0.698-0.026,1.398-0.041,2.097-0.044c0.059,1.552,0.033,3.108,0.107,4.664
		c1.237-1.515,2.27-3.182,3.495-4.705c0.688,0.029,1.38,0.059,2.071,0.103c-0.934,1.523-2.031,2.939-2.98,4.451
		c1.074,2.361,2.465,4.555,3.595,6.887c-0.724,0.023-1.445,0.041-2.166,0.059c-1.004-1.634-1.829-3.362-2.708-5.058
		c-0.431,0.5-0.945,0.957-1.237,1.564c-0.206,1.147-0.199,2.325-0.276,3.491c-0.666-0.015-1.328-0.026-1.99-0.033
		C93.049,102.573,93.064,98.78,93.042,94.987L93.042,94.987z"/>
	<path fill="#888888" d="M106.268,94.972c0.669-0.015,1.343-0.018,2.016-0.015c-0.029,1.699-0.047,3.411,0.21,5.099
		c1.273-0.018,2.545-0.018,3.823,0.003c0.044-1.696,0.041-3.388,0.041-5.081c0.729-0.033,1.453-0.059,2.185-0.096
		c-0.122,3.797,0.003,7.597-0.07,11.393c-0.714,0.052-1.427,0.103-2.141,0.169c0.033-1.53,0.023-3.061,0.018-4.588
		c-1.31,0.011-2.62,0.011-3.925,0.011c-0.187,1.497-0.151,3.009-0.155,4.521c-0.666-0.011-1.328-0.018-1.99-0.018
		C106.268,102.573,106.286,98.773,106.268,94.972L106.268,94.972z"/>
	<path fill="#888888" d="M125.902,94.924c0.762,0.129,1.806-0.28,2.332,0.467c1.409,2.083,2.057,4.654,3.815,6.504
		c0.158-2.281,0.067-4.565,0.062-6.846c0.706-0.062,1.416-0.103,2.127-0.136c0.033,3.823,0.067,7.648-0.015,11.474
		c-0.729-0.011-1.45-0.015-2.171-0.023c-1.354-2.55-2.612-5.15-3.988-7.689c-0.42,2.557-0.047,5.157-0.217,7.733
		c-0.644-0.023-1.284-0.041-1.92-0.052C125.832,102.547,125.879,98.736,125.902,94.924L125.902,94.924z"/>
	<path fill="#888888" d="M159.018,94.991c2.167-0.088,4.337-0.062,6.508-0.026c-0.003,0.56-0.008,1.123-0.011,1.692
		c-1.416,0.026-2.833,0.029-4.249,0.018c-0.033,1.141-0.029,2.288-0.008,3.436c1.211-0.008,2.425,0.003,3.639,0.044
		c-0.008,0.548-0.008,1.1-0.003,1.655c-1.206,0.055-2.417,0.062-3.62,0.055c-0.029,0.957-0.037,1.912-0.029,2.874
		c1.46,0.018,2.924,0.015,4.389,0.041c-0.003,0.522-0.003,1.045,0,1.575c-2.182,0.041-4.366,0.041-6.548,0.003
		C158.886,102.573,159.004,98.776,159.018,94.991L159.018,94.991z"/>
	<path fill="#888888" d="M167.498,94.943c0.758-0.003,1.52-0.037,2.273,0.052c1.211,2.373,1.748,5.029,2.615,7.538
		c0.802-2.542,1.655-5.069,2.557-7.578c0.794-0.011,1.59-0.015,2.384-0.011c0.011,3.826,0.077,7.652-0.033,11.478
		c-0.714-0.041-1.42-0.073-2.13-0.114c0.008-1.957,0.114-3.925-0.107-5.875c-1.173,1.305-1.339,3.116-1.909,4.705
		c-0.467,0.044-0.931,0.088-1.391,0.14c-0.706-1.622-1.211-3.326-1.611-5.043c-1.022,1.865-0.49,4.057-0.581,6.088
		c-0.674,0.026-1.35,0.047-2.023,0.07C167.425,102.576,167.498,98.757,167.498,94.943L167.498,94.943z"/>
	<path fill="#888888" d="M180.234,94.98c0.729-0.022,1.46-0.029,2.192-0.029c0.029,3.803,0.07,7.608-0.018,11.411
		c-0.724,0.003-1.442,0.011-2.163,0.023C180.242,102.58,180.263,98.78,180.234,94.98L180.234,94.98z"/>
	<path fill="#888888" d="M184.351,94.962c0.714-0.015,1.427-0.023,2.148-0.023c0.041,2.381-0.023,4.76,0.018,7.144
		c-0.037,0.894,0.382,1.839,1.155,2.325c0.806,0.132,1.909,0.331,2.465-0.426c0.596-0.599,0.475-1.505,0.537-2.27
		c0-2.171,0.008-4.341-0.033-6.511c0.721-0.136,1.442-0.254,2.174-0.338c0.062,2.41,0.073,4.823,0.018,7.237
		c-0.062,1.736-0.968,3.665-2.773,4.158c-1.508,0.276-3.245,0.18-4.433-0.894c-0.876-1.133-1.284-2.589-1.291-4.006
		C184.317,99.221,184.336,97.091,184.351,94.962L184.351,94.962z"/>
	<path fill="#888888" d="M195.108,94.962c0.773-0.015,1.549-0.023,2.325-0.023c0.883,2.281,1.634,4.613,2.358,6.949
		c0.107,0.008,0.32,0.015,0.426,0.018c0.754-2.277,1.313-4.639,2.376-6.799c0.714-0.32,1.541-0.129,2.306-0.192
		c0.011,3.837,0.073,7.674-0.033,11.507c-0.706-0.044-1.409-0.081-2.112-0.117c0.008-1.932,0.125-3.87-0.122-5.787
		c-1.056,1.391-1.424,3.123-2.078,4.709c-0.405-0.003-0.802,0-1.199,0.003c-0.276-0.706-0.555-1.409-0.784-2.13
		c-0.493-1.6-0.997-3.196-1.559-4.771c-0.269,2.627-0.088,5.271-0.166,7.906c-0.589,0.067-1.177,0.132-1.762,0.202
		C195.115,102.614,195.074,98.788,195.108,94.962L195.108,94.962z"/>
	<path fill="#888888" d="M230.76,94.939c0.729,0.008,1.464,0.023,2.2,0.047c-0.023,3.789-0.008,7.582-0.008,11.372
		c-0.729,0.008-1.453,0.011-2.171,0.026C230.693,102.57,230.734,98.754,230.76,94.939L230.76,94.939z"/>
	<path fill="#888888" d="M235.376,94.969c2.141-0.044,4.278-0.062,6.42,0.018c-0.008,0.548-0.011,1.1-0.008,1.655
		c-1.369,0.136-2.836-0.206-4.132,0.246c0.07,1.027-0.338,2.314,0.243,3.186c1.141,0.088,2.285,0.033,3.429,0.073
		c-0.037,0.57-0.07,1.144-0.111,1.722c-1.191-0.008-2.381-0.003-3.569,0.011c-0.008,0.952-0.003,1.909,0.018,2.866
		c1.445,0.008,2.895,0.003,4.345,0.041c0,0.516,0,1.034,0,1.556c-2.207,0.067-4.418,0.029-6.625,0.041
		C235.373,102.576,235.391,98.773,235.376,94.969L235.376,94.969z"/>
	<path fill="#888888" d="M265.289,94.921c0.739,0.018,1.483,0.047,2.229,0.085c0,2.483-0.081,4.97,0.023,7.45
		c-0.026,1.071,0.773,2.262,1.964,2.064c1.162,0.166,2.075-1.019,2.06-2.101c0.081-2.487,0-4.978,0.029-7.465
		c0.607-0.011,1.222-0.015,1.836-0.015c0.003,2.623,0.067,5.253-0.023,7.88c-0.029,1.361-0.773,2.814-2.13,3.274
		c-1.754,0.599-4.161,0.397-5.22-1.328C264.682,101.668,265.44,98.195,265.289,94.921L265.289,94.921z"/>
	<path fill="#888888" d="M276.02,94.95c0.758,0.008,1.538-0.088,2.285,0.099c0.939,2.211,1.777,4.496,2.156,6.876
		c0.147-0.011,0.441-0.037,0.589-0.047c0.762-2.325,1.354-4.705,2.277-6.972c0.736,0.018,1.471,0.037,2.211,0.055
		c0.029,3.8,0.037,7.6,0,11.397c-0.633,0.003-1.258,0.011-1.883,0.018c-0.011-2.277,0.158-4.569-0.117-6.835
		c-0.809,1.52-1.214,3.193-1.795,4.801c-0.187,0.596-0.776,0.864-1.281,1.137c-1.137-1.932-1.409-4.22-2.535-6.155
		c-0.14,2.355-0.023,4.713-0.066,7.071c-0.599-0.015-1.199-0.026-1.792-0.033C275.935,102.562,276.016,98.754,276.02,94.95
		L276.02,94.95z"/>
	<path fill="#888888" d="M290.423,94.983c0.662-0.029,1.325-0.052,1.994-0.07c0.813,1.696,1.369,3.495,2.001,5.264
		c0.916-1.678,1.468-3.513,2.211-5.264c0.677,0.023,1.357,0.044,2.042,0.081c-0.802,2.034-1.722,4.021-2.589,6.029
		c-0.747,1.681-0.516,3.561-0.548,5.352c-0.68,0-1.357,0.008-2.031,0.018c-0.062-1.806,0.236-3.715-0.545-5.411
		C292.115,98.982,291.126,97.04,290.423,94.983L290.423,94.983z"/>
	<path fill="#888888" d="M299.388,94.962c0.68-0.008,1.361-0.011,2.049-0.011c0.129,2.781-0.313,5.624,0.306,8.358
		c0.651,1.868,3.808,1.53,3.951-0.496c0.21-2.586,0.044-5.194,0.073-7.788c0.688-0.047,1.38-0.077,2.075-0.096
		c-0.008,2.369,0.114,4.745-0.055,7.111c-0.14,1.559-0.63,3.455-2.288,4.025c-1.754,0.636-4.132,0.438-5.271-1.214
		c-0.63-0.78-0.794-1.795-0.809-2.766C299.348,99.711,299.411,97.334,299.388,94.962L299.388,94.962z"/>
	<path fill="#888888" d="M310.09,94.998c0.732-0.044,1.464-0.073,2.204-0.111c1.082,2.457,1.795,5.051,2.755,7.553
		c0.78-2.531,1.46-5.11,2.56-7.527c0.729,0.018,1.464,0.041,2.203,0.07c-0.026,3.823,0.023,7.645-0.026,11.467
		c-0.633-0.091-1.328,0.011-1.898-0.309c-0.073-2.711-0.033-5.43,0.096-8.141c-0.574,2.475-1.655,4.79-2.399,7.214
		c-0.446,0-0.887,0.003-1.321,0.011c-0.471-1.354-0.989-2.693-1.383-4.069c-0.269-0.989-0.566-1.968-0.923-2.921
		c-0.257,2.726-0.181,5.478-0.055,8.211c-0.61-0.044-1.214-0.073-1.813-0.103C310.104,102.562,310.104,98.78,310.09,94.998
		L310.09,94.998z"/>
	<path fill="#888888" d="M146.076,95.616c-1.883-1.037-4.109-0.615-6.158-0.648c0.003,3.8-0.07,7.6,0.041,11.401
		c0.718,0,1.439,0,2.163,0.008c0-1.284,0.003-2.568,0.041-3.848c1.243-0.231,2.645-0.041,3.734-0.799
		C147.908,100.41,148.029,97.043,146.076,95.616z M145.046,100.086c-0.832,0.622-1.888,0.677-2.88,0.684
		c-0.055-1.38-0.055-2.755,0.015-4.127c0.997,0.114,2.292-0.221,2.968,0.736C145.447,98.246,145.414,99.24,145.046,100.086z"/>
	<path fill="#888888" d="M155.163,102.186c0.685-0.78,1.619-1.534,1.593-2.674c0.077-1.354,0.187-3.097-1.159-3.899
		c-1.924-1.03-4.187-0.625-6.272-0.622c0.018,3.793,0.003,7.585,0.008,11.382c0.714-0.003,1.427-0.003,2.145,0
		c0.052-1.302,0.052-2.601,0.073-3.899c0.504,0.037,1.008,0.077,1.512,0.125c0.666,1.232,1.331,2.469,1.912,3.749
		c0.768,0.015,1.538,0.023,2.311,0.026C156.572,104.978,155.806,103.61,155.163,102.186z M154.836,99.468
		c-0.526,1.299-2.115,1.339-3.3,1.261c-0.008-1.361-0.011-2.722,0.003-4.083c0.964,0.107,2.156-0.225,2.884,0.596
		C155.137,97.743,154.865,98.724,154.836,99.468z"/>
	<path fill="#888888" d="M250.555,96.355c-1.689-1.766-4.36-1.398-6.571-1.401c-0.011,3.808-0.055,7.619,0.026,11.427
		c2.042-0.096,4.363,0.42,6.122-0.916c1.527-1.103,1.593-3.16,1.619-4.867C251.67,99.141,251.766,97.4,250.555,96.355z
		 M248.628,103.978c-0.633,0.677-1.597,0.762-2.469,0.758c0.003-2.7,0-5.401,0.003-8.101c1.372-0.125,2.833,0.504,3.281,1.899
		C249.959,100.299,250.036,102.591,248.628,103.978z"/>
	<path fill="#888888" d="M216.305,95.634c-1.714-0.901-3.712-0.706-5.577-0.662c0.018,3.8,0,7.604,0.011,11.408
		c1.611-0.052,3.274,0.18,4.845-0.25c1.759-0.548,2.557-2.402,2.921-4.057C218.88,99.769,218.413,96.977,216.305,95.634z
		 M215.606,103.702c-0.584,0.864-1.689,0.938-2.62,1.107c-0.345-2.741-0.475-5.574,0.099-8.293c1.181,0.257,2.656,0.629,2.991,1.982
		C216.574,100.171,216.64,102.209,215.606,103.702z"/>
	<path fill="#888888" d="M226.856,102.407c0.446-0.894,1.185-1.611,1.556-2.542c0.309-1.545,0.047-3.377-1.357-4.304
		c-1.85-1.008-4.036-0.534-6.044-0.599c0.015,3.815-0.026,7.63,0.023,11.445c0.718-0.023,1.435-0.041,2.159-0.059
		c0.099-1.321,0.096-2.645,0.129-3.966c0.452,0.111,0.938,0.151,1.365,0.368c0.813,1.092,1.137,2.465,1.95,3.561
		c0.695,0.099,1.398,0.055,2.104,0.052C228.262,104.972,227.393,103.764,226.856,102.407z M225.536,100.406
		c-0.651,0.438-1.471,0.291-2.204,0.382c-0.059-1.383-0.062-2.763-0.023-4.142c1.038-0.033,2.06,0.125,2.994,0.596
		C226.208,98.301,226.771,99.843,225.536,100.406z"/>
	<path fill="#888888" d="M27.07,96.532c-1.074-1.357-3.035-1.883-4.68-1.453c-3.59,0.957-4.47,5.805-2.899,8.767
		c1.199,2.892,5.471,3.385,7.497,1.126C28.71,102.51,28.839,99.004,27.07,96.532z M25.337,103.662
		c-0.654,0.908-2.038,1.137-2.965,0.522c-0.82-0.394-0.986-1.365-1.276-2.13c-0.441-1.597,0.158-3.167,0.666-4.661
		c1.115-0.316,2.589-0.765,3.51,0.202C26.502,99.351,26.536,101.878,25.337,103.662z"/>
	<path fill="#888888" d="M80.777,96.922c-1.037-1.626-3.204-2.395-5.037-1.795c-0.794,0.225-1.597,0.574-2.119,1.24
		c-1.799,2.443-1.854,6.008-0.044,8.461c1.339,1.707,3.966,2.005,5.801,0.96c1.258-0.604,1.818-1.994,2.218-3.237
		C82.001,100.671,81.928,98.537,80.777,96.922z M78.761,103.717c-0.905,1.074-2.726,1.048-3.587-0.062
		c-1.126-1.883-1.1-4.499,0.276-6.243c0.68-0.482,1.597-0.449,2.384-0.324c1.048,0.136,1.365,1.266,1.645,2.119
		C79.643,100.715,79.772,102.451,78.761,103.717z"/>
	<path fill="#888888" d="M120.976,94.931c-0.788,0.003-1.571,0.011-2.355,0.018c-0.934,3.152-1.891,6.298-2.766,9.473
		c-0.177,0.659-0.345,1.325-0.508,1.994c0.674-0.033,1.35-0.052,2.027-0.067c0.221-0.901,0.452-1.799,0.714-2.685
		c1.141-0.029,2.285-0.029,3.425-0.011c0.254,0.898,0.493,1.803,0.718,2.715c0.743,0,1.486-0.003,2.233-0.003
		C123.194,102.584,122.281,98.695,120.976,94.931z M118.676,101.826c0.18-1.611,0.607-3.178,1.092-4.724
		c0.618,1.523,0.938,3.142,1.266,4.745C120.247,101.852,119.459,101.848,118.676,101.826z"/>
</g>
</svg>
