<?xml version="1.0" encoding="utf-8"?>
<!-- Generator: Adobe Illustrator 17.0.0, SVG Export Plug-In . SVG Version: 6.00 Build 0)  -->
<!DOCTYPE svg PUBLIC "-//W3C//DTD SVG 1.1//EN" "http://www.w3.org/Graphics/SVG/1.1/DTD/svg11.dtd">
<svg version="1.1" id="레이어_1" xmlns="http://www.w3.org/2000/svg" xmlns:xlink="http://www.w3.org/1999/xlink" x="0px"
	 y="0px" width="320px" height="160px" viewBox="0 0 320 160" enable-background="new 0 0 320 160" xml:space="preserve">
<path fill="#FDB7BC" d="M150.36,5.696c1.736-0.594,3.879-0.351,5.234,0.959c0.907,0.888,0.773,2.255,0.803,3.416
	c-0.161,10.09-0.007,20.18-0.06,30.27c-0.056,2.102,0.25,4.214,0.007,6.312c-0.22,1.303-1.553,1.964-2.732,2.173
	c-1.557,0.302-3.412,0.291-4.651-0.84c-0.944-0.929-0.776-2.359-0.832-3.565c0.034-10.699-0.157-21.397-0.168-32.096
	c0.007-1.493-0.164-3.005,0.138-4.48C148.352,6.756,149.341,6.024,150.36,5.696L150.36,5.696z"/>
<path fill="#FDB7BC" d="M166.505,6.928c0.549-1.209,1.99-1.475,3.184-1.467c7.959-0.138,15.917-0.007,23.876,0.019
	c2.841-0.037,5.782-0.056,8.466,1.012c1.213,0.47,2.005,1.635,2.307,2.863c0.814,3.027,0.474,6.197,0.493,9.295
	c0.007,3.785-0.907,7.499-2.079,11.072c-0.81,2.288-1.754,4.562-3.151,6.559c-0.791,1.18-2.43,1.448-3.688,0.922
	c-1.493-0.567-3.039-1.534-3.617-3.098c-0.429-1.146,0.198-2.285,0.694-3.292c0.788-1.501,1.471-3.054,2.102-4.629
	c-8.47-0.022-16.94,0.056-25.41,0.175c-0.956-0.004-2.049-0.09-2.699-0.885c-1.041-1.251-1.075-3.016-0.933-4.554
	c0.112-1.18,0.717-2.542,2.016-2.755c1.769-0.272,3.569-0.097,5.353-0.134c7.638-0.06,15.279-0.026,22.92-0.034
	c0.041-1.381,0.063-2.759,0.056-4.14c-3.804-0.172-7.611-0.052-11.415-0.007c-5.234-0.022-10.463,0.037-15.693,0.149
	c-1.217,0.112-2.423-0.612-2.811-1.784C165.881,10.534,165.792,8.581,166.505,6.928L166.505,6.928z"/>
<path fill="#FDB7BC" d="M132.606,19.396c-0.25-3.595-1.068-7.653-4.132-9.937c-3.221-2.266-7.384-3.136-11.255-2.497
	c-3.621,0.575-7.19,2.587-8.97,5.883c-1.829,3.498-1.766,7.563-1.736,11.404c-0.097,4.14-0.004,8.283,0.362,12.408
	c0.403,2.938,1.139,6.077,3.36,8.201c4.879,4.468,13.08,4.819,18.146,0.463c3.408-2.818,4.155-7.552,4.263-11.725
	C132.628,28.862,132.703,24.125,132.606,19.396z M124.147,33.226c-0.123,1.777-0.265,3.774-1.564,5.133
	c-1.732,1.84-4.95,1.396-6.577-0.358c-1.12-1.452-1.09-3.404-1.221-5.148c-0.119-4.121-0.205-8.261,0.164-12.371
	c0.127-2.001,1.273-4.121,3.352-4.61c1.691-0.362,3.972-0.25,4.927,1.437c0.963,2.038,0.915,4.364,0.971,6.57
	C124.158,26.996,124.255,30.113,124.147,33.226z"/>
<path fill="#FDB7BC" d="M161.223,38.99c0.444-0.116,0.896-0.187,1.355-0.202c15.186-0.202,30.371-0.194,45.557,0.03
	c0.974,0.049,2.113,0.131,2.762,0.978c1.086,1.411,1.157,3.375,0.728,5.043c-0.258,1.109-1.109,2.214-2.348,2.169
	c-10.213,0.448-20.434-0.187-30.651-0.041c-5.469,0.011-10.934,0.217-16.399,0.239c-1.919,0.09-2.74-1.967-3.027-3.531
	C158.766,41.928,159.323,39.594,161.223,38.99L161.223,38.99z"/>
<path fill="#FDB7BC" d="M154.302,55.668c-2.199-2.774-5.857-3.729-9.239-3.927c-7.906-0.22-15.82-0.295-23.723,0.007
	c-3.804,0.19-7.94,0.325-11.158,2.624c-2.848,2.251-4.192,5.943-4.487,9.463c0.06,4.102,1.982,8.425,5.629,10.534
	c2.774,1.482,5.988,1.893,9.093,1.904c8.089-0.022,16.179,0.015,24.268-0.019c3.49-0.179,7.425-0.885,9.762-3.755
	C158.083,67.692,158.274,60.346,154.302,55.668z M146.825,67.106c-1.859,0.765-3.916,0.75-5.891,0.788
	c-6.35-0.011-12.696,0-19.042-0.004c-1.665-0.034-3.371-0.034-4.957-0.586c-1.209-0.433-2.292-1.43-2.557-2.721
	c-0.246-1.676,0.888-3.434,2.512-3.912c2.042-0.627,4.207-0.5,6.312-0.691c6.533-0.261,13.073-0.037,19.605,0.153
	c1.669,0.093,3.554,0.22,4.812,1.467C149.199,63.086,148.882,66.21,146.825,67.106z"/>
<path fill="#FDB7BC" d="M208.302,57.531c-0.198-1.665-0.328-3.677-1.84-4.722c-1.799-1.206-4.084-1.042-6.148-1.146
	c-9.799-0.149-19.598-0.228-29.393-0.045c-1.922,0.101-3.901,0-5.76,0.579c-1.18,0.347-2.016,1.43-2.154,2.639
	c-0.81,5.069-0.258,10.225-0.44,15.331c0.067,1.993,0.146,4.61,2.139,5.693c2.419,0.959,5.077,0.351,7.604,0.482
	c8.324-0.119,16.671,0.168,24.977-0.538c3.292-0.37,6.861-0.706,9.541-2.856c1.176-0.903,1.433-2.471,1.489-3.864
	C208.448,65.236,208.489,61.376,208.302,57.531z M180.877,68.058c-3.285,0.022-6.57,0.067-9.855,0.015
	c0.019-2.688-0.045-5.375-0.026-8.059c9.624-0.198,19.251-0.399,28.874-0.157c-0.011,2.445,0.026,4.89,0.011,7.339
	C193.602,68.211,187.215,68.013,180.877,68.058z"/>
<path fill="#A388BF" d="M150.815,83.486c1.631-0.28,3.602-0.187,4.815,1.086c0.728,0.728,0.747,1.81,0.758,2.774
	c-0.041,7.089-0.149,14.181-0.015,21.27c-0.067,4.983-0.067,9.971,0.06,14.954c0.112,1.224-0.616,2.434-1.788,2.833
	c-1.725,0.59-3.83,0.747-5.409-0.299c-1.183-0.829-1.071-2.411-1.101-3.684c0.03-10.952-0.161-21.905-0.183-32.857
	c0.007-1.351-0.164-2.74,0.213-4.058C148.549,84.371,149.684,83.688,150.815,83.486L150.815,83.486z"/>
<path fill="#A388BF" d="M166.736,84.416c0.571-0.84,1.657-0.956,2.587-0.989c8.836-0.164,17.672,0.015,26.508,0.007
	c2.128,0.011,4.323,0.138,6.305,0.985c1.071,0.455,1.822,1.46,2.124,2.565c0.9,3.012,0.552,6.197,0.575,9.295
	c0.026,3.987-0.933,7.903-2.202,11.658c-0.803,2.195-1.732,4.382-3.091,6.297c-0.896,1.284-2.725,1.303-4.024,0.691
	c-1.37-0.608-2.807-1.553-3.255-3.065c-0.351-1.101,0.235-2.169,0.709-3.124c0.803-1.519,1.486-3.095,2.135-4.685
	c-8.601-0.049-17.201,0.086-25.802,0.179c-1.426,0.138-2.762-0.877-3.054-2.27c-0.384-1.62-0.452-3.487,0.403-4.972
	c0.631-1.041,1.952-1.045,3.027-1.086c8.892-0.037,17.784-0.045,26.676-0.037c0.03-1.385,0.041-2.77,0.034-4.151
	c-7.533-0.09-15.07,0.022-22.603,0.052c-1.855-0.037-3.729,0.31-5.57-0.004c-1.333-0.314-1.908-1.74-2.087-2.96
	C165.945,87.339,165.904,85.7,166.736,84.416L166.736,84.416z"/>
<path fill="#A388BF" d="M132.643,104.533c-0.086-3.748,0.321-7.567-0.627-11.244c-0.56-2.509-1.866-4.995-4.129-6.35
	c-3.166-1.937-7.059-2.729-10.721-2.087c-3.64,0.586-7.212,2.643-8.97,5.976c-1.852,3.636-1.695,7.832-1.687,11.804
	c-0.105,3.864,0.034,7.731,0.336,11.583c0.314,2.49,0.829,5.066,2.262,7.178c1.837,2.635,4.965,4.073,8.044,4.666
	c5.215,1.023,11.322-1.221,13.786-6.122C133.207,115.127,132.543,109.68,132.643,104.533z M123.796,113.872
	c-0.321,1.56-1.415,3.046-3.016,3.438c-1.81,0.381-3.935-0.22-5.032-1.769c-0.937-1.639-0.877-3.599-0.989-5.42
	c-0.082-3.99-0.19-8.003,0.217-11.979c0.168-1.799,1.142-3.669,2.945-4.27c1.952-0.676,4.901-0.347,5.588,1.941
	c0.941,2.934,0.638,6.066,0.687,9.097C124.14,107.896,124.42,110.927,123.796,113.872z"/>
<path fill="#A388BF" d="M162.01,116.713c14.256-0.25,28.523-0.224,42.779-0.041c1.609,0.045,3.236-0.101,4.827,0.202
	c1.191,0.28,1.874,1.486,2.102,2.609c0.403,1.96,0.086,5.305-2.497,5.413c-6.574,0.22-13.155,0.146-19.729-0.004
	c-8.978-0.138-17.955,0.004-26.926,0.22c-0.989,0.045-2.049-0.329-2.527-1.251c-0.87-1.616-1.344-3.636-0.582-5.383
	C159.879,117.452,160.92,116.791,162.01,116.713L162.01,116.713z"/>
<path fill="#A388BF" d="M154.037,133.254c-2.094-2.445-5.383-3.333-8.474-3.595c-9.071-0.287-18.164-0.418-27.232,0.142
	c-3.177,0.287-6.641,0.877-9.008,3.207c-2.273,2.352-3.404,5.622-3.632,8.836c0.105,3.763,1.736,7.63,4.834,9.889
	c2.553,1.736,5.73,2.27,8.761,2.385c8.466,0.015,16.936,0.011,25.403,0c3.472-0.142,7.358-0.87,9.706-3.681
	C158.165,145.539,158.292,137.909,154.037,133.254z M147.011,144.908c-1.904,0.84-4.035,0.844-6.081,0.888
	c-6.723-0.026-13.446,0.034-20.169-0.034c-2.079-0.097-4.584-0.235-5.879-2.12c-1.355-1.855,0.037-4.666,2.169-5.144
	c1.844-0.534,3.789-0.47,5.689-0.608c6.062-0.243,12.136-0.09,18.198,0.06c2.143,0.097,4.55-0.101,6.365,1.251
	C149.147,140.537,149.05,143.822,147.011,144.908z"/>
<path fill="#A388BF" d="M208.377,136.983c-0.071-1.773-0.153-3.628-0.941-5.249c-1.176-1.885-3.628-2.061-5.626-2.131
	c-7.847-0.269-15.701-0.168-23.547-0.202c-3.916,0.045-7.847-0.026-11.748,0.362c-1.501,0.127-3.147,0.959-3.423,2.583
	c-0.926,4.976-0.347,10.068-0.5,15.096c-0.019,1.81,0.011,3.763,1.008,5.349c0.922,1.333,2.729,1.463,4.207,1.508
	c6.1-0.123,12.203,0.022,18.299-0.172c4.483-0.034,8.981-0.119,13.431-0.709c2.609-0.37,5.353-0.937,7.406-2.699
	c0.978-0.799,1.251-2.113,1.348-3.307C208.459,143.937,208.426,140.458,208.377,136.983z M184.636,145.916
	c-4.536-0.049-9.071,0.146-13.61,0.063c0-2.699-0.037-5.398-0.041-8.097c9.623-0.142,19.254-0.482,28.878-0.157
	c-0.007,2.449,0.03,4.894,0.041,7.343C194.864,145.949,189.731,145.86,184.636,145.916z"/>
</svg>
