<?xml version="1.0" encoding="utf-8"?>
<!-- Generator: Adobe Illustrator 17.0.0, SVG Export Plug-In . SVG Version: 6.00 Build 0)  -->
<!DOCTYPE svg PUBLIC "-//W3C//DTD SVG 1.1//EN" "http://www.w3.org/Graphics/SVG/1.1/DTD/svg11.dtd">
<svg version="1.1" id="레이어_1" xmlns="http://www.w3.org/2000/svg" xmlns:xlink="http://www.w3.org/1999/xlink" x="0px"
	 y="0px" width="320px" height="160px" viewBox="0 0 320 160" enable-background="new 0 0 320 160" xml:space="preserve">
<path fill="#231815" d="M135.175,47.03c8.31-8.275,16.479-16.673,24.825-24.93c8.345,8.24,16.497,16.655,24.825,24.93
	c-0.018,3.25-0.018,6.5-0.018,9.751c-4.761-4.708-9.487-9.452-14.16-14.266c-3.549,3.602-7.098,7.186-10.647,10.787
	c-3.549-3.602-7.098-7.186-10.647-10.787c-4.673,4.814-9.399,9.557-14.16,14.266C135.193,53.53,135.193,50.28,135.175,47.03
	L135.175,47.03z"/>
<path fill="#FFFFFF" d="M154.185,37.683c1.95-1.915,3.883-3.865,5.815-5.815c1.915,1.95,3.865,3.9,5.798,5.833
	c-1.933,1.915-3.865,3.865-5.798,5.798C158.067,41.566,156.135,39.616,154.185,37.683L154.185,37.683z"/>
<path fill="#231815" d="M17.694,91.075c2.688,0.439,6.29-1.124,8.257,1.335c5.077,5.903,9.979,11.964,15.056,17.867
	c5.376-6.395,10.787-12.755,16.146-19.167c2.442,0.018,4.884,0,7.326-0.018c0,15.671-0.018,31.342,0,47.014
	c-2.67-0.018-5.358-0.018-8.029,0c0-10.963,0.018-21.926-0.018-32.888c-5.165,6.114-10.278,12.28-15.443,18.394
	c-5.165-6.131-10.33-12.263-15.496-18.412c0,10.963,0,21.943,0,32.906c-2.6-0.018-5.2-0.018-7.8,0
	C17.694,122.435,17.694,106.746,17.694,91.075L17.694,91.075z"/>
<path fill="#231815" d="M97.473,91.11c2.424,0.018,4.849,0.018,7.256,0c6.553,15.671,13.176,31.325,19.765,46.996
	c-15.583,0-31.184,0-46.768,0C84.297,122.435,90.92,106.781,97.473,91.11L97.473,91.11z"/>
<path fill="#231815" d="M137.811,91.11c8.925,0.211,17.902-0.474,26.775,0.351c11.367,2.038,16.11,17.727,8.117,25.931
	c-6.799,7.8-18.078,4.375-27.073,5.13c0,5.183-0.018,10.383,0,15.583c-2.618-0.018-5.218-0.018-7.818,0
	C137.828,122.435,137.811,106.781,137.811,91.11L137.811,91.11z"/>
<path fill="#231815" d="M190.06,104.62c-0.141-6.711,5.499-13.106,12.263-13.422c8.872-0.281,17.762,0,26.634-0.088
	c-0.018,2.635-0.018,5.271,0,7.906c-8.907,0.158-17.832-0.316-26.722,0.211c-5.78,1.037-5.675,10.278,0.07,11.279
	c5.007,0.457,10.067-0.211,15.074,0.387c6.395,0.755,11.578,6.781,11.56,13.194c0.369,6.957-5.446,13.739-12.509,13.932
	c-8.802,0.246-17.639,0-26.458,0.088c0-2.635-0.018-5.271-0.018-7.906c8.784-0.123,17.569,0.246,26.335-0.158
	c5.552-0.527,6.325-8.732,1.476-10.893c-5.938-1.493-12.21,0.316-18.166-1.142C193.872,116.356,189.796,110.558,190.06,104.62
	L190.06,104.62z"/>
<path fill="#231815" d="M242.292,104.69c-0.158-6.887,5.763-13.44,12.72-13.51c8.732-0.228,17.481,0.018,26.212-0.088
	c-0.018,2.653-0.018,5.288,0,7.941c-8.784,0.105-17.569-0.264-26.335,0.141c-5.411,0.474-6.483,8.714-1.634,10.893
	c7.695,2.02,17.217-1.95,23.63,4.304c8.082,6.887,4.023,21.873-6.571,23.489c-9.329,0.615-18.711,0.07-28.075,0.246
	c0.018-2.635,0.018-5.271,0-7.906c8.907-0.141,17.815,0.281,26.704-0.193c5.815-1.037,5.569-10.067-0.035-11.226
	c-5.112-0.562-10.26,0.158-15.373-0.439C247.035,117.498,242.01,111.173,242.292,104.69L242.292,104.69z"/>
<path fill="#231815" d="M294.506,91.11c2.6,0.018,5.183,0,7.783-0.018c0.018,15.671,0.018,31.342,0.018,47.014
	c-2.6-0.018-5.2-0.018-7.801,0C294.506,122.435,294.506,106.781,294.506,91.11L294.506,91.11z"/>
<path fill="#FFFFFF" d="M145.629,99.033c5.903,0.158,11.859-0.439,17.727,0.334c6.746,1.81,7.221,12.158,0.703,14.6
	c-6.026,1.353-12.316,0.369-18.447,0.615C145.611,109.399,145.629,104.216,145.629,99.033L145.629,99.033z"/>
<path fill="#FFFFFF" d="M101.092,103.601c3.725,8.784,7.449,17.569,11.139,26.371c-7.396,0-14.793,0-22.189,0
	C93.713,121.17,97.385,112.385,101.092,103.601L101.092,103.601z"/>
</svg>
