<?xml version="1.0" encoding="utf-8"?>
<!-- Generator: Adobe Illustrator 17.0.0, SVG Export Plug-In . SVG Version: 6.00 Build 0)  -->
<!DOCTYPE svg PUBLIC "-//W3C//DTD SVG 1.1//EN" "http://www.w3.org/Graphics/SVG/1.1/DTD/svg11.dtd">
<svg version="1.1" id="레이어_1" xmlns="http://www.w3.org/2000/svg" xmlns:xlink="http://www.w3.org/1999/xlink" x="0px"
	 y="0px" width="320px" height="160px" viewBox="0 0 320 160" enable-background="new 0 0 320 160" xml:space="preserve">
<path d="M319.999,70.498c-0.006-1.036-0.006-2.071,0-3.107c-4.792,0-9.591,0-14.385,0c0,3.596,0,7.187-0.006,10.783
	c-2.842-0.006-5.684-0.006-8.521-0.006c-0.006-3.717,0-7.44,0-11.163c-1.042,0-2.083,0-3.113,0c-0.006,3.723,0,7.445-0.006,11.163
	c-1.95,0-3.901,0.006-5.852-0.006c-3.574-3.889-7.146-7.78-10.725-11.657c-0.011,3.889,0,7.78-0.006,11.669
	c-2.509-0.006-5.012,0-7.515-0.006c-0.346-3.147-1.737-6.191-4.114-8.314c-4.321-4.114-11.548-4.626-16.416-1.197
	c-3.182,2.129-5.12,5.76-5.581,9.512c-3.372-0.034-6.749,0.069-10.116-0.04c-1.864-1.226-3.97-2.474-5.104-4.465
	c-1.042-1.91,0.714-4.361,2.848-4.017c1.933-0.006,3.078,1.75,4.206,3.055c0.845-0.638,1.698-1.283,2.549-1.928
	c-1.456-1.887-3.176-3.913-5.679-4.275c-3.233-0.69-6.893,1.525-7.33,4.891c-0.553,2.705,1.058,5.185,3.089,6.796
	c-3.596-0.034-7.187-0.006-10.777-0.018c-0.006-3.723,0-7.44-0.006-11.163c-1.053,0-2.1,0-3.141,0c-0.005,3.723,0,7.44-0.005,11.163
	c-3.475,0.006-6.951,0-10.42,0c-0.006-3.717,0-7.44,0-11.163c-1.053,0-2.106,0-3.147,0.006c-0.006,3.716,0,7.44,0,11.157
	c-2.865,0-5.731,0.006-8.596-0.006c-0.011-3.717,0-7.434-0.006-11.157c-1.042,0-2.078,0-3.113,0c0,3.723,0,7.44,0,11.163
	c-1.95,0-3.895,0-5.846,0.006c-3.59-3.873-7.151-7.78-10.737-11.657c0,3.884,0,7.768,0,11.651c-2.734,0.006-5.461,0-8.193,0
	c0-3.717,0-7.44,0-11.157c-1.047-0.006-2.1-0.006-3.147-0.006c0,3.723,0.006,7.445,0,11.163c-2.986,0-5.967,0-8.948,0
	c-0.609-3.918-1.186-7.843-1.806-11.761c-2.204,3.838-4.12,7.843-6.191,11.755c-2.705,0.018-5.403,0.006-8.101,0.006
	c-2.089-3.97-4.165-7.946-6.254-11.922c-0.604,3.976-1.202,7.951-1.807,11.922c-6.859,0-13.711,0.006-20.57,0
	c0-2.555,0-5.115,0-7.67c3.815-0.006,7.624,0,11.439,0c0-1.036,0-2.071,0-3.107c-4.862,0-9.724,0-14.585,0c0,3.59,0,7.187,0,10.777
	c-9.488-0.006-18.976,0.023-28.458-0.011c0.748-4.529,4.873-8.096,9.447-8.234c3.59-0.322,7.083,1.438,9.247,4.258
	c0.823-0.633,1.645-1.265,2.469-1.905c-4.252-6.116-13.659-7.284-19.482-2.802c-2.785,2.054-4.551,5.288-4.989,8.706
	c-3.901-0.023-7.796,0-11.692-0.018c-1.842-3.97-3.682-7.935-5.535-11.898c-1.882,3.97-3.74,7.94-5.621,11.905
	c-7.52,0-15.034,0.006-22.555,0c0-2.555-0.006-5.115,0.011-7.67c3.809,0,7.618,0,11.427,0c0-1.036,0-2.071,0-3.107
	c-4.862,0-9.724,0-14.585,0c0,3.59,0,7.187,0,10.777c-2.86,0.011-5.72-0.018-8.579,0.018c2.278-3.464,0.984-8.941-3.188-10.224
	c-3.752-0.961-7.687-0.431-11.519-0.57c0,8.308,0,16.623,0,24.931c1.047,0,2.094,0,3.141,0c0.011-3.602,0-7.209,0.006-10.811
	c6.715-0.006,13.424-0.006,20.138,0c0.006,3.602-0.006,7.209,0.006,10.811c4.828,0,9.655,0,14.482,0
	c-0.006-1.036-0.006-2.071,0-3.101c-3.781-0.006-7.56,0-11.341-0.006c0-2.566,0-5.138,0-7.704
	c6.996-0.006,13.987-0.006,20.984-0.006c-1.698,3.608-3.401,7.209-5.093,10.817c1.157,0,2.319,0,3.481,0.006
	c1.726-3.602,3.412-7.221,5.133-10.822c2.433,0.006,4.868,0,7.296,0c1.703,3.608,3.39,7.216,5.093,10.817
	c1.134,0,2.273,0,3.412,0.006c-1.674-3.608-3.354-7.216-5.035-10.822c3.383,0,6.76,0.006,10.144,0
	c0.466,2.825,1.565,5.627,3.653,7.658c5.576,5.627,16.047,4.862,20.812-1.462c-0.823-0.627-1.645-1.254-2.469-1.881
	c-2.393,2.877-6.162,4.563-9.914,4.005c-4.39-0.374-8.153-3.953-8.804-8.308c9.488-0.023,18.982-0.006,28.476-0.006
	c0,3.602-0.006,7.209,0,10.811c4.828,0,9.655,0.006,14.482,0c0-1.036,0-2.071,0-3.101c-3.781-0.011-7.56,0-11.335-0.006
	c0-2.572,0-5.138,0-7.704c6.697-0.006,13.395,0,20.092-0.006c-0.495,3.481-0.995,6.956-1.49,10.438
	c1.024-0.006,2.049-0.006,3.078-0.006c0.472-3.475,0.944-6.951,1.422-10.431c1.289,0,2.577,0,3.873,0
	c1.91,3.832,3.797,7.676,5.708,11.507c1.893-3.838,3.786-7.67,5.679-11.507c1.265,0,2.532,0,3.797,0.006
	c0.478,3.475,0.961,6.945,1.433,10.42c1.036,0.006,2.071,0.006,3.113,0.011c-0.495-3.482-1.002-6.956-1.496-10.438
	c2.825,0,5.644,0,8.47,0.006c0,3.475,0,6.951,0,10.431c1.047-0.006,2.1-0.006,3.147-0.006c0.006-3.475-0.006-6.956,0.006-10.431
	c2.727,0.006,5.455,0,8.187,0c0,3.481,0,6.956,0,10.438c1.065-0.006,2.134-0.006,3.21-0.006c0.011-3.475-0.006-6.956,0.006-10.431
	c2.117,0,4.229,0,6.347,0.006c3.366,3.653,6.749,7.29,10.127,10.932c0.018-3.642,0.006-7.29,0.006-10.932
	c2.86-0.006,5.725,0,8.584-0.006c0.074,2.451-0.155,5.127,1.191,7.302c2.761,4.442,10.063,5.104,13.441,1.029
	c2.037-2.256,2.02-5.477,2.129-8.332c4.989-0.006,9.983,0.011,14.971-0.006c1.134,1.22,2.687,2.491,2.584,4.333
	c-0.023,2.577-3.026,4.287-5.328,3.39c-1.75-0.679-2.716-2.388-3.677-3.878c-0.886,0.535-1.778,1.065-2.664,1.6
	c1.323,2.377,3.188,4.787,5.996,5.392c3.349,0.898,7.117-0.874,8.499-4.057c1.042-2.233,0.414-4.792-0.845-6.784
	c2.267,0.023,4.54,0.011,6.812,0.011c0.685,4.505,3.878,8.504,8.13,10.155c3.838,1.433,8.378,1.145,11.864-1.081
	c3.17-2.002,5.38-5.369,5.99-9.068c2.526-0.006,5.052,0,7.578-0.006c0.018,3.475-0.011,6.956,0.018,10.438
	c1.065-0.006,2.134-0.006,3.205-0.006c0-3.475,0-6.951,0-10.431c2.105,0,4.212,0.006,6.318-0.011
	c3.412,3.625,6.767,7.296,10.161,10.932c0.011-3.642-0.006-7.279,0.006-10.921c2.842,0,5.679,0.006,8.521,0
	c0.011,3.608,0,7.209,0.006,10.817c4.792,0,9.586,0,14.385,0c-0.006-1.036-0.006-2.071,0-3.101c-3.745-0.006-7.492,0-11.237-0.006
	c0-2.566,0-5.138,0-7.71c3.745,0,7.486,0,11.231,0.006c0-1.116,0-2.227,0.006-3.343c-3.745,0-7.492,0.006-11.237,0
	c0-2.555,0-5.115,0-7.67C312.507,70.498,316.253,70.498,319.999,70.498z M11.266,77.484c-2.382,0.84-4.977,0.414-7.452,0.489
	c-0.006-2.491-0.006-4.983-0.006-7.468c2.52,0.121,5.172-0.38,7.589,0.517C13.89,72.277,13.838,76.356,11.266,77.484z M53.17,78.168
	c0.564-1.226,1.145-2.446,1.778-3.637l-0.42-0.357c0.161-0.052,0.495-0.15,0.662-0.202c0.961,1.243,1.415,2.808,2.141,4.194
	C55.938,78.168,54.558,78.168,53.17,78.168z M130.963,78.168c0.126-0.932,0.253-1.87,0.386-2.802
	c0.46,0.932,0.926,1.864,1.386,2.802C132.142,78.168,131.549,78.168,130.963,78.168z M140.106,86.39
	c-0.806-1.629-1.611-3.251-2.411-4.885c1.6,0,3.199,0,4.805,0.006C141.699,83.14,140.906,84.763,140.106,86.39z M147.424,78.168
	c0.431-0.892,0.874-1.784,1.317-2.676c0.115,0.892,0.242,1.784,0.362,2.681C148.684,78.174,147.844,78.168,147.424,78.168z
	 M175.647,78.168c-0.006-1.306-0.006-2.618,0-3.924c1.157,1.294,2.285,2.612,3.424,3.93
	C177.925,78.168,176.786,78.168,175.647,78.168z M189.007,84.941c-0.984-1.145-1.973-2.285-2.963-3.424
	c0.984-0.006,1.979-0.011,2.969-0.011C189.013,82.651,189.007,83.796,189.007,84.941z M212.81,87.979
	c-2.1,2.244-6.012,1.853-7.946-0.402c-1.294-1.737-0.932-4.039-0.995-6.07c3.482,0.006,6.962-0.006,10.443,0.006
	C214.221,83.71,214.508,86.27,212.81,87.979z M256.16,89.434c-4.396-0.132-8.205-3.677-9.085-7.917
	c6.468-0.029,12.934,0.011,19.408-0.023C265.7,86.276,260.959,89.849,256.16,89.434z M246.971,78.152
	c0.598-4.58,4.58-8.435,9.229-8.636c5.052-0.409,9.885,3.613,10.438,8.648C260.078,78.168,253.525,78.192,246.971,78.152z
	 M280.602,78.168c-0.006-1.323-0.006-2.647,0.006-3.97c1.139,1.335,2.296,2.658,3.458,3.97
	C282.904,78.168,281.753,78.168,280.602,78.168z M293.968,84.901c-0.995-1.122-1.968-2.262-2.952-3.395c0.978,0,1.968,0,2.952,0
	C293.968,82.639,293.962,83.767,293.968,84.901z"/>
</svg>
