<?xml version="1.0" encoding="utf-8"?>
<!-- Generator: Adobe Illustrator 17.0.0, SVG Export Plug-In . SVG Version: 6.00 Build 0)  -->
<!DOCTYPE svg PUBLIC "-//W3C//DTD SVG 1.1//EN" "http://www.w3.org/Graphics/SVG/1.1/DTD/svg11.dtd">
<svg version="1.1" id="레이어_1" xmlns="http://www.w3.org/2000/svg" xmlns:xlink="http://www.w3.org/1999/xlink" x="0px"
	 y="0px" width="320px" height="160px" viewBox="0 0 320 160" enable-background="new 0 0 320 160" xml:space="preserve">
<g>
	<path fill="#CA0D11" d="M23.448,50.254c4.018-2.075,8.456-3.344,12.967-3.679c1.656,0.045,3.317,0.076,4.973-0.015
		c5.333,0.364,10.554,2.075,15.118,4.85c5.113,3.05,9.375,7.503,12.202,12.741c4.722,8.617,5.493,19.374,1.747,28.488
		c0.834-3.246,0.714-6.727-0.394-9.893c-1.538-4.596-5.119-8.524-9.66-10.28c-4.289-1.721-9.278-1.566-13.469,0.369
		c0.015-1.432,0.017-2.864,0.008-4.295c-0.015-1.134-0.877-2.063-1.837-2.561c-1.649-0.847-3.551-0.997-5.375-1.003
		c-2.186,0.012-4.423,0.115-6.503,0.845c-1.018,0.374-2.179,1.04-2.342,2.217c-0.055,1.435-0.007,2.874-0.018,4.31
		c2.719-0.027,5.438-0.008,8.157-0.008c0.002,0.385,0.003,0.769,0.005,1.154c-4.031-0.002-8.062-0.007-12.092,0.002
		c-1.55,0.003-2.857,1.146-3.485,2.496c-0.955,2.015-0.988,4.312-0.887,6.498c0.133,1.942,0.417,3.991,1.583,5.614
		c-3.837-0.121-7.566-1.683-10.502-4.128c-2.988-2.51-5.008-6.117-5.649-9.961C7.37,70.427,7.88,66.603,9.631,63.389
		C12.873,57.822,17.71,53.193,23.448,50.254L23.448,50.254z"/>
	<path fill="#020303" d="M175.431,65.749c3.865-5.254,10.04-8.636,16.501-9.321c5.015-0.519,10.327,0.097,14.759,2.63
		c2.85,1.603,5.106,4.055,6.93,6.733c-2.428,1.791-4.937,3.469-7.352,5.275c-1.733-2.708-4.396-4.843-7.543-5.64
		c-4.294-1.126-9.179-0.344-12.655,2.506c-3.047,2.452-4.837,6.238-5.242,10.088c-0.543,4.556,0.571,9.454,3.617,12.972
		c4.499,5.323,13.292,6.196,18.781,1.929c1.492-1.159,2.639-2.678,3.723-4.209c2.461,1.763,4.97,3.466,7.482,5.157
		c-2.787,4.454-7.174,7.911-12.247,9.351c-5.692,1.6-11.963,1.298-17.395-1.09c-4.04-1.769-7.576-4.698-10.013-8.379
		C169.223,85.481,169.443,73.738,175.431,65.749L175.431,65.749z"/>
	<path fill="#CA0D11" d="M232.426,59.366c5.326-3.022,11.806-3.986,17.764-2.521c7.621,1.8,14.258,7.416,17.099,14.738
		c2.246,5.586,2.416,12.054,0.187,17.67c0.462-2.887,0.266-5.982-1.178-8.578c-1.908-3.714-5.825-6.326-10.013-6.504
		c-4.623-0.359-9.285,2.138-11.628,6.123c-1.205,2.065-2.974,3.82-5.145,4.849c-3.466,1.73-7.766,1.576-11.142-0.302
		c-2.407-1.265-4.375-3.352-5.441-5.858c-1.489-3.346-1.353-7.364,0.344-10.61C225.475,64.644,228.646,61.486,232.426,59.366
		L232.426,59.366z"/>
	<path fill="#020303" d="M275.955,56.343c0.444,0.075,0.996-0.024,1.31,0.393c7.325,6.875,14.65,13.754,21.982,20.623
		c2.545,2.253,4.692,4.904,6.755,7.591c-0.362-3.397-0.682-6.803-0.616-10.221c-0.003-5.973,0.006-11.945-0.003-17.917
		c2.98,0.003,5.963,0.009,8.944-0.003c-0.003,15.762,0.045,31.523-0.018,47.285c-0.435-0.097-0.936-0.045-1.241-0.417
		c-6.742-6.356-13.509-12.685-20.264-19.029c-1.8-1.724-3.699-3.352-5.308-5.263c-1.144-1.211-2.071-2.615-3.237-3.802
		c0.553,3.714,0.746,7.473,0.719,11.223c0.003,5.133-0.009,10.263,0.006,15.396c-0.079,0.438,0.151,1.015-0.148,1.374
		c-2.962,0.048-5.93-0.015-8.892,0.024C275.946,87.848,275.921,72.096,275.955,56.343L275.955,56.343z"/>
	<path fill="#020303" d="M143.947,88.253c-5.828-10.49-11.676-20.967-17.492-31.463c3.542,0.015,7.087,0.033,10.629-0.009
		c2.636,4.653,5.145,9.375,7.742,14.053c1.763,3.113,3.065,6.459,4.315,9.804c1.19-2.953,2.213-5.988,3.699-8.817
		c2.66-5.003,5.248-10.046,7.929-15.037c3.276,0.039,6.552,0.012,9.828,0.015c-5.426,10.154-10.825,20.321-16.26,30.469
		c-0.151,0.323-0.374,0.634-0.374,1.005c-0.054,5.106,0.039,10.218-0.045,15.324c-3.234-0.012-6.465-0.012-9.695,0
		c-0.057-4.49-0.018-8.98-0.021-13.47C144.17,89.5,144.315,88.809,143.947,88.253L143.947,88.253z"/>
	<path fill="#020303" d="M118.939,61.954c-3.922-3.605-9.375-4.955-14.575-5.13c-4.701-0.021-9.403-0.003-14.101-0.009
		c0.012,15.599-0.012,31.197,0.012,46.793c3.167-0.051,6.338,0.018,9.505-0.03l0.124-0.133c0.048-3.503,0.006-7.005,0.015-10.508
		c2.515,0.003,5.039,0.085,7.537-0.263c4.587-0.574,9.231-2.319,12.407-5.797c3.029-3.246,4.345-7.787,4.27-12.162
		C124.154,70.012,122.481,65.157,118.939,61.954z M110.959,82.507c-3.216,2.216-7.322,1.966-11.045,1.96
		c0.015-6.395,0.015-12.79,0.003-19.189c3.654-0.024,7.639-0.226,10.837,1.86c2.509,1.609,3.491,4.732,3.457,7.585
		C114.299,77.597,113.462,80.807,110.959,82.507z"/>
	<path fill="#2B205A" d="M8.433,65.633c0.339-0.779,0.742-1.528,1.198-2.244C7.88,66.603,7.37,70.427,7.996,74.016
		c0.641,3.844,2.661,7.451,5.649,9.961c2.937,2.445,6.666,4.006,10.502,4.128c0.541,0.633,1.262,1.199,2.128,1.244
		c1.163,0.051,2.329,0.003,3.493,0.017c0-0.669-0.002-1.339,0.008-2.008c0.347-0.118,0.694-0.236,1.041-0.354
		c0.022,2.364-0.01,4.729,0.012,7.092c0.06,1.319,1.196,2.277,2.342,2.736c2.05,0.807,4.3,0.794,6.466,0.719
		c1.852-0.113,3.76-0.272,5.468-1.053c0.879-0.402,1.767-1.156,1.772-2.201c0.025-1.349-0.005-2.699,0.008-4.048
		c-2.724-0.002-5.446,0-8.17-0.002c-0.005-0.394-0.008-0.787-0.012-1.181c3.664-0.007,7.327-0.003,10.991-0.002
		c0.824-0.003,1.693,0.076,2.46-0.294c1.234-0.546,2.04-1.742,2.463-2.985c0.628-1.859,0.653-3.857,0.548-5.797
		c-0.126-1.764-0.38-3.594-1.317-5.131c-0.53-0.874-1.428-1.616-2.49-1.641c-1.119-0.035-2.242,0.01-3.363-0.02
		c-0.005,1.497,0,2.995,0.005,4.491c-0.005,1.229-0.523,2.498-1.536,3.234c-0.924,0.686-2.111,0.869-3.236,0.865
		c-1.787-0.007-3.574,0.008-5.362-0.008c0.206-0.331,0.415-0.659,0.625-0.988c1.516-0.005,3.033-0.025,4.549,0.022
		c1.017,0.02,2.108-0.216,2.867-0.935c0.688-0.648,0.992-1.608,1.01-2.533c0.028-1.503-0.008-3.006,0.015-4.51
		c4.191-1.935,9.18-2.09,13.469-0.369c4.541,1.756,8.122,5.684,9.66,10.28c1.108,3.166,1.227,6.647,0.394,9.893
		c-0.536,1.977-1.432,3.845-2.608,5.519c-4.601,6.918-11.801,12.021-19.824,14.153c-2.116,0.573-4.29,0.91-6.47,1.128
		c-1.658-0.083-3.32-0.076-4.978-0.015c-4.975-0.357-9.873-1.809-14.221-4.255c-5.094-2.978-9.371-7.328-12.276-12.462
		c-2.457-4.3-3.968-9.135-4.42-14.065c0.048-2.209-0.005-4.42,0.032-6.629C6.036,72.435,6.976,68.917,8.433,65.633L8.433,65.633z"/>
	<path fill="#2B205A" d="M222.278,89.989c-2.929-6.851-2.739-15.109,0.996-21.616c-1.697,3.246-1.833,7.265-0.344,10.61
		c1.066,2.506,3.035,4.593,5.441,5.858c3.376,1.878,7.675,2.032,11.142,0.302c2.171-1.03,3.94-2.784,5.145-4.849
		c2.343-3.986,7.005-6.483,11.628-6.123c4.188,0.178,8.104,2.79,10.013,6.504c1.443,2.597,1.64,5.692,1.178,8.578
		c-0.891,3.457-3.219,6.323-5.743,8.753c-3.717,3.491-8.536,5.773-13.579,6.498c-5.308,0.791-10.87-0.193-15.559-2.805
		C227.993,99.066,224.331,94.869,222.278,89.989L222.278,89.989z"/>
	<path fill="#FDFDFD" d="M33.227,65.821c2.08-0.731,4.317-0.834,6.503-0.845c1.824,0.007,3.726,0.156,5.375,1.003
		c0.96,0.498,1.822,1.427,1.837,2.561c0.008,1.432,0.007,2.864-0.008,4.295c-0.023,1.503,0.013,3.006-0.015,4.51
		c-0.018,0.925-0.322,1.885-1.01,2.533c-0.759,0.719-1.85,0.955-2.867,0.935c-1.516-0.047-3.033-0.027-4.549-0.022
		c-1.526,0.023-3.055-0.028-4.581,0.023c-1.384,0.061-2.86,0.643-3.564,1.903c-0.86,1.397-0.483,3.091-0.57,4.639
		c-0.01,0.669-0.008,1.339-0.008,2.008c-1.164-0.013-2.33,0.035-3.493-0.017c-0.865-0.045-1.586-0.611-2.128-1.244
		c-1.166-1.623-1.45-3.672-1.583-5.614c-0.101-2.186-0.068-4.483,0.887-6.498c0.628-1.35,1.935-2.493,3.485-2.496
		c4.03-0.008,8.061-0.003,12.092-0.002c-0.002-0.385-0.003-0.769-0.005-1.154c-2.719,0-5.438-0.018-8.157,0.008
		c0.012-1.437-0.037-2.875,0.018-4.31C31.047,66.861,32.208,66.195,33.227,65.821L33.227,65.821z"/>
	<path fill="#CA0D11" d="M33.828,67.464c0.932-0.438,2.141,0.372,2.075,1.404c0.088,1.184-1.468,1.998-2.385,1.237
		C32.537,69.482,32.74,67.851,33.828,67.464L33.828,67.464z"/>
	<path fill="#FDFDFD" d="M47.996,73.197c1.121,0.03,2.244-0.015,3.363,0.02c1.061,0.025,1.96,0.767,2.49,1.641
		c0.937,1.536,1.191,3.367,1.317,5.131c0.105,1.94,0.08,3.938-0.548,5.797c-0.424,1.242-1.229,2.438-2.463,2.985
		c-0.767,0.37-1.636,0.291-2.46,0.294c-3.664-0.002-7.327-0.005-10.991,0.002c0.003,0.394,0.007,0.787,0.012,1.181
		c2.724,0.002,5.446,0,8.17,0.002c-0.013,1.349,0.017,2.699-0.008,4.048c-0.005,1.045-0.894,1.799-1.772,2.201
		c-1.707,0.781-3.616,0.94-5.468,1.053c-2.166,0.075-4.417,0.088-6.466-0.719c-1.146-0.458-2.282-1.417-2.342-2.736
		c-0.022-2.364,0.01-4.729-0.012-7.092c0.01-1.219-0.159-2.541,0.488-3.643c0.639-1.144,2.018-1.644,3.274-1.619
		c1.095,0.035,2.191,0.023,3.287,0.038c1.787,0.017,3.574,0.002,5.362,0.008c1.124,0.003,2.312-0.179,3.236-0.865
		c1.013-0.736,1.531-2.005,1.536-3.234C47.996,76.192,47.991,74.694,47.996,73.197L47.996,73.197z"/>
	<path fill="#CA0D11" d="M30.346,82.718c0.704-1.261,2.181-1.842,3.564-1.903c1.526-0.051,3.055,0,4.581-0.023
		c-0.209,0.329-0.419,0.658-0.625,0.988c-1.096-0.015-2.192-0.003-3.287-0.038c-1.256-0.025-2.634,0.475-3.274,1.619
		c-0.648,1.101-0.478,2.423-0.488,3.643c-0.347,0.118-0.694,0.236-1.041,0.354C29.863,85.809,29.486,84.115,30.346,82.718
		L30.346,82.718z"/>
	<path fill="#2B205A" d="M43.085,92.661c1.055-0.382,2.237,0.713,1.947,1.796c-0.199,1.08-1.669,1.609-2.483,0.842
		C41.61,94.596,41.957,92.955,43.085,92.661L43.085,92.661z"/>
</g>
</svg>
