<?xml version="1.0" encoding="utf-8"?>
<!-- Generator: Adobe Illustrator 17.0.0, SVG Export Plug-In . SVG Version: 6.00 Build 0)  -->
<!DOCTYPE svg PUBLIC "-//W3C//DTD SVG 1.1//EN" "http://www.w3.org/Graphics/SVG/1.1/DTD/svg11.dtd">
<svg version="1.1" id="레이어_1" xmlns="http://www.w3.org/2000/svg" xmlns:xlink="http://www.w3.org/1999/xlink" x="0px"
	 y="0px" width="320px" height="160px" viewBox="0 0 320 160" enable-background="new 0 0 320 160" xml:space="preserve">
<path fill="#FFC322" d="M136.853,81.511c15.28-12.7,30.466-25.555,45.997-37.958c-4.973,9.478-10.651,18.549-15.906,27.87
	c7.46,0.016,14.92,0,22.381,0.031c-17.704,14.154-35.158,28.621-53.175,42.368c5.943-10.917,12.512-21.489,18.705-32.265
	C148.864,81.558,142.859,81.558,136.853,81.511L136.853,81.511z"/>
<path fill="#E82C1E" d="M68.539,56.112c3.722-1.283,7.789-0.594,11.667-0.782c-5.177,10.557-10.244,21.161-15.139,31.858
	c-1.126,1.83-1.752,4.379-3.832,5.349c-3.816,0.641-7.695,0.36-11.526,0.422c2.721-5.787,5.49-11.558,8.242-17.329
	c-2.518-0.016-5.036-0.016-7.554-0.031c1.157-2.565,2.205-5.192,3.675-7.601c2.674-1.142,5.646-1.282,8.477-1.845
	C64.378,62.775,65.27,58.458,68.539,56.112L68.539,56.112z"/>
<path fill="#E82C1E" d="M84.851,57.16c10.275-0.579,20.535-1.236,30.795-1.767c-5.927,12.262-14.263,24.163-26.697,30.513
	c-5.802,3.206-12.449,4.145-18.955,4.708c1.767-3.441,3.597-6.866,5.49-10.244c9.665-1.564,19.127-6.428,23.772-15.436
	c-6.037-0.109-12.09-0.078-18.127-0.078C82.364,62.29,83.615,59.725,84.851,57.16L84.851,57.16z"/>
<path fill="#E82C1E" d="M121.213,55.799c2.471-0.422,5.005-0.454,7.507-0.61c-1.595,3.926-3.222,7.851-4.864,11.777
	c1.095-0.203,3.269-0.626,4.364-0.845c1.47-3.191,2.424-6.756,4.801-9.446c3.425-2.08,7.773-1.017,11.589-1.392
	c-4.942,11.386-9.446,22.959-14.67,34.22c-2.252,5.083-8.79,3.191-13.153,3.707c2.455-5.912,4.958-11.808,7.445-17.704
	c-1.079,0.109-3.237,0.344-4.317,0.469c-2.236,5.145-3.863,10.619-6.819,15.421c-3.081,2.721-7.789,1.329-11.542,1.814
	c4.911-10.416,9.963-20.785,14.858-31.217C117.71,59.756,118.539,56.753,121.213,55.799L121.213,55.799z"/>
<path fill="#E82C1E" d="M236.823,58.568c1.908-5.083,8.383-2.627,12.496-3.253c-1.736,4.113-3.488,8.211-5.224,12.308
	c2.549-0.266,5.114-0.532,7.679-0.798c-1.408,2.909-2.8,5.802-4.176,8.696c-2.393,0.125-4.77,0.25-7.147,0.391
	c-2.205,5.208-3.816,10.791-7.21,15.39c-3.566,2.018-7.538,0.454-9.994-2.487C228.096,78.884,232.162,68.593,236.823,58.568
	L236.823,58.568z"/>
<path fill="#E82C1E" d="M260.454,57.144c12.074-0.422,24.148-0.938,36.222-1.283c-1.814,2.753-2.753,6.725-5.849,8.273
	c-7.179,0.829-14.451,0.266-21.677,0.61c-0.516,0.97-1.58,2.909-2.096,3.879c7.523-0.297,15.045-0.657,22.584-0.907
	c-1.595,2.534-2.581,5.63-4.958,7.554c-6.647,0.97-13.403,0.266-20.081,0.407c-0.985,1.814-1.971,3.613-2.94,5.427
	c8.352-0.375,16.688-0.782,25.039-1.11c-2.002,3.316-2.69,8.117-6.318,10.088c-7.241,0.672-14.529,0.203-21.786,0.313
	c-4.598,0.673-8.993-2.753-10.432-6.928C251.602,74.411,256.497,65.981,260.454,57.144L260.454,57.144z"/>
<path fill="#E82C1E" d="M306.06,55.925c3.394-0.704,6.882-0.579,10.338-0.735v0.5c-4.927,11.229-9.431,22.646-14.498,33.798
	c-1.689,5.224-8.258,3.112-12.402,3.832c2.471-5.912,5.005-11.792,7.554-17.689c-2.596,0-5.177-0.016-7.742-0.031
	c1.236-2.706,2.487-5.411,3.738-8.117c2.565-0.282,5.145-0.547,7.726-0.813C302.384,63.025,303.62,59.131,306.06,55.925
	L306.06,55.925z"/>
<path fill="#E82C1E" d="M15.989,57.207c4.254-0.266,8.508-0.547,12.762-0.813c-1.908,3.738-3.832,7.46-5.74,11.198
	c5.411-0.407,10.838-0.829,16.25-1.236c1.58-3.253,3.144-6.49,4.708-9.744c4.317-0.297,8.633-0.61,12.95-0.876
	c-4.395,9.102-8.852,18.173-13.059,27.354c-1.236,2.33-2.221,4.989-4.348,6.678c-8.836,0.876-17.782,0.375-26.65,0.375
	c-4.129,0.469-6.803-3.05-9.259-5.755v-1.423C7.544,74.286,11.891,65.809,15.989,57.207L15.989,57.207z"/>
<path fill="#E82C1E" d="M191.827,57.567c13.263-0.5,26.525-1.064,39.788-1.501c-1.673,3.159-2.799,6.756-5.286,9.415
	c-4.317,1.329-8.993,0.454-13.45,0.641c-0.438,2.643-1.658,5.74,0.172,8.148c2.377,3.222,6.96,2.674,10.416,3.644
	c-1.22,2.721-2.409,5.443-3.597,8.164c3.988,3.394,8.305,7.366,8.148,13.106c0.719,10.948-12.277,19.034-21.99,14.607
	c-8.242-2.706-12.778-13.122-8.399-20.817c2.111-4.442,6.694-6.694,11.073-8.32c-1.799-1.767-3.503-3.628-5.255-5.458
	c-6.084,6.522-14.404,10.948-23.46,10.901c1.392-3.441,2.831-6.85,4.285-10.244c7.898-1.142,13.341-7.179,17.204-13.669
	c-4.426,0-8.868,0.047-13.309,0.063C189.387,63.353,190.607,60.46,191.827,57.567L191.827,57.567z"/>
<path fill="#FFFFFF" d="M19.43,75.615c5.161,0,10.322,0,15.483,0.016c-1.017,2.127-2.018,4.254-3.018,6.381
	c-5.255,0.203-10.51,0.422-15.765,0.641C17.225,80.307,18.335,77.961,19.43,75.615L19.43,75.615z"/>
<path fill="#E82C1E" d="M12.971,92.318c4.395,0.016,8.79,0.016,13.184,0.016c-1.752,4.051-3.503,8.086-5.239,12.136
	c14.482-0.469,28.981-0.97,43.479-1.486c-1.564,3.237-3.112,6.459-4.676,9.697c-14.373-0.016-28.73-0.078-43.088,0.031
	c-2.909-2.299-6.209-4.301-8.399-7.366C7.997,100.639,11.266,96.557,12.971,92.318L12.971,92.318z"/>
<path fill="#FFFFFF" d="M208.78,94.742c4.035-2.69,10.369,1.032,9.337,5.959c-0.688,4.489-6.772,6.459-10.119,3.519
	C204.73,101.921,205.215,96.494,208.78,94.742L208.78,94.742z"/>
</svg>
