<?xml version="1.0" encoding="utf-8"?>
<!-- Generator: Adobe Illustrator 17.0.0, SVG Export Plug-In . SVG Version: 6.00 Build 0)  -->
<!DOCTYPE svg PUBLIC "-//W3C//DTD SVG 1.1//EN" "http://www.w3.org/Graphics/SVG/1.1/DTD/svg11.dtd">
<svg version="1.1" id="레이어_1" xmlns="http://www.w3.org/2000/svg" xmlns:xlink="http://www.w3.org/1999/xlink" x="0px"
	 y="0px" width="320px" height="160px" viewBox="0 0 320 160" enable-background="new 0 0 320 160" xml:space="preserve">
<path fill="#AF0104" d="M134.007,24.81c7.703-4.733,16.965-5.767,25.825-5.636c4.684,0.615,9.45,1.075,13.889,2.83
	c11.51,4.176,20.525,14.266,23.544,26.12c1.977,7.071,1.715,14.479,1.231,21.731l-1.034,0.008
	c-4.701-0.205-9.401,0.025-14.053,0.779c-0.033-0.377-0.115-1.132-0.156-1.509c0.066-8.064,0.558-16.366-2.182-24.11
	c-2.65-8.212-8.458-15.907-17.022-18.45c-1.403-0.23-2.806-0.492-4.176-0.829c-4.241-0.435-8.474,0.304-12.527,1.526
	c-8.318,3.716-13.683,12.035-15.693,20.697c-1.509,6.702-2.182,13.7-1.239,20.533c0.074,0.763,0.238,2.281,0.312,3.044
	c-5.127-0.96-10.353-1.025-15.562-0.943c0.131-4.504-1.272-8.966-0.386-13.454C115.451,44.129,122.391,31.168,134.007,24.81
	L134.007,24.81z"/>
<path fill="#AF0104" d="M283.983,100.356c-1.846-0.279-3.724-0.5-5.447-1.231c-3.093-1.813-4.733-5.176-6.251-8.277
	c-3.331-7.408-6.702-14.799-10.107-22.174c-5.16-11.501-10.484-22.929-15.66-34.422c-0.246-0.574-0.492-1.14-0.747-1.715
	c-1.879-4.225-4.061-8.318-5.677-12.658c-1.042-0.016-2.084-0.041-3.117-0.066c-5.636,11.936-11.321,23.848-17.047,35.734
	c-2.379,5.242-5.07,10.32-7.416,15.578c-2.51,5.431-5.242,10.763-7.769,16.194c-2.412,5.431-5.611,12.428-12.469,12.748
	c-23.675,0.221-47.359,0.016-71.042,0.098c-5.053,0.213-8.614-4.077-11.977-7.227c-8.884-9.204-16.784-19.311-24.594-29.426
	c4.118-1.961,9.007-2.773,12.527-6.005c8.991-6.686,9.631-21.288,1.928-29.163c-5.923-5.464-14.323-7.063-22.141-7.055
	c-14.069,0-28.138-0.041-42.207,0.025c-0.016,0.829-0.033,1.657-0.057,2.477c3.134,0.377,6.497,0.386,9.311,1.985
	c2.527,1.583,3.101,4.816,3.052,7.58c-0.008,19.131,0.041,38.261-0.025,57.4c0.074,3.363-1.419,6.719-4.364,8.482
	c-2.625,0.484-5.275,0.853-7.949,0.935c0,0.853,0,1.706,0,2.568c83.093-0.008,166.187,0.057,249.272-0.025
	C284.008,102.128,283.992,100.947,283.983,100.356z M75.352,100.159c-3.954-0.107-8.162,0.23-11.788-1.632
	c-2.986-1.715-3.667-5.447-3.642-8.605c-0.025-18.056,0.025-36.112,0-54.168c0.074-3.101-0.55-6.497,1.337-9.221
	c6.021-1.247,12.281-0.812,18.212,0.648c4.996,1.214,9.344,5.086,10.607,10.14c1.378,6.358,0.681,14.003-4.545,18.515
	c-5.16,4.085-12.076,4.914-18.441,5.185c-0.476,0.189-1.419,0.566-1.895,0.747c0.139,1.313,0.304,2.625,0.484,3.929
	c1.493,0,2.986-0.008,4.487-0.008c8.655,11.485,17.58,22.798,27.268,33.437c0.312,0.23,0.927,0.681,1.239,0.911
	C90.898,100.299,83.121,100.094,75.352,100.159z M257.56,98.207c-2.313,1.829-5.521,1.723-8.31,1.928
	c-10.131,0.057-20.254,0.025-30.386,0c-3.06-0.115-6.571-0.066-9.007-2.215c-1.206-1.936-0.64-4.454-0.016-6.505
	c2.609-6.719,6.005-13.085,8.86-19.697c2.65-6.013,5.587-11.887,8.22-17.908c1.829-4.176,3.864-8.261,5.718-12.428
	c0.623-1.329,1.239-2.666,1.829-4.003c1.649,3.839,3.404,7.621,5.119,11.436c0.566,1.747,1.501,3.347,2.067,5.103
	c1.247,2.642,2.42,5.332,3.61,8.007c0.673,1.715,1.493,3.372,2.182,5.078c3.749,8.433,7.293,16.957,11.181,25.316
	C258.659,94.294,259.373,96.779,257.56,98.207z"/>
<path fill="#D77F82" d="M178.708,86.238c1.6-5.677,3.322-11.321,4.545-17.104c0.041,0.377,0.123,1.132,0.156,1.509
	c4.651-0.755,9.352-0.984,14.053-0.779l1.28,0.098c-1.124,5.833-3.216,11.485-6.76,16.292
	C187.551,86.213,183.13,86.246,178.708,86.238L178.708,86.238z"/>
<path fill="#D77F82" d="M115.164,70.602c5.209-0.082,10.435-0.016,15.562,0.943l0.402,0.057c0.468,4.766,2.33,9.204,3.281,13.872
	c-4.454-0.016-8.901-0.049-13.355,0C118.092,80.988,115.787,75.984,115.164,70.602L115.164,70.602z"/>
<path fill="#010101" d="M60.971,117.132c0,0.927-0.008,1.854-0.008,2.789c-3.249-0.016-6.489-0.025-9.729,0.033
	c-2.51,1.042-4.643,3.117-4.922,5.931c-0.755,4.143-0.492,9.959,3.987,11.879c3.47,0.755,7.08,0.23,10.607,0.345
	c0.033,1.017,0.066,2.034,0.098,3.06c-4.315-0.156-8.761,0.55-12.937-0.82c-2.592-1.838-4.93-4.446-5.234-7.744
	c-0.353-4.487-0.574-9.729,3.044-13.06C50.02,115.803,55.943,117.51,60.971,117.132L60.971,117.132z"/>
<path fill="#010101" d="M95.393,117.058c1.419,0.066,2.847,0.131,4.274,0.271c3.642,6.415,7.949,12.453,11.444,18.967
	c0.254-6.341,0.074-12.699,0.098-19.04c1.075-0.057,2.149-0.115,3.232-0.172c0.025,8.039,0.025,16.079,0,24.118
	c-1.263-0.025-2.535-0.049-3.798-0.074c-3.913-6.587-8.4-12.855-11.911-19.672c-0.197,6.563-0.057,13.126-0.107,19.688
	c-0.812,0.008-2.445,0.025-3.257,0.033C95.352,133.137,95.328,125.098,95.393,117.058L95.393,117.058z"/>
<path fill="#010101" d="M125.943,117.346c4.397-0.468,8.835-0.107,13.257-0.197c-0.016,0.919-0.033,1.846-0.041,2.773
	c-4.069,0-8.146-0.041-12.223,0.041c-0.468,0.263-1.403,0.779-1.87,1.042c-0.829,2.002-1.198,4.733,0.902,6.079
	c3.101,0.566,6.284,0.18,9.418,0.262c2.166,0.73,3.897,2.231,5.127,4.143c0.049,1.797,0.057,3.601,0.008,5.414
	c-1.329,2.125-3.314,4.176-6.005,4.217c-4.331,0.139-8.671,0.008-13.011,0.041c0.025-0.763,0.082-2.289,0.107-3.052
	c4.586-0.148,9.237,0.418,13.774-0.304c2.289-1.419,1.78-4.307,1.075-6.473c-3.823-1.895-8.31,0.123-12.158-1.583
	c-1.624-0.607-2.445-2.207-3.355-3.544c-0.016-1.509-0.025-3.027-0.025-4.537C121.94,119.626,123.49,117.6,125.943,117.346
	L125.943,117.346z"/>
<path fill="#010101" d="M146.493,117.214c1.083-0.049,2.166-0.098,3.257-0.148c0.123,5.234-0.098,10.468,0.098,15.702
	c0.295,1.674,0.435,3.626,1.87,4.774c2.912,1.788,6.669,1.354,9.713,0.082c0.304-0.418,0.902-1.272,1.206-1.69
	c0.574-6.218,0.18-12.469,0.271-18.704c1.231-0.041,2.461-0.057,3.7-0.066c-0.148,5.685,0.246,11.395-0.197,17.063
	c-0.287,3.79-3.626,7.08-7.465,7.08c-3.191,0.123-6.825,0.476-9.483-1.674c-1.747-1.255-2.371-3.388-3.002-5.324
	C146.534,128.609,146.476,122.908,146.493,117.214L146.493,117.214z"/>
<path fill="#010101" d="M174.081,117.132c1.107,0.008,2.223,0.025,3.339,0.041c-0.033,6.981,0.025,13.962-0.025,20.944
	c4.348,0.304,8.884-0.591,13.109,0.476c0.049,0.64,0.156,1.911,0.213,2.543c-5.554,0.074-11.099,0.008-16.653,0.033
	C174.081,133.154,174.057,125.147,174.081,117.132L174.081,117.132z"/>
<path fill="#010101" d="M190.652,117.157c6.538-0.057,13.076-0.016,19.615-0.016c-0.008,0.919-0.016,1.846-0.016,2.773
	c-2.691,0-5.373,0-8.064,0c-0.049,7.088-0.025,14.176-0.016,21.263c-0.861-0.008-2.576-0.016-3.429-0.016
	c0-7.08,0.016-14.159-0.008-21.239c-2.691,0.008-5.381,0-8.064-0.016C190.669,119.216,190.66,117.846,190.652,117.157
	L190.652,117.157z"/>
<path fill="#010101" d="M216.6,117.108c1.14,0.025,2.289,0.057,3.437,0.09c-0.025,7.982-0.008,15.956-0.008,23.938
	c-1.148,0.016-2.289,0.033-3.429,0.049C216.592,133.154,216.583,125.131,216.6,117.108L216.6,117.108z"/>
<path fill="#010101" d="M244.098,117.206c1.066-0.041,2.141-0.082,3.216-0.123c0.041,8.039,0.016,16.079,0.016,24.118
	c-1.272-0.025-2.543-0.049-3.806-0.074c-3.544-5.89-7.244-11.682-10.894-17.506c-0.222-0.541-0.656-1.633-0.878-2.174
	c-0.328,6.571-0.074,13.158-0.156,19.729c-0.82-0.008-2.469-0.025-3.29-0.033c0.016-8.023-0.033-16.046,0.033-24.069
	c1.403,0.049,2.814,0.115,4.225,0.213c3.634,6.448,8.015,12.445,11.419,19.024C244.229,129.946,244.024,123.572,244.098,117.206
	L244.098,117.206z"/>
<path fill="#010101" d="M260.587,117.46c4.307-0.541,8.655-0.262,12.986-0.32c-0.008,0.927-0.008,1.854,0,2.773
	c-3.536,0.09-7.088-0.189-10.607,0.164c-3.445,0.673-5.308,4.217-5.316,7.498c-0.312,3.634,0.123,8.392,3.946,10.066
	c3.093,0.952,6.423,0.312,9.623,0.484c0-2.346,0-4.684,0-7.014c-2.248,0-4.495,0-6.743,0c0.008-0.747,0.025-2.24,0.033-2.994
	c3.273,0.041,6.555-0.115,9.828,0.066c0.123,0.172,0.369,0.509,0.492,0.681c0.156,4.077-0.008,8.171,0.057,12.256
	c-4.397-0.057-8.852,0.369-13.208-0.213c-4.602-1.058-7.071-5.57-7.76-9.91c0.123-3.503,0.303-7.309,2.469-10.238
	C257.453,119.282,259.127,118.47,260.587,117.46L260.587,117.46z"/>
<path fill="#010101" d="M84.433,118.371c-4.627-2.248-10.468-2.551-14.881,0.345c-3.273,2.42-4.241,6.71-4.307,10.558
	c0.115,3.626,1.009,7.662,3.97,10.049c3.142,2.477,7.383,2.207,11.132,1.911c3.757-0.312,6.858-3.38,7.851-6.916
	C89.782,128.872,88.953,122.219,84.433,118.371z M84.655,134.491c-2.765,6.038-13.708,5.783-15.308-1.001
	c-0.394-2.518-0.312-5.086-0.123-7.621c0.246-2.822,2.322-5.636,5.25-6.013c2.642-0.23,5.628-0.533,7.916,1.099
	c1.985,1.329,2.231,3.864,2.937,5.939C85.516,129.454,84.983,131.964,84.655,134.491z"/>
</svg>
