<?xml version="1.0" encoding="utf-8"?>
<!-- Generator: Adobe Illustrator 17.0.0, SVG Export Plug-In . SVG Version: 6.00 Build 0)  -->
<!DOCTYPE svg PUBLIC "-//W3C//DTD SVG 1.1//EN" "http://www.w3.org/Graphics/SVG/1.1/DTD/svg11.dtd">
<svg version="1.1" id="레이어_1" xmlns="http://www.w3.org/2000/svg" xmlns:xlink="http://www.w3.org/1999/xlink" x="0px"
	 y="0px" width="320px" height="160px" viewBox="0 0 320 160" enable-background="new 0 0 320 160" xml:space="preserve">
<g>
	<path fill="#383B38" d="M6.338,42.275c2.617-4.129,8.462-5.086,12.695-3.098c3.357,1.605,5.073,5.283,5.777,8.752
		c0.401,1.987-1.852,2.938-3.401,3.32c-2.765-0.42-4.03-3.03-5.4-5.123c-3.178,1.759-2.253,5.746-1.969,8.708
		c1.475,9.529,4.771,18.682,6.011,28.261c1.173,9.097,2.753,18.151,3.345,27.31c0.037,2.925-0.148,6.153-2.049,8.536
		c-3.111,4.03-9.486,4.709-13.578,1.821c-3.444-2.543-7.128-6.314-6.147-11.01c1.759-1.426,4.08-3.512,6.474-2.327
		c2.333,1.938,2.975,5.197,5.246,7.221c1.154-1.389,1.438-3.209,1.494-4.956c0.185-4.82-1.062-9.529-1.685-14.275
		c-2.253-12.763-4.444-25.557-7.418-38.173C4.091,52.446,3.363,46.713,6.338,42.275L6.338,42.275z"/>
	<path fill="#383B38" d="M149.665,42.405c0.13-2.623,4.351-3.648,5.641-1.333c1.74,2.987,1.703,6.591,1.963,9.943
		c1.518,20.194-1.241,40.413-0.068,60.613c0.099,0.654-0.019,1.747,0.901,1.858c4.913,1.29,10.276,0.272,14.991,2.401
		c0.389,2.117,0.451,5.697-2.327,6.079c-6.406,0.315-12.8-0.58-19.151-1.216c-2.216-1.339-2.123-4.388-2.518-6.653
		c-0.753-12.393,0.895-24.767,0.907-37.16c-0.031-6.591,0.031-13.183-0.031-19.768C149.906,52.249,148.894,47.305,149.665,42.405
		L149.665,42.405z"/>
	<path fill="#383B38" d="M196.552,42.435c0.123-2.469,3.888-3.598,5.4-1.697c1.105,1.37,1.426,3.166,1.728,4.857
		c2.586,22.502-1.068,45.128,0.568,67.667c5.11,1.617,10.776,0.389,15.738,2.623c0.389,2.117,0.463,5.727-2.351,6.079
		c-6.19,0.339-12.362-0.599-18.522-1.111c-2.111-0.272-2.45-2.833-2.827-4.524c-1.117-8.159-0.216-16.417,0.068-24.607
		c0.765-11.27,0.512-22.57,0.543-33.852C196.861,52.73,195.793,47.564,196.552,42.435L196.552,42.435z"/>
	<path fill="#383B38" d="M57.255,40.677c2.642-0.395,5.314,0.395,7.789,1.265c3.808,1.321,5.518,5.487,6.4,9.097
		c0.734,2.777-2.166,5.721-4.931,4.795c-1.673-1.531-1.648-4.32-3.58-5.672c-1.555-1.025-4.073-1.617-5.332,0.16
		c-1.703,2.296-1.821,5.308-2.092,8.054c-0.457,14.399-0.809,28.859,0.704,43.215c0.407,3.783,0.753,7.628,1.987,11.251
		c0.543,1.549,1.321,3.191,2.827,4.006c1.45,0.278,2.95-0.198,4.24-0.839c1.796-0.95,1.123-3.617,2.907-4.579
		c1.58-1.148,3.944-0.87,4.82,1.006c1.549,2.043-0.432,4.277-1.605,5.943c-4.413,6.295-15.109,6.709-19.713,0.432
		c-3.03-4.37-3.345-9.906-3.907-15.022c-0.722-9.745-1.16-19.521-1.302-29.297c-0.068-7.03-0.339-14.115,0.722-21.095
		C47.973,47.836,51.731,42.331,57.255,40.677L57.255,40.677z"/>
	<path fill="#383B38" d="M318.47,50.397c-0.352-3.339-0.346-7.233-2.814-9.819c-2.858-2.129-6.524-2.666-9.955-3.253
		c-4.839-0.574-9.844-1.148-14.639,0.068c-1.259,3.388-0.697,7.042-0.815,10.566c0.265,8.017,0.136,16.047,0.154,24.07
		c0.327,14.393,0.148,28.798,0,43.196c0.043,2.333-0.284,4.919,1.055,6.986c1.586,1.401,4.925,1.753,5.875-0.568
		c1.562-3.777,0.673-7.968,1.006-11.93c1.031-12.529,0.673-25.107,1.105-37.654c0.265-1.839-0.21-4.11,0.969-5.635
		c4.104-1.364,8.844-0.333,12.732-2.555C317.199,60.766,318.914,55.372,318.47,50.397z M312.625,51.076
		c-0.247,2.426-0.284,5.832-3.092,6.733c-3.592,1.092-7.758,1.673-11.313,0.265c-0.605-3.296-0.574-6.678-0.815-10.011
		c0.006-1.395-0.296-2.987,0.518-4.221c3.95-1.031,8.301-0.802,12.115,0.66C312.625,45.515,312.675,48.743,312.625,51.076z"/>
	<path fill="#383B38" d="M267.115,67.709c-0.296-7.351,0.376-14.948-2.228-21.984c-2.753-5.011-9.177-6.474-14.393-4.993
		c-3.876,1.561-6.437,5.518-6.999,9.579c-1.234,8.233-0.272,16.571-0.494,24.841c-0.586,9.653-0.278,19.324-0.864,28.97
		c-0.111,4.228-0.043,8.807,2.524,12.393c2.339,4.314,7.579,6.783,12.381,5.604c3.382-1.234,6.172-4.117,7.19-7.585
		c1.71-5.579,1.302-11.48,1.852-17.219c0.592-6.962,1.173-13.942,1.129-20.935C267.047,73.492,267.121,70.597,267.115,67.709z
		 M259.523,92.47c-0.198,4.542-1.271,9.011-1.099,13.578c-0.284,2.666,0.093,6.036-2.197,7.937c-2.814,0.92-6.289-0.809-6.931-3.783
		c-1.241-4.826-0.006-9.807-0.086-14.701c-0.099-5.363,0.222-10.72,0.167-16.084c0.451-7.616-0.339-15.232-0.278-22.848
		c0.062-3.382,0.932-7.573,4.561-8.82c2.049-0.747,4.524,0.623,5.228,2.642c1.197,2.938,1.364,6.153,1.432,9.282
		C260.369,70.61,260.184,81.552,259.523,92.47z"/>
	<path fill="#383B38" d="M127.317,118.361c-0.111-4.721-1.444-9.295-2.493-13.868c-5.123-19.558-6.591-39.808-10.437-59.613
		c-0.451-1.617-0.994-3.938-2.993-4.16c-1.691-0.321-2.66,1.42-3.32,2.679c-1.827,4.098-2.314,8.61-3.234,12.967
		c-2.228,9.949-4.746,19.842-6.653,29.859c-0.926,7.647-2.901,15.146-3.364,22.854c-0.278,3.999-1.117,8.369,0.821,12.097
		c0.944,1.815,3.382,1.42,5.036,1.086c1.975-0.401,1.605-2.956,1.981-4.475c0.747-9.548,1.37-19.188,4.043-28.44
		c2.253-0.018,4.505,0,6.746-0.228c1.882,6.314,2.66,12.887,4.117,19.305c0.932,3.796,1.037,7.881,2.888,11.399
		C121.744,122.835,127.78,121.823,127.317,118.361z M107.759,80.472c0.697-3.944,1.278-7.925,2.493-11.751
		c1.259,3.685,1.179,7.634,1.512,11.473C110.475,80.701,109.104,80.633,107.759,80.472z"/>
</g>
</svg>
