<?xml version="1.0" encoding="utf-8"?>
<!-- Generator: Adobe Illustrator 17.0.0, SVG Export Plug-In . SVG Version: 6.00 Build 0)  -->
<!DOCTYPE svg PUBLIC "-//W3C//DTD SVG 1.1//EN" "http://www.w3.org/Graphics/SVG/1.1/DTD/svg11.dtd">
<svg version="1.1" id="레이어_1" xmlns="http://www.w3.org/2000/svg" xmlns:xlink="http://www.w3.org/1999/xlink" x="0px"
	 y="0px" width="320px" height="160px" viewBox="0 0 320 160" enable-background="new 0 0 320 160" xml:space="preserve">
<path fill="#FED400" d="M20.441,31.852c10.258,0,20.529,0,30.787,0c0,5.861,0,11.709,0,17.556c-4.27,0.014-8.555,0.014-12.825,0.028
	c-0.07,20.376-0.07,40.751,0,61.141c4.27,0,8.541,0,12.825,0c0,5.861,0,11.709,0,17.571c-10.258,0-20.529,0-30.787,0
	C20.441,96.049,20.441,63.951,20.441,31.852L20.441,31.852z"/>
<path fill="#FED400" d="M268.772,31.852c10.258,0,20.529,0,30.787,0c0,32.098,0,64.197,0,96.296c-10.258,0-20.529,0-30.787,0
	c-0.014-5.861,0-11.709,0-17.571c4.271,0,8.555,0,12.825,0c0.07-20.39,0.056-40.765,0-61.155c-4.271,0-8.541,0-12.825,0
	C268.772,43.561,268.758,37.714,268.772,31.852L268.772,31.852z"/>
<path fill="#484848" d="M77.297,35.704c7.48-4.857,20.431-3.196,22.706,6.755c-2.987,0.098-5.987,0.14-8.974,0.07
	c-2.065-2.373-5.15-2.456-8.053-2.4c1.019,5.457,8.066,4.187,11.946,6.462c6.252,1.786,7.229,10.788,2.303,14.542
	c-7.718,5.68-22.288,3.977-24.423-6.797c3.182-0.056,6.35-0.07,9.532-0.112c0.698,1.033,1.41,2.065,2.121,3.112
	c2.638-0.098,5.261-0.488,7.606-1.8c-4.229-3.726-10.327-3.335-14.919-6.322C72.636,46.199,72.818,38.663,77.297,35.704
	L77.297,35.704z"/>
<path fill="#484848" d="M121.007,33.946c3.28,0,6.573,0,9.853-0.014c0,3.322,0.014,6.643,0.014,9.965
	c3.014-0.014,6.043-0.014,9.057-0.014c0-3.308,0.014-6.629,0.014-9.937c3.28,0,6.559,0,9.839-0.014
	c0.014,9.839,0.014,19.678,0.014,29.503c-3.294-0.014-6.573-0.014-9.867,0c0-3.782,0-7.564,0-11.346c-3.014,0-6.043,0-9.057,0
	c0,3.782-0.014,7.564-0.014,11.346c-3.28-0.014-6.559,0-9.853,0C121.007,53.609,121.007,43.771,121.007,33.946L121.007,33.946z"/>
<path fill="#484848" d="M195.392,35.606c-4.494-2.833-10.299-3.07-15.268-1.438c-11.472,3.698-12.7,21.632-2.819,27.772
	c5.178,3.028,12.002,3.084,17.291,0.293C204.156,57.098,204.449,41.37,195.392,35.606z M191.861,51.474
	c-0.07,4.536-6.043,7.452-9.267,3.936c-3.028-4.089-3.224-11.779,1.619-14.57C190.494,38.495,193.327,46.687,191.861,51.474z"/>
<path fill="#484848" d="M243.23,35.02c-6.824-1.94-14.23-0.795-21.23-1.075c0,9.839,0,19.664,0,29.489c4-0.014,6.744,0,10.037,0
	c0-3.014,0.106-6.043,0.092-9.071c4.243-0.237,8.802,0.335,12.668-1.772C251.384,49.004,250.682,37.225,243.23,35.02z
	 M232.236,47.608c-0.014-2.317,0-4.633,0-6.95c2.777,0.67,8.08-0.391,7.899,3.908C239.423,48.264,234.915,46.911,232.236,47.608z"/>
<path fill="#484848" d="M74.953,96.566c3.294,0,6.573,0.014,9.853,0c0,7.536,0.014,15.072,0.014,22.609
	c4.438-0.014,8.89-0.014,13.328-0.014c0.014,2.331,0.014,4.661,0.014,6.978c-7.732,0-15.463,0-23.209,0.014
	C74.953,116.285,74.953,106.418,74.953,96.566L74.953,96.566z"/>
<path fill="#484848" d="M124.412,96.649c3.28,0.014,6.573,0.014,9.853,0c0,9.839,0,19.664,0,29.503c-3.28-0.014-6.573-0.014-9.853,0
	C124.412,116.313,124.412,106.488,124.412,96.649L124.412,96.649z"/>
<path fill="#484848" d="M162.093,96.552c3.07,0.028,6.141,0.042,9.225,0.042c3.405,5.331,6.964,10.565,10.397,15.882
	c-0.237-5.303-0.307-10.606-0.279-15.91c3.154,0,6.294,0.014,9.434,0c0.014,9.867,0,19.72,0,29.586
	c-3.084-0.014-6.169-0.014-9.253-0.014c-3.461-5.289-6.992-10.523-10.439-15.826c0.265,5.275,0.377,10.551,0.363,15.826
	c-3.154,0-6.308,0-9.448,0.014C162.093,116.285,162.093,106.418,162.093,96.552L162.093,96.552z"/>
<path fill="#484848" d="M218.615,96.566c3.252,0,6.503,0,9.755,0c0,3.168,0.014,6.336,0.028,9.504
	c2.833-3.182,5.708-6.35,8.569-9.518c3.852,0.014,7.718,0.014,11.583,0.028c-3.684,3.698-7.327,7.452-10.969,11.193
	c4.033,6.113,8.039,12.239,12.03,18.366c-3.949,0-7.899,0-11.849,0c-2.414-4.075-4.857-8.136-7.536-12.058
	c-2.47,3.587-1.884,7.969-1.856,12.072c-3.252-0.014-6.503-0.014-9.755,0C218.615,116.285,218.615,106.418,218.615,96.566
	L218.615,96.566z"/>
</svg>
