<?xml version="1.0" encoding="utf-8"?>
<!-- Generator: Adobe Illustrator 17.0.0, SVG Export Plug-In . SVG Version: 6.00 Build 0)  -->
<!DOCTYPE svg PUBLIC "-//W3C//DTD SVG 1.1//EN" "http://www.w3.org/Graphics/SVG/1.1/DTD/svg11.dtd">
<svg version="1.1" id="레이어_1" xmlns="http://www.w3.org/2000/svg" xmlns:xlink="http://www.w3.org/1999/xlink" x="0px"
	 y="0px" width="320px" height="160px" viewBox="0 0 320 160" enable-background="new 0 0 320 160" xml:space="preserve">
<g>
	<path fill="#06C885" d="M52.737,28.336c5.219-0.582,10.817-0.143,15.397,2.644c3.594,2.158,6.459,5.676,7.366,9.817
		c1.118,5.187,0.236,11.028-3.226,15.186c-3.226,4.022-8.231,6.387-13.339,6.68c-3.051-0.025-5.762-2.661-5.88-5.705
		c-0.236-2.733,1.64-5.426,4.258-6.194c1.583-0.425,3.279-0.825,4.48-2.018c1.4-1.236,1.8-3.358,1.204-5.083
		c-0.707-1.765-2.529-2.815-4.312-3.222c-4.544-1.036-9.449,0.339-13.053,3.222c-1.986,1.529-3.705,3.587-4.273,6.077
		c-0.754,3.051,0.164,6.37,2.133,8.777c2.751,3.429,5.526,6.838,8.252,10.285c2.001,2.433,4.098,4.805,5.727,7.513
		c3.494,5.591,5.276,12.31,4.548,18.898c-0.493,5.555-2.872,10.881-6.552,15.058c-4.376,5.184-10.521,8.849-17.19,10.128
		c-5.973,1.125-12.31,1.022-18.062-1.086c-5.827-2.179-10.785-6.634-13.536-12.214c-2.74-5.773-3.108-12.507-1.672-18.683
		C6.86,80.71,12.387,74.32,19.035,70.229c2.744-1.608,6.612-0.782,8.413,1.85c1.886,2.547,1.515,6.498-0.932,8.559
		c-1.315,1.057-2.808,1.901-3.972,3.14c-2.301,2.383-4.08,5.341-4.826,8.588c-0.9,4.251,0.286,8.995,3.394,12.1
		c2.644,2.819,6.537,4.287,10.374,4.226c9.088,0.307,17.294-8.063,17.122-17.09c0.046-2.772-0.618-5.569-1.99-7.984
		c-3.844-6.445-9.685-11.357-13.929-17.505c-2.279-3.169-3.59-6.952-4.19-10.785c-0.872-5.191,0.661-10.578,3.497-14.94
		C36.65,33.53,44.531,29.136,52.737,28.336L52.737,28.336z"/>
	<path fill="#06C885" d="M178.816,62.952c2.172-1.804,4.44-3.744,7.263-4.39c3.065-0.629,6.441-0.532,9.227,1.029
		c1.854,1.004,3.276,2.636,4.344,4.426c2.676-2.829,6.159-5.026,10.056-5.612c3.683-0.6,7.756,0.061,10.635,2.579
		c1.865,1.55,3.165,3.851,3.219,6.312c0.161,2.429-0.547,4.805-1.515,7.002c-1.633,4.012-3.254,8.027-4.88,12.042
		c2.436,0.05,4.88-0.075,7.316,0.068c1.815,0.146,3.976,0.825,4.641,2.719c0.7,2.186,0.125,4.866-1.7,6.345
		c-1.636,1.368-3.83,1.861-5.919,1.872c-3.819-0.018-7.638,0.004-11.457-0.011c-2.54-0.032-5.201-1.386-6.259-3.783
		c-0.972-2.161-0.386-4.594,0.386-6.716c1.683-4.358,3.547-8.638,5.276-12.975c0.514-1.411,0.472-3.404-0.94-4.283
		c-1.579-0.875-3.572-0.468-5.083,0.372c-2.679,1.59-4.576,4.24-5.759,7.08c-1.976,4.816-3.912,9.653-5.884,14.468
		c-0.825,1.99-1.99,3.912-3.74,5.219c-1.625,1.243-3.83,1.636-5.805,1.168c-1.811-0.522-3.404-2.161-3.444-4.112
		c-0.104-1.465,0.368-2.886,0.907-4.226c1.968-4.823,3.908-9.66,5.877-14.486c0.386-0.993,0.793-2.001,0.911-3.069
		c0.075-1.397-1.175-2.497-2.444-2.801c-2.133-0.389-4.323,0.518-5.841,2.001c-1.629,1.59-2.711,3.644-3.565,5.73
		c-1.822,4.48-3.651,8.959-5.473,13.439c-0.865,2.197-1.904,4.437-3.737,6.002c-1.629,1.45-3.958,2.022-6.08,1.558
		c-1.775-0.439-3.365-1.915-3.622-3.772c-0.2-1.543,0.286-3.065,0.854-4.48c3.494-8.57,6.963-17.147,10.456-25.717
		c0.832-2.047,2.243-4.094,4.455-4.773c1.829-0.493,3.969-0.364,5.516,0.822C177.962,60.72,178.427,61.859,178.816,62.952
		L178.816,62.952z"/>
	<path fill="#06C885" d="M105.958,62.131c-3.837-3.415-9.277-4.633-14.286-3.812c-7.631,1.19-14.279,6.58-17.555,13.5
		c-2.586,5.369-3.112,11.917-0.589,17.408c1.704,3.805,4.969,6.852,8.852,8.352c4.126,1.586,8.781,1.472,12.943,0.075
		c9.267-3.076,16.261-12.282,16.34-22.106C111.756,70.547,109.798,65.424,105.958,62.131z M99.656,78.438
		c-0.682,4.651-5.219,8.62-10.003,8.059c-2.915-0.275-5.362-2.733-5.755-5.612c-0.754-4.701,2.822-9.442,7.391-10.456
		c1.84-0.393,3.851-0.143,5.437,0.915C99.049,72.805,100.135,75.788,99.656,78.438z"/>
	<path fill="#06C885" d="M147.865,61.698c-3.787-3.09-8.949-4.148-13.721-3.387c-11.024,1.686-19.952,12.146-19.827,23.31
		c-0.025,5.016,2.072,10.11,5.998,13.311c3.915,3.326,9.395,4.423,14.382,3.494c10.835-1.893,19.516-12.239,19.384-23.256
		C154.117,70.065,151.913,64.888,147.865,61.698z M132.554,86.533c-2.976-0.071-5.626-2.408-6.177-5.316
		c-0.975-4.808,2.69-9.799,7.395-10.799c1.758-0.364,3.669-0.136,5.216,0.818c1.872,1.093,3.019,3.201,3.176,5.337
		C142.549,81.782,137.823,86.841,132.554,86.533z"/>
	<path fill="#06C885" d="M310.643,62.47c-3.847-3.647-9.463-4.998-14.629-4.162c-11.142,1.722-20.134,12.393-19.812,23.688
		c0.068,5.287,2.551,10.613,6.941,13.664c4.023,2.908,9.327,3.683,14.122,2.633c10.181-2.136,18.258-11.664,18.701-22.059
		C316.199,71.187,314.423,65.924,310.643,62.47z M294.346,86.53c-2.911-0.1-5.516-2.404-6.062-5.248
		c-1.025-4.823,2.615-9.845,7.345-10.853c1.915-0.4,4.044-0.129,5.637,1.068c1.518,1.1,2.529,2.847,2.736,4.712
		C304.656,81.557,299.776,86.926,294.346,86.53z"/>
	<path fill="#06C885" d="M274.659,63.945c0.293-1.508-0.121-3.158-1.25-4.23c-1.49-1.547-3.865-1.804-5.855-1.254
		c-1.986,0.479-3.54,1.958-4.601,3.644c-2.043-2.601-5.362-3.851-8.602-3.89c-4.644-0.211-9.206,1.618-12.703,4.615
		c-4.98,4.223-8.72,10.124-9.653,16.651c-0.5,3.69-0.461,7.663,1.311,11.035c1.679,3.39,5.13,5.873,8.927,6.173
		c2.59,0.418,5.183-0.414,7.416-1.69c-0.511,1.218-0.993,2.451-1.486,3.68c-3.883-0.004-7.766-0.014-11.649,0
		c-5.119,0.132-10.496,0.872-14.822,3.822c-4.78,3.154-7.963,8.727-7.888,14.497c-0.043,4.022,1.429,8.056,4.212,10.985
		c4.058,4.501,10.449,6.312,16.358,5.562c5.334-0.518,10.185-3.519,13.55-7.609c4.033-4.683,6.212-10.538,8.509-16.183
		c3.012-0.032,6.027,0.071,9.038-0.057c2.208-0.075,4.537-0.672,6.148-2.272c1.525-1.504,1.943-3.876,1.379-5.894
		c-0.625-1.779-2.576-2.561-4.312-2.744c-2.594-0.243-5.198-0.05-7.795-0.121c3.747-9.195,7.473-18.405,11.217-27.604
		C273.005,68.707,274.177,66.435,274.659,63.945z M239.657,117.306c-1.304,1.965-2.972,3.847-5.223,4.719
		c-2.354,0.897-5.348,0.718-7.163-1.193c-2.476-2.376-2.011-6.809,0.543-8.952c1.786-1.55,4.233-2.093,6.548-2.129
		c3.09,0.004,6.177,0.007,9.267,0C242.497,112.362,241.211,114.916,239.657,117.306z M257.976,74.516
		c-1.268,3.029-2.479,6.087-3.744,9.117c-0.6,1.547-2.236,2.376-3.805,2.561c-1.615,0.161-3.447,0.211-4.78-0.868
		c-1.1-0.872-1.525-2.322-1.565-3.676c-0.218-3.447,1.215-6.816,3.383-9.438c1.207-1.511,2.697-2.872,4.53-3.569
		c2.183-0.847,5.176-0.436,6.466,1.704C259.241,71.697,258.491,73.216,257.976,74.516z"/>
</g>
</svg>
