<?xml version="1.0" encoding="utf-8"?>
<!-- Generator: Adobe Illustrator 17.0.0, SVG Export Plug-In . SVG Version: 6.00 Build 0)  -->
<!DOCTYPE svg PUBLIC "-//W3C//DTD SVG 1.1//EN" "http://www.w3.org/Graphics/SVG/1.1/DTD/svg11.dtd">
<svg version="1.1" id="레이어_1" xmlns="http://www.w3.org/2000/svg" xmlns:xlink="http://www.w3.org/1999/xlink" x="0px"
	 y="0px" width="320px" height="160px" viewBox="0 0 320 160" enable-background="new 0 0 320 160" xml:space="preserve">
<g>
	<path fill="#020202" d="M12.145,50.136c3.344-3.436,8.106-5.281,12.845-5.56c3.018-0.078,6.167,0.13,8.92,1.485
		c1.816,0.885,3.291,2.509,3.816,4.479c0.605,2.282,0.421,4.838-0.762,6.908c-0.858,1.518-2.459,2.592-4.202,2.745
		c-1.454,0.251-2.93-0.357-3.932-1.405c2.218-1.483,3.467-4.247,3.192-6.891c-0.125-1.275-0.816-2.514-1.925-3.187
		c-0.946-0.61-2.09-0.776-3.193-0.828c-1.483,0.024-3.012,0.307-4.266,1.138c-1.286,0.823-2.145,2.221-2.395,3.717
		c-0.418,2.54,0.31,5.2,1.797,7.281c1.929,2.733,4.703,4.67,7.132,6.917c2.928,2.549,5.477,5.739,6.493,9.551
		c1.045,3.987,0.934,8.383-0.794,12.167c-1.423,3.15-4.043,5.685-7.134,7.193c-3.783,1.89-8.104,2.403-12.287,2.199
		c-3.284-0.173-6.669-0.749-9.513-2.495c-2.036-1.241-3.59-3.256-4.192-5.571c-0.742-2.889-0.561-6.127,0.977-8.731
		c1.417-2.4,3.958-4.001,6.662-4.536c1.937-0.376,4.015-0.421,5.878,0.305c1.293,0.504,2.188,1.703,2.509,3.029
		c-2.244,0.277-4.654,0.679-6.389,2.256c-1.482,1.319-2.029,3.365-2.06,5.287c-0.057,1.695,0.414,3.457,1.553,4.748
		c1.431,1.622,3.658,2.403,5.793,2.322c1.896,0.009,3.816-0.726,5.113-2.13c1.513-1.625,2.225-3.835,2.473-6.004
		c0.449-3.514-0.327-7.17-2.23-10.166c-2.694-4.375-7.068-7.295-10.296-11.221c-1.639-1.977-2.837-4.415-2.911-7.018
		C8.69,55.13,10.07,52.231,12.145,50.136L12.145,50.136z"/>
	<path fill="#020202" d="M70.149,68.375c-0.445-1.809-1.532-3.495-3.152-4.455c-2.147-1.286-4.727-1.542-7.179-1.561
		c-1.832-0.057-3.654,0.426-5.275,1.267c0.109-0.449,0.192-0.905,0.232-1.365c-1.208,0.009-2.415-0.012-3.623,0.012
		c-1.156-0.019-2.31-0.017-3.466-0.002c-1.092,0.023-2.197-0.1-3.278,0.073c-0.243,1.447-0.606,2.868-0.894,4.304
		c-3.505,16.265-7.009,32.533-10.507,48.8c3.628-0.842,7.255-1.705,10.883-2.549c1.234-5.786,2.483-11.566,3.741-17.347
		c1.563,0.937,3.259,1.703,5.075,1.972c3.084,0.456,6.363-0.243,8.932-2.031c2.272-1.561,3.925-3.864,5.139-6.309
		c1.76-3.594,2.696-7.527,3.315-11.462C70.56,74.639,70.927,71.438,70.149,68.375z M61.831,72.164
		c-0.227,3.136-0.934,6.214-1.634,9.272c-0.652,2.651-1.306,5.335-2.519,7.796c-0.698,1.397-1.804,2.786-3.427,3.083
		c-1.845,0.23-3.85,0.061-5.43-1.003c-0.199-0.087-0.263-0.237-0.191-0.451c1.689-7.849,3.431-15.688,5.106-23.541
		c1.289-0.846,2.767-1.561,4.349-1.487c1.13-0.007,2.362,0.386,2.989,1.39C61.985,68.696,61.881,70.503,61.831,72.164z"/>
	<path fill="#020202" d="M152.592,80.014c2.033-1.315,3.868-3.003,5.124-5.089c1.296-2.145,1.885-4.725,1.568-7.217
		c-0.192-1.409-0.761-2.809-1.812-3.793c-1.533-1.508-3.738-2.046-5.819-2.216c-2.194-0.17-4.439,0.029-6.505,0.82
		c-2.514,0.939-4.677,2.686-6.299,4.805c-2.279,2.949-3.677,6.479-4.573,10.069c-0.788,3.303-1.229,6.708-1.088,10.105
		c-2.861,2.544-6.578,4.379-10.48,4.179c-1.572-0.01-3.154-0.839-3.868-2.272c-1.086-2.154-0.958-4.652-0.885-6.997
		c0.307-4.004,1.281-7.985,3.036-11.604c0.976-1.911,2.188-3.814,4.017-5.011c1.111-0.75,2.521-1.064,3.838-0.768
		c0.766,0.184,1.44,0.799,1.572,1.596c0.203,0.903-0.106,1.797-0.232,2.686c1.279-0.423,2.8-0.686,4.029,0.005
		c0.544-1.572,0.631-3.5-0.402-4.897c-1.022-1.336-2.727-1.877-4.321-2.143c-3.703-0.541-7.631-0.064-10.949,1.726
		c-2.486,1.327-4.542,3.379-6.063,5.737c-1.852,2.859-2.987,6.132-3.647,9.461c-0.632,3.37-0.859,6.844-0.433,10.254
		c-1.315,0.873-2.731,1.851-4.377,1.83c-0.977-0.061-2.093-0.147-2.807-0.901c-0.586-0.591-0.638-1.482-0.575-2.265
		c0.113-1.111,0.367-2.199,0.603-3.289c1.05-4.867,2.091-9.736,3.143-14.604c0.546-2.658,1.189-5.297,1.672-7.965
		c-3.426-0.007-6.853,0.019-10.28-0.014c-0.244,0.603-0.314,1.258-0.522,1.871c-1.14-0.962-2.585-1.542-4.058-1.724
		c-2.284-0.135-4.597,0.191-6.753,0.956c-2.538,0.905-4.796,2.523-6.541,4.568c-2.192,2.542-3.641,5.644-4.609,8.837
		c-1.248,4.178-1.745,8.558-1.667,12.911c0.01,3.003,1.466,6.193,4.278,7.531c1.953,0.955,4.209,1.107,6.337,0.813
		c3.372-0.596,6.075-2.991,8.078-5.645c0.506,2.261,2.32,4.081,4.514,4.753c2.311,0.693,4.928,0.976,7.182-0.066
		c2.644-1.178,4.919-3.034,7.054-4.959c0.482,1.196,1.13,2.346,2.067,3.247c1.585,1.572,3.842,2.258,6.028,2.37
		c3.699,0.149,7.492-0.513,10.764-2.299c2.258-1.201,4.166-2.946,5.858-4.841c0.827,2.817,2.93,5.271,5.676,6.359
		c2.547,1.057,5.377,0.872,8.057,0.598c2.585-0.324,5.266-1.054,7.231-2.854c1.802-1.662,2.582-4.188,2.514-6.591
		c-1.527,1.371-3.162,2.658-5.022,3.547c-1.861,0.879-4.034,1.313-6.049,0.742c-1.324-0.367-2.386-1.438-2.835-2.724
		c-0.707-1.968-0.496-4.108-0.269-6.144C146.455,83.017,149.726,81.847,152.592,80.014z M147.145,70.26
		c0.854-1.553,1.838-3.119,3.313-4.153c0.799-0.574,1.835-0.846,2.802-0.591c0.861,0.291,1.364,1.157,1.566,1.998
		c0.596,2.431-0.128,5.015-1.443,7.087c-2.059,3.277-5.801,5.469-9.693,5.467C144.438,76.678,145.535,73.343,147.145,70.26z
		 M90.27,87.57c-0.113,0.528-0.064,1.144-0.461,1.566c-0.925,1.206-1.967,2.467-3.445,2.989c-1.378,0.333-3.006,0.007-3.947-1.114
		c-0.84-0.988-1.081-2.336-1.081-3.597c-0.028-4.186,0.697-8.374,2.067-12.329c0.823-2.279,1.856-4.533,3.434-6.394
		c0.918-1.059,2.065-2.027,3.478-2.299c1.504-0.244,3.083,0.234,4.252,1.199C93.131,74.249,91.714,80.913,90.27,87.57z"/>
	<path fill="#020202" d="M311.944,91.35c-0.83-0.073-1.568-0.691-1.766-1.502c-0.324-1.424,0.1-2.857,0.409-4.244
		c2.689-12.497,5.429-24.983,8.09-37.485c-3.531,0.451-7.064,0.918-10.587,1.424c-1.05,4.857-2.067,9.724-3.178,14.566
		c-1.454-1.104-3.264-1.825-5.108-1.75c-2.428,0.017-4.866,0.511-7.064,1.554c-2.506,1.178-4.632,3.079-6.228,5.33
		c-2.008,2.807-3.268,6.08-4.082,9.416c-0.896,3.616-1.152,7.352-1.225,11.06c-1.249,0.863-2.698,1.683-4.271,1.549
		c-0.908-0.083-1.925-0.222-2.558-0.953c-0.655-0.749-0.551-1.823-0.451-2.739c0.296-1.835,0.752-3.639,1.125-5.458
		c1.41-6.623,2.868-13.233,4.256-19.859c-3.28-0.002-6.558,0.002-9.837-0.003c-0.196,0.007-0.386,0.038-0.568,0.092
		c-1.481,7.16-3.069,14.299-4.588,21.45c-0.326,1.648-0.783,3.271-1,4.938c-1.521,1.13-3.133,2.417-5.099,2.545
		c-1.177-0.024-2.632-0.159-3.289-1.287c-0.52-1.014-0.256-2.208-0.078-3.278c1.717-8.158,3.528-16.297,5.229-24.456
		c-3.407,0.005-6.815-0.014-10.223,0.009l-0.156,0.121c-0.677,3.091-1.331,6.186-2.003,9.277c-0.922,0.52-1.942,0.896-3.006,0.948
		c-0.873,0.059-1.814-0.016-2.523-0.584c-0.059-2.086-0.347-4.216-1.244-6.12c-0.657-1.404-1.722-2.641-3.105-3.365
		c-1.386-0.752-2.987-0.981-4.545-0.988c-2.239,0.05-4.483,0.437-6.56,1.287c-2.875,1.145-5.372,3.147-7.224,5.616
		c-1.903,2.526-3.147,5.496-3.909,8.553c-0.946,3.956-1.267,8.071-0.951,12.126c-1.08,0.797-2.211,1.582-3.511,1.968
		c-0.918,0.288-1.892,0.17-2.812-0.028c-0.749-0.175-1.471-0.669-1.709-1.428c-0.282-0.906-0.074-1.866,0.116-2.769
		c2.769-12.925,5.614-25.834,8.359-38.762c-3.549,0.447-7.096,0.922-10.639,1.412c-2.564,11.781-5.106,23.567-7.673,35.35
		c-0.814,1.182-1.665,2.367-2.798,3.27c-3.062,2.599-7.168,3.661-11.123,3.628c-2-0.085-4.122-0.327-5.786-1.544
		c-1.537-1.105-2.36-2.916-2.76-4.718c-0.667-3.013-0.619-6.122-0.542-9.191c0.213-4.12,0.891-8.217,1.972-12.2
		c1.126-4.008,2.623-7.981,5.032-11.408c1.194-1.657,2.648-3.209,4.505-4.117c1.592-0.783,3.514-0.955,5.184-0.319
		c1.322,0.497,2.258,1.741,2.563,3.098c0.48,1.748-0.033,3.585-0.832,5.155c-0.466,0.898-1.102,1.793-2.069,2.19
		c1.577,2.123,4.98,2.467,7.078,0.927c1.393-1.1,1.838-2.951,1.975-4.64c0.187-2.336-0.329-4.827-1.875-6.65
		c-1.613-1.918-4.041-2.939-6.449-3.419c-2.864-0.551-5.829-0.499-8.693,0.021c-3.72,0.683-7.248,2.438-9.977,5.067
		c-3.512,3.318-5.774,7.74-7.243,12.294c-1.908,5.968-2.57,12.268-2.54,18.509c0.118,4.133,0.887,8.461,3.412,11.847
		c1.845,2.526,4.677,4.226,7.7,4.937c2.315,0.593,4.729,0.579,7.097,0.442c2.582-0.201,5.151-0.74,7.553-1.722
		c2.812-1.157,5.389-2.975,7.257-5.391c0.182-0.23,0.352-0.483,0.617-0.629c0.031,1.717,0.482,3.498,1.636,4.815
		c1.118,1.306,2.767,2.031,4.429,2.341c1.812,0.327,3.757,0.449,5.482-0.312c2.863-1.194,5.29-3.209,7.562-5.28
		c0.561,1.89,1.648,3.71,3.386,4.729c2.076,1.256,4.573,1.539,6.955,1.521c3.33,0.069,6.526-1.48,8.939-3.701
		c2.329-2.124,4.036-4.855,5.229-7.758c1.313-3.128,1.941-6.486,2.365-9.833c1.762-0.418,3.44-1.157,5.018-2.038
		c-0.807,3.798-1.636,7.593-2.447,11.389c-0.397,1.871-0.672,3.822-0.298,5.722c0.253,1.426,0.936,2.797,2.036,3.758
		c1.223,1.097,2.837,1.655,4.441,1.889c1.653,0.255,3.4,0.288,4.966-0.385c2.935-1.206,5.422-3.271,7.733-5.403
		c0.239,1.32,0.768,2.618,1.712,3.594c1.229,1.253,2.941,1.909,4.651,2.173c1.53,0.225,3.143,0.345,4.626-0.189
		c2.791-0.956,5.065-2.918,7.335-4.727c0.47,1.528,1.388,2.944,2.688,3.894c1.301,0.965,2.911,1.447,4.514,1.579
		c1.267,0.075,2.564,0.076,3.791-0.296c2.934-0.825,5.347-2.939,7.097-5.373c0.409,1.457,1.08,2.921,2.324,3.854
		c1.715,1.353,4.022,1.584,6.13,1.39c1.235-0.139,2.448-0.632,3.356-1.495c1.416-1.313,2.213-3.131,2.837-4.923
		C313.661,91.362,312.794,91.528,311.944,91.35z M234.179,76.463c0.53,0.797,1.518,1.126,2.438,1.157
		c-0.421,3.051-1.045,6.115-2.318,8.936c-0.714,1.535-1.646,3.055-3.079,4.013c-1.407,0.95-3.278,0.865-4.8,0.253
		c-1.421-0.598-2.114-2.152-2.253-3.606c-0.149-1.837,0.003-3.686,0.263-5.505c0.504-3.401,1.324-6.78,2.72-9.932
		c0.646-1.416,1.421-2.798,2.474-3.954c0.873-0.958,1.993-1.771,3.296-1.991c0.904-0.118,1.942-0.114,2.667,0.527
		c0.837,0.776,1.069,1.979,1.144,3.07c-1.416,0.567-2.441,1.849-2.876,3.285C233.47,73.937,233.429,75.37,234.179,76.463z
		 M303.599,70.361c-1.242,5.744-2.504,11.485-3.746,17.229c-0.139,0.515-0.031,1.121-0.414,1.54
		c-0.953,1.225-2.01,2.549-3.547,3.032c-1.242,0.234-2.656,0.002-3.589-0.903c-0.93-0.899-1.27-2.237-1.298-3.491
		c-0.092-3.88,0.523-7.761,1.65-11.469c0.827-2.596,1.896-5.169,3.597-7.323c0.839-1.014,1.835-1.975,3.105-2.417
		c1.615-0.535,3.471-0.088,4.803,0.932C304.105,68.446,303.761,69.404,303.599,70.361z"/>
</g>
</svg>
