<?xml version="1.0" encoding="utf-8"?>
<!-- Generator: Adobe Illustrator 17.0.0, SVG Export Plug-In . SVG Version: 6.00 Build 0)  -->
<!DOCTYPE svg PUBLIC "-//W3C//DTD SVG 1.1//EN" "http://www.w3.org/Graphics/SVG/1.1/DTD/svg11.dtd">
<svg version="1.1" id="레이어_1" xmlns="http://www.w3.org/2000/svg" xmlns:xlink="http://www.w3.org/1999/xlink" x="0px"
	 y="0px" width="320px" height="160px" viewBox="0 0 320 160" enable-background="new 0 0 320 160" xml:space="preserve">
<g>
	<path fill="#E95A40" d="M118.04,51.553c0-0.001,0-0.001,0-0.001c-3.851-3.851-8.97-5.973-14.418-5.971
		c-5.447,0-10.565,2.121-14.415,5.971l-52.608,52.608c-1.874,1.874-4.912,1.874-6.787,0L12.42,86.767
		c-2.419-2.418-3.75-5.63-3.75-9.049c0-3.419,1.331-6.633,3.75-9.052c2.416-2.417,5.632-3.749,9.049-3.749
		c3.42,0,6.632,1.331,9.05,3.749l0,0l14.922,14.922c0.399,0.399,1.049,0.401,1.451,0l3.915-3.917c0.402-0.399,0.402-1.049,0-1.448
		l-14.92-14.922c0,0,0,0,0-0.001c-3.854-3.849-8.973-5.971-14.418-5.971c-5.444,0-10.565,2.122-14.415,5.973
		c-3.851,3.851-5.971,8.971-5.971,14.417c0,5.445,2.12,10.565,5.971,14.415l19.556,19.559c3.635,3.637,9.554,3.637,13.189,0
		l54.773-54.775c2.417-2.417,5.633-3.748,9.05-3.748c3.421,0,6.634,1.331,9.05,3.748v0.001c4.992,4.99,4.992,13.11,0.003,18.099
		l-28.129,28.129c-2.435,2.434-6.379,2.434-8.811,0l-7.833-7.831c-0.402-0.401-1.049-0.401-1.448,0l-3.919,3.916
		c-0.398,0.399-0.398,1.049,0.003,1.449l11.007,11.01c3.637,3.637,9.551,3.637,13.188,0l31.307-31.307
		C125.989,72.437,125.989,59.502,118.04,51.553z"/>
	<g>
		<path fill="#E95A40" d="M180.953,64.076c-2.193,0-3.976,1.82-3.976,4.055c0,2.236,1.783,4.055,3.976,4.055
			c2.191,0,3.973-1.819,3.973-4.055C184.926,65.895,183.143,64.076,180.953,64.076z"/>
		<path fill="#E95A40" d="M246.331,74.476c-6.839,0-11.803,4.784-11.803,11.376c0,6.592,4.963,11.376,11.803,11.376
			c6.839,0,11.806-4.784,11.806-11.376C258.137,79.261,253.17,74.476,246.331,74.476z M246.331,91.393
			c-3.216,0-5.298-2.174-5.298-5.54c0-3.366,2.083-5.541,5.298-5.541c3.219,0,5.298,2.175,5.298,5.541
			C251.629,89.218,249.55,91.393,246.331,91.393z"/>
		<path fill="#E95A40" d="M174.338,75.014h-4.934c-0.303,0-0.583,0.179-0.711,0.456l-0.064,0.219l-3.796,12.974h-0.14l-0.006-0.026
			l-3.812-13.178c-0.131-0.272-0.402-0.445-0.705-0.445h-5.964c-0.351,0-0.654,0.229-0.75,0.57l-0.019,0.072l-3.468,13.007h-0.143
			l-0.009-0.025l-4.203-13.216c-0.134-0.251-0.399-0.408-0.685-0.408h-5.281c-0.432,0-0.784,0.352-0.784,0.784
			c0,0.047,0.003,0.095,0.015,0.149l0.076,0.211l7.215,20.103c0.131,0.264,0.399,0.431,0.696,0.431h5.438
			c0.313,0,0.594-0.186,0.72-0.475l0.052-0.194l3.765-13.786h0.141l0.009,0.025l4.308,14.062c0.146,0.23,0.393,0.368,0.663,0.368
			h5.354c0.271,0,0.521-0.138,0.667-0.371l0.111-0.323l7.02-20.125c-0.003-0.001,0-0.012,0-0.023
			c0.003-0.016,0.006-0.033,0.006-0.05C175.122,75.366,174.769,75.014,174.338,75.014z"/>
		<path fill="#E95A40" d="M183.42,75.014h-4.94c-0.431,0-0.784,0.352-0.784,0.784v20.11c0,0.431,0.353,0.784,0.784,0.784h4.94
			c0.434,0,0.784-0.352,0.784-0.784v-20.11C184.204,75.366,183.854,75.014,183.42,75.014z"/>
		<path fill="#E95A40" d="M198.106,83.407c-2.056-0.451-3.679-0.808-3.679-2.075c0-1.262,1.226-1.826,2.444-1.826
			c1.27,0,2.368,0.414,3.262,1.232l0.017,0.015c0.02,0.021,0.047,0.041,0.067,0.063c0.143,0.114,0.312,0.177,0.492,0.177
			c0.163,0,0.323-0.054,0.46-0.154l0.181-0.182l2.773-2.8c0.146-0.147,0.224-0.342,0.224-0.545c0-0.184-0.064-0.358-0.189-0.503
			l-0.009-0.007c-0.058-0.052-0.119-0.106-0.181-0.158c-1.701-1.397-4.235-2.168-7.139-2.168c-4.436,0-8.91,2.258-8.91,7.304
			c0,4.991,4.025,5.869,7.262,6.576c2.056,0.448,3.833,0.836,3.833,2.238c0,1.005-1.13,1.604-3.021,1.604
			c-1.585,0-2.919-0.564-4.075-1.723l-0.018-0.019c-0.009-0.006-0.017-0.013-0.023-0.022c-0.146-0.132-0.335-0.207-0.527-0.207
			c-0.189,0-0.373,0.071-0.519,0.2l-3.053,3.456c-0.061,0.115-0.096,0.243-0.096,0.374c0,0.166,0.055,0.328,0.157,0.466
			c0.079,0.068,0.172,0.144,0.282,0.233c1.826,1.465,4.529,2.272,7.608,2.272c1.841,0,4.48-0.259,6.606-1.496
			c2.112-1.228,3.184-3.123,3.184-5.629c0-2.25-0.816-3.88-2.493-4.981C201.579,84.169,199.735,83.764,198.106,83.407z"/>
		<path fill="#E95A40" d="M287.043,74.476c-3.21,0-5.22,1.159-6.72,3.875l-0.038,0.065l-0.029-0.068
			c-1.075-2.497-3.402-3.872-6.542-3.872c-3.254,0-5.371,1.87-6.196,3.472l-0.012,0.02h-0.146v-2.171
			c0-0.432-0.352-0.784-0.784-0.784h-4.675c-0.431,0-0.784,0.352-0.784,0.784v20.11c0,0.431,0.353,0.784,0.784,0.784h4.937
			c0.434,0,0.784-0.352,0.784-0.784v-10.01c0-2.763,0.475-5.586,3.985-5.586c0.821,0,1.477,0.243,1.954,0.721
			c1.025,1.023,1.022,2.925,1.02,4.061v10.814c0,0.431,0.352,0.784,0.784,0.784h4.952c0.387,0,0.711-0.281,0.772-0.666V85.225
			c0-3.214,1.392-4.913,4.025-4.913c1.89,0,2.93,1.332,2.93,3.751v11.845c0,0.431,0.353,0.784,0.784,0.784h4.94
			c0.431,0,0.784-0.352,0.784-0.784V83.883c0-2.885-0.539-5.132-1.596-6.681C291.721,75.394,289.732,74.476,287.043,74.476z"/>
		<path fill="#E95A40" d="M308.956,74.476c-6.839,0-11.806,4.784-11.806,11.376c0,6.592,4.966,11.376,11.806,11.376
			c3.085,0,6.167-1.293,8.246-3.459c0.076-0.079,0.163-0.172,0.248-0.265c0.07-0.118,0.108-0.252,0.108-0.39
			c0-0.255-0.125-0.495-0.332-0.641l-0.02-0.013l-3.289-2.463c-0.131-0.089-0.283-0.136-0.44-0.136
			c-0.184,0-0.358,0.066-0.504,0.188c-0.035,0.044-0.076,0.09-0.119,0.135l-0.041,0.048c-1.171,1.322-2.531,1.965-4.165,1.965
			c-2.54,0-4.451-1.622-4.99-4.235l-0.009-0.044h14.512c0.417-0.013,0.749-0.35,0.757-0.765v-1.302
			C318.918,78.943,315.006,74.476,308.956,74.476z M312.411,83.428h-8.756l0.003-0.041c0.169-2.035,1.684-4.088,4.684-4.088
			c1.142,0,2.188,0.425,2.942,1.196c0.751,0.763,1.151,1.791,1.127,2.897V83.428z"/>
		<path fill="#E95A40" d="M230.479,64.273h-4.937c-0.431,0-0.784,0.353-0.784,0.784v12.284h-0.143l-0.012-0.014
			c-1.32-1.865-3.647-2.85-6.723-2.85c-6.3,0-9.7,5.953-9.7,11.554c0,6.698,4.197,11.198,10.445,11.198
			c2.837,0,5.421-1.704,6.501-3.385l0.012-0.018h0.143v2.081c0,0.431,0.352,0.784,0.786,0.784h4.41c0.431,0,0.787-0.352,0.787-0.784
			v-30.85C231.266,64.625,230.911,64.273,230.479,64.273z M219.988,91.393c-3.219,0-5.301-2.174-5.301-5.54
			c0-3.366,2.083-5.541,5.301-5.541c3.216,0,5.296,2.175,5.296,5.541C225.283,89.218,223.203,91.393,219.988,91.393z"/>
	</g>
</g>
</svg>
