<?xml version="1.0" encoding="utf-8"?>
<!-- Generator: Adobe Illustrator 17.0.0, SVG Export Plug-In . SVG Version: 6.00 Build 0)  -->
<!DOCTYPE svg PUBLIC "-//W3C//DTD SVG 1.1//EN" "http://www.w3.org/Graphics/SVG/1.1/DTD/svg11.dtd">
<svg version="1.1" id="레이어_1" xmlns="http://www.w3.org/2000/svg" xmlns:xlink="http://www.w3.org/1999/xlink" x="0px"
	 y="0px" width="320px" height="160px" viewBox="0 0 320 160" enable-background="new 0 0 320 160" xml:space="preserve">
<g>
	<path d="M103.584,60.575c-19.68-11.627-43.75-14.914-66.143-11.142C27.402,51.309,17.496,54.64,8.869,60.2
		c-4.214,2.581-4.104,8.472-1.39,12.112C14.517,83.675,21.93,94.838,28.99,106.2c1.964,3.243,5.185,7.236,9.509,5.383
		c8.737-2.758,18.18-5.207,27.225-2.184c4.986,1.302,12.178,5.052,15.576-0.949c7.965-11.98,15.532-24.247,23.32-36.337
		C107.246,68.672,107.731,63.046,103.584,60.575z M73.843,100.729c-11.583-4.037-24.247-3.949-35.852-0.022
		c-7.038-11.142-14.164-22.195-21.224-33.314c24.158-12.642,54.009-11.649,78.278,0.132C88.007,78.6,80.947,89.676,73.843,100.729z"
		/>
	<path d="M127.08,62.848c3.442,0,6.884,0,10.325,0c3.993,5.78,8.031,11.539,12.046,17.341c3.795-5.78,7.656-11.561,11.473-17.319
		c3.376-0.022,6.751-0.022,10.127-0.022c-5.295,8.538-11.473,16.525-16.26,25.372c-0.728,6.067-0.243,12.223-0.265,18.334
		c-3.331,0-6.641,0.022-9.972,0.022c0-6.133,0-12.245,0-18.378C138.751,79.748,132.905,71.32,127.08,62.848L127.08,62.848z"/>
	<path d="M232.804,62.848c10.48,0,20.959,0,31.439,0c0,1.655,0,4.964,0,6.619c-7.347,0-14.716,0.022-22.063,0
		c0,3.905,0,7.81,0,11.715c5.847,0,11.671-0.022,17.518,0c0,1.589,0,4.765,0,6.354c-5.847,0-11.693,0-17.518,0
		c0,4.037,0.022,8.097,0,12.134c7.501-0.022,14.98,0,22.482,0c0,1.721,0,5.163,0,6.883c-10.612,0-21.246,0-31.858,0.022
		C232.804,91.992,232.804,77.409,232.804,62.848L232.804,62.848z"/>
	<path d="M210.543,64.171c-8.582-2.361-17.628-1.015-26.409-1.302c0,14.561,0,29.123,0,43.684c3.111,0.022,6.244,0.022,9.377,0
		c0-5.714,0-11.428,0-17.142c7.987-0.177,17.937,0.971,23.386-6.266C221.905,76.681,218.265,66.422,210.543,64.171z M206.461,81.093
		c-4.015,1.897-8.648,1.081-12.951,1.478c0-4.413,0-8.825,0-13.238c4.082,0.243,8.318-0.176,12.267,1.081
		C210.256,71.981,210.697,78.975,206.461,81.093z"/>
	<path d="M309.67,66.003c-9.597-5.427-21.29-2.361-31.77-3.133c-0.022,14.561-0.022,29.123,0,43.684
		c3.111,0.022,6.244,0.022,9.377,0c0-5.957,0-11.936,0-17.915c3.045,0,6.111,0,9.178-0.022c2.625,6.001,5.295,11.98,7.942,17.959
		c2.471,0,7.435-0.022,9.928-0.022c-2.934-6.288-5.847-12.576-8.759-18.863C314.656,84.645,318.009,71.827,309.67,66.003z
		 M302.742,80.211c-4.611,2.912-10.347,1.611-15.466,2.052c0-4.413,0-8.803,0-13.193c4.567,0.287,9.31-0.331,13.745,1.103
		C305.147,71.54,306.14,77.541,302.742,80.211z"/>
</g>
</svg>
