<?xml version="1.0" encoding="utf-8"?>
<!-- Generator: Adobe Illustrator 17.0.0, SVG Export Plug-In . SVG Version: 6.00 Build 0)  -->
<!DOCTYPE svg PUBLIC "-//W3C//DTD SVG 1.1//EN" "http://www.w3.org/Graphics/SVG/1.1/DTD/svg11.dtd">
<svg version="1.1" id="레이어_1" xmlns="http://www.w3.org/2000/svg" xmlns:xlink="http://www.w3.org/1999/xlink" x="0px"
	 y="0px" width="100px" height="120px" viewBox="0 0 100 120" enable-background="new 0 0 100 120" xml:space="preserve">
<g>
	<g>
		
			<line fill="none" stroke="#ECECEC" stroke-width="2.7956" stroke-miterlimit="10" x1="79.891" y1="52.361" x2="79.891" y2="62.745"/>
		<g>
			
				<line fill="none" stroke="#ECECEC" stroke-width="2.7956" stroke-miterlimit="10" x1="78.301" y1="62.589" x2="70.305" y2="62.589"/>
			<circle fill="#FFFFFF" stroke="#ECECEC" stroke-width="0.9984" stroke-miterlimit="10" cx="79.858" cy="62.589" r="2.129"/>
		</g>
		<path fill="none" stroke="#ECECEC" stroke-width="2.7956" stroke-miterlimit="10" d="M76.105,30.18
			c1.595,2.537,2.825,5.325,3.62,8.292"/>
		<path fill="none" stroke="#ECECEC" stroke-width="2.7956" stroke-miterlimit="10" d="M22.127,34.798
			c1.212-2.949,2.874-5.666,4.899-8.066"/>
		<path fill="none" stroke="#ECECEC" stroke-width="2.7956" stroke-miterlimit="10" d="M66.218,72.334
			c-3.617,2.221-7.733,3.707-12.141,4.25"/>
		<g>
			
				<line fill="none" stroke="#ECECEC" stroke-width="2.7956" stroke-miterlimit="10" x1="38.124" y1="20.932" x2="47.768" y2="30.576"/>
			<circle fill="#FFFFFF" stroke="#ECECEC" stroke-width="0.9984" stroke-miterlimit="10" cx="37.023" cy="19.831" r="2.13"/>
		</g>
		<g>
			
				<line fill="none" stroke="#ECECEC" stroke-width="2.7956" stroke-miterlimit="10" x1="54.023" y1="17.678" x2="54.023" y2="24.299"/>
			<circle fill="#FFFFFF" stroke="#ECECEC" stroke-width="0.9984" stroke-miterlimit="10" cx="54.023" cy="16.121" r="2.13"/>
		</g>
		<g>
			
				<line fill="none" stroke="#ECECEC" stroke-width="2.7956" stroke-miterlimit="10" x1="20.077" y1="52.562" x2="20.077" y2="45.94"/>
			<circle fill="#FFFFFF" stroke="#ECECEC" stroke-width="0.9984" stroke-miterlimit="10" cx="20.077" cy="54.119" r="2.13"/>
		</g>
		<circle fill="#FFFFFF" stroke="#ECECEC" stroke-width="0.9984" stroke-miterlimit="10" cx="66.088" cy="72.432" r="2.13"/>
		<path fill="none" stroke="#ECECEC" stroke-width="2.7956" stroke-miterlimit="10" d="M43.247,76.059
			c-3.455-0.838-6.791-2.287-9.836-4.346"/>
		<circle fill="#FFFFFF" stroke="#ECECEC" stroke-width="0.9984" stroke-miterlimit="10" cx="43.085" cy="76.035" r="2.13"/>
		<circle fill="#FFFFFF" stroke="#ECECEC" stroke-width="0.9984" stroke-miterlimit="10" cx="22.158" cy="34.692" r="2.13"/>
		<circle fill="#FFFFFF" stroke="#ECECEC" stroke-width="0.9984" stroke-miterlimit="10" cx="76.339" cy="30.431" r="2.13"/>
		<circle fill="#FFFFFF" stroke="#ECECEC" stroke-width="0.9984" stroke-miterlimit="10" cx="79.923" cy="52.334" r="2.13"/>
		<g>
			
				<line fill="none" stroke="#ECECEC" stroke-width="2.7956" stroke-miterlimit="10" x1="78.461" y1="39.076" x2="68.817" y2="48.72"/>
			<circle fill="#FFFFFF" stroke="#ECECEC" stroke-width="0.9984" stroke-miterlimit="10" cx="79.562" cy="37.975" r="2.13"/>
		</g>
		
			<line fill="none" stroke="#ECECEC" stroke-width="2.5522" stroke-miterlimit="10" x1="34.929" y1="70.303" x2="43.733" y2="61.497"/>
		<circle fill="#FFFFFF" stroke="#ECECEC" stroke-width="0.9984" stroke-miterlimit="10" cx="33.829" cy="71.403" r="2.129"/>
		<g>
			<polyline fill="none" stroke="#ECECEC" stroke-width="2.7956" stroke-miterlimit="10" points="26.454,25.406 35.665,34.616 
				35.67,34.616 44.879,25.406 			"/>
			<circle fill="#FFFFFF" stroke="#ECECEC" stroke-width="0.9984" stroke-miterlimit="10" cx="43.602" cy="26.684" r="2.129"/>
			<circle fill="#FFFFFF" stroke="#ECECEC" stroke-width="0.9984" stroke-miterlimit="10" cx="27.733" cy="26.684" r="2.129"/>
		</g>
		<g>
			<polyline fill="none" stroke="#ECECEC" stroke-width="2.7956" stroke-miterlimit="10" points="53.474,22.873 61.923,31.32 
				61.928,31.32 70.493,22.756 			"/>
			<circle fill="#FFFFFF" stroke="#ECECEC" stroke-width="0.9984" stroke-miterlimit="10" cx="69.86" cy="23.389" r="2.13"/>
			<circle fill="#FFFFFF" stroke="#ECECEC" stroke-width="0.9984" stroke-miterlimit="10" cx="53.991" cy="23.389" r="2.129"/>
		</g>
		<g>
			<polyline fill="none" stroke="#ECECEC" stroke-width="2.7956" stroke-miterlimit="10" points="54.057,75.639 54.057,62.611 
				54.053,62.608 41.028,62.608 			"/>
			<circle fill="#FFFFFF" stroke="#ECECEC" stroke-width="0.9984" stroke-miterlimit="10" cx="42.836" cy="62.608" r="2.13"/>
			<circle fill="#FFFFFF" stroke="#ECECEC" stroke-width="0.9984" stroke-miterlimit="10" cx="54.058" cy="76.525" r="2.129"/>
		</g>
		<g>
			
				<line fill="none" stroke="#ECECEC" stroke-width="2.7956" stroke-miterlimit="10" x1="21.69" y1="46.216" x2="35.329" y2="46.216"/>
			<circle fill="#FFFFFF" stroke="#ECECEC" stroke-width="0.9984" stroke-miterlimit="10" cx="20.133" cy="46.216" r="2.13"/>
		</g>
		<g>
			
				<line fill="none" stroke="#ECECEC" stroke-width="2.7956" stroke-miterlimit="10" x1="27.694" y1="64.57" x2="27.694" y2="52.805"/>
			<circle fill="#FFFFFF" stroke="#ECECEC" stroke-width="0.9984" stroke-miterlimit="10" cx="27.695" cy="66.129" r="2.13"/>
		</g>
		<g>
			
				<line fill="#FDEE00" stroke="#009ADC" stroke-width="2.7956" stroke-miterlimit="10" x1="61.917" y1="41.165" x2="61.917" y2="54.189"/>
		</g>
		<g>
			<polyline fill="none" stroke="#009ADC" stroke-width="2.7956" stroke-miterlimit="10" points="71.129,63.773 61.918,54.562 
				61.914,54.562 52.704,63.773 			"/>
			<circle fill="#FDEE00" stroke="#009ADC" stroke-width="0.9984" stroke-miterlimit="10" cx="53.981" cy="62.494" r="2.13"/>
			<circle fill="#FDEE00" stroke="#009ADC" stroke-width="0.9984" stroke-miterlimit="10" cx="69.851" cy="62.494" r="2.13"/>
		</g>
		
			<line fill="none" stroke="#009ADC" stroke-width="2.7956" stroke-miterlimit="10" x1="49.536" y1="33.48" x2="49.536" y2="46.503"/>
		
			<line fill="none" stroke="#009ADC" stroke-width="2.796" stroke-miterlimit="10" x1="49.458" y1="48.745" x2="68.442" y2="48.745"/>
		<circle fill="none" stroke="#009ADC" stroke-width="2.7956" stroke-miterlimit="10" cx="61.917" cy="36.749" r="5.592"/>
		<circle fill="#FDEE00" stroke="#009ADC" stroke-width="0.9984" stroke-miterlimit="10" cx="49.535" cy="31.923" r="2.129"/>
		<circle fill="#FDEE00" stroke="#009ADC" stroke-width="0.9984" stroke-miterlimit="10" cx="61.916" cy="48.531" r="2.13"/>
		<circle fill="#FDEE00" stroke="#009ADC" stroke-width="0.9984" stroke-miterlimit="10" cx="49.535" cy="48.531" r="2.13"/>
		<g>
			
				<line fill="#FDEE00" stroke="#009ADC" stroke-width="2.7956" stroke-miterlimit="10" x1="35.667" y1="32.645" x2="35.667" y2="45.67"/>
			<circle fill="#FDEE00" stroke="#009ADC" stroke-width="0.9984" stroke-miterlimit="10" cx="35.668" cy="34.453" r="2.13"/>
		</g>
		<g>
			<polyline fill="none" stroke="#009ADC" stroke-width="2.7956" stroke-miterlimit="10" points="44.879,55.252 35.669,46.042 
				35.665,46.042 26.454,55.252 			"/>
			<circle fill="#FDEE00" stroke="#009ADC" stroke-width="0.9984" stroke-miterlimit="10" cx="27.733" cy="53.974" r="2.13"/>
			<circle fill="#FDEE00" stroke="#009ADC" stroke-width="0.9984" stroke-miterlimit="10" cx="43.601" cy="53.974" r="2.13"/>
		</g>
		<circle fill="#FDEE00" stroke="#009ADC" stroke-width="0.9984" stroke-miterlimit="10" cx="35.668" cy="46.134" r="2.13"/>
		<circle fill="#FDEE00" stroke="#009ADC" stroke-width="0.9984" stroke-miterlimit="10" cx="69.12" cy="48.531" r="2.13"/>
		<circle fill="#FDEE00" stroke="#009ADC" stroke-width="0.9984" stroke-miterlimit="10" cx="61.916" cy="31.291" r="2.13"/>
		<path fill="#FDEE00" stroke="#009ADC" stroke-width="0.1997" stroke-miterlimit="10" d="M64.046,42.473
			c0,1.177-0.954,2.13-2.13,2.13c-1.177,0-2.131-0.954-2.131-2.13c0-1.176,0.954-2.13,2.131-2.13
			C63.092,40.343,64.046,41.297,64.046,42.473"/>
		<circle fill="none" stroke="#009ADC" stroke-width="0.9984" stroke-miterlimit="10" cx="61.916" cy="42.473" r="2.13"/>
		<circle fill="#FDEE00" stroke="#009ADC" stroke-width="0.9984" stroke-miterlimit="10" cx="61.916" cy="54.654" r="2.13"/>
	</g>
	<text transform="matrix(1 0 0 1 19.0278 103.3877)" fill="#0D93CE" font-family="'Menlo-Regular'" font-size="7">SOCIAL IT,</text>
	<text transform="matrix(1 0 0 1 61.9155 103.3877)" fill="#0D93CE" font-family="'Menlo-Regular'" font-size="7">SIOT</text>
</g>
</svg>
