<?xml version="1.0" encoding="utf-8"?>
<!-- Generator: Adobe Illustrator 17.0.0, SVG Export Plug-In . SVG Version: 6.00 Build 0)  -->
<!DOCTYPE svg PUBLIC "-//W3C//DTD SVG 1.1//EN" "http://www.w3.org/Graphics/SVG/1.1/DTD/svg11.dtd">
<svg version="1.1" id="레이어_1" xmlns="http://www.w3.org/2000/svg" xmlns:xlink="http://www.w3.org/1999/xlink" x="0px"
	 y="0px" width="95px" height="95px" viewBox="0 0 95 95" enable-background="new 0 0 95 95" xml:space="preserve">
<path fill="#2F3E4D" d="M0.457,0.457v94.086h94.086V0.457H0.457z M44.207,28.024c2.71-0.004,5.423,0,8.133,0.015
	c0.102,3.127,0.049,6.259,0.034,9.39c-2.725-0.004-5.449,0.03-8.17-0.015C44.211,34.286,44.199,31.155,44.207,28.024z
	 M44.109,53.111c0.222-2.356,0.038-4.727,0.09-7.09c2.717-0.038,5.434-0.053,8.152,0.011c0.023,2.337,0.128,4.685-0.023,7.019
	c-1.37,3.323-3.158,6.469-4.629,9.751c-1.803,0.064-3.609,0.06-5.416,0.004C42.875,59.569,43.556,56.352,44.109,53.111z
	 M35.081,76.463c0.008-0.869,0.008-1.739,0.004-2.604c7.644-0.011,15.287-0.045,22.931,0.015c0.008,0.862,0.011,1.724,0.023,2.589
	C50.383,76.482,42.732,76.475,35.081,76.463z"/>
</svg>
