<?xml version="1.0" encoding="utf-8"?>
<!-- Generator: Adobe Illustrator 17.0.0, SVG Export Plug-In . SVG Version: 6.00 Build 0)  -->
<!DOCTYPE svg PUBLIC "-//W3C//DTD SVG 1.1//EN" "http://www.w3.org/Graphics/SVG/1.1/DTD/svg11.dtd">
<svg version="1.1" id="레이어_1" xmlns="http://www.w3.org/2000/svg" xmlns:xlink="http://www.w3.org/1999/xlink" x="0px"
	 y="0px" width="266.825px" height="95px" viewBox="0 0 266.825 95" enable-background="new 0 0 266.825 95" xml:space="preserve">
<g>
	<g>
		<rect x="0" y="21.851" fill="#2F3E4D" width="12.858" height="49.857"/>
		<polygon fill="#2F3E4D" points="20.107,21.851 31.461,21.851 31.461,31.369 23.88,43.123 16.767,43.123 20.107,31.369 		"/>
		<path fill="#2F3E4D" d="M70.161,40.518c1.515-2.315,3.31-4.079,5.394-5.293c2.081-1.214,4.369-1.821,6.861-1.821
			c4.297,0,7.569,1.327,9.82,3.973c2.247,2.65,3.374,6.499,3.374,11.554v22.776H83.589v-19.5c0.019-0.29,0.038-0.592,0.049-0.901
			c0.011-0.313,0.015-0.758,0.015-1.334c0-2.65-0.388-4.569-1.169-5.76c-0.78-1.191-2.036-1.787-3.773-1.787
			c-2.269,0-4.026,0.935-5.259,2.805c-1.236,1.874-1.873,4.576-1.919,8.116v18.366H59.508V52.207c0-4.143-0.358-6.808-1.071-7.999
			c-0.712-1.191-1.983-1.787-3.807-1.787c-2.292,0-4.064,0.939-5.311,2.823c-1.248,1.881-1.87,4.569-1.87,8.063v18.4H35.428V34.305
			h12.021v5.477c1.47-2.115,3.155-3.706,5.059-4.776c1.904-1.071,4.003-1.602,6.295-1.602c2.582,0,4.863,0.622,6.846,1.87
			C67.635,36.522,69.14,38.271,70.161,40.518"/>
		<path fill="#2F3E4D" d="M111.534,66.298v19.636H99.577V34.305h11.957v5.477c1.647-2.183,3.472-3.788,5.477-4.825
			c2.005-1.037,4.305-1.553,6.913-1.553c4.61,0,8.391,1.832,11.354,5.492c2.959,3.66,4.437,8.376,4.437,14.144
			s-1.478,10.48-4.437,14.14c-2.967,3.664-6.744,5.492-11.354,5.492c-2.605,0-4.908-0.516-6.913-1.553
			C115.006,70.09,113.181,68.481,111.534,66.298 M119.48,42.09c-2.56,0-4.524,0.939-5.896,2.823
			c-1.368,1.881-2.054,4.591-2.054,8.131s0.686,6.25,2.054,8.131c1.372,1.881,3.336,2.82,5.896,2.82s4.512-0.935,5.858-2.805
			c1.35-1.87,2.021-4.588,2.021-8.146c0-3.562-0.675-6.28-2.021-8.15C123.993,43.025,122.044,42.09,119.48,42.09"/>
		<path fill="#2F3E4D" d="M164.284,33.405c6.435,0,11.46,1.738,15.078,5.21c3.619,3.472,5.424,8.282,5.424,14.426
			s-1.806,10.955-5.424,14.426c-3.619,3.472-8.644,5.21-15.078,5.21c-6.457,0-11.505-1.734-15.143-5.21
			c-3.641-3.472-5.458-8.282-5.458-14.426s1.817-10.955,5.458-14.426C152.779,35.142,157.826,33.405,164.284,33.405 M164.284,41.954
			c-2.646,0-4.674,0.954-6.062,2.857c-1.391,1.904-2.088,4.648-2.088,8.233c0,3.585,0.697,6.329,2.088,8.233
			c1.387,1.904,3.415,2.854,6.062,2.854c2.605,0,4.595-0.95,5.979-2.854c1.38-1.904,2.07-4.648,2.07-8.233s-0.69-6.329-2.07-8.233
			C168.879,42.904,166.888,41.954,164.284,41.954"/>
		<path fill="#2F3E4D" d="M216.536,44.491c-1.048-0.49-2.088-0.852-3.121-1.086c-1.037-0.234-2.077-0.351-3.125-0.351
			c-3.068,0-5.44,0.984-7.094,2.955c-1.659,1.972-2.488,4.791-2.488,8.467v17.231h-11.953V34.305h11.953v6.144
			c1.538-2.45,3.298-4.237,5.289-5.36c1.994-1.123,4.384-1.685,7.166-1.685c0.4,0,0.833,0.019,1.301,0.049
			c0.471,0.034,1.15,0.106,2.039,0.215L216.536,44.491z"/>
		<path fill="#2F3E4D" d="M238.405,23.686v10.619h12.319v8.549h-12.319v15.863c0,1.738,0.343,2.91,1.033,3.525
			c0.69,0.614,2.058,0.92,4.109,0.92h6.144v8.549h-10.253c-4.72,0-8.063-0.984-10.035-2.955c-1.971-1.972-2.955-5.315-2.955-10.035
			V42.855h-5.945v-8.549h5.945v-10.62H238.405z"/>
		<path fill="#2F3E4D" d="M254.769,58.785h12.055v10.186l-8.282,12.455h-7.113l3.34-12.455V58.785L254.769,58.785z M254.769,34.305
			h12.055v12.922h-12.055L254.769,34.305L254.769,34.305z"/>
	</g>
</g>
</svg>
