<?xml version="1.0" encoding="utf-8"?>
<!-- Generator: Adobe Illustrator 17.0.0, SVG Export Plug-In . SVG Version: 6.00 Build 0)  -->
<!DOCTYPE svg PUBLIC "-//W3C//DTD SVG 1.1//EN" "http://www.w3.org/Graphics/SVG/1.1/DTD/svg11.dtd">
<svg version="1.1" id="레이어_1" xmlns="http://www.w3.org/2000/svg" xmlns:xlink="http://www.w3.org/1999/xlink" x="0px"
	 y="0px" width="400px" height="200px" viewBox="0 0 400 200" enable-background="new 0 0 400 200" xml:space="preserve">
<g>
	<path fill="#6B6257" d="M382.302,73.883c2.364,0.025,4.738,0.03,7.107,0.005c0.049,3.321-0.035,6.643,0.069,9.964
		c1.105-0.015,2.211-0.025,3.321-0.035c0.054-3.302,0.005-6.608,0.035-9.91c2.384-0.015,4.768,0,7.151,0
		c-0.005,7.541-0.02,15.087,0.01,22.633c0.049,1.101-0.257,2.167-0.582,3.208c-2.033,1.115-4.388,0.76-6.603,0.77
		c0.02-3.445,0.03-6.89-0.005-10.335c-1.125-0.005-2.25-0.005-3.366,0.005c-0.074,2.448,0.069,4.896-0.054,7.339
		c-0.04,1.106-0.454,2.443-1.658,2.754c-1.787,0.439-3.652,0.197-5.468,0.281C382.316,91.67,382.252,82.776,382.302,73.883
		L382.302,73.883z"/>
	<path fill="#D22026" d="M98.713,75.635c3.682,0.074,7.363-0.044,11.045,0.064c-0.01,16.716,0.133,33.432-0.064,50.143
		c-4.18,0.193-8.37,0.049-12.551,0.084c-2.858,0.039-5.789-0.419-8.306-1.836c-2.107-1.328-3.514-3.489-4.481-5.735
		c-4.397-9.984-8.676-20.018-13.029-30.022c-0.651-1.708-2.043-3.188-3.919-3.46c-3.396-0.365-6.83,0.118-10.221-0.276
		c-0.217-2.966-0.059-5.947-0.079-8.918c4.462,0.035,8.933-0.163,13.385,0.114c4.096,0.276,8.109,2.556,9.895,6.342
		c3.943,9.056,7.867,18.122,11.79,27.194c1.12,2.478,1.89,5.227,3.889,7.191c0.819,0.069,1.639,0.133,2.458,0.202
		c0.079-12.817,0.015-25.634,0.03-38.446C98.57,77.392,98.644,76.513,98.713,75.635L98.713,75.635z"/>
	<path fill="#6B6257" d="M0.091,84.731c0.025-3.025-0.212-6.056-0.005-9.081c8.829-0.01,17.659,0.01,26.488,0.02
		c2.581,0.025,5.187-0.168,7.744,0.276C23.07,75.961,11.812,75.803,0.564,76.02c-0.158,1.925-0.513,3.84-0.449,5.774
		c-0.039,1.446,1.199,2.922,2.724,2.739c5.932,0.079,11.865-0.094,17.797,0c3.272,0.084,6.589-0.316,9.821,0.341
		C20.345,84.553,10.213,84.839,0.091,84.731L0.091,84.731z"/>
	<path fill="#D22026" d="M119.279,78.261c0.025-0.883,0.133-1.752,0.232-2.626c3.652,0.044,7.309,0.01,10.961,0.01
		c0.123,13.686,0.039,27.371,0.049,41.062c1.787,0.217,3.573-0.607,4.22-2.359c4.565-10.418,9.071-20.862,13.607-31.295
		c0.997-2.354,2.66-4.555,4.985-5.72c4.807-2.374,10.325-1.545,15.497-1.648c0.069,2.951,0.054,5.898,0.02,8.849
		c-2.482,0.424-5.024-0.025-7.497,0.429c-1.969,0.39-3.06,2.255-3.8,3.943c-4.383,10.187-8.785,20.368-13.241,30.525
		c-1.634,4.012-5.982,6.243-10.152,6.416c-4.851,0.178-9.718,0.059-14.574,0.059c-0.439-2.537-0.262-5.113-0.291-7.67
		C119.279,104.911,119.313,91.586,119.279,78.261L119.279,78.261z"/>
	<path fill="#6B6257" d="M340.47,83.655c-0.424-3.825-3.257-6.944-6.564-8.681c-3.618-2.043-7.931-2.231-11.973-1.836
		c-4.59,0.582-9.199,3.099-11.376,7.314c-1.806,3.499-1.15,8.02,1.495,10.927c2.359,2.966,6.026,4.536,9.678,5.182
		c4.861,0.785,10.142-0.114,14.13-3.114C338.945,91.28,340.983,87.465,340.47,83.655z M324.104,90.979
		c-3.085-0.321-6.603-2.374-6.835-5.764c-0.301-3.243,2.665-5.74,5.616-6.297c4.047-1.12,9.649,1.096,9.974,5.76
		C332.825,89.02,327.964,91.438,324.104,90.979z"/>
	<path fill="#6B6257" d="M374.904,83.689c1.525,0.035,3.055,0.035,4.585,0.064c-0.025-1.767-0.025-3.529-0.049-5.291
		c-2.848-0.005-5.695-0.015-8.543,0.005c-0.005-1.525-0.005-3.05-0.01-4.57c-2.67,0-5.335,0.02-8-0.015
		c-0.005,1.525-0.01,3.045-0.01,4.57c-2.892,0.035-5.784-0.02-8.671,0.035c0.049,1.722,0.035,3.445-0.01,5.167
		c1.569,0.069,3.149,0.109,4.728,0.109c-3.934,2.897-5.197,8.676-2.843,12.955c2.734,5.009,9.264,7.127,14.599,5.454
		c4.649-1.214,8.518-5.656,8.232-10.596C378.891,88.482,377.233,85.634,374.904,83.689z M372.49,92.119
		c0.01,3.978-4.723,6.732-8.183,4.768c-4.338-2.014-3.716-9.392,1.036-10.453C368.878,85.279,372.86,88.388,372.49,92.119z"/>
	<path fill="#D22026" d="M57.094,89.76c3.721-0.064,7.442-0.089,11.164-0.005c0.084,12.047,0.015,24.099,0.035,36.151
		c-3.711,0.039-7.423,0.03-11.129,0.01C56.985,113.869,57.113,101.812,57.094,89.76L57.094,89.76z"/>
	<path fill="#6B6257" d="M299.837,100.539c16.81-0.039,33.624-0.035,50.434-0.005c-0.015,1.979-0.015,3.958-0.01,5.942
		c-16.81-0.074-33.619-0.035-50.429-0.025C299.842,104.482,299.842,102.508,299.837,100.539L299.837,100.539z"/>
	<path fill="#D22026" d="M152.089,115.359c1.525-3.677,3.134-7.314,4.753-10.951c5.286,6.11,10.315,12.442,15.546,18.601
		c0.78,0.898,1.486,1.861,2.167,2.838c-4.693,0.138-9.392,0.123-14.08,0C157.522,122.481,154.852,118.873,152.089,115.359
		L152.089,115.359z"/>
	<path fill="#D22026" d="M48.511,108.558c-0.913-3.869-4.304-6.845-8.084-7.813c3.104-0.76,5.695-3.341,6.835-6.302
		c1.693-4.496,0.814-10.034-2.64-13.469c-2.69-2.853-6.495-4.412-10.305-5.029C23.07,75.961,11.812,75.803,0.564,76.02
		c-0.158,1.925-0.513,3.84-0.449,5.774c-0.039,1.446,1.199,2.922,2.724,2.739c5.932,0.079,11.865-0.094,17.797,0
		c3.272,0.084,6.589-0.316,9.821,0.341c2.542,0.548,5.177,2.418,5.301,5.227c0.222,2.196-1.352,4.081-3.164,5.083
		c-3.948,1.624-8.311,0.75-12.447,0.869c-2.744,0.178-5.483-0.158-8.227-0.094c0.015-2.078,0-4.151-0.044-6.223
		c-3.929-0.035-7.852-0.039-11.776,0c-0.005,12.052-0.114,24.109,0.054,36.161c9.629,0.074,19.258,0.015,28.886,0.035
		c3.42,0.049,6.895-0.222,10.132-1.407c3.771-1.209,7.215-3.894,8.676-7.66C48.773,114.224,49.321,111.302,48.511,108.558z
		 M29.525,117.092c-5.868,0.054-11.731-0.01-17.594,0.025c-0.015-3.884-0.005-7.763-0.02-11.642
		c6.061,0.039,12.126-0.074,18.187,0.044c3.099,0.143,6.485,2.458,6.49,5.814C36.469,114.881,32.762,117.047,29.525,117.092z"/>
	<path fill="#6B6257" d="M394.763,106.283c-4.19-3.302-9.95-4.22-15.087-3.065c-4.412,1.046-8.8,3.845-10.315,8.306
		c-1.387,3.697-0.262,8.074,2.566,10.784c5.74,5.651,15.556,6.243,22.125,1.703c2.828-1.979,5.064-5.133,5.157-8.676
		C399.407,111.801,397.517,108.396,394.763,106.283z M383.906,121.139c-3.257,0.02-6.756-2.127-7.324-5.503
		c-0.424-2.946,1.836-5.646,4.536-6.529c4.017-1.564,9.698,0.568,10.295,5.202C391.851,118.385,387.627,121.272,383.906,121.139z"/>
	<path fill="#6B6257" d="M307.838,110.483c2.744-0.049,5.483-0.039,8.227-0.03c0.079,2.961-0.089,5.937,0.074,8.898
		c0.286,0.948,1.337,0.671,2.097,0.745c8.864-0.03,17.733,0.015,26.601-0.03c0,1.979,0,3.958-0.039,5.942
		c-10.004-0.049-20.008-0.015-30.012-0.02c-1.629-0.03-3.326-0.178-4.772-0.982c-1.411-0.898-2.186-2.606-2.162-4.259
		C307.828,117.329,307.842,113.908,307.838,110.483L307.838,110.483z"/>
	<g>
		<path fill="#6B6257" d="M281.59,75.302c-0.086-0.731,0.33-1.699,1.212-1.581c2.097,0.075,4.288-0.333,6.31,0.391
			c-0.047,2.843-0.043,5.686,0,8.529c1.965,0.09,3.929-0.011,5.894,0.054c0.635-0.014,1.284,0.545,1.233,1.212
			c0.036,1.441,0.054,2.886-0.022,4.327c0.014,0.656-0.531,1.255-1.197,1.208c-1.975,0.061-3.951-0.029-5.923,0.054
			c-0.072,2.926,0.075,5.858-0.068,8.78c-0.1,1.215-1.19,1.965-2.269,2.273c-1.585,0.151-3.176,0.025-4.765,0.061
			c-0.176-0.771-0.416-1.538-0.409-2.338C281.597,90.618,281.59,82.96,281.59,75.302L281.59,75.302z"/>
		<path fill="#6B6257" d="M228.87,74.047c2.399-0.151,4.804-0.082,7.206-0.057c-0.014,8.339,0.004,16.675-0.007,25.014
			c0.082,0.853-0.445,1.818-1.359,1.9c-1.846,0.143-3.696,0.104-5.543,0.054c0.065-1.803,0.068-3.614-0.176-5.406
			c-2.632-0.068-5.267,0.029-7.895-0.136c-0.133-1.631-0.154-3.27-0.108-4.905c2.692,0.029,5.392,0.158,8.074-0.154
			c0.197-1.678,0.197-3.374,0.007-5.052c-2.779-0.319-5.579-0.108-8.368-0.229c-0.036-1.735-0.032-3.47,0-5.209
			c2.714-0.204,5.467,0.172,8.149-0.43C228.866,77.639,228.852,75.843,228.87,74.047L228.87,74.047z"/>
		<path fill="#6B6257" d="M193.678,75.667c0.785-0.043,1.57-0.061,2.359-0.047c4.897,0.341,9.809,0.122,14.714,0.179
			c2.786,0.086,5.557-0.409,8.343-0.158c0.366,3.829-0.663,7.679-2.381,11.082c-3.241,6.02-9.243,9.995-15.499,12.362
			c-2.517,0.792-5.048,1.624-7.683,1.922c-0.434-1.359-0.803-2.743-1.022-4.159c4.327-1.538,8.87-3.112,12.168-6.461
			c0.133-0.111,0.394-0.341,0.527-0.455c2.083-1.405,3.574-3.467,4.94-5.539c0.696-1.043,0.853-2.309,0.932-3.528
			c-5.804-0.208-11.62,0.108-17.424-0.161C193.624,79.027,193.634,77.345,193.678,75.667L193.678,75.667z"/>
		<path fill="#6B6257" d="M247.821,75.793c2.581-0.043,5.181-0.125,7.755,0.183c0.212,2.649-0.258,5.292-0.111,7.941
			c0.126,2.617-0.276,5.277,0.229,7.859c0.126,0.419,0.272,0.832,0.427,1.248c3.395,0.229,6.798,0.075,10.2,0.111
			c2.585-0.011,5.292,0.315,7.715-0.81c0.828-0.33,1.728-0.409,2.614-0.473c0.147,1.305,0.602,2.822-0.172,4.008
			c-1.563,1.703-4.069,1.757-6.213,1.864c-5.736,0.061-11.473,0.018-17.209,0.032c-1.714,0.014-3.764-0.301-4.654-1.972
			c-1.344-2.675-0.706-5.769-0.843-8.64C247.674,83.361,247.276,79.55,247.821,75.793L247.821,75.793z"/>
		<path fill="#6B6257" d="M234.914,110.562c-1.545-4.03-5.331-6.79-9.325-8.113c-2.517-0.918-5.238-0.864-7.873-0.746
			c-4.553,0.423-8.931,2.882-11.516,6.686c-0.835,1.262-1.764,2.606-1.775,4.18c-0.036,1.581-0.183,3.216,0.258,4.754
			c0.746,1.922,1.839,3.747,3.345,5.166c3.453,3.298,8.432,4.664,13.125,4.349c2.14,0.065,4.159-0.731,6.156-1.387
			c3.159-1.273,5.736-3.818,7.35-6.783C235.682,116.119,235.588,113.19,234.914,110.562z M226.242,117.342
			c-1.097,1.301-2.535,2.703-4.36,2.664c-1.767,0.011-3.592,0.197-5.324-0.219c-2.018-1.015-4.005-2.965-3.908-5.389
			c-0.258-2.438,1.71-4.438,3.682-5.539c1.033-0.559,2.248-0.434,3.381-0.477c1.43,0.029,2.979-0.111,4.252,0.685
			c1.334,0.814,2.567,1.997,3.04,3.528C227.131,114.183,227.389,116.04,226.242,117.342z"/>
		<path fill="#6B6257" d="M289.861,106.116c-0.068-0.656,0.075-1.685-0.756-1.889c-1.954-0.387-3.962-0.104-5.933-0.151
			c-8.49-0.065-16.979-0.004-25.469-0.05c-0.67,0.011-1.341,0.018-1.993,0.154c-0.875,0.158-0.868,1.248-0.961,1.936
			c-0.108,2.994,0.018,5.994-0.025,8.992c0.036,2.026-0.161,4.069,0.169,6.077c0.445,2.639,2.994,4.715,5.668,4.618
			c7.905,0.004,15.811,0.007,23.712-0.004c2.266,0.151,4.026-1.624,5.095-3.427c0.549-0.882,0.48-1.958,0.502-2.954
			C289.811,114.986,289.843,110.551,289.861,106.116z M280.195,118.564c-0.703,0.434-1.603,0.212-2.384,0.255
			c-4.507-0.233-9.027,0.197-13.52-0.226c-0.255-2.434-0.247-4.887-0.007-7.321c2.581-0.28,5.181-0.111,7.773-0.136
			c2.757,0.025,5.514-0.111,8.267,0.082C280.46,113.656,280.647,116.158,280.195,118.564z"/>
	</g>
</g>
</svg>
