<?xml version="1.0" encoding="utf-8"?>
<!-- Generator: Adobe Illustrator 17.0.0, SVG Export Plug-In . SVG Version: 6.00 Build 0)  -->
<!DOCTYPE svg PUBLIC "-//W3C//DTD SVG 1.1//EN" "http://www.w3.org/Graphics/SVG/1.1/DTD/svg11.dtd">
<svg version="1.1" id="레이어_1" xmlns="http://www.w3.org/2000/svg" xmlns:xlink="http://www.w3.org/1999/xlink" x="0px"
	 y="0px" width="400px" height="200px" viewBox="0 0 400 200" enable-background="new 0 0 400 200" xml:space="preserve">
<g>
	<path fill="#1754A3" d="M23.768,58.907c8.114-5.054,17.981-6.772,27.437-6.348c0.097,0.447,0.278,1.342,0.363,1.802
		c-3.869,0.423-7.787,0.859-11.475,2.201c1.221,0.605,2.443,1.197,3.664,1.765c-7.763-0.81-16.711,1.221-21.427,7.944
		c-4.148,5.671-4.027,13.386-1.342,19.637c-0.024,9.456,4.486,18.646,11.415,24.97c5.683,4.535,12.685,7.509,19.976,8.029
		c1.705,1.487,3.458,2.926,5.115,4.462c0.411,0.447,1.245,1.318,1.669,1.765c-6.203,2.443-13.108,1.197-18.827-1.911
		c-4.474-1.524-9.166,0.665-13.724,0.774c-0.762-4.208,0.665-8.791-1.088-12.757c-0.544,0.073-1.632,0.218-2.164,0.29
		c-10.363-10.23-12.08-26.929-6.989-40.133C18.085,66.791,22.088,63.527,23.768,58.907L23.768,58.907z"/>
	<path fill="#286CAF" d="M51.205,52.559c10.98,0.967,21.633,5.611,29.529,13.338c-1.016,5.006,2.938,9.021,3.688,13.773
		c2.31,8.489-0.254,17.473-4.655,24.837c-2.697,4.583-7.715,6.965-11.367,10.665c-1.161-1.27-2.418-2.443-3.676-3.616
		c-1.149-1.052-2.31-2.104-3.47-3.156c4.462-2.926,9.359-5.78,12.068-10.556c1.971-3.204,2.358-7.001,2.854-10.641
		c3.555-2.237,4.571-7.038,1.354-10.036c-0.822-1.717-1.475-3.507-2.092-5.296c0.967-0.786,1.947-1.572,2.914-2.346
		c-2.201-3.071-5.792-4.522-9.383-5.139c-5.744-0.641-11.705-0.145-17.11-2.588c-0.532,0.206-1.608,0.617-2.152,0.822
		c-3.833,1.548-7.824,2.914-11.197,5.381c-3.229,2.394-5.2,5.986-7.243,9.347c-0.327-0.738-0.967-2.237-1.282-2.987
		c-1.439-5.986,2.878-12.406,9.057-12.975c2.08-0.677,5.599,0.411,6.022-2.515l-1.306-0.544c-1.221-0.568-2.443-1.161-3.664-1.765
		c3.688-1.342,7.606-1.777,11.475-2.201C51.483,53.901,51.302,53.007,51.205,52.559L51.205,52.559z"/>
	<path fill="#D9A95C" d="M22.329,66.271c4.716-6.723,13.664-8.755,21.427-7.944l1.306,0.544c-0.423,2.926-3.942,1.838-6.022,2.515
		c-6.179,0.568-10.496,6.989-9.057,12.975c-0.326-0.568-0.979-1.717-1.306-2.297c-4.135,6.36-1.911,14.111-3.313,21.137
		c-1.608-2.334-3.047-4.788-4.377-7.291C18.303,79.657,18.182,71.943,22.329,66.271L22.329,66.271z"/>
	<path fill="#0E449C" d="M0.02,100.891c-0.508-16.917,8.888-33.797,23.749-41.984c-1.681,4.619-5.683,7.884-7.4,12.491
		c-5.091,13.204-3.374,29.904,6.989,40.133c-1.753,2.177-3.41,4.438-5.054,6.687c-4.002-3.047-4.655-8.827-8.658-11.62
		c-1.923,14.039,7.981,29.226,21.995,32.467c4.438,1.004,9.456,2.056,13.531-0.689c-4.22-2.031-8.936-3.108-12.539-6.252
		c3.156-2.418,5.744-5.454,7.703-8.9c5.72,3.108,12.624,4.353,18.827,1.911c2.213,2.866,4.474,6.941,2.334,10.46
		c-2.213,3.797-6.989,4.22-10.726,5.635c0.883,1.197,2.056,1.657,3.555,1.366c5.986-0.544,12.431-2.467,16.373-7.304
		c3.241-4.002,3.628-9.722,1.463-14.329c5.478-4.075,11.04-8.344,14.909-14.063c3.192-5.453,3.882-11.935,6.747-17.558
		c2.805,12.273,0.641,25.696-6.252,36.276c-6.747,10.75-18.066,18.525-30.544,20.943c-12.697,2.564-26.482-0.145-37.014-7.775
		C7.795,130.311,0.141,115.752,0.02,100.891L0.02,100.891z"/>
	<path fill="#E9CD99" d="M49.706,62.62c0.544-0.206,1.62-0.617,2.152-0.822c5.405,2.443,11.367,1.947,17.11,2.588
		c-0.617,0.169-1.85,0.508-2.455,0.689c1.838,1.971,3.761,3.906,5.986,5.454c-0.907,0-2.721-0.024-3.628-0.024
		c-0.29,2.745,1.923,4.414,4.111,5.466c0.955,3.845,1.548,7.775,1.886,11.717c-2.031,0.725-4.172,0.459-6.046-0.532
		c-0.181-0.29-0.544-0.859-0.726-1.149c1.149-4.317-0.387-8.972-3.664-11.935c-3.216-2.648-7.449-3.386-11.342-4.486
		C51.979,67.251,50.855,64.929,49.706,62.62L49.706,62.62z"/>
	<path fill="#3B8EC0" d="M38.509,68.001c3.374-2.467,7.364-3.833,11.197-5.381c1.149,2.31,2.273,4.631,3.386,6.965
		c-0.242,1.173-0.496,2.358-0.774,3.531c-3.168,1.632-6.784,2.878-9.105,5.732c-2.007,3.023-2.152,6.784-2.83,10.23
		c-1.112-1.088-2.225-2.177-3.325-3.277c-2.31-2.527-4.389-5.308-5.792-8.452C33.309,73.986,35.28,70.395,38.509,68.001
		L38.509,68.001z"/>
	<path fill="#E1BC76" d="M66.514,65.074c0.605-0.181,1.838-0.52,2.455-0.689c3.591,0.617,7.183,2.068,9.383,5.139
		c-0.967,0.774-1.947,1.56-2.914,2.346c-0.726-0.339-2.201-1.004-2.938-1.342C70.274,68.98,68.352,67.045,66.514,65.074
		L66.514,65.074z"/>
	<path fill="#1957A4" d="M84.422,79.669c-0.75-4.752-4.704-8.767-3.688-13.773c6.385,6.433,11.185,14.559,13.084,23.446
		c-2.866,5.623-3.555,12.104-6.747,17.558c-3.869,5.72-9.432,9.988-14.909,14.063c-0.326-0.593-0.979-1.778-1.306-2.382
		c-0.774-1.161-1.596-2.31-2.455-3.41c3.652-3.7,8.67-6.082,11.367-10.665C84.168,97.142,86.732,88.158,84.422,79.669L84.422,79.669
		z"/>
	<path fill="#EFDEB9" d="M53.092,69.585c3.894,1.1,8.126,1.838,11.342,4.486c3.277,2.963,4.813,7.618,3.664,11.935
		c-1.971-2.624-2.128-6.784-5.284-8.343c-0.979-0.036-2.926-0.097-3.906-0.133c-2.697-0.06-5.393-0.339-8.077-0.58
		c0.52-1.27,1.016-2.551,1.487-3.833C52.596,71.943,52.85,70.758,53.092,69.585L53.092,69.585z"/>
	<path fill="#327DB7" d="M68.872,70.504c0.907,0,2.721,0.024,3.628,0.024c0.738,0.339,2.213,1.004,2.938,1.342
		c0.617,1.79,1.27,3.579,2.092,5.296c-1.524-0.375-3.047-0.762-4.547-1.197C70.794,74.917,68.581,73.249,68.872,70.504
		L68.872,70.504z"/>
	<path fill="#E4C285" d="M25.365,93.2c1.403-7.026-0.822-14.777,3.313-21.137c0.327,0.58,0.979,1.729,1.306,2.297
		c0.314,0.75,0.955,2.249,1.282,2.987c1.403,3.144,3.483,5.925,5.792,8.452c0.193,4.668,1.983,9.311,5.901,12.092
		c3.12,2.249,6.808,5.26,10.895,3.845l0.133,0.121c2.431,2.164,4.861,4.341,7.267,6.542c1.161,1.052,2.322,2.104,3.47,3.156
		c-5.574,3.337-12.116,1.572-18.211,2.201C39.174,107.239,30.999,101.387,25.365,93.2L25.365,93.2z"/>
	<path fill="#585858" d="M141.533,71.725c5.127-0.302,10.278-0.085,15.417-0.169c0,20.665,0,41.319,0,61.972
		c-3.531,0.012-7.05,0.024-10.581,0.012c-0.121-13.132,0.242-26.264-0.181-39.384c-3.265,0.109-6.53,0.109-9.782,0.06
		c0-1.898,0-3.797,0-5.707c3.313-0.012,6.639-0.012,9.952,0c0.012-4.365,0.073-8.718-0.097-13.071
		C144.241,74.228,140.469,75.292,141.533,71.725L141.533,71.725z"/>
	<path fill="#585858" d="M160.59,71.592c3.628-0.024,7.255-0.024,10.883,0c-0.024,20.641-0.012,41.294-0.012,61.935
		c-3.628,0.024-7.255,0.024-10.871,0C160.59,112.886,160.566,92.233,160.59,71.592L160.59,71.592z"/>
	<path fill="#585858" d="M373.265,71.87c4.571,0,9.154-0.012,13.724,0c0.012,3.628,0,7.255,0.012,10.883
		c0.907,0,2.721,0,3.615,0.012c0.012-3.628,0.012-7.255,0.012-10.883c3.12-0.012,6.24-0.012,9.371-0.012c0,10.472,0,20.955,0,31.427
		c-3.132,0.012-6.252,0.024-9.371,0.012c-0.012-5.042,0-10.073-0.012-15.115c-0.907,0-2.709-0.012-3.603-0.012
		c-0.036,5.042,0,10.085-0.012,15.127c-3.12,0.012-6.252,0-9.359-0.012c-0.109-9.311,0.181-18.634-0.169-27.945
		C375.369,75.014,372.067,75.038,373.265,71.87L373.265,71.87z"/>
	<path fill="#43A3C9" d="M43.212,78.847c2.322-2.854,5.937-4.099,9.105-5.732c-0.472,1.282-0.967,2.564-1.487,3.833
		c-1.765,4.619-3.422,9.915-1.572,14.764c1.898,4.643,9.093,5.683,11.959,1.451c1.572-5.381-3.809-10.109-2.31-15.635
		c0.979,0.036,2.926,0.097,3.906,0.133c3.156,1.56,3.313,5.72,5.284,8.343c0.181,0.29,0.544,0.859,0.726,1.149
		c-2.406,3.64-3.301,8.718-7.558,10.762c-2.394,1.366-4.861,2.612-7.279,3.942l-0.133-0.121c-4.426-4.293-9.045-8.368-13.471-12.66
		C41.06,85.631,41.205,81.87,43.212,78.847L43.212,78.847z"/>
	<path fill="#585858" d="M108.292,73.37c10.677,0.024,21.355,0,32.032,0.012c0,2.007,0,4.015,0,6.034
		c-3.216,0-6.433,0.012-9.649,0.048c0.544,8.658-0.242,17.606,2.781,25.925c2.056,6.167,6.518,11.064,10.822,15.768
		c-0.012,1.221-0.036,3.664-0.048,4.885c-8.331-3.821-14.692-10.943-18.235-19.323c-4.123,7.981-9.347,16.397-18.247,19.589
		c-0.036-1.657-0.073-3.301-0.097-4.958c4.341-4.184,8.174-9.081,10.097-14.861c3.059-8.67,2.636-18.005,2.636-27.05
		c-2.95-0.012-5.913-0.024-8.863,0C110.372,77.457,109.307,75.425,108.292,73.37L108.292,73.37z"/>
	<path fill="#585858" d="M185.935,73.37c20.266,0.036,40.533,0,60.799,0.012c0,2.007,0,4.015,0,6.022
		c-7.316,0.048-14.631-0.012-21.947,0.036c1.016,4.595,3.422,9.19,7.691,11.536c4.813,3.059,10.544,3.869,16.094,4.498
		c-0.048,1.258-0.133,3.785-0.181,5.042c-11.04,0.036-23.12-2.14-30.835-10.762c-7.848,8.549-19.819,10.895-30.944,10.919
		c-0.012-1.729-0.012-3.458-0.012-5.187c9.674-0.774,21.475-4.982,23.41-15.841c-6.82-0.46-13.676-0.181-20.508-0.157
		C188.196,77.517,187.035,75.461,185.935,73.37L185.935,73.37z"/>
	<path fill="#585858" d="M316.408,74.555c-8.9-5.828-20.266-6.481-30.46-4.474c-6.203,1.548-13.144,4.426-15.828,10.689
		c-1.923,5.054,1.342,10.254,5.599,12.866c8.452,5.405,19.069,6.022,28.743,4.474c6.542-1.415,13.918-4.172,17.001-10.605
		C323.566,82.584,320.592,77.263,316.408,74.555z M308.5,88.787c-5.973,5.49-15.623,5.901-22.588,2.068
		c-3.289-1.608-5.816-5.454-4.438-9.154c1.802-3.628,5.623-5.683,9.456-6.53c5.913-1.342,13.011-0.447,17.437,4.014
		C311.245,81.592,311.281,86.284,308.5,88.787z"/>
	<path fill="#F9F2E4" d="M50.83,76.949c2.684,0.242,5.381,0.52,8.077,0.58c-1.499,5.526,3.882,10.254,2.31,15.635
		c-2.866,4.232-10.061,3.192-11.959-1.451C47.408,86.864,49.065,81.568,50.83,76.949L50.83,76.949z"/>
	<path fill="#E4C285" d="M72.983,75.969c1.499,0.435,3.023,0.822,4.547,1.197c3.217,2.999,2.201,7.799-1.354,10.036l-1.306,0.484
		C74.531,83.744,73.938,79.815,72.983,75.969L72.983,75.969z"/>
	<path fill="#585858" d="M374.002,75.824c-4.232-0.048-8.452,0-12.685-0.036c-0.012-2.007-0.024-4.027-0.036-6.034
		c-4.728,0.048-9.456-0.097-14.172,0.06c-3.083,4.015,5.115,1.778,3.797,5.961c-5.393,0.048-10.786,0.024-16.179,0.012
		c1.052,1.814,2.116,3.64,3.18,5.454c2.056,0,4.099,0,6.167-0.024c-3.543,3.41-5.865,8.706-3.736,13.519
		c5.139,12.201,25.611,12.201,30.75,0.012c2.116-4.788-0.205-10.024-3.628-13.495c2.177-0.012,4.353-0.012,6.53-0.024
		C373.99,79.428,373.99,77.626,374.002,75.824z M353.651,97.94c-6.07-2.273-6.518-11.427-1.246-14.837
		c4.595-3.168,10.206,2.104,9.855,6.941C362.708,94.531,358.331,99.513,353.651,97.94z"/>
	<path fill="#2467AD" d="M20.987,85.909c1.33,2.503,2.769,4.958,4.377,7.291c5.635,8.186,13.809,14.039,21.149,20.556
		c1.971,1.705,3.906,3.434,5.865,5.151c-7.292-0.52-14.293-3.495-19.976-8.029C25.473,104.555,20.963,95.365,20.987,85.909
		L20.987,85.909z"/>
	<path fill="#EDD8B2" d="M37.057,85.8c1.1,1.1,2.213,2.189,3.325,3.277c4.426,4.293,9.045,8.368,13.471,12.66
		c-4.087,1.415-7.775-1.596-10.895-3.845C39.041,95.111,37.251,90.468,37.057,85.8L37.057,85.8z"/>
	<path fill="#3B8FC0" d="M61.266,97.916c4.256-2.044,5.151-7.122,7.558-10.762c1.874,0.992,4.015,1.258,6.046,0.532l1.306-0.484
		c-0.496,3.64-0.883,7.437-2.854,10.641c-2.709,4.776-7.606,7.63-12.068,10.556c-2.406-2.201-4.837-4.377-7.267-6.542
		C56.405,100.528,58.872,99.283,61.266,97.916L61.266,97.916z"/>
	<path fill="#585858" d="M260.204,101.532c22.116-0.06,44.233-0.036,66.337-0.024c0,2.007,0,4.015,0,6.022
		c-15.115,0.036-30.23-0.036-45.333,0.036c0.097,5.417-0.254,10.847,0.157,16.252c0.544,2.455,3.337,2.975,5.454,3.071
		c11.729,0.024,23.459-0.024,35.176,0.012c0,1.814,0,3.616,0,5.429c-13.446-0.024-26.893,0.048-40.339-0.024
		c-4.015-0.06-7.884-2.648-9.287-6.433c-2.261-5.562-0.883-11.729-1.765-17.485c-1.753-1.741-4.716-0.508-6.941-0.834
		C262.465,105.559,261.316,103.551,260.204,101.532L260.204,101.532z"/>
	<path fill="#585858" d="M183.093,105.994c22.636,0.181,45.285-0.169,67.909,0.169c0,1.294,0.012,3.882,0.012,5.163
		c-9.287,0.339-18.585,0.036-27.872,0.145c0.012,7.558,0.024,15.103,0,22.648c-3.724,0.024-7.449,0.024-11.173,0.024
		c0-7.557,0.012-15.103-0.012-22.66c-8.525-0.036-17.05-0.012-25.575,0C185.27,109.658,184.169,107.82,183.093,105.994
		L183.093,105.994z"/>
	<path fill="#CB8C2E" d="M9.645,106.598c4.002,2.793,4.655,8.573,8.658,11.62c1.645-2.249,3.301-4.51,5.054-6.687
		c0.532-0.073,1.62-0.218,2.164-0.29c1.753,3.966,0.326,8.549,1.088,12.757c4.559-0.109,9.25-2.297,13.724-0.774
		c-1.959,3.446-4.547,6.481-7.703,8.9c3.603,3.144,8.319,4.22,12.539,6.252c-4.075,2.745-9.093,1.693-13.531,0.689
		C17.626,135.825,7.722,120.637,9.645,106.598L9.645,106.598z"/>
	<path fill="#585858" d="M392.527,109.948c-9.033-5.454-20.363-5.913-30.424-3.543c-6.058,1.669-12.854,4.97-14.631,11.548
		c-1.149,5.816,3.724,10.484,8.537,12.745c9.831,4.68,21.621,4.788,31.802,1.112c5.236-1.935,10.738-5.925,11.221-11.947
		C399.008,115.619,396.034,112.028,392.527,109.948z M386.929,122.632c-4.135,6.058-12.624,7.34-19.299,5.562
		c-4.232-1.161-9.214-4.099-9.033-9.105c0.883-3.99,4.704-6.53,8.392-7.666c5.599-1.693,11.995-1.016,16.929,2.201
		C386.82,115.438,388.754,119.416,386.929,122.632z"/>
	<path fill="#D9A85A" d="M46.513,113.757c6.094-0.629,12.636,1.137,18.211-2.201c1.258,1.173,2.515,2.346,3.676,3.616
		c0.859,1.1,1.681,2.249,2.455,3.41c-4.402,1.753-8.876,3.301-13.362,4.788c-1.657-1.536-3.41-2.975-5.115-4.462
		C50.419,117.191,48.485,115.462,46.513,113.757L46.513,113.757z"/>
	<path fill="#CC8D2F" d="M57.493,123.37c4.486-1.487,8.96-3.035,13.362-4.788c0.326,0.605,0.979,1.79,1.306,2.382
		c2.165,4.607,1.778,10.327-1.463,14.329c-3.942,4.837-10.387,6.759-16.373,7.304c-1.499,0.29-2.672-0.169-3.555-1.366
		c3.736-1.415,8.513-1.838,10.726-5.635c2.14-3.519-0.121-7.594-2.334-10.46C58.739,124.688,57.904,123.817,57.493,123.37
		L57.493,123.37z"/>
</g>
</svg>
