<?xml version="1.0" encoding="utf-8"?>
<!-- Generator: Adobe Illustrator 17.0.0, SVG Export Plug-In . SVG Version: 6.00 Build 0)  -->
<!DOCTYPE svg PUBLIC "-//W3C//DTD SVG 1.1//EN" "http://www.w3.org/Graphics/SVG/1.1/DTD/svg11.dtd">
<svg version="1.1" id="레이어_1" xmlns="http://www.w3.org/2000/svg" xmlns:xlink="http://www.w3.org/1999/xlink" x="0px"
	 y="0px" width="400px" height="200px" viewBox="0 0 400 200" enable-background="new 0 0 400 200" xml:space="preserve">
<g>
	<path fill="#E86253" d="M226.881,68.884c7.503-1.403,15.839,0.189,21.519,5.53c10.706,9.823,12.769,27.198,5.695,39.686
		c-3.962,7.289-10.681,13.19-18.613,15.757c-11.886,4.226-26.034,0.545-34.544-8.7c-8.213-8.823-10.895-23.078-4.887-33.809
		c3.665-6.199,9.962-10.202,16.253-13.364C216.917,71.674,221.763,69.735,226.881,68.884L226.881,68.884z"/>
	<path fill="#E86253" d="M339.946,77.749c2.633-0.421,5.316-0.569,7.94,0c3.046,8.815,6.958,17.317,10.062,26.108
		c3.508-8.626,6.141-17.573,9.369-26.314c2.559-0.091,5.125-0.091,7.684,0.058c-2.616,7.998-6.018,15.724-8.972,23.607
		c-2.782,6.81-4.978,13.916-8.667,20.313c-3.293,5.778-9.74,9.979-16.549,9.302c0-1.956,0.008-3.921,0.042-5.877
		c2.715-0.635,5.654-1.09,7.858-2.955c2.41-2.014,4.259-4.705,5.39-7.635c0.784-2.212-0.553-4.35-1.362-6.339
		C348.431,97.948,344.122,87.877,339.946,77.749L339.946,77.749z"/>
	<path fill="#2A282B" d="M34.923,78.872c8.262-2.526,17.755-0.866,24.448,4.671c6.249,4.928,9.195,12.58,12.233,19.661
		c0.471,0.652,0.372,2.245,1.502,2.006c3.318-8.865,6.339-17.846,9.699-26.702c2.278-0.058,4.556-0.058,6.835,0.033
		c-2.443,8.312-6.165,16.211-9.129,24.366c-2.666,6.57-4.804,13.438-8.535,19.521c-3.211,5.316-9.401,8.873-15.667,8.436
		c-0.008-1.94-0.008-3.888,0-5.827c6.009-0.372,10.986-4.721,12.926-10.285c1.139-2.27-0.735-4.44-1.519-6.488
		c-3.747-6.999-5.86-15.444-12.563-20.355c-5.093-4.177-12.439-5.324-18.596-3.087c-2.509,0.727-4.16,4.226-2.072,6.215
		c3.772,3.153,9.022,2.946,13.446,4.656c4.408,1.23,9.336,4.589,9.145,9.691c0.38,3.301-0.916,6.612-3.45,8.749
		c-3.417,3.244-8.403,3.731-12.885,3.508c-5.745-0.05-11.589-2.022-15.741-6.083c1.255-1.568,2.509-3.145,3.715-4.746
		c3.07,1.585,5.943,3.755,9.451,4.259c3.616,0.611,7.891,0.9,10.92-1.544c2.113-1.536,1.882-5.076-0.446-6.298
		c-5.835-3.624-13.635-2.707-18.894-7.487c-3.12-2.443-3.45-6.909-2.36-10.45C28.731,82.141,31.769,79.986,34.923,78.872
		L34.923,78.872z"/>
	<path fill="#2A282B" d="M94.426,85.607c3.169-4.787,8.939-7.528,14.643-7.189c0.091,2.137,0.099,4.276-0.099,6.413
		c-5.085-0.157-10.111,3.624-10.846,8.741c-0.677,7.916,0.446,15.923-0.603,23.805c-2.038-0.05-4.078-0.05-6.116-0.099
		c-0.223-6.422-0.058-12.843-0.116-19.265C91.24,93.721,91.793,89.157,94.426,85.607L94.426,85.607z"/>
	<path fill="#2A282B" d="M114.591,78.509c2.179-0.058,4.366-0.05,6.545,0c0.124,8.444-0.074,16.888,0.091,25.324
		c-0.107,3.385,2.261,6.636,5.596,7.371c3.343,0.718,7.552,0.528,9.863-2.353c1.61-1.807,1.981-4.301,1.956-6.636
		c0.025-7.899-0.05-15.807,0.033-23.706c2.171-0.058,4.333-0.05,6.504,0c0.058,8.428,0.082,16.863,0,25.291
		c0.025,6.182-4.44,12.134-10.565,13.413c-4.598,0.801-9.748,0.826-13.793-1.816c-4.325-2.501-6.207-7.611-6.257-12.398
		C114.509,94.836,114.492,86.672,114.591,78.509L114.591,78.509z"/>
	<path fill="#2A282B" d="M183.134,94.043c-0.834-5.993-3.921-12.141-9.558-14.898c-4.779-2.047-10.508-1.874-15.138,0.487
		c-5.217,2.963-7.503,9.277-7.388,15.039c0.025,12.059-0.05,24.127,0.042,36.186c2.162,0.058,4.325,0.066,6.488,0.025
		c0.099-5.291,0.066-10.59,0.033-15.881c6.364,3.995,15.873,3.847,21.006-2.105C182.985,107.737,183.827,100.547,183.134,94.043z
		 M176.662,98.855c-0.338,4.301-1.337,9.393-5.373,11.746c-4.581,2.088-10.582,0.817-13.694-3.244
		c0.141-4.763-0.107-9.525,0.124-14.288c0.231-3.227,1.643-6.768,4.656-8.353c2.782-1.048,6.018-1.114,8.749,0.132
		C175.804,87.704,176.91,93.787,176.662,98.855z"/>
	<path fill="#E86253" d="M300.862,92.169c-1.23-6.331-5.39-12.679-11.977-14.238c-5.233-1.106-11.424-0.397-15.328,3.591
		c-3.301,3.508-4.73,8.46-4.573,13.215c0.025,11.969-0.074,23.945,0.05,35.914c2.171,0.033,4.358,0.017,6.537-0.033
		c0.082-5.266-0.008-10.54,0.066-15.807c6.323,4.011,15.732,3.822,20.899-2.014C301.267,107.159,302.092,99.194,300.862,92.169z
		 M294.556,99.648c-0.462,3.624-1.321,7.651-4.35,10.029c-1.799,1.683-4.474,1.362-6.743,1.387
		c-3.013-0.008-6.281-1.477-7.734-4.193c-0.305-4.341-0.091-8.708-0.082-13.05c0.149-3.524,1.353-7.734,4.837-9.302
		c3.434-1.477,7.998-1.139,10.615,1.742C294.292,89.85,294.953,95.017,294.556,99.648z"/>
	<path fill="#E86253" d="M337.659,88.505c-0.826-5.539-5.596-10.136-11.151-10.788c-5.877-0.817-12.505,0.313-16.879,4.589
		c-0.834,1.601,1.279,2.955,2.063,4.201c0.751,1.164,2.08,0.239,2.906-0.281c3.814-2.592,9.104-3.442,13.305-1.296
		c2.765,1.585,3.301,4.961,3.326,7.867c-4.894,0.166-9.847-0.404-14.684,0.512c-3.888,0.628-7.52,3.409-8.683,7.231
		c-0.512,3.508-0.743,7.478,1.313,10.573c2.245,3.616,6.207,6.273,10.524,6.43c4.771,0.363,10.185,0.181,13.859-3.335
		c3.326-2.691,4.524-7.107,4.44-11.234C337.948,98.154,338.328,93.292,337.659,88.505z M329.273,109.198
		c-2.542,2.576-6.579,2.724-9.897,1.891c-3.318-0.628-5.976-3.954-5.572-7.354c0.487-2.36,2.501-4.292,4.953-4.44
		c4.11-0.462,8.254-0.181,12.389-0.223C330.907,102.438,332.104,106.614,329.273,109.198z"/>
</g>
</svg>
