<?xml version="1.0" encoding="utf-8"?>
<!-- Generator: Adobe Illustrator 17.0.0, SVG Export Plug-In . SVG Version: 6.00 Build 0)  -->
<!DOCTYPE svg PUBLIC "-//W3C//DTD SVG 1.1//EN" "http://www.w3.org/Graphics/SVG/1.1/DTD/svg11.dtd">
<svg version="1.1" id="레이어_1" xmlns="http://www.w3.org/2000/svg" xmlns:xlink="http://www.w3.org/1999/xlink" x="0px"
	 y="0px" width="200px" height="200px" viewBox="0 0 200 200" enable-background="new 0 0 200 200" xml:space="preserve">
<g>
	<path fill="#FFFFFF" d="M161.419,85.229c-2.253-0.543-4.703-0.407-6.841,0.502c-2.763,1.492-4.07,4.736-4.28,7.738
		c-0.267,4.502,0.008,9.016-0.164,13.526c2.977,3.692,8.465,4.999,12.803,3.112c2.479-1.246,3.898-3.881,4.559-6.475
		c1.053-4.226,1.155-8.839-0.469-12.934C166.007,88.242,164.124,85.845,161.419,85.229z"/>
	<path fill="#FFFFFF" d="M181.391,40.563c-7.088-10.385-16.281-19.652-27.624-25.305c-12.848-6.463-27.583-8.695-41.837-7.425
		c-18.526,1.76-36.184,8.424-52.691,16.754c-11.499,5.793-22.732,12.4-32.327,21.054c-5.567,5.036-10.541,10.772-14.406,17.218
		C8.51,69.795,5.772,77.425,4.238,85.27c-5.513,28.627,4.753,59.52,25.671,79.694c25.708,24.952,65.711,34.268,99.651,22.481
		c18.785-5.978,35.362-18.172,47.301-33.791c8.864-11.668,15.442-25.186,18.332-39.592C200.365,89.04,195.695,61.86,181.391,40.563z
		 M76.84,102.949c-2.463,6.072-4.498,12.375-7.898,18.016c-3.046,5.197-9.016,8.58-15.072,8.235
		c-0.012-1.838-0.008-3.676-0.004-5.517c4.691-0.354,9-3.277,11.224-7.392c0.761-1.529,1.846-3.26,1.172-5.02
		c-0.555-1.542-1.377-2.964-2.08-4.436c-2.356-4.629-4.058-9.629-7.145-13.855c-2.796-3.77-6.837-6.743-11.458-7.787
		c-3.589-0.826-7.45-0.633-10.883,0.736c-2.043,0.806-3.338,3.811-1.632,5.534c2.545,2.278,6.072,2.746,9.275,3.491
		c3.873,0.937,8.079,2.134,10.665,5.39c1.747,2.068,1.879,4.958,1.525,7.524c-0.555,3.544-3.375,6.36-6.595,7.688
		c-3.281,1.311-6.891,1.283-10.361,1.081c-4.95-0.325-9.863-2.22-13.473-5.678c1.205-1.488,2.389-2.993,3.556-4.506
		c2.972,1.538,5.797,3.589,9.197,4.054c3.421,0.547,7.384,0.769,10.237-1.55c1.747-1.303,1.723-4.263-0.045-5.534
		c-5.53-3.729-13.062-2.787-18.238-7.211c-2.586-1.928-3.359-5.443-2.792-8.486c0.329-2.524,2.134-4.576,4.189-5.945
		c3.141-2.142,7.063-2.693,10.788-2.75c7.076-0.053,14.127,2.997,18.813,8.321c4.272,4.835,6.558,10.969,9.09,16.803
		c0.197,0.395,0.477,0.728,0.839,1.003c3.211-8.428,6.101-16.972,9.325-25.396c2.171-0.033,4.346-0.033,6.516,0.041
		C83.217,87.72,79.693,95.211,76.84,102.949z M103.954,85.718c-4.707-0.049-9.489,3.301-10.262,8.083
		c-0.724,7.532,0.354,15.13-0.613,22.653c-1.949-0.029-3.898-0.062-5.846-0.09c-0.21-6.142-0.086-12.285-0.123-18.427
		c-0.021-4.037,0.58-8.317,3.079-11.623c3.051-4.444,8.51-6.919,13.855-6.664C104.119,81.672,104.111,83.699,103.954,85.718z
		 M138.35,103.734c-0.016,4.494-2.561,8.848-6.414,11.142c-2.73,1.665-6.035,1.867-9.148,1.846
		c-3.622-0.037-7.306-1.324-9.888-3.922c-2.52-2.623-3.626-6.34-3.659-9.917c-0.062-7.705-0.045-15.413,0.021-23.118
		c2.08-0.037,4.161-0.037,6.241,0c0.095,8.099-0.041,16.199,0.103,24.298c0.062,2.981,2.249,5.818,5.176,6.5
		c2.471,0.539,5.201,0.592,7.503-0.584c2.578-1.316,3.832-4.28,3.811-7.067c0.037-7.717-0.016-15.43,0.045-23.147
		c2.068-0.037,4.14-0.037,6.212,0.004C138.411,87.757,138.424,95.745,138.35,103.734z M171.45,110.431
		c-1.447,2.352-3.639,4.231-6.212,5.234c-4.88,1.953-10.574,1.229-15.06-1.398c0.008,4.975,0.053,9.949-0.033,14.924
		c-2.072,0.008-4.144,0.012-6.216-0.029c-0.045-10.813-0.021-21.626-0.029-32.438c-0.099-3.108,0.132-6.294,1.357-9.193
		c1.262-3.129,3.614-5.949,6.8-7.224c4.321-1.751,9.399-1.747,13.633,0.247c5.061,2.644,7.914,8.223,8.7,13.699
		C175.023,99.75,174.48,105.67,171.45,110.431z"/>
</g>
</svg>
