<?xml version="1.0" encoding="utf-8"?>
<!-- Generator: Adobe Illustrator 17.0.0, SVG Export Plug-In . SVG Version: 6.00 Build 0)  -->
<!DOCTYPE svg PUBLIC "-//W3C//DTD SVG 1.1//EN" "http://www.w3.org/Graphics/SVG/1.1/DTD/svg11.dtd">
<svg version="1.1" id="레이어_1" xmlns="http://www.w3.org/2000/svg" xmlns:xlink="http://www.w3.org/1999/xlink" x="0px"
	 y="0px" width="400px" height="200px" viewBox="0 0 400 200" enable-background="new 0 0 400 200" xml:space="preserve">
<g>
	<path d="M129.349,98.295c-3.096-4.386-9.287-3.213-13.884-4.245c-0.117-5.3,0.188-10.671-0.68-15.924
		c-8.795-4.479-19.325-1.524-28.846-2.251c0.07,16.159,0.094,32.341,0,48.499c11.632-0.117,23.265,0.352,34.897-0.094
		c3.565-0.141,9.029-1.079,8.865-5.699C130.287,111.85,130.474,104.978,129.349,98.295z M118.936,116.681
		c-7.528,0.07-15.056,0.07-22.585,0.07c0-10.882,0-21.764-0.023-32.622c3.002,0.094,6.004,0.211,9.029,0.328
		c0.047,5.277,0.023,10.53,0.07,15.783c4.526,0.094,9.029,0.188,13.555,0.328C119.03,105.94,118.983,111.311,118.936,116.681z"/>
	<path d="M151.605,87.46c12.43,0,24.859,0,37.289,0c-7.294,10.038-14.376,20.216-21.74,30.207c7.27,0.023,14.54,0.023,21.834,0.07
		c0,1.712-0.023,5.113-0.023,6.801c-12.5,0.094-25,0.07-37.5,0.023c7.083-9.827,14.189-19.63,21.107-29.597
		c-6.965,0-13.931,0-20.896-0.023C151.652,92.455,151.628,89.946,151.605,87.46z"/>
	<path d="M135.704,124.444c0.07-12.289,0.07-24.555,0.023-36.844c2.603,0.023,7.81,0.023,10.413,0.023
		c-0.07,12.266-0.07,24.531,0.023,36.797C142.67,124.444,139.175,124.467,135.704,124.444z"/>
	<g>
		<path d="M209.12,105.037c-0.602,0.3-1.019,0.392-1.248,0.279c-0.231-0.112-0.433-0.316-0.611-0.616l-2.281-3.916
			c-0.355-0.561-0.126-1.083,0.689-1.569c1.839-1.12,3.591-2.331,5.256-3.637c1.663-1.308,3.167-2.668,4.512-4.088
			c1.347-1.418,2.524-2.854,3.532-4.31c1.008-1.454,1.796-2.872,2.364-4.253c0.282-0.708,0.362-1.147,0.238-1.315
			c-0.124-0.169-0.451-0.252-0.983-0.252H208.96c-0.495,0-0.788-0.103-0.875-0.309c-0.089-0.204-0.133-0.495-0.133-0.868v-4.029
			c0-0.822,0.353-1.232,1.06-1.232h17.521c2.125,0,3.417,0.541,3.877,1.624c0.458,1.081,0.389,2.574-0.213,4.477
			c-0.531,1.53-1.196,3.078-1.99,4.647c-0.797,1.567-1.745,3.133-2.842,4.702c0.673,0.82,1.415,1.615,2.231,2.377
			c0.813,0.765,1.647,1.484,2.496,2.155c0.847,0.673,1.679,1.287,2.494,1.848c0.813,0.559,1.557,1.063,2.231,1.512
			c0.566,0.373,0.655,0.838,0.266,1.399l-2.709,4.086c-0.176,0.3-0.371,0.458-0.584,0.476c-0.211,0.018-0.513-0.085-0.902-0.309
			c-0.531-0.334-1.186-0.802-1.963-1.399c-0.781-0.595-1.603-1.269-2.469-2.015c-0.868-0.744-1.752-1.548-2.654-2.407
			c-0.905-0.857-1.745-1.715-2.524-2.574c-1.734,1.903-3.619,3.667-5.652,5.29C213.589,102.436,211.42,103.844,209.12,105.037z
			 M247.292,124.182h-28.617c-0.742,0-1.354-0.066-1.83-0.197c-0.479-0.131-0.85-0.346-1.115-0.644
			c-0.266-0.298-0.451-0.71-0.559-1.232c-0.105-0.522-0.158-1.175-0.158-1.958v-12.482c0-0.783,0.353-1.175,1.063-1.175h5.256
			c0.708,0,1.06,0.392,1.06,1.175v9.292c0,0.559,0.284,0.841,0.85,0.841h24.05c0.284,0,0.531,0.064,0.744,0.195
			s0.318,0.401,0.318,0.811v4.368c0,0.522-0.105,0.82-0.318,0.895C247.823,124.143,247.576,124.182,247.292,124.182z
			 M231.897,91.882c-0.673,0-1.01-0.353-1.01-1.063v-4.198c0-0.486,0.098-0.783,0.293-0.895c0.195-0.112,0.433-0.167,0.717-0.167
			h7.274v-13.1c0-0.708,0.318-1.063,0.955-1.063h5.361c0.673,0,1.01,0.355,1.01,1.063v35.882c0,0.412-0.071,0.692-0.213,0.841
			c-0.142,0.149-0.408,0.222-0.797,0.222h-5.361c-0.389,0-0.646-0.073-0.77-0.222c-0.126-0.149-0.186-0.428-0.186-0.841V91.882
			H231.897z"/>
		<path d="M279.15,82.199c-0.46,1.867-1.099,3.77-1.912,5.71c-0.815,1.942-1.805,3.9-2.973,5.877
			c0.671,1.083,1.434,2.128,2.283,3.135c0.85,1.008,1.725,1.97,2.627,2.883c0.902,0.914,1.786,1.764,2.654,2.547
			c0.868,0.783,1.674,1.475,2.416,2.07c0.602,0.486,0.584,1.12-0.053,1.903l-2.496,3.303c-0.284,0.373-0.602,0.504-0.955,0.392
			c-0.355-0.112-0.76-0.334-1.221-0.671c-0.566-0.41-1.239-0.98-2.018-1.706c-0.779-0.728-1.592-1.53-2.441-2.407
			c-0.85-0.877-1.683-1.812-2.496-2.799c-0.815-0.989-1.557-1.951-2.231-2.883c-1.805,2.35-3.804,4.581-5.998,6.69
			c-2.196,2.107-4.548,4.001-7.061,5.68c-0.318,0.224-0.577,0.318-0.77,0.279c-0.197-0.037-0.435-0.24-0.717-0.614l-2.496-3.527
			c-0.284-0.41-0.38-0.737-0.291-0.98c0.087-0.243,0.291-0.476,0.609-0.699c2.052-1.493,3.999-3.154,5.84-4.984
			c1.841-1.828,3.532-3.749,5.071-5.765c1.539-2.015,2.883-4.086,4.035-6.213c1.15-2.128,2.061-4.253,2.735-6.381
			c0.211-0.747-0.071-1.12-0.85-1.12h-12.848c-0.497,0-0.788-0.103-0.877-0.307c-0.087-0.206-0.133-0.495-0.133-0.868v-4.031
			c0-0.449,0.08-0.756,0.24-0.923c0.158-0.169,0.433-0.252,0.822-0.252h17.521c1.381,0,2.46,0.316,3.238,0.95
			c0.779,0.634,1.168,1.569,1.168,2.799c0,0.524-0.044,1.028-0.133,1.512C279.351,81.285,279.255,81.752,279.15,82.199z
			 M300.864,97.928h-6.584v26.084c0,0.449-0.062,0.737-0.186,0.868c-0.124,0.131-0.38,0.197-0.77,0.197h-5.362
			c-0.389,0-0.664-0.066-0.822-0.197c-0.16-0.131-0.24-0.419-0.24-0.868V72.458c0-0.41,0.08-0.689,0.24-0.838
			c0.158-0.149,0.433-0.224,0.822-0.224h5.362c0.389,0,0.646,0.076,0.77,0.224c0.124,0.149,0.186,0.428,0.186,0.838v19.089h6.584
			c0.318,0,0.575,0.046,0.77,0.14s0.293,0.401,0.293,0.923v4.255c0,0.447-0.098,0.737-0.293,0.868S301.182,97.928,300.864,97.928z"
			/>
		<path d="M329.107,94.963c-0.318,0-0.568-0.076-0.744-0.224s-0.266-0.428-0.266-0.841v-3.974c0-0.486,0.099-0.783,0.293-0.895
			c0.195-0.112,0.433-0.167,0.717-0.167h9.876v-5.542h-9.399c-0.742,1.679-1.734,3.351-2.973,5.009
			c-1.239,1.663-2.707,3.257-4.406,4.787s-3.628,2.968-5.788,4.31c-2.157,1.344-4.512,2.519-7.061,3.527
			c-0.602,0.261-0.983,0.392-1.141,0.392c-0.16,0-0.328-0.204-0.504-0.616l-1.912-4.253c-0.179-0.412-0.238-0.701-0.186-0.868
			c0.053-0.169,0.328-0.364,0.822-0.589c4.496-2.015,8.096-4.171,10.805-6.465c2.707-2.295,4.626-4.99,5.76-8.087
			c0.176-0.449,0.22-0.756,0.133-0.925c-0.089-0.167-0.417-0.252-0.983-0.252h-13.538c-0.46,0-0.744-0.112-0.85-0.334
			c-0.108-0.224-0.16-0.504-0.16-0.841v-3.974c0-0.41,0.071-0.701,0.213-0.868c0.14-0.167,0.424-0.252,0.85-0.252h18.21
			c1.628,0,2.735,0.27,3.319,0.811c0.584,0.543,0.877,1.521,0.877,2.938c0,0.076-0.009,0.151-0.027,0.224
			c-0.018,0.076-0.027,0.149-0.027,0.224h7.966v-4.759c0-0.41,0.069-0.689,0.211-0.838c0.142-0.149,0.408-0.224,0.797-0.224h5.309
			c0.389,0,0.655,0.076,0.797,0.224c0.142,0.149,0.213,0.428,0.213,0.838v25.919c0,0.447-0.071,0.726-0.213,0.838
			c-0.142,0.112-0.408,0.169-0.797,0.169h-5.309c-0.389,0-0.655-0.057-0.797-0.169c-0.142-0.112-0.211-0.392-0.211-0.838v-3.415
			H329.107z M346.52,125.357h-28.562c-0.779,0-1.409-0.066-1.885-0.195c-0.479-0.133-0.85-0.337-1.115-0.616
			c-0.266-0.282-0.444-0.655-0.531-1.12c-0.089-0.467-0.133-1.035-0.133-1.709v-7.331c0-0.71,0.044-1.287,0.133-1.736
			c0.087-0.449,0.266-0.811,0.531-1.092c0.266-0.279,0.628-0.474,1.088-0.586c0.46-0.112,1.079-0.169,1.857-0.169h20.548
			c0.353,0,0.531-0.204,0.531-0.614v-1.344c0-0.449-0.195-0.671-0.584-0.671h-23.15c-0.389,0-0.662-0.076-0.822-0.224
			c-0.158-0.149-0.238-0.449-0.238-0.895v-3.864c0-0.708,0.353-1.063,1.06-1.063h27.13c0.815,0,1.468,0.066,1.965,0.197
			c0.495,0.131,0.884,0.334,1.168,0.616c0.284,0.279,0.47,0.644,0.557,1.09c0.089,0.449,0.133,1.008,0.133,1.679v7.278
			c0,0.747-0.044,1.351-0.133,1.818c-0.087,0.467-0.263,0.831-0.529,1.092c-0.266,0.259-0.639,0.437-1.115,0.531
			c-0.479,0.092-1.125,0.14-1.938,0.14h-20.335c-0.389,0-0.584,0.186-0.584,0.559v1.569c0,0.41,0.213,0.614,0.637,0.614h24.263
			c0.389,0,0.664,0.057,0.824,0.169c0.158,0.112,0.238,0.41,0.238,0.895v3.861C347.53,124.983,347.193,125.357,346.52,125.357z"/>
		<path d="M374.926,82.256c-0.318,1.903-0.815,3.852-1.486,5.849c-0.673,1.997-1.486,4.022-2.444,6.074
			c0.389,0.932,0.884,1.894,1.486,2.881c0.602,0.989,1.257,1.942,1.965,2.856c0.708,0.914,1.434,1.773,2.178,2.574
			c0.742,0.804,1.468,1.502,2.176,2.1c0.318,0.261,0.486,0.522,0.504,0.783c0.018,0.261-0.151,0.616-0.504,1.063l-2.549,3.36
			c-0.284,0.373-0.547,0.568-0.795,0.586c-0.25,0.021-0.568-0.14-0.957-0.476c-0.566-0.483-1.177-1.081-1.83-1.791
			c-0.657-0.708-1.31-1.463-1.965-2.267c-0.655-0.802-1.292-1.64-1.912-2.517c-0.618-0.877-1.159-1.727-1.619-2.547
			c-1.415,2.089-2.964,4.068-4.645,5.932c-1.681,1.867-3.532,3.564-5.549,5.094c-0.46,0.337-0.788,0.486-0.98,0.449
			c-0.197-0.037-0.453-0.261-0.772-0.671l-2.812-3.584c-0.497-0.595-0.373-1.212,0.371-1.846c1.947-1.605,3.708-3.348,5.284-5.233
			c1.573-1.885,2.964-3.816,4.166-5.794c1.205-1.976,2.212-3.955,3.028-5.934c0.813-1.976,1.45-3.898,1.91-5.765
			c0.071-0.298,0.089-0.579,0.053-0.841c-0.034-0.261-0.318-0.392-0.847-0.392H356.29c-0.497,0-0.779-0.101-0.85-0.307
			c-0.071-0.206-0.105-0.495-0.105-0.868V77.05c0-0.41,0.062-0.71,0.185-0.895c0.124-0.188,0.399-0.282,0.822-0.282h14.708
			c1.592,0,2.689,0.291,3.291,0.868c0.6,0.579,0.902,1.521,0.902,2.826c0,0.376-0.037,0.813-0.105,1.317
			C375.066,81.388,374.997,81.846,374.926,82.256z M375.723,96.474c-0.321,0-0.568-0.076-0.744-0.224
			c-0.179-0.149-0.266-0.428-0.266-0.841v-4.141c0-0.522,0.096-0.841,0.293-0.953c0.192-0.112,0.433-0.167,0.717-0.167h5.467V73.411
			c0-0.747,0.373-1.12,1.115-1.12h4.832c0.671,0,1.008,0.373,1.008,1.12v48.81c0,0.449-0.071,0.737-0.213,0.868
			c-0.142,0.131-0.405,0.197-0.795,0.197h-4.832c-0.389,0-0.673-0.057-0.85-0.169c-0.176-0.11-0.266-0.41-0.266-0.895V96.474
			H375.723z M397.808,125.189h-5.256c-0.389,0-0.655-0.076-0.797-0.224c-0.14-0.149-0.211-0.431-0.211-0.841V72.458
			c0-0.41,0.08-0.689,0.238-0.838c0.16-0.149,0.433-0.224,0.822-0.224h5.203c0.389,0,0.655,0.076,0.797,0.224
			c0.14,0.149,0.213,0.428,0.213,0.838v51.666c0,0.41-0.073,0.692-0.213,0.841C398.463,125.114,398.197,125.189,397.808,125.189z"/>
	</g>
	<g>
		<path d="M46.189,75.069c1.344,0.948,3.673,2.591,4.947,3.489C49.863,77.66,47.534,76.017,46.189,75.069z"/>
		<path d="M60.397,85.132l-8.365-5.828H52.03l-0.001-0.058c-0.108-0.06-0.24,0.007-0.142,0.094c1.335,1.117,3.311,3.011,3.311,7.526
			v1.14l4.531,2.283c0.496,0.256,0.968,0.92,0.968,1.48v3.31c0,0.562-0.506,0.901-1.048,0.762l-4.451-1.125v6.605
			c0,0.936-0.697,1.761-1.626,1.843l-2.923,0.228c-0.929,0.086-1.596-0.604-1.596-1.539v-8.77l-8.41-2.137v15.002
			c0,10.161-7.065,14.406-15.995,13.068l-6.118-0.936c-8.423-1.267-13.143-5.312-13.143-12.679V87.879
			c0-0.933,0.761-1.814,1.682-1.959l4.375-0.698c0.925-0.147,1.706,0.492,1.706,1.424v17.94c0,3.204,1.35,5.938,5.074,6.302
			l4.885,0.466c3.414,0.329,6.537-0.778,6.537-5.303v-22.09c0-0.937,0.71-1.814,1.629-1.965l7.844-1.274
			c0.83-0.135,2.155,0.066,2.902,0.448l7.033,3.576v-0.859c0-5.128-1.66-8.003-3.847-9.55c-3.268-2.316-7.865-1.657-10.313-1.119
			L7.831,79.312c-3.643,0.824-6.649,4.521-6.649,8.257v26.395c0,3.738,2.992,7.433,6.635,8.258l27.026,6.104
			c3.645,0.826,9.085-0.254,12.136-2.41l13.414-9.451c3.505-2.459,4.186-4.448,4.186-7.999V93.074
			C64.578,89.419,63.929,87.608,60.397,85.132z"/>
	</g>
</g>
</svg>
