<?xml version="1.0" encoding="utf-8"?>
<!-- Generator: Adobe Illustrator 17.0.0, SVG Export Plug-In . SVG Version: 6.00 Build 0)  -->
<!DOCTYPE svg PUBLIC "-//W3C//DTD SVG 1.1//EN" "http://www.w3.org/Graphics/SVG/1.1/DTD/svg11.dtd">
<svg version="1.1" id="레이어_1" xmlns="http://www.w3.org/2000/svg" xmlns:xlink="http://www.w3.org/1999/xlink" x="0px"
	 y="0px" width="400px" height="200px" viewBox="0 0 400 200" enable-background="new 0 0 400 200" xml:space="preserve">
<g>
	<path fill="#6D6F71" d="M137.813,98.499c-2.725-3.861-8.174-2.828-12.221-3.736c-0.103-4.665,0.165-9.393-0.599-14.016
		c-7.741-3.942-17.01-1.341-25.39-1.981c0.062,14.223,0.083,28.467,0,42.689c10.239-0.103,20.478,0.31,30.716-0.083
		c3.138-0.124,7.947-0.95,7.803-5.016C138.639,110.431,138.803,104.382,137.813,98.499z M128.648,114.683
		c-6.626,0.062-13.252,0.062-19.879,0.062c0-9.578,0-19.157-0.02-28.714c2.642,0.083,5.285,0.186,7.947,0.289
		c0.041,4.645,0.02,9.269,0.062,13.892c3.984,0.083,7.947,0.165,11.931,0.289C128.73,105.229,128.689,109.956,128.648,114.683z"/>
	<path fill="#6D6F71" d="M157.403,88.962c10.941,0,21.881,0,32.822,0c-6.42,8.835-12.654,17.794-19.136,26.588
		c6.399,0.02,12.798,0.02,19.218,0.062c0,1.507-0.02,4.5-0.02,5.986c-11.003,0.083-22.005,0.062-33.008,0.02
		c6.234-8.65,12.489-17.278,18.578-26.051c-6.131,0-12.262,0-18.393-0.02C157.444,93.359,157.423,91.151,157.403,88.962z"/>
	<path fill="#6D6F71" d="M143.407,121.516c0.062-10.817,0.062-21.613,0.02-32.43c2.291,0.02,6.874,0.02,9.166,0.02
		c-0.062,10.797-0.062,21.592,0.02,32.389C149.538,121.516,146.462,121.536,143.407,121.516z"/>
	<g>
		<path fill="#FBAC1B" d="M208.028,104.434c-0.53,0.264-0.897,0.345-1.098,0.246c-0.203-0.099-0.381-0.278-0.538-0.542l-2.008-3.447
			c-0.312-0.494-0.111-0.953,0.606-1.381c1.619-0.986,3.161-2.052,4.626-3.201c1.464-1.151,2.788-2.348,3.971-3.598
			c1.186-1.248,2.222-2.512,3.109-3.794c0.887-1.28,1.581-2.528,2.081-3.744c0.248-0.623,0.319-1.01,0.21-1.157
			c-0.109-0.149-0.397-0.222-0.865-0.222h-10.235c-0.436,0-0.694-0.091-0.77-0.272c-0.078-0.18-0.117-0.436-0.117-0.764v-3.546
			c0-0.724,0.311-1.084,0.933-1.084h15.422c1.87,0,3.008,0.476,3.413,1.429c0.403,0.951,0.342,2.266-0.187,3.941
			c-0.467,1.347-1.053,2.709-1.752,4.09c-0.702,1.379-1.536,2.758-2.502,4.139c0.592,0.722,1.245,1.422,1.964,2.092
			c0.716,0.673,1.45,1.306,2.197,1.897c0.746,0.592,1.478,1.133,2.195,1.627c0.716,0.492,1.37,0.936,1.964,1.331
			c0.498,0.328,0.577,0.738,0.234,1.231l-2.384,3.597c-0.155,0.264-0.327,0.403-0.514,0.419c-0.186,0.016-0.452-0.075-0.794-0.272
			c-0.467-0.294-1.044-0.706-1.728-1.231c-0.687-0.524-1.411-1.117-2.173-1.774c-0.764-0.655-1.542-1.363-2.336-2.119
			c-0.797-0.754-1.536-1.51-2.222-2.266c-1.526,1.675-3.185,3.228-4.975,4.656C211.962,102.144,210.052,103.384,208.028,104.434z
			 M241.627,121.285h-25.189c-0.653,0-1.192-0.058-1.611-0.173c-0.422-0.115-0.748-0.305-0.981-0.567
			c-0.234-0.262-0.397-0.625-0.492-1.084c-0.092-0.459-0.139-1.034-0.139-1.723V106.75c0-0.689,0.311-1.034,0.936-1.034h4.626
			c0.623,0,0.933,0.345,0.933,1.034v8.179c0,0.492,0.25,0.74,0.748,0.74h21.169c0.25,0,0.467,0.056,0.655,0.172
			c0.187,0.115,0.28,0.353,0.28,0.714v3.845c0,0.459-0.092,0.722-0.28,0.788C242.094,121.251,241.877,121.285,241.627,121.285z
			 M228.076,92.855c-0.592,0-0.889-0.311-0.889-0.936v-3.695c0-0.428,0.086-0.689,0.258-0.788c0.172-0.099,0.381-0.147,0.631-0.147
			h6.403V75.758c0-0.623,0.28-0.936,0.841-0.936h4.719c0.592,0,0.889,0.312,0.889,0.936v31.583c0,0.363-0.062,0.609-0.187,0.74
			c-0.125,0.131-0.359,0.195-0.702,0.195h-4.719c-0.342,0-0.569-0.064-0.678-0.195c-0.111-0.131-0.164-0.377-0.164-0.74V92.855
			H228.076z"/>
		<path fill="#FBAC1B" d="M269.669,84.332c-0.405,1.643-0.967,3.318-1.683,5.026c-0.717,1.709-1.589,3.433-2.617,5.173
			c0.591,0.953,1.262,1.873,2.009,2.759c0.748,0.887,1.518,1.734,2.312,2.538c0.794,0.805,1.572,1.553,2.336,2.242
			c0.764,0.689,1.473,1.298,2.127,1.822c0.53,0.428,0.514,0.986-0.047,1.675l-2.197,2.907c-0.25,0.328-0.53,0.444-0.841,0.345
			c-0.312-0.099-0.669-0.294-1.075-0.591c-0.498-0.361-1.091-0.863-1.776-1.502c-0.686-0.641-1.401-1.347-2.149-2.119
			c-0.748-0.772-1.481-1.595-2.197-2.464c-0.717-0.871-1.37-1.717-1.964-2.538c-1.589,2.068-3.348,4.032-5.279,5.889
			c-1.933,1.855-4.003,3.522-6.215,5c-0.28,0.197-0.508,0.28-0.678,0.246c-0.173-0.033-0.383-0.211-0.631-0.54l-2.197-3.104
			c-0.25-0.361-0.334-0.649-0.256-0.863c0.077-0.214,0.256-0.419,0.536-0.615c1.806-1.314,3.52-2.776,5.14-4.387
			c1.62-1.609,3.109-3.3,4.464-5.074c1.355-1.774,2.538-3.597,3.552-5.469c1.012-1.873,1.814-3.744,2.407-5.617
			c0.186-0.658-0.062-0.986-0.748-0.986h-11.309c-0.437,0-0.694-0.091-0.772-0.27c-0.077-0.181-0.117-0.436-0.117-0.764v-3.548
			c0-0.395,0.07-0.665,0.211-0.812c0.139-0.149,0.381-0.222,0.724-0.222h15.422c1.216,0,2.165,0.278,2.85,0.836
			c0.686,0.558,1.028,1.381,1.028,2.464c0,0.461-0.039,0.905-0.117,1.331C269.846,83.527,269.761,83.938,269.669,84.332z
			 M288.781,98.176h-5.795v22.959c0,0.395-0.055,0.649-0.164,0.764s-0.334,0.173-0.678,0.173h-4.72
			c-0.342,0-0.584-0.058-0.724-0.173c-0.141-0.115-0.211-0.369-0.211-0.764V75.758c0-0.361,0.07-0.606,0.211-0.738
			c0.139-0.131,0.381-0.197,0.724-0.197h4.72c0.342,0,0.569,0.067,0.678,0.197c0.109,0.131,0.164,0.377,0.164,0.738V92.56h5.795
			c0.28,0,0.506,0.04,0.678,0.123s0.258,0.353,0.258,0.812v3.745c0,0.393-0.086,0.649-0.258,0.764
			C289.287,98.12,289.061,98.176,288.781,98.176z"/>
		<path fill="#FBAC1B" d="M313.641,95.567c-0.28,0-0.5-0.067-0.655-0.197c-0.155-0.13-0.234-0.377-0.234-0.74v-3.498
			c0-0.428,0.087-0.689,0.258-0.788c0.172-0.099,0.381-0.147,0.631-0.147h8.693v-4.878h-8.273c-0.653,1.478-1.526,2.95-2.617,4.409
			c-1.091,1.464-2.383,2.867-3.878,4.214c-1.495,1.347-3.193,2.612-5.095,3.794c-1.899,1.183-3.971,2.217-6.215,3.104
			c-0.53,0.23-0.865,0.345-1.004,0.345c-0.141,0-0.289-0.18-0.444-0.542l-1.683-3.744c-0.158-0.363-0.21-0.617-0.164-0.764
			c0.047-0.149,0.289-0.32,0.724-0.518c3.957-1.774,7.126-3.671,9.511-5.691c2.383-2.02,4.072-4.392,5.07-7.118
			c0.155-0.395,0.194-0.665,0.117-0.814c-0.078-0.147-0.367-0.222-0.865-0.222h-11.916c-0.405,0-0.655-0.099-0.748-0.294
			c-0.095-0.197-0.141-0.444-0.141-0.74v-3.498c0-0.361,0.062-0.617,0.187-0.764c0.123-0.147,0.373-0.222,0.748-0.222h16.029
			c1.433,0,2.407,0.238,2.921,0.714c0.514,0.478,0.772,1.339,0.772,2.586c0,0.067-0.008,0.133-0.024,0.197
			c-0.016,0.067-0.024,0.131-0.024,0.197h7.012v-4.189c0-0.361,0.061-0.606,0.186-0.738c0.125-0.131,0.359-0.197,0.702-0.197h4.673
			c0.342,0,0.577,0.067,0.702,0.197c0.125,0.131,0.187,0.377,0.187,0.738v22.814c0,0.393-0.062,0.639-0.187,0.738
			c-0.125,0.099-0.359,0.149-0.702,0.149h-4.673c-0.342,0-0.577-0.05-0.702-0.149c-0.125-0.099-0.186-0.345-0.186-0.738v-3.006
			L313.641,95.567L313.641,95.567z M328.968,122.32h-25.14c-0.686,0-1.24-0.058-1.659-0.172c-0.422-0.117-0.748-0.297-0.981-0.542
			c-0.234-0.248-0.391-0.577-0.467-0.986c-0.078-0.411-0.117-0.911-0.117-1.504v-6.453c0-0.625,0.039-1.133,0.117-1.528
			c0.077-0.395,0.234-0.714,0.467-0.961c0.234-0.246,0.553-0.417,0.958-0.516c0.405-0.099,0.95-0.149,1.635-0.149h18.086
			c0.311,0,0.467-0.18,0.467-0.54v-1.183c0-0.395-0.172-0.591-0.514-0.591h-20.377c-0.342,0-0.583-0.067-0.724-0.197
			c-0.139-0.131-0.209-0.395-0.209-0.788v-3.401c0-0.623,0.311-0.936,0.933-0.936h23.88c0.717,0,1.292,0.058,1.73,0.173
			c0.436,0.115,0.778,0.294,1.028,0.542c0.25,0.246,0.414,0.567,0.49,0.959c0.078,0.395,0.117,0.887,0.117,1.478v6.406
			c0,0.658-0.039,1.189-0.117,1.6c-0.077,0.411-0.232,0.731-0.466,0.961c-0.234,0.228-0.562,0.385-0.981,0.467
			c-0.422,0.081-0.99,0.123-1.706,0.123h-17.899c-0.342,0-0.514,0.164-0.514,0.492v1.381c0,0.361,0.187,0.54,0.561,0.54h21.356
			c0.342,0,0.584,0.05,0.725,0.149c0.139,0.099,0.209,0.361,0.209,0.788v3.398C329.857,121.99,329.56,122.32,328.968,122.32z"/>
		<path fill="#FBAC1B" d="M353.971,84.382c-0.28,1.675-0.717,3.391-1.308,5.148c-0.592,1.758-1.308,3.54-2.151,5.346
			c0.342,0.82,0.778,1.667,1.308,2.536c0.53,0.871,1.106,1.709,1.73,2.514c0.623,0.805,1.262,1.561,1.917,2.266
			c0.653,0.708,1.292,1.322,1.915,1.848c0.28,0.23,0.428,0.459,0.444,0.689c0.016,0.23-0.133,0.542-0.444,0.936l-2.244,2.957
			c-0.25,0.328-0.481,0.5-0.7,0.516c-0.22,0.018-0.5-0.123-0.842-0.419c-0.498-0.425-1.036-0.951-1.611-1.576
			c-0.578-0.623-1.153-1.288-1.73-1.995c-0.577-0.706-1.137-1.444-1.683-2.215c-0.544-0.772-1.02-1.52-1.425-2.242
			c-1.246,1.839-2.609,3.581-4.089,5.221c-1.48,1.643-3.109,3.137-4.884,4.484c-0.405,0.297-0.694,0.428-0.863,0.395
			c-0.173-0.033-0.399-0.23-0.68-0.591l-2.475-3.155c-0.437-0.524-0.328-1.067,0.327-1.625c1.714-1.413,3.264-2.947,4.651-4.606
			c1.385-1.659,2.609-3.359,3.667-5.1c1.061-1.739,1.947-3.481,2.665-5.223c0.716-1.739,1.276-3.431,1.681-5.074
			c0.062-0.262,0.078-0.51,0.047-0.74c-0.03-0.23-0.28-0.345-0.746-0.345h-8.882c-0.437,0-0.686-0.089-0.748-0.27
			c-0.062-0.181-0.092-0.436-0.092-0.764v-3.498c0-0.361,0.055-0.625,0.163-0.788c0.109-0.165,0.351-0.248,0.724-0.248h12.946
			c1.401,0,2.367,0.256,2.897,0.764c0.528,0.51,0.794,1.339,0.794,2.487c0,0.331-0.033,0.716-0.092,1.159
			C354.094,83.618,354.034,84.021,353.971,84.382z M354.673,96.897c-0.283,0-0.5-0.067-0.655-0.197
			c-0.158-0.131-0.234-0.377-0.234-0.74v-3.645c0-0.459,0.085-0.74,0.258-0.839c0.169-0.099,0.381-0.147,0.631-0.147h4.812V76.596
			c0-0.658,0.328-0.986,0.981-0.986h4.253c0.591,0,0.887,0.328,0.887,0.986v42.963c0,0.395-0.063,0.649-0.188,0.764
			c-0.125,0.115-0.356,0.173-0.7,0.173h-4.253c-0.342,0-0.592-0.05-0.748-0.149c-0.155-0.097-0.234-0.361-0.234-0.788V96.897
			H354.673z M374.112,122.172h-4.626c-0.342,0-0.577-0.067-0.702-0.197c-0.123-0.131-0.186-0.379-0.186-0.74V75.758
			c0-0.361,0.07-0.606,0.21-0.738c0.141-0.131,0.381-0.197,0.724-0.197h4.58c0.342,0,0.577,0.067,0.702,0.197
			c0.123,0.131,0.188,0.377,0.188,0.738v45.477c0,0.361-0.064,0.609-0.188,0.74C374.688,122.106,374.454,122.172,374.112,122.172z"
			/>
	</g>
	<g>
		<path fill="#D7006D" d="M64.615,78.056c1.183,0.834,3.233,2.281,4.354,3.071C67.849,80.336,65.799,78.89,64.615,78.056z"/>
		<path fill="#D7006D" d="M77.121,86.913l-7.363-5.13h-0.002l-0.001-0.051c-0.095-0.053-0.211,0.006-0.125,0.083
			c1.175,0.983,2.914,2.65,2.914,6.624v1.003l3.988,2.01c0.437,0.225,0.852,0.81,0.852,1.303v2.913c0,0.495-0.445,0.793-0.922,0.671
			l-3.918-0.99v5.814c0,0.824-0.614,1.55-1.431,1.622l-2.573,0.201c-0.818,0.076-1.405-0.532-1.405-1.355v-7.719l-7.403-1.881
			v13.205c0,8.944-6.219,12.68-14.079,11.503l-5.385-0.824c-7.414-1.115-11.569-4.676-11.569-11.16V89.331
			c0-0.821,0.67-1.597,1.481-1.724l3.851-0.614c0.814-0.129,1.502,0.433,1.502,1.253v15.791c0,2.82,1.188,5.227,4.466,5.547
			l4.3,0.41c3.005,0.29,5.754-0.685,5.754-4.668V85.883c0-0.825,0.625-1.597,1.434-1.73l6.904-1.121
			c0.731-0.119,1.897,0.058,2.554,0.394l6.19,3.148v-0.756c0-4.514-1.461-7.044-3.386-8.406c-2.877-2.039-6.923-1.458-9.078-0.985
			l-23.821,5.364C27.646,82.516,25,85.77,25,89.058v23.233c0,3.29,2.634,6.543,5.84,7.269l23.788,5.373
			c3.208,0.727,7.997-0.224,10.682-2.121l11.807-8.319c3.085-2.164,3.685-3.915,3.685-7.041V93.904
			C80.801,90.687,80.23,89.093,77.121,86.913z"/>
	</g>
</g>
</svg>
