<?xml version="1.0" encoding="utf-8"?>
<!-- Generator: Adobe Illustrator 17.0.0, SVG Export Plug-In . SVG Version: 6.00 Build 0)  -->
<!DOCTYPE svg PUBLIC "-//W3C//DTD SVG 1.1//EN" "http://www.w3.org/Graphics/SVG/1.1/DTD/svg11.dtd">
<svg version="1.1" id="레이어_1" xmlns="http://www.w3.org/2000/svg" xmlns:xlink="http://www.w3.org/1999/xlink" x="0px"
	 y="0px" width="400px" height="200px" viewBox="0 0 400 200" enable-background="new 0 0 400 200" xml:space="preserve">
<g>
	<path fill="#FFFFFF" d="M169.387,6.296c1.559-0.873,3.053-2.063,4.929-2.086c0.387,1.225,0.75,2.479,0.697,3.78
		c-0.029,10.755-0.018,21.509-0.006,32.258c0,1.196-0.211,2.374-0.422,3.546c-0.182-0.387-0.557-1.166-0.744-1.553
		c-2.796-0.445-5.632-0.475-8.457-0.399c-16.211,0.018-32.422,0-48.633,0.012c-2.655,0.018-5.31-0.006-7.965-0.152
		c1.893-1.752,4.249-2.842,6.453-4.138C133.279,27.131,151.336,16.722,169.387,6.296z"/>
	<path fill="#FFFFFF" d="M108.764,42.85c0.006-0.287,0.018-0.862,0.023-1.149c2.655,0.147,5.31,0.17,7.965,0.152
		c16.211-0.012,32.422,0.006,48.633-0.012c2.825-0.076,5.661-0.047,8.457,0.399c0.188,0.387,0.563,1.166,0.744,1.553
		c-0.779,1.248-1.717,2.426-3.053,3.112c-9.16,5.228-18.256,10.585-27.446,15.765l-0.229,0.129
		c-7.584-4.753-15.484-8.99-23.185-13.55C116.676,47.169,113.03,44.368,108.764,42.85z"/>
	<path fill="#FFFFFF" d="M108.183,42.645l0.58,0.205c4.267,1.518,7.912,4.319,11.909,6.4c7.701,4.56,15.601,8.797,23.185,13.55
		c-10.374,5.996-20.706,12.073-31.132,17.969c-1.33,0.779-2.749,1.395-4.22,1.858c-0.885-0.568-0.656-1.635-0.703-2.514
		c0.035-10.163,0.006-20.325,0.018-30.482C107.844,47.298,107.621,44.936,108.183,42.645z"/>
	<path fill="#FFFFFF" d="M112.726,80.769c10.426-5.896,20.759-11.974,31.132-17.969l0.229-0.129
		c9.219,5.509,18.602,10.754,27.874,16.176c1.893,1.067,3.094,3.171,2.977,5.351c0.006,11.13-0.023,22.265,0.012,33.395
		c0.023,1.114-0.188,2.215-0.428,3.3c-0.633,0.053-1.26,0.105-1.887,0.158c0.838-0.803,2.116-1.477,1.852-2.848
		c0.041-10.549-0.035-21.099,0.041-31.648c0.053-1.289-0.311-2.532-0.738-3.733c-1.594,0.305-3.212,0.563-4.835,0.557
		c-18.567-0.064-37.134,0.012-55.695-0.047c-1.412-0.023-2.79,0.322-4.12,0.756c-0.258-0.334-0.768-1.002-1.026-1.33l0.393-0.129
		C109.977,82.164,111.395,81.548,112.726,80.769z"/>
	<path fill="#FFFFFF" d="M168.954,83.377c1.623,0.006,3.241-0.252,4.835-0.557c0.428,1.201,0.791,2.444,0.738,3.733
		c-0.076,10.549,0,21.099-0.041,31.648c0.264,1.371-1.014,2.045-1.852,2.848c-20.319-11.815-40.703-23.513-61.046-35.282
		c-0.856-0.51-1.664-1.084-2.45-1.682c1.33-0.434,2.708-0.779,4.12-0.756C131.82,83.389,150.387,83.312,168.954,83.377z"/>
	<path fill="#FFFFFF" d="M101.596,120.915c8.686-2.567,18.022-2.403,26.825-0.516c5.814,1.342,11.522,3.897,15.83,8.117
		c-3.886,4.097-7.596,8.352-11.493,12.431c-3.54-3.774-8.416-6.253-13.591-6.681c-6.881-0.944-14.406,0.58-19.563,5.462
		c-7.297,6.851-8.815,18.321-5.322,27.428c2.544,6.816,8.832,11.938,15.982,13.204c6.664,1.002,13.755,0.105,19.721-3.13
		c0.275-3.88,0.047-7.783,0.111-11.669c-4.343,0.012-8.68-0.012-13.017,0.006c0-4.999-0.012-10.004,0.006-15.009
		c9.553,0.053,19.112-0.035,28.671,0.047c-0.053,12.706-0.041,25.412-0.012,38.118c-8.182,4.366-17.424,6.523-26.655,6.945
		c-8.99,0.586-18.338-0.903-26.139-5.609c-8.82-5.146-14.863-14.417-16.568-24.434c-1.536-9.155-0.709-18.965,3.681-27.27
		C84.4,129.865,92.506,123.599,101.596,120.915z"/>
	<path fill="#FFFFFF" d="M11.159,120.892c5.415-0.035,10.825-0.006,16.234-0.018c0.023,10.039-0.059,20.073,0.041,30.113
		c9.401-10.039,18.784-20.091,28.184-30.13c7.115,0.059,14.23-0.029,21.345,0.041c-10.649,10.936-21.14,22.031-31.701,33.049
		c-0.92,0.598-0.399,1.547,0.246,2.11c11.393,12.589,22.722,25.236,34.145,37.796c-7.584,0.029-15.162-0.012-22.746,0.018
		c-9.87-11.364-19.505-22.945-29.474-34.215c-0.1,11.405-0.023,22.804-0.041,34.203c-5.409,0-10.819,0.006-16.234,0
		C11.164,169.536,11.164,145.214,11.159,120.892z"/>
	<path fill="#FFFFFF" d="M270.72,133.299c1.911-2.163,5.175-2.456,7.789-1.618c2.479,0.908,3.915,3.341,4.302,5.849
		c-0.311,2.567-1.741,5.122-4.302,5.99c-2.508,0.733-5.615,0.615-7.56-1.348C268.458,139.927,268.317,135.661,270.72,133.299z"/>
	<path fill="#FFFFFF" d="M338.558,131.488c2.971-0.762,6.517,0.164,8.111,2.948c2.127,3.364,0.1,8.287-3.763,9.219
		c-3.3,1.196-7.455-0.475-8.656-3.851C332.856,136.458,335.083,132.344,338.558,131.488z"/>
	<path fill="#FFFFFF" d="M196.587,131.828c3.739,0.018,7.484-0.047,11.229,0.047c-0.053,20.665-0.006,41.324-0.023,61.989
		c-3.739-0.006-7.472-0.012-11.212,0C196.593,173.181,196.587,152.505,196.587,131.828z"/>
	<path fill="#FFFFFF" d="M237.964,151.491c4.448-1.371,9.506-1.02,13.626,1.196c4.507,2.585,6.81,7.9,6.869,12.946
		c0.035,9.412,0,18.825,0.018,28.231c-3.546-0.012-7.097,0-10.643-0.006c-0.012-7.83,0.018-15.66-0.006-23.484
		c-0.064-3.136-0.686-6.693-3.27-8.768c-3.915-2.608-9.957-1.166-12.237,2.971c-1.366,2.256-1.547,4.976-1.577,7.549
		c0.006,7.244,0,14.488,0.006,21.732c-3.569,0.012-7.133-0.006-10.696,0.006c0.029-14.013,0.006-28.032,0.012-42.045
		c3.399,0.006,6.804-0.012,10.204,0.012c0.012,2.163,0.012,4.331-0.029,6.5C231.887,155.218,234.542,152.546,237.964,151.491z"/>
	<path fill="#FFFFFF" d="M295.183,159.479c7.472-10.051,24-11.968,33.154-3.194c0.738,0.422,0.674,1.284,0,1.741
		c-2.18,2.18-4.314,4.425-6.599,6.505c-2.292-2.268-5.234-4.448-8.627-4.214c-4.015,0.264-7.947,2.479-9.84,6.101
		c-3.007,5.169-1.899,12.407,2.772,16.228c4.524,3.868,12.179,3.686,15.918-1.207c2.292,2.579,5.128,4.823,6.951,7.73
		c-8.533,7.924-23.379,7.625-31.636-0.598C289.545,181.181,288.859,167.954,295.183,159.479z"/>
	<path fill="#FFFFFF" d="M367.874,151.11c5.99-1.026,12.747-0.223,17.541,3.798c0.662,0.703,1.729,1.307,1.928,2.309
		c-2.233,2.204-4.478,4.46-7.074,6.242c-2.403-3.388-6.951-5.099-10.924-3.686c-1.993,0.633-3.786,2.62-3.135,4.823
		c0.996,2.086,3.44,2.684,5.486,3.229c4.759,1.155,10.028,1.764,13.831,5.157c4.958,4.818,4.226,14.037-1.336,18.116
		c-4.372,3.329-10.104,4.026-15.443,3.768c-5.433-0.047-10.983-2.18-14.576-6.347c2.145-2.456,4.712-4.507,7.009-6.816
		c1.916,1.922,3.944,3.938,6.623,4.718c3.001,0.979,6.658,0.668,9.078-1.5c1.653-1.395,1.606-4.278-0.135-5.585
		c-2.151-1.747-5.023-2.028-7.625-2.667c-3.698-0.832-7.666-1.676-10.579-4.278c-3.382-3.124-3.739-8.369-2.356-12.524
		C357.864,154.884,362.945,151.995,367.874,151.11z"/>
	<path fill="#FFFFFF" d="M270.445,151.819c3.546,0.006,7.092-0.023,10.637,0.018c-0.023,14.007,0,28.014-0.012,42.022
		c-3.546,0-7.086,0.006-10.626,0C270.462,179.845,270.456,165.832,270.445,151.819z"/>
	<path fill="#FFFFFF" d="M335.382,151.813c3.557,0.023,7.127-0.041,10.69,0.053c-0.035,14.001-0.012,27.997-0.012,41.998
		c-3.563,0.006-7.121-0.012-10.684,0.006C335.347,179.851,335.347,165.832,335.382,151.813z"/>
</g>
</svg>
