<?xml version="1.0" encoding="utf-8"?>
<!-- Generator: Adobe Illustrator 17.0.0, SVG Export Plug-In . SVG Version: 6.00 Build 0)  -->
<!DOCTYPE svg PUBLIC "-//W3C//DTD SVG 1.1//EN" "http://www.w3.org/Graphics/SVG/1.1/DTD/svg11.dtd">
<svg version="1.1" id="레이어_1" xmlns="http://www.w3.org/2000/svg" xmlns:xlink="http://www.w3.org/1999/xlink" x="0px"
	 y="0px" width="400px" height="200px" viewBox="0 0 400 200" enable-background="new 0 0 400 200" xml:space="preserve">
<path fill="#F59221" d="M169.387,6.296c1.559-0.873,3.053-2.063,4.929-2.086c0.387,1.225,0.75,2.479,0.697,3.78
	c-0.029,10.755-0.018,21.509-0.006,32.258c0,1.196-0.211,2.374-0.422,3.546c-0.182-0.387-0.557-1.166-0.744-1.553
	c-2.796-0.445-5.632-0.475-8.457-0.399c-16.211,0.018-32.422,0-48.633,0.012c-2.655,0.018-5.31-0.006-7.965-0.152
	c1.893-1.752,4.249-2.842,6.453-4.138C133.279,27.131,151.336,16.722,169.387,6.296z"/>
<path fill="#EB5B2B" d="M108.764,42.85c0.006-0.287,0.018-0.862,0.023-1.149c2.655,0.147,5.31,0.17,7.965,0.152
	c16.211-0.012,32.422,0.006,48.633-0.012c2.825-0.076,5.661-0.047,8.457,0.399c0.188,0.387,0.563,1.166,0.744,1.553
	c-0.779,1.248-1.717,2.426-3.053,3.112c-9.16,5.228-18.256,10.585-27.446,15.765l-0.229,0.129
	c-7.584-4.753-15.484-8.99-23.185-13.55C116.676,47.169,113.03,44.368,108.764,42.85z"/>
<path fill="#4C2177" d="M108.183,42.645l0.58,0.205c4.267,1.518,7.912,4.319,11.909,6.4c7.701,4.56,15.601,8.797,23.185,13.55
	c-10.374,5.996-20.706,12.073-31.132,17.969c-1.33,0.779-2.749,1.395-4.22,1.858c-0.885-0.568-0.656-1.635-0.703-2.514
	c0.035-10.163,0.006-20.325,0.018-30.482C107.844,47.298,107.621,44.936,108.183,42.645z"/>
<path fill="#84378B" d="M112.726,80.769c10.426-5.896,20.759-11.974,31.132-17.969l0.229-0.129
	c9.219,5.509,18.602,10.754,27.874,16.176c1.893,1.067,3.094,3.171,2.977,5.351c0.006,11.13-0.023,22.265,0.012,33.395
	c0.023,1.114-0.188,2.215-0.428,3.3c-0.633,0.053-1.26,0.105-1.887,0.158c0.838-0.803,2.116-1.477,1.852-2.848
	c0.041-10.549-0.035-21.099,0.041-31.648c0.053-1.289-0.311-2.532-0.738-3.733c-1.594,0.305-3.212,0.563-4.835,0.557
	c-18.567-0.064-37.134,0.012-55.695-0.047c-1.412-0.023-2.79,0.322-4.12,0.756c-0.258-0.334-0.768-1.002-1.026-1.33l0.393-0.129
	C109.977,82.164,111.395,81.548,112.726,80.769z"/>
<path fill="#E60480" d="M168.954,83.377c1.623,0.006,3.241-0.252,4.835-0.557c0.428,1.201,0.791,2.444,0.738,3.733
	c-0.076,10.549,0,21.099-0.041,31.648c0.264,1.371-1.014,2.045-1.852,2.848c-20.319-11.815-40.703-23.513-61.046-35.282
	c-0.856-0.51-1.664-1.084-2.45-1.682c1.33-0.434,2.708-0.779,4.12-0.756C131.82,83.389,150.387,83.312,168.954,83.377z"/>
<path fill="#4C2177" d="M101.596,120.915c8.686-2.567,18.022-2.403,26.825-0.516c5.814,1.342,11.522,3.897,15.83,8.117
	c-3.886,4.097-7.596,8.352-11.493,12.431c-3.54-3.774-8.416-6.253-13.591-6.681c-6.881-0.944-14.406,0.58-19.563,5.462
	c-7.297,6.851-8.815,18.321-5.322,27.428c2.544,6.816,8.832,11.938,15.982,13.204c6.664,1.002,13.755,0.105,19.721-3.13
	c0.275-3.88,0.047-7.783,0.111-11.669c-4.343,0.012-8.68-0.012-13.017,0.006c0-4.999-0.012-10.004,0.006-15.009
	c9.553,0.053,19.112-0.035,28.671,0.047c-0.053,12.706-0.041,25.412-0.012,38.118c-8.182,4.366-17.424,6.523-26.655,6.945
	c-8.99,0.586-18.338-0.903-26.139-5.609c-8.82-5.146-14.863-14.417-16.568-24.434c-1.536-9.155-0.709-18.965,3.681-27.27
	C84.4,129.865,92.506,123.599,101.596,120.915z"/>
<path fill="#4C2177" d="M11.159,120.892c5.415-0.035,10.825-0.006,16.234-0.018c0.023,10.039-0.059,20.073,0.041,30.113
	c9.401-10.039,18.784-20.091,28.184-30.13c7.115,0.059,14.23-0.029,21.345,0.041c-10.649,10.936-21.14,22.031-31.701,33.049
	c-0.92,0.598-0.399,1.547,0.246,2.11c11.393,12.589,22.722,25.236,34.145,37.796c-7.584,0.029-15.162-0.012-22.746,0.018
	c-9.87-11.364-19.505-22.945-29.474-34.215c-0.1,11.405-0.023,22.804-0.041,34.203c-5.409,0-10.819,0.006-16.234,0
	C11.164,169.536,11.164,145.214,11.159,120.892z"/>
<g>
	<path fill="#4C217A" d="M248.805,144.526c2.457-0.021,4.934-0.021,7.391,0c0.085,8.993,0.021,17.986,0.064,27.001
		c-2.499,0.32-5.02,0.513-7.541,0.577C248.805,162.897,248.698,153.711,248.805,144.526L248.805,144.526z"/>
	<path fill="#4C227C" d="M265.744,147.196c7.711-0.085,15.402,0.064,23.092-0.064c0,6.43,0.064,12.838,0,19.268
		c-5.319,0.128-10.617,0-15.935-0.043c-0.043,1.752-0.128,5.234-0.15,6.985c7.263,0.064,14.547-0.043,21.831-0.043
		c0.064,1.581,0.214,4.721,0.278,6.28c-9.655,0.363-19.332,0.299-29.009,0.128c-0.043-6.408-0.085-12.795,0-19.204
		c5.511-0.043,11.022,0.064,16.555,0c-0.021-1.73-0.043-5.169-0.043-6.878c-5.511-0.107-11.022-0.064-16.512,0.021
		C265.787,151.49,265.766,149.332,265.744,147.196L265.744,147.196z"/>
	<path fill="#4B207A" d="M296.312,144.59c1.709-0.043,5.105-0.128,6.793-0.171c0.214,16.598,0.128,33.174,0.085,49.772
		c-1.73,0.021-5.148,0.043-6.878,0.064C296.27,177.7,296.27,161.145,296.312,144.59L296.312,144.59z"/>
	<path fill="#501F80" d="M373.768,146.641c1.858,0,5.575-0.021,7.434-0.021c-2.756,11.108,7.028,18.713,16.149,22.28
		c-0.983,1.324-2.948,3.994-3.909,5.34c-6.237-2.328-11.92-6.173-16.085-11.407c-4.123,5.169-9.506,9.228-15.829,11.3
		c-1.025-1.26-3.076-3.824-4.101-5.084C366.527,165.396,376.268,157.77,373.768,146.641L373.768,146.641z"/>
	<path fill="#4D207A" d="M212.982,181.438c-6.387-0.171-12.774,0-19.182-0.107c-0.085-3.012-0.085-6.045,0-9.057
		c3.93,0.021,7.84,0.064,11.77,0.021c-0.085-8.181,0.043-16.363-0.043-24.565c-10.339-0.15-20.699,0.064-31.038-0.043
		c0.064,8.181,0.021,16.384,0.021,24.565c3.845,0.085,7.69,0.043,11.535-0.043c0.299,3.055,0.235,6.131,0.15,9.207
		c-6.216,0-12.411-0.064-18.627-0.021c0.021,1.602,0.021,4.806,0.043,6.408c15.124-0.021,30.269-0.043,45.414,0.021
		C213.003,186.223,213.003,183.019,212.982,181.438z M181.474,165.823c0-3.888,0-7.754,0-11.642
		c5.682-0.15,11.364-0.043,17.046-0.021c0.064,3.909,0.085,7.818,0.043,11.749C192.86,165.887,187.178,165.994,181.474,165.823z"/>
	<path fill="#4E217B" d="M348.69,145.124c-1.752-0.021-5.233-0.064-6.985-0.086c-0.043,3.696,0,7.391,0.064,11.087
		c-2.627-0.342-6.942,1.688-7.861-2.051c-3.396-7.754-15.167-9.463-20.955-3.503c-6.558,5.661-4.742,17.794,3.375,21.126
		c7.818,3.909,17.345-1.218,19.332-9.527c2.029,0,4.08,0.021,6.109,0.064c-0.149,6.173-0.128,12.368-0.043,18.542
		c1.73,0.021,5.191,0.043,6.942,0.064C348.669,168.92,348.605,157.022,348.69,145.124z M325.449,165.31
		c-6.836,5.191-13.479-7.327-6.323-11.279C326.175,150.229,332.242,161.444,325.449,165.31z"/>
	<path fill="#502078" d="M241.286,146.683c-2.328,0-4.635,0-6.964,0.021c0.021,1.709,0.043,5.148,0.064,6.878
		c-3.396,0.021-6.793,0.021-10.189-0.043c0-1.709,0-5.169,0-6.878c-1.73,0-5.191,0.021-6.921,0.043
		c-0.043,7.818-0.043,15.636-0.064,23.476c8.032-0.043,16.064,0.021,24.096-0.043C241.371,162.32,241.286,154.502,241.286,146.683z
		 M234.301,163.708c-3.396,0.085-6.772,0.043-10.168-0.064c-0.021-0.919-0.043-2.756-0.064-3.653
		c3.268-1.132,6.857-0.32,10.253-0.449C234.322,160.59,234.322,162.662,234.301,163.708z"/>
	<path fill="#4B227B" d="M225.799,173.385c10.168-0.192,20.379,0.32,30.525-0.662c-0.085,4.7-0.064,9.378-0.192,14.077
		c-7.904-0.171-15.829-0.064-23.732-0.085l0.854,2.136c8.075,0.085,16.149-0.128,24.224,0.107c-0.085,1.944-0.214,3.888-0.384,5.832
		c-10.253-0.107-20.507,0.128-30.739-0.171c-0.064-4.593-0.064-9.207,0.021-13.799c7.626-0.107,15.273,0.214,22.921-0.128
		c-0.47-0.363-1.431-1.068-1.923-1.431c-7.22-0.021-14.44-0.064-21.66-0.021C225.735,177.764,225.777,174.837,225.799,173.385
		L225.799,173.385z"/>
	<path fill="#4F207C" d="M319.212,176.141c2.457-0.085,4.913-0.192,7.391-0.32c0.085,3.973,0.128,7.968,0.128,11.941
		c7.69,0.064,15.359-0.021,23.027,0.085c-0.021,1.453-0.043,4.358-0.064,5.81c-10.147-0.043-20.293,0.15-30.44-0.107
		C319.169,187.74,319.254,181.951,319.212,176.141L319.212,176.141z"/>
	<path fill="#4D207C" d="M354.586,180.285c15.145,0.043,30.269-0.043,45.414,0.043c-0.043,1.602-0.107,4.785-0.128,6.387
		c-15.145,0-30.29,0.064-45.435-0.064C354.479,185.048,354.565,181.865,354.586,180.285L354.586,180.285z"/>
</g>
</svg>
