<?xml version="1.0" encoding="utf-8"?>
<!-- Generator: Adobe Illustrator 17.0.0, SVG Export Plug-In . SVG Version: 6.00 Build 0)  -->
<!DOCTYPE svg PUBLIC "-//W3C//DTD SVG 1.1//EN" "http://www.w3.org/Graphics/SVG/1.1/DTD/svg11.dtd">
<svg version="1.1" id="레이어_1" xmlns="http://www.w3.org/2000/svg" xmlns:xlink="http://www.w3.org/1999/xlink" x="0px"
	 y="0px" width="400px" height="200px" viewBox="0 0 400 200" enable-background="new 0 0 400 200" xml:space="preserve">
<g>
	<path d="M13.768,63.307c8.819-9.23,21.436-14.54,34.177-14.713c97.261-0.008,194.53,0,291.799-0.008
		c8.228,0.066,16.636-0.575,24.642,1.792c16.669,4.389,30.313,18.486,34.144,35.294c1.989,7.874,1.34,16.036,1.43,24.067
		c0.033,13.866-0.049,27.724,0.041,41.59c-11.318,0.115-22.645,0.197-33.955-0.008c-0.23-1.249-0.271-2.515-0.296-3.764
		c0.099-16.702,0.016-33.412,0.058-50.122c0.37-6.765-4.899-13.25-11.565-14.335c-3.181-0.436-6.395-0.238-9.592-0.255
		c-98.634,0.025-197.275-0.008-295.909,0.016c-7.504-0.321-14.359,6.296-14.318,13.8c-0.074,18.247,0,36.494-0.025,54.75
		c-11.466-0.033-22.941,0.107-34.398-0.074c0.09-18.231-0.025-36.462,0.049-54.684C0.247,84.332,5.08,72.102,13.768,63.307
		L13.768,63.307z"/>
	<path d="M230.613,101.026c1.866-0.016,3.748-0.025,5.622-0.025c0,1.438,0.008,2.885,0.008,4.34
		c-1.874-0.008-3.748-0.016-5.622-0.016C230.613,103.886,230.605,102.448,230.613,101.026L230.613,101.026z"/>
	<path d="M68.797,103.467c1.899-0.041,3.806-0.074,5.713-0.09c0.09,3.847,0.09,7.702,0.197,11.557c4.151,0,8.31,0,12.461-0.09
		c0.173-3.756-0.485-7.611,0.378-11.285c1.8-0.214,3.625-0.164,5.441-0.173c0.074,9.156,0.066,18.313,0,27.469
		c-1.915,0.008-3.822,0.025-5.737,0.041c-0.099-3.921-0.099-7.841-0.107-11.754c-4.175-0.049-8.343-0.049-12.51,0.008
		c-0.016,3.921-0.008,7.85-0.14,11.778c-1.907-0.041-3.814-0.066-5.713-0.09C68.739,121.706,68.706,112.582,68.797,103.467
		L68.797,103.467z"/>
	<path d="M248.113,105.21c4.948-2.918,10.891-1.644,16.324-1.644c-0.041,1.34-0.09,2.68-0.132,4.028
		c-5.195,0.09-10.398,0.025-15.592,0.082c-0.033,6.354-0.049,12.716,0.008,19.077c5.507,0.395,11.211-0.83,16.57,0.83
		c-2.384,1.414-4.817,3.173-7.693,3.247c-3.493,0.132-7.003,0.255-10.48-0.148c-2.532-0.37-4.529-2.63-4.455-5.211
		c-0.148-4.948-0.279-9.929,0.09-14.869C242.951,107.716,245.934,106.451,248.113,105.21L248.113,105.21z"/>
	<path d="M99.628,110.018c1.866-0.008,3.732-0.008,5.597,0c0.049,5.606-0.025,11.211,0.066,16.817c2.959,0.025,5.918,0.025,8.885,0
		c0.025-5.581,0.016-11.17,0-16.751c1.89-0.033,3.789-0.058,5.68-0.058c0.074,7.307,0.008,14.606,0.074,21.913
		c0.296,3.871-1.899,8.039-5.589,9.493c-0.214-4.11-0.14-8.228-0.205-12.337c-3.164,0.723-6.271,1.734-9.502,2.154
		c-2.417,0.312-4.923-1.701-4.973-4.184C99.324,121.394,99.571,115.698,99.628,110.018L99.628,110.018z"/>
	<path d="M125.955,110.018c1.882-0.008,3.756-0.008,5.639,0c0.074,5.606-0.025,11.211,0.09,16.817
		c2.934,0.025,5.877,0.025,8.811,0.008c0.033-5.573,0.049-11.146-0.016-16.718c1.907-0.058,3.814-0.099,5.721-0.132
		c0.041,6.954,0.049,13.899,0,20.845c-1.693,0.025-3.395,0.041-5.088,0.074c-0.263-0.436-0.781-1.307-1.036-1.743
		c-3.025,0.723-6.008,1.693-9.099,2.063c-2.408,0.312-4.899-1.66-4.965-4.134C125.626,121.418,125.906,115.706,125.955,110.018
		L125.955,110.018z"/>
	<path d="M152.471,110.026c1.718-0.016,3.444-0.033,5.17-0.041c0.23,0.452,0.69,1.364,0.921,1.825
		c2.844-0.781,5.671-1.685,8.606-2.088c2.515-0.584,5.384,1.479,5.384,4.118c0.247,5.68,0.008,11.368,0.041,17.047
		c-1.923-0.041-3.847-0.074-5.77-0.132c0.041-5.597,0.025-11.203,0.016-16.801c-2.934-0.205-5.869-0.222-8.803-0.025
		c-0.164,5.639-0.041,11.285-0.115,16.932c-1.816,0-3.633,0.008-5.441,0.016C152.446,123.925,152.438,116.972,152.471,110.026
		L152.471,110.026z"/>
	<path d="M230.622,110.034c1.866-0.016,3.732-0.025,5.606-0.025c0.107,6.962,0.156,13.916-0.033,20.877
		c-1.866-0.016-3.715-0.025-5.573-0.041C230.556,123.909,230.564,116.972,230.622,110.034L230.622,110.034z"/>
	<path d="M294.421,110.018c1.734-0.008,3.477-0.008,5.219-0.008c0.263,0.468,0.789,1.397,1.052,1.866
		c2.655-1.71,5.729-2.433,8.869-2.408c0.016,1.414,0.041,2.852,0.066,4.282c-3.23-0.066-6.452,0.016-9.658,0.378
		c0.058,5.573,0.049,11.154,0,16.727c-1.849,0.008-3.699,0.016-5.54,0.025C294.289,123.925,294.306,116.972,294.421,110.018
		L294.421,110.018z"/>
	<path d="M198.607,101.1c-1.89-0.058-3.773-0.09-5.663-0.123c-0.016,2.975-0.041,5.951-0.09,8.935
		c-3.115,0.033-6.428-0.148-9.181,1.586c-1.989,1.192-4.776,2.211-5.219,4.8c-0.395,3.575-0.279,7.208-0.099,10.8
		c-0.14,2.351,2.17,4.028,4.323,4.2c3.255-0.238,6.304-1.669,9.567-1.8c0.337,0.337,1.011,1.003,1.348,1.34
		c1.57,0.033,3.156,0.066,4.726-0.074C198.977,120.909,198.36,110.988,198.607,101.1z M192.861,126.835
		c-2.967,0.033-5.943,0.033-8.902,0.008c-0.033-4.282-0.041-8.565-0.033-12.847c2.918-0.214,5.877-0.477,8.77,0.099
		C193.182,118.32,192.845,122.586,192.861,126.835z"/>
	<path d="M224.432,110.034c-5.022,0.288-10.537-1.151-15.099,1.595c-1.923,1.159-4.644,2.203-4.923,4.775
		c-0.345,3.765-0.329,7.578-0.025,11.359c0.181,2.17,2.581,3.625,4.628,3.485c3.14-0.345,6.165-1.34,9.222-2.104
		c0.263,0.436,0.789,1.315,1.052,1.751c1.718-0.016,3.436-0.033,5.154-0.049C224.473,123.909,224.482,116.972,224.432,110.034z
		 M218.662,126.86c-2.951,0.008-5.902,0-8.852-0.025c-0.132-4.299-0.132-8.598,0-12.888c2.951-0.205,5.91-0.205,8.869-0.025
		C218.703,118.229,218.687,122.544,218.662,126.86z"/>
	<path d="M288.339,110.075c-4.102,0.049-8.269-0.518-12.305,0.304c-2.68,1.077-5.523,2.351-7.389,4.636
		c-1.151,3.863-0.6,8.047-0.534,12.033c-0.107,2.597,2.655,4.504,5.063,4.176c3.074-0.419,6.041-1.373,9.058-2.071
		c0.263,0.444,0.773,1.332,1.027,1.784c1.693-0.058,3.386-0.107,5.088-0.156C288.314,123.876,288.339,116.98,288.339,110.075z
		 M282.659,126.827c-3.017,0.041-6.033,0.033-9.05-0.016c-0.041-4.266-0.041-8.532,0-12.79c3.017-0.296,6.058-0.288,9.074,0.008
		C282.684,118.295,282.684,122.561,282.659,126.827z"/>
	<path d="M331.483,115.541c0.164-4.85,0.09-9.707-0.107-14.548c-1.816,0-3.625,0.008-5.433,0.025
		c-0.008,2.688,0.156,5.392-0.164,8.08c-1.669,1.701-4.636,0.436-6.756,1.373c-2.696,1.159-5.811,2.334-7.398,4.94
		c-0.74,3.839-0.386,7.817-0.312,11.713c-0.115,2.712,2.934,4.554,5.408,4.044c2.91-0.411,5.721-1.307,8.565-2.022
		c0.247,0.436,0.74,1.307,0.986,1.751c1.685-0.016,3.386-0.016,5.08-0.016C331.844,125.766,331.515,120.646,331.483,115.541z
		 M325.836,126.827c-2.975,0.033-5.951,0.033-8.918,0.008c-0.058-4.291-0.066-8.573-0.016-12.847
		c2.975-0.238,5.967-0.247,8.951-0.016C325.959,118.254,325.959,122.544,325.836,126.827z"/>
</g>
</svg>
