<?xml version="1.0" encoding="utf-8"?>
<!-- Generator: Adobe Illustrator 17.0.0, SVG Export Plug-In . SVG Version: 6.00 Build 0)  -->
<!DOCTYPE svg PUBLIC "-//W3C//DTD SVG 1.1//EN" "http://www.w3.org/Graphics/SVG/1.1/DTD/svg11.dtd">
<svg version="1.1" id="레이어_1" xmlns="http://www.w3.org/2000/svg" xmlns:xlink="http://www.w3.org/1999/xlink" x="0px"
	 y="0px" width="400px" height="200px" viewBox="0 0 400 200" enable-background="new 0 0 400 200" xml:space="preserve">
<g>
	<g>
		<g>
			<path fill="#1E1E1E" d="M55.244,69.475C38.544,69.475,25,80.164,25,93.358c0,8.482,5.611,15.922,14.037,20.168l-2.849,10.64
				c-0.11,0.324-0.021,0.668,0.219,0.904c0.153,0.165,0.372,0.253,0.614,0.253c0.175,0,0.361-0.071,0.526-0.198l12.251-8.273
				c1.776,0.253,3.595,0.394,5.446,0.394c16.699,0,30.244-10.69,30.244-23.889C85.488,80.164,71.943,69.475,55.244,69.475z"/>
		</g>
	</g>
	<g>
		<g>
			<g>
				<path id="XMLID_21_" fill="#1E1E1E" d="M110.437,117.217h-5.666V69.605l5.666-1.233V117.217z M125.591,82.664l4.435,3.202
					L119.122,99.54l12.627,15.152l-4.375,3.389l-14.906-18.234L125.591,82.664z"/>
				<path id="XMLID_18_" fill="#1E1E1E" d="M136.766,108.164c0-3.408,1.138-6.007,3.421-7.792c2.278-1.786,5.594-2.681,9.945-2.681
					h6.533v-2.155c0-5.215-2.301-7.822-6.902-7.822c-1.476,0-3.028,0.204-4.648,0.615c-1.624,0.411-3.111,0.924-4.467,1.54
					l-1.664-4.004c1.684-0.945,3.501-1.672,5.453-2.188c1.949-0.512,3.849-0.77,5.695-0.77c7.968,0,11.95,4.251,11.95,12.75v21.558
					h-4.186l-0.678-3.695c-1.684,1.355-3.48,2.402-5.389,3.142c-1.909,0.74-3.725,1.108-5.453,1.108
					c-2.995,0-5.345-0.852-7.05-2.557C137.62,113.511,136.766,111.161,136.766,108.164z M147.401,113.214
					c0.778,0,1.584-0.102,2.422-0.309c0.838-0.204,1.676-0.471,2.515-0.8c0.838-0.328,1.628-0.73,2.362-1.201
					c0.738-0.473,1.391-0.976,1.965-1.51v-7.883h-5.891c-2.984,0-5.161,0.513-6.533,1.54c-1.367,1.027-2.053,2.648-2.053,4.866
					C142.188,111.448,143.924,113.214,147.401,113.214z"/>
				<path id="XMLID_14_" fill="#1E1E1E" d="M177.834,117.217h-5.667V69.605l5.667-1.233V117.217z M192.984,82.664l4.435,3.202
					L186.52,99.54l12.624,15.152l-4.371,3.389l-14.906-18.234L192.984,82.664z"/>
				<path id="XMLID_11_" fill="#1E1E1E" d="M204.164,108.164c0-3.408,1.139-6.007,3.417-7.792c2.282-1.786,5.594-2.681,9.949-2.681
					h6.528v-2.155c0-5.215-2.298-7.822-6.897-7.822c-1.48,0-3.028,0.204-4.651,0.615c-1.624,0.411-3.111,0.924-4.463,1.54
					l-1.664-4.004c1.684-0.945,3.501-1.672,5.45-2.188c1.949-0.512,3.849-0.77,5.698-0.77c7.964,0,11.95,4.251,11.95,12.75v21.558
					h-4.191l-0.678-3.695c-1.684,1.355-3.477,2.402-5.389,3.142c-1.909,0.74-3.725,1.108-5.45,1.108c-3,0-5.35-0.852-7.054-2.557
					C205.015,113.511,204.164,111.161,204.164,108.164z M214.799,113.214c0.774,0,1.584-0.102,2.422-0.309
					c0.838-0.204,1.676-0.471,2.515-0.8c0.838-0.328,1.624-0.73,2.362-1.201c0.734-0.473,1.388-0.976,1.961-1.51v-7.883h-5.887
					c-2.987,0-5.165,0.513-6.532,1.54c-1.372,1.027-2.053,2.648-2.053,4.866C209.586,111.448,211.322,113.214,214.799,113.214z"/>
				<path id="XMLID_8_" fill="#1E1E1E" d="M252.277,82.97c4.68,0,8.357,1.52,11.024,4.557c2.67,3.039,4.006,7.392,4.006,13.059
					c0,5.584-1.323,9.877-3.974,12.875c-2.647,2.995-6.336,4.496-11.056,4.496c-4.68,0-8.357-1.499-11.024-4.496
					c-2.67-2.998-4.006-7.29-4.006-12.875c0-5.667,1.344-10.019,4.034-13.059C243.972,84.49,247.637,82.97,252.277,82.97z
					 M252.277,87.528c-2.956,0-5.225,1.108-6.805,3.326c-1.584,2.218-2.374,5.461-2.374,9.732c0,4.231,0.79,7.423,2.374,9.578
					c1.58,2.155,3.849,3.234,6.805,3.234c2.995,0,5.285-1.079,6.869-3.234c1.58-2.155,2.37-5.348,2.37-9.578
					c0-4.271-0.79-7.515-2.37-9.732C257.563,88.637,255.273,87.528,252.277,87.528z"/>
			</g>
		</g>
		<g>
			<path fill="#1E1E1E" d="M284.627,117.524v12.627h-8.993V83.585h6.344l1.108,2.957c1.91-1.91,4.805-3.942,9.486-3.942
				c8.808,0,12.996,6.591,12.935,17.247c0,11.149-6.468,18.294-15.707,18.294C288.014,118.139,286.659,118.016,284.627,117.524z
				 M284.627,91.099v20.142c0.493,0.062,1.725,0.185,2.895,0.185c6.406,0,8.87-4.496,8.87-11.58c0-6.221-1.663-9.978-6.776-9.978
				C287.953,89.867,286.106,90.36,284.627,91.099z"/>
			<path fill="#1E1E1E" d="M324.565,96.704h5.113v-1.108c0-3.696-2.095-5.42-5.728-5.42c-2.772,0-6.344,0.8-9.239,2.218
				l-2.463-6.036c3.203-2.218,8.131-3.758,12.504-3.758c8.623,0,13.304,4.558,13.304,13.243v21.374h-6.344l-0.924-2.833
				c-3.634,2.648-6.96,3.758-9.978,3.758c-6.591,0-10.286-3.942-10.286-10.594C310.521,100.462,315.449,96.704,324.565,96.704z
				 M329.678,108.592v-6.16h-4.127c-4.62,0-6.96,1.663-6.96,4.989c0,2.525,1.293,3.758,3.942,3.758
				C324.996,111.179,328.138,109.948,329.678,108.592z"/>
			<path fill="#1E1E1E" d="M364.467,113.766c-3.141,8.376-6.898,14.474-12.381,17.862l-5.543-5.113
				c3.203-2.772,5.482-5.482,7.453-9.116l-11.949-32.583l8.931-2.402l7.638,26.425l7.576-26.547L375,84.756L364.467,113.766z"/>
		</g>
	</g>
</g>
</svg>
