<?xml version="1.0" encoding="utf-8"?>
<!-- Generator: Adobe Illustrator 17.0.0, SVG Export Plug-In . SVG Version: 6.00 Build 0)  -->
<!DOCTYPE svg PUBLIC "-//W3C//DTD SVG 1.1//EN" "http://www.w3.org/Graphics/SVG/1.1/DTD/svg11.dtd">
<svg version="1.1" id="레이어_1" xmlns="http://www.w3.org/2000/svg" xmlns:xlink="http://www.w3.org/1999/xlink" x="0px"
	 y="0px" width="400px" height="200px" viewBox="0 0 400 200" enable-background="new 0 0 400 200" xml:space="preserve">
<g>
	<g>
		<g>
			<path fill="#FFFFFF" d="M35.331,64.879C16.363,64.879,0.98,77.02,0.98,92.005c0,9.634,6.373,18.084,15.943,22.907l-3.236,12.085
				c-0.125,0.368-0.024,0.759,0.249,1.027c0.174,0.187,0.423,0.287,0.697,0.287c0.199,0,0.41-0.081,0.597-0.225l13.915-9.396
				c2.017,0.287,4.083,0.448,6.186,0.448c18.967,0,34.351-12.142,34.351-27.133C69.682,77.02,54.298,64.879,35.331,64.879z"/>
		</g>
	</g>
	<g>
		<g>
			<g>
				<path id="XMLID_21_" fill="#FFFFFF" d="M98.019,119.104h-6.436V65.027l6.436-1.401V119.104z M115.231,79.859l5.037,3.637
					l-12.384,15.531l14.342,17.21l-4.969,3.849l-16.93-20.71L115.231,79.859z"/>
				<path id="XMLID_18_" fill="#FFFFFF" d="M127.924,108.822c0-3.871,1.293-6.823,3.885-8.85c2.587-2.029,6.354-3.045,11.296-3.045
					h7.42v-2.448c0-5.923-2.614-8.884-7.839-8.884c-1.676,0-3.439,0.232-5.279,0.699c-1.845,0.467-3.534,1.05-5.074,1.749
					l-1.89-4.548c1.913-1.073,3.976-1.899,6.194-2.485c2.214-0.581,4.372-0.874,6.468-0.874c9.05,0,13.573,4.828,13.573,14.481
					v24.486h-4.755l-0.77-4.197c-1.913,1.539-3.953,2.728-6.121,3.569c-2.168,0.84-4.231,1.259-6.194,1.259
					c-3.402,0-6.071-0.968-8.007-2.904C128.894,114.895,127.924,112.226,127.924,108.822z M140.003,114.558
					c0.884,0,1.799-0.116,2.751-0.351c0.952-0.232,1.904-0.535,2.856-0.909c0.952-0.373,1.849-0.829,2.683-1.364
					c0.838-0.537,1.58-1.109,2.232-1.715v-8.954h-6.691c-3.389,0-5.862,0.583-7.42,1.749c-1.553,1.166-2.332,3.008-2.332,5.527
					C134.082,112.552,136.054,114.558,140.003,114.558z"/>
				<path id="XMLID_14_" fill="#FFFFFF" d="M174.568,119.104h-6.436V65.027l6.436-1.401V119.104z M191.776,79.859l5.037,3.637
					l-12.379,15.531l14.338,17.21l-4.965,3.849l-16.93-20.71L191.776,79.859z"/>
				<path id="XMLID_11_" fill="#FFFFFF" d="M204.474,108.822c0-3.871,1.294-6.823,3.881-8.85c2.592-2.029,6.354-3.045,11.3-3.045
					h7.415v-2.448c0-5.923-2.61-8.884-7.834-8.884c-1.681,0-3.439,0.232-5.283,0.699c-1.845,0.467-3.534,1.05-5.069,1.749
					l-1.89-4.548c1.913-1.073,3.976-1.899,6.19-2.485c2.214-0.581,4.372-0.874,6.472-0.874c9.046,0,13.573,4.828,13.573,14.481
					v24.486h-4.76l-0.77-4.197c-1.913,1.539-3.949,2.728-6.121,3.569c-2.168,0.84-4.231,1.259-6.19,1.259
					c-3.407,0-6.076-0.968-8.012-2.904C205.44,114.895,204.474,112.226,204.474,108.822z M216.553,114.558
					c0.879,0,1.799-0.116,2.751-0.351c0.952-0.232,1.904-0.535,2.856-0.909c0.952-0.373,1.845-0.829,2.683-1.364
					c0.834-0.537,1.576-1.109,2.227-1.715v-8.954h-6.686c-3.393,0-5.866,0.583-7.419,1.749c-1.558,1.166-2.332,3.008-2.332,5.527
					C210.632,112.552,212.604,114.558,216.553,114.558z"/>
				<path id="XMLID_8_" fill="#FFFFFF" d="M259.121,80.207c5.315,0,9.492,1.726,12.521,5.176c3.033,3.452,4.55,8.396,4.55,14.832
					c0,6.342-1.503,11.218-4.514,14.623c-3.006,3.402-7.196,5.106-12.557,5.106c-5.315,0-9.492-1.703-12.521-5.106
					c-3.033-3.405-4.55-8.28-4.55-14.623c0-6.436,1.526-11.38,4.582-14.832C249.688,81.933,253.851,80.207,259.121,80.207z
					 M259.121,85.384c-3.357,0-5.935,1.259-7.729,3.778c-1.799,2.519-2.696,6.203-2.696,11.054c0,4.805,0.897,8.431,2.696,10.879
					c1.795,2.448,4.372,3.673,7.729,3.673c3.402,0,6.003-1.225,7.802-3.673c1.795-2.448,2.692-6.074,2.692-10.879
					c0-4.851-0.897-8.535-2.692-11.054C265.124,86.643,262.523,85.384,259.121,85.384z"/>
			</g>
		</g>
		<g>
			<path fill="#FFFFFF" d="M295.864,119.453v14.342h-10.214V80.905h7.206l1.259,3.358c2.169-2.169,5.457-4.477,10.774-4.477
				c10.004,0,14.761,7.486,14.691,19.589c0,12.663-7.346,20.778-17.84,20.778C299.711,120.152,298.172,120.012,295.864,119.453z
				 M295.864,89.44v22.877c0.56,0.07,1.959,0.21,3.288,0.21c7.276,0,10.074-5.107,10.074-13.152c0-7.066-1.889-11.333-7.696-11.333
				C299.641,88.041,297.543,88.6,295.864,89.44z"/>
			<path fill="#FFFFFF" d="M341.225,95.806h5.807v-1.259c0-4.198-2.379-6.156-6.506-6.156c-3.148,0-7.206,0.909-10.494,2.519
				l-2.798-6.856c3.638-2.519,9.235-4.268,14.202-4.268c9.794,0,15.111,5.177,15.111,15.041v24.276h-7.206l-1.049-3.218
				c-4.128,3.008-7.905,4.268-11.333,4.268c-7.486,0-11.683-4.477-11.683-12.033C325.274,100.074,330.871,95.806,341.225,95.806z
				 M347.032,109.308v-6.996h-4.687c-5.247,0-7.905,1.889-7.905,5.667c0,2.868,1.469,4.268,4.477,4.268
				C341.715,112.247,345.283,110.848,347.032,109.308z"/>
			<path fill="#FFFFFF" d="M386.546,115.185c-3.568,9.514-7.835,16.44-14.062,20.288l-6.296-5.807
				c3.638-3.148,6.226-6.226,8.465-10.354l-13.572-37.008l10.144-2.728l8.675,30.013l8.605-30.152l10.004,2.798L386.546,115.185z"/>
		</g>
	</g>
</g>
</svg>
