<?xml version="1.0" encoding="utf-8"?>
<!-- Generator: Adobe Illustrator 17.0.0, SVG Export Plug-In . SVG Version: 6.00 Build 0)  -->
<!DOCTYPE svg PUBLIC "-//W3C//DTD SVG 1.1//EN" "http://www.w3.org/Graphics/SVG/1.1/DTD/svg11.dtd">
<svg version="1.1" id="레이어_1" xmlns="http://www.w3.org/2000/svg" xmlns:xlink="http://www.w3.org/1999/xlink" x="0px"
	 y="0px" width="400px" height="200px" viewBox="0 0 400 200" enable-background="new 0 0 400 200" xml:space="preserve">
<g>
	<path fill="#034B98" d="M164.605,70.63c4.602-1.904,7.579,3.599,6.773,7.402c0.089,4.875-0.184,9.757,0.044,14.625
		c1.72,0.419,3.256,0.273,4.589-0.432c2.368-6.303-2.476-15.082,2.171-20.681c2.939-2.622,7.382-0.355,7.725,3.39
		c0.089,18.142,0.121,36.29-0.013,54.432c-2.755,1.346-6.373-0.381-9.426,0.628c-0.19-9.268,0.171-18.542-0.089-27.81
		c-1.663-0.083-3.326-0.076-4.983,0.025c-0.216,8.823,0.203,17.66-0.127,26.477c-2.044,1.879-5.58,0.387-8.163,0.8
		c-2.926,0.305-0.971-3.694-2.672-5.034c-9.458-0.248-18.916,0.114-28.368-0.121c-5.599-1.403-8.385-7.256-8.265-12.638
		c0.197-11.851-0.641-24.153,0.381-35.757c10.334-0.952,21.233-0.267,31.777-0.343c1.536,2.463,1.231,6.811,0.375,9.636
		c-7.16,1.085-14.974,0.057-22.382,0.476c0.184,9.522-0.609,19.443,0.4,28.724c8.646,0.99,17.933,0.248,26.826,0.394
		c0.133-13.102-0.07-26.21,0.051-39.318C161.71,73.658,162.434,71.075,164.605,70.63L164.605,70.63z"/>
	<path fill="#034B98" d="M246.491,73.239c3.809-0.444,8.347,1.377,9.401,5.364c1.733,7.198-0.736,15.558,0.997,22.446
		c6.107-0.768,2.342,6.646,3.32,9.972c-8.62,0.197-17.253-0.152-25.867,0.114c-1.936,5.529-0.121,12.315-0.819,18.307
		c-2.361,0-7.078,0-9.433-0.006c-0.216-6.113,0.165-12.232-0.095-18.345c-8.862-0.171-17.723,0.121-26.578-0.076
		c0-2.361,0-7.078,0.006-9.439c16.688-0.178,33.389,0.114,50.078-0.102c-0.025-6.075,0.279-12.169-0.057-18.231
		c-15.831-1.841-32.126-0.121-48.116-0.813c-0.044-2.926-0.184-5.865,0.025-8.792C215.051,73.22,230.844,74.242,246.491,73.239
		L246.491,73.239z"/>
	<path fill="#034B98" d="M302.39,69.513c-6.633-0.089-13.718,2.006-17.393,7.903c-3.91,6.24-1.631,15.8,5.085,19.031
		c6.716,3.79,14.905,3.891,22.211,1.911c6.716-1.263,12.391-7.535,12.029-14.556C323.757,73.246,311.626,68.25,302.39,69.513z
		 M307.602,89.82c-4.996,0.54-12.34,1.193-14.974-4.221c-0.743-4.151,3.783-6.17,7.205-6.627c4.85-0.514,12.93-0.908,14.981,4.843
		C315.175,87.808,310.687,89.122,307.602,89.82z"/>
	<g>
		<path fill="#034B98" d="M33.408,90.309c-2.622-5.859-9.547-7.871-15.495-6.462c-2.088,8.087-0.203,17.818-0.73,26.451
			c3.396,2.837,8.614,1.346,12.162-0.336C35.694,105.55,35.23,96.891,33.408,90.309z"/>
		<path fill="#034B98" d="M115.917,93.692c-0.578,13.972-14.416,20.935-26.439,23.677c-18.428,5.669-40.499,1.016-55.943,14.663
			c0.622-2.812,3.802-3.999,5.783-5.757c13.038-8.093,29.301-7.903,43.305-12.619c-3.599-0.146-7.205,0.006-10.804-0.063
			c2.33-10.372,1.009-21.164,0.533-31.682c6.995,1.181,18.967-3.866,22.014,5.224c0.394,4.634-4.596,6.932-8.151,8.462
			c6.881,0.044,12.378,7.129,8.303,13.546c9.503-3.764,15.552-14.727,12.772-24.756c-2.209-7.522-8.944-12.461-16.003-15.114
			c-12.797-5.573-27.054-7.516-40.912-6.1c-12.105,1.098-24.211,4.424-34.405,11.191C7.243,79.841,0.451,89.084,0,99.634
			c0.051,13.159,10.328,23.766,21.544,29.225c25.15,12.327,57.232,11.324,80.668-4.431
			C112.077,117.814,118.824,105.715,115.917,93.692z M54.813,82.158c4.126-0.368,8.271-0.463,12.423-0.273
			c0.063,1.689,0.07,3.377,0.013,5.072c-4.843-3.713-12.131-4.78-16.999-0.527c-4.875,5.586-5.377,14.524-1.263,20.694
			c3.18,4.107,9.388,5.281,14.035,4.151c1.028-4.272,0.413-9.071-0.241-13.527c1.701-0.082,3.409-0.076,5.11,0.019
			c-0.368,5.015-1.289,10.131-0.108,15.101c-8.208,1.346-20.827,2.85-24.706-6.83C38.328,96.618,44.028,83.529,54.813,82.158z
			 M12.67,113.561c0.14-10.061,1.79-20.256-0.267-30.228c-0.197-0.552-0.063-1.016,0.4-1.39c5.643-0.108,11.299-0.26,16.942-0.006
			c14.403,4.107,11.864,28.629-2.387,31.18C22.516,113.91,17.558,113.637,12.67,113.561z"/>
	</g>
	<path fill="#034B98" d="M78.192,83.828c3.783-0.66,11.934-0.362,10.677,5.669c0.108,5.389-7.554,6.126-11.42,5.713
		C77.792,91.477,76.453,87.325,78.192,83.828L78.192,83.828z"/>
	<path fill="#034B98" d="M77.449,97.107c5.802-1.911,14.803,2.088,12.962,9.109c-0.844,5.396-7.116,6.354-11.623,5.434
		C75.824,107.53,78.091,101.785,77.449,97.107L77.449,97.107z"/>
	<path fill="#034B98" d="M272.454,101.62c20.668-0.159,41.356-0.108,62.024-0.032c0,2.361,0,7.071-0.006,9.433
		c-16.492,0.165-32.99-0.102-49.481,0.095c0.133,2-0.793,4.939,1.447,6.17c15.584,0.368,31.18-0.095,46.771,0.184
		c-0.565,2.933,1.206,6.887-0.762,9.376c-16.428,0.121-32.875,0.184-49.291-0.013c-7.655-1.181-8.379-9.42-7.789-15.609
		C269.737,112.412,270.784,104.464,272.454,101.62L272.454,101.62z"/>
	<path fill="#034B98" d="M395.398,68.542c-3.314,0.209-4.704,3.656-5.764,6.303c-5.592,2.545-3.383-4.85-7.573-5.7
		c-4.145-1.181-5.656,2.825-7.033,5.65c-3.948,0.311-7.922,0.063-11.858,0.044c-0.755-2.882-2.539-7.078-6.234-6.088
		c-2.888,0.939-2.983,4.113-4.799,6.037c-4.171,0.083-8.335,0.121-12.499,0.127c0.19,3.79-2.12,9.928,3.644,9.503
		c-2.304,4.469-0.578,9.833,2.488,13.464c4.983,3.783,11.642,5.446,17.698,3.39c6.824-1.435,12.48-9.198,9.515-16.028
		c-0.787-1.663,1.72-1.568,2.742-1.498c0.089,5.256,0.108,10.512-0.019,15.768c-6.38,0.222-13.4,3.396-15.819,9.623
		c-2.857,6.551,0.521,14.816,7.027,17.748c8.151,3.726,17.964,3.282,25.962-0.622c3.859-1.657,5.954-5.637,6.9-9.553
		c0.241-13.73,0.076-27.467,0.082-41.204C400.61,72.363,398.229,69.437,395.398,68.542z M353.052,91.877
		c-2.672-2.228-1.079-6.418,1.974-7.306c3.409-0.813,8.379-0.419,9.299,3.688C364.567,93.794,356.315,95.8,353.052,91.877z
		 M385.972,83.745c2.412-1.003,6.081,0.476,4.393,3.821c0.038,4.456,0.063,8.912-0.038,13.368
		C381.922,100.402,387.406,89.16,385.972,83.745z M379.573,119.947c-4.056,0.387-10.004-0.673-11.413-5.123
		c0.229-4.101,4.323-5.63,7.852-5.992c5.091-1.149,12.848-0.273,14.962,5.396C389.761,119.204,383.775,119.737,379.573,119.947z"/>
</g>
</svg>
