<?xml version="1.0" encoding="utf-8"?>
<!-- Generator: Adobe Illustrator 17.0.0, SVG Export Plug-In . SVG Version: 6.00 Build 0)  -->
<!DOCTYPE svg PUBLIC "-//W3C//DTD SVG 1.1//EN" "http://www.w3.org/Graphics/SVG/1.1/DTD/svg11.dtd">
<svg version="1.1" id="레이어_1" xmlns="http://www.w3.org/2000/svg" xmlns:xlink="http://www.w3.org/1999/xlink" x="0px"
	 y="0px" width="400px" height="200px" viewBox="0 0 400 200" enable-background="new 0 0 400 200" xml:space="preserve">
<g>
	<g>
		<path fill="#34A12E" d="M119.06,121.026c-6.942-2.203-14.885-7.943-17.755-14.685c-2.87,6.742-10.813,12.482-17.755,14.685
			l-2.937-2.736c8.677-3.204,16.354-12.015,16.354-24.23V80.042H84.351l-2.403-3.738h37.313c0.601,0,0.734,0.734,0.734,1.869
			c0,1.134-0.134,1.868-0.734,1.868h-13.617v14.018c0,12.215,7.676,21.026,16.353,24.23L119.06,121.026z M127.338,125.031V74.302
			h6.675c1.068,0,2.002,0.935,2.002,2.002v48.727H127.338z"/>
		<path fill="#34A12E" d="M181.001,93.726c-3.471,3.738-9.745,5.54-16.487,5.54c-10.012,0-19.157-4.005-19.157-12.482
			s9.145-12.482,19.157-12.482c6.408,0,12.415,1.602,15.953,5.006h10.947v-5.006h6.675c1.068,0,2.002,0.935,2.002,2.002v30.704
			v0.667v17.355h-8.677v-16.286h-40.317l-2.403-3.738h42.72v-11.28H181.001z M164.514,78.106c-5.34,0-10.146,2.671-10.146,8.678
			c0,6.007,4.806,8.677,10.146,8.677c5.34,0,10.146-2.67,10.146-8.677C174.66,80.777,169.854,78.106,164.514,78.106z
			 M191.414,89.988v-6.943h-8.411c0.401,1.135,0.667,2.404,0.667,3.738c0,1.134-0.2,2.202-0.467,3.204H191.414z"/>
		<path fill="#34A12E" d="M238.136,127.367c-14.418,0-25.365-4.339-25.365-13.683c0-4.473,2.47-7.743,6.608-10.013h-8.878
			l-2.403-3.738h25.699v-7.609h-17.355c-2.203,0-4.005-1.803-4.005-4.006V74.969h6.675c1.068,0,2.002,0.935,2.002,2.002v9.612
			c0,1.068,0.935,2.002,2.003,2.002h41.318c0.601,0,0.734,0.735,0.734,1.869c0,1.134-0.133,1.869-0.734,1.869h-21.961v7.609h23.629
			c0.601,0,0.734,0.734,0.734,1.869c0,1.134-0.133,1.868-0.734,1.868h-9.211c4.138,2.27,6.608,5.54,6.608,10.013
			C263.501,123.028,252.554,127.367,238.136,127.367z M238.136,103.738c-9.278,0-16.354,3.204-16.354,9.946
			c0,6.741,7.076,9.945,16.354,9.945c9.278,0,16.354-3.204,16.354-9.945C254.49,106.942,247.414,103.738,238.136,103.738z"/>
		<path fill="#34A12E" d="M330.181,102.069h-23.629v5.607h18.356c1.068,0,2.002,0.935,2.002,2.002v15.353h-8.678v-13.617h-40.316
			l-2.404-3.738h22.361v-5.607h-23.296l-2.403-3.738h58.006c0.6,0,0.734,0.734,0.734,1.869
			C330.915,101.335,330.781,102.069,330.181,102.069z M330.915,91.256l-2.203,3.405c-12.549,0-22.562-2.804-26.499-7.943
			c-3.938,5.139-13.951,7.943-26.5,7.943l-2.203-3.405c12.349,0,22.161-4.339,23.563-9.879h-19.825l-2.403-3.738h22.829v-5.006
			h7.075c1.068,0,2.002,0.935,2.002,2.002v3.004h20.759c0.601,0,0.735,0.734,0.735,1.869c0,1.134-0.134,1.868-0.735,1.868h-20.158
			C308.754,86.917,318.566,91.256,330.915,91.256z"/>
		<path fill="#34A12E" d="M371.23,96.729c-2.937,3.404-8.144,5.607-14.685,5.607c-10.347,0-17.288-5.54-17.288-12.348
			c0-3.338,1.669-6.408,4.606-8.611h-5.874l-2.403-3.738h16.22v-5.006h6.943c1.068,0,2.002,0.935,2.002,2.002v3.004h14.818
			c0.601,0,0.734,0.734,0.734,1.869c0,1.134-0.133,1.868-0.734,1.868h-6.342c1.135,0.868,2.07,1.869,2.804,2.937h11.614V74.302
			h6.676c1.068,0,2.002,0.935,2.002,2.002v30.037v0.667v18.022h-45.389c-2.203,0-4.006-1.802-4.006-4.005v-16.688h6.676
			c1.068,0,2.002,0.935,2.002,2.002v3.604h32.039v-2.937v-2.67v-7.609H371.23z M356.545,81.377c-5.273,0-8.744,3.938-8.744,8.611
			c0,4.672,3.471,8.611,8.744,8.611c5.34,0,8.744-3.938,8.744-8.611C365.288,85.515,361.884,81.377,356.545,81.377z
			 M351.605,119.291c0,1.068,0.935,2.002,2.002,2.002h30.037v-7.609h-32.039V119.291z M383.645,92.992v-4.939h-10.012
			c0.133,0.6,0.2,1.268,0.2,1.936c0,1.068-0.133,2.069-0.467,3.004H383.645z"/>
	</g>
	<g>
		<g>
			<polygon fill="#FFB819" points="46.477,67.774 33.764,74.158 21.063,67.774 33.764,91.934 			"/>
			<path fill="#FFB819" d="M50.919,86.447l-0.194-0.166l9.07-3.812V69.721l-15.756,6.715c0,0-8.533,16.164-8.728,16.534
				c6.687,0.799,11.703,6.403,11.703,13.156c0,7.312-5.942,13.264-13.249,13.264c-7.31,0-13.254-5.951-13.254-13.264
				c0-6.752,5.016-12.354,11.698-13.156c-0.194-0.37-8.716-16.534-8.716-16.534L7.757,69.721v12.748l9.058,3.812l-0.194,0.166
				c-5.684,4.969-8.943,12.144-8.943,19.679c0,14.39,11.701,26.101,26.087,26.101s26.091-11.71,26.091-26.101
				C59.855,98.595,56.599,91.424,50.919,86.447z"/>
		</g>
	</g>
</g>
</svg>
