<?xml version="1.0" encoding="utf-8"?>
<!-- Generator: Adobe Illustrator 17.0.0, SVG Export Plug-In . SVG Version: 6.00 Build 0)  -->
<!DOCTYPE svg PUBLIC "-//W3C//DTD SVG 1.1//EN" "http://www.w3.org/Graphics/SVG/1.1/DTD/svg11.dtd">
<svg version="1.1" id="레이어_1" xmlns="http://www.w3.org/2000/svg" xmlns:xlink="http://www.w3.org/1999/xlink" x="0px"
	 y="0px" width="400px" height="200px" viewBox="0 0 400 200" enable-background="new 0 0 400 200" xml:space="preserve">
<g>
	<path fill="#184E9A" d="M102.18,77.745c1.867-0.061,3.734-0.032,5.601-0.029c-0.025,4.328-0.004,8.658-0.011,12.983
		c1.702,0,3.407,0,5.114-0.004c0,1.631,0.007,3.258-0.011,4.887c-1.706-0.018-3.411-0.018-5.118-0.004
		c0.036,8.507-0.007,17.011,0.025,25.514c-1.867,0.004-3.73,0.011-5.594-0.011C102.187,106.635,102.205,92.19,102.18,77.745
		L102.18,77.745z"/>
	<path fill="#184E9A" d="M27.5,77.781c1.906-0.007,3.81-0.004,5.716-0.004c-0.018,2.974-0.007,5.952-0.007,8.926
		c1.588-0.014,3.175-0.011,4.766-0.014c0,1.584-0.004,3.168,0.011,4.752c-1.588,0.014-3.175,0.014-4.763-0.007
		c-0.039,3.071-0.004,6.142-0.018,9.21c-1.895-0.018-3.792-0.011-5.687-0.007C27.507,93.018,27.542,85.399,27.5,77.781L27.5,77.781z
		"/>
	<path fill="#184E9A" d="M65.402,77.785c1.906-0.011,3.813-0.011,5.719,0c-0.011,7.615-0.004,15.227-0.007,22.841
		c-1.87,0.014-3.741,0.004-5.611,0.014c-0.014-3.064,0-6.128-0.007-9.195c-2.38,0.007-4.756,0-7.135,0.011
		c0.004-1.591,0.004-3.178,0.004-4.766c2.355,0.007,4.709,0.004,7.063,0C65.413,83.722,65.456,80.752,65.402,77.785L65.402,77.785z"
		/>
	<path fill="#184E9A" d="M9.209,78.576c1.702,0.007,3.407,0.007,5.11,0c0.119,5.15,1.498,10.56,5.175,14.349
		c1.212,1.287,2.699,2.257,4.207,3.157c-1.054,1.304-1.961,2.717-3.031,4.007c-3.508-2.702-7.288-5.652-8.833-9.959
		c-1.803,4.218-5.372,7.314-8.998,9.959C1.864,98.73,0.714,97.473,0,95.946c4.067-2.067,6.977-6.003,8.195-10.356
		C8.887,83.318,9.181,80.945,9.209,78.576L9.209,78.576z"/>
	<path fill="#184E9A" d="M46.439,78.576c1.702,0.061,3.411-0.115,5.103,0.089c0.046,4.576,1.061,9.335,3.917,13.016
		c1.287,1.67,2.992,2.942,4.795,4.007c-1.032,1.301-1.946,2.692-2.981,3.992c-3.407-2.479-6.576-5.49-8.353-9.378
		c-1.624,3.963-4.903,6.931-8.303,9.389c-0.967-1.376-2.003-2.702-2.921-4.106c3.695-1.788,6.314-5.311,7.504-9.185
		C46.095,83.887,46.252,81.21,46.439,78.576L46.439,78.576z"/>
	<path fill="#184E9A" d="M77.612,79.057c6.325,0.036,12.654,0,18.978,0.018c0.323,7.88-0.745,16.065-4.526,23.088
		c-2.974,5.49-7.797,10.188-13.8,12.18c-0.724-1.537-1.501-3.042-2.254-4.566c6.425-2.304,11.41-7.859,13.413-14.331
		c-3.817,0.165-7.64,0.018-11.46,0.082c-0.071-1.501-0.043-3.006-0.057-4.511c4.271-0.004,8.543-0.007,12.818,0.004
		c0.545-2.444,0.674-4.945,0.835-7.435c-4.651-0.007-9.302-0.011-13.951,0.004C77.597,82.077,77.597,80.569,77.612,79.057
		L77.612,79.057z"/>
	<path fill="#184E9A" d="M118.618,79.078c8.636-0.011,17.276-0.014,25.915,0.004c-0.014,1.562-0.014,3.125,0,4.687
		c-6.787,0.014-13.575-0.007-20.361,0.014c0.036,5.135,0.014,10.274,0.014,15.413c6.78-0.011,13.556-0.018,20.336,0.004
		c0.011,1.551,0.011,3.107,0.007,4.658c-8.64,0.004-17.276,0.011-25.912,0C118.621,95.598,118.618,87.339,118.618,79.078
		L118.618,79.078z"/>
	<path fill="#184E9A" d="M399.944,82.182c-0.33-3.702-3.15-6.59-6.124-8.518c-4.522-2.878-9.722-4.468-14.908-5.669
		c-6.128-1.427-12.395-2.125-18.659-2.626c-13.772-1.022-27.608-0.498-41.346,0.706c-16.846,1.53-33.581,4.246-50.065,8.045
		c-14.908,3.433-29.599,7.863-43.812,13.545c2.117,0.337,4.569,0.451,6.071,2.215c1.297,1.379,1.168,3.372,1.182,5.128
		c-1.878,0.025-3.755,0.018-5.634,0.004c0.193-1.358-0.025-3.483-1.853-3.393c-1.899-0.444-2.988,2.136-1.753,3.423
		c1.602,1.505,3.73,2.243,5.565,3.407c1.835,1.104,3.835,2.598,4.124,4.884c0.233,2.19,0.119,4.77-1.591,6.39
		c-1.771,1.688-4.372,2-6.712,2.007c-2.415-0.089-5.178-0.63-6.683-2.717c-1.212-1.574-1.114-3.641-1.107-5.512
		c2.025-0.018,4.046-0.021,6.071,0.004c0.032,1.05-0.136,2.143,0.179,3.164c0.857,1.398,3.358,1.379,4.071-0.158
		c0.415-1.079,0.144-2.394-0.781-3.118c-2.537-2.089-5.948-2.971-8.138-5.512c-1.634-1.87-1.523-4.676-0.612-6.855
		c-7.518,3.605-14.986,7.572-21.329,13.051c-3.279,2.924-6.486,6.376-7.529,10.772c-0.728,2.971,0.287,6.163,2.319,8.4
		c2.949,3.304,7.095,5.199,11.188,6.687c8.356,2.867,17.179,4.046,25.956,4.713c9.052,0.649,18.139,0.653,27.206,0.258
		c17.433-0.777,34.789-3.028,51.914-6.364c19.96-3.899,39.655-9.375,58.483-17.108c-2.272-0.301-4.788-0.291-6.64-1.835
		c-1.487-1.122-2.075-3.021-2.089-4.816c-0.039-3.225-0.004-6.45-0.018-9.675c0-1.767,0.301-3.684,1.565-5.013
		c1.613-1.771,4.142-2.211,6.425-2.261c2.372,0.043,5.027,0.513,6.633,2.429c1.258,1.473,1.265,3.508,1.272,5.339
		c-1.895,0.018-3.792,0.018-5.684,0.004c-0.028-1.043,0.186-2.282-0.588-3.125c-1.212-1.082-3.759-0.641-3.902,1.205
		c-0.104,3.82-0.025,7.65-0.039,11.474c-0.218,2.412,3.945,2.867,4.479,0.634c0.258-1.376,0.097-2.791,0.129-4.182
		c-0.788,0.004-1.577,0.007-2.358,0.007c-0.007-1.118-0.007-2.236,0.004-3.35c2.669-0.011,5.343,0,8.016-0.007
		c-0.226,3.444,0.699,7.196-1.065,10.363c4.218-2.103,8.443-4.221,12.417-6.77c4.655-2.971,9.22-6.293,12.631-10.69
		C398.772,88.614,400.316,85.482,399.944,82.182z M248.566,110.796c-0.999-6.704-1.924-13.42-2.988-20.111
		c-1.186,6.676-2.032,13.417-3.107,20.114c-2.025-0.007-4.049,0.007-6.074-0.014c1.383-7.443,2.774-14.886,4.117-22.336
		c3.318-0.021,6.64,0.004,9.962-0.014c1.437,7.443,2.745,14.911,4.138,22.364C252.598,110.792,250.58,110.8,248.566,110.796z
		 M278.263,110.785c-0.089-6.562,0.029-13.133-0.261-19.688c-1.326,6.539-2.347,13.151-3.752,19.67
		c-1.885,0.082-3.777,0.004-5.666,0.021c-1.237-6.529-2.344-13.087-3.67-19.598c-0.323,6.518-0.097,13.069-0.254,19.602
		c-1.888,0.007-3.773,0-5.655,0.004c0.204-7.446,0.369-14.9,0.498-22.35c3.049-0.007,6.103-0.007,9.156,0
		c0.942,5.626,1.72,11.284,2.781,16.886c1.132-5.59,1.842-11.27,2.827-16.89c3.035-0.007,6.071,0.018,9.109-0.018
		c0.169,7.453,0.337,14.908,0.488,22.357C281.996,110.803,280.129,110.803,278.263,110.785z M305.139,106.768
		c-0.294,1.842-1.616,3.416-3.35,4.074c-2.014,0.792-4.236,0.817-6.36,0.623c-2.107-0.229-4.332-1.168-5.389-3.111
		c-0.914-1.469-0.674-3.258-0.717-4.903c1.982-0.021,3.963-0.014,5.945-0.007c-0.004,0.914-0.078,1.831,0.05,2.742
		c0.53,1.993,4.204,1.87,4.325-0.316c0.254-1.072-0.316-2.121-1.175-2.731c-2.397-1.831-5.436-2.749-7.554-4.963
		c-1.863-1.935-1.91-5.139-0.612-7.389c1.262-2.092,3.86-2.763,6.145-2.892c2.437-0.082,5.224,0.119,7.041,1.953
		c1.347,1.368,1.358,3.416,1.315,5.207c-1.863,0-3.73,0.007-5.594-0.007c-0.071-0.882,0.19-1.91-0.398-2.655
		c-0.974-1.308-3.537-0.827-3.68,0.91c-0.258,1.072,0.531,1.971,1.365,2.509c2.49,1.698,5.537,2.644,7.568,4.97
		C305.54,102.385,305.447,104.758,305.139,106.768z M325.916,107.105c-0.341,1.516-1.423,2.809-2.816,3.476
		c-2.046,0.985-4.397,1.007-6.615,0.82c-1.993-0.204-4.139-0.999-5.192-2.816c-0.921-1.448-0.809-3.228-0.914-4.87
		c-0.018-5.089,0.004-10.173-0.011-15.259c1.913-0.029,3.824-0.011,5.741-0.021c0.025,5.705-0.057,11.414,0.036,17.115
		c0.014,1.799,2.415,2.502,3.652,1.426c0.641-0.53,0.717-1.416,0.717-2.186c-0.014-5.455-0.004-10.905-0.011-16.359
		c1.91,0.021,3.82,0,5.734,0.021c0,3.773,0.007,7.551-0.014,11.324C326.156,102.22,326.4,104.69,325.916,107.105z M351.123,110.62
		c-2.63-0.004-5.26-0.021-7.891,0.014c-2.01-5.952-3.544-12.062-5.634-17.985c0.014,5.988,0.261,11.976,0.222,17.967
		c-1.828-0.007-3.652,0-5.476,0c-0.021-7.393,0-14.785-0.011-22.178c2.77,0.007,5.544,0.004,8.317,0
		c1.702,5.766,3.358,11.546,5.085,17.305c0.176-5.758-0.151-11.539-0.147-17.305c1.846,0.004,3.695,0.018,5.544-0.014
		C351.133,95.824,351.148,103.224,351.123,110.62z"/>
	<path fill="#184E9A" d="M68.291,104.711c-3.576-2.928-8.407-3.934-12.936-3.53c-3.268,0.305-6.522,1.423-9.084,3.512
		c-2.092,1.67-3.597,4.204-3.648,6.924c-0.025,2.376,1.118,4.64,2.777,6.293c2.312,2.323,5.476,3.602,8.665,4.146
		c4.376,0.667,9.048,0.007,12.84-2.365c2.444-1.566,4.576-3.996,4.942-6.974C72.297,109.634,70.656,106.599,68.291,104.711z
		 M63.317,116.013c-3.368,1.903-7.629,1.989-11.162,0.484c-1.541-0.713-3.035-1.828-3.659-3.462
		c-0.584-1.498-0.032-3.218,1.057-4.332c1.803-1.906,4.486-2.662,7.027-2.864c2.437-0.122,4.949,0.415,7.031,1.716
		c1.387,0.907,2.673,2.319,2.681,4.071C66.334,113.545,64.887,115.11,63.317,116.013z"/>
	<path fill="#184E9A" d="M33.205,102.417c-8.801,0.036-17.602-0.004-26.403,0.018c0.004,6.221,0.007,12.438,0,18.659
		c8.801,0.014,17.605-0.014,26.407,0.011C33.201,114.878,33.208,108.646,33.205,102.417z M12.251,116.483
		c-0.025-3.136,0-6.268-0.011-9.4c5.171-0.046,10.342-0.004,15.513-0.025c0,3.146-0.007,6.289,0.004,9.435
		C22.59,116.487,17.419,116.505,12.251,116.483z"/>
	<path fill="#184E9A" d="M115.697,112.175c10.611,0.011,21.225,0.007,31.836,0.004c-0.004,1.588,0.007,3.175-0.011,4.766
		c-10.607-0.053-21.214-0.021-31.821-0.018C115.7,115.343,115.7,113.76,115.697,112.175L115.697,112.175z"/>
</g>
</svg>
