<?xml version="1.0" encoding="utf-8"?>
<!-- Generator: Adobe Illustrator 17.0.0, SVG Export Plug-In . SVG Version: 6.00 Build 0)  -->
<!DOCTYPE svg PUBLIC "-//W3C//DTD SVG 1.1//EN" "http://www.w3.org/Graphics/SVG/1.1/DTD/svg11.dtd">
<svg version="1.1" id="레이어_1" xmlns="http://www.w3.org/2000/svg" xmlns:xlink="http://www.w3.org/1999/xlink" x="0px"
	 y="0px" width="200px" height="200px" viewBox="0 0 200 200" enable-background="new 0 0 200 200" xml:space="preserve">
<g>
	<path fill="#FFFFFF" d="M43.869,66.269c14.089-0.023,28.178-0.036,42.266,0.009c-0.018,3.622-0.014,7.244,0.005,10.867
		c-4.727-0.009-9.449-0.027-14.175,0.005c-0.009,18.379-0.023,36.758,0.009,55.137c-1.736,0.064-3.472,0.364-5.208,0.195
		c-2.754-0.345-5.522,0.35-8.258-0.241c0.082-4.472-0.068-8.949,0.091-13.416c0.354-4.995-0.064-9.998,0.118-14.993
		c-0.223-2.886,0.168-5.776-0.127-8.662c0.055-2.718,0.227-5.436,0.15-8.153c-0.091-3.381,0.2-6.781-0.259-10.144
		c-4.872,0.041-9.749,0.032-14.621,0C43.874,73.336,43.86,69.8,43.869,66.269L43.869,66.269z"/>
	<path fill="#FFFFFF" d="M25.699,66.396c4.068,0.032,8.131,0.018,12.198,0.005c-0.05,16.102,0.1,32.204,0.064,48.306
		c0.05,3.431-0.714,6.854-2.081,9.998c-1.6,3.631-4.672,6.685-8.485,7.926c-3.536,1.241-7.34,1.041-11.026,1
		c-4.295,0.005-8.862-1.541-11.503-5.09c-3.522-4.772-4.295-10.953-4.072-16.725c4.022-0.009,8.044-0.05,12.062,0.023
		c0.155,3.468-0.664,7.376,1.482,10.403c1.891,2.79,6.213,3.163,8.676,0.945c2.127-1.677,2.631-4.545,2.672-7.103
		C25.704,99.523,25.681,82.957,25.699,66.396L25.699,66.396z"/>
	<path fill="#FFFFFF" d="M93.344,132.077c-0.036-21.892-0.068-43.789,0.014-65.686c1.995,0.032,3.995,0.032,5.99-0.014
		c9.049,18.824,17.806,37.794,26.823,56.632c0.1-18.784,0.045-37.567,0.036-56.351c1.754-0.023,3.513-0.023,5.272,0.005
		c-0.009,21.833-0.027,43.666,0.009,65.499c-2.068-0.023-4.136-0.018-6.208,0c-6.822-14.284-13.462-28.65-20.22-42.962
		c-2.009-4.613-4.536-9.012-6.213-13.757c-0.195,3.09-0.155,6.185-0.145,9.28c0,13.489,0.005,26.973,0,40.462
		c-0.023,2.304,0.109,4.617-0.168,6.913C96.802,132.086,95.071,132.091,93.344,132.077L93.344,132.077z"/>
	<path fill="#FFFFFF" d="M184.789,69.678c1.695-0.009,3.395-0.005,5.095,0.032c0.045,4.345,0.045,8.69,0.009,13.034
		c2.959,0.15,5.926,0.059,8.89,0.086c0.018,1.782,0.018,3.563,0.023,5.345c-2.89,0.023-5.781,0.05-8.667,0
		c-0.414,3.69-0.241,7.426-0.105,11.135c-0.232,8.031-0.105,16.075-0.077,24.11c-0.132,1.841,0.873,3.918,2.827,4.263
		c2.145,0.195,4.304,0.3,6.458,0.373c-0.023,1.713-0.027,3.427-0.014,5.136c-2.909,0.023-5.826,0.1-8.735,0.005
		c-1.845-0.064-3.213-1.568-4.172-2.995c-1.204-1.75-1.577-3.909-1.554-5.995c-0.027-11.998,0.014-23.996-0.018-35.995
		c-2.086-0.014-4.172-0.009-6.258-0.045c0.014-1.722,0.009-3.44-0.023-5.163c2.091-0.264,4.204-0.177,6.308-0.2
		C184.753,78.426,184.739,74.054,184.789,69.678L184.789,69.678z"/>
	<path fill="#FFFFFF" d="M174.163,108.463c0.082-4.981-0.155-10.044-1.554-14.852c-1.323-4.468-4.304-8.562-8.526-10.676
		c-1.968-1.009-4.195-1.209-6.358-1.454c-3.281,0.168-6.663,0.914-9.235,3.086c-4.072,3.386-5.804,8.73-6.644,13.784
		c-0.873,6.181-0.841,12.484-0.059,18.674c0.718,4.363,1.945,8.894,4.986,12.248c2.591,2.981,6.581,4.527,10.494,4.468
		c3.827,0.118,8.149-0.659,10.735-3.749c3.009-3.631,4.404-8.29,5.126-12.88c-1.704-0.027-3.404-0.023-5.104,0.005
		c-0.227,3.127-1.077,6.39-3.259,8.744c-1.8,1.877-4.595,2.159-7.049,2.222c-4.022,0.064-7.917-2.404-9.517-6.104
		c-1.845-4.208-2.077-8.912-2.118-13.448C155.443,108.563,164.801,108.49,174.163,108.463z M149.649,90.752
		c2.722-3.413,7.708-4.218,11.707-2.913c3.404,1.023,5.776,4.145,6.749,7.453c0.913,2.522,0.813,5.226,1.059,7.858
		c-7.676-0.005-15.348,0.05-23.019-0.032C146.454,98.85,146.777,94.174,149.649,90.752z"/>
</g>
</svg>
