<?xml version="1.0" encoding="utf-8"?>
<!-- Generator: Adobe Illustrator 17.0.0, SVG Export Plug-In . SVG Version: 6.00 Build 0)  -->
<!DOCTYPE svg PUBLIC "-//W3C//DTD SVG 1.1//EN" "http://www.w3.org/Graphics/SVG/1.1/DTD/svg11.dtd">
<svg version="1.1" id="레이어_1" xmlns="http://www.w3.org/2000/svg" xmlns:xlink="http://www.w3.org/1999/xlink" x="0px"
	 y="0px" width="200px" height="200px" viewBox="0 0 200 200" enable-background="new 0 0 200 200" xml:space="preserve">
<g>
	<path fill="#FFFFFF" d="M47.766,80.507c17.136-6.968,35.827-9.372,54.229-9.078c16.362,0.308,32.847,2.888,48.066,9.06
		c6.818,2.809,13.465,6.255,19.175,10.964c-11.082-5.222-23.198-7.803-35.247-9.632c-19.035-2.673-38.377-2.967-57.521-1.437
		c-10.858,0.928-21.681,2.563-32.201,5.433c-5.302,1.459-10.55,3.196-15.491,5.631C34.407,86.727,41.01,83.316,47.766,80.507
		L47.766,80.507z"/>
	<path fill="#FFFFFF" d="M75.492,96.166c2.123,0,4.247,0,6.37,0c0.009,10.625,0.004,21.25,0.004,31.871
		c-2.128,0-4.251,0.004-6.374,0C75.492,117.411,75.492,106.791,75.492,96.166L75.492,96.166z"/>
	<path fill="#FFFFFF" d="M177.175,96.166c2.136,0,4.268,0,6.405,0c0.004,6.783-0.009,13.562,0.004,20.345
		c2.299-3.332,4.581-6.673,6.875-10.01c2.554-0.004,5.108-0.009,7.662,0c-2.704,3.389-5.403,6.779-8.115,10.163
		c2.897,3.794,5.816,7.574,8.704,11.377c-2.598-0.004-5.2,0-7.798-0.004c-2.444-3.57-4.875-7.143-7.328-10.709
		c-0.013,3.57-0.004,7.139-0.004,10.709c-2.136,0.004-4.273,0-6.405,0C177.175,117.416,177.171,106.791,177.175,96.166
		L177.175,96.166z"/>
	<path fill="#FFFFFF" d="M2.558,101.727c1.605-2.378,4.427-3.609,7.174-4.088c3.662-0.528,7.482-0.317,11.008,0.853
		c-0.004,2.018-0.009,4.04,0,6.058c-2.866-1.772-6.418-2.506-9.724-1.736c-1.226,0.312-2.545,1.103-2.778,2.453
		c-0.211,1.323,0.677,2.532,1.772,3.174c3.187,2.005,7.104,2.827,9.838,5.543c2.528,2.514,2.844,6.686,1.301,9.794
		c-1.446,2.769-4.581,4.101-7.53,4.537c-4.084,0.536-8.388,0.317-12.19-1.372c-0.022-2.172-0.004-4.343-0.013-6.515
		c2.545,2.053,5.816,3.209,9.1,2.994c1.605-0.084,3.508-0.462,4.365-1.983c0.769-1.389-0.057-3.09-1.266-3.917
		c-3.191-2.189-7.341-2.809-10.062-5.719C0.923,109.217,0.575,104.786,2.558,101.727L2.558,101.727z"/>
	<path fill="#FFFFFF" d="M47.63,101.762c2.123-0.607,4.251-1.2,6.379-1.802c0,2.18,0,4.356,0,6.537
		c2.791,0.004,5.583-0.013,8.379,0.004c0-1.578,0-3.161-0.004-4.739c2.123-0.607,4.247-1.204,6.374-1.798
		c0.004,2.176,0.004,4.352,0.004,6.532c1.657,0,3.315,0,4.972,0c0.004,1.574,0.004,3.152,0,4.73c-1.657-0.004-3.315-0.004-4.972,0
		c0.018,3.121-0.031,6.247,0.013,9.372c-0.013,1.27,0.585,2.805,2,3.02c1.103,0.33,2.097-0.316,3.126-0.576
		c-0.264,1.6-0.149,3.227-0.171,4.84c-2.651,0.835-5.702,1.09-8.273-0.123c-2.136-1.046-3.038-3.539-3.055-5.789
		c-0.04-3.583,0-7.165-0.013-10.748c-2.791,0.018-5.583,0-8.379,0.004c0.004,2.998-0.018,6.001,0.004,8.999
		c0.009,1.13,0.202,2.51,1.292,3.126c1.161,0.668,2.523,0.215,3.684-0.211c-0.013,1.574-0.013,3.148-0.004,4.721
		c-2.576,0.862-5.535,1.077-8.075,0c-2.176-0.945-3.183-3.385-3.249-5.627c-0.075-3.666-0.004-7.341-0.031-11.008
		c-1.2-0.004-2.4-0.004-3.596-0.004c-0.004-1.574-0.004-3.152,0-4.726c1.196,0,2.396,0,3.596,0
		C47.63,104.918,47.63,103.34,47.63,101.762L47.63,101.762z"/>
	<path fill="#FFFFFF" d="M159.358,109.947c2.136-3.855,7.486-5.113,11.232-2.95c2.361,1.468,3.073,4.436,3.156,7.038
		c0.062,4.669,0.004,9.337,0.022,14.001c-2.123,0.004-4.251,0-6.374,0.004c-0.031-4.299,0.066-8.603-0.048-12.902
		c-0.04-1.794-0.906-3.956-2.91-4.242c-2.501-0.611-4.893,1.6-5.003,4.053c-0.141,4.361-0.018,8.726-0.057,13.087
		c-2.145,0.004-4.286,0-6.431,0.004c-0.004-7.183-0.004-14.362,0-21.545c2.145,0,4.286,0,6.431,0
		C159.376,107.643,159.376,108.795,159.358,109.947L159.358,109.947z"/>
	<path fill="#FFFFFF" d="M43.977,119.051c0.062-3.165,0.127-6.62-1.811-9.311c-3.548-5.02-11.808-4.941-15.839-0.558
		c-3.134,3.209-3.693,8.181-2.58,12.366c0.875,3.389,3.82,6.049,7.245,6.691c3.701,0.686,7.653,0.352,11.087-1.244
		c0.048-1.565,0.031-3.13,0.044-4.695c-2.884,1.644-6.51,2.321-9.68,1.161c-1.838-0.655-2.704-2.576-2.928-4.392
		C34.332,119.029,39.155,119.069,43.977,119.051z M29.519,115.086c0.334-1.297,0.734-2.66,1.754-3.596
		c1.376-1.473,3.934-1.609,5.451-0.286c1.086,0.98,1.161,2.532,1.323,3.886C35.203,115.099,32.363,115.103,29.519,115.086z"/>
	<path fill="#FFFFFF" d="M105.002,119.055c0.075-3.354,0.075-7.082-2.189-9.803c-3.816-4.594-11.768-4.295-15.636,0.101
		c-3.024,3.24-3.517,8.15-2.391,12.287c0.906,3.376,3.868,5.996,7.293,6.616c3.679,0.651,7.627,0.347,11.03-1.288
		c-0.004-1.556-0.009-3.112,0.004-4.664c-2.879,1.657-6.515,2.312-9.689,1.147c-1.824-0.668-2.668-2.58-2.884-4.383
		C95.362,119.038,100.18,119.06,105.002,119.055z M92.342,111.442c1.394-1.442,3.939-1.547,5.429-0.202
		c1.055,0.985,1.13,2.51,1.284,3.851c-2.84,0.009-5.675,0.009-8.511,0C90.86,113.763,91.291,112.378,92.342,111.442z"/>
	<path fill="#FFFFFF" d="M126.23,107.802c-3.767-3.108-10.128-2.211-12.735,1.996c0.048-4.541,0.013-9.087,0.018-13.632
		c-2.141,0-4.286-0.004-6.427,0c0,10.625,0,21.25,0,31.871c2.145,0,4.295,0.004,6.44,0c-0.009-0.866-0.018-1.728-0.04-2.589
		c2.69,4,8.858,4.009,12.282,0.998c2.646-2.29,3.754-5.873,3.794-9.28C129.668,113.807,128.912,110.074,126.23,107.802z
		 M122.894,118.466c-0.229,1.996-1.178,4.198-3.191,4.945c-2.515,1.086-5.592-0.585-6.115-3.249c-0.44-3.073-0.58-7.249,2.668-8.884
		c1.776-0.835,4.211-0.567,5.469,1.051C123.078,114.048,123.109,116.387,122.894,118.466z"/>
	<path fill="#FFFFFF" d="M149.524,114.958c-0.022-2.26-0.457-4.682-2.013-6.418c-1.596-1.824-4.101-2.466-6.436-2.554
		c-3.06-0.062-6.163,0.519-8.963,1.772c0.004,1.631,0.009,3.262-0.004,4.893c2.725-1.71,6.115-2.884,9.324-2.009
		c1.477,0.44,1.969,2.035,2.088,3.411c-3.451,0.642-7.174,0.444-10.348,2.128c-4.145,2.141-4.396,9.051-0.339,11.408
		c3.53,2.031,8.572,0.919,10.616-2.712c-0.013,1.051-0.018,2.106-0.013,3.161c2.031,0.004,4.066,0,6.102,0.004
		C149.529,123.68,149.555,119.319,149.524,114.958z M142.618,122.141c-1.152,1.798-3.803,2.475-5.627,1.336
		c-1.697-1.081-1.332-3.992,0.541-4.682c1.89-0.739,3.97-0.695,5.952-1.015C143.462,119.258,143.555,120.889,142.618,122.141z"/>
</g>
</svg>
