<?xml version="1.0" encoding="utf-8"?>
<!-- Generator: Adobe Illustrator 17.0.0, SVG Export Plug-In . SVG Version: 6.00 Build 0)  -->
<!DOCTYPE svg PUBLIC "-//W3C//DTD SVG 1.1//EN" "http://www.w3.org/Graphics/SVG/1.1/DTD/svg11.dtd">
<svg version="1.1" id="레이어_1" xmlns="http://www.w3.org/2000/svg" xmlns:xlink="http://www.w3.org/1999/xlink" x="0px"
	 y="0px" width="400px" height="200px" viewBox="0 0 400 200" enable-background="new 0 0 400 200" xml:space="preserve">
<path fill="#FFFFFF" d="M97.318,61.309c34.041-13.842,71.173-18.618,107.728-18.033c32.504,0.611,65.252,5.737,95.485,17.998
	c13.545,5.58,26.749,12.427,38.093,21.78c-22.015-10.375-46.083-15.501-70.02-19.134c-37.813-5.31-76.238-5.895-114.269-2.856
	c-21.57,1.843-43.07,5.091-63.968,10.794c-10.532,2.899-20.959,6.349-30.775,11.187C70.779,73.666,83.895,66.889,97.318,61.309
	L97.318,61.309z"/>
<path fill="#FFFFFF" d="M152.396,92.415c4.218,0,8.436,0,12.654,0c0.017,21.107,0.009,42.215,0.009,63.313
	c-4.227,0-8.445,0.009-12.663,0C152.396,134.621,152.396,113.523,152.396,92.415L152.396,92.415z"/>
<path fill="#FFFFFF" d="M354.395,92.415c4.244,0,8.48,0,12.724,0c0.009,13.475-0.017,26.941,0.009,40.416
	c4.567-6.619,9.1-13.256,13.658-19.885c5.074-0.009,10.148-0.017,15.221,0c-5.371,6.733-10.733,13.466-16.121,20.19
	c5.755,7.536,11.554,15.047,17.291,22.601c-5.161-0.009-10.331,0-15.492-0.009c-4.855-7.091-9.685-14.191-14.558-21.273
	c-0.026,7.091-0.009,14.182-0.009,21.273c-4.244,0.009-8.488,0-12.724,0C354.395,134.63,354.386,113.523,354.395,92.415
	L354.395,92.415z"/>
<path fill="#FFFFFF" d="M7.509,103.462c3.188-4.724,8.794-7.17,14.252-8.122c7.274-1.048,14.863-0.629,21.867,1.694
	c-0.009,4.008-0.017,8.026,0,12.034c-5.694-3.519-12.75-4.978-19.317-3.449c-2.436,0.62-5.056,2.192-5.519,4.873
	c-0.419,2.629,1.345,5.03,3.519,6.305c6.331,3.982,14.112,5.615,19.544,11.012c5.021,4.995,5.65,13.283,2.585,19.457
	c-2.873,5.502-9.1,8.148-14.959,9.012c-8.113,1.065-16.662,0.629-24.216-2.725c-0.044-4.314-0.009-8.628-0.026-12.942
	c5.056,4.078,11.554,6.375,18.077,5.947c3.187-0.166,6.969-0.917,8.672-3.939c1.528-2.76-0.114-6.139-2.515-7.781
	c-6.34-4.349-14.584-5.58-19.989-11.361C4.26,118.343,3.571,109.54,7.509,103.462L7.509,103.462z"/>
<path fill="#FFFFFF" d="M97.047,103.532c4.218-1.205,8.445-2.384,12.671-3.58c0,4.331,0,8.654,0,12.986
	c5.545,0.009,11.091-0.026,16.645,0.009c0-3.135,0-6.279-0.009-9.414c4.218-1.205,8.436-2.393,12.663-3.572
	c0.009,4.323,0.009,8.646,0.009,12.977c3.292,0,6.585,0,9.877,0c0.009,3.126,0.009,6.261,0,9.397c-3.292-0.009-6.585-0.009-9.877,0
	c0.035,6.2-0.061,12.409,0.026,18.618c-0.026,2.524,1.161,5.572,3.973,5.999c2.192,0.655,4.166-0.629,6.209-1.144
	c-0.524,3.179-0.297,6.41-0.341,9.615c-5.266,1.659-11.326,2.166-16.435-0.245c-4.244-2.078-6.034-7.03-6.069-11.501
	c-0.079-7.117,0-14.235-0.026-21.352c-5.545,0.035-11.091,0-16.645,0.009c0.009,5.956-0.035,11.92,0.009,17.876
	c0.017,2.244,0.402,4.986,2.567,6.209c2.305,1.327,5.013,0.428,7.318-0.419c-0.026,3.126-0.026,6.253-0.009,9.379
	c-5.117,1.712-10.995,2.14-16.042,0c-4.323-1.878-6.323-6.724-6.454-11.178c-0.148-7.283-0.009-14.584-0.061-21.867
	c-2.384-0.009-4.768-0.009-7.143-0.009c-0.009-3.126-0.009-6.261,0-9.388c2.375,0,4.759,0,7.143,0
	C97.047,109.802,97.047,106.667,97.047,103.532L97.047,103.532z"/>
<path fill="#FFFFFF" d="M319.001,119.793c4.244-7.659,14.872-10.156,22.312-5.86c4.69,2.917,6.104,8.811,6.27,13.981
	c0.122,9.274,0.009,18.549,0.044,27.814c-4.218,0.009-8.445,0-12.663,0.009c-0.061-8.541,0.131-17.09-0.096-25.631
	c-0.079-3.563-1.799-7.86-5.781-8.427c-4.969-1.214-9.72,3.179-9.938,8.052c-0.279,8.663-0.035,17.335-0.114,25.998
	c-4.262,0.009-8.514,0-12.776,0.009c-0.009-14.269-0.009-28.53,0-42.8c4.262,0,8.514,0,12.776,0
	C319.036,115.217,319.036,117.505,319.001,119.793L319.001,119.793z"/>
<path fill="#FFFFFF" d="M89.79,137.878c0.122-6.288,0.253-13.152-3.598-18.496c-7.047-9.973-23.456-9.816-31.464-1.109
	c-6.227,6.375-7.336,16.252-5.126,24.565c1.738,6.733,7.589,12.016,14.392,13.291c7.353,1.362,15.204,0.699,22.024-2.471
	c0.096-3.109,0.061-6.218,0.087-9.327c-5.729,3.266-12.933,4.611-19.23,2.305c-3.65-1.301-5.371-5.117-5.816-8.724
	C70.63,137.835,80.21,137.913,89.79,137.878z M61.068,130.001c0.664-2.576,1.458-5.283,3.484-7.143
	c2.733-2.926,7.816-3.196,10.829-0.568c2.157,1.947,2.305,5.03,2.629,7.72C72.359,130.028,66.718,130.036,61.068,130.001z"/>
<path fill="#FFFFFF" d="M211.019,137.887c0.148-6.663,0.148-14.069-4.349-19.474c-7.58-9.126-23.378-8.532-31.063,0.201
	c-6.008,6.436-6.986,16.191-4.751,24.408c1.799,6.707,7.685,11.912,14.488,13.143c7.309,1.292,15.152,0.69,21.911-2.559
	c-0.009-3.091-0.017-6.183,0.009-9.266c-5.72,3.292-12.942,4.593-19.247,2.279c-3.624-1.327-5.301-5.126-5.729-8.707
	C191.868,137.852,201.439,137.896,211.019,137.887z M185.869,122.762c2.768-2.864,7.825-3.074,10.785-0.402
	c2.096,1.956,2.244,4.986,2.55,7.65c-5.641,0.017-11.274,0.017-16.907,0C182.926,127.373,183.781,124.622,185.869,122.762z"/>
<path fill="#FFFFFF" d="M253.19,115.531c-7.484-6.174-20.12-4.393-25.299,3.965c0.096-9.021,0.026-18.051,0.035-27.081
	c-4.253,0-8.515-0.009-12.767,0c0,21.107,0,42.215,0,63.313c4.262,0,8.532,0.009,12.794,0c-0.017-1.72-0.035-3.432-0.079-5.144
	c5.344,7.947,17.597,7.964,24.4,1.982c5.257-4.55,7.458-11.667,7.536-18.435C260.019,127.46,258.517,120.046,253.19,115.531z
	 M246.562,136.717c-0.454,3.965-2.34,8.34-6.34,9.824c-4.995,2.157-11.108-1.161-12.147-6.454c-0.873-6.104-1.153-14.4,5.301-17.649
	c3.528-1.659,8.366-1.127,10.864,2.087C246.929,127.94,246.99,132.586,246.562,136.717z"/>
<path fill="#FFFFFF" d="M299.465,129.748c-0.044-4.489-0.908-9.301-4-12.75c-3.17-3.624-8.148-4.899-12.785-5.074
	c-6.078-0.122-12.243,1.03-17.806,3.519c0.009,3.24,0.017,6.48-0.009,9.72c5.414-3.397,12.147-5.729,18.522-3.991
	c2.934,0.873,3.912,4.043,4.148,6.777c-6.855,1.275-14.252,0.882-20.557,4.227c-8.235,4.253-8.733,17.981-0.672,22.662
	c7.012,4.035,17.029,1.825,21.09-5.388c-0.026,2.087-0.035,4.183-0.026,6.279c4.035,0.009,8.078,0,12.121,0.009
	C299.474,147.074,299.527,138.411,299.465,129.748z M285.746,144.018c-2.288,3.572-7.554,4.917-11.178,2.655
	c-3.371-2.148-2.646-7.929,1.074-9.3c3.755-1.467,7.886-1.38,11.824-2.017C287.423,138.289,287.606,141.529,285.746,144.018z"/>
</svg>
