<?xml version="1.0" encoding="utf-8"?>
<!-- Generator: Adobe Illustrator 17.0.0, SVG Export Plug-In . SVG Version: 6.00 Build 0)  -->
<!DOCTYPE svg PUBLIC "-//W3C//DTD SVG 1.1//EN" "http://www.w3.org/Graphics/SVG/1.1/DTD/svg11.dtd">
<svg version="1.1" id="레이어_1" xmlns="http://www.w3.org/2000/svg" xmlns:xlink="http://www.w3.org/1999/xlink" x="0px"
	 y="0px" width="200px" height="200px" viewBox="0 0 200 200" enable-background="new 0 0 200 200" xml:space="preserve">
<g>
	<path fill="#114196" d="M8.586,7.183c-0.746,7.075-0.38,14.196-0.441,21.287C8.16,83.247,8.16,138.04,8.16,192.817h183.732V7.183
		H8.586z M158.935,31.178c-2.267,1.795-5.204,2.815-7.075,5.052c-1.232,6.969-0.487,14.075-0.685,21.104
		c0.152,5.462-0.563,11.108,1.05,16.418c2.206,1.476,4.656,2.556,6.969,3.895c-8.247,1.004-16.677,1.096-24.924,0.122
		c2.221-2.419,7.182-2.663,6.893-6.756c0.289-10.666,0.167-21.363,0.061-32.045c0.396-4.276-4.656-5.447-7.136-7.836
		C142.349,30.555,150.672,30.524,158.935,31.178z M82.612,167.193c-11.016,2.404-23.843,3.53-33.384-3.652
		c-11.914-8.612-11.701-28.545-0.198-37.401c9.586-7.867,22.976-7.699,34.449-4.884c0.472,4.215,1.111,8.414,1.096,12.66
		c-3.195,0.609-3.515-3.195-5.097-4.976c-4.549-8.551-17.94-7.228-23.189-0.03c-5.965,8.125-5.797,19.872-1.065,28.53
		c3.621,7.182,13.557,10.377,20.45,5.995c4.428-2.632,5.752-8.506,10.697-10.453C85.655,157.851,84.179,162.553,82.612,167.193z
		 M83.038,38.954c-0.776,13.36-0.091,26.78-0.335,40.155c-2.511-0.533-5.645-0.183-7.243-2.632
		c-9.266-10.849-18.427-21.789-27.754-32.592c0.183,9.997-0.624,20.07,1.019,29.991c2.906,1.156,5.873,2.221,8.627,3.743
		c-7.319,1.065-14.79,1.004-22.124,0.183c2.921-2.419,8.141-3.393,7.593-8.186c0.624-10.149,0.441-20.359,0.183-30.508
		c0.091-3.971-4.26-4.915-7.182-5.995c-0.107-0.593-0.335-1.75-0.441-2.328c4.534-0.03,9.084-0.03,13.618,0.015
		c9.662,10.849,19.294,21.713,29.123,32.395c-0.259-9.099,0.943-18.487-1.324-27.389c-2.571-1.643-5.386-2.845-7.897-4.565
		c7.121-0.806,14.333-0.624,21.485-0.076C87.846,33.613,82.703,34.617,83.038,38.954z M164.443,168.106
		c-12.903-0.38-25.882,0.776-38.74-0.7c2.404-2.206,7.912-2.48,7.851-6.573c0.32-10.697,0.152-21.409,0.091-32.106
		c0.578-4.26-4.382-5.417-6.771-7.851c11.838-0.73,23.722-0.122,35.59-0.38c0.35,4.291,0.639,8.582,0.776,12.888
		c-4.367-1.719-4.002-8.856-9.251-8.901c-3.302-0.457-6.634-0.441-9.951-0.426c-0.106,5.706-0.076,11.427-0.076,17.148
		c3.606-0.137,7.288,0.122,10.849-0.654c0.669-1.78,1.263-3.591,1.78-5.417c0.746-0.046,2.237-0.167,2.982-0.213
		c-0.015,5.493,0,10.971-0.061,16.464c-0.746,0-2.267-0.015-3.028-0.03c-0.502-1.872-0.989-3.743-1.506-5.615
		c-3.652-0.365-7.319-0.517-10.971-0.624c0.259,6.117-0.989,12.507,0.943,18.426c4.869,1.08,10.712,1.689,15.079-1.187
		c2.556-2.039,2.708-8.962,6.923-6.786C166.436,159.799,165.447,163.968,164.443,168.106z"/>
	<path fill="#E99618" d="M101.342,52.77c1.172,15.064,1.75,30.173,2.587,45.267c14.699,1.096,29.473,1.141,44.126,2.815
		c-14.714,0.943-29.473,1.278-44.172,2.389c-0.746,15.14-1.415,30.28-2.526,45.404c-0.974-15.17-1.674-30.356-2.374-45.526
		c-14.714-0.822-29.428-1.415-44.126-2.298c14.622-1.552,29.351-1.856,44.035-2.678C99.76,83.019,100.353,67.879,101.342,52.77
		L101.342,52.77z"/>
</g>
</svg>
