<?xml version="1.0" encoding="utf-8"?>
<!-- Generator: Adobe Illustrator 17.0.0, SVG Export Plug-In . SVG Version: 6.00 Build 0)  -->
<!DOCTYPE svg PUBLIC "-//W3C//DTD SVG 1.1//EN" "http://www.w3.org/Graphics/SVG/1.1/DTD/svg11.dtd">
<svg version="1.1" id="레이어_1" xmlns="http://www.w3.org/2000/svg" xmlns:xlink="http://www.w3.org/1999/xlink" x="0px"
	 y="0px" width="400px" height="200px" viewBox="0 0 400 200" enable-background="new 0 0 400 200" xml:space="preserve">
<path fill="#FFFFFF" d="M282.41,42c-0.466,4-0.238,8.872-0.276,13.302c0.01,34.229,0.01,68.698,0.01,102.698H397V42H282.41z
	 M376.359,56.995c-1.417,1.122-3.252,1.759-4.421,3.157c-0.77,4.355-0.304,8.795-0.428,13.188c0.095,3.413-0.352,6.941,0.656,10.259
	c1.379,0.922,2.909,1.597,4.355,2.434c-5.153,0.628-10.421,0.685-15.574,0.076c1.388-1.512,4.488-1.664,4.307-4.222
	c0.181-6.665,0.105-13.349,0.038-20.024c0.247-2.672-2.909-3.404-4.459-4.897C365.995,56.605,371.196,56.586,376.359,56.995z
	 M303.803,81.012c0.39-6.342,0.276-12.722,0.114-19.064c0.057-2.482-2.662-3.071-4.488-3.746c-0.067-0.371-0.209-1.093-0.276-1.455
	c2.833-0.019,5.676-0.019,8.51,0.009c6.038,6.779,12.056,13.568,18.199,20.243c-0.162-5.686,0.589-11.552-0.827-17.115
	c-1.607-1.027-3.366-1.778-4.935-2.852c4.45-0.504,8.957-0.39,13.425-0.048c-1.588,1.531-4.802,2.158-4.592,4.868
	c-0.485,8.348-0.057,16.734-0.209,25.092c-1.569-0.333-3.528-0.114-4.526-1.645c-5.79-6.779-11.514-13.616-17.343-20.366
	c0.114,6.247-0.39,12.541,0.637,18.74c1.816,0.723,3.67,1.388,5.391,2.339c-4.573,0.666-9.242,0.628-13.825,0.114
	C300.884,84.616,304.145,84.007,303.803,81.012z M328.667,141.988c-6.884,1.502-14.899,2.206-20.861-2.282
	c-7.445-5.382-7.312-17.837-0.124-23.371c5.99-4.916,14.357-4.811,21.526-3.052c0.295,2.634,0.694,5.258,0.685,7.911
	c-1.997,0.38-2.196-1.997-3.185-3.109c-2.843-5.344-11.21-4.516-14.49-0.019c-3.727,5.077-3.623,12.418-0.666,17.828
	c2.263,4.488,8.472,6.484,12.779,3.746c2.767-1.645,3.594-5.315,6.684-6.532C330.568,136.15,329.646,139.088,328.667,141.988z
	 M340.381,130.397c-0.609-9.48-1.046-18.969-1.483-28.448c-9.194-0.513-18.389-0.884-27.573-1.436
	c9.137-0.97,18.341-1.16,27.516-1.673c0.542-9.451,0.913-18.912,1.531-28.353c0.732,9.413,1.093,18.855,1.616,28.287
	c9.185,0.685,18.417,0.713,27.573,1.759c-9.194,0.59-18.417,0.799-27.602,1.493C341.493,111.486,341.075,120.946,340.381,130.397z
	 M379.801,142.558c-8.063-0.238-16.173,0.485-24.208-0.437c1.502-1.379,4.944-1.55,4.906-4.108c0.2-6.684,0.095-13.378,0.057-20.062
	c0.361-2.662-2.738-3.385-4.231-4.906c7.397-0.456,14.823-0.076,22.239-0.238c0.219,2.681,0.399,5.363,0.485,8.053
	c-2.729-1.074-2.501-5.534-5.781-5.562c-2.063-0.285-4.145-0.276-6.218-0.266c-0.067,3.566-0.048,7.141-0.048,10.716
	c2.253-0.086,4.554,0.076,6.779-0.409c0.418-1.112,0.789-2.244,1.112-3.385c0.466-0.029,1.398-0.105,1.864-0.133
	c-0.01,3.432,0,6.855-0.038,10.288c-0.466,0-1.417-0.01-1.892-0.019c-0.314-1.169-0.618-2.339-0.941-3.508
	c-2.282-0.228-4.573-0.323-6.855-0.39c0.162,3.822-0.618,7.816,0.589,11.514c3.043,0.675,6.694,1.055,9.423-0.742
	c1.597-1.274,1.692-5.6,4.326-4.241C381.047,137.367,380.429,139.972,379.801,142.558z"/>
<path fill="#FFFFFF" d="M21.146,89.959c1.559,0.048,3.119,0.105,4.678,0.2c-0.238,3.822-0.143,7.645-0.171,11.457
	c1.189,0.029,2.377,0.048,3.566,0.076c0.01,0.884,0.01,2.662,0.019,3.556c-1.198-0.01-2.387-0.019-3.575-0.019
	c0.009,3.803,0.009,7.616,0,11.419c-1.502,0-3.005-0.01-4.516-0.01C21.137,107.74,21.146,98.85,21.146,89.959L21.146,89.959z"/>
<path fill="#FFFFFF" d="M196.095,89.959c1.531,0.048,3.062,0.105,4.592,0.19c-0.637,6.513-0.171,13.064-0.314,19.596
	c-1.426,0-2.852,0.01-4.279,0.01C196.095,103.157,196.086,96.558,196.095,89.959L196.095,89.959z"/>
<path fill="#FFFFFF" d="M206.754,100.009c0.466-3.974,2.596-7.435,4.745-10.716c0.856,0,2.586,0,3.442,0
	c-5.03,8.053-5.02,18.598,0.009,26.651c-1.179-0.01-2.339-0.019-3.508-0.019C208.161,111.372,205.775,105.724,206.754,100.009
	L206.754,100.009z"/>
<path fill="#FFFFFF" d="M246.621,89.104c0.913,0.133,2.738,0.399,3.642,0.532c4.174,5.201,6.057,12.418,4.06,18.883
	c-0.789,2.738-2.51,5.039-4.069,7.369c-1.189,0.038-2.377,0.076-3.566,0.114C252.022,107.958,251.518,97.233,246.621,89.104
	L246.621,89.104z"/>
<path fill="#FFFFFF" d="M51.335,89.959c1.55,0.048,3.1,0.105,4.64,0.162c-0.266,8.833-0.048,17.676-0.124,26.518
	c-1.502,0-3.014,0-4.516,0.01C51.335,107.749,51.335,98.859,51.335,89.959L51.335,89.959z"/>
<path fill="#FFFFFF" d="M149.249,90.501c7.217-0.019,14.433-0.009,21.65,0c0,0.732,0,2.206,0,2.948
	c-5.781,0.01-11.571,0.019-17.362-0.019l0.076,0.723c5.762,0.009,11.524,0.019,17.295,0c-0.01,0.875-0.01,2.605-0.01,3.48
	c-5.762-0.029-11.524,0.029-17.286-0.038c0.019,0.257,0.038,0.761,0.048,1.008c5.819-0.067,11.638-0.029,17.457-0.029
	c0.01,0.77,0.029,2.32,0.038,3.09c-2.89,0-5.771,0.01-8.662-0.009c-0.067,0.409-0.2,1.236-0.266,1.654
	c3.851,0.019,7.692,0.01,11.543,0.019c-0.01,0.837-0.019,2.501-0.029,3.328c-9.204,0.038-18.398,0.038-27.602,0
	c0.019-1.122,0.048-2.234,0.067-3.347c3.889,0.019,7.787,0.029,11.676-0.009l-0.114-1.635c-2.843,0-5.676-0.009-8.519-0.009
	C149.268,97.937,149.277,94.219,149.249,90.501L149.249,90.501z"/>
<path fill="#FFFFFF" d="M182.689,90.673c1.388,0.038,2.776,0.067,4.174,0.114c-1.189,5.011,2.415,9.575,6.589,11.847
	c-1.103,1.055-2.196,2.13-3.28,3.204c-2.044-1.721-3.917-3.632-5.524-5.762c-1.369,2.596-3.48,4.668-5.847,6.37
	c-1.16-0.979-2.329-1.94-3.489-2.909C180.274,101.208,182.565,95.921,182.689,90.673L182.689,90.673z"/>
<path fill="#FFFFFF" d="M219.856,90.948c7.454,0.029,14.899,0.009,22.354,0.009c0,0.894,0.01,2.681,0.01,3.575
	c-3.024-0.009-6.047-0.038-9.061,0.133c2.824,2.805,6.741,3.822,10.621,4.041c-0.865,1.16-1.702,2.339-2.52,3.518
	c-3.575-0.78-7.093-2.006-10.126-4.098c-2.995,2.215-6.485,3.613-10.098,4.431c-0.913-1.141-1.845-2.272-2.795-3.375
	c3.841-0.39,7.702-1.607,10.373-4.535c-2.909-0.143-5.838-0.114-8.747-0.124C219.856,93.63,219.856,91.842,219.856,90.948
	L219.856,90.948z"/>
<path fill="#FFFFFF" d="M59.911,101.578c5.02-1.502,9.86-4.925,10.972-10.354c1.464-0.019,2.928-0.029,4.402-0.038
	c0.162,5.743,6.266,8.567,11.077,9.869c-0.979,1.17-1.949,2.339-2.9,3.527c-4.031-1.255-7.759-3.47-10.468-6.751
	c-2.577,3.166-5.933,5.762-9.869,6.96C61.974,103.803,60.976,102.653,59.911,101.578L59.911,101.578z"/>
<path fill="#FFFFFF" d="M90.28,91.481c5.077-0.076,10.164-0.029,15.241-0.057c0.01,1.293,0.01,2.586,0.019,3.879
	c-1.883-0.019-3.765-0.029-5.648,0.019c1.35,3.081,4.079,5.144,7.226,6.171c-0.951,1.15-1.873,2.32-2.786,3.499
	c-2.301-1.122-4.355-2.662-6.114-4.516c-1.835,2.035-4.069,3.651-6.523,4.84c-1.055-1.046-2.12-2.073-3.214-3.081
	c3.508-1.084,6.532-3.394,7.949-6.865c-2.035-0.105-4.069-0.133-6.104-0.143C90.308,93.972,90.289,92.726,90.28,91.481L90.28,91.481
	z"/>
<path fill="#FFFFFF" d="M3.052,92.146c1.426,0,2.843,0.01,4.26,0.01c-0.333,5.077-0.171,10.183-0.143,15.27
	c4.088-0.038,8.158-0.428,12.199-1.093c0.095,0.941,0.304,2.805,0.409,3.746c-5.543,0.77-11.124,1.255-16.715,1.093
	C3.043,104.83,3.043,98.488,3.052,92.146L3.052,92.146z"/>
<path fill="#FFFFFF" d="M43.909,93.725c-1.788-2.396-5.248-2.814-7.911-1.826c-3.528,1.474-4.402,5.714-4.583,9.128
	c-0.028,2.967,0.162,6.237,1.987,8.7c1.854,2.605,5.61,3.071,8.424,1.94c2.833-1.464,3.927-4.802,4.203-7.787
	C46.305,100.418,46.02,96.615,43.909,93.725z M39.497,108.586c-2.691,0.523-3.442-2.662-3.537-4.687
	c-0.067-2.795-0.494-6.446,1.74-8.481c2.263-1.493,3.832,1.826,3.803,3.67C41.579,102.263,42.321,106.313,39.497,108.586z"/>
<path fill="#FFFFFF" d="M144.742,109.746c-3.993-0.009-7.977,0.01-11.961-0.019c0.076-1.407,0.171-2.824,0.285-4.231
	c2.947-0.038,5.885-0.029,8.843-0.029c0.019-4.602-0.076-9.213,0.095-13.815c-1.54,0.01-3.071,0.01-4.602,0.019
	c-0.01,1.265-0.019,2.529-0.029,3.803c-4.212,0.01-8.415,0.01-12.627,0c0.048-1.274,0.105-2.548,0.162-3.822
	c-1.55,0.019-3.1,0.028-4.649,0.038c0,4.592,0,9.185,0.019,13.787c2.691,0,5.382,0,8.072-0.01c0,1.426,0.01,2.843,0.01,4.269
	c-3.642,0.009-7.293,0.009-10.934,0c-0.01,1.189-0.019,2.377-0.029,3.566c9.128,0.009,18.246,0.019,27.364-0.01
	C144.752,112.113,144.752,110.925,144.742,109.746z M124.785,101.892c0-0.77,0.01-2.31,0.01-3.081c4.203-0.009,8.396,0,12.598,0
	c0,0.77-0.01,2.32-0.01,3.09C133.18,101.892,128.978,101.892,124.785,101.892z"/>
<path fill="#FFFFFF" d="M217.498,104.041c9.099-0.009,18.208,0.01,27.307-0.009c0.01,1.189,0.019,2.387,0.029,3.575
	c-3.803,0.01-7.606,0-11.41,0.01c0,3.014-0.01,6.038-0.029,9.052c-1.512-0.019-3.014-0.038-4.516-0.048
	c0.029-3.005,0.019-6,0.01-9.004c-3.803,0.01-7.606-0.01-11.41-0.019C217.489,106.408,217.489,105.22,217.498,104.041
	L217.498,104.041z"/>
<path fill="#FFFFFF" d="M178.743,107.369c1.493,0,2.995,0,4.497,0c-0.114,1.578-0.209,3.166-0.285,4.754
	c5.971,0.009,11.942-0.01,17.904,0c-0.01,1.274-0.019,2.539-0.019,3.813c-7.369-0.019-14.728,0-22.087-0.01
	C178.734,113.074,178.734,110.221,178.743,107.369L178.743,107.369z"/>
<path fill="#FFFFFF" d="M59.416,109.736c9.109,0.019,18.218,0,27.326,0c0.01,1.274,0.01,2.539,0.019,3.813
	c-9.118,0.009-18.237-0.01-27.355,0.009C59.407,112.284,59.416,111.01,59.416,109.736L59.416,109.736z"/>
<path fill="#FFFFFF" d="M110.313,106.646c0.827,0.076,2.482,0.238,3.309,0.314c0.133-5.591-0.409-11.229,0.437-16.782
	c-1.569-0.095-3.147-0.171-4.716-0.228c-0.019,1.911-0.01,3.822,0,5.733c-1.826,0.038-3.651,0.076-5.477,0.133
	c0.01,0.865,0.01,2.605,0.01,3.47c1.816,0,3.632,0,5.458,0c-0.01,2.444-0.01,4.887,0.029,7.331
	c-4.887-0.761-10.193-1.151-14.776,1.017c-2.672,1.046-3.585,5.001-1.16,6.798c3.775,3.1,9.109,2.586,13.663,2.234
	c2.9-0.475,6.846-1.797,6.95-5.315C114.098,109.042,111.749,108.015,110.313,106.646z M106.89,113.444
	c-3.699,0.675-8.139,0.875-10.963-2.063c3.432-2.757,8.443-2.634,12.408-1.236C110.855,111.124,108.507,113.245,106.89,113.444z"/>
<path fill="#FFFFFF" d="M171.289,110.459c-4.079-3.518-9.822-3.176-14.852-2.938c-2.662,0.323-5.828,0.78-7.521,3.1
	c-1.673,3.413,2.776,5.363,5.448,5.828c5.695,0.808,12.418,1.15,17.038-2.929C171.374,112.75,171.317,111.22,171.289,110.459z
	 M156.523,113.663c-1.54,0.038-2.71-0.913-3.718-1.949c4.649-1.569,10.43-2.196,14.728,0.599
	C164.12,114.024,160.231,114.005,156.523,113.663z"/>
</svg>
