<?xml version="1.0" encoding="utf-8"?>
<!-- Generator: Adobe Illustrator 17.0.0, SVG Export Plug-In . SVG Version: 6.00 Build 0)  -->
<!DOCTYPE svg PUBLIC "-//W3C//DTD SVG 1.1//EN" "http://www.w3.org/Graphics/SVG/1.1/DTD/svg11.dtd">
<svg version="1.1" id="레이어_1" xmlns="http://www.w3.org/2000/svg" xmlns:xlink="http://www.w3.org/1999/xlink" x="0px"
	 y="0px" width="200px" height="200px" viewBox="0 0 200 200" enable-background="new 0 0 200 200" xml:space="preserve">
<g>
	<path fill="#FFFFFF" d="M174.598,61.821c2.865-0.541,5.755,0.047,8.613,0.347c4.555,0.63,9.243,2.296,12.363,5.827
		c2.826,3.126,3.843,7.535,3.485,11.661c-0.505,5.651-2.879,10.969-5.934,15.686c-4.093,6.256-9.49,11.603-15.571,15.922
		c-2.614,1.794-5.282,3.578-8.197,4.849c3.864-2.496,7.639-5.404,9.985-9.451c3.413-5.494,3.613-12.91,0.168-18.433
		c0.007-0.057,0.021-0.175,0.029-0.233c0.226-1.11,0.641-2.181,0.748-3.313c-1.629-1.977-3.309-4.083-3.678-6.708
		c1.493-0.093,2.99,0.036,4.444,0.38c-2.604-2.088-5.042-5.1-4.91-8.606c1.279-0.408,2.793,0.369,4.147,0.526
		C177.631,68.153,174.895,65.392,174.598,61.821L174.598,61.821z"/>
	<path fill="#FFFFFF" d="M139.426,71.329c9.838-0.548,20.069,0.942,28.768,5.777c4.613,2.589,8.742,6.242,11.342,10.891
		c-0.007,0.057-0.021,0.175-0.029,0.233c-3.237,10.672-8.556,20.564-14.501,29.954c1.622-10.16-0.333-20.868-5.433-29.803
		c-3.137,0.616-6.607-0.147-8.924-2.417c-0.064-0.723,0.985-0.752,1.415-1.125c-3.098-0.215-6.063-2.027-7.402-4.867
		c0.745-0.269,1.493-0.519,2.249-0.759C143.613,77.557,140.805,74.785,139.426,71.329L139.426,71.329z"/>
	<path fill="#FFFFFF" d="M165.007,118.183c5.945-9.39,11.263-19.281,14.501-29.954c3.445,5.522,3.245,12.939-0.168,18.433
		c-2.346,4.047-6.12,6.955-9.985,9.451C167.987,116.962,166.486,117.56,165.007,118.183L165.007,118.183z"/>
	<path fill="#FFFFFF" d="M146.109,103.718c0.286-1.97,2.177-3.399,4.122-3.402c2.152-0.057,4.308-0.014,6.461,0.004
		c-2.851,11.908-5.694,23.819-8.548,35.727c-0.197,0.956-0.956,1.805-1.977,1.841c-2.722,0.133-5.454,0.004-8.183,0.061
		C140.565,126.509,143.423,115.132,146.109,103.718L146.109,103.718z"/>
	<path fill="#FFFFFF" d="M37.285,108.044c-3.345-2.758-7.768-3.796-12.019-3.925c-6.686-0.032-13.372,0.011-20.062-0.021
		c-0.566,0.014-1.15-0.032-1.705,0.111c-0.448,0.233-0.552,0.928-0.147,1.261c0.892,0.666,2.052,1.003,2.743,1.923
		c0.752,0.963,0.505,2.281,0.269,3.384c-1.758,7.306-3.495,14.619-5.254,21.928c-0.272,1.142-0.286,2.339-0.165,3.502
		c0.541,1.35,2.177,1.715,3.488,1.723c4.426,0.018,8.856,0.007,13.283,0.004c6.317-0.115,12.792-2.045,17.605-6.253
		c4.025-3.477,6.679-8.685,6.529-14.056C41.787,113.971,40.136,110.351,37.285,108.044z M27.118,128.45
		c-3.753,3.975-9.54,4.971-14.776,4.885c1.873-7.972,3.76-15.94,5.691-23.898c2.944,0.039,6.106-0.286,8.767,1.253
		c2.654,1.379,3.986,4.43,4.015,7.32C30.868,121.761,29.736,125.679,27.118,128.45z"/>
	<path fill="#FFFFFF" d="M75.827,111.79c-0.616-0.244-0.43-1.268,0.258-1.207c6.564-0.072,13.136-0.007,19.708-0.029
		c3.116,0.029,6.575,0.58,8.824,2.947c1.855,1.937,2.041,4.878,1.422,7.367c-1.082,4.405-2.145,8.817-3.234,13.218
		c-0.398,1.758-1.97,2.969-3.628,3.463c-2.185,0.573-4.477,0.229-6.708,0.294c1.35-5.852,2.754-11.693,4.14-17.537
		c0.294-1.203,0.34-2.657-0.616-3.592c-0.96-1.049-2.493-0.935-3.785-0.942c-1.318,0.039-2.647-0.097-3.954,0.1
		c-0.648,0.133-0.756,0.892-0.931,1.418c-1.386,5.608-2.74,11.227-4.133,16.839c-0.487,2.238-2.779,3.581-4.935,3.782
		c-1.798,0.118-3.603,0.029-5.404,0.05c1.723-7.624,3.653-15.206,5.35-22.838C78.71,113.434,77.055,112.467,75.827,111.79
		L75.827,111.79z"/>
	<path fill="#FFFFFF" d="M70.684,112.317c-2.464-1.758-5.615-2.041-8.548-2.149c-4.419-0.111-9.157,0.244-12.943,2.754
		c-2.052,1.325-3.427,3.485-4.036,5.827c2.664-0.018,5.332,0.09,7.99-0.039c1.135-0.888,1.866-2.235,3.148-2.962
		c1.78-1.064,4.104-1.59,6.085-0.813c1.167,0.519,1.307,2.013,0.784,3.044c-0.727,1.694-2.643,2.303-4.258,2.818
		c-4.115,1.124-8.344,2.034-12.158,4.007c-2.006,1.056-3.95,2.532-4.878,4.659c-0.885,2.027-0.917,4.634,0.605,6.367
		c1.336,1.461,3.352,2.31,5.332,2.21c1.909-0.032,3.818,0.061,5.723-0.057c2.238-0.38,4.287-1.522,6.042-2.929
		c0.458,0.852,0.985,1.755,1.902,2.185c1.902,1.017,4.122,0.641,6.185,0.684c1.561-6.711,3.216-13.405,4.777-20.116
		C72.912,115.844,72.392,113.531,70.684,112.317z M58.551,131.62c-1.518,1.436-3.674,2.36-5.784,2.027
		c-1.253-0.197-2.238-1.472-1.963-2.743c0.344-1.741,1.916-2.904,3.449-3.585c2.539-1.092,5.132-2.077,7.789-2.847
		C61.43,127.061,60.542,129.747,58.551,131.62z"/>
	<path fill="#FFFFFF" d="M136.629,112.614c-2.267-1.909-5.383-2.263-8.233-2.424c-4.648-0.165-9.669,0.09-13.652,2.761
		c-2.041,1.321-3.377,3.474-4.004,5.791c2.424,0.011,4.853,0.057,7.277,0.011c1.107,0.111,1.619-1.028,2.31-1.669
		c1.612-1.855,4.183-2.743,6.607-2.46c0.906,0.097,1.909,0.648,2.07,1.626c0.197,1.282-0.491,2.596-1.569,3.284
		c-1.69,1.085-3.699,1.461-5.608,1.977c-3.581,0.953-7.231,1.927-10.439,3.836c-2.038,1.221-3.907,3.08-4.366,5.494
		c-0.462,1.855-0.057,4,1.372,5.336c1.637,1.561,3.968,1.991,6.135,2.224h2.636c2.894-0.369,5.712-1.432,7.968-3.309
		c0.519,0.802,1.014,1.708,1.92,2.138c1.894,1.024,4.129,0.655,6.196,0.698c1.533-6.525,3.101-13.043,4.67-19.561
		C138.449,116.403,138.262,114.018,136.629,112.614z M124.109,131.649c-1.44,1.347-3.424,2.217-5.415,2.056
		c-1.236-0.086-2.421-1.15-2.321-2.45c0.104-1.798,1.655-3.069,3.166-3.789c2.621-1.182,5.329-2.177,8.086-2.994
		C127.028,127.079,126.115,129.779,124.109,131.649z"/>
</g>
</svg>
