<?xml version="1.0" encoding="utf-8"?>
<!-- Generator: Adobe Illustrator 17.0.0, SVG Export Plug-In . SVG Version: 6.00 Build 0)  -->
<!DOCTYPE svg PUBLIC "-//W3C//DTD SVG 1.1//EN" "http://www.w3.org/Graphics/SVG/1.1/DTD/svg11.dtd">
<svg version="1.1" id="레이어_1" xmlns="http://www.w3.org/2000/svg" xmlns:xlink="http://www.w3.org/1999/xlink" x="0px"
	 y="0px" width="400px" height="200px" viewBox="0 0 400 200" enable-background="new 0 0 400 200" xml:space="preserve">
<g>
	<path fill="#1898D5" d="M15.702,66.564c0.875-2.989,4.297-4.723,7.263-3.97c5.825,1.719,12.115,3.422,16.229,8.221
		c7.035,7.438,8.114,19.4,2.745,28.077c-3.323-3.658-7.597-6.373-12.305-7.886c0,6.958,0,13.909-0.008,20.868
		c4.707-1.521,8.928-4.266,12.297-7.886c5.491,8.647,4.434,20.929-2.867,28.214c-11.438-4-23.005-7.635-34.465-11.597
		c-3.483-0.92-5.597-5.072-4.107-8.403C5.549,96.991,10.629,81.774,15.702,66.564L15.702,66.564z"/>
	<path fill="#0956A4" d="M41.353,68.648c10.845,3.567,21.636,7.286,32.473,10.883c3.217,1.065,4.958,4.981,3.726,8.114
		c-5.065,15.187-10.107,30.382-15.195,45.553c-0.92,3.316-4.913,5.27-8.099,3.985c-3.985-1.262-7.932-2.654-11.902-3.962
		c7.529-8.746,8.221-22.343,1.582-31.796c2.7-4.304,4.586-9.248,4.548-14.388C48.676,80.268,45.939,73.583,41.353,68.648
		L41.353,68.648z"/>
	<path fill="#0956A4" d="M100.367,81.872c2.844,0.008,5.688,0,8.54-0.008c0.008,16.799,0.015,33.598-0.008,50.398
		c-2.844-0.008-5.696,0-8.54-0.015C100.359,115.456,100.344,98.664,100.367,81.872L100.367,81.872z"/>
	<path fill="#0956A3" d="M163.678,81.865c2.844,0.008,5.696,0.008,8.54,0.008c-0.008,6.776,0.068,13.544-0.046,20.313
		c5.742-6.373,11.636-12.617,17.415-18.959c0.631-0.593,1.24-1.513,2.243-1.346c3.377-0.046,6.761-0.015,10.145,0.038
		c-7.498,8-15.149,15.856-22.594,23.902c8.114,8.723,16.176,17.491,24.244,26.252c-3.993-0.008-7.985-0.015-11.978,0.008
		c-6.525-7.43-12.974-14.913-19.453-22.381c0.061,7.514,0.023,15.027,0.03,22.549c-2.852,0.015-5.704,0.015-8.556,0
		C163.678,115.456,163.655,98.657,163.678,81.865L163.678,81.865z"/>
	<path fill="#0957A2" d="M247.149,81.865c2.274,0.008,4.548,0.008,6.829,0.008c0.015,16.784-0.023,33.568,0.023,50.352
		c-2.289,0.03-4.578,0.038-6.86,0.03C247.134,115.456,247.119,98.664,247.149,81.865L247.149,81.865z"/>
	<path fill="#0956A3" d="M383.262,82.07c2.152-0.015,4.304-0.015,6.464,0c0,3.795,0,7.597,0,11.392c1.194,0,2.396,0,3.605,0
		c0-3.802,0.008-7.605,0.008-11.407c2.213,0.008,4.426,0,6.639-0.008c0.038,10.145,0,20.282,0.023,30.427
		c-2.228,0.008-4.441,0.008-6.662,0.008c-0.015-4.761,0.008-9.514-0.008-14.259c-1.209,0-2.411,0-3.605,0.008
		c0,4.053,0.008,8.107-0.008,12.16c-2.137-0.008-4.282,0-6.411,0.03C383.201,100.968,383.292,91.516,383.262,82.07L383.262,82.07z"
		/>
	<path fill="#0956A4" d="M360.287,82.618c5.126,0.038,10.244,0.008,15.37,0.023c-0.008,1.574,0,3.148,0.015,4.73
		c-5.141,0.03-10.282,0.015-15.423,0.008C360.249,85.789,360.264,84.2,360.287,82.618L360.287,82.618z"/>
	<path fill="#0956A3" d="M213.482,83.203c8.175,0.008,16.351-0.008,24.526,0.008c-0.129,5.46,0.525,11.065-1.141,16.366
		c-3.232,10.464-12.267,18.594-22.67,21.651c-1.194-1.475-2.388-2.951-3.582-4.426c8.495-1.901,15.864-8.213,18.792-16.442
		c1.506-3.818,1.711-7.962,1.559-12.023c-5.825,0-11.651-0.008-17.468,0.008C213.482,86.633,213.475,84.914,213.482,83.203
		L213.482,83.203z"/>
	<path fill="#0956A3" d="M344.636,84.747c-4.882-4.221-11.947-5.004-18.062-3.59c-3.209,0.829-6.419,2.388-8.457,5.088
		c-2.289,2.928-2.456,7.027-1.43,10.48c1.665,4.32,6.145,6.829,10.48,7.734c5.833,1.103,12.404,0.426,17.164-3.407
		C349.283,97.204,349.389,88.801,344.636,84.747z M323.487,94.679c-1.27-3.65,1.399-7.521,4.844-8.715
		c5.118-2.228,12.769,0.852,12.7,7.042C340.469,101.645,325.997,102.505,323.487,94.679z"/>
	<path fill="#0956A2" d="M296.193,81.872c-0.008,3.483-0.008,6.966-0.008,10.449c-2.745,0.015-5.491,0.015-8.236-0.008
		c-0.631-2.844-1.977-5.597-4.304-7.43c-6.038-5.118-16.198-4.091-20.997,2.259c-4.342,5.392-2.639,14.229,3.293,17.75
		c7.46,5.407,19.91,1.802,21.933-7.613c2.768-0.015,5.536-0.008,8.312,0c0.008,3.605,0.008,7.217,0,10.829
		c2.274,0,4.555,0,6.837,0.008c0.015-8.753,0.015-17.499,0-26.245C300.741,81.872,298.467,81.872,296.193,81.872z M272.367,102.102
		c-6.548-1.795-6.951-12.548-0.494-14.776c4.107-1.703,8.898,1.445,9.194,5.818C282.253,98.079,277.592,103.835,272.367,102.102z"/>
	<path fill="#FFFFFF" d="M18.439,89.645c1.072,0.015,2.145,0.023,3.217,0.038c-0.008,7.856-0.008,15.704-0.008,23.56
		c-1.08-0.008-2.16-0.015-3.247-0.023C18.447,105.364,18.379,97.508,18.439,89.645L18.439,89.645z"/>
	<path fill="#FFFFFE" d="M52.114,101.387c3.027-3.879,5.871-7.879,8.921-11.734c1.3,0.008,2.593,0.008,3.894,0.015
		c-2.897,3.932-5.871,7.81-8.791,11.727c2.837,3.993,5.886,7.833,8.715,11.841c-1.3,0-2.601,0-3.901,0.008
		C57.977,109.311,55.087,105.318,52.114,101.387L52.114,101.387z"/>
	<path fill="#0956A3" d="M376.835,93.432c1.437,0.023,2.89,0.038,4.335,0.046c-0.008-1.589-0.008-3.179-0.008-4.761
		c-7.856,0-15.704,0.008-23.56-0.008c-0.008,1.589-0.015,3.179-0.015,4.768c1.483-0.008,2.974-0.008,4.457-0.03
		c-5.004,3.316-5.605,11.24-0.875,15.05c5.567,5.065,15.894,3.582,19.081-3.468C382.182,100.908,380.311,96.063,376.835,93.432z
		 M374.744,101.425c0.297,3.894-4.297,7.346-7.787,5.095c-4.152-2.274-3.628-9.095,0.776-10.761
		C371.246,94.329,375.056,97.85,374.744,101.425z"/>
	<path fill="#F15C21" d="M32.706,95.615c2.768,1.468,5.285,3.399,7.331,5.78c-2.023,2.441-4.563,4.38-7.331,5.909
		C32.653,103.41,32.668,99.508,32.706,95.615L32.706,95.615z"/>
	<path fill="#0956A4" d="M309.684,107.349c14.89-0.008,29.788-0.008,44.686,0.008c-0.008,1.764-0.008,3.536,0,5.308
		c-14.898,0.023-29.788,0-44.679,0.015C309.684,110.9,309.677,109.128,309.684,107.349L309.684,107.349z"/>
	<path fill="#0956A3" d="M154.316,114.52c-1.042-3.955-4.403-6.852-8.183-8.122c2.768-1.186,5.392-3.156,6.51-6.054
		c1.574-4.046,1.278-8.936-1.072-12.624c-3.072-4.312-8.715-5.476-13.681-5.742c-5.848-0.228-11.704-0.046-17.56-0.106
		c-0.015,16.792,0,33.583-0.008,50.375c6.586-0.046,13.187,0.213,19.765-0.297c3.985-0.365,8.137-1.422,11.179-4.16
		C154.765,124.422,155.426,119.053,154.316,114.52z M141.882,90.443c4.502,2.091,4.129,9.879-0.677,11.377
		c-3.97,1.24-8.221,0.89-12.32,0.966c-0.008-4.494,0-8.997-0.015-13.491C133.182,89.584,137.859,88.436,141.882,90.443z
		 M142.027,123.783c-4.213,1.536-8.761,0.943-13.149,1.057c0-4.943,0.008-9.879,0-14.822c4.472,0.084,9.202-0.494,13.4,1.384
		C147.069,113.585,147.137,121.943,142.027,123.783z"/>
	<path fill="#0956A2" d="M315.958,115.722c2.335-0.008,4.677-0.015,7.019-0.015c0.03,3.742,0.008,7.483,0.023,11.225
		c8.989,0,17.986,0.008,26.975-0.008c0.008,1.711,0.008,3.43,0.015,5.141c-11.347-0.008-22.693,0.023-34.032-0.015
		C315.966,126.605,315.958,121.167,315.958,115.722L315.958,115.722z"/>
	<path fill="#0956A3" d="M395.559,116.779c-5.088-3.863-11.985-4.175-18.039-3.004c-2.745,0.7-5.483,1.886-7.468,3.962
		c-2.396,2.479-2.677,6.571-1.072,9.537c2.137,3.43,6.213,4.974,10.023,5.635c5.658,0.814,11.94,0.251,16.624-3.323
		C399.635,126.566,399.582,119.76,395.559,116.779z M391.635,124.878c-1.962,3.217-6.168,3.81-9.62,3.574
		c-3.004-0.167-6.761-1.551-7.362-4.89c-0.122-2.608,2.183-4.396,4.426-5.149c3.3-1.042,7.149-0.935,10.213,0.806
		C391.194,120.308,392.775,122.688,391.635,124.878z"/>
	<path fill="#0956A2" d="M296.186,110.589c0,1.703,0,3.415,0,5.126c-6.723-0.008-13.438-0.008-20.153,0
		c-0.008-1.711-0.008-3.422,0-5.126c-2.281-0.015-4.571-0.015-6.844-0.008c0,7.164-0.015,14.32,0.008,21.476
		c11.27,0.015,22.549,0.015,33.827,0c0.015-7.156,0.008-14.32,0-21.476C300.741,110.573,298.459,110.573,296.186,110.589z
		 M296.178,126.741c-6.715,0.008-13.43,0.008-20.138-0.008c-0.015-1.962-0.015-3.924-0.008-5.879c6.715-0.008,13.438-0.008,20.153,0
		C296.186,122.81,296.186,124.772,296.178,126.741z"/>
</g>
</svg>
