<?xml version="1.0" encoding="utf-8"?>
<!-- Generator: Adobe Illustrator 17.0.0, SVG Export Plug-In . SVG Version: 6.00 Build 0)  -->
<!DOCTYPE svg PUBLIC "-//W3C//DTD SVG 1.1//EN" "http://www.w3.org/Graphics/SVG/1.1/DTD/svg11.dtd">
<svg version="1.1" id="레이어_1" xmlns="http://www.w3.org/2000/svg" xmlns:xlink="http://www.w3.org/1999/xlink" x="0px"
	 y="0px" width="400px" height="200px" viewBox="0 0 400 200" enable-background="new 0 0 400 200" xml:space="preserve">
<g>
	<path d="M3.592,117.699l-2.34-2.819c15.179-4.801,25.199-18.18,25.199-32.819H6.112l-2.16-3.36h29.399c0.96,0,1.8,0.9,1.8,1.8
		C35.151,95.44,22.731,111.7,3.592,117.699z M44.151,122.499V76.901h6c0.96,0,1.8,0.84,1.8,1.8v43.798H44.151z"/>
	<path d="M90.89,99.46H70.551v14.279c0,0.961,0.84,1.801,1.8,1.801h28.199V76.901h6c0.96,0,1.8,0.84,1.8,1.8V91.9h5.939
		c0.54,0,0.66,0.66,0.66,1.681c0,1.02-0.12,1.68-0.66,1.68h-5.939v27.238h-7.8v-3.6H66.351c-1.98,0-3.6-1.62-3.6-3.6V78.701H91.49
		c0.54,0,0.66,0.66,0.66,1.68s-0.12,1.68-0.66,1.68H70.551V96.1H90.89c0.54,0,0.66,0.66,0.66,1.68S91.43,99.46,90.89,99.46z"/>
	<path d="M144.41,124.899c-5.94-7.5-9.66-16.08-9.66-24.899s3.72-17.399,9.66-24.899h6.539c-5.819,8.34-8.1,16.379-8.1,24.899
		c0,8.521,2.28,16.56,8.1,24.899H144.41z"/>
	<path d="M174.769,82.961c0,7.2,7.021,12.419,14.58,14.1l-2.16,2.64c-6.12-1.2-13.079-4.5-16.439-9.18
		c-3.36,4.68-10.319,7.979-16.439,9.18l-2.16-2.64c7.56-1.681,14.58-6.899,14.58-14.1v-0.9h-11.22l-2.16-3.36h33.539
		c0.54,0,0.66,0.66,0.66,1.68s-0.12,1.68-0.66,1.68h-12.12V82.961z M186.109,89.86l-2.16-3.359h12v-9.6h5.999
		c0.961,0,1.801,0.84,1.801,1.8v34.679v0.119c0,7.62-9.66,11.1-22.499,11.1c-12.84,0-22.499-3.479-22.499-11.1
		c0-7.619,9.659-11.1,22.499-11.1c5.699,0,10.799,0.721,14.699,2.16V89.86H186.109z M181.368,105.7
		c-8.339,0-14.519,2.52-14.519,7.799c0,5.28,6.18,7.801,14.519,7.801c8.34,0,14.52-2.521,14.52-7.801
		C195.888,108.219,189.708,105.7,181.368,105.7z"/>
	<path d="M241.847,106.899v10.439h21.24c0.539,0,0.66,0.66,0.66,1.681s-0.121,1.68-0.66,1.68h-49.979l-2.16-3.36h23.1v-10.439
		H218.75c-1.98,0-3.6-1.619-3.6-3.6V78.101h5.998c0.961,0,1.801,0.84,1.801,1.8v8.34h29.998v-10.14h6c0.961,0,1.801,0.84,1.801,1.8
		v26.999H241.847z M222.949,101.74c0,0.96,0.84,1.8,1.801,1.8h28.197V91.6h-29.998V101.74z"/>
	<path d="M304.068,89.56c-0.961,6.659-8.699,9.78-17.1,9.78c-9,0-17.219-3.601-17.219-11.221c0-7.619,8.219-11.219,17.219-11.219
		c8.219,0,15.779,3,17.039,9.299h7.141v-9.299h5.998c0.961,0,1.801,0.84,1.801,1.8V101.5h-7.799V89.56H304.068z M276.949,122.499
		c-1.98,0-3.6-1.619-3.6-3.6V102.7h6c0.959,0,1.799,0.84,1.799,1.8v3.84h9v-5.64h6c0.959,0,1.799,0.84,1.799,1.8v15.659
		c4.98-1.68,9.061-5.64,9.061-13.799v-3.66h6.48c0.959,0,1.799,0.84,1.799,1.8v1.86c0,8.459,4.381,12.419,9.66,13.979l-2.4,2.461
		c-4.559-0.84-9.059-4.021-11.398-7.5c-2.34,3.479-6.84,6.66-11.4,7.5l-1.801-1.86v1.56H276.949z M286.969,80.321
		c-4.801,0-9.119,2.4-9.119,7.799c0,5.4,4.318,7.801,9.119,7.801c4.799,0,9.119-2.4,9.119-7.801
		C296.088,82.72,291.767,80.321,286.969,80.321z M281.148,117.339c0,0.961,0.84,1.801,1.801,1.801h7.199V111.7h-9V117.339z"/>
	<path d="M378.287,102.7h-49.979l-2.16-3.359h52.139c0.539,0,0.66,0.659,0.66,1.68C378.947,102.04,378.826,102.7,378.287,102.7z
		 M353.148,95.8c-12.961,0-22.799-3.119-22.799-9.599c0-6.479,9.838-9.6,22.799-9.6c12.959,0,22.799,3.12,22.799,9.6
		C375.947,92.68,366.107,95.8,353.148,95.8z M375.947,108.7v13.799h-41.998c-1.98,0-3.6-1.619-3.6-3.6v-12h43.797
		C375.107,106.899,375.947,107.739,375.947,108.7z M338.148,110.26v7.079c0,0.961,0.84,1.801,1.801,1.801h28.197v-8.88H338.148z
		 M353.148,79.961c-8.52,0-14.76,1.98-14.76,6.24c0,4.259,6.24,6.24,14.76,6.24s14.76-1.98,14.76-6.24
		C367.908,81.941,361.668,79.961,353.148,79.961z"/>
	<path d="M389.088,124.899h-6.539c5.82-8.34,8.1-16.379,8.1-24.899c0-8.52-2.279-16.559-8.1-24.899h6.539
		c5.939,7.5,9.66,16.08,9.66,24.899S395.027,117.399,389.088,124.899z"/>
</g>
</svg>
