<?xml version="1.0" encoding="utf-8"?>
<!-- Generator: Adobe Illustrator 17.0.0, SVG Export Plug-In . SVG Version: 6.00 Build 0)  -->
<!DOCTYPE svg PUBLIC "-//W3C//DTD SVG 1.1//EN" "http://www.w3.org/Graphics/SVG/1.1/DTD/svg11.dtd">
<svg version="1.1" id="레이어_1" xmlns="http://www.w3.org/2000/svg" xmlns:xlink="http://www.w3.org/1999/xlink" x="0px"
	 y="0px" width="400px" height="200px" viewBox="0 0 400 200" enable-background="new 0 0 400 200" xml:space="preserve">
<g>
	<path fill="#2484C5" d="M11.271,134.196c-1.009,0.004-2.017,0.009-3.026,0.013c-4.703-0.54-7.744-3.724-8.244-8.634
		c0.002-1.069,0.005-2.138,0.007-3.207c0.162-1.586,0.774-3.001,1.597-4.35c0.285-0.466,0.455-0.538,0.839-0.09
		c0.939,1.093,2.007,2.049,3.236,2.817c3.27,2.042,6.56,1.577,9.802-0.011c2.648-1.297,4.589-3.417,6.246-5.798
		c3.152-4.53,5.055-9.637,6.767-14.829c1.899-5.762,3.263-11.642,3.849-17.685c0.395-4.071,0.642-8.15-0.28-12.194
		c-0.131-0.576-0.33-1.136-0.52-1.778c5.298-1.18,10.034-0.239,13.995,3.627c3.055,2.982,4.77,6.741,5.985,10.753
		c1.867,6.162,2.247,12.495,2.091,18.885c-0.013,0.529-0.015,1.059-0.018,1.589c0,0.017,0.04,0.035,0.151,0.124
		c0.623-0.835,1.248-1.667,1.867-2.504c8.196-11.09,16.392-22.181,24.586-33.274c0.299-0.404,0.559-0.739,1.179-0.736
		c5.557,0.03,11.114,0.017,16.671,0.019c0.153,0,0.306,0.024,0.574,0.047c-0.632,1.804-1.247,3.56-1.863,5.316
		c-4.877,13.903-9.768,27.802-14.619,41.715c-0.791,2.269-1.401,4.604-1.067,7.056c0.321,2.357,1.523,3.698,3.809,4.306
		c1.276,0.339,2.584,0.39,3.894,0.411c0.09,0.346-0.198,0.457-0.359,0.608c-4.145,3.902-8.85,6.482-14.758,6.092
		c-3.386-0.223-6.52-1.137-8.928-3.713c-2.116-2.263-2.759-5.031-2.605-8.041c0.194-3.793,1.816-7.165,3.188-10.6
		c2.091-5.236,4.269-10.437,6.4-15.657c0.111-0.271,0.35-0.535,0.125-1.049c-9.733,13.253-19.405,26.422-29.203,39.763
		c-1.701-13.697-3.199-27.182-6.138-40.496c-0.298,1.255-0.588,2.512-0.895,3.765c-1.798,7.339-4.032,14.531-7.326,21.353
		c-2.14,4.432-4.657,8.622-8.297,12.02C17.514,132.136,14.695,133.78,11.271,134.196z"/>
	<path fill="#2484C5" d="M143.496,65.791c1.88,0.001,3.76,0.002,5.64,0.003c3.404,0.129,6.786,0.412,10.041,1.519
		c1.069,0.364,2.078,0.853,2.923,1.623c1.447,1.318,1.79,3.076,0.946,4.842c-0.847,1.771-2.286,3.023-3.773,4.217
		c-1.68,1.35-3.504,2.494-5.339,3.621c-0.573,0.352-0.735,0.239-0.931-0.37c-0.315-0.975-0.702-1.935-1.153-2.855
		c-1.935-3.953-5.254-5.724-9.525-6.035c-5.279-0.384-9.681,1.681-13.666,4.858c-5.336,4.254-9.249,9.669-12.434,15.637
		c-2.478,4.643-4.408,9.499-5.221,14.731c-0.493,3.176-0.499,6.347,0.639,9.418c1.467,3.959,4.321,6.174,8.53,6.514
		c2.717,0.22,5.425,0.067,8.05-0.777c1.747-0.561,2.988-1.549,3.653-3.407c1.488-4.163,3.167-8.258,4.767-12.381
		c0.1-0.257,0.19-0.517,0.334-0.912c-1.919,0.163-3.738,0.31-5.555,0.475c-2.204,0.2-4.408,0.41-6.61,0.629
		c-0.412,0.041-0.71,0.023-0.557-0.511c0.772-2.705,1.88-5.219,4.056-7.128c1.628-1.428,3.625-1.652,5.668-1.836
		c7.235-0.652,14.466-1.348,21.699-2.025c0.368-0.034,0.739-0.041,1.254-0.069c-0.505,1.42-0.963,2.735-1.44,4.043
		c-2.744,7.519-5.482,15.041-8.245,22.553c-0.768,2.088-1.683,4.137-3.384,5.639c-3.251,2.87-7.003,3.121-10.945,1.768
		c-0.674-0.231-1.222-0.255-1.871-0.053c-5.347,1.663-10.793,2.816-16.409,2.979c-4.387,0.127-8.648-0.48-12.619-2.489
		c-6.393-3.235-10.082-10.506-9.176-17.61c1.386-10.873,6.069-20.156,13.389-28.16c8.043-8.793,17.821-14.728,29.493-17.403
		C138.279,66.254,140.872,65.897,143.496,65.791z"/>
	<path fill="#074F8B" d="M180.306,116.476c0-4.12,0.015-8.239-0.015-12.359c-0.005-0.675,0.131-0.95,0.867-0.897
		c0.963,0.069,1.938,0.075,2.9-0.001c0.787-0.063,0.914,0.257,0.896,0.946c-0.045,1.653,0.022,3.309-0.031,4.961
		c-0.023,0.719,0.289,0.785,0.88,0.805c0.655,0.022,0.849-0.176,0.832-0.833c-0.046-1.684,0.017-3.371-0.031-5.055
		c-0.019-0.674,0.204-0.852,0.844-0.819c0.965,0.05,1.938,0.068,2.9-0.004c0.753-0.056,0.86,0.25,0.856,0.907
		c-0.026,4.275-0.014,8.551-0.014,12.827c0,3.995-0.02,7.99,0.018,11.984c0.007,0.753-0.214,0.971-0.943,0.919
		c-0.869-0.062-1.754-0.086-2.618,0.005c-0.924,0.097-1.05-0.299-1.045-1.101c0.033-4.962,0.017-9.924,0.016-14.887
		c0-0.864-0.632-1.268-1.428-0.923c-0.409,0.177-0.242,0.535-0.243,0.814c-0.012,3.558-0.008,7.116-0.008,10.673
		c0,1.56-0.023,3.121,0.012,4.681c0.013,0.573-0.158,0.76-0.736,0.735c-1.028-0.044-2.061-0.052-3.088,0.002
		c-0.661,0.035-0.84-0.182-0.835-0.835C180.319,124.84,180.306,120.658,180.306,116.476z"/>
	<path fill="#07508B" d="M237.823,118.34c3.434,0,6.868,0.018,10.302-0.015c0.68-0.007,0.92,0.141,0.897,0.87
		c-0.057,1.778-0.048,3.559-0.004,5.337c0.016,0.659-0.181,0.833-0.834,0.83c-5.307-0.026-10.614-0.017-15.921-0.01
		c-0.39,0.001-0.899-0.196-0.886,0.568c0.009,0.565,0.158,0.75,0.74,0.744c2.684-0.028,5.369-0.013,8.054-0.012
		c2.685,0,5.37,0.016,8.054-0.012c0.588-0.006,0.8,0.124,0.796,0.761c-0.012,1.88,0.019,1.88-1.831,1.88
		c-5.932,0-11.863,0.001-17.794,0c-1.882,0-2.717-0.847-2.719-2.753c-0.001-1.061,0.04-2.125-0.015-3.184
		c-0.033-0.642,0.206-0.765,0.795-0.763c5.276,0.021,10.552,0.012,15.828,0.012c0.422,0,0.857,0.126,0.839-0.612
		c-0.016-0.616-0.184-0.771-0.789-0.768c-5.182,0.023-10.365-0.009-15.547,0.035c-0.873,0.007-1.181-0.155-1.137-1.097
		c0.086-1.807,0.024-1.81,1.808-1.81C231.579,118.34,234.701,118.34,237.823,118.34z"/>
	<path fill="#054E8A" d="M268.177,116.042c-4.526,0-9.053-0.016-13.579,0.016c-0.723,0.005-0.953-0.166-0.937-0.92
		c0.044-2.097,0.008-2.098,2.089-2.098c5.869,0,11.738-0.014,17.606,0.018c0.735,0.004,0.946-0.184,0.917-0.92
		c-0.06-1.496-0.061-2.998,0-4.494c0.031-0.759-0.151-0.995-0.954-0.989c-5.338,0.039-10.676,0.004-16.014,0.038
		c-0.811,0.005-1.124-0.141-1.089-1.043c0.076-1.974,0.022-1.976,2.022-1.976c6.15,0,12.299,0,18.449,0
		c1.645,0,2.345,0.68,2.352,2.31c0.009,2.091,0.022,4.183-0.01,6.274c-0.009,0.594,0.132,0.84,0.769,0.794
		c0.745-0.054,1.502-0.066,2.246-0.001c1.487,0.128,0.524,1.272,0.712,1.926c0.134,0.464,0.265,1.095-0.719,1.085
		C277.418,116.016,272.797,116.042,268.177,116.042z"/>
	<path fill="#044E89" d="M324.342,106.801c-2.776,0-5.551-0.018-8.327,0.014c-0.633,0.007-0.856-0.14-0.854-0.816
		c0.007-2.198-0.022-2.198,2.169-2.198c7.393,0,14.786,0.011,22.179-0.017c0.753-0.003,1.014,0.159,0.994,0.96
		c-0.051,2.057-0.01,2.058-2.034,2.058c-2.391,0-4.781,0-7.351,0c0.876,1.013,1.844,1.6,2.861,2.108
		c2.093,1.047,4.334,1.543,6.657,1.646c0.562,0.025,0.73,0.142,0.732,0.727c0.007,2.186,0.029,2.213-2.141,2.068
		c-2.902-0.193-5.764-0.605-8.424-1.889c-0.959-0.463-1.834-1.058-2.619-1.78c-0.226-0.208-0.385-0.344-0.689-0.059
		c-2.544,2.383-5.746,3.125-9.057,3.542c-1.172,0.148-2.362,0.144-3.543,0.228c-0.436,0.031-0.574-0.109-0.596-0.565
		c-0.101-2.139-0.116-2.122,2.168-2.411c2.832-0.358,5.459-1.228,7.648-3.156c0.11-0.097,0.269-0.139,0.405-0.206
		C324.461,106.97,324.401,106.886,324.342,106.801z"/>
	<path fill="#044E8A" d="M295.709,103.675c3.338,0,6.675-0.001,10.013,0.001c1.423,0.001,2.236,0.728,2.243,2.148
		c0.024,5.396,0.003,10.793,0.023,16.189c0.002,0.538-0.222,0.602-0.664,0.593c-1.091-0.023-2.186-0.055-3.274,0.009
		c-0.72,0.043-0.88-0.199-0.875-0.888c0.03-4.648-0.01-9.296,0.038-13.943c0.009-0.898-0.212-1.139-1.124-1.131
		c-5.552,0.046-11.105,0.012-16.657,0.038c-0.662,0.003-0.909-0.106-0.895-0.847c0.043-2.167,0.005-2.168,2.189-2.168
		C289.72,103.675,292.715,103.675,295.709,103.675z"/>
	<path fill="#07508B" d="M213.78,116.508c0-4.119,0.018-8.238-0.017-12.356c-0.006-0.746,0.138-1.061,0.955-1.003
		c1.024,0.073,2.059,0.046,3.087,0.007c0.573-0.022,0.757,0.163,0.746,0.741c-0.033,1.715,0.01,3.432-0.024,5.148
		c-0.012,0.583,0.111,0.847,0.76,0.794c0.713-0.059,1.436,0.013,2.151-0.023c0.467-0.023,0.552,0.161,0.57,0.59
		c0.1,2.452,0.111,2.494-2.354,2.43c-0.895-0.023-1.147,0.201-1.138,1.118c0.048,4.992,0.007,9.985,0.04,14.977
		c0.005,0.741-0.193,0.976-0.935,0.928c-0.994-0.065-1.999-0.066-2.993,0.001c-0.737,0.05-0.869-0.228-0.864-0.902
		C213.795,124.808,213.78,120.658,213.78,116.508z"/>
	<path fill="#054E8A" d="M296.333,128.187c-4.277,0-8.553-0.018-12.83,0.018c-0.707,0.006-0.881-0.178-0.869-0.875
		c0.036-2.143,0.004-2.144,2.11-2.144c1.967,0,3.935-0.046,5.899,0.022c0.819,0.028,0.96-0.246,0.949-0.993
		c-0.043-2.996,0.002-5.993-0.033-8.99c-0.008-0.668,0.2-0.861,0.848-0.831c1.059,0.049,2.123,0.044,3.183,0.001
		c0.601-0.024,0.794,0.142,0.787,0.774c-0.035,2.996,0.019,5.994-0.037,8.99c-0.016,0.868,0.151,1.153,1.092,1.139
		c3.901-0.062,7.804-0.01,11.705-0.041c0.703-0.006,0.969,0.135,0.951,0.91c-0.048,2.018-0.007,2.019-2.05,2.019
		C304.137,128.187,300.235,128.187,296.333,128.187z"/>
	<path fill="#054E8A" d="M171.131,117.384c-1.091,1.772-2.35,3.29-4.234,4.174c-0.886,0.415-1.821,0.62-2.779,0.771
		c-0.462,0.072-0.645-0.078-0.601-0.534c0.009-0.093,0.014-0.189-0.001-0.28c-0.203-1.252,0.112-2.021,1.464-2.568
		c1.927-0.78,2.724-2.625,3.26-4.539c0.734-2.619,0.625-5.305,0.65-7.983c0.008-0.894-0.403-2.082,0.186-2.597
		c0.503-0.44,1.661-0.145,2.529-0.15c1.789-0.01,1.781-0.003,1.791,1.811c0.015,2.677-0.129,5.365,0.433,8.012
		c0.576,2.714,1.667,5.04,4.571,5.969c0.292,0.093,0.378,0.272,0.36,0.556c-0.017,0.28,0.002,0.561-0.004,0.842
		c-0.038,1.759,0.336,1.635-1.618,1.272c-2.117-0.393-3.74-1.632-5.016-3.337C171.789,118.357,171.484,117.891,171.131,117.384z"/>
	<path fill="#044E89" d="M237.726,117.134c-4.464,0-8.929-0.019-13.393,0.019c-0.718,0.006-0.872-0.193-0.86-0.879
		c0.037-2.109,0.006-2.109,2.154-2.109c8.46,0,16.92,0.015,25.381-0.023c0.857-0.004,1.032,0.242,1.009,1.041
		c-0.055,1.95-0.015,1.951-1.929,1.951C245.968,117.134,241.847,117.134,237.726,117.134z"/>
	<path fill="#044E89" d="M364.544,110.484c0-2.184,0.017-4.368-0.012-6.552c-0.007-0.532,0.149-0.691,0.677-0.673
		c1.122,0.038,2.248,0.052,3.369-0.004c0.63-0.031,0.714,0.231,0.693,0.759c-0.036,0.903,0.018,1.81-0.02,2.714
		c-0.023,0.551,0.126,0.756,0.72,0.766c1.997,0.034,1.96,0.06,2.001,2.085c0.015,0.752-0.213,0.947-0.943,0.93
		c-1.766-0.041-1.767-0.005-1.767,1.735c0,1.56-0.019,3.121,0.011,4.68c0.01,0.523-0.138,0.715-0.681,0.697
		c-1.091-0.037-2.185-0.041-3.275,0.001c-0.599,0.023-0.8-0.138-0.788-0.773C364.57,114.728,364.544,112.605,364.544,110.484z"/>
	<path fill="#044E89" d="M399.982,117.508c0-4.464-0.018-8.927,0.018-13.391c0.006-0.712-0.185-0.908-0.879-0.863
		c-0.964,0.063-1.939,0.073-2.901-0.001c-0.844-0.065-1.085,0.184-1.079,1.056c0.043,5.712,0.012,11.424,0.035,17.136
		c0.003,0.655-0.106,0.934-0.856,0.919c-2.465-0.05-4.932-0.034-7.397-0.008c-0.573,0.006-0.854-0.094-0.818-0.756
		c0.055-1.027,0.035-2.06,0.005-3.089c-0.014-0.486,0.114-0.741,0.635-0.82c0.773-0.116,1.505-0.398,2.205-0.746
		c3.812-1.898,4.687-6.287,1.904-9.492c-0.132-0.152-0.378-0.234-0.356-0.589c0.235,0,0.47,0.001,0.706,0
		c2.165-0.01,2.142-0.01,2.117-2.157c-0.007-0.582-0.174-0.743-0.746-0.731c-1.747,0.035-3.496,0.013-5.244,0.013
		c-1.251,0-1.286-0.001-1.259-1.293c0.013-0.62-0.171-0.807-0.788-0.781c-1.122,0.048-2.248,0.039-3.37,0.003
		c-0.541-0.018-0.74,0.168-0.674,0.694c0.027,0.215-0.02,0.44,0.009,0.654c0.078,0.575-0.146,0.753-0.727,0.736
		c-1.403-0.041-2.809-0.013-4.214-0.013c-2.229,0-2.207-0.001-2.141,2.227c0.017,0.565,0.227,0.679,0.723,0.656
		c0.708-0.032,1.418-0.008,2.346-0.008c-0.355,0.392-0.565,0.615-0.764,0.847c-1.946,2.26-1.941,5.578,0.051,7.779
		c1.107,1.223,2.563,1.862,4.15,2.183c0.535,0.108,0.73,0.302,0.708,0.852c-0.041,1.028-0.042,2.061,0,3.089
		c0.023,0.572-0.149,0.758-0.735,0.745c-1.685-0.037-3.371-0.013-5.056-0.013c-1.682,0-1.682,0-1.682,1.71
		c0,1.234,0,1.234,1.234,1.234c6.368,0,12.735,0.012,19.103-0.017c0.739-0.003,0.979,0.195,0.932,0.936
		c-0.062,0.995,0.003,1.997-0.023,2.995c-0.013,0.48,0.136,0.661,0.637,0.647c1.123-0.032,2.249-0.048,3.37,0.005
		c0.658,0.031,0.838-0.174,0.833-0.83C399.966,125.187,399.982,121.348,399.982,117.508z M383.646,115.228
		c-2.591-0.009-4.28-1.544-4.301-3.91c-0.02-2.396,1.689-3.939,4.358-3.935c2.619,0.004,4.276,1.513,4.285,3.899
		C387.997,113.686,386.291,115.237,383.646,115.228z"/>
	<path fill="#044E89" d="M341.1,114.496c-4.431,0.026-8.862,0.013-13.293,0.013c-4.056,0-8.113,0-12.169,0
		c-2.058,0-2.014,0.001-2.068,2.088c-0.02,0.79,0.265,0.901,0.952,0.895c3.401-0.031,6.802-0.015,10.203-0.013
		c0.328,0,0.699-0.099,0.68,0.472c-0.014,0.432-0.055,0.702-0.593,0.701c-0.495-0.001-0.994,0.089-1.483,0.181
		c-2.119,0.396-4.25,0.776-5.86,2.406c-1.574,1.593-1.595,3.91-0.061,5.544c0.973,1.036,2.216,1.594,3.558,1.951
		c3.858,1.025,7.757,1.105,11.68,0.451c1.855-0.309,3.669-0.754,5.166-1.995c2.072-1.716,2.056-4.631-0.033-6.325
		c-0.608-0.493-1.283-0.872-2.018-1.155c-1.556-0.598-3.181-0.877-4.825-1.051c-0.476-0.05-0.724-0.117-0.718-0.685
		c0.007-0.645,0.423-0.492,0.763-0.492c2.996-0.006,5.991-0.004,8.987-0.004c2.083,0,2.039-0.001,2.092-2.096
		C342.08,114.583,341.777,114.492,341.1,114.496z M332.644,121.752c1.07,0.341,2.075,0.969,2.084,2.241
		c0.009,1.279-1.021,1.867-2.065,2.268c-0.391,0.15-0.787,0.269-1.188,0.364c-0.168,0.04-0.338,0.074-0.508,0.105
		c-0.307,0.056-0.616,0.1-0.927,0.134c-0.744,0.08-1.497,0.102-2.252,0.101c-1.396-0.006-2.78-0.106-4.121-0.492
		c-0.192-0.055-0.382-0.116-0.572-0.183c-1.305-0.464-2.241-1.426-2.146-2.318c0.134-1.255,1.062-1.889,2.136-2.228
		C326.262,120.739,329.469,120.741,332.644,121.752z"/>
	<path fill="#054E8A" d="M211.319,113.102c0-2.869-0.031-5.739,0.021-8.607c0.014-0.77-0.241-0.901-0.938-0.897
		c-4.896,0.028-9.792,0.041-14.688-0.009c-0.876-0.009-1.005,0.273-1,1.052c0.034,4.896,0.016,9.792,0.02,14.688
		c0,0.342,0.011,0.687,0.063,1.024c0.228,1.482,1.104,2.241,2.61,2.244c4.366,0.007,8.732-0.011,13.097,0.017
		c0.641,0.004,0.841-0.142,0.832-0.811C211.297,118.902,211.319,116.002,211.319,113.102z M206.541,118.846
		c0.002,0.527-0.077,0.779-0.7,0.765c-1.9-0.042-3.802-0.036-5.703-0.002c-0.557,0.01-0.668-0.192-0.662-0.698
		c0.013-0.982,0.015-1.963,0.015-2.945c-0.001-0.982-0.004-1.963-0.004-2.945c0-0.935,0.008-1.87,0.01-2.805
		c0.002-0.935-0.002-1.87-0.026-2.804c-0.017-0.674,0.196-0.828,0.837-0.813c1.807,0.043,3.615,0.031,5.422,0.005
		c0.556-0.008,0.824,0.074,0.818,0.742C206.515,111.18,206.524,115.013,206.541,118.846z"/>
	<path fill="#044E8A" d="M279.114,118.791c0.01-0.642-0.21-0.771-0.801-0.767c-3.559,0.025-7.117,0.012-10.676,0.012
		c-3.559,0-7.118-0.006-10.676,0.011c-0.309,0.001-0.847-0.242-0.836,0.404c0.047,2.744-0.2,5.498,0.129,8.231
		c0.195,1.62,1.484,2.596,3.149,2.597c5.463,0.004,10.926,0.004,16.389,0c1.956-0.001,3.285-1.305,3.303-3.276
		C279.114,123.599,279.075,121.194,279.114,118.791z M274.357,121.741c-0.046,1.246-0.038,2.496-0.003,3.743
		c0.016,0.583-0.118,0.817-0.769,0.812c-3.993-0.03-7.986-0.024-11.979-0.004c-0.53,0.003-0.704-0.147-0.69-0.683
		c0.034-1.309,0.039-2.621-0.002-3.93c-0.018-0.572,0.22-0.655,0.711-0.65c1.521,0.017,3.041,0.013,4.562,0.011
		c0.507-0.001,1.014-0.002,1.521-0.002c0.491,0,0.983,0.001,1.474,0.002c1.474,0.004,2.948,0.008,4.422-0.014
		C274.154,121.017,274.38,121.136,274.357,121.741z"/>
	<path fill="#044E89" d="M357.419,103.882c-1.567-0.667-3.214-0.963-5.311-0.964c-1.399,0.015-3.139,0.291-4.781,1.052
		c-2.713,1.258-3.781,3.526-3.711,6.36c0.068,2.782,1.295,4.927,3.976,6.001c3.237,1.297,6.51,1.286,9.748-0.001
		c2.546-1.012,3.972-3.286,3.993-6.198C361.352,107.248,359.925,104.948,357.419,103.882z M352.468,114.477
		c-2.516-0.023-4.12-1.748-4.119-4.431c0.001-2.712,1.567-4.395,4.109-4.414c2.551-0.019,4.202,1.735,4.188,4.45
		C356.632,112.721,354.941,114.5,352.468,114.477z"/>
	<path fill="#044E89" d="M248.274,104.897c-0.859-0.912-1.942-1.447-3.116-1.809c-2.373-0.732-4.813-0.985-7.579-0.973
		c-1.427-0.04-3.134,0.117-4.819,0.438c-1.749,0.334-3.476,0.762-4.885,1.954c-2.026,1.714-2.069,4.424-0.104,6.195
		c0.851,0.767,1.86,1.247,2.949,1.554c4.094,1.155,8.233,1.233,12.397,0.461c1.882-0.349,3.719-0.836,5.118-2.272
		C249.801,108.837,249.809,106.528,248.274,104.897z M242.778,109.844c-1.562,0.602-3.202,0.767-4.596,0.736
		c-1.901,0.009-3.513-0.122-5.053-0.703c-1.058-0.4-2.077-0.977-2.107-2.235c-0.03-1.282,0.996-1.926,2.054-2.267
		c3.234-1.041,6.504-1.044,9.732,0.028c1.026,0.341,1.994,0.989,1.975,2.227C244.766,108.853,243.802,109.45,242.778,109.844z"/>
	<path fill="#044E89" d="M369.403,123.746c-0.178-2.207-1.625-3.43-3.544-4.153c-2.575-0.969-5.269-1.219-7.998-1.076
		c-2.248,0.118-4.479,0.39-6.519,1.433c-1.808,0.924-2.917,2.341-2.733,4.48c0.176,2.045,1.502,3.211,3.263,3.955
		c2.279,0.964,4.7,1.156,7.139,1.222c1.403-0.042,2.803-0.117,4.185-0.38c0.979-0.186,1.942-0.429,2.869-0.808
		C368.295,127.508,369.568,125.794,369.403,123.746z M364.059,125.61c-1.019,0.816-2.26,0.984-3.504,1.14
		c-1.535,0.192-3.051,0.089-4.552-0.249c-0.452-0.102-0.909-0.243-1.322-0.449c-0.84-0.417-1.557-1-1.567-2.033
		c-0.01-1.037,0.698-1.614,1.539-2.047c0.997-0.513,2.833-0.836,4.259-0.808c1.363,0.062,2.516,0.113,3.629,0.464
		c0.538,0.17,1.053,0.386,1.498,0.74C365.235,123.319,365.252,124.654,364.059,125.61z"/>
</g>
</svg>
