<?xml version="1.0" encoding="utf-8"?>
<!-- Generator: Adobe Illustrator 17.0.0, SVG Export Plug-In . SVG Version: 6.00 Build 0)  -->
<!DOCTYPE svg PUBLIC "-//W3C//DTD SVG 1.1//EN" "http://www.w3.org/Graphics/SVG/1.1/DTD/svg11.dtd">
<svg version="1.1" id="레이어_1" xmlns="http://www.w3.org/2000/svg" xmlns:xlink="http://www.w3.org/1999/xlink" x="0px"
	 y="0px" width="200px" height="200px" viewBox="0 0 200 200" enable-background="new 0 0 200 200" xml:space="preserve">
<g>
	<g>
		<path fill="#FFFFFF" d="M100,1.5c-35.954,0-65.112,23.014-65.112,51.416c0,18.261,12.079,34.278,30.22,43.42l-6.134,22.906
			c-0.236,0.697-0.046,1.44,0.472,1.946c0.33,0.354,0.801,0.544,1.322,0.544c0.378,0,0.777-0.153,1.131-0.426l26.376-17.81
			c3.823,0.544,7.739,0.85,11.726,0.85c35.951,0,65.112-23.014,65.112-51.43C165.112,24.514,135.951,1.5,100,1.5z"/>
	</g>
</g>
<g>
	<path fill="#FFFFFF" d="M64.217,185.941v11.104h-7.908v-40.95h5.579l0.975,2.6c1.679-1.679,4.225-3.467,8.342-3.467
		c7.746,0,11.429,5.796,11.375,15.167c0,9.804-5.687,16.087-13.812,16.087C67.196,186.483,66.005,186.374,64.217,185.941z
		 M64.217,162.704v17.712c0.433,0.054,1.517,0.163,2.546,0.163c5.633,0,7.8-3.954,7.8-10.183c0-5.471-1.462-8.775-5.958-8.775
		C67.142,161.62,65.517,162.054,64.217,162.704z"/>
	<path fill="#FFFFFF" d="M99.339,167.633h4.496v-0.975c0-3.25-1.842-4.767-5.037-4.767c-2.437,0-5.579,0.704-8.125,1.95
		l-2.167-5.308c2.817-1.95,7.15-3.304,10.996-3.304c7.583,0,11.7,4.008,11.7,11.646v18.796h-5.579l-0.812-2.492
		c-3.196,2.329-6.121,3.304-8.775,3.304c-5.796,0-9.046-3.467-9.046-9.317C86.989,170.937,91.322,167.633,99.339,167.633z
		 M103.834,178.087v-5.417h-3.629c-4.062,0-6.121,1.462-6.121,4.387c0,2.221,1.137,3.304,3.467,3.304
		C99.718,180.362,102.48,179.278,103.834,178.087z"/>
	<path fill="#FFFFFF" d="M134.429,182.637c-2.762,7.367-6.067,12.729-10.887,15.708l-4.875-4.496
		c2.817-2.437,4.821-4.821,6.554-8.017l-10.508-28.654l7.854-2.112l6.717,23.237l6.662-23.346l7.746,2.167L134.429,182.637z"/>
</g>
</svg>
