<?xml version="1.0" encoding="utf-8"?>
<!-- Generator: Adobe Illustrator 17.0.0, SVG Export Plug-In . SVG Version: 6.00 Build 0)  -->
<!DOCTYPE svg PUBLIC "-//W3C//DTD SVG 1.1//EN" "http://www.w3.org/Graphics/SVG/1.1/DTD/svg11.dtd">
<svg version="1.1" id="레이어_1" xmlns="http://www.w3.org/2000/svg" xmlns:xlink="http://www.w3.org/1999/xlink" x="0px"
	 y="0px" width="400px" height="200px" viewBox="0 0 400 200" enable-background="new 0 0 400 200" xml:space="preserve">
<g>
	<path fill="#E4202A" d="M0.021,82.131c3.553,0,7.113,0,10.666,0c0.014,9.414-0.021,18.828,0.007,28.242
		c-0.147,1.28,0.567,2.888,2.049,2.84c6.19,0.119,12.386,0,18.576,0.042c0,1.448-0.007,2.909,0,4.364
		c-8.98,0.007-17.96,0.014-26.941,0.007c-2.448,0.217-4.616-2.077-4.357-4.497C0.014,102.791,0.028,92.461,0.021,82.131
		L0.021,82.131z"/>
	<path fill="#E4202A" d="M78.703,82.131c12.652,0,25.297,0,37.949,0c-0.014,1.511-0.014,3.028-0.007,4.546
		c-4.084,0-8.162,0-12.239,0c0,10.316,0,20.632,0,30.948c-3.735,0-7.463,0-11.19,0c-0.007-10.316,0.007-20.632-0.007-30.948
		c-4.84,0-9.673,0-14.512,0C78.703,85.159,78.703,83.642,78.703,82.131L78.703,82.131z"/>
	<path fill="#E4202A" d="M120.492,82.131c12.701,0,25.409,0.007,38.117-0.007c-0.007,1.518-0.007,3.035,0,4.56
		c-4.896-0.014-9.792,0-14.687-0.007c0,10.316,0.007,20.632,0,30.955c-3.679,0-7.344,0-11.015-0.007c0-10.316,0-20.632,0-30.948
		c-4.14,0-8.281-0.007-12.414,0C120.492,85.159,120.492,83.642,120.492,82.131L120.492,82.131z"/>
	<path fill="#E4202A" d="M164.413,86.425c-0.056-2.336,1.972-4.336,4.308-4.252c9.624-0.112,19.247-0.007,28.878-0.042
		c-0.007,1.455-0.007,2.916,0,4.371c-6.588,0.021-13.177-0.035-19.765,0.014c-1.035-0.077-2.343,0.315-2.525,1.497
		c-0.252,2.868-0.021,5.749-0.091,8.624c7.344,0,14.687,0,22.031,0.007c-0.007,1.455,0,2.909,0.007,4.371
		c-7.351,0.007-14.694-0.007-22.038,0.007c0.056,3.525-0.105,7.057,0.042,10.582c-0.035,0.972,1.007,1.714,1.93,1.63
		c6.798,0.063,13.603-0.007,20.408,0.021c-0.007,1.455-0.007,2.909,0,4.371c-9.61-0.014-19.226,0.028-28.843-0.014
		c-2.455,0.252-4.511-2.091-4.364-4.455C164.385,104.246,164.337,95.328,164.413,86.425L164.413,86.425z"/>
	<path fill="#805F68" d="M216.476,85.95c3.959-2.937,9.008-3.805,13.841-3.819c7.274-0.014,14.554,0.007,21.835-0.007
		c0,2.217,0,4.434,0,6.651c-7.532,0-15.058,0-22.583-0.014c-2.833-0.042-5.763,0.601-8.036,2.364
		c-5.686,4.133-5.672,13.939,0.133,17.974c2.427,1.902,5.644,2.028,8.603,2.063c7.295-0.007,14.589-0.014,21.884-0.007
		c0,2.154,0,4.308,0.007,6.462c-8.218,0.014-16.436,0.021-24.654,0.007c-5.504-0.077-10.925-2.644-14.331-6.994
		C207.398,103.386,208.86,91.37,216.476,85.95L216.476,85.95z"/>
	<path fill="#E4202A" d="M76.444,95.566c-1.182-5.378-5.071-9.973-10.022-12.302c-5.469-2.588-11.792-3.056-17.695-1.93
		c-4.721,0.951-9.288,3.301-12.337,7.099c-5.301,6.525-5.294,16.75,0.063,23.248c4.189,5.189,11.036,7.518,17.548,7.546
		c6.309,0.196,12.96-1.553,17.562-6.064C76.185,108.722,77.961,101.749,76.444,95.566z M62.848,110.68
		c-2.343,3.126-6.553,5.092-10.428,3.987c-3.182-0.79-5.693-3.245-7.239-6.043c-3.049-5.812-2.812-13.344,0.986-18.765
		c1.56-2.28,3.952-4.042,6.686-4.602c3.847-0.846,7.826,1.147,10.085,4.238C67.478,95.559,67.408,104.651,62.848,110.68z"/>
	<path fill="#805F68" d="M341.507,104.456c2.511-0.874,5.106-2.147,6.427-4.588c2.154-3.861,2.126-8.924,0-12.785
		c-2.126-3.7-6.658-4.938-10.659-4.931c-9.722-0.063-19.45,0-29.172-0.028c0,11.834-0.007,23.667,0,35.501
		c2.385,0,4.777-0.007,7.169-0.007c-0.007-4.308,0-8.616,0-12.925c5.861-0.014,11.715,0,17.576-0.014
		c3.378,4.322,6.77,8.637,10.169,12.953c2.833,0,5.665-0.007,8.505-0.021C348.2,113.212,344.836,108.841,341.507,104.456z
		 M339.304,97.692c-1.776,0.559-3.658,0.525-5.49,0.539c-6.183-0.035-12.365,0.021-18.548-0.035c0.007-3.14,0.007-6.281,0.021-9.421
		c6.413-0.007,12.834,0.014,19.254-0.021c1.595,0.007,3.231,0.028,4.77,0.532C343.095,90.237,343.067,96.755,339.304,97.692z"/>
	<path fill="#805F68" d="M394.689,87.153c-3.938-3.693-9.484-4.987-14.75-5.008c-7.917-0.049-15.834,0-23.751-0.021
		c0,11.834-0.007,23.667,0.007,35.501c8.637-0.007,17.282,0.021,25.92-0.007c7.525,0,15.072-4.98,17.198-12.344
		C400.99,99.028,399.654,91.594,394.689,87.153z M387.989,109.142c-2.483,1.86-5.7,1.993-8.672,2.021
		c-5.322-0.014-10.645,0-15.96-0.021c0.007-7.456-0.007-14.911,0.007-22.367c5.539-0.007,11.085,0,16.639-0.014
		c2.972-0.063,6.057,0.671,8.428,2.553C393.856,95.587,393.766,105.204,387.989,109.142z"/>
	<path fill="#805F68" d="M284.059,82.124c-2.644,0-5.287,0-7.931,0.014c-6.819,11.813-13.638,23.633-20.429,35.473
		c2.651,0.014,5.301,0.014,7.959,0.021c1.399-2.532,2.854-5.036,4.322-7.525c8.092,0.014,16.184-0.035,24.276,0.028
		c1.42,2.511,2.867,4.994,4.322,7.483c2.651,0,5.301,0.007,7.959,0.014C297.725,105.784,290.892,93.958,284.059,82.124z
		 M271.791,103.455c2.791-4.777,5.49-9.603,8.309-14.359c2.784,4.777,5.532,9.575,8.281,14.366
		C282.849,103.448,277.324,103.476,271.791,103.455z"/>
</g>
</svg>
