<?xml version="1.0" encoding="utf-8"?>
<!-- Generator: Adobe Illustrator 17.0.0, SVG Export Plug-In . SVG Version: 6.00 Build 0)  -->
<!DOCTYPE svg PUBLIC "-//W3C//DTD SVG 1.1//EN" "http://www.w3.org/Graphics/SVG/1.1/DTD/svg11.dtd">
<svg version="1.1" id="레이어_1" xmlns="http://www.w3.org/2000/svg" xmlns:xlink="http://www.w3.org/1999/xlink" x="0px"
	 y="0px" width="400px" height="200px" viewBox="0 0 400 200" enable-background="new 0 0 400 200" xml:space="preserve">
<g>
	<g>
		<path fill="#032E82" d="M368.936,77.289c-0.01-2.259,0-4.528,0.019-6.787c-4.47,0.029-8.931-0.086-13.401,0.086
			c-0.057-0.096-0.172-0.287-0.239-0.383c0.048-2.355,0.067-4.719,0.077-7.083c-3.647,0.01-7.285,0.019-10.922,0.01
			c0.01,2.451,0.019,4.901,0.029,7.352c-5.485,0.048-10.97-0.01-16.445,0.029c0.785,2.269,1.627,4.528,2.46,6.787
			C343.321,77.241,356.129,77.261,368.936,77.289z"/>
		<path fill="#032E82" d="M143.499,65.515c0.124,6.155-0.22,12.32,0.22,18.465c-1.905-1.733-3.743-3.532-5.514-5.399
			c-2.489,2.345-5.753,4.441-7.189,7.543c2.096,2.431,4.432,4.671,6.844,6.787c2.01-1.12,3.389-3.063,4.997-4.662l0.727,0.239
			c-0.163,8.108,0,16.225-0.096,24.333c3.647-0.01,7.294-0.038,10.941,0.01c-0.019-15.775-0.077-31.541,0.057-47.316
			C150.822,65.544,147.156,65.534,143.499,65.515z"/>
		<path fill="#032E82" d="M399.491,64.96c-3.59,0.086-7.179,0.077-10.759,0.048c-0.086,5.629-0.029,11.247-0.048,16.876
			c-1.675,0.01-3.331,0.029-4.987,0.057c-0.785-5.629-0.01-11.315-0.45-16.962c-3.618,0.057-7.237,0.048-10.845,0.029
			c-0.01,12.999-0.01,25.998,0,38.998c3.657,0,7.304,0,10.96-0.029c0.019-5.112-0.211-10.233,0.201-15.325
			c1.704,0,3.417,0.01,5.14,0.019c-0.038,6.289-0.019,12.578-0.029,18.867c3.771,0.019,7.552,0.163,11.314-0.258
			C399.596,93.179,400.525,79.022,399.491,64.96z"/>
		<path fill="#032E82" d="M273.931,90.623c8.692,6.413,22.581,5.667,29.703-2.786c3.762-4.327,3.877-11.219,0.239-15.67
			c-5.418-6.796-15.364-8.816-23.452-6.318c-5.887,1.742-11.669,6.394-12.253,12.875C267.594,83.425,270.275,87.876,273.931,90.623z
			 M288.826,72.331c4.04,0.268,6.978,3.58,8.022,7.304c-0.699,3.073-2.479,6.069-5.6,7.16c-4.815,2.345-12.253-0.46-12.856-6.155
			C277.607,75.107,283.915,71.383,288.826,72.331z"/>
		<path fill="#032E82" d="M106.445,98.444c2.288-1.455,3.628-3.982,5.198-6.126c0.048,0.029,0.144,0.086,0.191,0.105
			c4.403,7.754,12.635,12.425,21.088,14.473c1.015-1.886,1.943-3.81,2.68-5.81c-6.059-2.441-11.707-6.241-15.545-11.602
			c-0.66-2.182-1.532-4.317-2.843-6.193c-0.622-2.939-0.871-5.944-1.11-8.941c5.341-0.057,10.692-0.038,16.043-0.019
			c-0.019-2.259-0.019-4.528-0.019-6.787c-13.717,0.038-27.444-0.019-41.161,0.038c0.871,2.221,1.704,4.461,2.489,6.72
			c4.537,0.029,9.084,0.057,13.631-0.038l0.182,0.211c-0.593,4.183-0.66,8.596-2.652,12.434
			c-3.379,6.662-9.821,11.381-16.723,13.918c0.249,2.221,1.445,4.145,2.46,6.088C96.203,105.231,102.195,103,106.445,98.444z"/>
		<path fill="#032E82" d="M175.002,86.278c0.057,3.829,3.58,7.313,7.447,7.141c15.928-0.038,31.866,0.105,47.794-0.077
			c-0.086-9.591-0.057-19.192-0.019-28.784c-3.657,0.029-7.313,0.029-10.97,0c0.019,3.054,0.019,6.098,0.038,9.151
			c-11.085-0.498-22.198-0.077-33.292-0.23c0.01-2.987,0.019-5.973,0.01-8.96c-3.685,0.029-7.371,0.019-11.056,0.029
			C175.021,71.785,174.877,79.031,175.002,86.278z M219.245,80.266c0,2.144,0,4.288,0,6.433
			c-11.066-0.086-22.122,0.077-33.187-0.096c-0.038-2.106-0.057-4.221-0.067-6.327C197.075,80.276,208.16,80.295,219.245,80.266z"/>
		<path fill="#032E82" d="M366.342,94.979c0.948-4.595-1.666-9.237-5.36-11.831c-7.572-5.313-19.058-4.729-25.616,1.962
			c-3.398,3.369-4.308,8.95-1.972,13.152c2.029,3.714,5.81,6.107,9.735,7.447c4.174,1.426,8.979,1.733,13.028-0.287
			C360.905,103.824,365.337,100.081,366.342,94.979z M341.751,95.553c-1.943-3.274,0.632-7.38,3.877-8.577
			c4.987-2.69,13.095,1.445,11.573,7.61C355.133,101.172,344.699,101.699,341.751,95.553z"/>
		<path fill="#032E82" d="M240.572,105.202c-0.01-2.25-0.029-4.509-0.048-6.758c-24.649,0.057-49.307,0.019-73.956,0.019
			c0.804,2.221,1.608,4.451,2.345,6.71c9.716,0.029,19.432,0,29.138,0.01c-0.01,2.096-0.01,4.193-0.019,6.279
			c-7.945,0.038-15.89-0.029-23.835,0.038c0.89,2.221,1.742,4.461,2.537,6.729c14.311,0.019,28.621,0.029,42.941,0
			c-0.029,5.82,0.019,11.64-0.048,17.45c3.752,0.096,7.495,0.077,11.247,0.067c-0.057-8.098-0.038-16.196-0.01-24.294
			c-7.294,0.038-14.588,0.019-21.882,0.019c0-2.096,0.01-4.193,0.019-6.289C219.522,105.192,230.052,105.164,240.572,105.202z"/>
		<path fill="#032E82" d="M249.33,100.167c0.814,2.24,1.627,4.489,2.508,6.71c23.892-0.115,47.794,0.01,71.687-0.057
			c0-2.23,0-4.451,0-6.682C298.791,100.138,274.065,100.09,249.33,100.167z"/>
		<path fill="#032E82" d="M272.859,128.3c-0.086-5.753,0-11.496-0.067-17.249c-3.733,0.019-7.457,0.01-11.19,0
			c-0.067,5.849-0.096,11.688-0.019,17.536c-0.105,3.704,3.389,6.825,7.036,6.653c15.469,0.105,30.938-0.019,46.406,0.057
			c0.057-2.345,0.057-4.7,0.019-7.055C300.983,128.319,286.921,128.223,272.859,128.3z"/>
		<path fill="#032E82" d="M112.198,128.243c-0.048-5.724,0.048-11.448-0.057-17.173c-3.771,0.029-7.581-0.287-11.314,0.479
			c0.287,5.944-0.191,11.918,0.239,17.852c0.421,3.714,4.106,6.165,7.696,5.868c15.23,0.019,30.459,0.048,45.679-0.029
			c0.01-2.336,0-4.671-0.086-7.007C140.302,128.3,126.25,128.281,112.198,128.243z"/>
		<path fill="#032E82" d="M368.573,107.882c-4.556,1.445-8.969,4.231-11.228,8.577c-2.699,4.757-1.761,11.123,2.01,15.038
			c8.251,8.988,24.036,9.122,32.68,0.613c4.03-3.953,5.562-10.539,2.585-15.565C389.651,107.71,377.781,104.982,368.573,107.882z
			 M377.819,130.454c-4.375,0.842-9.649-1.436-11.085-5.868c-1.244-3.714,1.264-7.677,4.69-9.113
			c5.112-2.604,13.229,0.038,13.88,6.241C386.109,126.242,381.945,129.822,377.819,130.454z"/>
	</g>
	<path fill="#067FC5" d="M0.05,61.862c25.038,0.111,50.068-0.127,75.107,0c-7.707,8.177-15.75,16.061-23.799,23.904
		c-12.472,12.138-24.475,24.76-36.907,36.954c4.533,4.541,8.987,9.169,13.662,13.559c1.436-1.532,2.922-3.017,4.445-4.469
		c1.787,1.69,3.477,3.485,5.033,5.399c-12.527,0.103-25.054,0.008-37.581,0.04C-0.045,112.121,0.138,86.996,0.05,61.862L0.05,61.862
		z"/>
	<path fill="#023070" d="M75.157,61.862l0.206-0.23c-0.056,15.719,0.016,31.437-0.016,47.147
		c-7.914-7.748-16.076-15.258-23.99-23.014C59.407,77.922,67.449,70.039,75.157,61.862L75.157,61.862z"/>
	<path fill="#023070" d="M32.559,131.809c6.176-6.192,12.543-12.193,18.695-18.417c7.986,7.978,15.83,16.1,24.07,23.816
		c-12.583-0.024-25.157-0.032-37.732,0C36.036,135.294,34.345,133.5,32.559,131.809L32.559,131.809z"/>
</g>
</svg>
