<?xml version="1.0" encoding="utf-8"?>
<!-- Generator: Adobe Illustrator 17.0.0, SVG Export Plug-In . SVG Version: 6.00 Build 0)  -->
<!DOCTYPE svg PUBLIC "-//W3C//DTD SVG 1.1//EN" "http://www.w3.org/Graphics/SVG/1.1/DTD/svg11.dtd">
<svg version="1.1" id="레이어_1" xmlns="http://www.w3.org/2000/svg" xmlns:xlink="http://www.w3.org/1999/xlink" x="0px"
	 y="0px" width="200px" height="200px" viewBox="0 0 200 200" enable-background="new 0 0 200 200" xml:space="preserve">
<g>
	<g>
		<path d="M165.409,3.868c1.336-0.748,2.617-1.768,4.225-1.789c0.331,1.05,0.643,2.125,0.598,3.24
			c-0.025,9.218-0.015,18.436-0.005,27.649c0,1.025-0.181,2.035-0.361,3.039c-0.155-0.331-0.477-0.999-0.638-1.332
			c-2.396-0.382-4.828-0.407-7.249-0.342c-13.895,0.015-27.79,0-41.685,0.01c-2.275,0.015-4.551-0.005-6.827-0.131
			c1.623-1.502,3.642-2.436,5.531-3.546C134.46,21.727,149.937,12.805,165.409,3.868L165.409,3.868z"/>
		<path d="M113.447,35.2c0.005-0.246,0.015-0.739,0.021-0.985c2.275,0.126,4.551,0.146,6.827,0.131
			c13.895-0.01,27.79,0.005,41.685-0.01c2.422-0.065,4.852-0.04,7.249,0.342c0.161,0.331,0.483,0.999,0.638,1.332
			c-0.668,1.07-1.472,2.08-2.617,2.668c-7.851,4.481-15.648,9.072-23.525,13.513l-0.196,0.11c-6.5-4.074-13.272-7.706-19.873-11.614
			C120.228,38.902,117.104,36.5,113.447,35.2L113.447,35.2z"/>
		<path d="M112.949,35.024l0.497,0.176c3.657,1.301,6.782,3.702,10.208,5.485c6.601,3.909,13.373,7.54,19.873,11.614
			c-8.892,5.139-17.748,10.348-26.685,15.402c-1.14,0.668-2.356,1.196-3.617,1.592c-0.758-0.487-0.563-1.402-0.603-2.155
			c0.03-8.711,0.005-17.421,0.015-26.127C112.658,39.012,112.467,36.988,112.949,35.024L112.949,35.024z"/>
		<path d="M116.842,67.702c8.937-5.054,17.793-10.263,26.685-15.402l0.196-0.11c7.902,4.722,15.945,9.218,23.892,13.865
			c1.623,0.914,2.652,2.718,2.552,4.587c0.005,9.539-0.02,19.084,0.01,28.624c0.02,0.954-0.161,1.899-0.366,2.828
			c-0.542,0.045-1.08,0.091-1.618,0.136c0.718-0.688,1.813-1.266,1.587-2.441c0.035-9.042-0.03-18.084,0.035-27.127
			c0.045-1.105-0.266-2.17-0.633-3.2c-1.367,0.261-2.753,0.483-4.144,0.477c-15.915-0.056-31.828,0.01-47.738-0.04
			c-1.21-0.021-2.391,0.276-3.531,0.648c-0.221-0.286-0.658-0.859-0.879-1.14l0.337-0.11
			C114.486,68.897,115.702,68.37,116.842,67.702L116.842,67.702z"/>
		<path d="M165.038,69.937c1.391,0.005,2.778-0.216,4.144-0.477c0.366,1.03,0.678,2.094,0.633,3.2
			c-0.065,9.042,0,18.084-0.035,27.127c0.226,1.175-0.869,1.754-1.587,2.441c-17.416-10.128-34.888-20.154-52.325-30.241
			c-0.734-0.437-1.426-0.929-2.1-1.442c1.14-0.372,2.321-0.668,3.531-0.648C133.209,69.947,149.123,69.882,165.038,69.937
			L165.038,69.937z"/>
		<path d="M107.303,102.112c7.445-2.2,15.447-2.059,22.992-0.442c4.983,1.151,9.876,3.341,13.568,6.958
			c-3.33,3.511-6.51,7.159-9.851,10.655c-3.034-3.236-7.213-5.36-11.65-5.727c-5.898-0.809-12.348,0.497-16.769,4.682
			c-6.254,5.872-7.555,15.704-4.561,23.51c2.18,5.842,7.57,10.233,13.699,11.318c5.712,0.859,11.79,0.091,16.904-2.683
			c0.236-3.325,0.04-6.671,0.096-10.001c-3.722,0.01-7.44-0.01-11.157,0.005c0-4.285-0.01-8.575,0.005-12.865
			c8.188,0.045,16.382-0.03,24.575,0.04c-0.045,10.89-0.035,21.782-0.01,32.672c-7.013,3.743-14.935,5.591-22.847,5.953
			c-7.706,0.502-15.718-0.774-22.405-4.807c-7.56-4.411-12.74-12.358-14.201-20.943c-1.316-7.846-0.608-16.256,3.154-23.374
			C92.564,109.784,99.511,104.413,107.303,102.112L107.303,102.112z"/>
		<path d="M29.786,102.093c4.641-0.03,9.279-0.005,13.915-0.015c0.021,8.606-0.05,17.205,0.035,25.811
			c8.057-8.606,16.1-17.221,24.158-25.825c6.099,0.05,12.197-0.025,18.295,0.035c-9.128,9.374-18.12,18.883-27.172,28.327
			c-0.788,0.512-0.342,1.327,0.211,1.808c9.766,10.791,19.476,21.632,29.267,32.396c-6.5,0.025-12.996-0.01-19.496,0.015
			c-8.46-9.741-16.718-19.667-25.263-29.327c-0.085,9.776-0.02,19.547-0.035,29.317c-4.636,0-9.274,0.005-13.915,0
			C29.791,143.788,29.791,122.94,29.786,102.093L29.786,102.093z"/>
	</g>
	<g>
		<path d="M69.487,173.343c1.201-0.01,2.413-0.01,3.614,0c0.042,4.397,0.01,8.795,0.031,13.203
			c-1.222,0.157-2.455,0.251-3.687,0.282C69.487,182.326,69.435,177.834,69.487,173.343L69.487,173.343z"/>
		<path d="M77.77,174.648c3.771-0.042,7.531,0.031,11.291-0.031c0,3.144,0.031,6.278,0,9.422c-2.601,0.063-5.191,0-7.792-0.021
			c-0.021,0.857-0.063,2.559-0.073,3.416c3.551,0.031,7.113-0.021,10.675-0.021c0.031,0.773,0.104,2.308,0.136,3.071
			c-4.721,0.178-9.453,0.146-14.185,0.063c-0.021-3.134-0.042-6.257,0-9.39c2.695-0.021,5.39,0.031,8.095,0
			c-0.01-0.846-0.021-2.528-0.021-3.363c-2.695-0.052-5.39-0.031-8.074,0.01C77.791,176.748,77.781,175.693,77.77,174.648
			L77.77,174.648z"/>
		<path d="M92.717,173.374c0.836-0.021,2.496-0.063,3.322-0.084c0.104,8.116,0.063,16.222,0.042,24.337
			c-0.846,0.01-2.517,0.021-3.363,0.031C92.696,189.564,92.696,181.469,92.717,173.374L92.717,173.374z"/>
		<path d="M130.592,174.377c0.909,0,2.726-0.01,3.635-0.01c-1.347,5.432,3.436,9.15,7.897,10.894
			c-0.48,0.648-1.441,1.953-1.911,2.611c-3.05-1.139-5.828-3.019-7.865-5.578c-2.016,2.528-4.648,4.512-7.74,5.526
			c-0.501-0.616-1.504-1.87-2.005-2.486C127.051,183.548,131.814,179.819,130.592,174.377L130.592,174.377z"/>
		<path d="M51.97,191.392c-3.123-0.084-6.246,0-9.38-0.052c-0.042-1.473-0.042-2.956,0-4.429c1.922,0.01,3.833,0.031,5.755,0.01
			c-0.042-4.001,0.021-8.001-0.021-12.012c-5.056-0.073-10.121,0.031-15.177-0.021c0.031,4.001,0.01,8.012,0.01,12.012
			c1.88,0.042,3.76,0.021,5.64-0.021c0.146,1.494,0.115,2.998,0.073,4.502c-3.04,0-6.069-0.031-9.108-0.01
			c0.01,0.783,0.01,2.35,0.021,3.134c7.395-0.01,14.801-0.021,22.207,0.01C51.981,193.732,51.981,192.165,51.97,191.392z
			 M36.563,183.757c0-1.901,0-3.792,0-5.693c2.778-0.073,5.557-0.021,8.335-0.01c0.031,1.912,0.042,3.823,0.021,5.745
			C42.131,183.788,39.352,183.84,36.563,183.757z"/>
		<path d="M118.329,173.635c-0.856-0.01-2.559-0.031-3.416-0.042c-0.021,1.807,0,3.614,0.031,5.421
			c-1.285-0.167-3.395,0.825-3.844-1.003c-1.661-3.792-7.416-4.627-10.247-1.713c-3.207,2.768-2.319,8.701,1.65,10.33
			c3.823,1.911,8.482-0.595,9.453-4.659c0.992,0,1.995,0.01,2.987,0.031c-0.073,3.019-0.063,6.048-0.021,9.066
			c0.846,0.01,2.538,0.021,3.395,0.031C118.319,185.271,118.287,179.453,118.329,173.635z M106.965,183.506
			c-3.342,2.538-6.591-3.583-3.092-5.515C107.32,176.132,110.286,181.615,106.965,183.506z"/>
		<path d="M65.81,174.398c-1.139,0-2.267,0-3.405,0.01c0.01,0.836,0.021,2.517,0.031,3.363c-1.661,0.01-3.322,0.01-4.982-0.021
			c0-0.836,0-2.528,0-3.363c-0.846,0-2.538,0.01-3.384,0.021c-0.021,3.823-0.021,7.646-0.031,11.479
			c3.927-0.021,7.855,0.01,11.782-0.021C65.852,182.044,65.81,178.221,65.81,174.398z M62.395,182.722
			c-1.661,0.042-3.311,0.021-4.972-0.031c-0.01-0.449-0.021-1.347-0.031-1.786c1.598-0.554,3.353-0.157,5.014-0.219
			C62.405,181.197,62.405,182.211,62.395,182.722z"/>
		<path d="M58.237,187.454c4.972-0.094,9.965,0.157,14.926-0.324c-0.042,2.298-0.031,4.585-0.094,6.883
			c-3.865-0.084-7.74-0.031-11.605-0.042l0.418,1.044c3.948,0.042,7.897-0.063,11.845,0.052c-0.042,0.951-0.104,1.901-0.188,2.852
			c-5.014-0.052-10.027,0.063-15.031-0.084c-0.031-2.246-0.031-4.502,0.01-6.748c3.729-0.052,7.468,0.104,11.208-0.063
			c-0.23-0.178-0.7-0.522-0.94-0.7c-3.53-0.01-7.061-0.031-10.592-0.01C58.206,189.596,58.227,188.164,58.237,187.454
			L58.237,187.454z"/>
		<path d="M103.915,188.802c1.201-0.042,2.402-0.094,3.614-0.157c0.042,1.943,0.063,3.896,0.063,5.839
			c3.76,0.031,7.51-0.01,11.26,0.042c-0.01,0.71-0.021,2.131-0.031,2.841c-4.962-0.021-9.923,0.073-14.885-0.052
			C103.894,194.473,103.936,191.643,103.915,188.802L103.915,188.802z"/>
		<path d="M121.212,190.828c7.406,0.021,14.801-0.021,22.207,0.021c-0.021,0.783-0.052,2.34-0.063,3.123
			c-7.406,0-14.811,0.031-22.217-0.031C121.16,193.157,121.202,191.601,121.212,190.828L121.212,190.828z"/>
	</g>
</g>
</svg>
